<?xml version="1.0" encoding="utf-8"?>
<svg xmlns="http://www.w3.org/2000/svg" xmlns:xlink="http://www.w3.org/1999/xlink" width="600" height="400" viewBox="0 0 2400 1600">
<defs>
  <clipPath id="clip810">
    <rect x="0" y="0" width="2400" height="1600"/>
  </clipPath>
</defs>
<path clip-path="url(#clip810)" d="
M0 1600 L2400 1600 L2400 0 L0 0  Z
  " fill="#ffffff" fill-rule="evenodd" fill-opacity="1"/>
<defs>
  <clipPath id="clip811">
    <rect x="480" y="0" width="1681" height="1600"/>
  </clipPath>
</defs>
<path clip-path="url(#clip810)" d="
M346.768 521.367 L2352.76 521.367 L2352.76 121.675 L346.768 121.675  Z
  " fill="#ffffff" fill-rule="evenodd" fill-opacity="1"/>
<defs>
  <clipPath id="clip812">
    <rect x="346" y="121" width="2007" height="401"/>
  </clipPath>
</defs>
<polyline clip-path="url(#clip812)" style="stroke:#000000; stroke-linecap:butt; stroke-linejoin:round; stroke-width:2; stroke-opacity:0.1; fill:none" points="
  633.338,521.367 633.338,121.675 
  "/>
<polyline clip-path="url(#clip812)" style="stroke:#000000; stroke-linecap:butt; stroke-linejoin:round; stroke-width:2; stroke-opacity:0.1; fill:none" points="
  991.55,521.367 991.55,121.675 
  "/>
<polyline clip-path="url(#clip812)" style="stroke:#000000; stroke-linecap:butt; stroke-linejoin:round; stroke-width:2; stroke-opacity:0.1; fill:none" points="
  1349.76,521.367 1349.76,121.675 
  "/>
<polyline clip-path="url(#clip812)" style="stroke:#000000; stroke-linecap:butt; stroke-linejoin:round; stroke-width:2; stroke-opacity:0.1; fill:none" points="
  1707.97,521.367 1707.97,121.675 
  "/>
<polyline clip-path="url(#clip812)" style="stroke:#000000; stroke-linecap:butt; stroke-linejoin:round; stroke-width:2; stroke-opacity:0.1; fill:none" points="
  2066.19,521.367 2066.19,121.675 
  "/>
<polyline clip-path="url(#clip810)" style="stroke:#000000; stroke-linecap:butt; stroke-linejoin:round; stroke-width:4; stroke-opacity:1; fill:none" points="
  346.768,521.367 2352.76,521.367 
  "/>
<polyline clip-path="url(#clip810)" style="stroke:#000000; stroke-linecap:butt; stroke-linejoin:round; stroke-width:4; stroke-opacity:1; fill:none" points="
  633.338,521.367 633.338,502.469 
  "/>
<polyline clip-path="url(#clip810)" style="stroke:#000000; stroke-linecap:butt; stroke-linejoin:round; stroke-width:4; stroke-opacity:1; fill:none" points="
  991.55,521.367 991.55,502.469 
  "/>
<polyline clip-path="url(#clip810)" style="stroke:#000000; stroke-linecap:butt; stroke-linejoin:round; stroke-width:4; stroke-opacity:1; fill:none" points="
  1349.76,521.367 1349.76,502.469 
  "/>
<polyline clip-path="url(#clip810)" style="stroke:#000000; stroke-linecap:butt; stroke-linejoin:round; stroke-width:4; stroke-opacity:1; fill:none" points="
  1707.97,521.367 1707.97,502.469 
  "/>
<polyline clip-path="url(#clip810)" style="stroke:#000000; stroke-linecap:butt; stroke-linejoin:round; stroke-width:4; stroke-opacity:1; fill:none" points="
  2066.19,521.367 2066.19,502.469 
  "/>
<g clip-path="url(#clip810)">
<text style="fill:#000000; fill-opacity:1; font-family:Arial,Helvetica Neue,Helvetica,sans-serif; font-size:48px; text-anchor:middle;" transform="rotate(0, 633.338, 582.567)" x="633.338" y="582.567">−5.0</text>
</g>
<g clip-path="url(#clip810)">
<text style="fill:#000000; fill-opacity:1; font-family:Arial,Helvetica Neue,Helvetica,sans-serif; font-size:48px; text-anchor:middle;" transform="rotate(0, 991.55, 582.567)" x="991.55" y="582.567">−2.5</text>
</g>
<g clip-path="url(#clip810)">
<text style="fill:#000000; fill-opacity:1; font-family:Arial,Helvetica Neue,Helvetica,sans-serif; font-size:48px; text-anchor:middle;" transform="rotate(0, 1349.76, 582.567)" x="1349.76" y="582.567">0.0</text>
</g>
<g clip-path="url(#clip810)">
<text style="fill:#000000; fill-opacity:1; font-family:Arial,Helvetica Neue,Helvetica,sans-serif; font-size:48px; text-anchor:middle;" transform="rotate(0, 1707.97, 582.567)" x="1707.97" y="582.567">2.5</text>
</g>
<g clip-path="url(#clip810)">
<text style="fill:#000000; fill-opacity:1; font-family:Arial,Helvetica Neue,Helvetica,sans-serif; font-size:48px; text-anchor:middle;" transform="rotate(0, 2066.19, 582.567)" x="2066.19" y="582.567">5.0</text>
</g>
<g clip-path="url(#clip810)">
<text style="fill:#000000; fill-opacity:1; font-family:Arial,Helvetica Neue,Helvetica,sans-serif; font-size:66px; text-anchor:middle;" transform="rotate(0, 1349.76, 667.228)" x="1349.76" y="667.228">x</text>
</g>
<polyline clip-path="url(#clip812)" style="stroke:#000000; stroke-linecap:butt; stroke-linejoin:round; stroke-width:2; stroke-opacity:0.1; fill:none" points="
  346.768,484.503 2352.76,484.503 
  "/>
<polyline clip-path="url(#clip812)" style="stroke:#000000; stroke-linecap:butt; stroke-linejoin:round; stroke-width:2; stroke-opacity:0.1; fill:none" points="
  346.768,409.773 2352.76,409.773 
  "/>
<polyline clip-path="url(#clip812)" style="stroke:#000000; stroke-linecap:butt; stroke-linejoin:round; stroke-width:2; stroke-opacity:0.1; fill:none" points="
  346.768,335.043 2352.76,335.043 
  "/>
<polyline clip-path="url(#clip812)" style="stroke:#000000; stroke-linecap:butt; stroke-linejoin:round; stroke-width:2; stroke-opacity:0.1; fill:none" points="
  346.768,260.312 2352.76,260.312 
  "/>
<polyline clip-path="url(#clip812)" style="stroke:#000000; stroke-linecap:butt; stroke-linejoin:round; stroke-width:2; stroke-opacity:0.1; fill:none" points="
  346.768,185.582 2352.76,185.582 
  "/>
<polyline clip-path="url(#clip810)" style="stroke:#000000; stroke-linecap:butt; stroke-linejoin:round; stroke-width:4; stroke-opacity:1; fill:none" points="
  346.768,521.367 346.768,121.675 
  "/>
<polyline clip-path="url(#clip810)" style="stroke:#000000; stroke-linecap:butt; stroke-linejoin:round; stroke-width:4; stroke-opacity:1; fill:none" points="
  346.768,484.503 365.666,484.503 
  "/>
<polyline clip-path="url(#clip810)" style="stroke:#000000; stroke-linecap:butt; stroke-linejoin:round; stroke-width:4; stroke-opacity:1; fill:none" points="
  346.768,409.773 365.666,409.773 
  "/>
<polyline clip-path="url(#clip810)" style="stroke:#000000; stroke-linecap:butt; stroke-linejoin:round; stroke-width:4; stroke-opacity:1; fill:none" points="
  346.768,335.043 365.666,335.043 
  "/>
<polyline clip-path="url(#clip810)" style="stroke:#000000; stroke-linecap:butt; stroke-linejoin:round; stroke-width:4; stroke-opacity:1; fill:none" points="
  346.768,260.312 365.666,260.312 
  "/>
<polyline clip-path="url(#clip810)" style="stroke:#000000; stroke-linecap:butt; stroke-linejoin:round; stroke-width:4; stroke-opacity:1; fill:none" points="
  346.768,185.582 365.666,185.582 
  "/>
<g clip-path="url(#clip810)">
<text style="fill:#000000; fill-opacity:1; font-family:Arial,Helvetica Neue,Helvetica,sans-serif; font-size:48px; text-anchor:end;" transform="rotate(0, 310.768, 502.003)" x="310.768" y="502.003">−1.0</text>
</g>
<g clip-path="url(#clip810)">
<text style="fill:#000000; fill-opacity:1; font-family:Arial,Helvetica Neue,Helvetica,sans-serif; font-size:48px; text-anchor:end;" transform="rotate(0, 310.768, 427.273)" x="310.768" y="427.273">−0.5</text>
</g>
<g clip-path="url(#clip810)">
<text style="fill:#000000; fill-opacity:1; font-family:Arial,Helvetica Neue,Helvetica,sans-serif; font-size:48px; text-anchor:end;" transform="rotate(0, 310.768, 352.543)" x="310.768" y="352.543">0.0</text>
</g>
<g clip-path="url(#clip810)">
<text style="fill:#000000; fill-opacity:1; font-family:Arial,Helvetica Neue,Helvetica,sans-serif; font-size:48px; text-anchor:end;" transform="rotate(0, 310.768, 277.812)" x="310.768" y="277.812">0.5</text>
</g>
<g clip-path="url(#clip810)">
<text style="fill:#000000; fill-opacity:1; font-family:Arial,Helvetica Neue,Helvetica,sans-serif; font-size:48px; text-anchor:end;" transform="rotate(0, 310.768, 203.082)" x="310.768" y="203.082">1.0</text>
</g>
<g clip-path="url(#clip810)">
<text style="fill:#000000; fill-opacity:1; font-family:Arial,Helvetica Neue,Helvetica,sans-serif; font-size:66px; text-anchor:middle;" transform="rotate(-90, 169.538, 321.521)" x="169.538" y="321.521">f(x),g(x)</text>
</g>
<g clip-path="url(#clip810)">
<text style="fill:#000000; fill-opacity:1; font-family:Arial,Helvetica Neue,Helvetica,sans-serif; font-size:84px; text-anchor:middle;" transform="rotate(0, 1349.76, 73.2)" x="1349.76" y="73.2">K=6</text>
</g>
<circle clip-path="url(#clip812)" cx="1763.37" cy="249.492" r="14" fill="#009af9" fill-rule="evenodd" fill-opacity="1" stroke="#000000" stroke-opacity="1" stroke-width="3.2"/>
<circle clip-path="url(#clip812)" cx="992.638" cy="468.976" r="14" fill="#009af9" fill-rule="evenodd" fill-opacity="1" stroke="#000000" stroke-opacity="1" stroke-width="3.2"/>
<circle clip-path="url(#clip812)" cx="751.331" cy="182.602" r="14" fill="#009af9" fill-rule="evenodd" fill-opacity="1" stroke="#000000" stroke-opacity="1" stroke-width="3.2"/>
<circle clip-path="url(#clip812)" cx="2232.91" cy="326.093" r="14" fill="#009af9" fill-rule="evenodd" fill-opacity="1" stroke="#000000" stroke-opacity="1" stroke-width="3.2"/>
<circle clip-path="url(#clip812)" cx="1281.81" cy="423.983" r="14" fill="#009af9" fill-rule="evenodd" fill-opacity="1" stroke="#000000" stroke-opacity="1" stroke-width="3.2"/>
<circle clip-path="url(#clip812)" cx="1596.27" cy="232.353" r="14" fill="#009af9" fill-rule="evenodd" fill-opacity="1" stroke="#000000" stroke-opacity="1" stroke-width="3.2"/>
<circle clip-path="url(#clip812)" cx="1174.9" cy="497.974" r="14" fill="#009af9" fill-rule="evenodd" fill-opacity="1" stroke="#000000" stroke-opacity="1" stroke-width="3.2"/>
<circle clip-path="url(#clip812)" cx="1044.24" cy="458.098" r="14" fill="#009af9" fill-rule="evenodd" fill-opacity="1" stroke="#000000" stroke-opacity="1" stroke-width="3.2"/>
<circle clip-path="url(#clip812)" cx="590.031" cy="203.586" r="14" fill="#009af9" fill-rule="evenodd" fill-opacity="1" stroke="#000000" stroke-opacity="1" stroke-width="3.2"/>
<circle clip-path="url(#clip812)" cx="549.467" cy="245.677" r="14" fill="#009af9" fill-rule="evenodd" fill-opacity="1" stroke="#000000" stroke-opacity="1" stroke-width="3.2"/>
<circle clip-path="url(#clip812)" cx="1644.35" cy="215.993" r="14" fill="#009af9" fill-rule="evenodd" fill-opacity="1" stroke="#000000" stroke-opacity="1" stroke-width="3.2"/>
<circle clip-path="url(#clip812)" cx="1883.09" cy="469.988" r="14" fill="#009af9" fill-rule="evenodd" fill-opacity="1" stroke="#000000" stroke-opacity="1" stroke-width="3.2"/>
<circle clip-path="url(#clip812)" cx="1681.07" cy="205.337" r="14" fill="#009af9" fill-rule="evenodd" fill-opacity="1" stroke="#000000" stroke-opacity="1" stroke-width="3.2"/>
<circle clip-path="url(#clip812)" cx="1096.66" cy="469.765" r="14" fill="#009af9" fill-rule="evenodd" fill-opacity="1" stroke="#000000" stroke-opacity="1" stroke-width="3.2"/>
<circle clip-path="url(#clip812)" cx="688.156" cy="179.954" r="14" fill="#009af9" fill-rule="evenodd" fill-opacity="1" stroke="#000000" stroke-opacity="1" stroke-width="3.2"/>
<circle clip-path="url(#clip812)" cx="703.889" cy="158.377" r="14" fill="#009af9" fill-rule="evenodd" fill-opacity="1" stroke="#000000" stroke-opacity="1" stroke-width="3.2"/>
<circle clip-path="url(#clip812)" cx="651.978" cy="176.172" r="14" fill="#009af9" fill-rule="evenodd" fill-opacity="1" stroke="#000000" stroke-opacity="1" stroke-width="3.2"/>
<circle clip-path="url(#clip812)" cx="467.898" cy="338.778" r="14" fill="#009af9" fill-rule="evenodd" fill-opacity="1" stroke="#000000" stroke-opacity="1" stroke-width="3.2"/>
<circle clip-path="url(#clip812)" cx="1584.2" cy="191.856" r="14" fill="#009af9" fill-rule="evenodd" fill-opacity="1" stroke="#000000" stroke-opacity="1" stroke-width="3.2"/>
<circle clip-path="url(#clip812)" cx="927.988" cy="319.784" r="14" fill="#009af9" fill-rule="evenodd" fill-opacity="1" stroke="#000000" stroke-opacity="1" stroke-width="3.2"/>
<circle clip-path="url(#clip812)" cx="556.703" cy="232.677" r="14" fill="#009af9" fill-rule="evenodd" fill-opacity="1" stroke="#000000" stroke-opacity="1" stroke-width="3.2"/>
<circle clip-path="url(#clip812)" cx="1599.79" cy="187.122" r="14" fill="#009af9" fill-rule="evenodd" fill-opacity="1" stroke="#000000" stroke-opacity="1" stroke-width="3.2"/>
<circle clip-path="url(#clip812)" cx="2054.02" cy="497.044" r="14" fill="#009af9" fill-rule="evenodd" fill-opacity="1" stroke="#000000" stroke-opacity="1" stroke-width="3.2"/>
<circle clip-path="url(#clip812)" cx="565.562" cy="275.23" r="14" fill="#009af9" fill-rule="evenodd" fill-opacity="1" stroke="#000000" stroke-opacity="1" stroke-width="3.2"/>
<circle clip-path="url(#clip812)" cx="1661.02" cy="191.946" r="14" fill="#009af9" fill-rule="evenodd" fill-opacity="1" stroke="#000000" stroke-opacity="1" stroke-width="3.2"/>
<circle clip-path="url(#clip812)" cx="1209.45" cy="412.743" r="14" fill="#009af9" fill-rule="evenodd" fill-opacity="1" stroke="#000000" stroke-opacity="1" stroke-width="3.2"/>
<circle clip-path="url(#clip812)" cx="450.96" cy="332.553" r="14" fill="#009af9" fill-rule="evenodd" fill-opacity="1" stroke="#000000" stroke-opacity="1" stroke-width="3.2"/>
<circle clip-path="url(#clip812)" cx="1410.04" cy="286.229" r="14" fill="#009af9" fill-rule="evenodd" fill-opacity="1" stroke="#000000" stroke-opacity="1" stroke-width="3.2"/>
<circle clip-path="url(#clip812)" cx="557.04" cy="215.499" r="14" fill="#009af9" fill-rule="evenodd" fill-opacity="1" stroke="#000000" stroke-opacity="1" stroke-width="3.2"/>
<circle clip-path="url(#clip812)" cx="1121.3" cy="455.321" r="14" fill="#009af9" fill-rule="evenodd" fill-opacity="1" stroke="#000000" stroke-opacity="1" stroke-width="3.2"/>
<circle clip-path="url(#clip812)" cx="2082.62" cy="481.475" r="14" fill="#009af9" fill-rule="evenodd" fill-opacity="1" stroke="#000000" stroke-opacity="1" stroke-width="3.2"/>
<circle clip-path="url(#clip812)" cx="1039.71" cy="449.446" r="14" fill="#009af9" fill-rule="evenodd" fill-opacity="1" stroke="#000000" stroke-opacity="1" stroke-width="3.2"/>
<circle clip-path="url(#clip812)" cx="1131.44" cy="493.355" r="14" fill="#009af9" fill-rule="evenodd" fill-opacity="1" stroke="#000000" stroke-opacity="1" stroke-width="3.2"/>
<circle clip-path="url(#clip812)" cx="1721.98" cy="257.685" r="14" fill="#009af9" fill-rule="evenodd" fill-opacity="1" stroke="#000000" stroke-opacity="1" stroke-width="3.2"/>
<circle clip-path="url(#clip812)" cx="1144.85" cy="418.874" r="14" fill="#009af9" fill-rule="evenodd" fill-opacity="1" stroke="#000000" stroke-opacity="1" stroke-width="3.2"/>
<circle clip-path="url(#clip812)" cx="1182.44" cy="472.273" r="14" fill="#009af9" fill-rule="evenodd" fill-opacity="1" stroke="#000000" stroke-opacity="1" stroke-width="3.2"/>
<circle clip-path="url(#clip812)" cx="1546.67" cy="224.152" r="14" fill="#009af9" fill-rule="evenodd" fill-opacity="1" stroke="#000000" stroke-opacity="1" stroke-width="3.2"/>
<circle clip-path="url(#clip812)" cx="1163.15" cy="485.066" r="14" fill="#009af9" fill-rule="evenodd" fill-opacity="1" stroke="#000000" stroke-opacity="1" stroke-width="3.2"/>
<circle clip-path="url(#clip812)" cx="1377.46" cy="329.591" r="14" fill="#009af9" fill-rule="evenodd" fill-opacity="1" stroke="#000000" stroke-opacity="1" stroke-width="3.2"/>
<circle clip-path="url(#clip812)" cx="1741.09" cy="251.917" r="14" fill="#009af9" fill-rule="evenodd" fill-opacity="1" stroke="#000000" stroke-opacity="1" stroke-width="3.2"/>
<circle clip-path="url(#clip812)" cx="1066.75" cy="442.513" r="14" fill="#009af9" fill-rule="evenodd" fill-opacity="1" stroke="#000000" stroke-opacity="1" stroke-width="3.2"/>
<circle clip-path="url(#clip812)" cx="855.625" cy="311.462" r="14" fill="#009af9" fill-rule="evenodd" fill-opacity="1" stroke="#000000" stroke-opacity="1" stroke-width="3.2"/>
<circle clip-path="url(#clip812)" cx="777.306" cy="267.862" r="14" fill="#009af9" fill-rule="evenodd" fill-opacity="1" stroke="#000000" stroke-opacity="1" stroke-width="3.2"/>
<circle clip-path="url(#clip812)" cx="1949.13" cy="510.055" r="14" fill="#009af9" fill-rule="evenodd" fill-opacity="1" stroke="#000000" stroke-opacity="1" stroke-width="3.2"/>
<circle clip-path="url(#clip812)" cx="521.255" cy="258.452" r="14" fill="#009af9" fill-rule="evenodd" fill-opacity="1" stroke="#000000" stroke-opacity="1" stroke-width="3.2"/>
<circle clip-path="url(#clip812)" cx="1217.99" cy="470.602" r="14" fill="#009af9" fill-rule="evenodd" fill-opacity="1" stroke="#000000" stroke-opacity="1" stroke-width="3.2"/>
<circle clip-path="url(#clip812)" cx="1239.58" cy="506.603" r="14" fill="#009af9" fill-rule="evenodd" fill-opacity="1" stroke="#000000" stroke-opacity="1" stroke-width="3.2"/>
<circle clip-path="url(#clip812)" cx="2107.54" cy="450.91" r="14" fill="#009af9" fill-rule="evenodd" fill-opacity="1" stroke="#000000" stroke-opacity="1" stroke-width="3.2"/>
<circle clip-path="url(#clip812)" cx="897.017" cy="335.831" r="14" fill="#009af9" fill-rule="evenodd" fill-opacity="1" stroke="#000000" stroke-opacity="1" stroke-width="3.2"/>
<circle clip-path="url(#clip812)" cx="2272.86" cy="308.115" r="14" fill="#009af9" fill-rule="evenodd" fill-opacity="1" stroke="#000000" stroke-opacity="1" stroke-width="3.2"/>
<circle clip-path="url(#clip812)" cx="396.685" cy="326.753" r="14" fill="#009af9" fill-rule="evenodd" fill-opacity="1" stroke="#000000" stroke-opacity="1" stroke-width="3.2"/>
<circle clip-path="url(#clip812)" cx="1510.43" cy="193.913" r="14" fill="#009af9" fill-rule="evenodd" fill-opacity="1" stroke="#000000" stroke-opacity="1" stroke-width="3.2"/>
<circle clip-path="url(#clip812)" cx="419.379" cy="397.575" r="14" fill="#009af9" fill-rule="evenodd" fill-opacity="1" stroke="#000000" stroke-opacity="1" stroke-width="3.2"/>
<circle clip-path="url(#clip812)" cx="1075.66" cy="460.642" r="14" fill="#009af9" fill-rule="evenodd" fill-opacity="1" stroke="#000000" stroke-opacity="1" stroke-width="3.2"/>
<circle clip-path="url(#clip812)" cx="2114.08" cy="496.61" r="14" fill="#009af9" fill-rule="evenodd" fill-opacity="1" stroke="#000000" stroke-opacity="1" stroke-width="3.2"/>
<circle clip-path="url(#clip812)" cx="1336.01" cy="381.706" r="14" fill="#009af9" fill-rule="evenodd" fill-opacity="1" stroke="#000000" stroke-opacity="1" stroke-width="3.2"/>
<circle clip-path="url(#clip812)" cx="749.822" cy="198.659" r="14" fill="#009af9" fill-rule="evenodd" fill-opacity="1" stroke="#000000" stroke-opacity="1" stroke-width="3.2"/>
<circle clip-path="url(#clip812)" cx="1635.95" cy="203.161" r="14" fill="#009af9" fill-rule="evenodd" fill-opacity="1" stroke="#000000" stroke-opacity="1" stroke-width="3.2"/>
<circle clip-path="url(#clip812)" cx="1714.4" cy="211.902" r="14" fill="#009af9" fill-rule="evenodd" fill-opacity="1" stroke="#000000" stroke-opacity="1" stroke-width="3.2"/>
<circle clip-path="url(#clip812)" cx="506.338" cy="291.106" r="14" fill="#009af9" fill-rule="evenodd" fill-opacity="1" stroke="#000000" stroke-opacity="1" stroke-width="3.2"/>
<circle clip-path="url(#clip812)" cx="2004.4" cy="501.613" r="14" fill="#009af9" fill-rule="evenodd" fill-opacity="1" stroke="#000000" stroke-opacity="1" stroke-width="3.2"/>
<circle clip-path="url(#clip812)" cx="992.606" cy="403.442" r="14" fill="#009af9" fill-rule="evenodd" fill-opacity="1" stroke="#000000" stroke-opacity="1" stroke-width="3.2"/>
<circle clip-path="url(#clip812)" cx="2299.94" cy="298.153" r="14" fill="#009af9" fill-rule="evenodd" fill-opacity="1" stroke="#000000" stroke-opacity="1" stroke-width="3.2"/>
<circle clip-path="url(#clip812)" cx="688.988" cy="219.105" r="14" fill="#009af9" fill-rule="evenodd" fill-opacity="1" stroke="#000000" stroke-opacity="1" stroke-width="3.2"/>
<circle clip-path="url(#clip812)" cx="1763.35" cy="270.072" r="14" fill="#009af9" fill-rule="evenodd" fill-opacity="1" stroke="#000000" stroke-opacity="1" stroke-width="3.2"/>
<circle clip-path="url(#clip812)" cx="1960.55" cy="401.02" r="14" fill="#009af9" fill-rule="evenodd" fill-opacity="1" stroke="#000000" stroke-opacity="1" stroke-width="3.2"/>
<circle clip-path="url(#clip812)" cx="1608.31" cy="161.693" r="14" fill="#009af9" fill-rule="evenodd" fill-opacity="1" stroke="#000000" stroke-opacity="1" stroke-width="3.2"/>
<circle clip-path="url(#clip812)" cx="2311.41" cy="213.012" r="14" fill="#009af9" fill-rule="evenodd" fill-opacity="1" stroke="#000000" stroke-opacity="1" stroke-width="3.2"/>
<circle clip-path="url(#clip812)" cx="1073.49" cy="486.398" r="14" fill="#009af9" fill-rule="evenodd" fill-opacity="1" stroke="#000000" stroke-opacity="1" stroke-width="3.2"/>
<circle clip-path="url(#clip812)" cx="1157.5" cy="444.855" r="14" fill="#009af9" fill-rule="evenodd" fill-opacity="1" stroke="#000000" stroke-opacity="1" stroke-width="3.2"/>
<circle clip-path="url(#clip812)" cx="1202.38" cy="501.825" r="14" fill="#009af9" fill-rule="evenodd" fill-opacity="1" stroke="#000000" stroke-opacity="1" stroke-width="3.2"/>
<circle clip-path="url(#clip812)" cx="536.817" cy="232.279" r="14" fill="#009af9" fill-rule="evenodd" fill-opacity="1" stroke="#000000" stroke-opacity="1" stroke-width="3.2"/>
<polyline clip-path="url(#clip812)" style="stroke:#e26f46; stroke-linecap:butt; stroke-linejoin:round; stroke-width:4; stroke-opacity:1; fill:none" points="
  490.053,305.336 492.919,304.863 495.785,304.382 498.65,303.892 501.516,303.395 504.382,302.889 507.247,302.375 510.113,301.853 512.979,301.323 515.844,300.784 
  518.71,300.237 521.576,299.682 524.442,299.118 527.307,298.546 530.173,297.966 533.039,297.377 535.904,296.78 538.77,296.174 541.636,295.56 544.501,294.937 
  547.367,294.306 550.233,293.666 553.099,293.017 555.964,292.36 558.83,291.694 561.696,291.019 564.561,290.335 567.427,289.643 570.293,288.942 573.158,288.231 
  576.024,287.512 578.89,286.784 581.756,286.047 584.621,285.302 587.487,284.547 590.353,283.783 593.218,283.01 596.084,282.227 598.95,281.436 601.815,280.635 
  604.681,279.826 607.547,279.007 610.412,278.179 613.278,277.341 616.144,276.494 619.01,275.638 621.875,274.772 624.741,273.897 627.607,273.013 630.472,272.119 
  633.338,271.216 636.204,270.303 639.069,269.381 641.935,268.452 644.801,267.515 647.667,266.572 650.532,265.624 653.398,264.671 656.264,263.715 659.129,262.755 
  661.995,261.793 664.861,260.83 667.726,259.867 670.592,258.904 673.458,257.941 676.323,256.981 679.189,256.024 682.055,255.07 684.921,254.121 687.786,253.177 
  690.652,252.239 693.518,251.308 696.383,250.385 699.249,249.47 702.115,248.565 704.98,247.669 707.846,246.785 710.712,245.913 713.578,245.053 716.443,244.207 
  719.309,243.375 722.175,242.558 725.04,241.758 727.906,240.973 730.772,240.207 733.637,239.459 736.503,238.73 739.369,238.021 742.235,237.333 745.1,236.667 
  747.966,236.024 750.832,235.403 753.697,234.807 756.563,234.236 759.429,233.691 762.294,233.172 765.16,232.681 768.026,232.218 770.891,231.784 773.757,231.38 
  776.623,231.007 779.489,230.665 782.354,230.356 785.22,230.08 788.086,229.838 790.951,229.631 793.817,229.459 796.683,229.324 799.548,229.227 802.414,229.167 
  805.28,229.147 808.146,229.166 811.011,229.226 813.877,229.327 816.743,229.471 819.608,229.658 822.474,229.888 825.34,230.164 828.205,230.484 831.071,230.852 
  833.937,231.266 836.802,231.728 839.668,232.24 842.534,232.801 845.4,233.412 848.265,234.075 851.131,234.79 853.997,235.557 856.862,236.379 859.728,237.255 
  862.594,238.187 865.459,239.174 868.325,240.219 871.191,241.322 874.057,242.483 876.922,243.704 879.788,244.986 882.654,246.328 885.519,247.732 888.385,249.2 
  891.251,250.731 894.116,252.326 896.982,253.987 899.848,255.713 902.714,257.507 905.579,259.368 908.445,261.298 911.311,263.298 914.176,265.367 917.042,267.508 
  919.908,269.72 922.773,272.005 925.639,274.36 928.505,276.784 931.37,279.274 934.236,281.828 937.102,284.444 939.968,287.121 942.833,289.855 945.699,292.645 
  948.565,295.488 951.43,298.383 954.296,301.327 957.162,304.319 960.027,307.355 962.893,310.435 965.759,313.556 968.625,316.715 971.49,319.911 974.356,323.142 
  977.222,326.405 980.087,329.698 982.953,333.019 985.819,336.367 988.684,339.738 991.55,343.131 994.416,346.544 997.281,349.975 1000.15,353.421 1003.01,356.88 
  1005.88,360.351 1008.74,363.83 1011.61,367.317 1014.48,370.809 1017.34,374.303 1020.21,377.798 1023.07,381.291 1025.94,384.781 1028.8,388.265 1031.67,391.741 
  1034.54,395.207 1037.4,398.662 1040.27,402.102 1043.13,405.525 1046,408.93 1048.86,412.315 1051.73,415.677 1054.6,419.014 1057.46,422.324 1060.33,425.606 
  1063.19,428.856 1066.06,432.072 1068.92,435.254 1071.79,438.398 1074.66,441.502 1077.52,444.564 1080.39,447.583 1083.25,450.556 1086.12,453.48 1088.98,456.354 
  1091.85,459.176 1094.72,461.944 1097.58,464.654 1100.45,467.307 1103.31,469.898 1106.18,472.426 1109.04,474.89 1111.91,477.286 1114.78,479.613 1117.64,481.868 
  1120.51,484.05 1123.37,486.156 1126.24,488.184 1129.1,490.133 1131.97,491.999 1134.83,493.782 1137.7,495.478 1140.57,497.086 1143.43,498.603 1146.3,500.028 
  1149.16,501.357 1152.03,502.591 1154.89,503.725 1157.76,504.758 1160.63,505.687 1163.49,506.512 1166.36,507.229 1169.22,507.836 1172.09,508.332 1174.95,508.714 
  1177.82,508.98 1180.69,509.128 1183.55,509.156 1186.42,509.061 1189.28,508.842 1192.15,508.497 1195.01,508.023 1197.88,507.418 1200.75,506.681 1203.61,505.808 
  1206.48,504.798 1209.34,503.65 1212.21,502.365 1215.07,500.947 1217.94,499.397 1220.81,497.719 1223.67,495.916 1226.54,493.99 1229.4,491.943 1232.27,489.779 
  1235.13,487.501 1238,485.11 1240.87,482.61 1243.73,480.004 1246.6,477.294 1249.46,474.483 1252.33,471.574 1255.19,468.569 1258.06,465.471 1260.93,462.283 
  1263.79,459.007 1266.66,455.647 1269.52,452.205 1272.39,448.683 1275.25,445.085 1278.12,441.414 1280.99,437.671 1283.85,433.86 1286.72,429.983 1289.58,426.044 
  1292.45,422.044 1295.31,417.987 1298.18,413.875 1301.05,409.712 1303.91,405.499 1306.78,401.239 1309.64,396.936 1312.51,392.591 1315.37,388.209 1318.24,383.79 
  1321.11,379.339 1323.97,374.858 1326.84,370.349 1329.7,365.816 1332.57,361.26 1335.43,356.686 1338.3,352.095 1341.17,347.49 1344.03,342.874 1346.9,338.249 
  1349.76,333.62 1352.63,328.987 1355.49,324.354 1358.36,319.723 1361.22,315.098 1364.09,310.481 1366.96,305.875 1369.82,301.282 1372.69,296.706 1375.55,292.148 
  1378.42,287.612 1381.28,283.1 1384.15,278.616 1387.02,274.161 1389.88,269.739 1392.75,265.353 1395.61,261.004 1398.48,256.696 1401.34,252.431 1404.21,248.213 
  1407.08,244.044 1409.94,239.926 1412.81,235.863 1415.67,231.857 1418.54,227.91 1421.4,224.027 1424.27,220.208 1427.14,216.458 1430,212.778 1432.87,209.172 
  1435.73,205.642 1438.6,202.191 1441.46,198.822 1444.33,195.537 1447.2,192.339 1450.06,189.231 1452.93,186.216 1455.79,183.295 1458.66,180.473 1461.52,177.752 
  1464.39,175.134 1467.26,172.622 1470.12,170.22 1472.99,167.929 1475.85,165.752 1478.72,163.692 1481.58,161.753 1484.45,159.936 1487.32,158.244 1490.18,156.68 
  1493.05,155.247 1495.91,153.946 1498.78,152.778 1501.64,151.738 1504.51,150.827 1507.38,150.041 1510.24,149.378 1513.11,148.837 1515.97,148.416 1518.84,148.113 
  1521.7,147.926 1524.57,147.852 1527.44,147.89 1530.3,148.039 1533.17,148.295 1536.03,148.657 1538.9,149.123 1541.76,149.691 1544.63,150.36 1547.5,151.126 
  1550.36,151.989 1553.23,152.946 1556.09,153.995 1558.96,155.134 1561.82,156.362 1564.69,157.676 1567.56,159.074 1570.42,160.555 1573.29,162.117 1576.15,163.756 
  1579.02,165.473 1581.88,167.264 1584.75,169.127 1587.61,171.061 1590.48,173.064 1593.35,175.134 1596.21,177.268 1599.08,179.465 1601.94,181.723 1604.81,184.04 
  1607.67,186.414 1610.54,188.842 1613.41,191.324 1616.27,193.857 1619.14,196.438 1622,199.067 1624.87,201.741 1627.73,204.458 1630.6,207.216 1633.47,210.014 
  1636.33,212.848 1639.2,215.718 1642.06,218.622 1644.93,221.557 1647.79,224.521 1650.66,227.512 1653.53,230.529 1656.39,233.57 1659.26,236.632 1662.12,239.714 
  1664.99,242.813 1667.85,245.928 1670.72,249.057 1673.59,252.197 1676.45,255.347 1679.32,258.505 1682.18,261.669 1685.05,264.837 1687.91,268.007 1690.78,271.176 
  1693.65,274.344 1696.51,277.508 1699.38,280.665 1702.24,283.815 1705.11,286.955 1707.97,290.083 1710.84,293.198 1713.71,296.296 1716.57,299.377 1719.44,302.438 
  1722.3,305.478 1725.17,308.494 1728.03,311.484 1730.9,314.447 1733.77,317.38 1736.63,320.282 1739.5,323.151 1742.36,325.984 1745.23,328.779 1748.09,331.536 
  1750.96,334.251 1753.83,336.923 1756.69,339.549 1759.56,342.129 1762.42,344.659 1765.29,347.139 1768.15,349.565 1771.02,351.936 1773.89,354.25 1776.75,356.505 
  1779.62,358.7 1782.48,360.832 1785.35,362.901 1788.21,364.909 1791.08,366.857 1793.95,368.744 1796.81,370.571 1799.68,372.34 1802.54,374.05 1805.41,375.703 
  1808.27,377.3 1811.14,378.84 1814,380.324 1816.87,381.754 1819.74,383.129 1822.6,384.451 1825.47,385.72 1828.33,386.937 1831.2,388.103 1834.06,389.218 
  1836.93,390.282 1839.8,391.298 1842.66,392.264 1845.53,393.182 1848.39,394.053 1851.26,394.877 1854.12,395.655 1856.99,396.388 1859.86,397.075 1862.72,397.719 
  1865.59,398.319 1868.45,398.877 1871.32,399.392 1874.18,399.866 1877.05,400.299 1879.92,400.692 1882.78,401.046 1885.65,401.361 1888.51,401.638 1891.38,401.878 
  1894.24,402.081 1897.11,402.247 1899.98,402.379 1902.84,402.476 1905.71,402.538 1908.57,402.568 1911.44,402.564 1914.3,402.529 1917.17,402.462 1920.04,402.365 
  1922.9,402.238 1925.77,402.081 1928.63,401.896 1931.5,401.682 1934.36,401.442 1937.23,401.174 1940.1,400.881 1942.96,400.562 1945.83,400.219 1948.69,399.852 
  1951.56,399.461 1954.42,399.048 1957.29,398.613 1960.16,398.157 1963.02,397.68 1965.89,397.183 1968.75,396.666 1971.62,396.132 1974.48,395.579 1977.35,395.009 
  1980.22,394.422 1983.08,393.82 1985.95,393.202 1988.81,392.57 1991.68,391.923 1994.54,391.264 1997.41,390.592 2000.28,389.908 2003.14,389.213 2006.01,388.507 
  2008.87,387.791 2011.74,387.067 2014.6,386.333 2017.47,385.592 2020.34,384.844 2023.2,384.089 2026.07,383.328 2028.93,382.562 2031.8,381.792 2034.66,381.017 
  2037.53,380.24 2040.39,379.46 2043.26,378.678 2046.13,377.895 2048.99,377.112 2051.86,376.329 2054.72,375.546 2057.59,374.765 2060.45,373.987 2063.32,373.211 
  2066.19,372.438 2069.05,371.67 2071.92,370.906 2074.78,370.147 2077.65,369.391 2080.51,368.64 2083.38,367.892 2086.25,367.149 2089.11,366.41 2091.98,365.676 
  2094.84,364.945 2097.71,364.218 2100.57,363.496 2103.44,362.778 2106.31,362.064 2109.17,361.354 2112.04,360.648 2114.9,359.946 2117.77,359.248 2120.63,358.555 
  2123.5,357.865 2126.37,357.18 2129.23,356.498 2132.1,355.821 2134.96,355.148 2137.83,354.478 2140.69,353.813 2143.56,353.152 2146.43,352.495 2149.29,351.842 
  2152.16,351.192 2155.02,350.547 2157.89,349.906 2160.75,349.269 2163.62,348.636 2166.49,348.006 2169.35,347.381 2172.22,346.76 2175.08,346.142 2177.95,345.529 
  2180.81,344.919 2183.68,344.314 2186.55,343.712 2189.41,343.114 2192.28,342.521 2195.14,341.931 2198.01,341.345 2200.87,340.762 2203.74,340.184 2206.61,339.61 
  2209.47,339.039 
  "/>
<polyline clip-path="url(#clip812)" style="stroke:#3da44d; stroke-linecap:butt; stroke-linejoin:round; stroke-width:4; stroke-opacity:1; fill:none" points="
  490.053,269.429 492.919,269.353 495.785,269.276 498.65,269.2 501.516,269.124 504.382,269.048 507.247,268.972 510.113,268.896 512.979,268.82 515.844,268.743 
  518.71,268.667 521.576,268.591 524.442,268.515 527.307,268.439 530.173,268.363 533.039,268.286 535.904,268.21 538.77,268.134 541.636,268.058 544.501,267.982 
  547.367,267.906 550.233,267.829 553.099,267.753 555.964,267.677 558.83,267.601 561.696,267.525 564.561,267.449 567.427,267.372 570.293,267.296 573.158,267.22 
  576.024,267.144 578.89,267.068 581.756,266.992 584.621,266.916 587.487,266.839 590.353,266.763 593.218,266.687 596.084,266.611 598.95,266.535 601.815,266.459 
  604.681,266.382 607.547,266.306 610.412,266.23 613.278,266.154 616.144,266.078 619.01,266.002 621.875,265.925 624.741,265.849 627.607,265.773 630.472,265.697 
  633.338,265.621 636.204,265.545 639.069,265.469 641.935,265.394 644.801,265.32 647.667,265.248 650.532,265.178 653.398,265.111 656.264,265.046 659.129,264.984 
  661.995,264.926 664.861,264.873 667.726,264.823 670.592,264.779 673.458,264.739 676.323,264.705 679.189,264.678 682.055,264.657 684.921,264.642 687.786,264.635 
  690.652,264.636 693.518,264.644 696.383,264.662 699.249,264.688 702.115,264.723 704.98,264.768 707.846,264.823 710.712,264.889 713.578,264.965 716.443,265.053 
  719.309,265.152 722.175,265.264 725.04,265.388 727.906,265.525 730.772,265.675 733.637,265.839 736.503,266.017 739.369,266.21 742.235,266.418 745.1,266.641 
  747.966,266.88 750.832,267.134 753.697,267.406 756.563,267.694 759.429,268 762.294,268.323 765.16,268.665 768.026,269.025 770.891,269.404 773.757,269.803 
  776.623,270.221 779.489,270.66 782.354,271.119 785.22,271.599 788.086,272.1 790.951,272.624 793.817,273.169 796.683,273.737 799.548,274.328 802.414,274.943 
  805.28,275.581 808.146,276.243 811.011,276.931 813.877,277.643 816.743,278.38 819.608,279.144 822.474,279.933 825.34,280.75 828.205,281.593 831.071,282.464 
  833.937,283.362 836.802,284.289 839.668,285.245 842.534,286.229 845.4,287.243 848.265,288.287 851.131,289.361 853.997,290.466 856.862,291.602 859.728,292.77 
  862.594,293.969 865.459,295.201 868.325,296.465 871.191,297.762 874.057,299.093 876.922,300.458 879.788,301.857 882.654,303.291 885.519,304.76 888.385,306.264 
  891.251,307.804 894.116,309.381 896.982,310.994 899.848,312.645 902.714,314.333 905.579,316.059 908.445,317.823 911.311,319.626 914.176,321.469 917.042,323.35 
  919.908,325.272 922.773,327.234 925.639,329.235 928.505,331.273 931.37,333.347 934.236,335.457 937.102,337.599 939.968,339.773 942.833,341.978 945.699,344.211 
  948.565,346.473 951.43,348.76 954.296,351.072 957.162,353.408 960.027,355.765 962.893,358.143 965.759,360.541 968.625,362.955 971.49,365.386 974.356,367.832 
  977.222,370.292 980.087,372.763 982.953,375.245 985.819,377.736 988.684,380.235 991.55,382.74 994.416,385.25 997.281,387.764 1000.15,390.28 1003.01,392.796 
  1005.88,395.312 1008.74,397.826 1011.61,400.335 1014.48,402.84 1017.34,405.339 1020.21,407.83 1023.07,410.311 1025.94,412.782 1028.8,415.241 1031.67,417.686 
  1034.54,420.116 1037.4,422.53 1040.27,424.926 1043.13,427.303 1046,429.66 1048.86,431.994 1051.73,434.305 1054.6,436.591 1057.46,438.851 1060.33,441.084 
  1063.19,443.287 1066.06,445.459 1068.92,447.6 1071.79,449.707 1074.66,451.78 1077.52,453.816 1080.39,455.815 1083.25,457.775 1086.12,459.695 1088.98,461.572 
  1091.85,463.406 1094.72,465.196 1097.58,466.939 1100.45,468.635 1103.31,470.282 1106.18,471.879 1109.04,473.424 1111.91,474.916 1114.78,476.353 1117.64,477.734 
  1120.51,479.058 1123.37,480.322 1126.24,481.527 1129.1,482.67 1131.97,483.749 1134.83,484.765 1137.7,485.714 1140.57,486.596 1143.43,487.409 1146.3,488.152 
  1149.16,488.823 1152.03,489.421 1154.89,489.945 1157.76,490.393 1160.63,490.764 1163.49,491.056 1166.36,491.268 1169.22,491.398 1172.09,491.445 1174.95,491.408 
  1177.82,491.285 1180.69,491.075 1183.55,490.777 1186.42,490.388 1189.28,489.908 1192.15,489.335 1195.01,488.668 1197.88,487.905 1200.75,487.045 1203.61,486.086 
  1206.48,485.027 1209.34,483.868 1212.21,482.609 1215.07,481.253 1217.94,479.801 1220.81,478.255 1223.67,476.618 1226.54,474.891 1229.4,473.077 1232.27,471.177 
  1235.13,469.193 1238,467.127 1240.87,464.981 1243.73,462.758 1246.6,460.458 1249.46,458.084 1252.33,455.639 1255.19,453.123 1258.06,450.539 1260.93,447.888 
  1263.79,445.174 1266.66,442.397 1269.52,439.56 1272.39,436.664 1275.25,433.712 1278.12,430.705 1280.99,427.646 1283.85,424.536 1286.72,421.378 1289.58,418.173 
  1292.45,414.923 1295.31,411.631 1298.18,408.297 1301.05,404.925 1303.91,401.516 1306.78,398.071 1309.64,394.594 1312.51,391.086 1315.37,387.549 1318.24,383.984 
  1321.11,380.394 1323.97,376.781 1326.84,373.147 1329.7,369.493 1332.57,365.822 1335.43,362.136 1338.3,358.436 1341.17,354.724 1344.03,351.003 1346.9,347.275 
  1349.76,343.54 1352.63,339.802 1355.49,336.062 1358.36,332.323 1361.22,328.585 1364.09,324.852 1366.96,321.124 1369.82,317.405 1372.69,313.696 1375.55,309.998 
  1378.42,306.314 1381.28,302.647 1384.15,298.996 1387.02,295.366 1389.88,291.757 1392.75,288.172 1395.61,284.613 1398.48,281.081 1401.34,277.578 1404.21,274.107 
  1407.08,270.67 1409.94,267.268 1412.81,263.903 1415.67,260.577 1418.54,257.292 1421.4,254.051 1424.27,250.855 1427.14,247.706 1430,244.605 1432.87,241.556 
  1435.73,238.56 1438.6,235.618 1441.46,232.734 1444.33,229.908 1447.2,227.143 1450.06,224.441 1452.93,221.803 1455.79,219.232 1458.66,216.729 1461.52,214.297 
  1464.39,211.938 1467.26,209.653 1470.12,207.444 1472.99,205.313 1475.85,203.263 1478.72,201.295 1481.58,199.411 1484.45,197.613 1487.32,195.904 1490.18,194.284 
  1493.05,192.757 1495.91,191.322 1498.78,189.981 1501.64,188.731 1504.51,187.571 1507.38,186.5 1510.24,185.516 1513.11,184.619 1515.97,183.807 1518.84,183.079 
  1521.7,182.433 1524.57,181.869 1527.44,181.384 1530.3,180.979 1533.17,180.65 1536.03,180.398 1538.9,180.221 1541.76,180.118 1544.63,180.087 1547.5,180.127 
  1550.36,180.237 1553.23,180.416 1556.09,180.662 1558.96,180.974 1561.82,181.351 1564.69,181.791 1567.56,182.294 1570.42,182.858 1573.29,183.481 1576.15,184.163 
  1579.02,184.903 1581.88,185.698 1584.75,186.547 1587.61,187.451 1590.48,188.406 1593.35,189.412 1596.21,190.468 1599.08,191.572 1601.94,192.724 1604.81,193.921 
  1607.67,195.163 1610.54,196.447 1613.41,197.774 1616.27,199.142 1619.14,200.549 1622,201.995 1624.87,203.477 1627.73,204.995 1630.6,206.548 1633.47,208.133 
  1636.33,209.751 1639.2,211.399 1642.06,213.076 1644.93,214.782 1647.79,216.514 1650.66,218.272 1653.53,220.054 1656.39,221.859 1659.26,223.686 1662.12,225.534 
  1664.99,227.4 1667.85,229.285 1670.72,231.186 1673.59,233.103 1676.45,235.034 1679.32,236.977 1682.18,238.933 1685.05,240.899 1687.91,242.873 1690.78,244.856 
  1693.65,246.845 1696.51,248.84 1699.38,250.838 1702.24,252.839 1705.11,254.842 1707.97,256.845 1710.84,258.847 1713.71,260.846 1716.57,262.842 1719.44,264.833 
  1722.3,266.818 1725.17,268.796 1728.03,270.765 1730.9,272.724 1733.77,274.672 1736.63,276.608 1739.5,278.529 1742.36,280.436 1745.23,282.327 1748.09,284.2 
  1750.96,286.054 1753.83,287.888 1756.69,289.701 1759.56,291.491 1762.42,293.258 1765.29,294.999 1768.15,296.714 1771.02,298.401 1773.89,300.06 1776.75,301.688 
  1779.62,303.285 1782.48,304.849 1785.35,306.381 1788.21,307.881 1791.08,309.349 1793.95,310.786 1796.81,312.191 1799.68,313.566 1802.54,314.911 1805.41,316.225 
  1808.27,317.51 1811.14,318.765 1814,319.991 1816.87,321.189 1819.74,322.358 1822.6,323.498 1825.47,324.611 1828.33,325.697 1831.2,326.755 1834.06,327.786 
  1836.93,328.791 1839.8,329.77 1842.66,330.723 1845.53,331.651 1848.39,332.553 1851.26,333.43 1854.12,334.283 1856.99,335.112 1859.86,335.917 1862.72,336.698 
  1865.59,337.456 1868.45,338.191 1871.32,338.904 1874.18,339.594 1877.05,340.263 1879.92,340.909 1882.78,341.535 1885.65,342.14 1888.51,342.724 1891.38,343.287 
  1894.24,343.831 1897.11,344.355 1899.98,344.86 1902.84,345.346 1905.71,345.813 1908.57,346.262 1911.44,346.693 1914.3,347.106 1917.17,347.502 1920.04,347.881 
  1922.9,348.243 1925.77,348.589 1928.63,348.919 1931.5,349.233 1934.36,349.532 1937.23,349.816 1940.1,350.085 1942.96,350.339 1945.83,350.58 1948.69,350.807 
  1951.56,351.02 1954.42,351.22 1957.29,351.408 1960.16,351.583 1963.02,351.746 1965.89,351.897 1968.75,352.037 1971.62,352.166 1974.48,352.284 1977.35,352.391 
  1980.22,352.489 1983.08,352.576 1985.95,352.654 1988.81,352.723 1991.68,352.783 1994.54,352.834 1997.41,352.878 2000.28,352.913 2003.14,352.941 2006.01,352.962 
  2008.87,352.976 2011.74,352.983 2014.6,352.984 2017.47,352.979 2020.34,352.969 2023.2,352.953 2026.07,352.933 2028.93,352.908 2031.8,352.879 2034.66,352.845 
  2037.53,352.808 2040.39,352.768 2043.26,352.725 2046.13,352.68 2048.99,352.632 2051.86,352.582 2054.72,352.53 2057.59,352.477 2060.45,352.424 2063.32,352.369 
  2066.19,352.314 2069.05,352.259 2071.92,352.204 2074.78,352.15 2077.65,352.095 2080.51,352.04 2083.38,351.985 2086.25,351.93 2089.11,351.875 2091.98,351.82 
  2094.84,351.765 2097.71,351.711 2100.57,351.656 2103.44,351.601 2106.31,351.546 2109.17,351.491 2112.04,351.436 2114.9,351.381 2117.77,351.326 2120.63,351.272 
  2123.5,351.217 2126.37,351.162 2129.23,351.107 2132.1,351.052 2134.96,350.997 2137.83,350.942 2140.69,350.887 2143.56,350.833 2146.43,350.778 2149.29,350.723 
  2152.16,350.668 2155.02,350.613 2157.89,350.558 2160.75,350.503 2163.62,350.448 2166.49,350.394 2169.35,350.339 2172.22,350.284 2175.08,350.229 2177.95,350.174 
  2180.81,350.119 2183.68,350.064 2186.55,350.009 2189.41,349.955 2192.28,349.9 2195.14,349.845 2198.01,349.79 2200.87,349.735 2203.74,349.68 2206.61,349.625 
  2209.47,349.57 
  "/>
<polyline clip-path="url(#clip812)" style="stroke:#c271d2; stroke-linecap:butt; stroke-linejoin:round; stroke-width:4; stroke-opacity:1; fill:none" points="
  633.338,921.058 633.338,-278.016 
  "/>
<polyline clip-path="url(#clip812)" style="stroke:#c271d2; stroke-linecap:butt; stroke-linejoin:round; stroke-width:4; stroke-opacity:1; fill:none" points="
  2066.19,921.058 2066.19,-278.016 
  "/>
<polyline clip-path="url(#clip812)" style="stroke:#ac8d18; stroke-linecap:butt; stroke-linejoin:round; stroke-width:4; stroke-opacity:1; fill:none" stroke-dasharray="16, 10" points="
  633.338,921.058 633.338,-278.016 
  "/>
<polyline clip-path="url(#clip812)" style="stroke:#ac8d18; stroke-linecap:butt; stroke-linejoin:round; stroke-width:4; stroke-opacity:1; fill:none" stroke-dasharray="16, 10" points="
  919.908,921.058 919.908,-278.016 
  "/>
<polyline clip-path="url(#clip812)" style="stroke:#ac8d18; stroke-linecap:butt; stroke-linejoin:round; stroke-width:4; stroke-opacity:1; fill:none" stroke-dasharray="16, 10" points="
  1206.48,921.058 1206.48,-278.016 
  "/>
<polyline clip-path="url(#clip812)" style="stroke:#ac8d18; stroke-linecap:butt; stroke-linejoin:round; stroke-width:4; stroke-opacity:1; fill:none" stroke-dasharray="16, 10" points="
  1493.05,921.058 1493.05,-278.016 
  "/>
<polyline clip-path="url(#clip812)" style="stroke:#ac8d18; stroke-linecap:butt; stroke-linejoin:round; stroke-width:4; stroke-opacity:1; fill:none" stroke-dasharray="16, 10" points="
  1779.62,921.058 1779.62,-278.016 
  "/>
<polyline clip-path="url(#clip812)" style="stroke:#ac8d18; stroke-linecap:butt; stroke-linejoin:round; stroke-width:4; stroke-opacity:1; fill:none" stroke-dasharray="16, 10" points="
  2066.19,921.058 2066.19,-278.016 
  "/>
<path clip-path="url(#clip810)" d="
M1776.75 285.897 L2285.89 285.897 L2285.89 134.998 L1776.75 134.998  Z
  " fill="#ffffff" fill-rule="evenodd" fill-opacity="1"/>
<polyline clip-path="url(#clip810)" style="stroke:#000000; stroke-linecap:butt; stroke-linejoin:round; stroke-width:4; stroke-opacity:1; fill:none" points="
  1776.75,285.897 2285.89,285.897 2285.89,134.998 1776.75,134.998 1776.75,285.897 
  "/>
<polyline clip-path="url(#clip810)" style="stroke:#e26f46; stroke-linecap:butt; stroke-linejoin:round; stroke-width:4; stroke-opacity:1; fill:none" points="
  1799.04,185.298 1932.77,185.298 
  "/>
<g clip-path="url(#clip810)">
<text style="fill:#000000; fill-opacity:1; font-family:Arial,Helvetica Neue,Helvetica,sans-serif; font-size:48px; text-anchor:start;" transform="rotate(0, 1955.06, 202.798)" x="1955.06" y="202.798">spline</text>
</g>
<polyline clip-path="url(#clip810)" style="stroke:#3da44d; stroke-linecap:butt; stroke-linejoin:round; stroke-width:4; stroke-opacity:1; fill:none" points="
  1799.04,235.598 1932.77,235.598 
  "/>
<g clip-path="url(#clip810)">
<text style="fill:#000000; fill-opacity:1; font-family:Arial,Helvetica Neue,Helvetica,sans-serif; font-size:48px; text-anchor:start;" transform="rotate(0, 1955.06, 253.098)" x="1955.06" y="253.098">natural spline</text>
</g>
<path clip-path="url(#clip810)" d="
M346.768 1321.37 L2352.76 1321.37 L2352.76 921.675 L346.768 921.675  Z
  " fill="#ffffff" fill-rule="evenodd" fill-opacity="1"/>
<defs>
  <clipPath id="clip813">
    <rect x="346" y="921" width="2007" height="401"/>
  </clipPath>
</defs>
<polyline clip-path="url(#clip813)" style="stroke:#000000; stroke-linecap:butt; stroke-linejoin:round; stroke-width:2; stroke-opacity:0.1; fill:none" points="
  633.338,1321.37 633.338,921.675 
  "/>
<polyline clip-path="url(#clip813)" style="stroke:#000000; stroke-linecap:butt; stroke-linejoin:round; stroke-width:2; stroke-opacity:0.1; fill:none" points="
  991.55,1321.37 991.55,921.675 
  "/>
<polyline clip-path="url(#clip813)" style="stroke:#000000; stroke-linecap:butt; stroke-linejoin:round; stroke-width:2; stroke-opacity:0.1; fill:none" points="
  1349.76,1321.37 1349.76,921.675 
  "/>
<polyline clip-path="url(#clip813)" style="stroke:#000000; stroke-linecap:butt; stroke-linejoin:round; stroke-width:2; stroke-opacity:0.1; fill:none" points="
  1707.97,1321.37 1707.97,921.675 
  "/>
<polyline clip-path="url(#clip813)" style="stroke:#000000; stroke-linecap:butt; stroke-linejoin:round; stroke-width:2; stroke-opacity:0.1; fill:none" points="
  2066.19,1321.37 2066.19,921.675 
  "/>
<polyline clip-path="url(#clip810)" style="stroke:#000000; stroke-linecap:butt; stroke-linejoin:round; stroke-width:4; stroke-opacity:1; fill:none" points="
  346.768,1321.37 2352.76,1321.37 
  "/>
<polyline clip-path="url(#clip810)" style="stroke:#000000; stroke-linecap:butt; stroke-linejoin:round; stroke-width:4; stroke-opacity:1; fill:none" points="
  633.338,1321.37 633.338,1302.47 
  "/>
<polyline clip-path="url(#clip810)" style="stroke:#000000; stroke-linecap:butt; stroke-linejoin:round; stroke-width:4; stroke-opacity:1; fill:none" points="
  991.55,1321.37 991.55,1302.47 
  "/>
<polyline clip-path="url(#clip810)" style="stroke:#000000; stroke-linecap:butt; stroke-linejoin:round; stroke-width:4; stroke-opacity:1; fill:none" points="
  1349.76,1321.37 1349.76,1302.47 
  "/>
<polyline clip-path="url(#clip810)" style="stroke:#000000; stroke-linecap:butt; stroke-linejoin:round; stroke-width:4; stroke-opacity:1; fill:none" points="
  1707.97,1321.37 1707.97,1302.47 
  "/>
<polyline clip-path="url(#clip810)" style="stroke:#000000; stroke-linecap:butt; stroke-linejoin:round; stroke-width:4; stroke-opacity:1; fill:none" points="
  2066.19,1321.37 2066.19,1302.47 
  "/>
<g clip-path="url(#clip810)">
<text style="fill:#000000; fill-opacity:1; font-family:Arial,Helvetica Neue,Helvetica,sans-serif; font-size:48px; text-anchor:middle;" transform="rotate(0, 633.338, 1382.57)" x="633.338" y="1382.57">−5.0</text>
</g>
<g clip-path="url(#clip810)">
<text style="fill:#000000; fill-opacity:1; font-family:Arial,Helvetica Neue,Helvetica,sans-serif; font-size:48px; text-anchor:middle;" transform="rotate(0, 991.55, 1382.57)" x="991.55" y="1382.57">−2.5</text>
</g>
<g clip-path="url(#clip810)">
<text style="fill:#000000; fill-opacity:1; font-family:Arial,Helvetica Neue,Helvetica,sans-serif; font-size:48px; text-anchor:middle;" transform="rotate(0, 1349.76, 1382.57)" x="1349.76" y="1382.57">0.0</text>
</g>
<g clip-path="url(#clip810)">
<text style="fill:#000000; fill-opacity:1; font-family:Arial,Helvetica Neue,Helvetica,sans-serif; font-size:48px; text-anchor:middle;" transform="rotate(0, 1707.97, 1382.57)" x="1707.97" y="1382.57">2.5</text>
</g>
<g clip-path="url(#clip810)">
<text style="fill:#000000; fill-opacity:1; font-family:Arial,Helvetica Neue,Helvetica,sans-serif; font-size:48px; text-anchor:middle;" transform="rotate(0, 2066.19, 1382.57)" x="2066.19" y="1382.57">5.0</text>
</g>
<g clip-path="url(#clip810)">
<text style="fill:#000000; fill-opacity:1; font-family:Arial,Helvetica Neue,Helvetica,sans-serif; font-size:66px; text-anchor:middle;" transform="rotate(0, 1349.76, 1467.23)" x="1349.76" y="1467.23">x</text>
</g>
<polyline clip-path="url(#clip813)" style="stroke:#000000; stroke-linecap:butt; stroke-linejoin:round; stroke-width:2; stroke-opacity:0.1; fill:none" points="
  346.768,1284.5 2352.76,1284.5 
  "/>
<polyline clip-path="url(#clip813)" style="stroke:#000000; stroke-linecap:butt; stroke-linejoin:round; stroke-width:2; stroke-opacity:0.1; fill:none" points="
  346.768,1209.77 2352.76,1209.77 
  "/>
<polyline clip-path="url(#clip813)" style="stroke:#000000; stroke-linecap:butt; stroke-linejoin:round; stroke-width:2; stroke-opacity:0.1; fill:none" points="
  346.768,1135.04 2352.76,1135.04 
  "/>
<polyline clip-path="url(#clip813)" style="stroke:#000000; stroke-linecap:butt; stroke-linejoin:round; stroke-width:2; stroke-opacity:0.1; fill:none" points="
  346.768,1060.31 2352.76,1060.31 
  "/>
<polyline clip-path="url(#clip813)" style="stroke:#000000; stroke-linecap:butt; stroke-linejoin:round; stroke-width:2; stroke-opacity:0.1; fill:none" points="
  346.768,985.582 2352.76,985.582 
  "/>
<polyline clip-path="url(#clip810)" style="stroke:#000000; stroke-linecap:butt; stroke-linejoin:round; stroke-width:4; stroke-opacity:1; fill:none" points="
  346.768,1321.37 346.768,921.675 
  "/>
<polyline clip-path="url(#clip810)" style="stroke:#000000; stroke-linecap:butt; stroke-linejoin:round; stroke-width:4; stroke-opacity:1; fill:none" points="
  346.768,1284.5 365.666,1284.5 
  "/>
<polyline clip-path="url(#clip810)" style="stroke:#000000; stroke-linecap:butt; stroke-linejoin:round; stroke-width:4; stroke-opacity:1; fill:none" points="
  346.768,1209.77 365.666,1209.77 
  "/>
<polyline clip-path="url(#clip810)" style="stroke:#000000; stroke-linecap:butt; stroke-linejoin:round; stroke-width:4; stroke-opacity:1; fill:none" points="
  346.768,1135.04 365.666,1135.04 
  "/>
<polyline clip-path="url(#clip810)" style="stroke:#000000; stroke-linecap:butt; stroke-linejoin:round; stroke-width:4; stroke-opacity:1; fill:none" points="
  346.768,1060.31 365.666,1060.31 
  "/>
<polyline clip-path="url(#clip810)" style="stroke:#000000; stroke-linecap:butt; stroke-linejoin:round; stroke-width:4; stroke-opacity:1; fill:none" points="
  346.768,985.582 365.666,985.582 
  "/>
<g clip-path="url(#clip810)">
<text style="fill:#000000; fill-opacity:1; font-family:Arial,Helvetica Neue,Helvetica,sans-serif; font-size:48px; text-anchor:end;" transform="rotate(0, 310.768, 1302)" x="310.768" y="1302">−1.0</text>
</g>
<g clip-path="url(#clip810)">
<text style="fill:#000000; fill-opacity:1; font-family:Arial,Helvetica Neue,Helvetica,sans-serif; font-size:48px; text-anchor:end;" transform="rotate(0, 310.768, 1227.27)" x="310.768" y="1227.27">−0.5</text>
</g>
<g clip-path="url(#clip810)">
<text style="fill:#000000; fill-opacity:1; font-family:Arial,Helvetica Neue,Helvetica,sans-serif; font-size:48px; text-anchor:end;" transform="rotate(0, 310.768, 1152.54)" x="310.768" y="1152.54">0.0</text>
</g>
<g clip-path="url(#clip810)">
<text style="fill:#000000; fill-opacity:1; font-family:Arial,Helvetica Neue,Helvetica,sans-serif; font-size:48px; text-anchor:end;" transform="rotate(0, 310.768, 1077.81)" x="310.768" y="1077.81">0.5</text>
</g>
<g clip-path="url(#clip810)">
<text style="fill:#000000; fill-opacity:1; font-family:Arial,Helvetica Neue,Helvetica,sans-serif; font-size:48px; text-anchor:end;" transform="rotate(0, 310.768, 1003.08)" x="310.768" y="1003.08">1.0</text>
</g>
<g clip-path="url(#clip810)">
<text style="fill:#000000; fill-opacity:1; font-family:Arial,Helvetica Neue,Helvetica,sans-serif; font-size:66px; text-anchor:middle;" transform="rotate(-90, 169.538, 1121.52)" x="169.538" y="1121.52">f(x),g(x)</text>
</g>
<g clip-path="url(#clip810)">
<text style="fill:#000000; fill-opacity:1; font-family:Arial,Helvetica Neue,Helvetica,sans-serif; font-size:84px; text-anchor:middle;" transform="rotate(0, 1349.76, 873.2)" x="1349.76" y="873.2">K=11</text>
</g>
<circle clip-path="url(#clip813)" cx="1763.37" cy="1049.49" r="14" fill="#009af9" fill-rule="evenodd" fill-opacity="1" stroke="#000000" stroke-opacity="1" stroke-width="3.2"/>
<circle clip-path="url(#clip813)" cx="992.638" cy="1268.98" r="14" fill="#009af9" fill-rule="evenodd" fill-opacity="1" stroke="#000000" stroke-opacity="1" stroke-width="3.2"/>
<circle clip-path="url(#clip813)" cx="751.331" cy="982.602" r="14" fill="#009af9" fill-rule="evenodd" fill-opacity="1" stroke="#000000" stroke-opacity="1" stroke-width="3.2"/>
<circle clip-path="url(#clip813)" cx="2232.91" cy="1126.09" r="14" fill="#009af9" fill-rule="evenodd" fill-opacity="1" stroke="#000000" stroke-opacity="1" stroke-width="3.2"/>
<circle clip-path="url(#clip813)" cx="1281.81" cy="1223.98" r="14" fill="#009af9" fill-rule="evenodd" fill-opacity="1" stroke="#000000" stroke-opacity="1" stroke-width="3.2"/>
<circle clip-path="url(#clip813)" cx="1596.27" cy="1032.35" r="14" fill="#009af9" fill-rule="evenodd" fill-opacity="1" stroke="#000000" stroke-opacity="1" stroke-width="3.2"/>
<circle clip-path="url(#clip813)" cx="1174.9" cy="1297.97" r="14" fill="#009af9" fill-rule="evenodd" fill-opacity="1" stroke="#000000" stroke-opacity="1" stroke-width="3.2"/>
<circle clip-path="url(#clip813)" cx="1044.24" cy="1258.1" r="14" fill="#009af9" fill-rule="evenodd" fill-opacity="1" stroke="#000000" stroke-opacity="1" stroke-width="3.2"/>
<circle clip-path="url(#clip813)" cx="590.031" cy="1003.59" r="14" fill="#009af9" fill-rule="evenodd" fill-opacity="1" stroke="#000000" stroke-opacity="1" stroke-width="3.2"/>
<circle clip-path="url(#clip813)" cx="549.467" cy="1045.68" r="14" fill="#009af9" fill-rule="evenodd" fill-opacity="1" stroke="#000000" stroke-opacity="1" stroke-width="3.2"/>
<circle clip-path="url(#clip813)" cx="1644.35" cy="1015.99" r="14" fill="#009af9" fill-rule="evenodd" fill-opacity="1" stroke="#000000" stroke-opacity="1" stroke-width="3.2"/>
<circle clip-path="url(#clip813)" cx="1883.09" cy="1269.99" r="14" fill="#009af9" fill-rule="evenodd" fill-opacity="1" stroke="#000000" stroke-opacity="1" stroke-width="3.2"/>
<circle clip-path="url(#clip813)" cx="1681.07" cy="1005.34" r="14" fill="#009af9" fill-rule="evenodd" fill-opacity="1" stroke="#000000" stroke-opacity="1" stroke-width="3.2"/>
<circle clip-path="url(#clip813)" cx="1096.66" cy="1269.76" r="14" fill="#009af9" fill-rule="evenodd" fill-opacity="1" stroke="#000000" stroke-opacity="1" stroke-width="3.2"/>
<circle clip-path="url(#clip813)" cx="688.156" cy="979.954" r="14" fill="#009af9" fill-rule="evenodd" fill-opacity="1" stroke="#000000" stroke-opacity="1" stroke-width="3.2"/>
<circle clip-path="url(#clip813)" cx="703.889" cy="958.377" r="14" fill="#009af9" fill-rule="evenodd" fill-opacity="1" stroke="#000000" stroke-opacity="1" stroke-width="3.2"/>
<circle clip-path="url(#clip813)" cx="651.978" cy="976.172" r="14" fill="#009af9" fill-rule="evenodd" fill-opacity="1" stroke="#000000" stroke-opacity="1" stroke-width="3.2"/>
<circle clip-path="url(#clip813)" cx="467.898" cy="1138.78" r="14" fill="#009af9" fill-rule="evenodd" fill-opacity="1" stroke="#000000" stroke-opacity="1" stroke-width="3.2"/>
<circle clip-path="url(#clip813)" cx="1584.2" cy="991.856" r="14" fill="#009af9" fill-rule="evenodd" fill-opacity="1" stroke="#000000" stroke-opacity="1" stroke-width="3.2"/>
<circle clip-path="url(#clip813)" cx="927.988" cy="1119.78" r="14" fill="#009af9" fill-rule="evenodd" fill-opacity="1" stroke="#000000" stroke-opacity="1" stroke-width="3.2"/>
<circle clip-path="url(#clip813)" cx="556.703" cy="1032.68" r="14" fill="#009af9" fill-rule="evenodd" fill-opacity="1" stroke="#000000" stroke-opacity="1" stroke-width="3.2"/>
<circle clip-path="url(#clip813)" cx="1599.79" cy="987.122" r="14" fill="#009af9" fill-rule="evenodd" fill-opacity="1" stroke="#000000" stroke-opacity="1" stroke-width="3.2"/>
<circle clip-path="url(#clip813)" cx="2054.02" cy="1297.04" r="14" fill="#009af9" fill-rule="evenodd" fill-opacity="1" stroke="#000000" stroke-opacity="1" stroke-width="3.2"/>
<circle clip-path="url(#clip813)" cx="565.562" cy="1075.23" r="14" fill="#009af9" fill-rule="evenodd" fill-opacity="1" stroke="#000000" stroke-opacity="1" stroke-width="3.2"/>
<circle clip-path="url(#clip813)" cx="1661.02" cy="991.946" r="14" fill="#009af9" fill-rule="evenodd" fill-opacity="1" stroke="#000000" stroke-opacity="1" stroke-width="3.2"/>
<circle clip-path="url(#clip813)" cx="1209.45" cy="1212.74" r="14" fill="#009af9" fill-rule="evenodd" fill-opacity="1" stroke="#000000" stroke-opacity="1" stroke-width="3.2"/>
<circle clip-path="url(#clip813)" cx="450.96" cy="1132.55" r="14" fill="#009af9" fill-rule="evenodd" fill-opacity="1" stroke="#000000" stroke-opacity="1" stroke-width="3.2"/>
<circle clip-path="url(#clip813)" cx="1410.04" cy="1086.23" r="14" fill="#009af9" fill-rule="evenodd" fill-opacity="1" stroke="#000000" stroke-opacity="1" stroke-width="3.2"/>
<circle clip-path="url(#clip813)" cx="557.04" cy="1015.5" r="14" fill="#009af9" fill-rule="evenodd" fill-opacity="1" stroke="#000000" stroke-opacity="1" stroke-width="3.2"/>
<circle clip-path="url(#clip813)" cx="1121.3" cy="1255.32" r="14" fill="#009af9" fill-rule="evenodd" fill-opacity="1" stroke="#000000" stroke-opacity="1" stroke-width="3.2"/>
<circle clip-path="url(#clip813)" cx="2082.62" cy="1281.47" r="14" fill="#009af9" fill-rule="evenodd" fill-opacity="1" stroke="#000000" stroke-opacity="1" stroke-width="3.2"/>
<circle clip-path="url(#clip813)" cx="1039.71" cy="1249.45" r="14" fill="#009af9" fill-rule="evenodd" fill-opacity="1" stroke="#000000" stroke-opacity="1" stroke-width="3.2"/>
<circle clip-path="url(#clip813)" cx="1131.44" cy="1293.36" r="14" fill="#009af9" fill-rule="evenodd" fill-opacity="1" stroke="#000000" stroke-opacity="1" stroke-width="3.2"/>
<circle clip-path="url(#clip813)" cx="1721.98" cy="1057.69" r="14" fill="#009af9" fill-rule="evenodd" fill-opacity="1" stroke="#000000" stroke-opacity="1" stroke-width="3.2"/>
<circle clip-path="url(#clip813)" cx="1144.85" cy="1218.87" r="14" fill="#009af9" fill-rule="evenodd" fill-opacity="1" stroke="#000000" stroke-opacity="1" stroke-width="3.2"/>
<circle clip-path="url(#clip813)" cx="1182.44" cy="1272.27" r="14" fill="#009af9" fill-rule="evenodd" fill-opacity="1" stroke="#000000" stroke-opacity="1" stroke-width="3.2"/>
<circle clip-path="url(#clip813)" cx="1546.67" cy="1024.15" r="14" fill="#009af9" fill-rule="evenodd" fill-opacity="1" stroke="#000000" stroke-opacity="1" stroke-width="3.2"/>
<circle clip-path="url(#clip813)" cx="1163.15" cy="1285.07" r="14" fill="#009af9" fill-rule="evenodd" fill-opacity="1" stroke="#000000" stroke-opacity="1" stroke-width="3.2"/>
<circle clip-path="url(#clip813)" cx="1377.46" cy="1129.59" r="14" fill="#009af9" fill-rule="evenodd" fill-opacity="1" stroke="#000000" stroke-opacity="1" stroke-width="3.2"/>
<circle clip-path="url(#clip813)" cx="1741.09" cy="1051.92" r="14" fill="#009af9" fill-rule="evenodd" fill-opacity="1" stroke="#000000" stroke-opacity="1" stroke-width="3.2"/>
<circle clip-path="url(#clip813)" cx="1066.75" cy="1242.51" r="14" fill="#009af9" fill-rule="evenodd" fill-opacity="1" stroke="#000000" stroke-opacity="1" stroke-width="3.2"/>
<circle clip-path="url(#clip813)" cx="855.625" cy="1111.46" r="14" fill="#009af9" fill-rule="evenodd" fill-opacity="1" stroke="#000000" stroke-opacity="1" stroke-width="3.2"/>
<circle clip-path="url(#clip813)" cx="777.306" cy="1067.86" r="14" fill="#009af9" fill-rule="evenodd" fill-opacity="1" stroke="#000000" stroke-opacity="1" stroke-width="3.2"/>
<circle clip-path="url(#clip813)" cx="1949.13" cy="1310.05" r="14" fill="#009af9" fill-rule="evenodd" fill-opacity="1" stroke="#000000" stroke-opacity="1" stroke-width="3.2"/>
<circle clip-path="url(#clip813)" cx="521.255" cy="1058.45" r="14" fill="#009af9" fill-rule="evenodd" fill-opacity="1" stroke="#000000" stroke-opacity="1" stroke-width="3.2"/>
<circle clip-path="url(#clip813)" cx="1217.99" cy="1270.6" r="14" fill="#009af9" fill-rule="evenodd" fill-opacity="1" stroke="#000000" stroke-opacity="1" stroke-width="3.2"/>
<circle clip-path="url(#clip813)" cx="1239.58" cy="1306.6" r="14" fill="#009af9" fill-rule="evenodd" fill-opacity="1" stroke="#000000" stroke-opacity="1" stroke-width="3.2"/>
<circle clip-path="url(#clip813)" cx="2107.54" cy="1250.91" r="14" fill="#009af9" fill-rule="evenodd" fill-opacity="1" stroke="#000000" stroke-opacity="1" stroke-width="3.2"/>
<circle clip-path="url(#clip813)" cx="897.017" cy="1135.83" r="14" fill="#009af9" fill-rule="evenodd" fill-opacity="1" stroke="#000000" stroke-opacity="1" stroke-width="3.2"/>
<circle clip-path="url(#clip813)" cx="2272.86" cy="1108.12" r="14" fill="#009af9" fill-rule="evenodd" fill-opacity="1" stroke="#000000" stroke-opacity="1" stroke-width="3.2"/>
<circle clip-path="url(#clip813)" cx="396.685" cy="1126.75" r="14" fill="#009af9" fill-rule="evenodd" fill-opacity="1" stroke="#000000" stroke-opacity="1" stroke-width="3.2"/>
<circle clip-path="url(#clip813)" cx="1510.43" cy="993.913" r="14" fill="#009af9" fill-rule="evenodd" fill-opacity="1" stroke="#000000" stroke-opacity="1" stroke-width="3.2"/>
<circle clip-path="url(#clip813)" cx="419.379" cy="1197.57" r="14" fill="#009af9" fill-rule="evenodd" fill-opacity="1" stroke="#000000" stroke-opacity="1" stroke-width="3.2"/>
<circle clip-path="url(#clip813)" cx="1075.66" cy="1260.64" r="14" fill="#009af9" fill-rule="evenodd" fill-opacity="1" stroke="#000000" stroke-opacity="1" stroke-width="3.2"/>
<circle clip-path="url(#clip813)" cx="2114.08" cy="1296.61" r="14" fill="#009af9" fill-rule="evenodd" fill-opacity="1" stroke="#000000" stroke-opacity="1" stroke-width="3.2"/>
<circle clip-path="url(#clip813)" cx="1336.01" cy="1181.71" r="14" fill="#009af9" fill-rule="evenodd" fill-opacity="1" stroke="#000000" stroke-opacity="1" stroke-width="3.2"/>
<circle clip-path="url(#clip813)" cx="749.822" cy="998.659" r="14" fill="#009af9" fill-rule="evenodd" fill-opacity="1" stroke="#000000" stroke-opacity="1" stroke-width="3.2"/>
<circle clip-path="url(#clip813)" cx="1635.95" cy="1003.16" r="14" fill="#009af9" fill-rule="evenodd" fill-opacity="1" stroke="#000000" stroke-opacity="1" stroke-width="3.2"/>
<circle clip-path="url(#clip813)" cx="1714.4" cy="1011.9" r="14" fill="#009af9" fill-rule="evenodd" fill-opacity="1" stroke="#000000" stroke-opacity="1" stroke-width="3.2"/>
<circle clip-path="url(#clip813)" cx="506.338" cy="1091.11" r="14" fill="#009af9" fill-rule="evenodd" fill-opacity="1" stroke="#000000" stroke-opacity="1" stroke-width="3.2"/>
<circle clip-path="url(#clip813)" cx="2004.4" cy="1301.61" r="14" fill="#009af9" fill-rule="evenodd" fill-opacity="1" stroke="#000000" stroke-opacity="1" stroke-width="3.2"/>
<circle clip-path="url(#clip813)" cx="992.606" cy="1203.44" r="14" fill="#009af9" fill-rule="evenodd" fill-opacity="1" stroke="#000000" stroke-opacity="1" stroke-width="3.2"/>
<circle clip-path="url(#clip813)" cx="2299.94" cy="1098.15" r="14" fill="#009af9" fill-rule="evenodd" fill-opacity="1" stroke="#000000" stroke-opacity="1" stroke-width="3.2"/>
<circle clip-path="url(#clip813)" cx="688.988" cy="1019.1" r="14" fill="#009af9" fill-rule="evenodd" fill-opacity="1" stroke="#000000" stroke-opacity="1" stroke-width="3.2"/>
<circle clip-path="url(#clip813)" cx="1763.35" cy="1070.07" r="14" fill="#009af9" fill-rule="evenodd" fill-opacity="1" stroke="#000000" stroke-opacity="1" stroke-width="3.2"/>
<circle clip-path="url(#clip813)" cx="1960.55" cy="1201.02" r="14" fill="#009af9" fill-rule="evenodd" fill-opacity="1" stroke="#000000" stroke-opacity="1" stroke-width="3.2"/>
<circle clip-path="url(#clip813)" cx="1608.31" cy="961.693" r="14" fill="#009af9" fill-rule="evenodd" fill-opacity="1" stroke="#000000" stroke-opacity="1" stroke-width="3.2"/>
<circle clip-path="url(#clip813)" cx="2311.41" cy="1013.01" r="14" fill="#009af9" fill-rule="evenodd" fill-opacity="1" stroke="#000000" stroke-opacity="1" stroke-width="3.2"/>
<circle clip-path="url(#clip813)" cx="1073.49" cy="1286.4" r="14" fill="#009af9" fill-rule="evenodd" fill-opacity="1" stroke="#000000" stroke-opacity="1" stroke-width="3.2"/>
<circle clip-path="url(#clip813)" cx="1157.5" cy="1244.86" r="14" fill="#009af9" fill-rule="evenodd" fill-opacity="1" stroke="#000000" stroke-opacity="1" stroke-width="3.2"/>
<circle clip-path="url(#clip813)" cx="1202.38" cy="1301.82" r="14" fill="#009af9" fill-rule="evenodd" fill-opacity="1" stroke="#000000" stroke-opacity="1" stroke-width="3.2"/>
<circle clip-path="url(#clip813)" cx="536.817" cy="1032.28" r="14" fill="#009af9" fill-rule="evenodd" fill-opacity="1" stroke="#000000" stroke-opacity="1" stroke-width="3.2"/>
<polyline clip-path="url(#clip813)" style="stroke:#e26f46; stroke-linecap:butt; stroke-linejoin:round; stroke-width:4; stroke-opacity:1; fill:none" points="
  490.053,1113.8 492.919,1112.49 495.785,1111.17 498.65,1109.83 501.516,1108.47 504.382,1107.1 507.247,1105.71 510.113,1104.3 512.979,1102.87 515.844,1101.43 
  518.71,1099.96 521.576,1098.48 524.442,1096.98 527.307,1095.46 530.173,1093.93 533.039,1092.37 535.904,1090.8 538.77,1089.21 541.636,1087.6 544.501,1085.97 
  547.367,1084.33 550.233,1082.66 553.099,1080.98 555.964,1079.28 558.83,1077.56 561.696,1075.81 564.561,1074.06 567.427,1072.28 570.293,1070.48 573.158,1068.66 
  576.024,1066.83 578.89,1064.97 581.756,1063.1 584.621,1061.2 587.487,1059.29 590.353,1057.36 593.218,1055.41 596.084,1053.43 598.95,1051.44 601.815,1049.43 
  604.681,1047.4 607.547,1045.35 610.412,1043.28 613.278,1041.19 616.144,1039.07 619.01,1036.94 621.875,1034.79 624.741,1032.62 627.607,1030.43 630.472,1028.22 
  633.338,1025.98 636.204,1023.73 639.069,1021.46 641.935,1019.18 644.801,1016.89 647.667,1014.6 650.532,1012.3 653.398,1010.01 656.264,1007.73 659.129,1005.47 
  661.995,1003.21 664.861,1000.99 667.726,998.78 670.592,996.605 673.458,994.463 676.323,992.359 679.189,990.296 682.055,988.279 684.921,986.313 687.786,984.4 
  690.652,982.546 693.518,980.754 696.383,979.029 699.249,977.375 702.115,975.796 704.98,974.295 707.846,972.878 710.712,971.548 713.578,970.31 716.443,969.168 
  719.309,968.125 722.175,967.187 725.04,966.356 727.906,965.638 730.772,965.036 733.637,964.555 736.503,964.198 739.369,963.97 742.235,963.876 745.1,963.918 
  747.966,964.102 750.832,964.432 753.697,964.911 756.563,965.543 759.429,966.334 762.294,967.287 765.16,968.406 768.026,969.695 770.891,971.159 773.757,972.802 
  776.623,974.627 779.489,976.638 782.354,978.829 785.22,981.195 788.086,983.729 790.951,986.426 793.817,989.278 796.683,992.281 799.548,995.426 802.414,998.709 
  805.28,1002.12 808.146,1005.66 811.011,1009.32 813.877,1013.09 816.743,1016.97 819.608,1020.94 822.474,1025.02 825.34,1029.17 828.205,1033.41 831.071,1037.73 
  833.937,1042.11 836.802,1046.56 839.668,1051.06 842.534,1055.62 845.4,1060.22 848.265,1064.85 851.131,1069.52 853.997,1074.22 856.862,1078.93 859.728,1083.66 
  862.594,1088.39 865.459,1093.13 868.325,1097.86 871.191,1102.57 874.057,1107.28 876.922,1111.95 879.788,1116.6 882.654,1121.21 885.519,1125.77 888.385,1130.29 
  891.251,1134.76 894.116,1139.16 896.982,1143.49 899.848,1147.75 902.714,1151.94 905.579,1156.03 908.445,1160.03 911.311,1163.94 914.176,1167.74 917.042,1171.43 
  919.908,1175 922.773,1178.45 925.639,1181.78 928.505,1184.99 931.37,1188.09 934.236,1191.07 937.102,1193.95 939.968,1196.72 942.833,1199.38 945.699,1201.94 
  948.565,1204.41 951.43,1206.77 954.296,1209.05 957.162,1211.23 960.027,1213.33 962.893,1215.34 965.759,1217.26 968.625,1219.11 971.49,1220.88 974.356,1222.58 
  977.222,1224.2 980.087,1225.76 982.953,1227.25 985.819,1228.67 988.684,1230.04 991.55,1231.35 994.416,1232.6 997.281,1233.8 1000.15,1234.95 1003.01,1236.05 
  1005.88,1237.1 1008.74,1238.12 1011.61,1239.1 1014.48,1240.03 1017.34,1240.94 1020.21,1241.82 1023.07,1242.66 1025.94,1243.48 1028.8,1244.28 1031.67,1245.06 
  1034.54,1245.82 1037.4,1246.57 1040.27,1247.3 1043.13,1248.03 1046,1248.74 1048.86,1249.46 1051.73,1250.17 1054.6,1250.89 1057.46,1251.61 1060.33,1252.33 
  1063.19,1253.07 1066.06,1253.81 1068.92,1254.57 1071.79,1255.34 1074.66,1256.12 1077.52,1256.9 1080.39,1257.68 1083.25,1258.47 1086.12,1259.26 1088.98,1260.04 
  1091.85,1260.83 1094.72,1261.61 1097.58,1262.38 1100.45,1263.15 1103.31,1263.9 1106.18,1264.65 1109.04,1265.38 1111.91,1266.1 1114.78,1266.8 1117.64,1267.49 
  1120.51,1268.15 1123.37,1268.8 1126.24,1269.42 1129.1,1270.01 1131.97,1270.58 1134.83,1271.13 1137.7,1271.64 1140.57,1272.12 1143.43,1272.57 1146.3,1272.99 
  1149.16,1273.37 1152.03,1273.71 1154.89,1274.01 1157.76,1274.27 1160.63,1274.49 1163.49,1274.66 1166.36,1274.78 1169.22,1274.86 1172.09,1274.89 1174.95,1274.87 
  1177.82,1274.79 1180.69,1274.66 1183.55,1274.48 1186.42,1274.23 1189.28,1273.93 1192.15,1273.56 1195.01,1273.13 1197.88,1272.64 1200.75,1272.08 1203.61,1271.45 
  1206.48,1270.76 1209.34,1269.99 1212.21,1269.15 1215.07,1268.24 1217.94,1267.26 1220.81,1266.22 1223.67,1265.11 1226.54,1263.93 1229.4,1262.69 1232.27,1261.38 
  1235.13,1260.01 1238,1258.58 1240.87,1257.09 1243.73,1255.54 1246.6,1253.93 1249.46,1252.26 1252.33,1250.53 1255.19,1248.75 1258.06,1246.91 1260.93,1245.02 
  1263.79,1243.07 1266.66,1241.07 1269.52,1239.02 1272.39,1236.92 1275.25,1234.76 1278.12,1232.56 1280.99,1230.31 1283.85,1228.02 1286.72,1225.68 1289.58,1223.29 
  1292.45,1220.86 1295.31,1218.38 1298.18,1215.87 1301.05,1213.31 1303.91,1210.71 1306.78,1208.07 1309.64,1205.39 1312.51,1202.68 1315.37,1199.93 1318.24,1197.14 
  1321.11,1194.32 1323.97,1191.46 1326.84,1188.57 1329.7,1185.65 1332.57,1182.7 1335.43,1179.72 1338.3,1176.71 1341.17,1173.67 1344.03,1170.6 1346.9,1167.51 
  1349.76,1164.39 1352.63,1161.25 1355.49,1158.08 1358.36,1154.9 1361.22,1151.69 1364.09,1148.47 1366.96,1145.24 1369.82,1141.99 1372.69,1138.73 1375.55,1135.46 
  1378.42,1132.19 1381.28,1128.91 1384.15,1125.63 1387.02,1122.36 1389.88,1119.08 1392.75,1115.8 1395.61,1112.54 1398.48,1109.28 1401.34,1106.03 1404.21,1102.79 
  1407.08,1099.56 1409.94,1096.36 1412.81,1093.17 1415.67,1090 1418.54,1086.85 1421.4,1083.73 1424.27,1080.63 1427.14,1077.56 1430,1074.52 1432.87,1071.51 
  1435.73,1068.54 1438.6,1065.6 1441.46,1062.7 1444.33,1059.84 1447.2,1057.03 1450.06,1054.26 1452.93,1051.53 1455.79,1048.86 1458.66,1046.23 1461.52,1043.66 
  1464.39,1041.14 1467.26,1038.67 1470.12,1036.27 1472.99,1033.93 1475.85,1031.64 1478.72,1029.43 1481.58,1027.28 1484.45,1025.2 1487.32,1023.19 1490.18,1021.25 
  1493.05,1019.38 1495.91,1017.6 1498.78,1015.89 1501.64,1014.25 1504.51,1012.69 1507.38,1011.2 1510.24,1009.77 1513.11,1008.42 1515.97,1007.14 1518.84,1005.93 
  1521.7,1004.78 1524.57,1003.7 1527.44,1002.68 1530.3,1001.73 1533.17,1000.83 1536.03,1000 1538.9,999.228 1541.76,998.514 1544.63,997.858 1547.5,997.257 
  1550.36,996.711 1553.23,996.22 1556.09,995.781 1558.96,995.394 1561.82,995.057 1564.69,994.769 1567.56,994.53 1570.42,994.338 1573.29,994.192 1576.15,994.09 
  1579.02,994.032 1581.88,994.017 1584.75,994.043 1587.61,994.109 1590.48,994.214 1593.35,994.357 1596.21,994.537 1599.08,994.753 1601.94,995.003 1604.81,995.286 
  1607.67,995.601 1610.54,995.948 1613.41,996.325 1616.27,996.73 1619.14,997.163 1622,997.622 1624.87,998.107 1627.73,998.616 1630.6,999.148 1633.47,999.702 
  1636.33,1000.28 1639.2,1000.87 1642.06,1001.49 1644.93,1002.13 1647.79,1002.79 1650.66,1003.48 1653.53,1004.19 1656.39,1004.94 1659.26,1005.72 1662.12,1006.52 
  1664.99,1007.37 1667.85,1008.24 1670.72,1009.16 1673.59,1010.11 1676.45,1011.1 1679.32,1012.14 1682.18,1013.22 1685.05,1014.34 1687.91,1015.51 1690.78,1016.72 
  1693.65,1017.99 1696.51,1019.31 1699.38,1020.68 1702.24,1022.1 1705.11,1023.58 1707.97,1025.12 1710.84,1026.71 1713.71,1028.37 1716.57,1030.09 1719.44,1031.87 
  1722.3,1033.71 1725.17,1035.63 1728.03,1037.61 1730.9,1039.66 1733.77,1041.78 1736.63,1043.98 1739.5,1046.25 1742.36,1048.6 1745.23,1051.02 1748.09,1053.52 
  1750.96,1056.11 1753.83,1058.78 1756.69,1061.53 1759.56,1064.36 1762.42,1067.29 1765.29,1070.3 1768.15,1073.4 1771.02,1076.59 1773.89,1079.88 1776.75,1083.26 
  1779.62,1086.74 1782.48,1090.32 1785.35,1093.99 1788.21,1097.74 1791.08,1101.58 1793.95,1105.5 1796.81,1109.49 1799.68,1113.54 1802.54,1117.65 1805.41,1121.82 
  1808.27,1126.04 1811.14,1130.31 1814,1134.61 1816.87,1138.95 1819.74,1143.32 1822.6,1147.71 1825.47,1152.12 1828.33,1156.54 1831.2,1160.98 1834.06,1165.41 
  1836.93,1169.84 1839.8,1174.26 1842.66,1178.67 1845.53,1183.06 1848.39,1187.43 1851.26,1191.77 1854.12,1196.07 1856.99,1200.34 1859.86,1204.55 1862.72,1208.72 
  1865.59,1212.83 1868.45,1216.88 1871.32,1220.87 1874.18,1224.78 1877.05,1228.61 1879.92,1232.37 1882.78,1236.03 1885.65,1239.6 1888.51,1243.08 1891.38,1246.45 
  1894.24,1249.71 1897.11,1252.86 1899.98,1255.88 1902.84,1258.79 1905.71,1261.56 1908.57,1264.2 1911.44,1266.69 1914.3,1269.04 1917.17,1271.24 1920.04,1273.28 
  1922.9,1275.16 1925.77,1276.88 1928.63,1278.43 1931.5,1279.82 1934.36,1281.05 1937.23,1282.13 1940.1,1283.07 1942.96,1283.85 1945.83,1284.5 1948.69,1285 
  1951.56,1285.38 1954.42,1285.62 1957.29,1285.73 1960.16,1285.72 1963.02,1285.59 1965.89,1285.35 1968.75,1284.99 1971.62,1284.52 1974.48,1283.95 1977.35,1283.27 
  1980.22,1282.5 1983.08,1281.63 1985.95,1280.67 1988.81,1279.63 1991.68,1278.5 1994.54,1277.29 1997.41,1276 2000.28,1274.64 2003.14,1273.22 2006.01,1271.72 
  2008.87,1270.17 2011.74,1268.56 2014.6,1266.89 2017.47,1265.17 2020.34,1263.41 2023.2,1261.6 2026.07,1259.75 2028.93,1257.86 2031.8,1255.95 2034.66,1254 
  2037.53,1252.03 2040.39,1250.03 2043.26,1248.02 2046.13,1246 2048.99,1243.96 2051.86,1241.92 2054.72,1239.87 2057.59,1237.82 2060.45,1235.78 2063.32,1233.74 
  2066.19,1231.72 2069.05,1229.71 2071.92,1227.71 2074.78,1225.73 2077.65,1223.76 2080.51,1221.81 2083.38,1219.87 2086.25,1217.94 2089.11,1216.03 2091.98,1214.14 
  2094.84,1212.26 2097.71,1210.39 2100.57,1208.54 2103.44,1206.7 2106.31,1204.88 2109.17,1203.07 2112.04,1201.27 2114.9,1199.49 2117.77,1197.72 2120.63,1195.97 
  2123.5,1194.23 2126.37,1192.5 2129.23,1190.79 2132.1,1189.09 2134.96,1187.41 2137.83,1185.74 2140.69,1184.08 2143.56,1182.43 2146.43,1180.8 2149.29,1179.19 
  2152.16,1177.58 2155.02,1175.99 2157.89,1174.42 2160.75,1172.86 2163.62,1171.31 2166.49,1169.77 2169.35,1168.25 2172.22,1166.74 2175.08,1165.24 2177.95,1163.76 
  2180.81,1162.29 2183.68,1160.83 2186.55,1159.38 2189.41,1157.95 2192.28,1156.53 2195.14,1155.13 2198.01,1153.74 2200.87,1152.36 2203.74,1150.99 2206.61,1149.63 
  2209.47,1148.29 
  "/>
<polyline clip-path="url(#clip813)" style="stroke:#3da44d; stroke-linecap:butt; stroke-linejoin:round; stroke-width:4; stroke-opacity:1; fill:none" points="
  490.053,1064.5 492.919,1064.41 495.785,1064.31 498.65,1064.22 501.516,1064.13 504.382,1064.04 507.247,1063.94 510.113,1063.85 512.979,1063.76 515.844,1063.67 
  518.71,1063.57 521.576,1063.48 524.442,1063.39 527.307,1063.3 530.173,1063.2 533.039,1063.11 535.904,1063.02 538.77,1062.93 541.636,1062.83 544.501,1062.74 
  547.367,1062.65 550.233,1062.56 553.099,1062.46 555.964,1062.37 558.83,1062.28 561.696,1062.19 564.561,1062.09 567.427,1062 570.293,1061.91 573.158,1061.82 
  576.024,1061.72 578.89,1061.63 581.756,1061.54 584.621,1061.45 587.487,1061.35 590.353,1061.26 593.218,1061.17 596.084,1061.08 598.95,1060.98 601.815,1060.89 
  604.681,1060.8 607.547,1060.71 610.412,1060.61 613.278,1060.52 616.144,1060.43 619.01,1060.34 621.875,1060.24 624.741,1060.15 627.607,1060.06 630.472,1059.97 
  633.338,1059.87 636.204,1059.78 639.069,1059.69 641.935,1059.6 644.801,1059.51 647.667,1059.43 650.532,1059.34 653.398,1059.27 656.264,1059.19 659.129,1059.12 
  661.995,1059.06 664.861,1059 667.726,1058.96 670.592,1058.92 673.458,1058.88 676.323,1058.86 679.189,1058.85 682.055,1058.85 684.921,1058.86 687.786,1058.88 
  690.652,1058.91 693.518,1058.96 696.383,1059.02 699.249,1059.09 702.115,1059.19 704.98,1059.29 707.846,1059.42 710.712,1059.56 713.578,1059.72 716.443,1059.89 
  719.309,1060.09 722.175,1060.31 725.04,1060.54 727.906,1060.8 730.772,1061.08 733.637,1061.38 736.503,1061.71 739.369,1062.06 742.235,1062.43 745.1,1062.83 
  747.966,1063.26 750.832,1063.71 753.697,1064.19 756.563,1064.7 759.429,1065.23 762.294,1065.8 765.16,1066.4 768.026,1067.02 770.891,1067.68 773.757,1068.37 
  776.623,1069.09 779.489,1069.84 782.354,1070.63 785.22,1071.45 788.086,1072.3 790.951,1073.19 793.817,1074.11 796.683,1075.06 799.548,1076.04 802.414,1077.06 
  805.28,1078.11 808.146,1079.19 811.011,1080.31 813.877,1081.45 816.743,1082.63 819.608,1083.84 822.474,1085.08 825.34,1086.35 828.205,1087.66 831.071,1089 
  833.937,1090.36 836.802,1091.76 839.668,1093.19 842.534,1094.66 845.4,1096.15 848.265,1097.68 851.131,1099.23 853.997,1100.82 856.862,1102.43 859.728,1104.08 
  862.594,1105.76 865.459,1107.47 868.325,1109.21 871.191,1110.98 874.057,1112.78 876.922,1114.61 879.788,1116.47 882.654,1118.36 885.519,1120.28 888.385,1122.23 
  891.251,1124.21 894.116,1126.22 896.982,1128.26 899.848,1130.33 902.714,1132.43 905.579,1134.55 908.445,1136.71 911.311,1138.9 914.176,1141.11 917.042,1143.35 
  919.908,1145.63 922.773,1147.93 925.639,1150.25 928.505,1152.61 931.37,1154.98 934.236,1157.38 937.102,1159.8 939.968,1162.24 942.833,1164.69 945.699,1167.15 
  948.565,1169.63 951.43,1172.13 954.296,1174.63 957.162,1177.13 960.027,1179.65 962.893,1182.16 965.759,1184.68 968.625,1187.2 971.49,1189.72 974.356,1192.24 
  977.222,1194.75 980.087,1197.25 982.953,1199.74 985.819,1202.23 988.684,1204.7 991.55,1207.16 994.416,1209.6 997.281,1212.03 1000.15,1214.44 1003.01,1216.82 
  1005.88,1219.19 1008.74,1221.52 1011.61,1223.84 1014.48,1226.12 1017.34,1228.38 1020.21,1230.6 1023.07,1232.79 1025.94,1234.94 1028.8,1237.06 1031.67,1239.14 
  1034.54,1241.18 1037.4,1243.18 1040.27,1245.13 1043.13,1247.04 1046,1248.9 1048.86,1250.71 1051.73,1252.47 1054.6,1254.17 1057.46,1255.82 1060.33,1257.42 
  1063.19,1258.96 1066.06,1260.44 1068.92,1261.85 1071.79,1263.21 1074.66,1264.51 1077.52,1265.75 1080.39,1266.94 1083.25,1268.06 1086.12,1269.13 1088.98,1270.14 
  1091.85,1271.09 1094.72,1271.98 1097.58,1272.82 1100.45,1273.6 1103.31,1274.32 1106.18,1274.99 1109.04,1275.61 1111.91,1276.16 1114.78,1276.67 1117.64,1277.12 
  1120.51,1277.51 1123.37,1277.85 1126.24,1278.13 1129.1,1278.37 1131.97,1278.54 1134.83,1278.67 1137.7,1278.74 1140.57,1278.76 1143.43,1278.73 1146.3,1278.64 
  1149.16,1278.51 1152.03,1278.32 1154.89,1278.08 1157.76,1277.79 1160.63,1277.45 1163.49,1277.06 1166.36,1276.62 1169.22,1276.13 1172.09,1275.6 1174.95,1275.01 
  1177.82,1274.37 1180.69,1273.68 1183.55,1272.95 1186.42,1272.17 1189.28,1271.34 1192.15,1270.46 1195.01,1269.54 1197.88,1268.57 1200.75,1267.55 1203.61,1266.49 
  1206.48,1265.38 1209.34,1264.22 1212.21,1263.02 1215.07,1261.78 1217.94,1260.49 1220.81,1259.16 1223.67,1257.78 1226.54,1256.37 1229.4,1254.91 1232.27,1253.41 
  1235.13,1251.87 1238,1250.3 1240.87,1248.68 1243.73,1247.02 1246.6,1245.33 1249.46,1243.6 1252.33,1241.84 1255.19,1240.03 1258.06,1238.2 1260.93,1236.33 
  1263.79,1234.42 1266.66,1232.48 1269.52,1230.51 1272.39,1228.51 1275.25,1226.47 1278.12,1224.41 1280.99,1222.31 1283.85,1220.19 1286.72,1218.03 1289.58,1215.85 
  1292.45,1213.64 1295.31,1211.4 1298.18,1209.14 1301.05,1206.85 1303.91,1204.54 1306.78,1202.2 1309.64,1199.83 1312.51,1197.45 1315.37,1195.04 1318.24,1192.61 
  1321.11,1190.15 1323.97,1187.68 1326.84,1185.19 1329.7,1182.67 1332.57,1180.14 1335.43,1177.59 1338.3,1175.02 1341.17,1172.44 1344.03,1169.83 1346.9,1167.22 
  1349.76,1164.58 1352.63,1161.93 1355.49,1159.27 1358.36,1156.6 1361.22,1153.91 1364.09,1151.22 1366.96,1148.51 1369.82,1145.79 1372.69,1143.07 1375.55,1140.34 
  1378.42,1137.6 1381.28,1134.86 1384.15,1132.11 1387.02,1129.36 1389.88,1126.61 1392.75,1123.85 1395.61,1121.1 1398.48,1118.34 1401.34,1115.59 1404.21,1112.84 
  1407.08,1110.09 1409.94,1107.34 1412.81,1104.6 1415.67,1101.87 1418.54,1099.14 1421.4,1096.43 1424.27,1093.72 1427.14,1091.02 1430,1088.33 1432.87,1085.65 
  1435.73,1082.98 1438.6,1080.33 1441.46,1077.69 1444.33,1075.07 1447.2,1072.46 1450.06,1069.87 1452.93,1067.3 1455.79,1064.75 1458.66,1062.22 1461.52,1059.71 
  1464.39,1057.22 1467.26,1054.75 1470.12,1052.31 1472.99,1049.89 1475.85,1047.5 1478.72,1045.13 1481.58,1042.79 1484.45,1040.48 1487.32,1038.2 1490.18,1035.95 
  1493.05,1033.73 1495.91,1031.54 1498.78,1029.39 1501.64,1027.27 1504.51,1025.19 1507.38,1023.14 1510.24,1021.13 1513.11,1019.17 1515.97,1017.24 1518.84,1015.36 
  1521.7,1013.52 1524.57,1011.72 1527.44,1009.97 1530.3,1008.27 1533.17,1006.62 1536.03,1005.02 1538.9,1003.47 1541.76,1001.97 1544.63,1000.53 1547.5,999.142 
  1550.36,997.811 1553.23,996.539 1556.09,995.326 1558.96,994.173 1561.82,993.083 1564.69,992.056 1567.56,991.093 1570.42,990.196 1573.29,989.367 1576.15,988.605 
  1579.02,987.914 1581.88,987.294 1584.75,986.746 1587.61,986.272 1590.48,985.872 1593.35,985.549 1596.21,985.304 1599.08,985.137 1601.94,985.051 1604.81,985.046 
  1607.67,985.123 1610.54,985.285 1613.41,985.532 1616.27,985.866 1619.14,986.287 1622,986.798 1624.87,987.4 1627.73,988.093 1630.6,988.879 1633.47,989.76 
  1636.33,990.737 1639.2,991.81 1642.06,992.977 1644.93,994.234 1647.79,995.58 1650.66,997.011 1653.53,998.524 1656.39,1000.12 1659.26,1001.78 1662.12,1003.53 
  1664.99,1005.34 1667.85,1007.21 1670.72,1009.16 1673.59,1011.16 1676.45,1013.22 1679.32,1015.34 1682.18,1017.5 1685.05,1019.72 1687.91,1021.98 1690.78,1024.29 
  1693.65,1026.64 1696.51,1029.02 1699.38,1031.44 1702.24,1033.88 1705.11,1036.36 1707.97,1038.86 1710.84,1041.38 1713.71,1043.93 1716.57,1046.48 1719.44,1049.05 
  1722.3,1051.64 1725.17,1054.22 1728.03,1056.81 1730.9,1059.41 1733.77,1062 1736.63,1064.58 1739.5,1067.16 1742.36,1069.73 1745.23,1072.28 1748.09,1074.82 
  1750.96,1077.33 1753.83,1079.82 1756.69,1082.29 1759.56,1084.73 1762.42,1087.13 1765.29,1089.5 1768.15,1091.83 1771.02,1094.13 1773.89,1096.37 1776.75,1098.57 
  1779.62,1100.72 1782.48,1102.82 1785.35,1104.86 1788.21,1106.86 1791.08,1108.8 1793.95,1110.69 1796.81,1112.53 1799.68,1114.33 1802.54,1116.07 1805.41,1117.77 
  1808.27,1119.42 1811.14,1121.03 1814,1122.59 1816.87,1124.11 1819.74,1125.58 1822.6,1127.01 1825.47,1128.39 1828.33,1129.74 1831.2,1131.04 1834.06,1132.31 
  1836.93,1133.53 1839.8,1134.72 1842.66,1135.86 1845.53,1136.97 1848.39,1138.05 1851.26,1139.08 1854.12,1140.09 1856.99,1141.05 1859.86,1141.99 1862.72,1142.89 
  1865.59,1143.76 1868.45,1144.59 1871.32,1145.4 1874.18,1146.17 1877.05,1146.92 1879.92,1147.63 1882.78,1148.32 1885.65,1148.98 1888.51,1149.62 1891.38,1150.23 
  1894.24,1150.81 1897.11,1151.37 1899.98,1151.9 1902.84,1152.41 1905.71,1152.9 1908.57,1153.37 1911.44,1153.81 1914.3,1154.24 1917.17,1154.65 1920.04,1155.03 
  1922.9,1155.4 1925.77,1155.75 1928.63,1156.09 1931.5,1156.41 1934.36,1156.71 1937.23,1156.99 1940.1,1157.26 1942.96,1157.51 1945.83,1157.75 1948.69,1157.98 
  1951.56,1158.19 1954.42,1158.38 1957.29,1158.57 1960.16,1158.73 1963.02,1158.89 1965.89,1159.03 1968.75,1159.17 1971.62,1159.29 1974.48,1159.39 1977.35,1159.49 
  1980.22,1159.58 1983.08,1159.65 1985.95,1159.72 1988.81,1159.77 1991.68,1159.82 1994.54,1159.85 1997.41,1159.88 2000.28,1159.9 2003.14,1159.91 2006.01,1159.92 
  2008.87,1159.91 2011.74,1159.9 2014.6,1159.89 2017.47,1159.86 2020.34,1159.84 2023.2,1159.8 2026.07,1159.76 2028.93,1159.72 2031.8,1159.67 2034.66,1159.61 
  2037.53,1159.56 2040.39,1159.49 2043.26,1159.43 2046.13,1159.36 2048.99,1159.29 2051.86,1159.22 2054.72,1159.15 2057.59,1159.07 2060.45,1159 2063.32,1158.92 
  2066.19,1158.85 2069.05,1158.77 2071.92,1158.69 2074.78,1158.62 2077.65,1158.54 2080.51,1158.46 2083.38,1158.39 2086.25,1158.31 2089.11,1158.23 2091.98,1158.16 
  2094.84,1158.08 2097.71,1158 2100.57,1157.93 2103.44,1157.85 2106.31,1157.77 2109.17,1157.7 2112.04,1157.62 2114.9,1157.54 2117.77,1157.47 2120.63,1157.39 
  2123.5,1157.31 2126.37,1157.23 2129.23,1157.16 2132.1,1157.08 2134.96,1157 2137.83,1156.93 2140.69,1156.85 2143.56,1156.77 2146.43,1156.7 2149.29,1156.62 
  2152.16,1156.54 2155.02,1156.47 2157.89,1156.39 2160.75,1156.31 2163.62,1156.24 2166.49,1156.16 2169.35,1156.08 2172.22,1156.01 2175.08,1155.93 2177.95,1155.85 
  2180.81,1155.78 2183.68,1155.7 2186.55,1155.62 2189.41,1155.55 2192.28,1155.47 2195.14,1155.39 2198.01,1155.32 2200.87,1155.24 2203.74,1155.16 2206.61,1155.09 
  2209.47,1155.01 
  "/>
<polyline clip-path="url(#clip813)" style="stroke:#c271d2; stroke-linecap:butt; stroke-linejoin:round; stroke-width:4; stroke-opacity:1; fill:none" points="
  633.338,1721.06 633.338,521.984 
  "/>
<polyline clip-path="url(#clip813)" style="stroke:#c271d2; stroke-linecap:butt; stroke-linejoin:round; stroke-width:4; stroke-opacity:1; fill:none" points="
  2066.19,1721.06 2066.19,521.984 
  "/>
<polyline clip-path="url(#clip813)" style="stroke:#ac8d18; stroke-linecap:butt; stroke-linejoin:round; stroke-width:4; stroke-opacity:1; fill:none" stroke-dasharray="16, 10" points="
  633.338,1721.06 633.338,521.984 
  "/>
<polyline clip-path="url(#clip813)" style="stroke:#ac8d18; stroke-linecap:butt; stroke-linejoin:round; stroke-width:4; stroke-opacity:1; fill:none" stroke-dasharray="16, 10" points="
  776.623,1721.06 776.623,521.984 
  "/>
<polyline clip-path="url(#clip813)" style="stroke:#ac8d18; stroke-linecap:butt; stroke-linejoin:round; stroke-width:4; stroke-opacity:1; fill:none" stroke-dasharray="16, 10" points="
  919.908,1721.06 919.908,521.984 
  "/>
<polyline clip-path="url(#clip813)" style="stroke:#ac8d18; stroke-linecap:butt; stroke-linejoin:round; stroke-width:4; stroke-opacity:1; fill:none" stroke-dasharray="16, 10" points="
  1063.19,1721.06 1063.19,521.984 
  "/>
<polyline clip-path="url(#clip813)" style="stroke:#ac8d18; stroke-linecap:butt; stroke-linejoin:round; stroke-width:4; stroke-opacity:1; fill:none" stroke-dasharray="16, 10" points="
  1206.48,1721.06 1206.48,521.984 
  "/>
<polyline clip-path="url(#clip813)" style="stroke:#ac8d18; stroke-linecap:butt; stroke-linejoin:round; stroke-width:4; stroke-opacity:1; fill:none" stroke-dasharray="16, 10" points="
  1349.76,1721.06 1349.76,521.984 
  "/>
<polyline clip-path="url(#clip813)" style="stroke:#ac8d18; stroke-linecap:butt; stroke-linejoin:round; stroke-width:4; stroke-opacity:1; fill:none" stroke-dasharray="16, 10" points="
  1493.05,1721.06 1493.05,521.984 
  "/>
<polyline clip-path="url(#clip813)" style="stroke:#ac8d18; stroke-linecap:butt; stroke-linejoin:round; stroke-width:4; stroke-opacity:1; fill:none" stroke-dasharray="16, 10" points="
  1636.33,1721.06 1636.33,521.984 
  "/>
<polyline clip-path="url(#clip813)" style="stroke:#ac8d18; stroke-linecap:butt; stroke-linejoin:round; stroke-width:4; stroke-opacity:1; fill:none" stroke-dasharray="16, 10" points="
  1779.62,1721.06 1779.62,521.984 
  "/>
<polyline clip-path="url(#clip813)" style="stroke:#ac8d18; stroke-linecap:butt; stroke-linejoin:round; stroke-width:4; stroke-opacity:1; fill:none" stroke-dasharray="16, 10" points="
  1922.9,1721.06 1922.9,521.984 
  "/>
<polyline clip-path="url(#clip813)" style="stroke:#ac8d18; stroke-linecap:butt; stroke-linejoin:round; stroke-width:4; stroke-opacity:1; fill:none" stroke-dasharray="16, 10" points="
  2066.19,1721.06 2066.19,521.984 
  "/>
<path clip-path="url(#clip810)" d="
M1776.75 1085.9 L2285.89 1085.9 L2285.89 934.998 L1776.75 934.998  Z
  " fill="#ffffff" fill-rule="evenodd" fill-opacity="1"/>
<polyline clip-path="url(#clip810)" style="stroke:#000000; stroke-linecap:butt; stroke-linejoin:round; stroke-width:4; stroke-opacity:1; fill:none" points="
  1776.75,1085.9 2285.89,1085.9 2285.89,934.998 1776.75,934.998 1776.75,1085.9 
  "/>
<polyline clip-path="url(#clip810)" style="stroke:#e26f46; stroke-linecap:butt; stroke-linejoin:round; stroke-width:4; stroke-opacity:1; fill:none" points="
  1799.04,985.298 1932.77,985.298 
  "/>
<g clip-path="url(#clip810)">
<text style="fill:#000000; fill-opacity:1; font-family:Arial,Helvetica Neue,Helvetica,sans-serif; font-size:48px; text-anchor:start;" transform="rotate(0, 1955.06, 1002.8)" x="1955.06" y="1002.8">spline</text>
</g>
<polyline clip-path="url(#clip810)" style="stroke:#3da44d; stroke-linecap:butt; stroke-linejoin:round; stroke-width:4; stroke-opacity:1; fill:none" points="
  1799.04,1035.6 1932.77,1035.6 
  "/>
<g clip-path="url(#clip810)">
<text style="fill:#000000; fill-opacity:1; font-family:Arial,Helvetica Neue,Helvetica,sans-serif; font-size:48px; text-anchor:start;" transform="rotate(0, 1955.06, 1053.1)" x="1955.06" y="1053.1">natural spline</text>
</g>
</svg>
