<?xml version="1.0" encoding="utf-8"?>
<svg xmlns="http://www.w3.org/2000/svg" xmlns:xlink="http://www.w3.org/1999/xlink" width="600" height="400" viewBox="0 0 2400 1600">
<defs>
  <clipPath id="clip180">
    <rect x="0" y="0" width="2400" height="1600"/>
  </clipPath>
</defs>
<path clip-path="url(#clip180)" d="
M0 1600 L2400 1600 L2400 0 L0 0  Z
  " fill="#ffffff" fill-rule="evenodd" fill-opacity="1"/>
<defs>
  <clipPath id="clip181">
    <rect x="480" y="0" width="1681" height="1600"/>
  </clipPath>
</defs>
<path clip-path="url(#clip180)" d="
M346.768 1321.37 L1139.37 1321.37 L1139.37 121.675 L346.768 121.675  Z
  " fill="#ffffff" fill-rule="evenodd" fill-opacity="1"/>
<defs>
  <clipPath id="clip182">
    <rect x="346" y="121" width="794" height="1201"/>
  </clipPath>
</defs>
<polyline clip-path="url(#clip182)" style="stroke:#000000; stroke-linecap:butt; stroke-linejoin:round; stroke-width:2; stroke-opacity:0.1; fill:none" points="
  478.215,1321.37 478.215,121.675 
  "/>
<polyline clip-path="url(#clip182)" style="stroke:#000000; stroke-linecap:butt; stroke-linejoin:round; stroke-width:2; stroke-opacity:0.1; fill:none" points="
  612.133,1321.37 612.133,121.675 
  "/>
<polyline clip-path="url(#clip182)" style="stroke:#000000; stroke-linecap:butt; stroke-linejoin:round; stroke-width:2; stroke-opacity:0.1; fill:none" points="
  746.052,1321.37 746.052,121.675 
  "/>
<polyline clip-path="url(#clip182)" style="stroke:#000000; stroke-linecap:butt; stroke-linejoin:round; stroke-width:2; stroke-opacity:0.1; fill:none" points="
  879.971,1321.37 879.971,121.675 
  "/>
<polyline clip-path="url(#clip182)" style="stroke:#000000; stroke-linecap:butt; stroke-linejoin:round; stroke-width:2; stroke-opacity:0.1; fill:none" points="
  1013.89,1321.37 1013.89,121.675 
  "/>
<polyline clip-path="url(#clip180)" style="stroke:#000000; stroke-linecap:butt; stroke-linejoin:round; stroke-width:4; stroke-opacity:1; fill:none" points="
  346.768,1321.37 1139.37,1321.37 
  "/>
<polyline clip-path="url(#clip180)" style="stroke:#000000; stroke-linecap:butt; stroke-linejoin:round; stroke-width:4; stroke-opacity:1; fill:none" points="
  478.215,1321.37 478.215,1302.47 
  "/>
<polyline clip-path="url(#clip180)" style="stroke:#000000; stroke-linecap:butt; stroke-linejoin:round; stroke-width:4; stroke-opacity:1; fill:none" points="
  612.133,1321.37 612.133,1302.47 
  "/>
<polyline clip-path="url(#clip180)" style="stroke:#000000; stroke-linecap:butt; stroke-linejoin:round; stroke-width:4; stroke-opacity:1; fill:none" points="
  746.052,1321.37 746.052,1302.47 
  "/>
<polyline clip-path="url(#clip180)" style="stroke:#000000; stroke-linecap:butt; stroke-linejoin:round; stroke-width:4; stroke-opacity:1; fill:none" points="
  879.971,1321.37 879.971,1302.47 
  "/>
<polyline clip-path="url(#clip180)" style="stroke:#000000; stroke-linecap:butt; stroke-linejoin:round; stroke-width:4; stroke-opacity:1; fill:none" points="
  1013.89,1321.37 1013.89,1302.47 
  "/>
<g clip-path="url(#clip180)">
<text style="fill:#000000; fill-opacity:1; font-family:Arial,Helvetica Neue,Helvetica,sans-serif; font-size:48px; text-anchor:middle;" transform="rotate(0, 478.215, 1382.57)" x="478.215" y="1382.57">−2</text>
</g>
<g clip-path="url(#clip180)">
<text style="fill:#000000; fill-opacity:1; font-family:Arial,Helvetica Neue,Helvetica,sans-serif; font-size:48px; text-anchor:middle;" transform="rotate(0, 612.133, 1382.57)" x="612.133" y="1382.57">−1</text>
</g>
<g clip-path="url(#clip180)">
<text style="fill:#000000; fill-opacity:1; font-family:Arial,Helvetica Neue,Helvetica,sans-serif; font-size:48px; text-anchor:middle;" transform="rotate(0, 746.052, 1382.57)" x="746.052" y="1382.57">0</text>
</g>
<g clip-path="url(#clip180)">
<text style="fill:#000000; fill-opacity:1; font-family:Arial,Helvetica Neue,Helvetica,sans-serif; font-size:48px; text-anchor:middle;" transform="rotate(0, 879.971, 1382.57)" x="879.971" y="1382.57">1</text>
</g>
<g clip-path="url(#clip180)">
<text style="fill:#000000; fill-opacity:1; font-family:Arial,Helvetica Neue,Helvetica,sans-serif; font-size:48px; text-anchor:middle;" transform="rotate(0, 1013.89, 1382.57)" x="1013.89" y="1382.57">2</text>
</g>
<g clip-path="url(#clip180)">
<text style="fill:#000000; fill-opacity:1; font-family:Arial,Helvetica Neue,Helvetica,sans-serif; font-size:66px; text-anchor:middle;" transform="rotate(0, 743.072, 1467.23)" x="743.072" y="1467.23">x</text>
</g>
<polyline clip-path="url(#clip182)" style="stroke:#000000; stroke-linecap:butt; stroke-linejoin:round; stroke-width:2; stroke-opacity:0.1; fill:none" points="
  346.768,1241.47 1139.37,1241.47 
  "/>
<polyline clip-path="url(#clip182)" style="stroke:#000000; stroke-linecap:butt; stroke-linejoin:round; stroke-width:2; stroke-opacity:0.1; fill:none" points="
  346.768,1013.46 1139.37,1013.46 
  "/>
<polyline clip-path="url(#clip182)" style="stroke:#000000; stroke-linecap:butt; stroke-linejoin:round; stroke-width:2; stroke-opacity:0.1; fill:none" points="
  346.768,785.435 1139.37,785.435 
  "/>
<polyline clip-path="url(#clip182)" style="stroke:#000000; stroke-linecap:butt; stroke-linejoin:round; stroke-width:2; stroke-opacity:0.1; fill:none" points="
  346.768,557.416 1139.37,557.416 
  "/>
<polyline clip-path="url(#clip182)" style="stroke:#000000; stroke-linecap:butt; stroke-linejoin:round; stroke-width:2; stroke-opacity:0.1; fill:none" points="
  346.768,329.396 1139.37,329.396 
  "/>
<polyline clip-path="url(#clip180)" style="stroke:#000000; stroke-linecap:butt; stroke-linejoin:round; stroke-width:4; stroke-opacity:1; fill:none" points="
  346.768,1321.37 346.768,121.675 
  "/>
<polyline clip-path="url(#clip180)" style="stroke:#000000; stroke-linecap:butt; stroke-linejoin:round; stroke-width:4; stroke-opacity:1; fill:none" points="
  346.768,1241.47 365.666,1241.47 
  "/>
<polyline clip-path="url(#clip180)" style="stroke:#000000; stroke-linecap:butt; stroke-linejoin:round; stroke-width:4; stroke-opacity:1; fill:none" points="
  346.768,1013.46 365.666,1013.46 
  "/>
<polyline clip-path="url(#clip180)" style="stroke:#000000; stroke-linecap:butt; stroke-linejoin:round; stroke-width:4; stroke-opacity:1; fill:none" points="
  346.768,785.435 365.666,785.435 
  "/>
<polyline clip-path="url(#clip180)" style="stroke:#000000; stroke-linecap:butt; stroke-linejoin:round; stroke-width:4; stroke-opacity:1; fill:none" points="
  346.768,557.416 365.666,557.416 
  "/>
<polyline clip-path="url(#clip180)" style="stroke:#000000; stroke-linecap:butt; stroke-linejoin:round; stroke-width:4; stroke-opacity:1; fill:none" points="
  346.768,329.396 365.666,329.396 
  "/>
<g clip-path="url(#clip180)">
<text style="fill:#000000; fill-opacity:1; font-family:Arial,Helvetica Neue,Helvetica,sans-serif; font-size:48px; text-anchor:end;" transform="rotate(0, 310.768, 1258.97)" x="310.768" y="1258.97">−0.4</text>
</g>
<g clip-path="url(#clip180)">
<text style="fill:#000000; fill-opacity:1; font-family:Arial,Helvetica Neue,Helvetica,sans-serif; font-size:48px; text-anchor:end;" transform="rotate(0, 310.768, 1030.96)" x="310.768" y="1030.96">−0.2</text>
</g>
<g clip-path="url(#clip180)">
<text style="fill:#000000; fill-opacity:1; font-family:Arial,Helvetica Neue,Helvetica,sans-serif; font-size:48px; text-anchor:end;" transform="rotate(0, 310.768, 802.935)" x="310.768" y="802.935">0.0</text>
</g>
<g clip-path="url(#clip180)">
<text style="fill:#000000; fill-opacity:1; font-family:Arial,Helvetica Neue,Helvetica,sans-serif; font-size:48px; text-anchor:end;" transform="rotate(0, 310.768, 574.916)" x="310.768" y="574.916">0.2</text>
</g>
<g clip-path="url(#clip180)">
<text style="fill:#000000; fill-opacity:1; font-family:Arial,Helvetica Neue,Helvetica,sans-serif; font-size:48px; text-anchor:end;" transform="rotate(0, 310.768, 346.896)" x="310.768" y="346.896">0.4</text>
</g>
<g clip-path="url(#clip180)">
<text style="fill:#000000; fill-opacity:1; font-family:Arial,Helvetica Neue,Helvetica,sans-serif; font-size:66px; text-anchor:middle;" transform="rotate(-90, 169.538, 721.521)" x="169.538" y="721.521">f(x)</text>
</g>
<g clip-path="url(#clip180)">
<text style="fill:#000000; fill-opacity:1; font-family:Arial,Helvetica Neue,Helvetica,sans-serif; font-size:84px; text-anchor:middle;" transform="rotate(0, 743.072, 73.2)" x="743.072" y="73.2">多項式回帰(3次)</text>
</g>
<polyline clip-path="url(#clip182)" style="stroke:#009af9; stroke-linecap:butt; stroke-linejoin:round; stroke-width:4; stroke-opacity:1; fill:none" points="
  369.201,632.369 416.942,980.3 463.048,1184.56 501.388,1269.19 540.726,1287.41 551.377,1281.86 557.418,1276.9 561.833,1272.48 565.731,1268.03 571.015,1261.2 
  588.909,1231.61 658.083,1040.84 701.093,880.622 715.632,822.559 723.348,791.295 792.894,510.787 815.317,427.26 818.434,416.153 842.19,336.52 844.914,328.024 
  882.832,226.385 892.427,206.303 919.271,164.493 971.934,155.629 992.535,183.253 1000.73,199.693 1053.52,388.4 1097.91,672.081 1116.72,831.018 1116.94,833.066 
  
  "/>
<path clip-path="url(#clip180)" d="
M1560.15 1321.37 L2352.76 1321.37 L2352.76 121.675 L1560.15 121.675  Z
  " fill="#ffffff" fill-rule="evenodd" fill-opacity="1"/>
<defs>
  <clipPath id="clip183">
    <rect x="1560" y="121" width="794" height="1201"/>
  </clipPath>
</defs>
<polyline clip-path="url(#clip183)" style="stroke:#000000; stroke-linecap:butt; stroke-linejoin:round; stroke-width:2; stroke-opacity:0.1; fill:none" points="
  1691.6,1321.37 1691.6,121.675 
  "/>
<polyline clip-path="url(#clip183)" style="stroke:#000000; stroke-linecap:butt; stroke-linejoin:round; stroke-width:2; stroke-opacity:0.1; fill:none" points="
  1825.51,1321.37 1825.51,121.675 
  "/>
<polyline clip-path="url(#clip183)" style="stroke:#000000; stroke-linecap:butt; stroke-linejoin:round; stroke-width:2; stroke-opacity:0.1; fill:none" points="
  1959.43,1321.37 1959.43,121.675 
  "/>
<polyline clip-path="url(#clip183)" style="stroke:#000000; stroke-linecap:butt; stroke-linejoin:round; stroke-width:2; stroke-opacity:0.1; fill:none" points="
  2093.35,1321.37 2093.35,121.675 
  "/>
<polyline clip-path="url(#clip183)" style="stroke:#000000; stroke-linecap:butt; stroke-linejoin:round; stroke-width:2; stroke-opacity:0.1; fill:none" points="
  2227.27,1321.37 2227.27,121.675 
  "/>
<polyline clip-path="url(#clip180)" style="stroke:#000000; stroke-linecap:butt; stroke-linejoin:round; stroke-width:4; stroke-opacity:1; fill:none" points="
  1560.15,1321.37 2352.76,1321.37 
  "/>
<polyline clip-path="url(#clip180)" style="stroke:#000000; stroke-linecap:butt; stroke-linejoin:round; stroke-width:4; stroke-opacity:1; fill:none" points="
  1691.6,1321.37 1691.6,1302.47 
  "/>
<polyline clip-path="url(#clip180)" style="stroke:#000000; stroke-linecap:butt; stroke-linejoin:round; stroke-width:4; stroke-opacity:1; fill:none" points="
  1825.51,1321.37 1825.51,1302.47 
  "/>
<polyline clip-path="url(#clip180)" style="stroke:#000000; stroke-linecap:butt; stroke-linejoin:round; stroke-width:4; stroke-opacity:1; fill:none" points="
  1959.43,1321.37 1959.43,1302.47 
  "/>
<polyline clip-path="url(#clip180)" style="stroke:#000000; stroke-linecap:butt; stroke-linejoin:round; stroke-width:4; stroke-opacity:1; fill:none" points="
  2093.35,1321.37 2093.35,1302.47 
  "/>
<polyline clip-path="url(#clip180)" style="stroke:#000000; stroke-linecap:butt; stroke-linejoin:round; stroke-width:4; stroke-opacity:1; fill:none" points="
  2227.27,1321.37 2227.27,1302.47 
  "/>
<g clip-path="url(#clip180)">
<text style="fill:#000000; fill-opacity:1; font-family:Arial,Helvetica Neue,Helvetica,sans-serif; font-size:48px; text-anchor:middle;" transform="rotate(0, 1691.6, 1382.57)" x="1691.6" y="1382.57">−2</text>
</g>
<g clip-path="url(#clip180)">
<text style="fill:#000000; fill-opacity:1; font-family:Arial,Helvetica Neue,Helvetica,sans-serif; font-size:48px; text-anchor:middle;" transform="rotate(0, 1825.51, 1382.57)" x="1825.51" y="1382.57">−1</text>
</g>
<g clip-path="url(#clip180)">
<text style="fill:#000000; fill-opacity:1; font-family:Arial,Helvetica Neue,Helvetica,sans-serif; font-size:48px; text-anchor:middle;" transform="rotate(0, 1959.43, 1382.57)" x="1959.43" y="1382.57">0</text>
</g>
<g clip-path="url(#clip180)">
<text style="fill:#000000; fill-opacity:1; font-family:Arial,Helvetica Neue,Helvetica,sans-serif; font-size:48px; text-anchor:middle;" transform="rotate(0, 2093.35, 1382.57)" x="2093.35" y="1382.57">1</text>
</g>
<g clip-path="url(#clip180)">
<text style="fill:#000000; fill-opacity:1; font-family:Arial,Helvetica Neue,Helvetica,sans-serif; font-size:48px; text-anchor:middle;" transform="rotate(0, 2227.27, 1382.57)" x="2227.27" y="1382.57">2</text>
</g>
<g clip-path="url(#clip180)">
<text style="fill:#000000; fill-opacity:1; font-family:Arial,Helvetica Neue,Helvetica,sans-serif; font-size:66px; text-anchor:middle;" transform="rotate(0, 1956.45, 1467.23)" x="1956.45" y="1467.23">x</text>
</g>
<polyline clip-path="url(#clip183)" style="stroke:#000000; stroke-linecap:butt; stroke-linejoin:round; stroke-width:2; stroke-opacity:0.1; fill:none" points="
  1560.15,1078.35 2352.76,1078.35 
  "/>
<polyline clip-path="url(#clip183)" style="stroke:#000000; stroke-linecap:butt; stroke-linejoin:round; stroke-width:2; stroke-opacity:0.1; fill:none" points="
  1560.15,797.251 2352.76,797.251 
  "/>
<polyline clip-path="url(#clip183)" style="stroke:#000000; stroke-linecap:butt; stroke-linejoin:round; stroke-width:2; stroke-opacity:0.1; fill:none" points="
  1560.15,516.156 2352.76,516.156 
  "/>
<polyline clip-path="url(#clip183)" style="stroke:#000000; stroke-linecap:butt; stroke-linejoin:round; stroke-width:2; stroke-opacity:0.1; fill:none" points="
  1560.15,235.061 2352.76,235.061 
  "/>
<polyline clip-path="url(#clip180)" style="stroke:#000000; stroke-linecap:butt; stroke-linejoin:round; stroke-width:4; stroke-opacity:1; fill:none" points="
  1560.15,1321.37 1560.15,121.675 
  "/>
<polyline clip-path="url(#clip180)" style="stroke:#000000; stroke-linecap:butt; stroke-linejoin:round; stroke-width:4; stroke-opacity:1; fill:none" points="
  1560.15,1078.35 1579.05,1078.35 
  "/>
<polyline clip-path="url(#clip180)" style="stroke:#000000; stroke-linecap:butt; stroke-linejoin:round; stroke-width:4; stroke-opacity:1; fill:none" points="
  1560.15,797.251 1579.05,797.251 
  "/>
<polyline clip-path="url(#clip180)" style="stroke:#000000; stroke-linecap:butt; stroke-linejoin:round; stroke-width:4; stroke-opacity:1; fill:none" points="
  1560.15,516.156 1579.05,516.156 
  "/>
<polyline clip-path="url(#clip180)" style="stroke:#000000; stroke-linecap:butt; stroke-linejoin:round; stroke-width:4; stroke-opacity:1; fill:none" points="
  1560.15,235.061 1579.05,235.061 
  "/>
<g clip-path="url(#clip180)">
<text style="fill:#000000; fill-opacity:1; font-family:Arial,Helvetica Neue,Helvetica,sans-serif; font-size:48px; text-anchor:end;" transform="rotate(0, 1524.15, 1095.85)" x="1524.15" y="1095.85">−1.25</text>
</g>
<g clip-path="url(#clip180)">
<text style="fill:#000000; fill-opacity:1; font-family:Arial,Helvetica Neue,Helvetica,sans-serif; font-size:48px; text-anchor:end;" transform="rotate(0, 1524.15, 814.751)" x="1524.15" y="814.751">−1.00</text>
</g>
<g clip-path="url(#clip180)">
<text style="fill:#000000; fill-opacity:1; font-family:Arial,Helvetica Neue,Helvetica,sans-serif; font-size:48px; text-anchor:end;" transform="rotate(0, 1524.15, 533.656)" x="1524.15" y="533.656">−0.75</text>
</g>
<g clip-path="url(#clip180)">
<text style="fill:#000000; fill-opacity:1; font-family:Arial,Helvetica Neue,Helvetica,sans-serif; font-size:48px; text-anchor:end;" transform="rotate(0, 1524.15, 252.561)" x="1524.15" y="252.561">−0.50</text>
</g>
<g clip-path="url(#clip180)">
<text style="fill:#000000; fill-opacity:1; font-family:Arial,Helvetica Neue,Helvetica,sans-serif; font-size:66px; text-anchor:middle;" transform="rotate(-90, 1356.16, 721.521)" x="1356.16" y="721.521">f(x)</text>
</g>
<g clip-path="url(#clip180)">
<text style="fill:#000000; fill-opacity:1; font-family:Arial,Helvetica Neue,Helvetica,sans-serif; font-size:84px; text-anchor:middle;" transform="rotate(0, 1956.45, 73.2)" x="1956.45" y="73.2">局所線形回帰</text>
</g>
<polyline clip-path="url(#clip183)" style="stroke:#009af9; stroke-linecap:butt; stroke-linejoin:round; stroke-width:4; stroke-opacity:1; fill:none" points="
  1582.58,1142.57 1630.32,1190.06 1676.43,1231.56 1714.77,1263.92 1754.11,1286.86 1764.76,1287.41 1770.8,1284.35 1775.21,1281.54 1779.11,1278.66 1784.4,1271.15 
  1802.29,1233.72 1871.46,1049.81 1914.47,913.721 1929.01,861.148 1936.73,832.424 2006.27,542.349 2028.7,454.88 2031.82,442.8 2055.57,353.809 2058.3,344.888 
  2096.21,261.432 2105.81,245.357 2132.65,201.118 2185.32,155.629 2205.92,156.346 2214.11,157.599 2266.9,171.897 2311.29,199.334 2330.1,209.781 2330.32,209.889 
  
  "/>
</svg>
