<?xml version="1.0" encoding="utf-8"?>
<svg xmlns="http://www.w3.org/2000/svg" xmlns:xlink="http://www.w3.org/1999/xlink" width="600" height="400" viewBox="0 0 2400 1600">
<defs>
  <clipPath id="clip830">
    <rect x="0" y="0" width="2400" height="1600"/>
  </clipPath>
</defs>
<path clip-path="url(#clip830)" d="
M0 1600 L2400 1600 L2400 0 L0 0  Z
  " fill="#ffffff" fill-rule="evenodd" fill-opacity="1"/>
<defs>
  <clipPath id="clip831">
    <rect x="480" y="0" width="1681" height="1600"/>
  </clipPath>
</defs>
<path clip-path="url(#clip830)" d="
M284.912 1383.22 L2352.76 1383.22 L2352.76 121.675 L284.912 121.675  Z
  " fill="#ffffff" fill-rule="evenodd" fill-opacity="1"/>
<defs>
  <clipPath id="clip832">
    <rect x="284" y="121" width="2069" height="1263"/>
  </clipPath>
</defs>
<polyline clip-path="url(#clip832)" style="stroke:#000000; stroke-linecap:butt; stroke-linejoin:round; stroke-width:2; stroke-opacity:0.1; fill:none" points="
  387.508,1383.22 387.508,121.675 
  "/>
<polyline clip-path="url(#clip832)" style="stroke:#000000; stroke-linecap:butt; stroke-linejoin:round; stroke-width:2; stroke-opacity:0.1; fill:none" points="
  698.765,1383.22 698.765,121.675 
  "/>
<polyline clip-path="url(#clip832)" style="stroke:#000000; stroke-linecap:butt; stroke-linejoin:round; stroke-width:2; stroke-opacity:0.1; fill:none" points="
  1010.02,1383.22 1010.02,121.675 
  "/>
<polyline clip-path="url(#clip832)" style="stroke:#000000; stroke-linecap:butt; stroke-linejoin:round; stroke-width:2; stroke-opacity:0.1; fill:none" points="
  1321.28,1383.22 1321.28,121.675 
  "/>
<polyline clip-path="url(#clip832)" style="stroke:#000000; stroke-linecap:butt; stroke-linejoin:round; stroke-width:2; stroke-opacity:0.1; fill:none" points="
  1632.54,1383.22 1632.54,121.675 
  "/>
<polyline clip-path="url(#clip832)" style="stroke:#000000; stroke-linecap:butt; stroke-linejoin:round; stroke-width:2; stroke-opacity:0.1; fill:none" points="
  1943.79,1383.22 1943.79,121.675 
  "/>
<polyline clip-path="url(#clip832)" style="stroke:#000000; stroke-linecap:butt; stroke-linejoin:round; stroke-width:2; stroke-opacity:0.1; fill:none" points="
  2255.05,1383.22 2255.05,121.675 
  "/>
<polyline clip-path="url(#clip830)" style="stroke:#000000; stroke-linecap:butt; stroke-linejoin:round; stroke-width:4; stroke-opacity:1; fill:none" points="
  284.912,1383.22 2352.76,1383.22 
  "/>
<polyline clip-path="url(#clip830)" style="stroke:#000000; stroke-linecap:butt; stroke-linejoin:round; stroke-width:4; stroke-opacity:1; fill:none" points="
  387.508,1383.22 387.508,1364.33 
  "/>
<polyline clip-path="url(#clip830)" style="stroke:#000000; stroke-linecap:butt; stroke-linejoin:round; stroke-width:4; stroke-opacity:1; fill:none" points="
  698.765,1383.22 698.765,1364.33 
  "/>
<polyline clip-path="url(#clip830)" style="stroke:#000000; stroke-linecap:butt; stroke-linejoin:round; stroke-width:4; stroke-opacity:1; fill:none" points="
  1010.02,1383.22 1010.02,1364.33 
  "/>
<polyline clip-path="url(#clip830)" style="stroke:#000000; stroke-linecap:butt; stroke-linejoin:round; stroke-width:4; stroke-opacity:1; fill:none" points="
  1321.28,1383.22 1321.28,1364.33 
  "/>
<polyline clip-path="url(#clip830)" style="stroke:#000000; stroke-linecap:butt; stroke-linejoin:round; stroke-width:4; stroke-opacity:1; fill:none" points="
  1632.54,1383.22 1632.54,1364.33 
  "/>
<polyline clip-path="url(#clip830)" style="stroke:#000000; stroke-linecap:butt; stroke-linejoin:round; stroke-width:4; stroke-opacity:1; fill:none" points="
  1943.79,1383.22 1943.79,1364.33 
  "/>
<polyline clip-path="url(#clip830)" style="stroke:#000000; stroke-linecap:butt; stroke-linejoin:round; stroke-width:4; stroke-opacity:1; fill:none" points="
  2255.05,1383.22 2255.05,1364.33 
  "/>
<g clip-path="url(#clip830)">
<text style="fill:#000000; fill-opacity:1; font-family:Arial,Helvetica Neue,Helvetica,sans-serif; font-size:48px; text-anchor:middle;" transform="rotate(0, 387.508, 1444.42)" x="387.508" y="1444.42">−3</text>
</g>
<g clip-path="url(#clip830)">
<text style="fill:#000000; fill-opacity:1; font-family:Arial,Helvetica Neue,Helvetica,sans-serif; font-size:48px; text-anchor:middle;" transform="rotate(0, 698.765, 1444.42)" x="698.765" y="1444.42">−2</text>
</g>
<g clip-path="url(#clip830)">
<text style="fill:#000000; fill-opacity:1; font-family:Arial,Helvetica Neue,Helvetica,sans-serif; font-size:48px; text-anchor:middle;" transform="rotate(0, 1010.02, 1444.42)" x="1010.02" y="1444.42">−1</text>
</g>
<g clip-path="url(#clip830)">
<text style="fill:#000000; fill-opacity:1; font-family:Arial,Helvetica Neue,Helvetica,sans-serif; font-size:48px; text-anchor:middle;" transform="rotate(0, 1321.28, 1444.42)" x="1321.28" y="1444.42">0</text>
</g>
<g clip-path="url(#clip830)">
<text style="fill:#000000; fill-opacity:1; font-family:Arial,Helvetica Neue,Helvetica,sans-serif; font-size:48px; text-anchor:middle;" transform="rotate(0, 1632.54, 1444.42)" x="1632.54" y="1444.42">1</text>
</g>
<g clip-path="url(#clip830)">
<text style="fill:#000000; fill-opacity:1; font-family:Arial,Helvetica Neue,Helvetica,sans-serif; font-size:48px; text-anchor:middle;" transform="rotate(0, 1943.79, 1444.42)" x="1943.79" y="1444.42">2</text>
</g>
<g clip-path="url(#clip830)">
<text style="fill:#000000; fill-opacity:1; font-family:Arial,Helvetica Neue,Helvetica,sans-serif; font-size:48px; text-anchor:middle;" transform="rotate(0, 2255.05, 1444.42)" x="2255.05" y="1444.42">3</text>
</g>
<polyline clip-path="url(#clip832)" style="stroke:#000000; stroke-linecap:butt; stroke-linejoin:round; stroke-width:2; stroke-opacity:0.1; fill:none" points="
  284.912,1126.31 2352.76,1126.31 
  "/>
<polyline clip-path="url(#clip832)" style="stroke:#000000; stroke-linecap:butt; stroke-linejoin:round; stroke-width:2; stroke-opacity:0.1; fill:none" points="
  284.912,827.671 2352.76,827.671 
  "/>
<polyline clip-path="url(#clip832)" style="stroke:#000000; stroke-linecap:butt; stroke-linejoin:round; stroke-width:2; stroke-opacity:0.1; fill:none" points="
  284.912,529.029 2352.76,529.029 
  "/>
<polyline clip-path="url(#clip832)" style="stroke:#000000; stroke-linecap:butt; stroke-linejoin:round; stroke-width:2; stroke-opacity:0.1; fill:none" points="
  284.912,230.387 2352.76,230.387 
  "/>
<polyline clip-path="url(#clip830)" style="stroke:#000000; stroke-linecap:butt; stroke-linejoin:round; stroke-width:4; stroke-opacity:1; fill:none" points="
  284.912,1383.22 284.912,121.675 
  "/>
<polyline clip-path="url(#clip830)" style="stroke:#000000; stroke-linecap:butt; stroke-linejoin:round; stroke-width:4; stroke-opacity:1; fill:none" points="
  284.912,1126.31 303.81,1126.31 
  "/>
<polyline clip-path="url(#clip830)" style="stroke:#000000; stroke-linecap:butt; stroke-linejoin:round; stroke-width:4; stroke-opacity:1; fill:none" points="
  284.912,827.671 303.81,827.671 
  "/>
<polyline clip-path="url(#clip830)" style="stroke:#000000; stroke-linecap:butt; stroke-linejoin:round; stroke-width:4; stroke-opacity:1; fill:none" points="
  284.912,529.029 303.81,529.029 
  "/>
<polyline clip-path="url(#clip830)" style="stroke:#000000; stroke-linecap:butt; stroke-linejoin:round; stroke-width:4; stroke-opacity:1; fill:none" points="
  284.912,230.387 303.81,230.387 
  "/>
<g clip-path="url(#clip830)">
<text style="fill:#000000; fill-opacity:1; font-family:Arial,Helvetica Neue,Helvetica,sans-serif; font-size:48px; text-anchor:end;" transform="rotate(0, 248.912, 1143.81)" x="248.912" y="1143.81">−1.5</text>
</g>
<g clip-path="url(#clip830)">
<text style="fill:#000000; fill-opacity:1; font-family:Arial,Helvetica Neue,Helvetica,sans-serif; font-size:48px; text-anchor:end;" transform="rotate(0, 248.912, 845.171)" x="248.912" y="845.171">−1.0</text>
</g>
<g clip-path="url(#clip830)">
<text style="fill:#000000; fill-opacity:1; font-family:Arial,Helvetica Neue,Helvetica,sans-serif; font-size:48px; text-anchor:end;" transform="rotate(0, 248.912, 546.529)" x="248.912" y="546.529">−0.5</text>
</g>
<g clip-path="url(#clip830)">
<text style="fill:#000000; fill-opacity:1; font-family:Arial,Helvetica Neue,Helvetica,sans-serif; font-size:48px; text-anchor:end;" transform="rotate(0, 248.912, 247.887)" x="248.912" y="247.887">0.0</text>
</g>
<g clip-path="url(#clip830)">
<text style="fill:#000000; fill-opacity:1; font-family:Arial,Helvetica Neue,Helvetica,sans-serif; font-size:84px; text-anchor:middle;" transform="rotate(0, 1318.83, 73.2)" x="1318.83" y="73.2">局所線形回帰(p=1, N=30)</text>
</g>
<circle clip-path="url(#clip832)" cx="1846.28" cy="157.379" r="14" fill="#009af9" fill-rule="evenodd" fill-opacity="1" stroke="#000000" stroke-opacity="1" stroke-width="3.2"/>
<circle clip-path="url(#clip832)" cx="2182.79" cy="532.579" r="14" fill="#009af9" fill-rule="evenodd" fill-opacity="1" stroke="#000000" stroke-opacity="1" stroke-width="3.2"/>
<circle clip-path="url(#clip832)" cx="1661.49" cy="220.257" r="14" fill="#009af9" fill-rule="evenodd" fill-opacity="1" stroke="#000000" stroke-opacity="1" stroke-width="3.2"/>
<circle clip-path="url(#clip832)" cx="1116.82" cy="1115.39" r="14" fill="#009af9" fill-rule="evenodd" fill-opacity="1" stroke="#000000" stroke-opacity="1" stroke-width="3.2"/>
<circle clip-path="url(#clip832)" cx="956.043" cy="1301.4" r="14" fill="#009af9" fill-rule="evenodd" fill-opacity="1" stroke="#000000" stroke-opacity="1" stroke-width="3.2"/>
<circle clip-path="url(#clip832)" cx="1639.18" cy="241.28" r="14" fill="#009af9" fill-rule="evenodd" fill-opacity="1" stroke="#000000" stroke-opacity="1" stroke-width="3.2"/>
<circle clip-path="url(#clip832)" cx="1489.51" cy="443.318" r="14" fill="#009af9" fill-rule="evenodd" fill-opacity="1" stroke="#000000" stroke-opacity="1" stroke-width="3.2"/>
<circle clip-path="url(#clip832)" cx="445.392" cy="942.824" r="14" fill="#009af9" fill-rule="evenodd" fill-opacity="1" stroke="#000000" stroke-opacity="1" stroke-width="3.2"/>
<circle clip-path="url(#clip832)" cx="868.811" cy="1343.85" r="14" fill="#009af9" fill-rule="evenodd" fill-opacity="1" stroke="#000000" stroke-opacity="1" stroke-width="3.2"/>
<circle clip-path="url(#clip832)" cx="556.353" cy="1128.1" r="14" fill="#009af9" fill-rule="evenodd" fill-opacity="1" stroke="#000000" stroke-opacity="1" stroke-width="3.2"/>
<circle clip-path="url(#clip832)" cx="663.515" cy="1262.2" r="14" fill="#009af9" fill-rule="evenodd" fill-opacity="1" stroke="#000000" stroke-opacity="1" stroke-width="3.2"/>
<circle clip-path="url(#clip832)" cx="1268.51" cy="851.435" r="14" fill="#009af9" fill-rule="evenodd" fill-opacity="1" stroke="#000000" stroke-opacity="1" stroke-width="3.2"/>
<circle clip-path="url(#clip832)" cx="2035.91" cy="303.651" r="14" fill="#009af9" fill-rule="evenodd" fill-opacity="1" stroke="#000000" stroke-opacity="1" stroke-width="3.2"/>
<circle clip-path="url(#clip832)" cx="1551.06" cy="348.699" r="14" fill="#009af9" fill-rule="evenodd" fill-opacity="1" stroke="#000000" stroke-opacity="1" stroke-width="3.2"/>
<circle clip-path="url(#clip832)" cx="902.171" cy="1332.98" r="14" fill="#009af9" fill-rule="evenodd" fill-opacity="1" stroke="#000000" stroke-opacity="1" stroke-width="3.2"/>
<circle clip-path="url(#clip832)" cx="1250.58" cy="885.168" r="14" fill="#009af9" fill-rule="evenodd" fill-opacity="1" stroke="#000000" stroke-opacity="1" stroke-width="3.2"/>
<circle clip-path="url(#clip832)" cx="882.851" cy="1340.1" r="14" fill="#009af9" fill-rule="evenodd" fill-opacity="1" stroke="#000000" stroke-opacity="1" stroke-width="3.2"/>
<circle clip-path="url(#clip832)" cx="1216.78" cy="947.432" r="14" fill="#009af9" fill-rule="evenodd" fill-opacity="1" stroke="#000000" stroke-opacity="1" stroke-width="3.2"/>
<circle clip-path="url(#clip832)" cx="1482.27" cy="455.32" r="14" fill="#009af9" fill-rule="evenodd" fill-opacity="1" stroke="#000000" stroke-opacity="1" stroke-width="3.2"/>
<circle clip-path="url(#clip832)" cx="844.055" cy="1347.52" r="14" fill="#009af9" fill-rule="evenodd" fill-opacity="1" stroke="#000000" stroke-opacity="1" stroke-width="3.2"/>
<circle clip-path="url(#clip832)" cx="1723.88" cy="176.195" r="14" fill="#009af9" fill-rule="evenodd" fill-opacity="1" stroke="#000000" stroke-opacity="1" stroke-width="3.2"/>
<circle clip-path="url(#clip832)" cx="914.454" cy="1327.28" r="14" fill="#009af9" fill-rule="evenodd" fill-opacity="1" stroke="#000000" stroke-opacity="1" stroke-width="3.2"/>
<circle clip-path="url(#clip832)" cx="893.113" cy="1336.6" r="14" fill="#009af9" fill-rule="evenodd" fill-opacity="1" stroke="#000000" stroke-opacity="1" stroke-width="3.2"/>
<circle clip-path="url(#clip832)" cx="1894.16" cy="174.97" r="14" fill="#009af9" fill-rule="evenodd" fill-opacity="1" stroke="#000000" stroke-opacity="1" stroke-width="3.2"/>
<circle clip-path="url(#clip832)" cx="752.624" cy="1328.45" r="14" fill="#009af9" fill-rule="evenodd" fill-opacity="1" stroke="#000000" stroke-opacity="1" stroke-width="3.2"/>
<circle clip-path="url(#clip832)" cx="2139.08" cy="456.897" r="14" fill="#009af9" fill-rule="evenodd" fill-opacity="1" stroke="#000000" stroke-opacity="1" stroke-width="3.2"/>
<circle clip-path="url(#clip832)" cx="1544.73" cy="357.767" r="14" fill="#009af9" fill-rule="evenodd" fill-opacity="1" stroke="#000000" stroke-opacity="1" stroke-width="3.2"/>
<circle clip-path="url(#clip832)" cx="1913.2" cy="185.774" r="14" fill="#009af9" fill-rule="evenodd" fill-opacity="1" stroke="#000000" stroke-opacity="1" stroke-width="3.2"/>
<circle clip-path="url(#clip832)" cx="1430.15" cy="545.975" r="14" fill="#009af9" fill-rule="evenodd" fill-opacity="1" stroke="#000000" stroke-opacity="1" stroke-width="3.2"/>
<circle clip-path="url(#clip832)" cx="2183.31" cy="533.513" r="14" fill="#009af9" fill-rule="evenodd" fill-opacity="1" stroke="#000000" stroke-opacity="1" stroke-width="3.2"/>
<polyline clip-path="url(#clip832)" style="stroke:#e26f46; stroke-linecap:butt; stroke-linejoin:round; stroke-width:4; stroke-opacity:1; fill:none" points="
  343.436,772.579 348.325,780.743 353.215,790.164 358.104,802.906 362.993,813.751 367.882,823.545 372.771,832.693 377.661,841.416 382.55,849.842 387.439,858.052 
  392.328,866.1 397.217,874.023 402.107,881.846 406.996,889.589 411.885,897.265 416.774,904.886 421.664,912.461 426.553,919.995 431.442,927.494 436.331,934.963 
  441.22,942.406 446.11,951.362 450.999,959.776 455.888,967.772 460.777,975.462 465.666,982.922 470.556,990.204 475.445,997.345 480.334,1004.37 485.223,1011.3 
  490.113,1018.15 495.002,1024.93 499.891,1031.65 504.78,1038.33 509.669,1044.95 514.559,1051.54 519.448,1058.09 524.337,1064.6 529.226,1071.09 534.115,1077.58 
  539.005,1083.99 543.894,1090.21 548.783,1096.28 553.672,1102.23 558.562,1108.03 563.451,1113.55 568.34,1118.94 573.229,1124.13 578.118,1129.07 583.008,1133.88 
  587.897,1138.45 592.786,1142.91 597.675,1147.22 602.564,1151.54 607.454,1155.7 612.343,1159.85 617.232,1164.01 622.121,1168.17 627.01,1172.34 631.9,1176.5 
  636.789,1180.66 641.678,1184.82 646.567,1188.93 651.457,1192.96 656.346,1196.98 661.235,1201.02 666.124,1205.05 671.013,1209.08 675.903,1213.12 680.792,1217.16 
  685.681,1221.2 690.57,1225.26 695.459,1229.32 700.349,1233.4 705.238,1237.49 710.127,1241.61 715.016,1245.75 719.906,1249.92 724.795,1254.13 729.684,1258.39 
  734.573,1262.71 739.462,1267.09 744.352,1271.57 749.241,1276.15 754.13,1280.86 759.019,1284.51 763.908,1286.86 768.798,1289.19 773.687,1291.49 778.576,1293.77 
  783.465,1296.03 788.355,1298.26 793.244,1300.47 798.133,1302.65 803.022,1304.8 807.911,1306.89 812.801,1308.8 817.69,1310.56 822.579,1312.16 827.468,1313.62 
  832.357,1314.94 837.247,1316.12 842.136,1317.16 847.025,1318.06 851.914,1318.81 856.803,1319.42 861.693,1319.87 866.582,1320.14 871.471,1319.35 876.36,1318.2 
  881.25,1316.92 886.139,1315.52 891.028,1314 895.917,1312.36 900.806,1310.59 905.696,1308.64 910.585,1304.93 915.474,1301.13 920.363,1297.24 925.252,1293.26 
  930.142,1289.19 935.031,1285.04 939.92,1280.59 944.809,1274.82 949.699,1269.2 954.588,1263.68 959.477,1257.73 964.366,1251.44 969.255,1245.43 974.145,1239.63 
  979.034,1233.69 983.923,1227.78 988.812,1221.92 993.701,1216.1 998.591,1210.32 1003.48,1204.56 1008.37,1198.82 1013.26,1193.1 1018.15,1187.39 1023.04,1181.68 
  1027.93,1175.99 1032.82,1170.29 1037.7,1164.61 1042.59,1158.92 1047.48,1153.23 1052.37,1147.55 1057.26,1141.86 1062.15,1136.18 1067.04,1130.28 1071.93,1124.28 
  1076.82,1118.27 1081.71,1112.25 1086.6,1106.24 1091.49,1100.22 1096.37,1094.2 1101.26,1088.18 1106.15,1082.16 1111.04,1076.13 1115.93,1070.11 1120.82,1063.63 
  1125.71,1056.52 1130.6,1049.49 1135.49,1042.52 1140.38,1035.63 1145.27,1028.82 1150.16,1022.09 1155.05,1015.46 1159.93,1008.66 1164.82,1001.92 1169.71,995.262 
  1174.6,988.173 1179.49,981.029 1184.38,973.519 1189.27,966.445 1194.16,959.92 1199.05,953.275 1203.94,947.117 1208.83,940.621 1213.72,934.342 1218.61,927.298 
  1223.49,920.41 1228.38,912.996 1233.27,905.043 1238.16,897.094 1243.05,889.174 1247.94,881.294 1252.83,873.452 1257.72,865.653 1262.61,857.899 1267.5,850.151 
  1272.39,841.311 1277.28,832.474 1282.16,823.639 1287.05,814.805 1291.94,805.974 1296.83,797.143 1301.72,788.315 1306.61,779.487 1311.5,770.66 1316.39,761.834 
  1321.28,753.01 1326.17,744.186 1331.06,735.472 1335.95,726.823 1340.84,718.178 1345.72,709.538 1350.61,700.918 1355.5,692.494 1360.39,684.065 1365.28,675.633 
  1370.17,667.2 1375.06,658.765 1379.95,650.329 1384.84,641.892 1389.73,633.454 1394.62,625.016 1399.51,616.576 1404.4,608.135 1409.28,599.693 1414.17,591.346 
  1419.06,583.192 1423.95,575.015 1428.84,566.833 1433.73,558.762 1438.62,550.703 1443.51,542.656 1448.4,534.621 1453.29,526.595 1458.18,518.58 1463.07,510.574 
  1467.96,502.577 1472.84,494.588 1477.73,486.607 1482.62,478.633 1487.51,470.665 1492.4,462.702 1497.29,454.742 1502.18,446.785 1507.07,438.829 1511.96,430.871 
  1516.85,422.908 1521.74,414.936 1526.63,406.95 1531.51,399.248 1536.4,391.917 1541.29,385.167 1546.18,378.433 1551.07,371.711 1555.96,364.999 1560.85,358.291 
  1565.74,352.122 1570.63,346.164 1575.52,340.294 1580.41,334.594 1585.3,329.956 1590.19,325.839 1595.07,321.763 1599.96,317.722 1604.85,314.285 1609.74,311.18 
  1614.63,308.017 1619.52,304.811 1624.41,301.576 1629.3,298.319 1634.19,295.048 1639.08,291.766 1643.97,288.479 1648.86,285.189 1653.75,281.899 1658.63,278.611 
  1663.52,275.327 1668.41,272.048 1673.3,268.775 1678.19,265.51 1683.08,262.253 1687.97,259.005 1692.86,255.767 1697.75,252.54 1702.64,249.323 1707.53,246.119 
  1712.42,242.927 1717.3,239.747 1722.19,236.58 1727.08,234.29 1731.97,232.787 1736.86,231.172 1741.75,229.478 1746.64,228.094 1751.53,226.666 1756.42,225.198 
  1761.31,223.692 1766.2,222.147 1771.09,220.562 1775.98,218.935 1780.86,217.259 1785.75,215.525 1790.64,213.722 1795.53,212.066 1800.42,210.704 1805.31,209.866 
  1810.2,209.087 1815.09,208.33 1819.98,207.594 1824.87,206.881 1829.76,207.037 1834.65,208.365 1839.54,209.52 1844.42,210.505 1849.31,211.316 1854.2,211.939 
  1859.09,212.884 1863.98,214.327 1868.87,216.308 1873.76,219.619 1878.65,224.491 1883.54,228.911 1888.43,232.987 1893.32,236.789 1898.21,240.368 1903.1,243.759 
  1907.98,246.986 1912.87,250.064 1917.76,253.002 1922.65,255.804 1927.54,258.465 1932.43,260.978 1937.32,263.329 1942.21,265.495 1947.1,267.445 1951.99,269.631 
  1956.88,272.759 1961.77,275.827 1966.65,278.822 1971.54,281.731 1976.43,285.798 1981.32,290.278 1986.21,294.775 1991.1,299.289 1995.99,303.819 2000.88,308.367 
  2005.77,312.931 2010.66,317.511 2015.55,322.109 2020.44,326.723 2025.33,331.354 2030.21,336.001 2035.1,340.666 2039.99,346.403 2044.88,352.157 2049.77,357.92 
  2054.66,363.694 2059.55,369.479 2064.44,375.274 2069.33,381.081 2074.22,386.9 2079.11,392.733 2084,398.579 2088.89,404.44 2093.77,410.317 2098.66,416.212 
  2103.55,422.126 2108.44,428.063 2113.33,434.024 2118.22,440.014 2123.11,446.036 2128,452.097 2132.89,458.203 2137.78,464.365 2142.67,470.595 2147.56,476.912 
  2152.44,483.342 2157.33,489.924 2162.22,496.434 2167.11,502.994 2172,509.624 2176.89,516.347 2181.78,523.188 2186.67,530.19 2191.56,537.418 2196.45,544.977 
  2201.34,553.054 2206.23,561.762 2211.12,569.954 2216,578.673 2220.89,588.198 2225.78,598.01 2230.67,605.685 2235.56,613.365 2240.45,621.052 2245.34,628.747 
  2250.23,636.45 2255.12,644.163 2260.01,651.887 2264.9,659.623 2269.79,667.374 2274.68,675.142 2279.56,682.931 2284.45,690.744 2289.34,698.587 2294.23,706.466 
  
  "/>
</svg>
