<?xml version="1.0" encoding="utf-8"?>
<svg xmlns="http://www.w3.org/2000/svg" xmlns:xlink="http://www.w3.org/1999/xlink" width="600" height="400" viewBox="0 0 2400 1600">
<defs>
  <clipPath id="clip620">
    <rect x="0" y="0" width="2400" height="1600"/>
  </clipPath>
</defs>
<path clip-path="url(#clip620)" d="
M0 1600 L2400 1600 L2400 0 L0 0  Z
  " fill="#ffffff" fill-rule="evenodd" fill-opacity="1"/>
<defs>
  <clipPath id="clip621">
    <rect x="480" y="0" width="1681" height="1600"/>
  </clipPath>
</defs>
<path clip-path="url(#clip620)" d="
M206.992 1401.01 L1152.76 1401.01 L1152.76 62.9921 L206.992 62.9921  Z
  " fill="#ffffff" fill-rule="evenodd" fill-opacity="1"/>
<defs>
  <clipPath id="clip622">
    <rect x="206" y="62" width="947" height="1339"/>
  </clipPath>
</defs>
<polyline clip-path="url(#clip622)" style="stroke:#000000; stroke-width:2; stroke-opacity:0.1; fill:none" points="
  363.838,1401.01 363.838,62.9921 
  "/>
<polyline clip-path="url(#clip622)" style="stroke:#000000; stroke-width:2; stroke-opacity:0.1; fill:none" points="
  523.634,1401.01 523.634,62.9921 
  "/>
<polyline clip-path="url(#clip622)" style="stroke:#000000; stroke-width:2; stroke-opacity:0.1; fill:none" points="
  683.431,1401.01 683.431,62.9921 
  "/>
<polyline clip-path="url(#clip622)" style="stroke:#000000; stroke-width:2; stroke-opacity:0.1; fill:none" points="
  843.227,1401.01 843.227,62.9921 
  "/>
<polyline clip-path="url(#clip622)" style="stroke:#000000; stroke-width:2; stroke-opacity:0.1; fill:none" points="
  1003.02,1401.01 1003.02,62.9921 
  "/>
<polyline clip-path="url(#clip620)" style="stroke:#000000; stroke-width:4; stroke-opacity:1; fill:none" points="
  206.992,1401.01 1152.76,1401.01 
  "/>
<polyline clip-path="url(#clip620)" style="stroke:#000000; stroke-width:4; stroke-opacity:1; fill:none" points="
  363.838,1401.01 363.838,1384.95 
  "/>
<polyline clip-path="url(#clip620)" style="stroke:#000000; stroke-width:4; stroke-opacity:1; fill:none" points="
  523.634,1401.01 523.634,1384.95 
  "/>
<polyline clip-path="url(#clip620)" style="stroke:#000000; stroke-width:4; stroke-opacity:1; fill:none" points="
  683.431,1401.01 683.431,1384.95 
  "/>
<polyline clip-path="url(#clip620)" style="stroke:#000000; stroke-width:4; stroke-opacity:1; fill:none" points="
  843.227,1401.01 843.227,1384.95 
  "/>
<polyline clip-path="url(#clip620)" style="stroke:#000000; stroke-width:4; stroke-opacity:1; fill:none" points="
  1003.02,1401.01 1003.02,1384.95 
  "/>
<g clip-path="url(#clip620)">
<text style="fill:#000000; fill-opacity:1; font-family:Arial,Helvetica Neue,Helvetica,sans-serif; font-size:48px; text-anchor:middle;" transform="rotate(0, 363.838, 1462.21)" x="363.838" y="1462.21">−2</text>
</g>
<g clip-path="url(#clip620)">
<text style="fill:#000000; fill-opacity:1; font-family:Arial,Helvetica Neue,Helvetica,sans-serif; font-size:48px; text-anchor:middle;" transform="rotate(0, 523.634, 1462.21)" x="523.634" y="1462.21">−1</text>
</g>
<g clip-path="url(#clip620)">
<text style="fill:#000000; fill-opacity:1; font-family:Arial,Helvetica Neue,Helvetica,sans-serif; font-size:48px; text-anchor:middle;" transform="rotate(0, 683.431, 1462.21)" x="683.431" y="1462.21">0</text>
</g>
<g clip-path="url(#clip620)">
<text style="fill:#000000; fill-opacity:1; font-family:Arial,Helvetica Neue,Helvetica,sans-serif; font-size:48px; text-anchor:middle;" transform="rotate(0, 843.227, 1462.21)" x="843.227" y="1462.21">1</text>
</g>
<g clip-path="url(#clip620)">
<text style="fill:#000000; fill-opacity:1; font-family:Arial,Helvetica Neue,Helvetica,sans-serif; font-size:48px; text-anchor:middle;" transform="rotate(0, 1003.02, 1462.21)" x="1003.02" y="1462.21">2</text>
</g>
<g clip-path="url(#clip620)">
<text style="fill:#000000; fill-opacity:1; font-family:Arial,Helvetica Neue,Helvetica,sans-serif; font-size:66px; text-anchor:middle;" transform="rotate(0, 679.874, 1534.87)" x="679.874" y="1534.87">x</text>
</g>
<polyline clip-path="url(#clip622)" style="stroke:#000000; stroke-width:2; stroke-opacity:0.1; fill:none" points="
  206.992,1153.15 1152.76,1153.15 
  "/>
<polyline clip-path="url(#clip622)" style="stroke:#000000; stroke-width:2; stroke-opacity:0.1; fill:none" points="
  206.992,828.63 1152.76,828.63 
  "/>
<polyline clip-path="url(#clip622)" style="stroke:#000000; stroke-width:2; stroke-opacity:0.1; fill:none" points="
  206.992,504.109 1152.76,504.109 
  "/>
<polyline clip-path="url(#clip622)" style="stroke:#000000; stroke-width:2; stroke-opacity:0.1; fill:none" points="
  206.992,179.589 1152.76,179.589 
  "/>
<polyline clip-path="url(#clip620)" style="stroke:#000000; stroke-width:4; stroke-opacity:1; fill:none" points="
  206.992,1401.01 206.992,62.9921 
  "/>
<polyline clip-path="url(#clip620)" style="stroke:#000000; stroke-width:4; stroke-opacity:1; fill:none" points="
  206.992,1153.15 218.341,1153.15 
  "/>
<polyline clip-path="url(#clip620)" style="stroke:#000000; stroke-width:4; stroke-opacity:1; fill:none" points="
  206.992,828.63 218.341,828.63 
  "/>
<polyline clip-path="url(#clip620)" style="stroke:#000000; stroke-width:4; stroke-opacity:1; fill:none" points="
  206.992,504.109 218.341,504.109 
  "/>
<polyline clip-path="url(#clip620)" style="stroke:#000000; stroke-width:4; stroke-opacity:1; fill:none" points="
  206.992,179.589 218.341,179.589 
  "/>
<g clip-path="url(#clip620)">
<text style="fill:#000000; fill-opacity:1; font-family:Arial,Helvetica Neue,Helvetica,sans-serif; font-size:48px; text-anchor:end;" transform="rotate(0, 170.992, 1170.65)" x="170.992" y="1170.65">−1.5</text>
</g>
<g clip-path="url(#clip620)">
<text style="fill:#000000; fill-opacity:1; font-family:Arial,Helvetica Neue,Helvetica,sans-serif; font-size:48px; text-anchor:end;" transform="rotate(0, 170.992, 846.13)" x="170.992" y="846.13">−1.0</text>
</g>
<g clip-path="url(#clip620)">
<text style="fill:#000000; fill-opacity:1; font-family:Arial,Helvetica Neue,Helvetica,sans-serif; font-size:48px; text-anchor:end;" transform="rotate(0, 170.992, 521.609)" x="170.992" y="521.609">−0.5</text>
</g>
<g clip-path="url(#clip620)">
<text style="fill:#000000; fill-opacity:1; font-family:Arial,Helvetica Neue,Helvetica,sans-serif; font-size:48px; text-anchor:end;" transform="rotate(0, 170.992, 197.089)" x="170.992" y="197.089">0.0</text>
</g>
<g clip-path="url(#clip620)">
<text style="fill:#000000; fill-opacity:1; font-family:Arial,Helvetica Neue,Helvetica,sans-serif; font-size:66px; text-anchor:middle;" transform="rotate(-90, 53.7618, 732)" x="53.7618" y="732">f(x)</text>
</g>
<g clip-path="url(#clip620)">
<text style="fill:#000000; fill-opacity:1; font-family:Arial,Helvetica Neue,Helvetica,sans-serif; font-size:84px; text-anchor:middle;" transform="rotate(0, 679.874, 73.2)" x="679.874" y="73.2">多項式回帰(3次)</text>
</g>
<polyline clip-path="url(#clip622)" style="stroke:#009af9; stroke-width:4; stroke-opacity:1; fill:none" points="
  233.759,798.149 290.725,1110.54 345.741,1289 391.489,1357.47 438.429,1363.14 451.138,1354.77 458.346,1348.31 463.614,1342.84 468.265,1337.48 474.571,1329.47 
  495.922,1296.2 578.462,1094.36 629.783,928.234 647.132,868.074 656.339,835.648 739.323,541.901 766.08,452.521 769.799,440.52 798.146,353.353 801.396,343.905 
  846.64,226.915 858.09,202.265 890.12,146.029 952.96,100.86 977.542,111.017 987.315,119.954 1050.32,251.998 1103.28,475.779 1125.72,605.612 1125.99,607.298 
  
  "/>
<path clip-path="url(#clip620)" d="
M1406.99 1401.01 L2352.76 1401.01 L2352.76 62.9921 L1406.99 62.9921  Z
  " fill="#ffffff" fill-rule="evenodd" fill-opacity="1"/>
<defs>
  <clipPath id="clip623">
    <rect x="1406" y="62" width="947" height="1339"/>
  </clipPath>
</defs>
<polyline clip-path="url(#clip623)" style="stroke:#000000; stroke-width:2; stroke-opacity:0.1; fill:none" points="
  1563.84,1401.01 1563.84,62.9921 
  "/>
<polyline clip-path="url(#clip623)" style="stroke:#000000; stroke-width:2; stroke-opacity:0.1; fill:none" points="
  1723.63,1401.01 1723.63,62.9921 
  "/>
<polyline clip-path="url(#clip623)" style="stroke:#000000; stroke-width:2; stroke-opacity:0.1; fill:none" points="
  1883.43,1401.01 1883.43,62.9921 
  "/>
<polyline clip-path="url(#clip623)" style="stroke:#000000; stroke-width:2; stroke-opacity:0.1; fill:none" points="
  2043.23,1401.01 2043.23,62.9921 
  "/>
<polyline clip-path="url(#clip623)" style="stroke:#000000; stroke-width:2; stroke-opacity:0.1; fill:none" points="
  2203.02,1401.01 2203.02,62.9921 
  "/>
<polyline clip-path="url(#clip620)" style="stroke:#000000; stroke-width:4; stroke-opacity:1; fill:none" points="
  1406.99,1401.01 2352.76,1401.01 
  "/>
<polyline clip-path="url(#clip620)" style="stroke:#000000; stroke-width:4; stroke-opacity:1; fill:none" points="
  1563.84,1401.01 1563.84,1384.95 
  "/>
<polyline clip-path="url(#clip620)" style="stroke:#000000; stroke-width:4; stroke-opacity:1; fill:none" points="
  1723.63,1401.01 1723.63,1384.95 
  "/>
<polyline clip-path="url(#clip620)" style="stroke:#000000; stroke-width:4; stroke-opacity:1; fill:none" points="
  1883.43,1401.01 1883.43,1384.95 
  "/>
<polyline clip-path="url(#clip620)" style="stroke:#000000; stroke-width:4; stroke-opacity:1; fill:none" points="
  2043.23,1401.01 2043.23,1384.95 
  "/>
<polyline clip-path="url(#clip620)" style="stroke:#000000; stroke-width:4; stroke-opacity:1; fill:none" points="
  2203.02,1401.01 2203.02,1384.95 
  "/>
<g clip-path="url(#clip620)">
<text style="fill:#000000; fill-opacity:1; font-family:Arial,Helvetica Neue,Helvetica,sans-serif; font-size:48px; text-anchor:middle;" transform="rotate(0, 1563.84, 1462.21)" x="1563.84" y="1462.21">−2</text>
</g>
<g clip-path="url(#clip620)">
<text style="fill:#000000; fill-opacity:1; font-family:Arial,Helvetica Neue,Helvetica,sans-serif; font-size:48px; text-anchor:middle;" transform="rotate(0, 1723.63, 1462.21)" x="1723.63" y="1462.21">−1</text>
</g>
<g clip-path="url(#clip620)">
<text style="fill:#000000; fill-opacity:1; font-family:Arial,Helvetica Neue,Helvetica,sans-serif; font-size:48px; text-anchor:middle;" transform="rotate(0, 1883.43, 1462.21)" x="1883.43" y="1462.21">0</text>
</g>
<g clip-path="url(#clip620)">
<text style="fill:#000000; fill-opacity:1; font-family:Arial,Helvetica Neue,Helvetica,sans-serif; font-size:48px; text-anchor:middle;" transform="rotate(0, 2043.23, 1462.21)" x="2043.23" y="1462.21">1</text>
</g>
<g clip-path="url(#clip620)">
<text style="fill:#000000; fill-opacity:1; font-family:Arial,Helvetica Neue,Helvetica,sans-serif; font-size:48px; text-anchor:middle;" transform="rotate(0, 2203.02, 1462.21)" x="2203.02" y="1462.21">2</text>
</g>
<g clip-path="url(#clip620)">
<text style="fill:#000000; fill-opacity:1; font-family:Arial,Helvetica Neue,Helvetica,sans-serif; font-size:66px; text-anchor:middle;" transform="rotate(0, 1879.87, 1534.87)" x="1879.87" y="1534.87">x</text>
</g>
<polyline clip-path="url(#clip623)" style="stroke:#000000; stroke-width:2; stroke-opacity:0.1; fill:none" points="
  1406.99,1283.98 2352.76,1283.98 
  "/>
<polyline clip-path="url(#clip623)" style="stroke:#000000; stroke-width:2; stroke-opacity:0.1; fill:none" points="
  1406.99,929.677 2352.76,929.677 
  "/>
<polyline clip-path="url(#clip623)" style="stroke:#000000; stroke-width:2; stroke-opacity:0.1; fill:none" points="
  1406.99,575.377 2352.76,575.377 
  "/>
<polyline clip-path="url(#clip623)" style="stroke:#000000; stroke-width:2; stroke-opacity:0.1; fill:none" points="
  1406.99,221.077 2352.76,221.077 
  "/>
<polyline clip-path="url(#clip620)" style="stroke:#000000; stroke-width:4; stroke-opacity:1; fill:none" points="
  1406.99,1401.01 1406.99,62.9921 
  "/>
<polyline clip-path="url(#clip620)" style="stroke:#000000; stroke-width:4; stroke-opacity:1; fill:none" points="
  1406.99,1283.98 1418.34,1283.98 
  "/>
<polyline clip-path="url(#clip620)" style="stroke:#000000; stroke-width:4; stroke-opacity:1; fill:none" points="
  1406.99,929.677 1418.34,929.677 
  "/>
<polyline clip-path="url(#clip620)" style="stroke:#000000; stroke-width:4; stroke-opacity:1; fill:none" points="
  1406.99,575.377 1418.34,575.377 
  "/>
<polyline clip-path="url(#clip620)" style="stroke:#000000; stroke-width:4; stroke-opacity:1; fill:none" points="
  1406.99,221.077 1418.34,221.077 
  "/>
<g clip-path="url(#clip620)">
<text style="fill:#000000; fill-opacity:1; font-family:Arial,Helvetica Neue,Helvetica,sans-serif; font-size:48px; text-anchor:end;" transform="rotate(0, 1370.99, 1301.48)" x="1370.99" y="1301.48">−0.2</text>
</g>
<g clip-path="url(#clip620)">
<text style="fill:#000000; fill-opacity:1; font-family:Arial,Helvetica Neue,Helvetica,sans-serif; font-size:48px; text-anchor:end;" transform="rotate(0, 1370.99, 947.177)" x="1370.99" y="947.177">−0.1</text>
</g>
<g clip-path="url(#clip620)">
<text style="fill:#000000; fill-opacity:1; font-family:Arial,Helvetica Neue,Helvetica,sans-serif; font-size:48px; text-anchor:end;" transform="rotate(0, 1370.99, 592.877)" x="1370.99" y="592.877">0.0</text>
</g>
<g clip-path="url(#clip620)">
<text style="fill:#000000; fill-opacity:1; font-family:Arial,Helvetica Neue,Helvetica,sans-serif; font-size:48px; text-anchor:end;" transform="rotate(0, 1370.99, 238.577)" x="1370.99" y="238.577">0.1</text>
</g>
<g clip-path="url(#clip620)">
<text style="fill:#000000; fill-opacity:1; font-family:Arial,Helvetica Neue,Helvetica,sans-serif; font-size:66px; text-anchor:middle;" transform="rotate(-90, 1253.76, 732)" x="1253.76" y="732">f(x)</text>
</g>
<g clip-path="url(#clip620)">
<text style="fill:#000000; fill-opacity:1; font-family:Arial,Helvetica Neue,Helvetica,sans-serif; font-size:84px; text-anchor:middle;" transform="rotate(0, 1879.87, 73.2)" x="1879.87" y="73.2">局所線形回帰</text>
</g>
<polyline clip-path="url(#clip623)" style="stroke:#009af9; stroke-width:4; stroke-opacity:1; fill:none" points="
  1433.76,1363.14 1490.73,994.724 1545.74,851.932 1591.49,741.776 1638.43,754.41 1651.14,762.536 1658.35,770.337 1663.61,775.81 1668.26,780.487 1674.57,784.058 
  1695.92,786.213 1778.46,756.933 1829.78,710.843 1847.13,686.791 1856.34,672.956 1939.32,508.053 1966.08,466.214 1969.8,460.533 1998.15,422.012 2001.4,419.495 
  2046.64,439.729 2058.09,450.889 2090.12,482.965 2152.96,539.504 2177.54,513.464 2187.31,499.055 2250.32,404.698 2303.28,213.749 2325.72,102.455 2325.99,100.86 
  
  "/>
</svg>
