<?xml version="1.0" encoding="utf-8"?>
<svg xmlns="http://www.w3.org/2000/svg" xmlns:xlink="http://www.w3.org/1999/xlink" width="600" height="400" viewBox="0 0 2400 1600">
<defs>
  <clipPath id="clip500">
    <rect x="0" y="0" width="2400" height="1600"/>
  </clipPath>
</defs>
<path clip-path="url(#clip500)" d="
M0 1600 L2400 1600 L2400 0 L0 0  Z
  " fill="#ffffff" fill-rule="evenodd" fill-opacity="1"/>
<defs>
  <clipPath id="clip501">
    <rect x="480" y="0" width="1681" height="1600"/>
  </clipPath>
</defs>
<path clip-path="url(#clip500)" d="
M191.244 1416.76 L2352.76 1416.76 L2352.76 47.2441 L191.244 47.2441  Z
  " fill="#ffffff" fill-rule="evenodd" fill-opacity="1"/>
<defs>
  <clipPath id="clip502">
    <rect x="191" y="47" width="2163" height="1371"/>
  </clipPath>
</defs>
<polyline clip-path="url(#clip502)" style="stroke:#000000; stroke-width:2; stroke-opacity:0.1; fill:none" points="
  507.314,1416.76 507.314,47.2441 
  "/>
<polyline clip-path="url(#clip502)" style="stroke:#000000; stroke-width:2; stroke-opacity:0.1; fill:none" points="
  889.657,1416.76 889.657,47.2441 
  "/>
<polyline clip-path="url(#clip502)" style="stroke:#000000; stroke-width:2; stroke-opacity:0.1; fill:none" points="
  1272,1416.76 1272,47.2441 
  "/>
<polyline clip-path="url(#clip502)" style="stroke:#000000; stroke-width:2; stroke-opacity:0.1; fill:none" points="
  1654.34,1416.76 1654.34,47.2441 
  "/>
<polyline clip-path="url(#clip502)" style="stroke:#000000; stroke-width:2; stroke-opacity:0.1; fill:none" points="
  2036.69,1416.76 2036.69,47.2441 
  "/>
<polyline clip-path="url(#clip500)" style="stroke:#000000; stroke-width:4; stroke-opacity:1; fill:none" points="
  191.244,1416.76 2352.76,1416.76 
  "/>
<polyline clip-path="url(#clip500)" style="stroke:#000000; stroke-width:4; stroke-opacity:1; fill:none" points="
  507.314,1416.76 507.314,1400.32 
  "/>
<polyline clip-path="url(#clip500)" style="stroke:#000000; stroke-width:4; stroke-opacity:1; fill:none" points="
  889.657,1416.76 889.657,1400.32 
  "/>
<polyline clip-path="url(#clip500)" style="stroke:#000000; stroke-width:4; stroke-opacity:1; fill:none" points="
  1272,1416.76 1272,1400.32 
  "/>
<polyline clip-path="url(#clip500)" style="stroke:#000000; stroke-width:4; stroke-opacity:1; fill:none" points="
  1654.34,1416.76 1654.34,1400.32 
  "/>
<polyline clip-path="url(#clip500)" style="stroke:#000000; stroke-width:4; stroke-opacity:1; fill:none" points="
  2036.69,1416.76 2036.69,1400.32 
  "/>
<g clip-path="url(#clip500)">
<text style="fill:#000000; fill-opacity:1; font-family:Arial,Helvetica Neue,Helvetica,sans-serif; font-size:48px; text-anchor:middle;" transform="rotate(0, 507.314, 1477.96)" x="507.314" y="1477.96">−6</text>
</g>
<g clip-path="url(#clip500)">
<text style="fill:#000000; fill-opacity:1; font-family:Arial,Helvetica Neue,Helvetica,sans-serif; font-size:48px; text-anchor:middle;" transform="rotate(0, 889.657, 1477.96)" x="889.657" y="1477.96">−3</text>
</g>
<g clip-path="url(#clip500)">
<text style="fill:#000000; fill-opacity:1; font-family:Arial,Helvetica Neue,Helvetica,sans-serif; font-size:48px; text-anchor:middle;" transform="rotate(0, 1272, 1477.96)" x="1272" y="1477.96">0</text>
</g>
<g clip-path="url(#clip500)">
<text style="fill:#000000; fill-opacity:1; font-family:Arial,Helvetica Neue,Helvetica,sans-serif; font-size:48px; text-anchor:middle;" transform="rotate(0, 1654.34, 1477.96)" x="1654.34" y="1477.96">3</text>
</g>
<g clip-path="url(#clip500)">
<text style="fill:#000000; fill-opacity:1; font-family:Arial,Helvetica Neue,Helvetica,sans-serif; font-size:48px; text-anchor:middle;" transform="rotate(0, 2036.69, 1477.96)" x="2036.69" y="1477.96">6</text>
</g>
<polyline clip-path="url(#clip502)" style="stroke:#000000; stroke-width:2; stroke-opacity:0.1; fill:none" points="
  191.244,1249.98 2352.76,1249.98 
  "/>
<polyline clip-path="url(#clip502)" style="stroke:#000000; stroke-width:2; stroke-opacity:0.1; fill:none" points="
  191.244,1077.33 2352.76,1077.33 
  "/>
<polyline clip-path="url(#clip502)" style="stroke:#000000; stroke-width:2; stroke-opacity:0.1; fill:none" points="
  191.244,904.684 2352.76,904.684 
  "/>
<polyline clip-path="url(#clip502)" style="stroke:#000000; stroke-width:2; stroke-opacity:0.1; fill:none" points="
  191.244,732.034 2352.76,732.034 
  "/>
<polyline clip-path="url(#clip502)" style="stroke:#000000; stroke-width:2; stroke-opacity:0.1; fill:none" points="
  191.244,559.385 2352.76,559.385 
  "/>
<polyline clip-path="url(#clip502)" style="stroke:#000000; stroke-width:2; stroke-opacity:0.1; fill:none" points="
  191.244,386.735 2352.76,386.735 
  "/>
<polyline clip-path="url(#clip502)" style="stroke:#000000; stroke-width:2; stroke-opacity:0.1; fill:none" points="
  191.244,214.086 2352.76,214.086 
  "/>
<polyline clip-path="url(#clip500)" style="stroke:#000000; stroke-width:4; stroke-opacity:1; fill:none" points="
  191.244,1416.76 191.244,47.2441 
  "/>
<polyline clip-path="url(#clip500)" style="stroke:#000000; stroke-width:4; stroke-opacity:1; fill:none" points="
  191.244,1249.98 217.182,1249.98 
  "/>
<polyline clip-path="url(#clip500)" style="stroke:#000000; stroke-width:4; stroke-opacity:1; fill:none" points="
  191.244,1077.33 217.182,1077.33 
  "/>
<polyline clip-path="url(#clip500)" style="stroke:#000000; stroke-width:4; stroke-opacity:1; fill:none" points="
  191.244,904.684 217.182,904.684 
  "/>
<polyline clip-path="url(#clip500)" style="stroke:#000000; stroke-width:4; stroke-opacity:1; fill:none" points="
  191.244,732.034 217.182,732.034 
  "/>
<polyline clip-path="url(#clip500)" style="stroke:#000000; stroke-width:4; stroke-opacity:1; fill:none" points="
  191.244,559.385 217.182,559.385 
  "/>
<polyline clip-path="url(#clip500)" style="stroke:#000000; stroke-width:4; stroke-opacity:1; fill:none" points="
  191.244,386.735 217.182,386.735 
  "/>
<polyline clip-path="url(#clip500)" style="stroke:#000000; stroke-width:4; stroke-opacity:1; fill:none" points="
  191.244,214.086 217.182,214.086 
  "/>
<g clip-path="url(#clip500)">
<text style="fill:#000000; fill-opacity:1; font-family:Arial,Helvetica Neue,Helvetica,sans-serif; font-size:48px; text-anchor:end;" transform="rotate(0, 155.244, 1267.48)" x="155.244" y="1267.48">−6</text>
</g>
<g clip-path="url(#clip500)">
<text style="fill:#000000; fill-opacity:1; font-family:Arial,Helvetica Neue,Helvetica,sans-serif; font-size:48px; text-anchor:end;" transform="rotate(0, 155.244, 1094.83)" x="155.244" y="1094.83">−4</text>
</g>
<g clip-path="url(#clip500)">
<text style="fill:#000000; fill-opacity:1; font-family:Arial,Helvetica Neue,Helvetica,sans-serif; font-size:48px; text-anchor:end;" transform="rotate(0, 155.244, 922.184)" x="155.244" y="922.184">−2</text>
</g>
<g clip-path="url(#clip500)">
<text style="fill:#000000; fill-opacity:1; font-family:Arial,Helvetica Neue,Helvetica,sans-serif; font-size:48px; text-anchor:end;" transform="rotate(0, 155.244, 749.534)" x="155.244" y="749.534">0</text>
</g>
<g clip-path="url(#clip500)">
<text style="fill:#000000; fill-opacity:1; font-family:Arial,Helvetica Neue,Helvetica,sans-serif; font-size:48px; text-anchor:end;" transform="rotate(0, 155.244, 576.885)" x="155.244" y="576.885">2</text>
</g>
<g clip-path="url(#clip500)">
<text style="fill:#000000; fill-opacity:1; font-family:Arial,Helvetica Neue,Helvetica,sans-serif; font-size:48px; text-anchor:end;" transform="rotate(0, 155.244, 404.235)" x="155.244" y="404.235">4</text>
</g>
<g clip-path="url(#clip500)">
<text style="fill:#000000; fill-opacity:1; font-family:Arial,Helvetica Neue,Helvetica,sans-serif; font-size:48px; text-anchor:end;" transform="rotate(0, 155.244, 231.586)" x="155.244" y="231.586">6</text>
</g>
<circle clip-path="url(#clip502)" cx="654.432" cy="849.375" r="14" fill="#009af9" fill-rule="evenodd" fill-opacity="1" stroke="#000000" stroke-opacity="1" stroke-width="3.2"/>
<circle clip-path="url(#clip502)" cx="687.235" cy="865.383" r="14" fill="#009af9" fill-rule="evenodd" fill-opacity="1" stroke="#000000" stroke-opacity="1" stroke-width="3.2"/>
<circle clip-path="url(#clip502)" cx="704.593" cy="949.766" r="14" fill="#009af9" fill-rule="evenodd" fill-opacity="1" stroke="#000000" stroke-opacity="1" stroke-width="3.2"/>
<circle clip-path="url(#clip502)" cx="708.453" cy="1033.18" r="14" fill="#009af9" fill-rule="evenodd" fill-opacity="1" stroke="#000000" stroke-opacity="1" stroke-width="3.2"/>
<circle clip-path="url(#clip502)" cx="761.089" cy="895.863" r="14" fill="#009af9" fill-rule="evenodd" fill-opacity="1" stroke="#000000" stroke-opacity="1" stroke-width="3.2"/>
<circle clip-path="url(#clip502)" cx="762.12" cy="1005.58" r="14" fill="#009af9" fill-rule="evenodd" fill-opacity="1" stroke="#000000" stroke-opacity="1" stroke-width="3.2"/>
<circle clip-path="url(#clip502)" cx="763.494" cy="787.449" r="14" fill="#009af9" fill-rule="evenodd" fill-opacity="1" stroke="#000000" stroke-opacity="1" stroke-width="3.2"/>
<circle clip-path="url(#clip502)" cx="789.565" cy="868.976" r="14" fill="#009af9" fill-rule="evenodd" fill-opacity="1" stroke="#000000" stroke-opacity="1" stroke-width="3.2"/>
<circle clip-path="url(#clip502)" cx="832.449" cy="876.559" r="14" fill="#009af9" fill-rule="evenodd" fill-opacity="1" stroke="#000000" stroke-opacity="1" stroke-width="3.2"/>
<circle clip-path="url(#clip502)" cx="844.597" cy="1179.43" r="14" fill="#009af9" fill-rule="evenodd" fill-opacity="1" stroke="#000000" stroke-opacity="1" stroke-width="3.2"/>
<circle clip-path="url(#clip502)" cx="874.041" cy="1198.66" r="14" fill="#009af9" fill-rule="evenodd" fill-opacity="1" stroke="#000000" stroke-opacity="1" stroke-width="3.2"/>
<circle clip-path="url(#clip502)" cx="885.148" cy="913.834" r="14" fill="#009af9" fill-rule="evenodd" fill-opacity="1" stroke="#000000" stroke-opacity="1" stroke-width="3.2"/>
<circle clip-path="url(#clip502)" cx="902.534" cy="926.549" r="14" fill="#009af9" fill-rule="evenodd" fill-opacity="1" stroke="#000000" stroke-opacity="1" stroke-width="3.2"/>
<circle clip-path="url(#clip502)" cx="924.941" cy="1097.65" r="14" fill="#009af9" fill-rule="evenodd" fill-opacity="1" stroke="#000000" stroke-opacity="1" stroke-width="3.2"/>
<circle clip-path="url(#clip502)" cx="925.149" cy="992.634" r="14" fill="#009af9" fill-rule="evenodd" fill-opacity="1" stroke="#000000" stroke-opacity="1" stroke-width="3.2"/>
<circle clip-path="url(#clip502)" cx="944.901" cy="1022.1" r="14" fill="#009af9" fill-rule="evenodd" fill-opacity="1" stroke="#000000" stroke-opacity="1" stroke-width="3.2"/>
<circle clip-path="url(#clip502)" cx="945.88" cy="979.569" r="14" fill="#009af9" fill-rule="evenodd" fill-opacity="1" stroke="#000000" stroke-opacity="1" stroke-width="3.2"/>
<circle clip-path="url(#clip502)" cx="946.338" cy="1071.59" r="14" fill="#009af9" fill-rule="evenodd" fill-opacity="1" stroke="#000000" stroke-opacity="1" stroke-width="3.2"/>
<circle clip-path="url(#clip502)" cx="953.824" cy="1108.35" r="14" fill="#009af9" fill-rule="evenodd" fill-opacity="1" stroke="#000000" stroke-opacity="1" stroke-width="3.2"/>
<circle clip-path="url(#clip502)" cx="982.671" cy="986.926" r="14" fill="#009af9" fill-rule="evenodd" fill-opacity="1" stroke="#000000" stroke-opacity="1" stroke-width="3.2"/>
<circle clip-path="url(#clip502)" cx="1016.54" cy="1026.57" r="14" fill="#009af9" fill-rule="evenodd" fill-opacity="1" stroke="#000000" stroke-opacity="1" stroke-width="3.2"/>
<circle clip-path="url(#clip502)" cx="1022.52" cy="991.317" r="14" fill="#009af9" fill-rule="evenodd" fill-opacity="1" stroke="#000000" stroke-opacity="1" stroke-width="3.2"/>
<circle clip-path="url(#clip502)" cx="1037.48" cy="1016.33" r="14" fill="#009af9" fill-rule="evenodd" fill-opacity="1" stroke="#000000" stroke-opacity="1" stroke-width="3.2"/>
<circle clip-path="url(#clip502)" cx="1065.25" cy="1131.79" r="14" fill="#009af9" fill-rule="evenodd" fill-opacity="1" stroke="#000000" stroke-opacity="1" stroke-width="3.2"/>
<circle clip-path="url(#clip502)" cx="1065.82" cy="1036.32" r="14" fill="#009af9" fill-rule="evenodd" fill-opacity="1" stroke="#000000" stroke-opacity="1" stroke-width="3.2"/>
<circle clip-path="url(#clip502)" cx="1080.28" cy="1026.04" r="14" fill="#009af9" fill-rule="evenodd" fill-opacity="1" stroke="#000000" stroke-opacity="1" stroke-width="3.2"/>
<circle clip-path="url(#clip502)" cx="1086.59" cy="1012.01" r="14" fill="#009af9" fill-rule="evenodd" fill-opacity="1" stroke="#000000" stroke-opacity="1" stroke-width="3.2"/>
<circle clip-path="url(#clip502)" cx="1104.56" cy="981.404" r="14" fill="#009af9" fill-rule="evenodd" fill-opacity="1" stroke="#000000" stroke-opacity="1" stroke-width="3.2"/>
<circle clip-path="url(#clip502)" cx="1105.47" cy="1080.69" r="14" fill="#009af9" fill-rule="evenodd" fill-opacity="1" stroke="#000000" stroke-opacity="1" stroke-width="3.2"/>
<circle clip-path="url(#clip502)" cx="1109.04" cy="983.791" r="14" fill="#009af9" fill-rule="evenodd" fill-opacity="1" stroke="#000000" stroke-opacity="1" stroke-width="3.2"/>
<circle clip-path="url(#clip502)" cx="1111.27" cy="940.096" r="14" fill="#009af9" fill-rule="evenodd" fill-opacity="1" stroke="#000000" stroke-opacity="1" stroke-width="3.2"/>
<circle clip-path="url(#clip502)" cx="1115.13" cy="1104.16" r="14" fill="#009af9" fill-rule="evenodd" fill-opacity="1" stroke="#000000" stroke-opacity="1" stroke-width="3.2"/>
<circle clip-path="url(#clip502)" cx="1123.28" cy="960.969" r="14" fill="#009af9" fill-rule="evenodd" fill-opacity="1" stroke="#000000" stroke-opacity="1" stroke-width="3.2"/>
<circle clip-path="url(#clip502)" cx="1131.1" cy="985.189" r="14" fill="#009af9" fill-rule="evenodd" fill-opacity="1" stroke="#000000" stroke-opacity="1" stroke-width="3.2"/>
<circle clip-path="url(#clip502)" cx="1150.47" cy="919.561" r="14" fill="#009af9" fill-rule="evenodd" fill-opacity="1" stroke="#000000" stroke-opacity="1" stroke-width="3.2"/>
<circle clip-path="url(#clip502)" cx="1150.58" cy="859.692" r="14" fill="#009af9" fill-rule="evenodd" fill-opacity="1" stroke="#000000" stroke-opacity="1" stroke-width="3.2"/>
<circle clip-path="url(#clip502)" cx="1154.38" cy="944.716" r="14" fill="#009af9" fill-rule="evenodd" fill-opacity="1" stroke="#000000" stroke-opacity="1" stroke-width="3.2"/>
<circle clip-path="url(#clip502)" cx="1154.96" cy="893.269" r="14" fill="#009af9" fill-rule="evenodd" fill-opacity="1" stroke="#000000" stroke-opacity="1" stroke-width="3.2"/>
<circle clip-path="url(#clip502)" cx="1155.2" cy="896.117" r="14" fill="#009af9" fill-rule="evenodd" fill-opacity="1" stroke="#000000" stroke-opacity="1" stroke-width="3.2"/>
<circle clip-path="url(#clip502)" cx="1160.42" cy="825.157" r="14" fill="#009af9" fill-rule="evenodd" fill-opacity="1" stroke="#000000" stroke-opacity="1" stroke-width="3.2"/>
<circle clip-path="url(#clip502)" cx="1165.28" cy="992.907" r="14" fill="#009af9" fill-rule="evenodd" fill-opacity="1" stroke="#000000" stroke-opacity="1" stroke-width="3.2"/>
<circle clip-path="url(#clip502)" cx="1178.21" cy="922.599" r="14" fill="#009af9" fill-rule="evenodd" fill-opacity="1" stroke="#000000" stroke-opacity="1" stroke-width="3.2"/>
<circle clip-path="url(#clip502)" cx="1193.86" cy="994.999" r="14" fill="#009af9" fill-rule="evenodd" fill-opacity="1" stroke="#000000" stroke-opacity="1" stroke-width="3.2"/>
<circle clip-path="url(#clip502)" cx="1204.16" cy="961.229" r="14" fill="#009af9" fill-rule="evenodd" fill-opacity="1" stroke="#000000" stroke-opacity="1" stroke-width="3.2"/>
<circle clip-path="url(#clip502)" cx="1243.25" cy="826.344" r="14" fill="#009af9" fill-rule="evenodd" fill-opacity="1" stroke="#000000" stroke-opacity="1" stroke-width="3.2"/>
<circle clip-path="url(#clip502)" cx="1247.81" cy="742.925" r="14" fill="#009af9" fill-rule="evenodd" fill-opacity="1" stroke="#000000" stroke-opacity="1" stroke-width="3.2"/>
<circle clip-path="url(#clip502)" cx="1265.88" cy="715.208" r="14" fill="#009af9" fill-rule="evenodd" fill-opacity="1" stroke="#000000" stroke-opacity="1" stroke-width="3.2"/>
<circle clip-path="url(#clip502)" cx="1272.77" cy="756.576" r="14" fill="#009af9" fill-rule="evenodd" fill-opacity="1" stroke="#000000" stroke-opacity="1" stroke-width="3.2"/>
<circle clip-path="url(#clip502)" cx="1290.11" cy="674.373" r="14" fill="#009af9" fill-rule="evenodd" fill-opacity="1" stroke="#000000" stroke-opacity="1" stroke-width="3.2"/>
<circle clip-path="url(#clip502)" cx="1292.33" cy="480.299" r="14" fill="#009af9" fill-rule="evenodd" fill-opacity="1" stroke="#000000" stroke-opacity="1" stroke-width="3.2"/>
<circle clip-path="url(#clip502)" cx="1301.29" cy="691.385" r="14" fill="#009af9" fill-rule="evenodd" fill-opacity="1" stroke="#000000" stroke-opacity="1" stroke-width="3.2"/>
<circle clip-path="url(#clip502)" cx="1304.97" cy="736.021" r="14" fill="#009af9" fill-rule="evenodd" fill-opacity="1" stroke="#000000" stroke-opacity="1" stroke-width="3.2"/>
<circle clip-path="url(#clip502)" cx="1311.6" cy="651.305" r="14" fill="#009af9" fill-rule="evenodd" fill-opacity="1" stroke="#000000" stroke-opacity="1" stroke-width="3.2"/>
<circle clip-path="url(#clip502)" cx="1336.01" cy="674.863" r="14" fill="#009af9" fill-rule="evenodd" fill-opacity="1" stroke="#000000" stroke-opacity="1" stroke-width="3.2"/>
<circle clip-path="url(#clip502)" cx="1338.03" cy="606.926" r="14" fill="#009af9" fill-rule="evenodd" fill-opacity="1" stroke="#000000" stroke-opacity="1" stroke-width="3.2"/>
<circle clip-path="url(#clip502)" cx="1338.32" cy="672.404" r="14" fill="#009af9" fill-rule="evenodd" fill-opacity="1" stroke="#000000" stroke-opacity="1" stroke-width="3.2"/>
<circle clip-path="url(#clip502)" cx="1339.3" cy="679.33" r="14" fill="#009af9" fill-rule="evenodd" fill-opacity="1" stroke="#000000" stroke-opacity="1" stroke-width="3.2"/>
<circle clip-path="url(#clip502)" cx="1343.1" cy="577.048" r="14" fill="#009af9" fill-rule="evenodd" fill-opacity="1" stroke="#000000" stroke-opacity="1" stroke-width="3.2"/>
<circle clip-path="url(#clip502)" cx="1352.41" cy="446.198" r="14" fill="#009af9" fill-rule="evenodd" fill-opacity="1" stroke="#000000" stroke-opacity="1" stroke-width="3.2"/>
<circle clip-path="url(#clip502)" cx="1362.86" cy="425.142" r="14" fill="#009af9" fill-rule="evenodd" fill-opacity="1" stroke="#000000" stroke-opacity="1" stroke-width="3.2"/>
<circle clip-path="url(#clip502)" cx="1368.61" cy="725.854" r="14" fill="#009af9" fill-rule="evenodd" fill-opacity="1" stroke="#000000" stroke-opacity="1" stroke-width="3.2"/>
<circle clip-path="url(#clip502)" cx="1377.55" cy="572.267" r="14" fill="#009af9" fill-rule="evenodd" fill-opacity="1" stroke="#000000" stroke-opacity="1" stroke-width="3.2"/>
<circle clip-path="url(#clip502)" cx="1385.63" cy="528.798" r="14" fill="#009af9" fill-rule="evenodd" fill-opacity="1" stroke="#000000" stroke-opacity="1" stroke-width="3.2"/>
<circle clip-path="url(#clip502)" cx="1387.44" cy="463.245" r="14" fill="#009af9" fill-rule="evenodd" fill-opacity="1" stroke="#000000" stroke-opacity="1" stroke-width="3.2"/>
<circle clip-path="url(#clip502)" cx="1389.35" cy="643.232" r="14" fill="#009af9" fill-rule="evenodd" fill-opacity="1" stroke="#000000" stroke-opacity="1" stroke-width="3.2"/>
<circle clip-path="url(#clip502)" cx="1397.71" cy="506.493" r="14" fill="#009af9" fill-rule="evenodd" fill-opacity="1" stroke="#000000" stroke-opacity="1" stroke-width="3.2"/>
<circle clip-path="url(#clip502)" cx="1414.94" cy="509.031" r="14" fill="#009af9" fill-rule="evenodd" fill-opacity="1" stroke="#000000" stroke-opacity="1" stroke-width="3.2"/>
<circle clip-path="url(#clip502)" cx="1418.25" cy="411.908" r="14" fill="#009af9" fill-rule="evenodd" fill-opacity="1" stroke="#000000" stroke-opacity="1" stroke-width="3.2"/>
<circle clip-path="url(#clip502)" cx="1435.42" cy="590.263" r="14" fill="#009af9" fill-rule="evenodd" fill-opacity="1" stroke="#000000" stroke-opacity="1" stroke-width="3.2"/>
<circle clip-path="url(#clip502)" cx="1443.87" cy="610.322" r="14" fill="#009af9" fill-rule="evenodd" fill-opacity="1" stroke="#000000" stroke-opacity="1" stroke-width="3.2"/>
<circle clip-path="url(#clip502)" cx="1490.03" cy="289.068" r="14" fill="#009af9" fill-rule="evenodd" fill-opacity="1" stroke="#000000" stroke-opacity="1" stroke-width="3.2"/>
<circle clip-path="url(#clip502)" cx="1495.08" cy="414.447" r="14" fill="#009af9" fill-rule="evenodd" fill-opacity="1" stroke="#000000" stroke-opacity="1" stroke-width="3.2"/>
<circle clip-path="url(#clip502)" cx="1512.31" cy="223.458" r="14" fill="#009af9" fill-rule="evenodd" fill-opacity="1" stroke="#000000" stroke-opacity="1" stroke-width="3.2"/>
<circle clip-path="url(#clip502)" cx="1521.22" cy="420.462" r="14" fill="#009af9" fill-rule="evenodd" fill-opacity="1" stroke="#000000" stroke-opacity="1" stroke-width="3.2"/>
<circle clip-path="url(#clip502)" cx="1521.22" cy="322.575" r="14" fill="#009af9" fill-rule="evenodd" fill-opacity="1" stroke="#000000" stroke-opacity="1" stroke-width="3.2"/>
<circle clip-path="url(#clip502)" cx="1528.46" cy="446.039" r="14" fill="#009af9" fill-rule="evenodd" fill-opacity="1" stroke="#000000" stroke-opacity="1" stroke-width="3.2"/>
<circle clip-path="url(#clip502)" cx="1533.61" cy="376.821" r="14" fill="#009af9" fill-rule="evenodd" fill-opacity="1" stroke="#000000" stroke-opacity="1" stroke-width="3.2"/>
<circle clip-path="url(#clip502)" cx="1547.08" cy="354.077" r="14" fill="#009af9" fill-rule="evenodd" fill-opacity="1" stroke="#000000" stroke-opacity="1" stroke-width="3.2"/>
<circle clip-path="url(#clip502)" cx="1573.33" cy="394.287" r="14" fill="#009af9" fill-rule="evenodd" fill-opacity="1" stroke="#000000" stroke-opacity="1" stroke-width="3.2"/>
<circle clip-path="url(#clip502)" cx="1603.58" cy="370.414" r="14" fill="#009af9" fill-rule="evenodd" fill-opacity="1" stroke="#000000" stroke-opacity="1" stroke-width="3.2"/>
<circle clip-path="url(#clip502)" cx="1617.56" cy="529.515" r="14" fill="#009af9" fill-rule="evenodd" fill-opacity="1" stroke="#000000" stroke-opacity="1" stroke-width="3.2"/>
<circle clip-path="url(#clip502)" cx="1634.51" cy="420.578" r="14" fill="#009af9" fill-rule="evenodd" fill-opacity="1" stroke="#000000" stroke-opacity="1" stroke-width="3.2"/>
<circle clip-path="url(#clip502)" cx="1639.4" cy="369.213" r="14" fill="#009af9" fill-rule="evenodd" fill-opacity="1" stroke="#000000" stroke-opacity="1" stroke-width="3.2"/>
<circle clip-path="url(#clip502)" cx="1643.37" cy="357.615" r="14" fill="#009af9" fill-rule="evenodd" fill-opacity="1" stroke="#000000" stroke-opacity="1" stroke-width="3.2"/>
<circle clip-path="url(#clip502)" cx="1644.81" cy="403.383" r="14" fill="#009af9" fill-rule="evenodd" fill-opacity="1" stroke="#000000" stroke-opacity="1" stroke-width="3.2"/>
<circle clip-path="url(#clip502)" cx="1672.54" cy="470.866" r="14" fill="#009af9" fill-rule="evenodd" fill-opacity="1" stroke="#000000" stroke-opacity="1" stroke-width="3.2"/>
<circle clip-path="url(#clip502)" cx="1675.44" cy="524.075" r="14" fill="#009af9" fill-rule="evenodd" fill-opacity="1" stroke="#000000" stroke-opacity="1" stroke-width="3.2"/>
<circle clip-path="url(#clip502)" cx="1685.36" cy="468.799" r="14" fill="#009af9" fill-rule="evenodd" fill-opacity="1" stroke="#000000" stroke-opacity="1" stroke-width="3.2"/>
<circle clip-path="url(#clip502)" cx="1713.08" cy="513.191" r="14" fill="#009af9" fill-rule="evenodd" fill-opacity="1" stroke="#000000" stroke-opacity="1" stroke-width="3.2"/>
<circle clip-path="url(#clip502)" cx="1715.63" cy="424.741" r="14" fill="#009af9" fill-rule="evenodd" fill-opacity="1" stroke="#000000" stroke-opacity="1" stroke-width="3.2"/>
<circle clip-path="url(#clip502)" cx="1731.25" cy="603.826" r="14" fill="#009af9" fill-rule="evenodd" fill-opacity="1" stroke="#000000" stroke-opacity="1" stroke-width="3.2"/>
<circle clip-path="url(#clip502)" cx="1755.32" cy="473.237" r="14" fill="#009af9" fill-rule="evenodd" fill-opacity="1" stroke="#000000" stroke-opacity="1" stroke-width="3.2"/>
<circle clip-path="url(#clip502)" cx="1770.84" cy="389.081" r="14" fill="#009af9" fill-rule="evenodd" fill-opacity="1" stroke="#000000" stroke-opacity="1" stroke-width="3.2"/>
<circle clip-path="url(#clip502)" cx="1774.47" cy="786.054" r="14" fill="#009af9" fill-rule="evenodd" fill-opacity="1" stroke="#000000" stroke-opacity="1" stroke-width="3.2"/>
<circle clip-path="url(#clip502)" cx="1791" cy="542.334" r="14" fill="#009af9" fill-rule="evenodd" fill-opacity="1" stroke="#000000" stroke-opacity="1" stroke-width="3.2"/>
<circle clip-path="url(#clip502)" cx="1826.19" cy="608.358" r="14" fill="#009af9" fill-rule="evenodd" fill-opacity="1" stroke="#000000" stroke-opacity="1" stroke-width="3.2"/>
<circle clip-path="url(#clip502)" cx="1826.72" cy="468.003" r="14" fill="#009af9" fill-rule="evenodd" fill-opacity="1" stroke="#000000" stroke-opacity="1" stroke-width="3.2"/>
<circle clip-path="url(#clip502)" cx="1860.26" cy="532.329" r="14" fill="#009af9" fill-rule="evenodd" fill-opacity="1" stroke="#000000" stroke-opacity="1" stroke-width="3.2"/>
<circle clip-path="url(#clip502)" cx="1869.67" cy="427.456" r="14" fill="#009af9" fill-rule="evenodd" fill-opacity="1" stroke="#000000" stroke-opacity="1" stroke-width="3.2"/>
<circle clip-path="url(#clip502)" cx="1886.76" cy="481.375" r="14" fill="#009af9" fill-rule="evenodd" fill-opacity="1" stroke="#000000" stroke-opacity="1" stroke-width="3.2"/>
<polyline clip-path="url(#clip502)" style="stroke:#e26f46; stroke-width:4; stroke-opacity:1; fill:none" points="
  252.419,1059.21 254.968,1059.02 257.517,1058.83 260.066,1058.64 262.615,1058.45 265.164,1058.26 267.713,1058.07 270.262,1057.87 272.811,1057.68 275.36,1057.49 
  277.908,1057.3 280.457,1057.11 283.006,1056.92 285.555,1056.73 288.104,1056.54 290.653,1056.35 293.202,1056.16 295.751,1055.97 298.3,1055.78 300.849,1055.58 
  303.398,1055.39 305.947,1055.2 308.496,1055.01 311.045,1054.82 313.594,1054.63 316.143,1054.44 318.692,1054.25 321.241,1054.06 323.79,1053.87 326.339,1053.68 
  328.888,1053.49 331.436,1053.29 333.985,1053.1 336.534,1052.91 339.083,1052.72 341.632,1052.53 344.181,1052.34 346.73,1052.15 349.279,1051.96 351.828,1051.77 
  354.377,1051.58 356.926,1051.39 359.475,1051.2 362.024,1051 364.573,1050.81 367.122,1050.62 369.671,1050.43 372.22,1050.24 374.769,1050.05 377.318,1049.86 
  379.867,1049.67 382.416,1049.48 384.964,1049.29 387.513,1049.1 390.062,1048.91 392.611,1048.72 395.16,1048.52 397.709,1048.33 400.258,1048.14 402.807,1047.95 
  405.356,1047.76 407.905,1047.57 410.454,1047.38 413.003,1047.19 415.552,1047 418.101,1046.81 420.65,1046.62 423.199,1046.43 425.748,1046.23 428.297,1046.04 
  430.846,1045.85 433.395,1045.66 435.944,1045.47 438.492,1045.28 441.041,1045.09 443.59,1044.9 446.139,1044.71 448.688,1044.52 451.237,1044.33 453.786,1044.14 
  456.335,1043.94 458.884,1043.75 461.433,1043.56 463.982,1043.37 466.531,1043.18 469.08,1042.99 471.629,1042.8 474.178,1042.61 476.727,1042.42 479.276,1042.23 
  481.825,1042.04 484.374,1041.85 486.923,1041.65 489.472,1041.46 492.021,1041.27 494.569,1041.08 497.118,1040.89 499.667,1040.7 502.216,1040.51 504.765,1040.32 
  507.314,1040.13 509.863,1039.94 512.412,1039.75 514.961,1039.56 517.51,1039.37 520.059,1039.17 522.608,1038.98 525.157,1038.79 527.706,1038.6 530.255,1038.41 
  532.804,1038.22 535.353,1038.03 537.902,1037.84 540.451,1037.65 543,1037.46 545.549,1037.27 548.097,1037.08 550.646,1036.88 553.195,1036.69 555.744,1036.5 
  558.293,1036.31 560.842,1036.12 563.391,1035.93 565.94,1035.74 568.489,1035.55 571.038,1035.36 573.587,1035.17 576.136,1034.98 578.685,1034.79 581.234,1034.59 
  583.783,1034.4 586.332,1034.21 588.881,1034.02 591.43,1033.83 593.979,1033.64 596.528,1033.45 599.077,1033.26 601.625,1033.07 604.174,1032.88 606.723,1032.69 
  609.272,1032.5 611.821,1032.3 614.37,1032.11 616.919,1031.92 619.468,1031.73 622.017,1031.54 624.566,1031.35 627.115,1031.16 629.664,1030.97 632.213,1030.78 
  634.762,1030.59 637.311,1030.4 639.86,1030.21 642.409,1030.02 644.958,1029.82 647.507,1029.63 650.056,1029.44 652.605,1029.25 655.153,1029.06 657.702,1028.87 
  660.251,1028.68 662.8,1028.49 665.349,1028.3 667.898,1028.11 670.447,1027.91 672.996,1027.72 675.545,1027.53 678.094,1027.34 680.643,1027.15 683.192,1026.95 
  685.741,1026.76 688.29,1026.57 690.839,1026.37 693.388,1026.18 695.937,1025.98 698.486,1025.79 701.035,1025.59 703.584,1025.39 706.133,1025.19 708.681,1024.99 
  711.23,1024.79 713.779,1024.59 716.328,1024.39 718.877,1024.18 721.426,1023.98 723.975,1023.77 726.524,1023.56 729.073,1023.35 731.622,1023.14 734.171,1022.92 
  736.72,1022.71 739.269,1022.49 741.818,1022.27 744.367,1022.05 746.916,1021.83 749.465,1021.6 752.014,1021.37 754.563,1021.14 757.112,1020.91 759.661,1020.67 
  762.209,1020.43 764.758,1020.19 767.307,1019.94 769.856,1019.7 772.405,1019.44 774.954,1019.19 777.503,1018.93 780.052,1018.67 782.601,1018.41 785.15,1018.14 
  787.699,1017.86 790.248,1017.58 792.797,1017.3 795.346,1017.01 797.895,1016.72 800.444,1016.43 802.993,1016.12 805.542,1015.82 808.091,1015.5 810.64,1015.18 
  813.189,1014.86 815.737,1014.53 818.286,1014.19 820.835,1013.84 823.384,1013.49 825.933,1013.14 828.482,1012.77 831.031,1012.4 833.58,1012.02 836.129,1011.63 
  838.678,1011.24 841.227,1010.83 843.776,1010.42 846.325,1010 848.874,1009.57 851.423,1009.14 853.972,1008.69 856.521,1008.23 859.07,1007.77 861.619,1007.29 
  864.168,1006.81 866.717,1006.31 869.265,1005.81 871.814,1005.29 874.363,1004.77 876.912,1004.23 879.461,1003.68 882.01,1003.13 884.559,1002.56 887.108,1001.98 
  889.657,1001.38 892.206,1000.78 894.755,1000.17 897.304,999.539 899.853,998.9 902.402,998.249 904.951,997.585 907.5,996.909 910.049,996.221 912.598,995.519 
  915.147,994.805 917.696,994.077 920.245,993.336 922.793,992.581 925.342,991.813 927.891,991.031 930.44,990.235 932.989,989.424 935.538,988.6 938.087,987.76 
  940.636,986.906 943.185,986.038 945.734,985.154 948.283,984.256 950.832,983.342 953.381,982.412 955.93,981.468 958.479,980.507 961.028,979.531 963.577,978.54 
  966.126,977.532 968.675,976.508 971.224,975.469 973.773,974.413 976.321,973.34 978.87,972.252 981.419,971.146 983.968,970.025 986.517,968.886 989.066,967.731 
  991.615,966.559 994.164,965.37 996.713,964.163 999.262,962.94 1001.81,961.699 1004.36,960.441 1006.91,959.165 1009.46,957.872 1012.01,956.561 1014.56,955.232 
  1017.1,953.885 1019.65,952.521 1022.2,951.138 1024.75,949.737 1027.3,948.318 1029.85,946.88 1032.4,945.424 1034.95,943.95 1037.5,942.457 1040.05,940.946 
  1042.59,939.415 1045.14,937.866 1047.69,936.299 1050.24,934.712 1052.79,933.106 1055.34,931.482 1057.89,929.838 1060.44,928.176 1062.99,926.494 1065.53,924.792 
  1068.08,923.072 1070.63,921.332 1073.18,919.573 1075.73,917.795 1078.28,915.997 1080.83,914.18 1083.38,912.344 1085.93,910.489 1088.48,908.614 1091.02,906.72 
  1093.57,904.807 1096.12,902.875 1098.67,900.924 1101.22,898.954 1103.77,896.964 1106.32,894.956 1108.87,892.929 1111.42,890.883 1113.96,888.819 1116.51,886.736 
  1119.06,884.635 1121.61,882.515 1124.16,880.378 1126.71,878.222 1129.26,876.049 1131.81,873.859 1134.36,871.651 1136.91,869.426 1139.45,867.184 1142,864.926 
  1144.55,862.651 1147.1,860.36 1149.65,858.053 1152.2,855.73 1154.75,853.391 1157.3,851.037 1159.85,848.668 1162.4,846.284 1164.94,843.885 1167.49,841.472 
  1170.04,839.045 1172.59,836.604 1175.14,834.149 1177.69,831.682 1180.24,829.201 1182.79,826.707 1185.34,824.201 1187.88,821.684 1190.43,819.154 1192.98,816.613 
  1195.53,814.06 1198.08,811.497 1200.63,808.923 1203.18,806.339 1205.73,803.745 1208.28,801.142 1210.83,798.529 1213.37,795.908 1215.92,793.279 1218.47,790.641 
  1221.02,787.996 1223.57,785.343 1226.12,782.683 1228.67,780.017 1231.22,777.345 1233.77,774.666 1236.31,771.983 1238.86,769.294 1241.41,766.6 1243.96,763.902 
  1246.51,761.2 1249.06,758.495 1251.61,755.786 1254.16,753.074 1256.71,750.36 1259.26,747.644 1261.8,744.926 1264.35,742.206 1266.9,739.486 1269.45,736.765 
  1272,734.043 1274.55,731.322 1277.1,728.601 1279.65,725.882 1282.2,723.163 1284.74,720.446 1287.29,717.731 1289.84,715.018 1292.39,712.308 1294.94,709.602 
  1297.49,706.898 1300.04,704.199 1302.59,701.503 1305.14,698.812 1307.69,696.125 1310.23,693.444 1312.78,690.768 1315.33,688.097 1317.88,685.433 1320.43,682.775 
  1322.98,680.123 1325.53,677.479 1328.08,674.841 1330.63,672.212 1333.17,669.59 1335.72,666.976 1338.27,664.371 1340.82,661.775 1343.37,659.188 1345.92,656.611 
  1348.47,654.043 1351.02,651.485 1353.57,648.938 1356.12,646.401 1358.66,643.875 1361.21,641.361 1363.76,638.857 1366.31,636.366 1368.86,633.886 1371.41,631.418 
  1373.96,628.963 1376.51,626.52 1379.06,624.09 1381.6,621.673 1384.15,619.269 1386.7,616.878 1389.25,614.501 1391.8,612.138 1394.35,609.789 1396.9,607.454 
  1399.45,605.134 1402,602.828 1404.55,600.536 1407.09,598.26 1409.64,595.998 1412.19,593.752 1414.74,591.521 1417.29,589.305 1419.84,587.105 1422.39,584.921 
  1424.94,582.752 1427.49,580.6 1430.04,578.463 1432.58,576.343 1435.13,574.239 1437.68,572.151 1440.23,570.079 1442.78,568.025 1445.33,565.987 1447.88,563.965 
  1450.43,561.961 1452.98,559.973 1455.52,558.003 1458.07,556.05 1460.62,554.114 1463.17,552.196 1465.72,550.296 1468.27,548.413 1470.82,546.548 1473.37,544.701 
  1475.92,542.872 1478.47,541.061 1481.01,539.269 1483.56,537.495 1486.11,535.739 1488.66,534.003 1491.21,532.285 1493.76,530.585 1496.31,528.905 1498.86,527.244 
  1501.41,525.602 1503.95,523.979 1506.5,522.375 1509.05,520.79 1511.6,519.225 1514.15,517.679 1516.7,516.152 1519.25,514.644 1521.8,513.155 1524.35,511.686 
  1526.9,510.236 1529.44,508.805 1531.99,507.393 1534.54,506 1537.09,504.626 1539.64,503.27 1542.19,501.934 1544.74,500.615 1547.29,499.315 1549.84,498.033 
  1552.38,496.77 1554.93,495.524 1557.48,494.297 1560.03,493.087 1562.58,491.894 1565.13,490.719 1567.68,489.562 1570.23,488.421 1572.78,487.298 1575.33,486.192 
  1577.87,485.102 1580.42,484.029 1582.97,482.972 1585.52,481.932 1588.07,480.907 1590.62,479.899 1593.17,478.907 1595.72,477.93 1598.27,476.968 1600.81,476.022 
  1603.36,475.091 1605.91,474.176 1608.46,473.275 1611.01,472.388 1613.56,471.517 1616.11,470.659 1618.66,469.816 1621.21,468.986 1623.76,468.171 1626.3,467.369 
  1628.85,466.58 1631.4,465.805 1633.95,465.043 1636.5,464.294 1639.05,463.558 1641.6,462.834 1644.15,462.123 1646.7,461.424 1649.24,460.737 1651.79,460.062 
  1654.34,459.398 1656.89,458.746 1659.44,458.105 1661.99,457.475 1664.54,456.855 1667.09,456.246 1669.64,455.647 1672.19,455.058 1674.73,454.479 1677.28,453.909 
  1679.83,453.349 1682.38,452.797 1684.93,452.255 1687.48,451.721 1690.03,451.196 1692.58,450.679 1695.13,450.17 1697.68,449.669 1700.22,449.176 1702.77,448.69 
  1705.32,448.211 1707.87,447.74 1710.42,447.275 1712.97,446.817 1715.52,446.365 1718.07,445.92 1720.62,445.48 1723.16,445.047 1725.71,444.619 1728.26,444.196 
  1730.81,443.779 1733.36,443.367 1735.91,442.959 1738.46,442.557 1741.01,442.159 1743.56,441.765 1746.11,441.376 1748.65,440.99 1751.2,440.609 1753.75,440.231 
  1756.3,439.857 1758.85,439.486 1761.4,439.118 1763.95,438.754 1766.5,438.393 1769.05,438.034 1771.59,437.678 1774.14,437.324 1776.69,436.973 1779.24,436.623 
  1781.79,436.276 1784.34,435.931 1786.89,435.588 1789.44,435.246 1791.99,434.907 1794.54,434.568 1797.08,434.232 1799.63,433.897 1802.18,433.563 1804.73,433.23 
  1807.28,432.899 1809.83,432.569 1812.38,432.24 1814.93,431.911 1817.48,431.584 1820.02,431.258 1822.57,430.932 1825.12,430.607 1827.67,430.283 1830.22,429.959 
  1832.77,429.636 1835.32,429.313 1837.87,428.991 1840.42,428.669 1842.97,428.347 1845.51,428.026 1848.06,427.705 1850.61,427.384 1853.16,427.064 1855.71,426.744 
  1858.26,426.424 1860.81,426.104 1863.36,425.784 1865.91,425.465 1868.45,425.145 1871,424.826 1873.55,424.507 1876.1,424.187 1878.65,423.868 1881.2,423.549 
  1883.75,423.23 1886.3,422.911 1888.85,422.592 1891.4,422.272 1893.94,421.953 1896.49,421.634 1899.04,421.315 1901.59,420.996 1904.14,420.677 1906.69,420.358 
  1909.24,420.039 1911.79,419.719 1914.34,419.4 1916.89,419.081 1919.43,418.762 1921.98,418.443 1924.53,418.124 1927.08,417.805 1929.63,417.486 1932.18,417.166 
  1934.73,416.847 1937.28,416.528 1939.83,416.209 1942.37,415.89 1944.92,415.571 1947.47,415.252 1950.02,414.932 1952.57,414.613 1955.12,414.294 1957.67,413.975 
  1960.22,413.656 1962.77,413.337 1965.32,413.018 1967.86,412.699 1970.41,412.379 1972.96,412.06 1975.51,411.741 1978.06,411.422 1980.61,411.103 1983.16,410.784 
  1985.71,410.465 1988.26,410.146 1990.8,409.826 1993.35,409.507 1995.9,409.188 1998.45,408.869 2001,408.55 2003.55,408.231 2006.1,407.912 2008.65,407.593 
  2011.2,407.273 2013.75,406.954 2016.29,406.635 2018.84,406.316 2021.39,405.997 2023.94,405.678 2026.49,405.359 2029.04,405.039 2031.59,404.72 2034.14,404.401 
  2036.69,404.082 2039.23,403.763 2041.78,403.444 2044.33,403.125 2046.88,402.806 2049.43,402.486 2051.98,402.167 2054.53,401.848 2057.08,401.529 2059.63,401.21 
  2062.18,400.891 2064.72,400.572 2067.27,400.253 2069.82,399.933 2072.37,399.614 2074.92,399.295 2077.47,398.976 2080.02,398.657 2082.57,398.338 2085.12,398.019 
  2087.66,397.699 2090.21,397.38 2092.76,397.061 2095.31,396.742 2097.86,396.423 2100.41,396.104 2102.96,395.785 2105.51,395.466 2108.06,395.146 2110.61,394.827 
  2113.15,394.508 2115.7,394.189 2118.25,393.87 2120.8,393.551 2123.35,393.232 2125.9,392.913 2128.45,392.593 2131,392.274 2133.55,391.955 2136.09,391.636 
  2138.64,391.317 2141.19,390.998 2143.74,390.679 2146.29,390.36 2148.84,390.04 2151.39,389.721 2153.94,389.402 2156.49,389.083 2159.04,388.764 2161.58,388.445 
  2164.13,388.126 2166.68,387.806 2169.23,387.487 2171.78,387.168 2174.33,386.849 2176.88,386.53 2179.43,386.211 2181.98,385.892 2184.53,385.573 2187.07,385.253 
  2189.62,384.934 2192.17,384.615 2194.72,384.296 2197.27,383.977 2199.82,383.658 2202.37,383.339 2204.92,383.02 2207.47,382.7 2210.01,382.381 2212.56,382.062 
  2215.11,381.743 2217.66,381.424 2220.21,381.105 2222.76,380.786 2225.31,380.466 2227.86,380.147 2230.41,379.828 2232.96,379.509 2235.5,379.19 2238.05,378.871 
  2240.6,378.552 2243.15,378.233 2245.7,377.913 2248.25,377.594 2250.8,377.275 2253.35,376.956 2255.9,376.637 2258.44,376.318 2260.99,375.999 2263.54,375.68 
  2266.09,375.36 2268.64,375.041 2271.19,374.722 2273.74,374.403 2276.29,374.084 2278.84,373.765 2281.39,373.446 2283.93,373.127 2286.48,372.807 2289.03,372.488 
  2291.58,372.169 
  "/>
<polyline clip-path="url(#clip502)" style="stroke:#3da44d; stroke-width:4; stroke-opacity:1; fill:none" points="
  252.419,1347.4 254.968,1345.96 257.517,1344.52 260.066,1343.08 262.615,1341.64 265.164,1340.2 267.713,1338.76 270.262,1337.33 272.811,1335.89 275.36,1334.45 
  277.908,1333.01 280.457,1331.57 283.006,1330.13 285.555,1328.69 288.104,1327.25 290.653,1325.81 293.202,1324.37 295.751,1322.94 298.3,1321.5 300.849,1320.06 
  303.398,1318.62 305.947,1317.18 308.496,1315.74 311.045,1314.3 313.594,1312.86 316.143,1311.42 318.692,1309.99 321.241,1308.55 323.79,1307.11 326.339,1305.67 
  328.888,1304.23 331.436,1302.79 333.985,1301.35 336.534,1299.91 339.083,1298.47 341.632,1297.03 344.181,1295.6 346.73,1294.16 349.279,1292.72 351.828,1291.28 
  354.377,1289.84 356.926,1288.4 359.475,1286.96 362.024,1285.52 364.573,1284.08 367.122,1282.65 369.671,1281.21 372.22,1279.77 374.769,1278.33 377.318,1276.89 
  379.867,1275.45 382.416,1274.01 384.964,1272.57 387.513,1271.13 390.062,1269.69 392.611,1268.26 395.16,1266.82 397.709,1265.38 400.258,1263.94 402.807,1262.5 
  405.356,1261.06 407.905,1259.62 410.454,1258.18 413.003,1256.74 415.552,1255.3 418.101,1253.87 420.65,1252.43 423.199,1250.99 425.748,1249.55 428.297,1248.11 
  430.846,1246.67 433.395,1245.23 435.944,1243.79 438.492,1242.35 441.041,1240.92 443.59,1239.48 446.139,1238.04 448.688,1236.6 451.237,1235.16 453.786,1233.72 
  456.335,1232.28 458.884,1230.84 461.433,1229.4 463.982,1227.96 466.531,1226.53 469.08,1225.09 471.629,1223.65 474.178,1222.21 476.727,1220.77 479.276,1219.33 
  481.825,1217.89 484.374,1216.45 486.923,1215.01 489.472,1213.58 492.021,1212.14 494.569,1210.7 497.118,1209.26 499.667,1207.82 502.216,1206.38 504.765,1204.94 
  507.314,1203.5 509.863,1202.06 512.412,1200.62 514.961,1199.19 517.51,1197.75 520.059,1196.31 522.608,1194.87 525.157,1193.43 527.706,1191.99 530.255,1190.55 
  532.804,1189.11 535.353,1187.67 537.902,1186.24 540.451,1184.8 543,1183.36 545.549,1181.92 548.097,1180.48 550.646,1179.04 553.195,1177.6 555.744,1176.16 
  558.293,1174.72 560.842,1173.28 563.391,1171.85 565.94,1170.41 568.489,1168.97 571.038,1167.53 573.587,1166.09 576.136,1164.65 578.685,1163.21 581.234,1161.77 
  583.783,1160.33 586.332,1158.9 588.881,1157.46 591.43,1156.02 593.979,1154.58 596.528,1153.14 599.077,1151.7 601.625,1150.26 604.174,1148.82 606.723,1147.38 
  609.272,1145.94 611.821,1144.51 614.37,1143.07 616.919,1141.63 619.468,1140.19 622.017,1138.75 624.566,1137.31 627.115,1135.87 629.664,1134.43 632.213,1132.99 
  634.762,1131.55 637.311,1130.12 639.86,1128.68 642.409,1127.24 644.958,1125.8 647.507,1124.36 650.056,1122.92 652.605,1121.48 655.153,1120.04 657.702,1118.6 
  660.251,1117.17 662.8,1115.73 665.349,1114.29 667.898,1112.85 670.447,1111.41 672.996,1109.97 675.545,1108.53 678.094,1107.09 680.643,1105.65 683.192,1104.21 
  685.741,1102.77 688.29,1101.33 690.839,1099.9 693.388,1098.46 695.937,1097.02 698.486,1095.58 701.035,1094.14 703.584,1092.7 706.133,1091.26 708.681,1089.82 
  711.23,1088.38 713.779,1086.93 716.328,1085.49 718.877,1084.05 721.426,1082.61 723.975,1081.17 726.524,1079.73 729.073,1078.29 731.622,1076.84 734.171,1075.4 
  736.72,1073.96 739.269,1072.52 741.818,1071.07 744.367,1069.63 746.916,1068.18 749.465,1066.74 752.014,1065.3 754.563,1063.85 757.112,1062.4 759.661,1060.96 
  762.209,1059.51 764.758,1058.06 767.307,1056.62 769.856,1055.17 772.405,1053.72 774.954,1052.27 777.503,1050.82 780.052,1049.37 782.601,1047.92 785.15,1046.47 
  787.699,1045.02 790.248,1043.56 792.797,1042.11 795.346,1040.66 797.895,1039.2 800.444,1037.74 802.993,1036.29 805.542,1034.83 808.091,1033.37 810.64,1031.91 
  813.189,1030.45 815.737,1028.99 818.286,1027.53 820.835,1026.06 823.384,1024.6 825.933,1023.13 828.482,1021.67 831.031,1020.2 833.58,1018.73 836.129,1017.26 
  838.678,1015.79 841.227,1014.32 843.776,1012.84 846.325,1011.37 848.874,1009.89 851.423,1008.41 853.972,1006.93 856.521,1005.45 859.07,1003.97 861.619,1002.49 
  864.168,1001 866.717,999.517 869.265,998.029 871.814,996.539 874.363,995.048 876.912,993.555 879.461,992.06 882.01,990.564 884.559,989.066 887.108,987.566 
  889.657,986.065 892.206,984.562 894.755,983.057 897.304,981.55 899.853,980.041 902.402,978.531 904.951,977.018 907.5,975.504 910.049,973.987 912.598,972.469 
  915.147,970.949 917.696,969.427 920.245,967.902 922.793,966.376 925.342,964.847 927.891,963.317 930.44,961.784 932.989,960.249 935.538,958.712 938.087,957.172 
  940.636,955.631 943.185,954.087 945.734,952.541 948.283,950.993 950.832,949.442 953.381,947.889 955.93,946.333 958.479,944.776 961.028,943.215 963.577,941.653 
  966.126,940.088 968.675,938.52 971.224,936.951 973.773,935.378 976.321,933.804 978.87,932.226 981.419,930.647 983.968,929.064 986.517,927.479 989.066,925.892 
  991.615,924.302 994.164,922.71 996.713,921.115 999.262,919.517 1001.81,917.917 1004.36,916.314 1006.91,914.708 1009.46,913.1 1012.01,911.489 1014.56,909.876 
  1017.1,908.26 1019.65,906.641 1022.2,905.019 1024.75,903.395 1027.3,901.768 1029.85,900.138 1032.4,898.505 1034.95,896.87 1037.5,895.232 1040.05,893.591 
  1042.59,891.947 1045.14,890.3 1047.69,888.651 1050.24,886.999 1052.79,885.344 1055.34,883.686 1057.89,882.026 1060.44,880.362 1062.99,878.696 1065.53,877.027 
  1068.08,875.355 1070.63,873.68 1073.18,872.002 1075.73,870.321 1078.28,868.638 1080.83,866.952 1083.38,865.263 1085.93,863.571 1088.48,861.876 1091.02,860.178 
  1093.57,858.477 1096.12,856.774 1098.67,855.068 1101.22,853.359 1103.77,851.647 1106.32,849.933 1108.87,848.215 1111.42,846.495 1113.96,844.772 1116.51,843.047 
  1119.06,841.318 1121.61,839.587 1124.16,837.854 1126.71,836.118 1129.26,834.379 1131.81,832.637 1134.36,830.893 1136.91,829.147 1139.45,827.398 1142,825.646 
  1144.55,823.892 1147.1,822.136 1149.65,820.377 1152.2,818.616 1154.75,816.853 1157.3,815.087 1159.85,813.319 1162.4,811.549 1164.94,809.777 1167.49,808.002 
  1170.04,806.226 1172.59,804.447 1175.14,802.667 1177.69,800.884 1180.24,799.1 1182.79,797.314 1185.34,795.526 1187.88,793.736 1190.43,791.944 1192.98,790.151 
  1195.53,788.356 1198.08,786.559 1200.63,784.761 1203.18,782.962 1205.73,781.161 1208.28,779.358 1210.83,777.554 1213.37,775.749 1215.92,773.943 1218.47,772.135 
  1221.02,770.327 1223.57,768.517 1226.12,766.706 1228.67,764.894 1231.22,763.082 1233.77,761.268 1236.31,759.453 1238.86,757.638 1241.41,755.822 1243.96,754.006 
  1246.51,752.189 1249.06,750.371 1251.61,748.553 1254.16,746.734 1256.71,744.915 1259.26,743.095 1261.8,741.275 1264.35,739.455 1266.9,737.635 1269.45,735.815 
  1272,733.994 1274.55,732.174 1277.1,730.354 1279.65,728.533 1282.2,726.713 1284.74,724.893 1287.29,723.073 1289.84,721.254 1292.39,719.435 1294.94,717.616 
  1297.49,715.798 1300.04,713.98 1302.59,712.163 1305.14,710.346 1307.69,708.53 1310.23,706.715 1312.78,704.9 1315.33,703.086 1317.88,701.273 1320.43,699.461 
  1322.98,697.65 1325.53,695.84 1328.08,694.031 1330.63,692.223 1333.17,690.416 1335.72,688.61 1338.27,686.805 1340.82,685.002 1343.37,683.2 1345.92,681.399 
  1348.47,679.6 1351.02,677.802 1353.57,676.005 1356.12,674.21 1358.66,672.417 1361.21,670.625 1363.76,668.835 1366.31,667.047 1368.86,665.26 1371.41,663.475 
  1373.96,661.691 1376.51,659.91 1379.06,658.13 1381.6,656.352 1384.15,654.576 1386.7,652.802 1389.25,651.03 1391.8,649.26 1394.35,647.492 1396.9,645.726 
  1399.45,643.962 1402,642.2 1404.55,640.441 1407.09,638.683 1409.64,636.928 1412.19,635.174 1414.74,633.423 1417.29,631.674 1419.84,629.928 1422.39,628.183 
  1424.94,626.441 1427.49,624.702 1430.04,622.964 1432.58,621.229 1435.13,619.496 1437.68,617.766 1440.23,616.038 1442.78,614.312 1445.33,612.589 1447.88,610.869 
  1450.43,609.15 1452.98,607.434 1455.52,605.721 1458.07,604.01 1460.62,602.302 1463.17,600.596 1465.72,598.893 1468.27,597.192 1470.82,595.494 1473.37,593.798 
  1475.92,592.105 1478.47,590.415 1481.01,588.727 1483.56,587.042 1486.11,585.36 1488.66,583.68 1491.21,582.003 1493.76,580.329 1496.31,578.657 1498.86,576.988 
  1501.41,575.322 1503.95,573.659 1506.5,571.998 1509.05,570.34 1511.6,568.685 1514.15,567.033 1516.7,565.383 1519.25,563.736 1521.8,562.092 1524.35,560.451 
  1526.9,558.812 1529.44,557.177 1531.99,555.543 1534.54,553.913 1537.09,552.286 1539.64,550.661 1542.19,549.039 1544.74,547.419 1547.29,545.802 1549.84,544.188 
  1552.38,542.577 1554.93,540.968 1557.48,539.361 1560.03,537.758 1562.58,536.157 1565.13,534.558 1567.68,532.962 1570.23,531.368 1572.78,529.777 1575.33,528.189 
  1577.87,526.602 1580.42,525.019 1582.97,523.437 1585.52,521.859 1588.07,520.282 1590.62,518.708 1593.17,517.136 1595.72,515.567 1598.27,513.999 1600.81,512.434 
  1603.36,510.872 1605.91,509.311 1608.46,507.753 1611.01,506.197 1613.56,504.643 1616.11,503.091 1618.66,501.542 1621.21,499.994 1623.76,498.449 1626.3,496.905 
  1628.85,495.364 1631.4,493.825 1633.95,492.287 1636.5,490.752 1639.05,489.218 1641.6,487.687 1644.15,486.157 1646.7,484.629 1649.24,483.103 1651.79,481.579 
  1654.34,480.057 1656.89,478.536 1659.44,477.017 1661.99,475.5 1664.54,473.984 1667.09,472.47 1669.64,470.958 1672.19,469.447 1674.73,467.937 1677.28,466.43 
  1679.83,464.923 1682.38,463.418 1684.93,461.915 1687.48,460.413 1690.03,458.912 1692.58,457.412 1695.13,455.914 1697.68,454.417 1700.22,452.921 1702.77,451.427 
  1705.32,449.933 1707.87,448.441 1710.42,446.95 1712.97,445.46 1715.52,443.971 1718.07,442.483 1720.62,440.996 1723.16,439.51 1725.71,438.025 1728.26,436.541 
  1730.81,435.058 1733.36,433.576 1735.91,432.094 1738.46,430.613 1741.01,429.133 1743.56,427.654 1746.11,426.176 1748.65,424.698 1751.2,423.221 1753.75,421.744 
  1756.3,420.269 1758.85,418.794 1761.4,417.319 1763.95,415.845 1766.5,414.371 1769.05,412.898 1771.59,411.426 1774.14,409.954 1776.69,408.482 1779.24,407.011 
  1781.79,405.54 1784.34,404.07 1786.89,402.6 1789.44,401.13 1791.99,399.661 1794.54,398.192 1797.08,396.724 1799.63,395.255 1802.18,393.787 1804.73,392.319 
  1807.28,390.852 1809.83,389.384 1812.38,387.917 1814.93,386.45 1817.48,384.984 1820.02,383.517 1822.57,382.051 1825.12,380.585 1827.67,379.119 1830.22,377.653 
  1832.77,376.187 1835.32,374.721 1837.87,373.256 1840.42,371.79 1842.97,370.325 1845.51,368.86 1848.06,367.394 1850.61,365.929 1853.16,364.464 1855.71,362.999 
  1858.26,361.534 1860.81,360.069 1863.36,358.604 1865.91,357.139 1868.45,355.675 1871,354.21 1873.55,352.745 1876.1,351.28 1878.65,349.815 1881.2,348.351 
  1883.75,346.886 1886.3,345.421 1888.85,343.956 1891.4,342.491 1893.94,341.027 1896.49,339.562 1899.04,338.097 1901.59,336.632 1904.14,335.168 1906.69,333.703 
  1909.24,332.238 1911.79,330.773 1914.34,329.309 1916.89,327.844 1919.43,326.379 1921.98,324.914 1924.53,323.449 1927.08,321.985 1929.63,320.52 1932.18,319.055 
  1934.73,317.59 1937.28,316.126 1939.83,314.661 1942.37,313.196 1944.92,311.731 1947.47,310.267 1950.02,308.802 1952.57,307.337 1955.12,305.872 1957.67,304.407 
  1960.22,302.943 1962.77,301.478 1965.32,300.013 1967.86,298.548 1970.41,297.084 1972.96,295.619 1975.51,294.154 1978.06,292.689 1980.61,291.225 1983.16,289.76 
  1985.71,288.295 1988.26,286.83 1990.8,285.365 1993.35,283.901 1995.9,282.436 1998.45,280.971 2001,279.506 2003.55,278.042 2006.1,276.577 2008.65,275.112 
  2011.2,273.647 2013.75,272.183 2016.29,270.718 2018.84,269.253 2021.39,267.788 2023.94,266.323 2026.49,264.859 2029.04,263.394 2031.59,261.929 2034.14,260.464 
  2036.69,259 2039.23,257.535 2041.78,256.07 2044.33,254.605 2046.88,253.141 2049.43,251.676 2051.98,250.211 2054.53,248.746 2057.08,247.281 2059.63,245.817 
  2062.18,244.352 2064.72,242.887 2067.27,241.422 2069.82,239.958 2072.37,238.493 2074.92,237.028 2077.47,235.563 2080.02,234.099 2082.57,232.634 2085.12,231.169 
  2087.66,229.704 2090.21,228.24 2092.76,226.775 2095.31,225.31 2097.86,223.845 2100.41,222.38 2102.96,220.916 2105.51,219.451 2108.06,217.986 2110.61,216.521 
  2113.15,215.057 2115.7,213.592 2118.25,212.127 2120.8,210.662 2123.35,209.198 2125.9,207.733 2128.45,206.268 2131,204.803 2133.55,203.338 2136.09,201.874 
  2138.64,200.409 2141.19,198.944 2143.74,197.479 2146.29,196.015 2148.84,194.55 2151.39,193.085 2153.94,191.62 2156.49,190.156 2159.04,188.691 2161.58,187.226 
  2164.13,185.761 2166.68,184.296 2169.23,182.832 2171.78,181.367 2174.33,179.902 2176.88,178.437 2179.43,176.973 2181.98,175.508 2184.53,174.043 2187.07,172.578 
  2189.62,171.114 2192.17,169.649 2194.72,168.184 2197.27,166.719 2199.82,165.254 2202.37,163.79 2204.92,162.325 2207.47,160.86 2210.01,159.395 2212.56,157.931 
  2215.11,156.466 2217.66,155.001 2220.21,153.536 2222.76,152.072 2225.31,150.607 2227.86,149.142 2230.41,147.677 2232.96,146.212 2235.5,144.748 2238.05,143.283 
  2240.6,141.818 2243.15,140.353 2245.7,138.889 2248.25,137.424 2250.8,135.959 2253.35,134.494 2255.9,133.03 2258.44,131.565 2260.99,130.1 2263.54,128.635 
  2266.09,127.17 2268.64,125.706 2271.19,124.241 2273.74,122.776 2276.29,121.311 2278.84,119.847 2281.39,118.382 2283.93,116.917 2286.48,115.452 2289.03,113.988 
  2291.58,112.523 
  "/>
<polyline clip-path="url(#clip502)" style="stroke:#c271d2; stroke-width:4; stroke-opacity:1; fill:none" points="
  252.419,1378 254.968,1376.43 257.517,1374.85 260.066,1373.28 262.615,1371.71 265.164,1370.14 267.713,1368.57 270.262,1367 272.811,1365.43 275.36,1363.86 
  277.908,1362.28 280.457,1360.71 283.006,1359.14 285.555,1357.57 288.104,1356 290.653,1354.43 293.202,1352.86 295.751,1351.29 298.3,1349.72 300.849,1348.14 
  303.398,1346.57 305.947,1345 308.496,1343.43 311.045,1341.86 313.594,1340.29 316.143,1338.72 318.692,1337.15 321.241,1335.58 323.79,1334 326.339,1332.43 
  328.888,1330.86 331.436,1329.29 333.985,1327.72 336.534,1326.15 339.083,1324.58 341.632,1323.01 344.181,1321.44 346.73,1319.86 349.279,1318.29 351.828,1316.72 
  354.377,1315.15 356.926,1313.58 359.475,1312.01 362.024,1310.44 364.573,1308.87 367.122,1307.3 369.671,1305.72 372.22,1304.15 374.769,1302.58 377.318,1301.01 
  379.867,1299.44 382.416,1297.87 384.964,1296.3 387.513,1294.73 390.062,1293.15 392.611,1291.58 395.16,1290.01 397.709,1288.44 400.258,1286.87 402.807,1285.3 
  405.356,1283.73 407.905,1282.16 410.454,1280.59 413.003,1279.01 415.552,1277.44 418.101,1275.87 420.65,1274.3 423.199,1272.73 425.748,1271.16 428.297,1269.59 
  430.846,1268.02 433.395,1266.45 435.944,1264.87 438.492,1263.3 441.041,1261.73 443.59,1260.16 446.139,1258.59 448.688,1257.02 451.237,1255.45 453.786,1253.88 
  456.335,1252.31 458.884,1250.73 461.433,1249.16 463.982,1247.59 466.531,1246.02 469.08,1244.45 471.629,1242.88 474.178,1241.31 476.727,1239.74 479.276,1238.17 
  481.825,1236.59 484.374,1235.02 486.923,1233.45 489.472,1231.88 492.021,1230.31 494.569,1228.74 497.118,1227.17 499.667,1225.6 502.216,1224.03 504.765,1222.45 
  507.314,1220.88 509.863,1219.31 512.412,1217.74 514.961,1216.17 517.51,1214.6 520.059,1213.03 522.608,1211.46 525.157,1209.88 527.706,1208.31 530.255,1206.74 
  532.804,1205.17 535.353,1203.6 537.902,1202.03 540.451,1200.46 543,1198.89 545.549,1197.32 548.097,1195.74 550.646,1194.17 553.195,1192.6 555.744,1191.03 
  558.293,1189.46 560.842,1187.89 563.391,1186.32 565.94,1184.75 568.489,1183.18 571.038,1181.6 573.587,1180.03 576.136,1178.46 578.685,1176.89 581.234,1175.32 
  583.783,1173.75 586.332,1172.18 588.881,1170.61 591.43,1169.04 593.979,1167.46 596.528,1165.89 599.077,1164.32 601.625,1162.75 604.174,1161.18 606.723,1159.61 
  609.272,1158.04 611.821,1156.47 614.37,1154.9 616.919,1153.32 619.468,1151.75 622.017,1150.18 624.566,1148.61 627.115,1147.04 629.664,1145.47 632.213,1143.9 
  634.762,1142.33 637.311,1140.75 639.86,1139.18 642.409,1137.61 644.958,1136.04 647.507,1134.47 650.056,1132.9 652.605,1131.33 655.153,1129.76 657.702,1128.19 
  660.251,1126.61 662.8,1125.04 665.349,1123.47 667.898,1121.9 670.447,1120.33 672.996,1118.76 675.545,1117.19 678.094,1115.62 680.643,1114.05 683.192,1112.47 
  685.741,1110.9 688.29,1109.33 690.839,1107.76 693.388,1106.19 695.937,1104.62 698.486,1103.05 701.035,1101.47 703.584,1099.9 706.133,1098.33 708.681,1096.76 
  711.23,1095.19 713.779,1093.62 716.328,1092.04 718.877,1090.47 721.426,1088.9 723.975,1087.33 726.524,1085.76 729.073,1084.18 731.622,1082.61 734.171,1081.04 
  736.72,1079.47 739.269,1077.89 741.818,1076.32 744.367,1074.75 746.916,1073.17 749.465,1071.6 752.014,1070.03 754.563,1068.45 757.112,1066.88 759.661,1065.3 
  762.209,1063.73 764.758,1062.16 767.307,1060.58 769.856,1059.01 772.405,1057.43 774.954,1055.86 777.503,1054.28 780.052,1052.7 782.601,1051.13 785.15,1049.55 
  787.699,1047.97 790.248,1046.4 792.797,1044.82 795.346,1043.24 797.895,1041.66 800.444,1040.09 802.993,1038.51 805.542,1036.93 808.091,1035.35 810.64,1033.77 
  813.189,1032.19 815.737,1030.61 818.286,1029.03 820.835,1027.45 823.384,1025.87 825.933,1024.28 828.482,1022.7 831.031,1021.12 833.58,1019.53 836.129,1017.95 
  838.678,1016.37 841.227,1014.78 843.776,1013.19 846.325,1011.61 848.874,1010.02 851.423,1008.43 853.972,1006.85 856.521,1005.26 859.07,1003.67 861.619,1002.08 
  864.168,1000.49 866.717,998.898 869.265,997.307 871.814,995.715 874.363,994.122 876.912,992.528 879.461,990.934 882.01,989.339 884.559,987.743 887.108,986.147 
  889.657,984.55 892.206,982.952 894.755,981.354 897.304,979.754 899.853,978.154 902.402,976.553 904.951,974.952 907.5,973.349 910.049,971.746 912.598,970.142 
  915.147,968.537 917.696,966.931 920.245,965.325 922.793,963.717 925.342,962.109 927.891,960.5 930.44,958.89 932.989,957.279 935.538,955.667 938.087,954.054 
  940.636,952.44 943.185,950.825 945.734,949.21 948.283,947.593 950.832,945.976 953.381,944.357 955.93,942.738 958.479,941.117 961.028,939.496 963.577,937.873 
  966.126,936.25 968.675,934.625 971.224,933 973.773,931.374 976.321,929.746 978.87,928.117 981.419,926.488 983.968,924.857 986.517,923.226 989.066,921.593 
  991.615,919.959 994.164,918.324 996.713,916.688 999.262,915.051 1001.81,913.413 1004.36,911.774 1006.91,910.134 1009.46,908.492 1012.01,906.85 1014.56,905.206 
  1017.1,903.562 1019.65,901.916 1022.2,900.269 1024.75,898.621 1027.3,896.972 1029.85,895.321 1032.4,893.67 1034.95,892.017 1037.5,890.363 1040.05,888.708 
  1042.59,887.052 1045.14,885.395 1047.69,883.737 1050.24,882.077 1052.79,880.416 1055.34,878.754 1057.89,877.091 1060.44,875.427 1062.99,873.762 1065.53,872.095 
  1068.08,870.427 1070.63,868.758 1073.18,867.088 1075.73,865.417 1078.28,863.744 1080.83,862.07 1083.38,860.395 1085.93,858.719 1088.48,857.042 1091.02,855.364 
  1093.57,853.684 1096.12,852.003 1098.67,850.321 1101.22,848.638 1103.77,846.954 1106.32,845.268 1108.87,843.582 1111.42,841.894 1113.96,840.205 1116.51,838.515 
  1119.06,836.824 1121.61,835.132 1124.16,833.438 1126.71,831.744 1129.26,830.048 1131.81,828.352 1134.36,826.654 1136.91,824.956 1139.45,823.256 1142,821.555 
  1144.55,819.853 1147.1,818.151 1149.65,816.447 1152.2,814.742 1154.75,813.036 1157.3,811.33 1159.85,809.622 1162.4,807.914 1164.94,806.204 1167.49,804.494 
  1170.04,802.783 1172.59,801.071 1175.14,799.358 1177.69,797.645 1180.24,795.93 1182.79,794.215 1185.34,792.499 1187.88,790.783 1190.43,789.065 1192.98,787.347 
  1195.53,785.628 1198.08,783.909 1200.63,782.189 1203.18,780.468 1205.73,778.747 1208.28,777.025 1210.83,775.302 1213.37,773.579 1215.92,771.856 1218.47,770.132 
  1221.02,768.407 1223.57,766.683 1226.12,764.957 1228.67,763.231 1231.22,761.505 1233.77,759.779 1236.31,758.052 1238.86,756.325 1241.41,754.597 1243.96,752.869 
  1246.51,751.141 1249.06,749.413 1251.61,747.684 1254.16,745.956 1256.71,744.227 1259.26,742.498 1261.8,740.769 1264.35,739.04 1266.9,737.31 1269.45,735.581 
  1272,733.851 1274.55,732.122 1277.1,730.393 1279.65,728.663 1282.2,726.934 1284.74,725.205 1287.29,723.475 1289.84,721.746 1292.39,720.017 1294.94,718.289 
  1297.49,716.56 1300.04,714.832 1302.59,713.103 1305.14,711.375 1307.69,709.648 1310.23,707.92 1312.78,706.193 1315.33,704.467 1317.88,702.74 1320.43,701.014 
  1322.98,699.288 1325.53,697.563 1328.08,695.838 1330.63,694.114 1333.17,692.39 1335.72,690.666 1338.27,688.943 1340.82,687.221 1343.37,685.499 1345.92,683.777 
  1348.47,682.056 1351.02,680.336 1353.57,678.616 1356.12,676.897 1358.66,675.179 1361.21,673.461 1363.76,671.744 1366.31,670.028 1368.86,668.312 1371.41,666.597 
  1373.96,664.883 1376.51,663.169 1379.06,661.456 1381.6,659.744 1384.15,658.033 1386.7,656.322 1389.25,654.613 1391.8,652.904 1394.35,651.196 1396.9,649.489 
  1399.45,647.782 1402,646.077 1404.55,644.372 1407.09,642.668 1409.64,640.966 1412.19,639.264 1414.74,637.563 1417.29,635.862 1419.84,634.163 1422.39,632.465 
  1424.94,630.768 1427.49,629.071 1430.04,627.376 1432.58,625.681 1435.13,623.988 1437.68,622.295 1440.23,620.604 1442.78,618.913 1445.33,617.223 1447.88,615.535 
  1450.43,613.847 1452.98,612.161 1455.52,610.475 1458.07,608.791 1460.62,607.107 1463.17,605.425 1465.72,603.743 1468.27,602.063 1470.82,600.384 1473.37,598.705 
  1475.92,597.028 1478.47,595.352 1481.01,593.677 1483.56,592.003 1486.11,590.33 1488.66,588.659 1491.21,586.988 1493.76,585.319 1496.31,583.65 1498.86,581.983 
  1501.41,580.317 1503.95,578.652 1506.5,576.988 1509.05,575.325 1511.6,573.664 1514.15,572.003 1516.7,570.344 1519.25,568.686 1521.8,567.029 1524.35,565.373 
  1526.9,563.718 1529.44,562.065 1531.99,560.412 1534.54,558.761 1537.09,557.11 1539.64,555.461 1542.19,553.813 1544.74,552.166 1547.29,550.521 1549.84,548.876 
  1552.38,547.232 1554.93,545.59 1557.48,543.948 1560.03,542.308 1562.58,540.668 1565.13,539.03 1567.68,537.393 1570.23,535.757 1572.78,534.121 1575.33,532.487 
  1577.87,530.854 1580.42,529.222 1582.97,527.591 1585.52,525.96 1588.07,524.331 1590.62,522.703 1593.17,521.076 1595.72,519.449 1598.27,517.824 1600.81,516.2 
  1603.36,514.576 1605.91,512.954 1608.46,511.332 1611.01,509.711 1613.56,508.091 1616.11,506.472 1618.66,504.854 1621.21,503.237 1623.76,501.621 1626.3,500.005 
  1628.85,498.39 1631.4,496.776 1633.95,495.163 1636.5,493.551 1639.05,491.94 1641.6,490.329 1644.15,488.719 1646.7,487.11 1649.24,485.502 1651.79,483.894 
  1654.34,482.287 1656.89,480.681 1659.44,479.076 1661.99,477.471 1664.54,475.867 1667.09,474.263 1669.64,472.661 1672.19,471.059 1674.73,469.457 1677.28,467.856 
  1679.83,466.256 1682.38,464.656 1684.93,463.057 1687.48,461.459 1690.03,459.861 1692.58,458.264 1695.13,456.667 1697.68,455.07 1700.22,453.475 1702.77,451.879 
  1705.32,450.285 1707.87,448.69 1710.42,447.096 1712.97,445.503 1715.52,443.91 1718.07,442.317 1720.62,440.725 1723.16,439.133 1725.71,437.542 1728.26,435.951 
  1730.81,434.36 1733.36,432.77 1735.91,431.18 1738.46,429.591 1741.01,428.001 1743.56,426.412 1746.11,424.824 1748.65,423.235 1751.2,421.647 1753.75,420.06 
  1756.3,418.472 1758.85,416.885 1761.4,415.298 1763.95,413.711 1766.5,412.124 1769.05,410.538 1771.59,408.952 1774.14,407.366 1776.69,405.78 1779.24,404.195 
  1781.79,402.609 1784.34,401.024 1786.89,399.439 1789.44,397.854 1791.99,396.269 1794.54,394.685 1797.08,393.1 1799.63,391.516 1802.18,389.931 1804.73,388.347 
  1807.28,386.763 1809.83,385.179 1812.38,383.595 1814.93,382.011 1817.48,380.428 1820.02,378.844 1822.57,377.261 1825.12,375.677 1827.67,374.094 1830.22,372.51 
  1832.77,370.927 1835.32,369.344 1837.87,367.76 1840.42,366.177 1842.97,364.594 1845.51,363.011 1848.06,361.428 1850.61,359.845 1853.16,358.262 1855.71,356.679 
  1858.26,355.096 1860.81,353.513 1863.36,351.93 1865.91,350.347 1868.45,348.764 1871,347.181 1873.55,345.598 1876.1,344.015 1878.65,342.432 1881.2,340.849 
  1883.75,339.267 1886.3,337.684 1888.85,336.101 1891.4,334.518 1893.94,332.935 1896.49,331.352 1899.04,329.769 1901.59,328.186 1904.14,326.603 1906.69,325.021 
  1909.24,323.438 1911.79,321.855 1914.34,320.272 1916.89,318.689 1919.43,317.106 1921.98,315.523 1924.53,313.94 1927.08,312.357 1929.63,310.775 1932.18,309.192 
  1934.73,307.609 1937.28,306.026 1939.83,304.443 1942.37,302.86 1944.92,301.277 1947.47,299.694 1950.02,298.111 1952.57,296.529 1955.12,294.946 1957.67,293.363 
  1960.22,291.78 1962.77,290.197 1965.32,288.614 1967.86,287.031 1970.41,285.448 1972.96,283.865 1975.51,282.282 1978.06,280.7 1980.61,279.117 1983.16,277.534 
  1985.71,275.951 1988.26,274.368 1990.8,272.785 1993.35,271.202 1995.9,269.619 1998.45,268.036 2001,266.454 2003.55,264.871 2006.1,263.288 2008.65,261.705 
  2011.2,260.122 2013.75,258.539 2016.29,256.956 2018.84,255.373 2021.39,253.79 2023.94,252.208 2026.49,250.625 2029.04,249.042 2031.59,247.459 2034.14,245.876 
  2036.69,244.293 2039.23,242.71 2041.78,241.127 2044.33,239.544 2046.88,237.962 2049.43,236.379 2051.98,234.796 2054.53,233.213 2057.08,231.63 2059.63,230.047 
  2062.18,228.464 2064.72,226.881 2067.27,225.298 2069.82,223.715 2072.37,222.133 2074.92,220.55 2077.47,218.967 2080.02,217.384 2082.57,215.801 2085.12,214.218 
  2087.66,212.635 2090.21,211.052 2092.76,209.469 2095.31,207.887 2097.86,206.304 2100.41,204.721 2102.96,203.138 2105.51,201.555 2108.06,199.972 2110.61,198.389 
  2113.15,196.806 2115.7,195.223 2118.25,193.641 2120.8,192.058 2123.35,190.475 2125.9,188.892 2128.45,187.309 2131,185.726 2133.55,184.143 2136.09,182.56 
  2138.64,180.977 2141.19,179.394 2143.74,177.812 2146.29,176.229 2148.84,174.646 2151.39,173.063 2153.94,171.48 2156.49,169.897 2159.04,168.314 2161.58,166.731 
  2164.13,165.148 2166.68,163.566 2169.23,161.983 2171.78,160.4 2174.33,158.817 2176.88,157.234 2179.43,155.651 2181.98,154.068 2184.53,152.485 2187.07,150.902 
  2189.62,149.32 2192.17,147.737 2194.72,146.154 2197.27,144.571 2199.82,142.988 2202.37,141.405 2204.92,139.822 2207.47,138.239 2210.01,136.656 2212.56,135.074 
  2215.11,133.491 2217.66,131.908 2220.21,130.325 2222.76,128.742 2225.31,127.159 2227.86,125.576 2230.41,123.993 2232.96,122.41 2235.5,120.827 2238.05,119.245 
  2240.6,117.662 2243.15,116.079 2245.7,114.496 2248.25,112.913 2250.8,111.33 2253.35,109.747 2255.9,108.164 2258.44,106.581 2260.99,104.999 2263.54,103.416 
  2266.09,101.833 2268.64,100.25 2271.19,98.667 2273.74,97.0841 2276.29,95.5012 2278.84,93.9183 2281.39,92.3354 2283.93,90.7525 2286.48,89.1696 2289.03,87.5868 
  2291.58,86.0039 
  "/>
<polyline clip-path="url(#clip502)" style="stroke:#ac8d18; stroke-width:4; stroke-opacity:1; fill:none" points="
  252.419,630.317 254.968,631.894 257.517,633.47 260.066,635.046 262.615,636.623 265.164,638.199 267.713,639.776 270.262,641.352 272.811,642.928 275.36,644.505 
  277.908,646.081 280.457,647.657 283.006,649.234 285.555,650.81 288.104,652.386 290.653,653.963 293.202,655.539 295.751,657.116 298.3,658.692 300.849,660.268 
  303.398,661.845 305.947,663.421 308.496,664.997 311.045,666.574 313.594,668.15 316.143,669.726 318.692,671.303 321.241,672.879 323.79,674.456 326.339,676.032 
  328.888,677.608 331.436,679.185 333.985,680.761 336.534,682.337 339.083,683.914 341.632,685.49 344.181,687.067 346.73,688.643 349.279,690.219 351.828,691.796 
  354.377,693.372 356.926,694.948 359.475,696.525 362.024,698.101 364.573,699.677 367.122,701.254 369.671,702.83 372.22,704.407 374.769,705.983 377.318,707.559 
  379.867,709.136 382.416,710.712 384.964,712.288 387.513,713.865 390.062,715.441 392.611,717.017 395.16,718.594 397.709,720.17 400.258,721.747 402.807,723.323 
  405.356,724.899 407.905,726.476 410.454,728.052 413.003,729.628 415.552,731.205 418.101,732.781 420.65,734.357 423.199,735.934 425.748,737.51 428.297,739.087 
  430.846,740.663 433.395,742.239 435.944,743.816 438.492,745.392 441.041,746.968 443.59,748.545 446.139,750.121 448.688,751.698 451.237,753.274 453.786,754.85 
  456.335,756.427 458.884,758.003 461.433,759.579 463.982,761.156 466.531,762.732 469.08,764.308 471.629,765.885 474.178,767.461 476.727,769.038 479.276,770.614 
  481.825,772.19 484.374,773.767 486.923,775.343 489.472,776.919 492.021,778.496 494.569,780.072 497.118,781.648 499.667,783.225 502.216,784.801 504.765,786.378 
  507.314,787.954 509.863,789.53 512.412,791.107 514.961,792.683 517.51,794.259 520.059,795.836 522.608,797.412 525.157,798.988 527.706,800.565 530.255,802.141 
  532.804,803.718 535.353,805.294 537.902,806.87 540.451,808.447 543,810.023 545.549,811.599 548.097,813.176 550.646,814.752 553.195,816.328 555.744,817.905 
  558.293,819.481 560.842,821.058 563.391,822.634 565.94,824.21 568.489,825.787 571.038,827.363 573.587,828.939 576.136,830.516 578.685,832.092 581.234,833.669 
  583.783,835.245 586.332,836.821 588.881,838.398 591.43,839.974 593.979,841.55 596.528,843.127 599.077,844.703 601.625,846.279 604.174,847.856 606.723,849.432 
  609.272,851.009 611.821,852.585 614.37,854.161 616.919,855.738 619.468,857.314 622.017,858.89 624.566,860.467 627.115,862.043 629.664,863.619 632.213,865.196 
  634.762,866.772 637.311,868.349 639.86,869.925 642.409,871.501 644.958,873.078 647.507,874.654 650.056,876.23 652.605,877.807 655.153,879.383 657.702,880.959 
  660.251,882.535 662.8,884.111 665.349,885.685 667.898,887.259 670.447,888.832 672.996,890.402 675.545,891.972 678.094,893.539 680.643,895.104 683.192,896.667 
  685.741,898.226 688.29,899.783 690.839,901.337 693.388,902.887 695.937,904.433 698.486,905.974 701.035,907.51 703.584,909.04 706.133,910.563 708.681,912.08 
  711.23,913.591 713.779,915.095 716.328,916.595 718.877,918.09 721.426,919.581 723.975,921.07 726.524,922.556 729.073,924.042 731.622,925.527 734.171,927.012 
  736.72,928.499 739.269,929.987 741.818,931.479 744.367,932.973 746.916,934.472 749.465,935.976 752.014,937.486 754.563,939.003 757.112,940.526 759.661,942.059 
  762.209,943.6 764.758,945.15 767.307,946.711 769.856,948.281 772.405,949.86 774.954,951.449 777.503,953.045 780.052,954.65 782.601,956.263 785.15,957.883 
  787.699,959.51 790.248,961.144 792.797,962.784 795.346,964.429 797.895,966.078 800.444,967.73 802.993,969.384 805.542,971.039 808.091,972.694 810.64,974.347 
  813.189,975.997 815.737,977.644 818.286,979.286 820.835,980.923 823.384,982.553 825.933,984.174 828.482,985.787 831.031,987.39 833.58,988.981 836.129,990.56 
  838.678,992.124 841.227,993.672 843.776,995.201 846.325,996.71 848.874,998.197 851.423,999.662 853.972,1001.1 856.521,1002.52 859.07,1003.92 861.619,1005.29 
  864.168,1006.64 866.717,1007.96 869.265,1009.26 871.814,1010.53 874.363,1011.77 876.912,1012.99 879.461,1014.18 882.01,1015.34 884.559,1016.48 887.108,1017.6 
  889.657,1018.7 892.206,1019.77 894.755,1020.82 897.304,1021.85 899.853,1022.86 902.402,1023.85 904.951,1024.81 907.5,1025.75 910.049,1026.67 912.598,1027.56 
  915.147,1028.43 917.696,1029.28 920.245,1030.1 922.793,1030.9 925.342,1031.66 927.891,1032.4 930.44,1033.12 932.989,1033.8 935.538,1034.46 938.087,1035.09 
  940.636,1035.69 943.185,1036.26 945.734,1036.8 948.283,1037.31 950.832,1037.79 953.381,1038.24 955.93,1038.65 958.479,1039.03 961.028,1039.38 963.577,1039.7 
  966.126,1039.98 968.675,1040.23 971.224,1040.45 973.773,1040.63 976.321,1040.78 978.87,1040.9 981.419,1040.98 983.968,1041.03 986.517,1041.04 989.066,1041.02 
  991.615,1040.96 994.164,1040.87 996.713,1040.74 999.262,1040.58 1001.81,1040.37 1004.36,1040.13 1006.91,1039.85 1009.46,1039.52 1012.01,1039.16 1014.56,1038.76 
  1017.1,1038.32 1019.65,1037.83 1022.2,1037.31 1024.75,1036.74 1027.3,1036.12 1029.85,1035.46 1032.4,1034.76 1034.95,1034 1037.5,1033.2 1040.05,1032.35 
  1042.59,1031.45 1045.14,1030.5 1047.69,1029.5 1050.24,1028.44 1052.79,1027.32 1055.34,1026.15 1057.89,1024.93 1060.44,1023.64 1062.99,1022.29 1065.53,1020.89 
  1068.08,1019.42 1070.63,1017.89 1073.18,1016.3 1075.73,1014.64 1078.28,1012.92 1080.83,1011.14 1083.38,1009.3 1085.93,1007.4 1088.48,1005.43 1091.02,1003.4 
  1093.57,1001.3 1096.12,999.144 1098.67,996.923 1101.22,994.64 1103.77,992.294 1106.32,989.885 1108.87,987.414 1111.42,984.88 1113.96,982.285 1116.51,979.628 
  1119.06,976.911 1121.61,974.136 1124.16,971.302 1126.71,968.411 1129.26,965.465 1131.81,962.464 1134.36,959.41 1136.91,956.305 1139.45,953.148 1142,949.943 
  1144.55,946.689 1147.1,943.389 1149.65,940.044 1152.2,936.654 1154.75,933.222 1157.3,929.747 1159.85,926.229 1162.4,922.669 1164.94,919.066 1167.49,915.418 
  1170.04,911.727 1172.59,907.992 1175.14,904.212 1177.69,900.387 1180.24,896.517 1182.79,892.602 1185.34,888.643 1187.88,884.638 1190.43,880.588 1192.98,876.494 
  1195.53,872.354 1198.08,868.17 1200.63,863.943 1203.18,859.673 1205.73,855.362 1208.28,851.01 1210.83,846.62 1213.37,842.194 1215.92,837.733 1218.47,833.239 
  1221.02,828.714 1223.57,824.159 1226.12,819.577 1228.67,814.969 1231.22,810.337 1233.77,805.683 1236.31,801.008 1238.86,796.314 1241.41,791.603 1243.96,786.877 
  1246.51,782.138 1249.06,777.388 1251.61,772.628 1254.16,767.861 1256.71,763.088 1259.26,758.311 1261.8,753.532 1264.35,748.752 1266.9,743.974 1269.45,739.199 
  1272,734.428 1274.55,729.664 1277.1,724.908 1279.65,720.161 1282.2,715.426 1284.74,710.703 1287.29,705.996 1289.84,701.305 1292.39,696.632 1294.94,691.978 
  1297.49,687.345 1300.04,682.73 1302.59,678.135 1305.14,673.558 1307.69,669.001 1310.23,664.462 1312.78,659.943 1315.33,655.445 1317.88,650.966 1320.43,646.508 
  1322.98,642.071 1325.53,637.654 1328.08,633.259 1330.63,628.886 1333.17,624.535 1335.72,620.206 1338.27,615.899 1340.82,611.616 1343.37,607.357 1345.92,603.125 
  1348.47,598.92 1351.02,594.744 1353.57,590.598 1356.12,586.483 1358.66,582.4 1361.21,578.348 1363.76,574.329 1366.31,570.34 1368.86,566.383 1371.41,562.455 
  1373.96,558.557 1376.51,554.689 1379.06,550.852 1381.6,547.046 1384.15,543.272 1386.7,539.529 1389.25,535.818 1391.8,532.139 1394.35,528.493 1396.9,524.881 
  1399.45,521.302 1402,517.757 1404.55,514.248 1407.09,510.773 1409.64,507.334 1412.19,503.932 1414.74,500.565 1417.29,497.236 1419.84,493.945 1422.39,490.691 
  1424.94,487.475 1427.49,484.296 1430.04,481.154 1432.58,478.049 1435.13,474.981 1437.68,471.95 1440.23,468.957 1442.78,466.002 1445.33,463.086 1447.88,460.21 
  1450.43,457.376 1452.98,454.587 1455.52,451.845 1458.07,449.15 1460.62,446.506 1463.17,443.913 1465.72,441.375 1468.27,438.892 1470.82,436.468 1473.37,434.103 
  1475.92,431.8 1478.47,429.561 1481.01,427.388 1483.56,425.282 1486.11,423.245 1488.66,421.281 1491.21,419.389 1493.76,417.573 1496.31,415.832 1498.86,414.167 
  1501.41,412.581 1503.95,411.073 1506.5,409.644 1509.05,408.295 1511.6,407.027 1514.15,405.841 1516.7,404.736 1519.25,403.713 1521.8,402.771 1524.35,401.908 
  1526.9,401.123 1529.44,400.417 1531.99,399.787 1534.54,399.233 1537.09,398.754 1539.64,398.35 1542.19,398.018 1544.74,397.759 1547.29,397.572 1549.84,397.455 
  1552.38,397.407 1554.93,397.428 1557.48,397.515 1560.03,397.667 1562.58,397.884 1565.13,398.164 1567.68,398.505 1570.23,398.907 1572.78,399.368 1575.33,399.887 
  1577.87,400.463 1580.42,401.094 1582.97,401.779 1585.52,402.517 1588.07,403.306 1590.62,404.145 1593.17,405.033 1595.72,405.968 1598.27,406.95 1600.81,407.977 
  1603.36,409.047 1605.91,410.159 1608.46,411.312 1611.01,412.504 1613.56,413.734 1616.11,415 1618.66,416.299 1621.21,417.632 1623.76,418.997 1626.3,420.394 
  1628.85,421.822 1631.4,423.279 1633.95,424.767 1636.5,426.283 1639.05,427.827 1641.6,429.399 1644.15,430.996 1646.7,432.619 1649.24,434.264 1651.79,435.93 
  1654.34,437.615 1656.89,439.317 1659.44,441.033 1661.99,442.763 1664.54,444.503 1667.09,446.251 1669.64,448.007 1672.19,449.767 1674.73,451.53 1677.28,453.293 
  1679.83,455.056 1682.38,456.817 1684.93,458.575 1687.48,460.328 1690.03,462.076 1692.58,463.817 1695.13,465.55 1697.68,467.273 1700.22,468.987 1702.77,470.688 
  1705.32,472.377 1707.87,474.051 1710.42,475.711 1712.97,477.354 1715.52,478.979 1718.07,480.586 1720.62,482.173 1723.16,483.738 1725.71,485.282 1728.26,486.801 
  1730.81,488.295 1733.36,489.762 1735.91,491.203 1738.46,492.616 1741.01,494.001 1743.56,495.357 1746.11,496.685 1748.65,497.983 1751.2,499.251 1753.75,500.49 
  1756.3,501.698 1758.85,502.875 1761.4,504.02 1763.95,505.133 1766.5,506.213 1769.05,507.26 1771.59,508.272 1774.14,509.249 1776.69,510.189 1779.24,511.093 
  1781.79,511.961 1784.34,512.794 1786.89,513.592 1789.44,514.357 1791.99,515.088 1794.54,515.786 1797.08,516.453 1799.63,517.088 1802.18,517.693 1804.73,518.27 
  1807.28,518.817 1809.83,519.337 1812.38,519.83 1814.93,520.298 1817.48,520.74 1820.02,521.158 1822.57,521.552 1825.12,521.924 1827.67,522.274 1830.22,522.604 
  1832.77,522.913 1835.32,523.205 1837.87,523.479 1840.42,523.736 1842.97,523.979 1845.51,524.207 1848.06,524.422 1850.61,524.626 1853.16,524.818 1855.71,525.001 
  1858.26,525.175 1860.81,525.342 1863.36,525.502 1865.91,525.657 1868.45,525.807 1871,525.955 1873.55,526.1 1876.1,526.244 1878.65,526.386 1881.2,526.527 
  1883.75,526.667 1886.3,526.807 1888.85,526.946 1891.4,527.086 1893.94,527.225 1896.49,527.365 1899.04,527.504 1901.59,527.644 1904.14,527.784 1906.69,527.923 
  1909.24,528.063 1911.79,528.202 1914.34,528.342 1916.89,528.481 1919.43,528.621 1921.98,528.761 1924.53,528.9 1927.08,529.04 1929.63,529.179 1932.18,529.319 
  1934.73,529.458 1937.28,529.598 1939.83,529.737 1942.37,529.877 1944.92,530.017 1947.47,530.156 1950.02,530.296 1952.57,530.435 1955.12,530.575 1957.67,530.714 
  1960.22,530.854 1962.77,530.993 1965.32,531.133 1967.86,531.273 1970.41,531.412 1972.96,531.552 1975.51,531.691 1978.06,531.831 1980.61,531.97 1983.16,532.11 
  1985.71,532.25 1988.26,532.389 1990.8,532.529 1993.35,532.668 1995.9,532.808 1998.45,532.947 2001,533.087 2003.55,533.226 2006.1,533.366 2008.65,533.506 
  2011.2,533.645 2013.75,533.785 2016.29,533.924 2018.84,534.064 2021.39,534.203 2023.94,534.343 2026.49,534.482 2029.04,534.622 2031.59,534.762 2034.14,534.901 
  2036.69,535.041 2039.23,535.18 2041.78,535.32 2044.33,535.459 2046.88,535.599 2049.43,535.739 2051.98,535.878 2054.53,536.018 2057.08,536.157 2059.63,536.297 
  2062.18,536.436 2064.72,536.576 2067.27,536.715 2069.82,536.855 2072.37,536.995 2074.92,537.134 2077.47,537.274 2080.02,537.413 2082.57,537.553 2085.12,537.692 
  2087.66,537.832 2090.21,537.972 2092.76,538.111 2095.31,538.251 2097.86,538.39 2100.41,538.53 2102.96,538.669 2105.51,538.809 2108.06,538.948 2110.61,539.088 
  2113.15,539.228 2115.7,539.367 2118.25,539.507 2120.8,539.646 2123.35,539.786 2125.9,539.925 2128.45,540.065 2131,540.204 2133.55,540.344 2136.09,540.484 
  2138.64,540.623 2141.19,540.763 2143.74,540.902 2146.29,541.042 2148.84,541.181 2151.39,541.321 2153.94,541.461 2156.49,541.6 2159.04,541.74 2161.58,541.879 
  2164.13,542.019 2166.68,542.158 2169.23,542.298 2171.78,542.437 2174.33,542.577 2176.88,542.717 2179.43,542.856 2181.98,542.996 2184.53,543.135 2187.07,543.275 
  2189.62,543.414 2192.17,543.554 2194.72,543.693 2197.27,543.833 2199.82,543.973 2202.37,544.112 2204.92,544.252 2207.47,544.391 2210.01,544.531 2212.56,544.67 
  2215.11,544.81 2217.66,544.95 2220.21,545.089 2222.76,545.229 2225.31,545.368 2227.86,545.508 2230.41,545.647 2232.96,545.787 2235.5,545.926 2238.05,546.066 
  2240.6,546.206 2243.15,546.345 2245.7,546.485 2248.25,546.624 2250.8,546.764 2253.35,546.903 2255.9,547.043 2258.44,547.183 2260.99,547.322 2263.54,547.462 
  2266.09,547.601 2268.64,547.741 2271.19,547.88 2273.74,548.02 2276.29,548.159 2278.84,548.299 2281.39,548.439 2283.93,548.578 2286.48,548.718 2289.03,548.857 
  2291.58,548.997 
  "/>
<path clip-path="url(#clip500)" d="
M1851.85 395.294 L2280.71 395.294 L2280.71 92.8945 L1851.85 92.8945  Z
  " fill="#ffffff" fill-rule="evenodd" fill-opacity="1"/>
<polyline clip-path="url(#clip500)" style="stroke:#000000; stroke-width:4; stroke-opacity:1; fill:none" points="
  1851.85,395.294 2280.71,395.294 2280.71,92.8945 1851.85,92.8945 1851.85,395.294 
  "/>
<polyline clip-path="url(#clip500)" style="stroke:#e26f46; stroke-width:4; stroke-opacity:1; fill:none" points="
  1875.87,153.374 2019.97,153.374 
  "/>
<g clip-path="url(#clip500)">
<text style="fill:#000000; fill-opacity:1; font-family:Arial,Helvetica Neue,Helvetica,sans-serif; font-size:48px; text-anchor:start;" transform="rotate(0, 2043.99, 170.874)" x="2043.99" y="170.874">λ = 40</text>
</g>
<polyline clip-path="url(#clip500)" style="stroke:#3da44d; stroke-width:4; stroke-opacity:1; fill:none" points="
  1875.87,213.854 2019.97,213.854 
  "/>
<g clip-path="url(#clip500)">
<text style="fill:#000000; fill-opacity:1; font-family:Arial,Helvetica Neue,Helvetica,sans-serif; font-size:48px; text-anchor:start;" transform="rotate(0, 2043.99, 231.354)" x="2043.99" y="231.354">λ = 400</text>
</g>
<polyline clip-path="url(#clip500)" style="stroke:#c271d2; stroke-width:4; stroke-opacity:1; fill:none" points="
  1875.87,274.334 2019.97,274.334 
  "/>
<g clip-path="url(#clip500)">
<text style="fill:#000000; fill-opacity:1; font-family:Arial,Helvetica Neue,Helvetica,sans-serif; font-size:48px; text-anchor:start;" transform="rotate(0, 2043.99, 291.834)" x="2043.99" y="291.834">λ = 1000</text>
</g>
<polyline clip-path="url(#clip500)" style="stroke:#ac8d18; stroke-width:4; stroke-opacity:1; fill:none" points="
  1875.87,334.814 2019.97,334.814 
  "/>
<g clip-path="url(#clip500)">
<text style="fill:#000000; fill-opacity:1; font-family:Arial,Helvetica Neue,Helvetica,sans-serif; font-size:48px; text-anchor:start;" transform="rotate(0, 2043.99, 352.314)" x="2043.99" y="352.314">λ = 1</text>
</g>
</svg>
