<?xml version="1.0" encoding="utf-8"?>
<svg xmlns="http://www.w3.org/2000/svg" xmlns:xlink="http://www.w3.org/1999/xlink" width="600" height="400" viewBox="0 0 2400 1600">
<defs>
  <clipPath id="clip470">
    <rect x="0" y="0" width="2400" height="1600"/>
  </clipPath>
</defs>
<path clip-path="url(#clip470)" d="
M0 1600 L2400 1600 L2400 0 L0 0  Z
  " fill="#ffffff" fill-rule="evenodd" fill-opacity="1"/>
<defs>
  <clipPath id="clip471">
    <rect x="480" y="0" width="1681" height="1600"/>
  </clipPath>
</defs>
<path clip-path="url(#clip470)" d="
M206.992 601.008 L2352.76 601.008 L2352.76 62.9921 L206.992 62.9921  Z
  " fill="#ffffff" fill-rule="evenodd" fill-opacity="1"/>
<defs>
  <clipPath id="clip472">
    <rect x="206" y="62" width="2147" height="539"/>
  </clipPath>
</defs>
<polyline clip-path="url(#clip472)" style="stroke:#000000; stroke-width:2; stroke-opacity:0.1; fill:none" points="
  513.53,601.008 513.53,62.9921 
  "/>
<polyline clip-path="url(#clip472)" style="stroke:#000000; stroke-width:2; stroke-opacity:0.1; fill:none" points="
  896.702,601.008 896.702,62.9921 
  "/>
<polyline clip-path="url(#clip472)" style="stroke:#000000; stroke-width:2; stroke-opacity:0.1; fill:none" points="
  1279.87,601.008 1279.87,62.9921 
  "/>
<polyline clip-path="url(#clip472)" style="stroke:#000000; stroke-width:2; stroke-opacity:0.1; fill:none" points="
  1663.05,601.008 1663.05,62.9921 
  "/>
<polyline clip-path="url(#clip472)" style="stroke:#000000; stroke-width:2; stroke-opacity:0.1; fill:none" points="
  2046.22,601.008 2046.22,62.9921 
  "/>
<polyline clip-path="url(#clip470)" style="stroke:#000000; stroke-width:4; stroke-opacity:1; fill:none" points="
  206.992,601.008 2352.76,601.008 
  "/>
<polyline clip-path="url(#clip470)" style="stroke:#000000; stroke-width:4; stroke-opacity:1; fill:none" points="
  513.53,601.008 513.53,594.552 
  "/>
<polyline clip-path="url(#clip470)" style="stroke:#000000; stroke-width:4; stroke-opacity:1; fill:none" points="
  896.702,601.008 896.702,594.552 
  "/>
<polyline clip-path="url(#clip470)" style="stroke:#000000; stroke-width:4; stroke-opacity:1; fill:none" points="
  1279.87,601.008 1279.87,594.552 
  "/>
<polyline clip-path="url(#clip470)" style="stroke:#000000; stroke-width:4; stroke-opacity:1; fill:none" points="
  1663.05,601.008 1663.05,594.552 
  "/>
<polyline clip-path="url(#clip470)" style="stroke:#000000; stroke-width:4; stroke-opacity:1; fill:none" points="
  2046.22,601.008 2046.22,594.552 
  "/>
<g clip-path="url(#clip470)">
<text style="fill:#000000; fill-opacity:1; font-family:Arial,Helvetica Neue,Helvetica,sans-serif; font-size:48px; text-anchor:middle;" transform="rotate(0, 513.53, 662.208)" x="513.53" y="662.208">−5.0</text>
</g>
<g clip-path="url(#clip470)">
<text style="fill:#000000; fill-opacity:1; font-family:Arial,Helvetica Neue,Helvetica,sans-serif; font-size:48px; text-anchor:middle;" transform="rotate(0, 896.702, 662.208)" x="896.702" y="662.208">−2.5</text>
</g>
<g clip-path="url(#clip470)">
<text style="fill:#000000; fill-opacity:1; font-family:Arial,Helvetica Neue,Helvetica,sans-serif; font-size:48px; text-anchor:middle;" transform="rotate(0, 1279.87, 662.208)" x="1279.87" y="662.208">0.0</text>
</g>
<g clip-path="url(#clip470)">
<text style="fill:#000000; fill-opacity:1; font-family:Arial,Helvetica Neue,Helvetica,sans-serif; font-size:48px; text-anchor:middle;" transform="rotate(0, 1663.05, 662.208)" x="1663.05" y="662.208">2.5</text>
</g>
<g clip-path="url(#clip470)">
<text style="fill:#000000; fill-opacity:1; font-family:Arial,Helvetica Neue,Helvetica,sans-serif; font-size:48px; text-anchor:middle;" transform="rotate(0, 2046.22, 662.208)" x="2046.22" y="662.208">5.0</text>
</g>
<g clip-path="url(#clip470)">
<text style="fill:#000000; fill-opacity:1; font-family:Arial,Helvetica Neue,Helvetica,sans-serif; font-size:66px; text-anchor:middle;" transform="rotate(0, 1279.87, 734.87)" x="1279.87" y="734.87">x</text>
</g>
<polyline clip-path="url(#clip472)" style="stroke:#000000; stroke-width:2; stroke-opacity:0.1; fill:none" points="
  206.992,551.387 2352.76,551.387 
  "/>
<polyline clip-path="url(#clip472)" style="stroke:#000000; stroke-width:2; stroke-opacity:0.1; fill:none" points="
  206.992,450.794 2352.76,450.794 
  "/>
<polyline clip-path="url(#clip472)" style="stroke:#000000; stroke-width:2; stroke-opacity:0.1; fill:none" points="
  206.992,350.201 2352.76,350.201 
  "/>
<polyline clip-path="url(#clip472)" style="stroke:#000000; stroke-width:2; stroke-opacity:0.1; fill:none" points="
  206.992,249.609 2352.76,249.609 
  "/>
<polyline clip-path="url(#clip472)" style="stroke:#000000; stroke-width:2; stroke-opacity:0.1; fill:none" points="
  206.992,149.016 2352.76,149.016 
  "/>
<polyline clip-path="url(#clip470)" style="stroke:#000000; stroke-width:4; stroke-opacity:1; fill:none" points="
  206.992,601.008 206.992,62.9921 
  "/>
<polyline clip-path="url(#clip470)" style="stroke:#000000; stroke-width:4; stroke-opacity:1; fill:none" points="
  206.992,551.387 232.741,551.387 
  "/>
<polyline clip-path="url(#clip470)" style="stroke:#000000; stroke-width:4; stroke-opacity:1; fill:none" points="
  206.992,450.794 232.741,450.794 
  "/>
<polyline clip-path="url(#clip470)" style="stroke:#000000; stroke-width:4; stroke-opacity:1; fill:none" points="
  206.992,350.201 232.741,350.201 
  "/>
<polyline clip-path="url(#clip470)" style="stroke:#000000; stroke-width:4; stroke-opacity:1; fill:none" points="
  206.992,249.609 232.741,249.609 
  "/>
<polyline clip-path="url(#clip470)" style="stroke:#000000; stroke-width:4; stroke-opacity:1; fill:none" points="
  206.992,149.016 232.741,149.016 
  "/>
<g clip-path="url(#clip470)">
<text style="fill:#000000; fill-opacity:1; font-family:Arial,Helvetica Neue,Helvetica,sans-serif; font-size:48px; text-anchor:end;" transform="rotate(0, 170.992, 568.887)" x="170.992" y="568.887">−1.0</text>
</g>
<g clip-path="url(#clip470)">
<text style="fill:#000000; fill-opacity:1; font-family:Arial,Helvetica Neue,Helvetica,sans-serif; font-size:48px; text-anchor:end;" transform="rotate(0, 170.992, 468.294)" x="170.992" y="468.294">−0.5</text>
</g>
<g clip-path="url(#clip470)">
<text style="fill:#000000; fill-opacity:1; font-family:Arial,Helvetica Neue,Helvetica,sans-serif; font-size:48px; text-anchor:end;" transform="rotate(0, 170.992, 367.701)" x="170.992" y="367.701">0.0</text>
</g>
<g clip-path="url(#clip470)">
<text style="fill:#000000; fill-opacity:1; font-family:Arial,Helvetica Neue,Helvetica,sans-serif; font-size:48px; text-anchor:end;" transform="rotate(0, 170.992, 267.109)" x="170.992" y="267.109">0.5</text>
</g>
<g clip-path="url(#clip470)">
<text style="fill:#000000; fill-opacity:1; font-family:Arial,Helvetica Neue,Helvetica,sans-serif; font-size:48px; text-anchor:end;" transform="rotate(0, 170.992, 166.516)" x="170.992" y="166.516">1.0</text>
</g>
<g clip-path="url(#clip470)">
<text style="fill:#000000; fill-opacity:1; font-family:Arial,Helvetica Neue,Helvetica,sans-serif; font-size:66px; text-anchor:middle;" transform="rotate(-90, 53.7618, 332)" x="53.7618" y="332">f(x),g(x)</text>
</g>
<g clip-path="url(#clip470)">
<text style="fill:#000000; fill-opacity:1; font-family:Arial,Helvetica Neue,Helvetica,sans-serif; font-size:84px; text-anchor:middle;" transform="rotate(0, 1279.87, 73.2)" x="1279.87" y="73.2">K=6</text>
</g>
<circle clip-path="url(#clip472)" cx="1722.3" cy="235.044" r="14" fill="#009af9" fill-rule="evenodd" fill-opacity="1" stroke="#000000" stroke-opacity="1" stroke-width="3.2"/>
<circle clip-path="url(#clip472)" cx="897.866" cy="530.487" r="14" fill="#009af9" fill-rule="evenodd" fill-opacity="1" stroke="#000000" stroke-opacity="1" stroke-width="3.2"/>
<circle clip-path="url(#clip472)" cx="639.745" cy="145.005" r="14" fill="#009af9" fill-rule="evenodd" fill-opacity="1" stroke="#000000" stroke-opacity="1" stroke-width="3.2"/>
<circle clip-path="url(#clip472)" cx="2224.56" cy="338.155" r="14" fill="#009af9" fill-rule="evenodd" fill-opacity="1" stroke="#000000" stroke-opacity="1" stroke-width="3.2"/>
<circle clip-path="url(#clip472)" cx="1207.18" cy="469.923" r="14" fill="#009af9" fill-rule="evenodd" fill-opacity="1" stroke="#000000" stroke-opacity="1" stroke-width="3.2"/>
<circle clip-path="url(#clip472)" cx="1543.56" cy="211.972" r="14" fill="#009af9" fill-rule="evenodd" fill-opacity="1" stroke="#000000" stroke-opacity="1" stroke-width="3.2"/>
<circle clip-path="url(#clip472)" cx="1092.83" cy="569.52" r="14" fill="#009af9" fill-rule="evenodd" fill-opacity="1" stroke="#000000" stroke-opacity="1" stroke-width="3.2"/>
<circle clip-path="url(#clip472)" cx="953.059" cy="515.843" r="14" fill="#009af9" fill-rule="evenodd" fill-opacity="1" stroke="#000000" stroke-opacity="1" stroke-width="3.2"/>
<circle clip-path="url(#clip472)" cx="467.206" cy="173.25" r="14" fill="#009af9" fill-rule="evenodd" fill-opacity="1" stroke="#000000" stroke-opacity="1" stroke-width="3.2"/>
<circle clip-path="url(#clip472)" cx="423.814" cy="229.909" r="14" fill="#009af9" fill-rule="evenodd" fill-opacity="1" stroke="#000000" stroke-opacity="1" stroke-width="3.2"/>
<circle clip-path="url(#clip472)" cx="1594.99" cy="189.951" r="14" fill="#009af9" fill-rule="evenodd" fill-opacity="1" stroke="#000000" stroke-opacity="1" stroke-width="3.2"/>
<circle clip-path="url(#clip472)" cx="1850.37" cy="531.848" r="14" fill="#009af9" fill-rule="evenodd" fill-opacity="1" stroke="#000000" stroke-opacity="1" stroke-width="3.2"/>
<circle clip-path="url(#clip472)" cx="1634.27" cy="175.607" r="14" fill="#009af9" fill-rule="evenodd" fill-opacity="1" stroke="#000000" stroke-opacity="1" stroke-width="3.2"/>
<circle clip-path="url(#clip472)" cx="1009.14" cy="531.547" r="14" fill="#009af9" fill-rule="evenodd" fill-opacity="1" stroke="#000000" stroke-opacity="1" stroke-width="3.2"/>
<circle clip-path="url(#clip472)" cx="572.167" cy="141.441" r="14" fill="#009af9" fill-rule="evenodd" fill-opacity="1" stroke="#000000" stroke-opacity="1" stroke-width="3.2"/>
<circle clip-path="url(#clip472)" cx="588.996" cy="112.395" r="14" fill="#009af9" fill-rule="evenodd" fill-opacity="1" stroke="#000000" stroke-opacity="1" stroke-width="3.2"/>
<circle clip-path="url(#clip472)" cx="533.469" cy="136.349" r="14" fill="#009af9" fill-rule="evenodd" fill-opacity="1" stroke="#000000" stroke-opacity="1" stroke-width="3.2"/>
<circle clip-path="url(#clip472)" cx="336.562" cy="355.229" r="14" fill="#009af9" fill-rule="evenodd" fill-opacity="1" stroke="#000000" stroke-opacity="1" stroke-width="3.2"/>
<circle clip-path="url(#clip472)" cx="1530.65" cy="157.46" r="14" fill="#009af9" fill-rule="evenodd" fill-opacity="1" stroke="#000000" stroke-opacity="1" stroke-width="3.2"/>
<circle clip-path="url(#clip472)" cx="828.711" cy="329.661" r="14" fill="#009af9" fill-rule="evenodd" fill-opacity="1" stroke="#000000" stroke-opacity="1" stroke-width="3.2"/>
<circle clip-path="url(#clip472)" cx="431.555" cy="212.409" r="14" fill="#009af9" fill-rule="evenodd" fill-opacity="1" stroke="#000000" stroke-opacity="1" stroke-width="3.2"/>
<circle clip-path="url(#clip472)" cx="1547.33" cy="151.089" r="14" fill="#009af9" fill-rule="evenodd" fill-opacity="1" stroke="#000000" stroke-opacity="1" stroke-width="3.2"/>
<circle clip-path="url(#clip472)" cx="2033.2" cy="568.268" r="14" fill="#009af9" fill-rule="evenodd" fill-opacity="1" stroke="#000000" stroke-opacity="1" stroke-width="3.2"/>
<circle clip-path="url(#clip472)" cx="441.032" cy="269.689" r="14" fill="#009af9" fill-rule="evenodd" fill-opacity="1" stroke="#000000" stroke-opacity="1" stroke-width="3.2"/>
<circle clip-path="url(#clip472)" cx="1612.82" cy="157.582" r="14" fill="#009af9" fill-rule="evenodd" fill-opacity="1" stroke="#000000" stroke-opacity="1" stroke-width="3.2"/>
<circle clip-path="url(#clip472)" cx="1129.78" cy="454.792" r="14" fill="#009af9" fill-rule="evenodd" fill-opacity="1" stroke="#000000" stroke-opacity="1" stroke-width="3.2"/>
<circle clip-path="url(#clip472)" cx="318.444" cy="346.85" r="14" fill="#009af9" fill-rule="evenodd" fill-opacity="1" stroke="#000000" stroke-opacity="1" stroke-width="3.2"/>
<circle clip-path="url(#clip472)" cx="1344.35" cy="284.494" r="14" fill="#009af9" fill-rule="evenodd" fill-opacity="1" stroke="#000000" stroke-opacity="1" stroke-width="3.2"/>
<circle clip-path="url(#clip472)" cx="431.915" cy="189.286" r="14" fill="#009af9" fill-rule="evenodd" fill-opacity="1" stroke="#000000" stroke-opacity="1" stroke-width="3.2"/>
<circle clip-path="url(#clip472)" cx="1035.49" cy="512.105" r="14" fill="#009af9" fill-rule="evenodd" fill-opacity="1" stroke="#000000" stroke-opacity="1" stroke-width="3.2"/>
<circle clip-path="url(#clip472)" cx="2063.8" cy="547.31" r="14" fill="#009af9" fill-rule="evenodd" fill-opacity="1" stroke="#000000" stroke-opacity="1" stroke-width="3.2"/>
<circle clip-path="url(#clip472)" cx="948.215" cy="504.198" r="14" fill="#009af9" fill-rule="evenodd" fill-opacity="1" stroke="#000000" stroke-opacity="1" stroke-width="3.2"/>
<circle clip-path="url(#clip472)" cx="1046.34" cy="563.303" r="14" fill="#009af9" fill-rule="evenodd" fill-opacity="1" stroke="#000000" stroke-opacity="1" stroke-width="3.2"/>
<circle clip-path="url(#clip472)" cx="1678.03" cy="246.072" r="14" fill="#009af9" fill-rule="evenodd" fill-opacity="1" stroke="#000000" stroke-opacity="1" stroke-width="3.2"/>
<circle clip-path="url(#clip472)" cx="1060.68" cy="463.045" r="14" fill="#009af9" fill-rule="evenodd" fill-opacity="1" stroke="#000000" stroke-opacity="1" stroke-width="3.2"/>
<circle clip-path="url(#clip472)" cx="1100.9" cy="534.925" r="14" fill="#009af9" fill-rule="evenodd" fill-opacity="1" stroke="#000000" stroke-opacity="1" stroke-width="3.2"/>
<circle clip-path="url(#clip472)" cx="1490.5" cy="200.933" r="14" fill="#009af9" fill-rule="evenodd" fill-opacity="1" stroke="#000000" stroke-opacity="1" stroke-width="3.2"/>
<circle clip-path="url(#clip472)" cx="1080.26" cy="552.145" r="14" fill="#009af9" fill-rule="evenodd" fill-opacity="1" stroke="#000000" stroke-opacity="1" stroke-width="3.2"/>
<circle clip-path="url(#clip472)" cx="1309.5" cy="342.863" r="14" fill="#009af9" fill-rule="evenodd" fill-opacity="1" stroke="#000000" stroke-opacity="1" stroke-width="3.2"/>
<circle clip-path="url(#clip472)" cx="1698.47" cy="238.308" r="14" fill="#009af9" fill-rule="evenodd" fill-opacity="1" stroke="#000000" stroke-opacity="1" stroke-width="3.2"/>
<circle clip-path="url(#clip472)" cx="977.142" cy="494.865" r="14" fill="#009af9" fill-rule="evenodd" fill-opacity="1" stroke="#000000" stroke-opacity="1" stroke-width="3.2"/>
<circle clip-path="url(#clip472)" cx="751.305" cy="318.46" r="14" fill="#009af9" fill-rule="evenodd" fill-opacity="1" stroke="#000000" stroke-opacity="1" stroke-width="3.2"/>
<circle clip-path="url(#clip472)" cx="667.53" cy="259.771" r="14" fill="#009af9" fill-rule="evenodd" fill-opacity="1" stroke="#000000" stroke-opacity="1" stroke-width="3.2"/>
<circle clip-path="url(#clip472)" cx="1921" cy="585.781" r="14" fill="#009af9" fill-rule="evenodd" fill-opacity="1" stroke="#000000" stroke-opacity="1" stroke-width="3.2"/>
<circle clip-path="url(#clip472)" cx="393.637" cy="247.104" r="14" fill="#009af9" fill-rule="evenodd" fill-opacity="1" stroke="#000000" stroke-opacity="1" stroke-width="3.2"/>
<circle clip-path="url(#clip472)" cx="1138.92" cy="532.675" r="14" fill="#009af9" fill-rule="evenodd" fill-opacity="1" stroke="#000000" stroke-opacity="1" stroke-width="3.2"/>
<circle clip-path="url(#clip472)" cx="1162.02" cy="581.134" r="14" fill="#009af9" fill-rule="evenodd" fill-opacity="1" stroke="#000000" stroke-opacity="1" stroke-width="3.2"/>
<circle clip-path="url(#clip472)" cx="2090.45" cy="506.168" r="14" fill="#009af9" fill-rule="evenodd" fill-opacity="1" stroke="#000000" stroke-opacity="1" stroke-width="3.2"/>
<circle clip-path="url(#clip472)" cx="795.582" cy="351.263" r="14" fill="#009af9" fill-rule="evenodd" fill-opacity="1" stroke="#000000" stroke-opacity="1" stroke-width="3.2"/>
<circle clip-path="url(#clip472)" cx="2267.29" cy="313.955" r="14" fill="#009af9" fill-rule="evenodd" fill-opacity="1" stroke="#000000" stroke-opacity="1" stroke-width="3.2"/>
<circle clip-path="url(#clip472)" cx="260.387" cy="339.043" r="14" fill="#009af9" fill-rule="evenodd" fill-opacity="1" stroke="#000000" stroke-opacity="1" stroke-width="3.2"/>
<circle clip-path="url(#clip472)" cx="1451.74" cy="160.229" r="14" fill="#009af9" fill-rule="evenodd" fill-opacity="1" stroke="#000000" stroke-opacity="1" stroke-width="3.2"/>
<circle clip-path="url(#clip472)" cx="284.662" cy="434.374" r="14" fill="#009af9" fill-rule="evenodd" fill-opacity="1" stroke="#000000" stroke-opacity="1" stroke-width="3.2"/>
<circle clip-path="url(#clip472)" cx="986.673" cy="519.268" r="14" fill="#009af9" fill-rule="evenodd" fill-opacity="1" stroke="#000000" stroke-opacity="1" stroke-width="3.2"/>
<circle clip-path="url(#clip472)" cx="2097.45" cy="567.683" r="14" fill="#009af9" fill-rule="evenodd" fill-opacity="1" stroke="#000000" stroke-opacity="1" stroke-width="3.2"/>
<circle clip-path="url(#clip472)" cx="1265.16" cy="413.014" r="14" fill="#009af9" fill-rule="evenodd" fill-opacity="1" stroke="#000000" stroke-opacity="1" stroke-width="3.2"/>
<circle clip-path="url(#clip472)" cx="638.13" cy="166.619" r="14" fill="#009af9" fill-rule="evenodd" fill-opacity="1" stroke="#000000" stroke-opacity="1" stroke-width="3.2"/>
<circle clip-path="url(#clip472)" cx="1586" cy="172.679" r="14" fill="#009af9" fill-rule="evenodd" fill-opacity="1" stroke="#000000" stroke-opacity="1" stroke-width="3.2"/>
<circle clip-path="url(#clip472)" cx="1669.92" cy="184.444" r="14" fill="#009af9" fill-rule="evenodd" fill-opacity="1" stroke="#000000" stroke-opacity="1" stroke-width="3.2"/>
<circle clip-path="url(#clip472)" cx="377.681" cy="291.059" r="14" fill="#009af9" fill-rule="evenodd" fill-opacity="1" stroke="#000000" stroke-opacity="1" stroke-width="3.2"/>
<circle clip-path="url(#clip472)" cx="1980.12" cy="574.418" r="14" fill="#009af9" fill-rule="evenodd" fill-opacity="1" stroke="#000000" stroke-opacity="1" stroke-width="3.2"/>
<circle clip-path="url(#clip472)" cx="897.831" cy="442.272" r="14" fill="#009af9" fill-rule="evenodd" fill-opacity="1" stroke="#000000" stroke-opacity="1" stroke-width="3.2"/>
<circle clip-path="url(#clip472)" cx="2296.25" cy="300.544" r="14" fill="#009af9" fill-rule="evenodd" fill-opacity="1" stroke="#000000" stroke-opacity="1" stroke-width="3.2"/>
<circle clip-path="url(#clip472)" cx="573.057" cy="194.14" r="14" fill="#009af9" fill-rule="evenodd" fill-opacity="1" stroke="#000000" stroke-opacity="1" stroke-width="3.2"/>
<circle clip-path="url(#clip472)" cx="1722.28" cy="262.746" r="14" fill="#009af9" fill-rule="evenodd" fill-opacity="1" stroke="#000000" stroke-opacity="1" stroke-width="3.2"/>
<circle clip-path="url(#clip472)" cx="1933.23" cy="439.012" r="14" fill="#009af9" fill-rule="evenodd" fill-opacity="1" stroke="#000000" stroke-opacity="1" stroke-width="3.2"/>
<circle clip-path="url(#clip472)" cx="1556.43" cy="116.86" r="14" fill="#009af9" fill-rule="evenodd" fill-opacity="1" stroke="#000000" stroke-opacity="1" stroke-width="3.2"/>
<circle clip-path="url(#clip472)" cx="2308.53" cy="185.938" r="14" fill="#009af9" fill-rule="evenodd" fill-opacity="1" stroke="#000000" stroke-opacity="1" stroke-width="3.2"/>
<circle clip-path="url(#clip472)" cx="984.346" cy="553.937" r="14" fill="#009af9" fill-rule="evenodd" fill-opacity="1" stroke="#000000" stroke-opacity="1" stroke-width="3.2"/>
<circle clip-path="url(#clip472)" cx="1074.21" cy="498.018" r="14" fill="#009af9" fill-rule="evenodd" fill-opacity="1" stroke="#000000" stroke-opacity="1" stroke-width="3.2"/>
<circle clip-path="url(#clip472)" cx="1122.22" cy="574.703" r="14" fill="#009af9" fill-rule="evenodd" fill-opacity="1" stroke="#000000" stroke-opacity="1" stroke-width="3.2"/>
<circle clip-path="url(#clip472)" cx="410.284" cy="211.874" r="14" fill="#009af9" fill-rule="evenodd" fill-opacity="1" stroke="#000000" stroke-opacity="1" stroke-width="3.2"/>
<polyline clip-path="url(#clip472)" style="stroke:#e26f46; stroke-width:4; stroke-opacity:1; fill:none" points="
  360.261,310.215 363.326,309.577 366.392,308.929 369.457,308.27 372.522,307.601 375.588,306.92 378.653,306.228 381.719,305.525 384.784,304.811 387.849,304.086 
  390.915,303.35 393.98,302.603 397.045,301.845 400.111,301.075 403.176,300.294 406.242,299.501 409.307,298.697 412.372,297.882 415.438,297.055 418.503,296.216 
  421.569,295.367 424.634,294.505 427.699,293.632 430.765,292.747 433.83,291.85 436.895,290.942 439.961,290.022 443.026,289.09 446.092,288.146 449.157,287.19 
  452.222,286.222 455.288,285.242 458.353,284.25 461.418,283.246 464.484,282.23 467.549,281.201 470.615,280.161 473.68,279.108 476.745,278.043 479.811,276.965 
  482.876,275.875 485.941,274.773 489.007,273.658 492.072,272.531 495.138,271.391 498.203,270.238 501.268,269.073 504.334,267.895 507.399,266.705 510.464,265.501 
  513.53,264.285 516.595,263.056 519.661,261.816 522.726,260.565 525.791,259.304 528.857,258.035 531.922,256.759 534.987,255.476 538.053,254.188 541.118,252.897 
  544.184,251.602 547.249,250.306 550.314,249.009 553.38,247.712 556.445,246.417 559.51,245.125 562.576,243.836 565.641,242.552 568.707,241.275 571.772,240.004 
  574.837,238.741 577.903,237.488 580.968,236.245 584.033,235.014 587.099,233.795 590.164,232.59 593.23,231.4 596.295,230.226 599.36,229.069 602.426,227.93 
  605.491,226.81 608.556,225.71 611.622,224.632 614.687,223.577 617.753,222.545 620.818,221.538 623.883,220.557 626.949,219.603 630.014,218.677 633.08,217.781 
  636.145,216.914 639.21,216.079 642.276,215.277 645.341,214.508 648.406,213.774 651.472,213.076 654.537,212.414 657.603,211.791 660.668,211.207 663.733,210.663 
  666.799,210.161 669.864,209.701 672.929,209.285 675.995,208.913 679.06,208.588 682.126,208.309 685.191,208.078 688.256,207.896 691.322,207.765 694.387,207.685 
  697.452,207.657 700.518,207.683 703.583,207.764 706.649,207.9 709.714,208.094 712.779,208.345 715.845,208.655 718.91,209.026 721.975,209.458 725.041,209.952 
  728.106,210.51 731.172,211.132 734.237,211.821 737.302,212.576 740.368,213.399 743.433,214.291 746.498,215.253 749.564,216.286 752.629,217.392 755.695,218.572 
  758.76,219.826 761.825,221.155 764.891,222.562 767.956,224.046 771.021,225.609 774.087,227.253 777.152,228.977 780.218,230.785 783.283,232.675 786.348,234.65 
  789.414,236.711 792.479,238.858 795.544,241.094 798.61,243.418 801.675,245.832 804.741,248.338 807.806,250.936 810.871,253.627 813.937,256.413 817.002,259.294 
  820.067,262.273 823.133,265.348 826.198,268.518 829.264,271.781 832.329,275.132 835.394,278.571 838.46,282.092 841.525,285.695 844.591,289.375 847.656,293.13 
  850.721,296.958 853.787,300.855 856.852,304.818 859.917,308.845 862.983,312.932 866.048,317.078 869.114,321.278 872.179,325.531 875.244,329.833 878.31,334.182 
  881.375,338.574 884.44,343.007 887.506,347.478 890.571,351.984 893.637,356.522 896.702,361.089 899.767,365.683 902.833,370.301 905.898,374.94 908.963,379.596 
  912.029,384.268 915.094,388.952 918.16,393.645 921.225,398.345 924.29,403.049 927.356,407.753 930.421,412.455 933.486,417.153 936.552,421.843 939.617,426.522 
  942.683,431.188 945.748,435.837 948.813,440.468 951.879,445.076 954.944,449.66 958.009,454.216 961.075,458.741 964.14,463.234 967.206,467.689 970.271,472.106 
  973.336,476.481 976.402,480.811 979.467,485.093 982.532,489.325 985.598,493.504 988.663,497.626 991.729,501.689 994.794,505.691 997.859,509.627 1000.92,513.496 
  1003.99,517.295 1007.06,521.02 1010.12,524.669 1013.19,528.239 1016.25,531.727 1019.32,535.13 1022.38,538.446 1025.45,541.672 1028.51,544.804 1031.58,547.84 
  1034.64,550.777 1037.71,553.612 1040.77,556.342 1043.84,558.965 1046.91,561.477 1049.97,563.877 1053.04,566.16 1056.1,568.324 1059.17,570.366 1062.23,572.284 
  1065.3,574.074 1068.36,575.734 1071.43,577.26 1074.49,578.651 1077.56,579.902 1080.62,581.012 1083.69,581.977 1086.76,582.795 1089.82,583.462 1092.89,583.976 
  1095.95,584.334 1099.02,584.534 1102.08,584.571 1105.15,584.444 1108.21,584.149 1111.28,583.684 1114.34,583.046 1117.41,582.232 1120.47,581.239 1123.54,580.065 
  1126.61,578.705 1129.67,577.16 1132.74,575.431 1135.8,573.521 1138.87,571.435 1141.93,569.177 1145,566.749 1148.06,564.156 1151.13,561.402 1154.19,558.489 
  1157.26,555.422 1160.32,552.204 1163.39,548.839 1166.46,545.331 1169.52,541.683 1172.59,537.899 1175.65,533.983 1178.72,529.938 1181.78,525.767 1184.85,521.476 
  1187.91,517.067 1190.98,512.544 1194.04,507.911 1197.11,503.171 1200.17,498.328 1203.24,493.385 1206.3,488.347 1209.37,483.217 1212.44,477.999 1215.5,472.696 
  1218.57,467.312 1221.63,461.851 1224.7,456.316 1227.76,450.711 1230.83,445.04 1233.89,439.307 1236.96,433.514 1240.02,427.666 1243.09,421.767 1246.15,415.82 
  1249.22,409.828 1252.29,403.796 1255.35,397.727 1258.42,391.624 1261.48,385.493 1264.55,379.335 1267.61,373.155 1270.68,366.956 1273.74,360.743 1276.81,354.518 
  1279.87,348.286 1282.94,342.05 1286,335.813 1289.07,329.58 1292.14,323.355 1295.2,317.14 1298.27,310.939 1301.33,304.757 1304.4,298.597 1307.46,292.462 
  1310.53,286.356 1313.59,280.283 1316.66,274.247 1319.72,268.25 1322.79,262.298 1325.85,256.393 1328.92,250.539 1331.99,244.74 1335.05,239 1338.12,233.322 
  1341.18,227.71 1344.25,222.167 1347.31,216.698 1350.38,211.305 1353.44,205.993 1356.51,200.765 1359.57,195.625 1362.64,190.577 1365.7,185.624 1368.77,180.77 
  1371.84,176.018 1374.9,171.373 1377.97,166.837 1381.03,162.416 1384.1,158.111 1387.16,153.928 1390.23,149.869 1393.29,145.938 1396.36,142.139 1399.42,138.476 
  1402.49,134.952 1405.55,131.571 1408.62,128.337 1411.69,125.253 1414.75,122.323 1417.82,119.551 1420.88,116.94 1423.95,114.494 1427.01,112.216 1430.08,110.111 
  1433.14,108.182 1436.21,106.432 1439.27,104.859 1442.34,103.46 1445.4,102.232 1448.47,101.174 1451.54,100.282 1454.6,99.5546 1457.67,98.9879 1460.73,98.5797 
  1463.8,98.3274 1466.86,98.2284 1469.93,98.28 1472.99,98.4795 1476.06,98.8243 1479.12,99.3118 1482.19,99.9393 1485.25,100.704 1488.32,101.604 1491.39,102.636 
  1494.45,103.797 1497.52,105.085 1500.58,106.497 1503.65,108.031 1506.71,109.683 1509.78,111.452 1512.84,113.334 1515.91,115.328 1518.97,117.429 1522.04,119.637 
  1525.1,121.947 1528.17,124.358 1531.23,126.866 1534.3,129.47 1537.37,132.166 1540.43,134.952 1543.5,137.825 1546.56,140.782 1549.63,143.822 1552.69,146.94 
  1555.76,150.135 1558.82,153.405 1561.89,156.745 1564.95,160.154 1568.02,163.629 1571.08,167.168 1574.15,170.767 1577.22,174.424 1580.28,178.137 1583.35,181.903 
  1586.41,185.718 1589.48,189.582 1592.54,193.49 1595.61,197.44 1598.67,201.43 1601.74,205.457 1604.8,209.518 1607.87,213.611 1610.93,217.733 1614,221.881 
  1617.07,226.053 1620.13,230.246 1623.2,234.458 1626.26,238.685 1629.33,242.925 1632.39,247.176 1635.46,251.435 1638.52,255.699 1641.59,259.966 1644.65,264.232 
  1647.72,268.496 1650.78,272.755 1653.85,277.005 1656.92,281.245 1659.98,285.472 1663.05,289.683 1666.11,293.875 1669.18,298.046 1672.24,302.193 1675.31,306.313 
  1678.37,310.405 1681.44,314.465 1684.5,318.49 1687.57,322.478 1690.63,326.427 1693.7,330.333 1696.77,334.194 1699.83,338.007 1702.9,341.771 1705.96,345.481 
  1709.03,349.136 1712.09,352.732 1715.16,356.268 1718.22,359.74 1721.29,363.146 1724.35,366.483 1727.42,369.749 1730.48,372.941 1733.55,376.056 1736.62,379.092 
  1739.68,382.046 1742.75,384.915 1745.81,387.701 1748.88,390.404 1751.94,393.025 1755.01,395.566 1758.07,398.026 1761.14,400.406 1764.2,402.709 1767.27,404.934 
  1770.33,407.082 1773.4,409.155 1776.47,411.154 1779.53,413.078 1782.6,414.93 1785.66,416.709 1788.73,418.418 1791.79,420.056 1794.86,421.625 1797.92,423.125 
  1800.99,424.558 1804.05,425.925 1807.12,427.226 1810.18,428.462 1813.25,429.634 1816.31,430.743 1819.38,431.79 1822.45,432.776 1825.51,433.702 1828.58,434.568 
  1831.64,435.376 1834.71,436.127 1837.77,436.821 1840.84,437.459 1843.9,438.042 1846.97,438.571 1850.03,439.047 1853.1,439.471 1856.16,439.844 1859.23,440.166 
  1862.3,440.44 1865.36,440.664 1868.43,440.841 1871.49,440.971 1874.56,441.056 1877.62,441.095 1880.69,441.091 1883.75,441.043 1886.82,440.954 1889.88,440.822 
  1892.95,440.651 1896.01,440.44 1899.08,440.191 1902.15,439.903 1905.21,439.579 1908.28,439.22 1911.34,438.825 1914.41,438.396 1917.47,437.934 1920.54,437.439 
  1923.6,436.914 1926.67,436.358 1929.73,435.772 1932.8,435.158 1935.86,434.515 1938.93,433.847 1942,433.152 1945.06,432.432 1948.13,431.688 1951.19,430.92 
  1954.26,430.131 1957.32,429.32 1960.39,428.488 1963.45,427.637 1966.52,426.767 1969.58,425.879 1972.65,424.975 1975.71,424.054 1978.78,423.119 1981.85,422.169 
  1984.91,421.205 1987.98,420.23 1991.04,419.243 1994.11,418.245 1997.17,417.238 2000.24,416.221 2003.3,415.197 2006.37,414.166 2009.43,413.129 2012.5,412.087 
  2015.56,411.04 2018.63,409.99 2021.7,408.938 2024.76,407.884 2027.83,406.83 2030.89,405.775 2033.96,404.722 2037.02,403.671 2040.09,402.623 2043.15,401.579 
  2046.22,400.539 2049.28,399.505 2052.35,398.477 2055.41,397.454 2058.48,396.437 2061.55,395.425 2064.61,394.419 2067.68,393.419 2070.74,392.425 2073.81,391.436 
  2076.87,390.452 2079.94,389.474 2083,388.502 2086.07,387.535 2089.13,386.574 2092.2,385.618 2095.26,384.668 2098.33,383.723 2101.4,382.784 2104.46,381.851 
  2107.53,380.922 2110.59,380 2113.66,379.082 2116.72,378.171 2119.79,377.264 2122.85,376.363 2125.92,375.468 2128.98,374.578 2132.05,373.693 2135.11,372.814 
  2138.18,371.94 2141.24,371.072 2144.31,370.209 2147.38,369.351 2150.44,368.499 2153.51,367.652 2156.57,366.81 2159.64,365.974 2162.7,365.142 2165.77,364.317 
  2168.83,363.496 2171.9,362.681 2174.96,361.871 2178.03,361.067 2181.09,360.267 2184.16,359.473 2187.23,358.684 2190.29,357.9 2193.36,357.122 2196.42,356.349 
  2199.49,355.581 
  "/>
<polyline clip-path="url(#clip472)" style="stroke:#3da44d; stroke-width:4; stroke-opacity:1; fill:none" points="
  360.261,261.88 363.326,261.777 366.392,261.675 369.457,261.572 372.522,261.47 375.588,261.367 378.653,261.265 381.719,261.162 384.784,261.06 387.849,260.957 
  390.915,260.855 393.98,260.752 397.045,260.65 400.111,260.547 403.176,260.445 406.242,260.342 409.307,260.24 412.372,260.137 415.438,260.035 418.503,259.932 
  421.569,259.83 424.634,259.727 427.699,259.625 430.765,259.522 433.83,259.42 436.895,259.317 439.961,259.215 443.026,259.112 446.092,259.01 449.157,258.907 
  452.222,258.804 455.288,258.702 458.353,258.599 461.418,258.497 464.484,258.394 467.549,258.292 470.615,258.189 473.68,258.087 476.745,257.984 479.811,257.882 
  482.876,257.779 485.941,257.677 489.007,257.574 492.072,257.472 495.138,257.369 498.203,257.267 501.268,257.164 504.334,257.062 507.399,256.959 510.464,256.857 
  513.53,256.754 516.595,256.652 519.661,256.55 522.726,256.449 525.791,256.35 528.857,256.253 531.922,256.159 534.987,256.068 538.053,255.98 541.118,255.898 
  544.184,255.82 547.249,255.747 550.314,255.68 553.38,255.62 556.445,255.567 559.51,255.522 562.576,255.485 565.641,255.456 568.707,255.437 571.772,255.427 
  574.837,255.428 577.903,255.44 580.968,255.463 584.033,255.498 587.099,255.545 590.164,255.606 593.23,255.68 596.295,255.768 599.36,255.871 602.426,255.99 
  605.491,256.123 608.556,256.274 611.622,256.441 614.687,256.625 617.753,256.827 620.818,257.048 623.883,257.288 626.949,257.548 630.014,257.827 633.08,258.127 
  636.145,258.449 639.21,258.792 642.276,259.157 645.341,259.545 648.406,259.957 651.472,260.392 654.537,260.852 657.603,261.337 660.668,261.847 663.733,262.384 
  666.799,262.947 669.864,263.537 672.929,264.155 675.995,264.801 679.06,265.476 682.126,266.181 685.191,266.915 688.256,267.679 691.322,268.475 694.387,269.302 
  697.452,270.161 700.518,271.053 703.583,271.978 706.649,272.937 709.714,273.929 712.779,274.957 715.845,276.02 718.91,277.119 721.975,278.254 725.041,279.426 
  728.106,280.636 731.172,281.883 734.237,283.169 737.302,284.495 740.368,285.86 743.433,287.265 746.498,288.711 749.564,290.198 752.629,291.727 755.695,293.299 
  758.76,294.913 761.825,296.571 764.891,298.273 767.956,300.019 771.021,301.81 774.087,303.647 777.152,305.531 780.218,307.461 783.283,309.438 786.348,311.463 
  789.414,313.537 792.479,315.659 795.544,317.831 798.61,320.052 801.675,322.325 804.741,324.648 807.806,327.023 810.871,329.45 813.937,331.93 817.002,334.463 
  820.067,337.05 823.133,339.69 826.198,342.384 829.264,345.127 832.329,347.919 835.394,350.758 838.46,353.642 841.525,356.569 844.591,359.536 847.656,362.543 
  850.721,365.587 853.787,368.666 856.852,371.779 859.917,374.922 862.983,378.096 866.048,381.297 869.114,384.523 872.179,387.774 875.244,391.046 878.31,394.339 
  881.375,397.649 884.44,400.976 887.506,404.317 890.571,407.67 893.637,411.034 896.702,414.406 899.767,417.785 902.833,421.169 905.898,424.555 908.963,427.942 
  912.029,431.329 915.094,434.712 918.16,438.091 921.225,441.462 924.29,444.826 927.356,448.178 930.421,451.519 933.486,454.844 936.552,458.154 939.617,461.445 
  942.683,464.717 945.748,467.966 948.813,471.192 951.879,474.391 954.944,477.563 958.009,480.706 961.075,483.816 964.14,486.894 967.206,489.936 970.271,492.941 
  973.336,495.906 976.402,498.831 979.467,501.712 982.532,504.549 985.598,507.339 988.663,510.08 991.729,512.771 994.794,515.409 997.859,517.992 1000.92,520.52 
  1003.99,522.989 1007.06,525.398 1010.12,527.745 1013.19,530.028 1016.25,532.245 1019.32,534.394 1022.38,536.473 1025.45,538.481 1028.51,540.416 1031.58,542.275 
  1034.64,544.057 1037.71,545.759 1040.77,547.381 1043.84,548.919 1046.91,550.372 1049.97,551.739 1053.04,553.017 1056.1,554.204 1059.17,555.298 1062.23,556.298 
  1065.3,557.202 1068.36,558.007 1071.43,558.712 1074.49,559.315 1077.56,559.814 1080.62,560.207 1083.69,560.492 1086.76,560.668 1089.82,560.731 1092.89,560.682 
  1095.95,560.516 1099.02,560.234 1102.08,559.832 1105.15,559.308 1108.21,558.662 1111.28,557.891 1114.34,556.993 1117.41,555.966 1120.47,554.808 1123.54,553.517 
  1126.61,552.092 1129.67,550.532 1132.74,548.837 1135.8,547.011 1138.87,545.057 1141.93,542.977 1145,540.773 1148.06,538.449 1151.13,536.006 1154.19,533.449 
  1157.26,530.778 1160.32,527.997 1163.39,525.109 1166.46,522.116 1169.52,519.02 1172.59,515.825 1175.65,512.533 1178.72,509.146 1181.78,505.668 1184.85,502.1 
  1187.91,498.446 1190.98,494.709 1194.04,490.889 1197.11,486.992 1200.17,483.018 1203.24,478.971 1206.3,474.853 1209.37,470.667 1212.44,466.415 1215.5,462.101 
  1218.57,457.727 1221.63,453.295 1224.7,448.808 1227.76,444.268 1230.83,439.679 1233.89,435.043 1236.96,430.362 1240.02,425.64 1243.09,420.878 1246.15,416.08 
  1249.22,411.248 1252.29,406.385 1255.35,401.493 1258.42,396.575 1261.48,391.633 1264.55,386.671 1267.61,381.69 1270.68,376.694 1273.74,371.686 1276.81,366.666 
  1279.87,361.64 1282.94,356.608 1286,351.574 1289.07,346.54 1292.14,341.509 1295.2,336.484 1298.27,331.466 1301.33,326.46 1304.4,321.466 1307.46,316.489 
  1310.53,311.531 1313.59,306.594 1316.66,301.68 1319.72,296.794 1322.79,291.936 1325.85,287.11 1328.92,282.319 1331.99,277.565 1335.05,272.85 1338.12,268.178 
  1341.18,263.551 1344.25,258.971 1347.31,254.441 1350.38,249.965 1353.44,245.543 1356.51,241.18 1359.57,236.878 1362.64,232.639 1365.7,228.466 1368.77,224.361 
  1371.84,220.328 1374.9,216.369 1377.97,212.486 1381.03,208.682 1384.1,204.96 1387.16,201.323 1390.23,197.772 1393.29,194.311 1396.36,190.943 1399.42,187.669 
  1402.49,184.493 1405.55,181.417 1408.62,178.443 1411.69,175.575 1414.75,172.816 1417.82,170.167 1420.88,167.631 1423.95,165.211 1427.01,162.91 1430.08,160.73 
  1433.14,158.673 1436.21,156.743 1439.27,154.937 1442.34,153.254 1445.4,151.693 1448.47,150.251 1451.54,148.927 1454.6,147.72 1457.67,146.626 1460.73,145.646 
  1463.8,144.777 1466.86,144.017 1469.93,143.365 1472.99,142.819 1476.06,142.377 1479.12,142.038 1482.19,141.8 1485.25,141.661 1488.32,141.619 1491.39,141.673 
  1494.45,141.821 1497.52,142.062 1500.58,142.393 1503.65,142.813 1506.71,143.32 1509.78,143.913 1512.84,144.59 1515.91,145.349 1518.97,146.188 1522.04,147.106 
  1525.1,148.101 1528.17,149.171 1531.23,150.315 1534.3,151.531 1537.37,152.817 1540.43,154.172 1543.5,155.593 1546.56,157.079 1549.63,158.629 1552.69,160.24 
  1555.76,161.912 1558.82,163.641 1561.89,165.428 1564.95,167.269 1568.02,169.163 1571.08,171.109 1574.15,173.104 1577.22,175.147 1580.28,177.237 1583.35,179.371 
  1586.41,181.549 1589.48,183.767 1592.54,186.025 1595.61,188.321 1598.67,190.653 1601.74,193.019 1604.8,195.418 1607.87,197.848 1610.93,200.307 1614,202.794 
  1617.07,205.306 1620.13,207.843 1623.2,210.403 1626.26,212.983 1629.33,215.582 1632.39,218.198 1635.46,220.83 1638.52,223.476 1641.59,226.134 1644.65,228.803 
  1647.72,231.481 1650.78,234.165 1653.85,236.855 1656.92,239.549 1659.98,242.245 1663.05,244.941 1666.11,247.636 1669.18,250.327 1672.24,253.014 1675.31,255.694 
  1678.37,258.366 1681.44,261.028 1684.5,263.679 1687.57,266.316 1690.63,268.938 1693.7,271.543 1696.77,274.13 1699.83,276.697 1702.9,279.241 1705.96,281.763 
  1709.03,284.259 1712.09,286.727 1715.16,289.168 1718.22,291.578 1721.29,293.955 1724.35,296.299 1727.42,298.608 1730.48,300.879 1733.55,303.111 1736.62,305.303 
  1739.68,307.453 1742.75,309.558 1745.81,311.62 1748.88,313.639 1751.94,315.616 1755.01,317.55 1758.07,319.442 1761.14,321.293 1764.2,323.102 1767.27,324.872 
  1770.33,326.601 1773.4,328.291 1776.47,329.941 1779.53,331.553 1782.6,333.126 1785.66,334.662 1788.73,336.16 1791.79,337.621 1794.86,339.046 1797.92,340.434 
  1800.99,341.787 1804.05,343.104 1807.12,344.387 1810.18,345.636 1813.25,346.85 1816.31,348.031 1819.38,349.179 1822.45,350.295 1825.51,351.378 1828.58,352.43 
  1831.64,353.45 1834.71,354.44 1837.77,355.399 1840.84,356.328 1843.9,357.228 1846.97,358.098 1850.03,358.94 1853.1,359.754 1856.16,360.54 1859.23,361.299 
  1862.3,362.031 1865.36,362.737 1868.43,363.416 1871.49,364.07 1874.56,364.699 1877.62,365.304 1880.69,365.884 1883.75,366.44 1886.82,366.973 1889.88,367.483 
  1892.95,367.971 1896.01,368.436 1899.08,368.88 1902.15,369.303 1905.21,369.705 1908.28,370.087 1911.34,370.449 1914.41,370.792 1917.47,371.116 1920.54,371.421 
  1923.6,371.708 1926.67,371.978 1929.73,372.23 1932.8,372.466 1935.86,372.686 1938.93,372.889 1942,373.077 1945.06,373.251 1948.13,373.409 1951.19,373.554 
  1954.26,373.685 1957.32,373.803 1960.39,373.908 1963.45,374 1966.52,374.081 1969.58,374.15 1972.65,374.209 1975.71,374.256 1978.78,374.294 1981.85,374.322 
  1984.91,374.34 1987.98,374.35 1991.04,374.352 1994.11,374.345 1997.17,374.332 2000.24,374.311 2003.3,374.283 2006.37,374.249 2009.43,374.21 2012.5,374.165 
  2015.56,374.116 2018.63,374.062 2021.7,374.004 2024.76,373.942 2027.83,373.878 2030.89,373.81 2033.96,373.741 2037.02,373.67 2040.09,373.597 2043.15,373.524 
  2046.22,373.45 2049.28,373.376 2052.35,373.302 2055.41,373.229 2058.48,373.155 2061.55,373.081 2064.61,373.007 2067.68,372.933 2070.74,372.859 2073.81,372.785 
  2076.87,372.712 2079.94,372.638 2083,372.564 2086.07,372.49 2089.13,372.416 2092.2,372.342 2095.26,372.268 2098.33,372.194 2101.4,372.121 2104.46,372.047 
  2107.53,371.973 2110.59,371.899 2113.66,371.825 2116.72,371.751 2119.79,371.677 2122.85,371.604 2125.92,371.53 2128.98,371.456 2132.05,371.382 2135.11,371.308 
  2138.18,371.234 2141.24,371.16 2144.31,371.086 2147.38,371.013 2150.44,370.939 2153.51,370.865 2156.57,370.791 2159.64,370.717 2162.7,370.643 2165.77,370.569 
  2168.83,370.496 2171.9,370.422 2174.96,370.348 2178.03,370.274 2181.09,370.2 2184.16,370.126 2187.23,370.052 2190.29,369.978 2193.36,369.905 2196.42,369.831 
  2199.49,369.757 
  "/>
<polyline clip-path="url(#clip472)" style="stroke:#c271d2; stroke-width:4; stroke-opacity:1; fill:none" points="
  513.53,1139.02 513.53,-475.024 
  "/>
<polyline clip-path="url(#clip472)" style="stroke:#c271d2; stroke-width:4; stroke-opacity:1; fill:none" points="
  2046.22,1139.02 2046.22,-475.024 
  "/>
<polyline clip-path="url(#clip472)" style="stroke:#ac8d18; stroke-width:4; stroke-opacity:1; fill:none" stroke-dasharray="16, 10" points="
  513.53,1139.02 513.53,-475.024 
  "/>
<polyline clip-path="url(#clip472)" style="stroke:#ac8d18; stroke-width:4; stroke-opacity:1; fill:none" stroke-dasharray="16, 10" points="
  820.067,1139.02 820.067,-475.024 
  "/>
<polyline clip-path="url(#clip472)" style="stroke:#ac8d18; stroke-width:4; stroke-opacity:1; fill:none" stroke-dasharray="16, 10" points="
  1126.61,1139.02 1126.61,-475.024 
  "/>
<polyline clip-path="url(#clip472)" style="stroke:#ac8d18; stroke-width:4; stroke-opacity:1; fill:none" stroke-dasharray="16, 10" points="
  1433.14,1139.02 1433.14,-475.024 
  "/>
<polyline clip-path="url(#clip472)" style="stroke:#ac8d18; stroke-width:4; stroke-opacity:1; fill:none" stroke-dasharray="16, 10" points="
  1739.68,1139.02 1739.68,-475.024 
  "/>
<polyline clip-path="url(#clip472)" style="stroke:#ac8d18; stroke-width:4; stroke-opacity:1; fill:none" stroke-dasharray="16, 10" points="
  2046.22,1139.02 2046.22,-475.024 
  "/>
<path clip-path="url(#clip470)" d="
M1756.56 262.366 L2281.23 262.366 L2281.23 80.926 L1756.56 80.926  Z
  " fill="#ffffff" fill-rule="evenodd" fill-opacity="1"/>
<polyline clip-path="url(#clip470)" style="stroke:#000000; stroke-width:4; stroke-opacity:1; fill:none" points="
  1756.56,262.366 2281.23,262.366 2281.23,80.926 1756.56,80.926 1756.56,262.366 
  "/>
<polyline clip-path="url(#clip470)" style="stroke:#e26f46; stroke-width:4; stroke-opacity:1; fill:none" points="
  1780.4,141.406 1923.45,141.406 
  "/>
<g clip-path="url(#clip470)">
<text style="fill:#000000; fill-opacity:1; font-family:Arial,Helvetica Neue,Helvetica,sans-serif; font-size:48px; text-anchor:start;" transform="rotate(0, 1947.3, 158.906)" x="1947.3" y="158.906">spline</text>
</g>
<polyline clip-path="url(#clip470)" style="stroke:#3da44d; stroke-width:4; stroke-opacity:1; fill:none" points="
  1780.4,201.886 1923.45,201.886 
  "/>
<g clip-path="url(#clip470)">
<text style="fill:#000000; fill-opacity:1; font-family:Arial,Helvetica Neue,Helvetica,sans-serif; font-size:48px; text-anchor:start;" transform="rotate(0, 1947.3, 219.386)" x="1947.3" y="219.386">natural spline</text>
</g>
<path clip-path="url(#clip470)" d="
M206.992 1401.01 L2352.76 1401.01 L2352.76 862.992 L206.992 862.992  Z
  " fill="#ffffff" fill-rule="evenodd" fill-opacity="1"/>
<defs>
  <clipPath id="clip473">
    <rect x="206" y="862" width="2147" height="539"/>
  </clipPath>
</defs>
<polyline clip-path="url(#clip473)" style="stroke:#000000; stroke-width:2; stroke-opacity:0.1; fill:none" points="
  513.53,1401.01 513.53,862.992 
  "/>
<polyline clip-path="url(#clip473)" style="stroke:#000000; stroke-width:2; stroke-opacity:0.1; fill:none" points="
  896.702,1401.01 896.702,862.992 
  "/>
<polyline clip-path="url(#clip473)" style="stroke:#000000; stroke-width:2; stroke-opacity:0.1; fill:none" points="
  1279.87,1401.01 1279.87,862.992 
  "/>
<polyline clip-path="url(#clip473)" style="stroke:#000000; stroke-width:2; stroke-opacity:0.1; fill:none" points="
  1663.05,1401.01 1663.05,862.992 
  "/>
<polyline clip-path="url(#clip473)" style="stroke:#000000; stroke-width:2; stroke-opacity:0.1; fill:none" points="
  2046.22,1401.01 2046.22,862.992 
  "/>
<polyline clip-path="url(#clip470)" style="stroke:#000000; stroke-width:4; stroke-opacity:1; fill:none" points="
  206.992,1401.01 2352.76,1401.01 
  "/>
<polyline clip-path="url(#clip470)" style="stroke:#000000; stroke-width:4; stroke-opacity:1; fill:none" points="
  513.53,1401.01 513.53,1394.55 
  "/>
<polyline clip-path="url(#clip470)" style="stroke:#000000; stroke-width:4; stroke-opacity:1; fill:none" points="
  896.702,1401.01 896.702,1394.55 
  "/>
<polyline clip-path="url(#clip470)" style="stroke:#000000; stroke-width:4; stroke-opacity:1; fill:none" points="
  1279.87,1401.01 1279.87,1394.55 
  "/>
<polyline clip-path="url(#clip470)" style="stroke:#000000; stroke-width:4; stroke-opacity:1; fill:none" points="
  1663.05,1401.01 1663.05,1394.55 
  "/>
<polyline clip-path="url(#clip470)" style="stroke:#000000; stroke-width:4; stroke-opacity:1; fill:none" points="
  2046.22,1401.01 2046.22,1394.55 
  "/>
<g clip-path="url(#clip470)">
<text style="fill:#000000; fill-opacity:1; font-family:Arial,Helvetica Neue,Helvetica,sans-serif; font-size:48px; text-anchor:middle;" transform="rotate(0, 513.53, 1462.21)" x="513.53" y="1462.21">−5.0</text>
</g>
<g clip-path="url(#clip470)">
<text style="fill:#000000; fill-opacity:1; font-family:Arial,Helvetica Neue,Helvetica,sans-serif; font-size:48px; text-anchor:middle;" transform="rotate(0, 896.702, 1462.21)" x="896.702" y="1462.21">−2.5</text>
</g>
<g clip-path="url(#clip470)">
<text style="fill:#000000; fill-opacity:1; font-family:Arial,Helvetica Neue,Helvetica,sans-serif; font-size:48px; text-anchor:middle;" transform="rotate(0, 1279.87, 1462.21)" x="1279.87" y="1462.21">0.0</text>
</g>
<g clip-path="url(#clip470)">
<text style="fill:#000000; fill-opacity:1; font-family:Arial,Helvetica Neue,Helvetica,sans-serif; font-size:48px; text-anchor:middle;" transform="rotate(0, 1663.05, 1462.21)" x="1663.05" y="1462.21">2.5</text>
</g>
<g clip-path="url(#clip470)">
<text style="fill:#000000; fill-opacity:1; font-family:Arial,Helvetica Neue,Helvetica,sans-serif; font-size:48px; text-anchor:middle;" transform="rotate(0, 2046.22, 1462.21)" x="2046.22" y="1462.21">5.0</text>
</g>
<g clip-path="url(#clip470)">
<text style="fill:#000000; fill-opacity:1; font-family:Arial,Helvetica Neue,Helvetica,sans-serif; font-size:66px; text-anchor:middle;" transform="rotate(0, 1279.87, 1534.87)" x="1279.87" y="1534.87">x</text>
</g>
<polyline clip-path="url(#clip473)" style="stroke:#000000; stroke-width:2; stroke-opacity:0.1; fill:none" points="
  206.992,1351.39 2352.76,1351.39 
  "/>
<polyline clip-path="url(#clip473)" style="stroke:#000000; stroke-width:2; stroke-opacity:0.1; fill:none" points="
  206.992,1250.79 2352.76,1250.79 
  "/>
<polyline clip-path="url(#clip473)" style="stroke:#000000; stroke-width:2; stroke-opacity:0.1; fill:none" points="
  206.992,1150.2 2352.76,1150.2 
  "/>
<polyline clip-path="url(#clip473)" style="stroke:#000000; stroke-width:2; stroke-opacity:0.1; fill:none" points="
  206.992,1049.61 2352.76,1049.61 
  "/>
<polyline clip-path="url(#clip473)" style="stroke:#000000; stroke-width:2; stroke-opacity:0.1; fill:none" points="
  206.992,949.016 2352.76,949.016 
  "/>
<polyline clip-path="url(#clip470)" style="stroke:#000000; stroke-width:4; stroke-opacity:1; fill:none" points="
  206.992,1401.01 206.992,862.992 
  "/>
<polyline clip-path="url(#clip470)" style="stroke:#000000; stroke-width:4; stroke-opacity:1; fill:none" points="
  206.992,1351.39 232.741,1351.39 
  "/>
<polyline clip-path="url(#clip470)" style="stroke:#000000; stroke-width:4; stroke-opacity:1; fill:none" points="
  206.992,1250.79 232.741,1250.79 
  "/>
<polyline clip-path="url(#clip470)" style="stroke:#000000; stroke-width:4; stroke-opacity:1; fill:none" points="
  206.992,1150.2 232.741,1150.2 
  "/>
<polyline clip-path="url(#clip470)" style="stroke:#000000; stroke-width:4; stroke-opacity:1; fill:none" points="
  206.992,1049.61 232.741,1049.61 
  "/>
<polyline clip-path="url(#clip470)" style="stroke:#000000; stroke-width:4; stroke-opacity:1; fill:none" points="
  206.992,949.016 232.741,949.016 
  "/>
<g clip-path="url(#clip470)">
<text style="fill:#000000; fill-opacity:1; font-family:Arial,Helvetica Neue,Helvetica,sans-serif; font-size:48px; text-anchor:end;" transform="rotate(0, 170.992, 1368.89)" x="170.992" y="1368.89">−1.0</text>
</g>
<g clip-path="url(#clip470)">
<text style="fill:#000000; fill-opacity:1; font-family:Arial,Helvetica Neue,Helvetica,sans-serif; font-size:48px; text-anchor:end;" transform="rotate(0, 170.992, 1268.29)" x="170.992" y="1268.29">−0.5</text>
</g>
<g clip-path="url(#clip470)">
<text style="fill:#000000; fill-opacity:1; font-family:Arial,Helvetica Neue,Helvetica,sans-serif; font-size:48px; text-anchor:end;" transform="rotate(0, 170.992, 1167.7)" x="170.992" y="1167.7">0.0</text>
</g>
<g clip-path="url(#clip470)">
<text style="fill:#000000; fill-opacity:1; font-family:Arial,Helvetica Neue,Helvetica,sans-serif; font-size:48px; text-anchor:end;" transform="rotate(0, 170.992, 1067.11)" x="170.992" y="1067.11">0.5</text>
</g>
<g clip-path="url(#clip470)">
<text style="fill:#000000; fill-opacity:1; font-family:Arial,Helvetica Neue,Helvetica,sans-serif; font-size:48px; text-anchor:end;" transform="rotate(0, 170.992, 966.516)" x="170.992" y="966.516">1.0</text>
</g>
<g clip-path="url(#clip470)">
<text style="fill:#000000; fill-opacity:1; font-family:Arial,Helvetica Neue,Helvetica,sans-serif; font-size:66px; text-anchor:middle;" transform="rotate(-90, 53.7618, 1132)" x="53.7618" y="1132">f(x),g(x)</text>
</g>
<g clip-path="url(#clip470)">
<text style="fill:#000000; fill-opacity:1; font-family:Arial,Helvetica Neue,Helvetica,sans-serif; font-size:84px; text-anchor:middle;" transform="rotate(0, 1279.87, 873.2)" x="1279.87" y="873.2">K=11</text>
</g>
<circle clip-path="url(#clip473)" cx="1722.3" cy="1035.04" r="14" fill="#009af9" fill-rule="evenodd" fill-opacity="1" stroke="#000000" stroke-opacity="1" stroke-width="3.2"/>
<circle clip-path="url(#clip473)" cx="897.866" cy="1330.49" r="14" fill="#009af9" fill-rule="evenodd" fill-opacity="1" stroke="#000000" stroke-opacity="1" stroke-width="3.2"/>
<circle clip-path="url(#clip473)" cx="639.745" cy="945.005" r="14" fill="#009af9" fill-rule="evenodd" fill-opacity="1" stroke="#000000" stroke-opacity="1" stroke-width="3.2"/>
<circle clip-path="url(#clip473)" cx="2224.56" cy="1138.15" r="14" fill="#009af9" fill-rule="evenodd" fill-opacity="1" stroke="#000000" stroke-opacity="1" stroke-width="3.2"/>
<circle clip-path="url(#clip473)" cx="1207.18" cy="1269.92" r="14" fill="#009af9" fill-rule="evenodd" fill-opacity="1" stroke="#000000" stroke-opacity="1" stroke-width="3.2"/>
<circle clip-path="url(#clip473)" cx="1543.56" cy="1011.97" r="14" fill="#009af9" fill-rule="evenodd" fill-opacity="1" stroke="#000000" stroke-opacity="1" stroke-width="3.2"/>
<circle clip-path="url(#clip473)" cx="1092.83" cy="1369.52" r="14" fill="#009af9" fill-rule="evenodd" fill-opacity="1" stroke="#000000" stroke-opacity="1" stroke-width="3.2"/>
<circle clip-path="url(#clip473)" cx="953.059" cy="1315.84" r="14" fill="#009af9" fill-rule="evenodd" fill-opacity="1" stroke="#000000" stroke-opacity="1" stroke-width="3.2"/>
<circle clip-path="url(#clip473)" cx="467.206" cy="973.25" r="14" fill="#009af9" fill-rule="evenodd" fill-opacity="1" stroke="#000000" stroke-opacity="1" stroke-width="3.2"/>
<circle clip-path="url(#clip473)" cx="423.814" cy="1029.91" r="14" fill="#009af9" fill-rule="evenodd" fill-opacity="1" stroke="#000000" stroke-opacity="1" stroke-width="3.2"/>
<circle clip-path="url(#clip473)" cx="1594.99" cy="989.951" r="14" fill="#009af9" fill-rule="evenodd" fill-opacity="1" stroke="#000000" stroke-opacity="1" stroke-width="3.2"/>
<circle clip-path="url(#clip473)" cx="1850.37" cy="1331.85" r="14" fill="#009af9" fill-rule="evenodd" fill-opacity="1" stroke="#000000" stroke-opacity="1" stroke-width="3.2"/>
<circle clip-path="url(#clip473)" cx="1634.27" cy="975.607" r="14" fill="#009af9" fill-rule="evenodd" fill-opacity="1" stroke="#000000" stroke-opacity="1" stroke-width="3.2"/>
<circle clip-path="url(#clip473)" cx="1009.14" cy="1331.55" r="14" fill="#009af9" fill-rule="evenodd" fill-opacity="1" stroke="#000000" stroke-opacity="1" stroke-width="3.2"/>
<circle clip-path="url(#clip473)" cx="572.167" cy="941.441" r="14" fill="#009af9" fill-rule="evenodd" fill-opacity="1" stroke="#000000" stroke-opacity="1" stroke-width="3.2"/>
<circle clip-path="url(#clip473)" cx="588.996" cy="912.395" r="14" fill="#009af9" fill-rule="evenodd" fill-opacity="1" stroke="#000000" stroke-opacity="1" stroke-width="3.2"/>
<circle clip-path="url(#clip473)" cx="533.469" cy="936.349" r="14" fill="#009af9" fill-rule="evenodd" fill-opacity="1" stroke="#000000" stroke-opacity="1" stroke-width="3.2"/>
<circle clip-path="url(#clip473)" cx="336.562" cy="1155.23" r="14" fill="#009af9" fill-rule="evenodd" fill-opacity="1" stroke="#000000" stroke-opacity="1" stroke-width="3.2"/>
<circle clip-path="url(#clip473)" cx="1530.65" cy="957.46" r="14" fill="#009af9" fill-rule="evenodd" fill-opacity="1" stroke="#000000" stroke-opacity="1" stroke-width="3.2"/>
<circle clip-path="url(#clip473)" cx="828.711" cy="1129.66" r="14" fill="#009af9" fill-rule="evenodd" fill-opacity="1" stroke="#000000" stroke-opacity="1" stroke-width="3.2"/>
<circle clip-path="url(#clip473)" cx="431.555" cy="1012.41" r="14" fill="#009af9" fill-rule="evenodd" fill-opacity="1" stroke="#000000" stroke-opacity="1" stroke-width="3.2"/>
<circle clip-path="url(#clip473)" cx="1547.33" cy="951.089" r="14" fill="#009af9" fill-rule="evenodd" fill-opacity="1" stroke="#000000" stroke-opacity="1" stroke-width="3.2"/>
<circle clip-path="url(#clip473)" cx="2033.2" cy="1368.27" r="14" fill="#009af9" fill-rule="evenodd" fill-opacity="1" stroke="#000000" stroke-opacity="1" stroke-width="3.2"/>
<circle clip-path="url(#clip473)" cx="441.032" cy="1069.69" r="14" fill="#009af9" fill-rule="evenodd" fill-opacity="1" stroke="#000000" stroke-opacity="1" stroke-width="3.2"/>
<circle clip-path="url(#clip473)" cx="1612.82" cy="957.582" r="14" fill="#009af9" fill-rule="evenodd" fill-opacity="1" stroke="#000000" stroke-opacity="1" stroke-width="3.2"/>
<circle clip-path="url(#clip473)" cx="1129.78" cy="1254.79" r="14" fill="#009af9" fill-rule="evenodd" fill-opacity="1" stroke="#000000" stroke-opacity="1" stroke-width="3.2"/>
<circle clip-path="url(#clip473)" cx="318.444" cy="1146.85" r="14" fill="#009af9" fill-rule="evenodd" fill-opacity="1" stroke="#000000" stroke-opacity="1" stroke-width="3.2"/>
<circle clip-path="url(#clip473)" cx="1344.35" cy="1084.49" r="14" fill="#009af9" fill-rule="evenodd" fill-opacity="1" stroke="#000000" stroke-opacity="1" stroke-width="3.2"/>
<circle clip-path="url(#clip473)" cx="431.915" cy="989.286" r="14" fill="#009af9" fill-rule="evenodd" fill-opacity="1" stroke="#000000" stroke-opacity="1" stroke-width="3.2"/>
<circle clip-path="url(#clip473)" cx="1035.49" cy="1312.11" r="14" fill="#009af9" fill-rule="evenodd" fill-opacity="1" stroke="#000000" stroke-opacity="1" stroke-width="3.2"/>
<circle clip-path="url(#clip473)" cx="2063.8" cy="1347.31" r="14" fill="#009af9" fill-rule="evenodd" fill-opacity="1" stroke="#000000" stroke-opacity="1" stroke-width="3.2"/>
<circle clip-path="url(#clip473)" cx="948.215" cy="1304.2" r="14" fill="#009af9" fill-rule="evenodd" fill-opacity="1" stroke="#000000" stroke-opacity="1" stroke-width="3.2"/>
<circle clip-path="url(#clip473)" cx="1046.34" cy="1363.3" r="14" fill="#009af9" fill-rule="evenodd" fill-opacity="1" stroke="#000000" stroke-opacity="1" stroke-width="3.2"/>
<circle clip-path="url(#clip473)" cx="1678.03" cy="1046.07" r="14" fill="#009af9" fill-rule="evenodd" fill-opacity="1" stroke="#000000" stroke-opacity="1" stroke-width="3.2"/>
<circle clip-path="url(#clip473)" cx="1060.68" cy="1263.04" r="14" fill="#009af9" fill-rule="evenodd" fill-opacity="1" stroke="#000000" stroke-opacity="1" stroke-width="3.2"/>
<circle clip-path="url(#clip473)" cx="1100.9" cy="1334.92" r="14" fill="#009af9" fill-rule="evenodd" fill-opacity="1" stroke="#000000" stroke-opacity="1" stroke-width="3.2"/>
<circle clip-path="url(#clip473)" cx="1490.5" cy="1000.93" r="14" fill="#009af9" fill-rule="evenodd" fill-opacity="1" stroke="#000000" stroke-opacity="1" stroke-width="3.2"/>
<circle clip-path="url(#clip473)" cx="1080.26" cy="1352.14" r="14" fill="#009af9" fill-rule="evenodd" fill-opacity="1" stroke="#000000" stroke-opacity="1" stroke-width="3.2"/>
<circle clip-path="url(#clip473)" cx="1309.5" cy="1142.86" r="14" fill="#009af9" fill-rule="evenodd" fill-opacity="1" stroke="#000000" stroke-opacity="1" stroke-width="3.2"/>
<circle clip-path="url(#clip473)" cx="1698.47" cy="1038.31" r="14" fill="#009af9" fill-rule="evenodd" fill-opacity="1" stroke="#000000" stroke-opacity="1" stroke-width="3.2"/>
<circle clip-path="url(#clip473)" cx="977.142" cy="1294.86" r="14" fill="#009af9" fill-rule="evenodd" fill-opacity="1" stroke="#000000" stroke-opacity="1" stroke-width="3.2"/>
<circle clip-path="url(#clip473)" cx="751.305" cy="1118.46" r="14" fill="#009af9" fill-rule="evenodd" fill-opacity="1" stroke="#000000" stroke-opacity="1" stroke-width="3.2"/>
<circle clip-path="url(#clip473)" cx="667.53" cy="1059.77" r="14" fill="#009af9" fill-rule="evenodd" fill-opacity="1" stroke="#000000" stroke-opacity="1" stroke-width="3.2"/>
<circle clip-path="url(#clip473)" cx="1921" cy="1385.78" r="14" fill="#009af9" fill-rule="evenodd" fill-opacity="1" stroke="#000000" stroke-opacity="1" stroke-width="3.2"/>
<circle clip-path="url(#clip473)" cx="393.637" cy="1047.1" r="14" fill="#009af9" fill-rule="evenodd" fill-opacity="1" stroke="#000000" stroke-opacity="1" stroke-width="3.2"/>
<circle clip-path="url(#clip473)" cx="1138.92" cy="1332.68" r="14" fill="#009af9" fill-rule="evenodd" fill-opacity="1" stroke="#000000" stroke-opacity="1" stroke-width="3.2"/>
<circle clip-path="url(#clip473)" cx="1162.02" cy="1381.13" r="14" fill="#009af9" fill-rule="evenodd" fill-opacity="1" stroke="#000000" stroke-opacity="1" stroke-width="3.2"/>
<circle clip-path="url(#clip473)" cx="2090.45" cy="1306.17" r="14" fill="#009af9" fill-rule="evenodd" fill-opacity="1" stroke="#000000" stroke-opacity="1" stroke-width="3.2"/>
<circle clip-path="url(#clip473)" cx="795.582" cy="1151.26" r="14" fill="#009af9" fill-rule="evenodd" fill-opacity="1" stroke="#000000" stroke-opacity="1" stroke-width="3.2"/>
<circle clip-path="url(#clip473)" cx="2267.29" cy="1113.96" r="14" fill="#009af9" fill-rule="evenodd" fill-opacity="1" stroke="#000000" stroke-opacity="1" stroke-width="3.2"/>
<circle clip-path="url(#clip473)" cx="260.387" cy="1139.04" r="14" fill="#009af9" fill-rule="evenodd" fill-opacity="1" stroke="#000000" stroke-opacity="1" stroke-width="3.2"/>
<circle clip-path="url(#clip473)" cx="1451.74" cy="960.229" r="14" fill="#009af9" fill-rule="evenodd" fill-opacity="1" stroke="#000000" stroke-opacity="1" stroke-width="3.2"/>
<circle clip-path="url(#clip473)" cx="284.662" cy="1234.37" r="14" fill="#009af9" fill-rule="evenodd" fill-opacity="1" stroke="#000000" stroke-opacity="1" stroke-width="3.2"/>
<circle clip-path="url(#clip473)" cx="986.673" cy="1319.27" r="14" fill="#009af9" fill-rule="evenodd" fill-opacity="1" stroke="#000000" stroke-opacity="1" stroke-width="3.2"/>
<circle clip-path="url(#clip473)" cx="2097.45" cy="1367.68" r="14" fill="#009af9" fill-rule="evenodd" fill-opacity="1" stroke="#000000" stroke-opacity="1" stroke-width="3.2"/>
<circle clip-path="url(#clip473)" cx="1265.16" cy="1213.01" r="14" fill="#009af9" fill-rule="evenodd" fill-opacity="1" stroke="#000000" stroke-opacity="1" stroke-width="3.2"/>
<circle clip-path="url(#clip473)" cx="638.13" cy="966.619" r="14" fill="#009af9" fill-rule="evenodd" fill-opacity="1" stroke="#000000" stroke-opacity="1" stroke-width="3.2"/>
<circle clip-path="url(#clip473)" cx="1586" cy="972.679" r="14" fill="#009af9" fill-rule="evenodd" fill-opacity="1" stroke="#000000" stroke-opacity="1" stroke-width="3.2"/>
<circle clip-path="url(#clip473)" cx="1669.92" cy="984.444" r="14" fill="#009af9" fill-rule="evenodd" fill-opacity="1" stroke="#000000" stroke-opacity="1" stroke-width="3.2"/>
<circle clip-path="url(#clip473)" cx="377.681" cy="1091.06" r="14" fill="#009af9" fill-rule="evenodd" fill-opacity="1" stroke="#000000" stroke-opacity="1" stroke-width="3.2"/>
<circle clip-path="url(#clip473)" cx="1980.12" cy="1374.42" r="14" fill="#009af9" fill-rule="evenodd" fill-opacity="1" stroke="#000000" stroke-opacity="1" stroke-width="3.2"/>
<circle clip-path="url(#clip473)" cx="897.831" cy="1242.27" r="14" fill="#009af9" fill-rule="evenodd" fill-opacity="1" stroke="#000000" stroke-opacity="1" stroke-width="3.2"/>
<circle clip-path="url(#clip473)" cx="2296.25" cy="1100.54" r="14" fill="#009af9" fill-rule="evenodd" fill-opacity="1" stroke="#000000" stroke-opacity="1" stroke-width="3.2"/>
<circle clip-path="url(#clip473)" cx="573.057" cy="994.14" r="14" fill="#009af9" fill-rule="evenodd" fill-opacity="1" stroke="#000000" stroke-opacity="1" stroke-width="3.2"/>
<circle clip-path="url(#clip473)" cx="1722.28" cy="1062.75" r="14" fill="#009af9" fill-rule="evenodd" fill-opacity="1" stroke="#000000" stroke-opacity="1" stroke-width="3.2"/>
<circle clip-path="url(#clip473)" cx="1933.23" cy="1239.01" r="14" fill="#009af9" fill-rule="evenodd" fill-opacity="1" stroke="#000000" stroke-opacity="1" stroke-width="3.2"/>
<circle clip-path="url(#clip473)" cx="1556.43" cy="916.86" r="14" fill="#009af9" fill-rule="evenodd" fill-opacity="1" stroke="#000000" stroke-opacity="1" stroke-width="3.2"/>
<circle clip-path="url(#clip473)" cx="2308.53" cy="985.938" r="14" fill="#009af9" fill-rule="evenodd" fill-opacity="1" stroke="#000000" stroke-opacity="1" stroke-width="3.2"/>
<circle clip-path="url(#clip473)" cx="984.346" cy="1353.94" r="14" fill="#009af9" fill-rule="evenodd" fill-opacity="1" stroke="#000000" stroke-opacity="1" stroke-width="3.2"/>
<circle clip-path="url(#clip473)" cx="1074.21" cy="1298.02" r="14" fill="#009af9" fill-rule="evenodd" fill-opacity="1" stroke="#000000" stroke-opacity="1" stroke-width="3.2"/>
<circle clip-path="url(#clip473)" cx="1122.22" cy="1374.7" r="14" fill="#009af9" fill-rule="evenodd" fill-opacity="1" stroke="#000000" stroke-opacity="1" stroke-width="3.2"/>
<circle clip-path="url(#clip473)" cx="410.284" cy="1011.87" r="14" fill="#009af9" fill-rule="evenodd" fill-opacity="1" stroke="#000000" stroke-opacity="1" stroke-width="3.2"/>
<polyline clip-path="url(#clip473)" style="stroke:#e26f46; stroke-width:4; stroke-opacity:1; fill:none" points="
  360.261,1121.6 363.326,1119.85 366.392,1118.07 369.457,1116.26 372.522,1114.44 375.588,1112.59 378.653,1110.72 381.719,1108.82 384.784,1106.9 387.849,1104.95 
  390.915,1102.98 393.98,1100.99 397.045,1098.97 400.111,1096.93 403.176,1094.86 406.242,1092.77 409.307,1090.65 412.372,1088.51 415.438,1086.34 418.503,1084.15 
  421.569,1081.94 424.634,1079.69 427.699,1077.43 430.765,1075.14 433.83,1072.82 436.895,1070.48 439.961,1068.11 443.026,1065.71 446.092,1063.29 449.157,1060.85 
  452.222,1058.38 455.288,1055.88 458.353,1053.36 461.418,1050.81 464.484,1048.23 467.549,1045.63 470.615,1043 473.68,1040.35 476.745,1037.67 479.811,1034.96 
  482.876,1032.23 485.941,1029.47 489.007,1026.68 492.072,1023.86 495.138,1021.02 498.203,1018.15 501.268,1015.26 504.334,1012.33 507.399,1009.38 510.464,1006.4 
  513.53,1003.4 516.595,1000.36 519.661,997.31 522.726,994.239 525.791,991.157 528.857,988.07 531.922,984.983 534.987,981.902 538.053,978.833 541.118,975.781 
  544.184,972.751 547.249,969.749 550.314,966.782 553.38,963.854 556.445,960.97 559.51,958.138 562.576,955.361 565.641,952.647 568.707,949.999 571.772,947.425 
  574.837,944.929 577.903,942.517 580.968,940.195 584.033,937.968 587.099,935.842 590.164,933.823 593.23,931.915 596.295,930.125 599.36,928.459 602.426,926.921 
  605.491,925.517 608.556,924.254 611.622,923.136 614.687,922.169 617.753,921.359 620.818,920.711 623.883,920.231 626.949,919.925 630.014,919.797 633.08,919.855 
  636.145,920.102 639.21,920.546 642.276,921.19 645.341,922.042 648.406,923.106 651.472,924.389 654.537,925.895 657.603,927.631 660.668,929.601 663.733,931.812 
  666.799,934.269 669.864,936.976 672.929,939.926 675.995,943.111 679.06,946.522 682.126,950.152 685.191,953.991 688.256,958.032 691.322,962.267 694.387,966.686 
  697.452,971.282 700.518,976.046 703.583,980.97 706.649,986.045 709.714,991.263 712.779,996.617 715.845,1002.1 718.91,1007.69 721.975,1013.4 725.041,1019.21 
  728.106,1025.11 731.172,1031.1 734.237,1037.16 737.302,1043.29 740.368,1049.48 743.433,1055.72 746.498,1062.01 749.564,1068.33 752.629,1074.67 755.695,1081.03 
  758.76,1087.41 761.825,1093.78 764.891,1100.15 767.956,1106.5 771.021,1112.82 774.087,1119.12 777.152,1125.37 780.218,1131.58 783.283,1137.73 786.348,1143.81 
  789.414,1149.82 792.479,1155.74 795.544,1161.58 798.61,1167.31 801.675,1172.94 804.741,1178.45 807.806,1183.84 810.871,1189.1 813.937,1194.21 817.002,1199.18 
  820.067,1203.99 823.133,1208.63 826.198,1213.11 829.264,1217.44 832.329,1221.61 835.394,1225.62 838.46,1229.49 841.525,1233.22 844.591,1236.81 847.656,1240.26 
  850.721,1243.57 853.787,1246.76 856.852,1249.82 859.917,1252.76 862.983,1255.58 866.048,1258.28 869.114,1260.88 872.179,1263.37 875.244,1265.75 878.31,1268.03 
  881.375,1270.22 884.44,1272.31 887.506,1274.32 890.571,1276.24 893.637,1278.07 896.702,1279.83 899.767,1281.52 902.833,1283.13 905.898,1284.68 908.963,1286.16 
  912.029,1287.58 915.094,1288.95 918.16,1290.26 921.225,1291.53 924.29,1292.75 927.356,1293.93 930.421,1295.07 933.486,1296.17 936.552,1297.25 939.617,1298.29 
  942.683,1299.32 945.748,1300.32 948.813,1301.31 951.879,1302.28 954.944,1303.25 958.009,1304.21 961.075,1305.17 964.14,1306.14 967.206,1307.1 970.271,1308.08 
  973.336,1309.07 976.402,1310.08 979.467,1311.1 982.532,1312.13 985.598,1313.17 988.663,1314.23 991.729,1315.28 994.794,1316.34 997.859,1317.4 1000.92,1318.46 
  1003.99,1319.52 1007.06,1320.56 1010.12,1321.61 1013.19,1322.64 1016.25,1323.66 1019.32,1324.66 1022.38,1325.65 1025.45,1326.61 1028.51,1327.56 1031.58,1328.48 
  1034.64,1329.38 1037.71,1330.24 1040.77,1331.08 1043.84,1331.88 1046.91,1332.65 1049.97,1333.38 1053.04,1334.07 1056.1,1334.72 1059.17,1335.33 1062.23,1335.89 
  1065.3,1336.4 1068.36,1336.85 1071.43,1337.26 1074.49,1337.61 1077.56,1337.9 1080.62,1338.13 1083.69,1338.3 1086.76,1338.41 1089.82,1338.45 1092.89,1338.42 
  1095.95,1338.32 1099.02,1338.14 1102.08,1337.89 1105.15,1337.56 1108.21,1337.15 1111.28,1336.66 1114.34,1336.08 1117.41,1335.42 1120.47,1334.67 1123.54,1333.82 
  1126.61,1332.88 1129.67,1331.85 1132.74,1330.72 1135.8,1329.5 1138.87,1328.18 1141.93,1326.78 1145,1325.28 1148.06,1323.7 1151.13,1322.02 1154.19,1320.27 
  1157.26,1318.42 1160.32,1316.5 1163.39,1314.49 1166.46,1312.4 1169.52,1310.23 1172.59,1307.98 1175.65,1305.66 1178.72,1303.26 1181.78,1300.78 1184.85,1298.23 
  1187.91,1295.61 1190.98,1292.92 1194.04,1290.16 1197.11,1287.33 1200.17,1284.43 1203.24,1281.47 1206.3,1278.44 1209.37,1275.35 1212.44,1272.2 1215.5,1268.99 
  1218.57,1265.72 1221.63,1262.38 1224.7,1259 1227.76,1255.55 1230.83,1252.05 1233.89,1248.5 1236.96,1244.9 1240.02,1241.25 1243.09,1237.54 1246.15,1233.79 
  1249.22,1229.99 1252.29,1226.15 1255.35,1222.26 1258.42,1218.33 1261.48,1214.35 1264.55,1210.34 1267.61,1206.29 1270.68,1202.2 1273.74,1198.07 1276.81,1193.9 
  1279.87,1189.71 1282.94,1185.47 1286,1181.21 1289.07,1176.93 1292.14,1172.61 1295.2,1168.28 1298.27,1163.92 1301.33,1159.55 1304.4,1155.16 1307.46,1150.77 
  1310.53,1146.36 1313.59,1141.95 1316.66,1137.54 1319.72,1133.12 1322.79,1128.71 1325.85,1124.31 1328.92,1119.91 1331.99,1115.52 1335.05,1111.14 1338.12,1106.79 
  1341.18,1102.45 1344.25,1098.13 1347.31,1093.83 1350.38,1089.57 1353.44,1085.33 1356.51,1081.12 1359.57,1076.95 1362.64,1072.82 1365.7,1068.73 1368.77,1064.68 
  1371.84,1060.68 1374.9,1056.73 1377.97,1052.83 1381.03,1048.98 1384.1,1045.19 1387.16,1041.46 1390.23,1037.79 1393.29,1034.19 1396.36,1030.65 1399.42,1027.19 
  1402.49,1023.8 1405.55,1020.48 1408.62,1017.24 1411.69,1014.09 1414.75,1011.02 1417.82,1008.04 1420.88,1005.14 1423.95,1002.34 1427.01,999.634 1430.08,997.025 
  1433.14,994.517 1436.21,992.112 1439.27,989.808 1442.34,987.605 1445.4,985.5 1448.47,983.493 1451.54,981.581 1454.6,979.763 1457.67,978.038 1460.73,976.404 
  1463.8,974.86 1466.86,973.403 1469.93,972.033 1472.99,970.747 1476.06,969.545 1479.12,968.425 1482.19,967.385 1485.25,966.424 1488.32,965.539 1491.39,964.731 
  1494.45,963.997 1497.52,963.335 1500.58,962.744 1503.65,962.223 1506.71,961.769 1509.78,961.383 1512.84,961.06 1515.91,960.802 1518.97,960.605 1522.04,960.468 
  1525.1,960.39 1528.17,960.37 1531.23,960.405 1534.3,960.494 1537.37,960.635 1540.43,960.828 1543.5,961.07 1546.56,961.36 1549.63,961.697 1552.69,962.078 
  1555.76,962.503 1558.82,962.969 1561.89,963.476 1564.95,964.022 1568.02,964.604 1571.08,965.223 1574.15,965.875 1577.22,966.56 1580.28,967.276 1583.35,968.022 
  1586.41,968.796 1589.48,969.596 1592.54,970.425 1595.61,971.285 1598.67,972.178 1601.74,973.105 1604.8,974.07 1607.87,975.073 1610.93,976.118 1614,977.206 
  1617.07,978.34 1620.13,979.521 1623.2,980.751 1626.26,982.034 1629.33,983.37 1632.39,984.763 1635.46,986.213 1638.52,987.724 1641.59,989.297 1644.65,990.935 
  1647.72,992.639 1650.78,994.411 1653.85,996.255 1656.92,998.171 1659.98,1000.16 1663.05,1002.23 1666.11,1004.38 1669.18,1006.61 1672.24,1008.92 1675.31,1011.32 
  1678.37,1013.8 1681.44,1016.38 1684.5,1019.05 1687.57,1021.81 1690.63,1024.67 1693.7,1027.62 1696.77,1030.68 1699.83,1033.84 1702.9,1037.1 1705.96,1040.47 
  1709.03,1043.95 1712.09,1047.54 1715.16,1051.24 1718.22,1055.06 1721.29,1059 1724.35,1063.05 1727.42,1067.23 1730.48,1071.53 1733.55,1075.95 1736.62,1080.5 
  1739.68,1085.19 1742.75,1090 1745.81,1094.94 1748.88,1100 1751.94,1105.16 1755.01,1110.43 1758.07,1115.8 1761.14,1121.25 1764.2,1126.79 1767.27,1132.4 
  1770.33,1138.09 1773.4,1143.83 1776.47,1149.62 1779.53,1155.46 1782.6,1161.34 1785.66,1167.25 1788.73,1173.19 1791.79,1179.14 1794.86,1185.11 1797.92,1191.08 
  1800.99,1197.04 1804.05,1203 1807.12,1208.93 1810.18,1214.84 1813.25,1220.72 1816.31,1226.56 1819.38,1232.35 1822.45,1238.09 1825.51,1243.77 1828.58,1249.38 
  1831.64,1254.91 1834.71,1260.36 1837.77,1265.73 1840.84,1270.99 1843.9,1276.16 1846.97,1281.21 1850.03,1286.14 1853.1,1290.95 1856.16,1295.62 1859.23,1300.16 
  1862.3,1304.55 1865.36,1308.79 1868.43,1312.86 1871.49,1316.77 1874.56,1320.5 1877.62,1324.05 1880.69,1327.41 1883.75,1330.57 1886.82,1333.53 1889.88,1336.28 
  1892.95,1338.81 1896.01,1341.12 1899.08,1343.21 1902.15,1345.08 1905.21,1346.74 1908.28,1348.2 1911.34,1349.45 1914.41,1350.51 1917.47,1351.38 1920.54,1352.06 
  1923.6,1352.56 1926.67,1352.89 1929.73,1353.04 1932.8,1353.03 1935.86,1352.85 1938.93,1352.52 1942,1352.04 1945.06,1351.41 1948.13,1350.64 1951.19,1349.73 
  1954.26,1348.69 1957.32,1347.52 1960.39,1346.23 1963.45,1344.82 1966.52,1343.3 1969.58,1341.67 1972.65,1339.94 1975.71,1338.12 1978.78,1336.19 1981.85,1334.18 
  1984.91,1332.09 1987.98,1329.92 1991.04,1327.68 1994.11,1325.36 1997.17,1322.99 2000.24,1320.55 2003.3,1318.07 2006.37,1315.53 2009.43,1312.95 2012.5,1310.33 
  2015.56,1307.67 2018.63,1304.99 2021.7,1302.28 2024.76,1299.55 2027.83,1296.81 2030.89,1294.06 2033.96,1291.31 2037.02,1288.55 2040.09,1285.8 2043.15,1283.06 
  2046.22,1280.33 2049.28,1277.62 2052.35,1274.94 2055.41,1272.27 2058.48,1269.62 2061.55,1266.99 2064.61,1264.38 2067.68,1261.79 2070.74,1259.22 2073.81,1256.67 
  2076.87,1254.14 2079.94,1251.63 2083,1249.13 2086.07,1246.66 2089.13,1244.2 2092.2,1241.77 2095.26,1239.35 2098.33,1236.95 2101.4,1234.57 2104.46,1232.21 
  2107.53,1229.87 2110.59,1227.55 2113.66,1225.24 2116.72,1222.96 2119.79,1220.69 2122.85,1218.44 2125.92,1216.21 2128.98,1213.99 2132.05,1211.8 2135.11,1209.62 
  2138.18,1207.47 2141.24,1205.33 2144.31,1203.2 2147.38,1201.1 2150.44,1199.01 2153.51,1196.95 2156.57,1194.9 2159.64,1192.86 2162.7,1190.85 2165.77,1188.85 
  2168.83,1186.87 2171.9,1184.91 2174.96,1182.97 2178.03,1181.04 2181.09,1179.13 2184.16,1177.24 2187.23,1175.36 2190.29,1173.51 2193.36,1171.67 2196.42,1169.84 
  2199.49,1168.04 
  "/>
<polyline clip-path="url(#clip473)" style="stroke:#3da44d; stroke-width:4; stroke-opacity:1; fill:none" points="
  360.261,1055.24 363.326,1055.12 366.392,1054.99 369.457,1054.87 372.522,1054.75 375.588,1054.62 378.653,1054.5 381.719,1054.37 384.784,1054.25 387.849,1054.12 
  390.915,1054 393.98,1053.87 397.045,1053.75 400.111,1053.63 403.176,1053.5 406.242,1053.38 409.307,1053.25 412.372,1053.13 415.438,1053 418.503,1052.88 
  421.569,1052.75 424.634,1052.63 427.699,1052.5 430.765,1052.38 433.83,1052.26 436.895,1052.13 439.961,1052.01 443.026,1051.88 446.092,1051.76 449.157,1051.63 
  452.222,1051.51 455.288,1051.38 458.353,1051.26 461.418,1051.14 464.484,1051.01 467.549,1050.89 470.615,1050.76 473.68,1050.64 476.745,1050.51 479.811,1050.39 
  482.876,1050.26 485.941,1050.14 489.007,1050.02 492.072,1049.89 495.138,1049.77 498.203,1049.64 501.268,1049.52 504.334,1049.39 507.399,1049.27 510.464,1049.14 
  513.53,1049.02 516.595,1048.9 519.661,1048.77 522.726,1048.65 525.791,1048.53 528.857,1048.42 531.922,1048.3 534.987,1048.2 538.053,1048.1 541.118,1048.01 
  544.184,1047.92 547.249,1047.85 550.314,1047.78 553.38,1047.73 556.445,1047.69 559.51,1047.66 562.576,1047.64 565.641,1047.64 568.707,1047.65 571.772,1047.68 
  574.837,1047.72 577.903,1047.79 580.968,1047.87 584.033,1047.97 587.099,1048.09 590.164,1048.24 593.23,1048.4 596.295,1048.59 599.36,1048.8 602.426,1049.04 
  605.491,1049.31 608.556,1049.6 611.622,1049.92 614.687,1050.27 617.753,1050.64 620.818,1051.05 623.883,1051.49 626.949,1051.96 630.014,1052.47 633.08,1053 
  636.145,1053.58 639.21,1054.19 642.276,1054.83 645.341,1055.51 648.406,1056.23 651.472,1057 654.537,1057.8 657.603,1058.64 660.668,1059.52 663.733,1060.45 
  666.799,1061.42 669.864,1062.44 672.929,1063.5 675.995,1064.6 679.06,1065.75 682.126,1066.94 685.191,1068.18 688.256,1069.46 691.322,1070.78 694.387,1072.15 
  697.452,1073.57 700.518,1075.02 703.583,1076.52 706.649,1078.06 709.714,1079.65 712.779,1081.28 715.845,1082.95 718.91,1084.66 721.975,1086.42 725.041,1088.22 
  728.106,1090.06 731.172,1091.94 734.237,1093.87 737.302,1095.84 740.368,1097.85 743.433,1099.9 746.498,1102 749.564,1104.13 752.629,1106.31 755.695,1108.53 
  758.76,1110.79 761.825,1113.09 764.891,1115.43 767.956,1117.81 771.021,1120.23 774.087,1122.7 777.152,1125.2 780.218,1127.75 783.283,1130.33 786.348,1132.96 
  789.414,1135.62 792.479,1138.33 795.544,1141.07 798.61,1143.86 801.675,1146.68 804.741,1149.54 807.806,1152.45 810.871,1155.39 813.937,1158.37 817.002,1161.39 
  820.067,1164.45 823.133,1167.54 826.198,1170.68 829.264,1173.84 832.329,1177.04 835.394,1180.27 838.46,1183.53 841.525,1186.8 844.591,1190.11 847.656,1193.43 
  850.721,1196.76 853.787,1200.12 856.852,1203.48 859.917,1206.86 862.983,1210.24 866.048,1213.63 869.114,1217.02 872.179,1220.41 875.244,1223.8 878.31,1227.19 
  881.375,1230.57 884.44,1233.94 887.506,1237.29 890.571,1240.64 893.637,1243.97 896.702,1247.28 899.767,1250.57 902.833,1253.83 905.898,1257.07 908.963,1260.28 
  912.029,1263.46 915.094,1266.61 918.16,1269.72 921.225,1272.8 924.29,1275.84 927.356,1278.83 930.421,1281.78 933.486,1284.68 936.552,1287.53 939.617,1290.33 
  942.683,1293.07 945.748,1295.76 948.813,1298.39 951.879,1300.95 954.944,1303.46 958.009,1305.89 961.075,1308.26 964.14,1310.56 967.206,1312.78 970.271,1314.93 
  973.336,1317 976.402,1318.99 979.467,1320.9 982.532,1322.73 985.598,1324.48 988.663,1326.15 991.729,1327.74 994.794,1329.25 997.859,1330.69 1000.92,1332.05 
  1003.99,1333.33 1007.06,1334.53 1010.12,1335.66 1013.19,1336.71 1016.25,1337.69 1019.32,1338.59 1022.38,1339.41 1025.45,1340.16 1028.51,1340.84 1031.58,1341.44 
  1034.64,1341.97 1037.71,1342.43 1040.77,1342.81 1043.84,1343.12 1046.91,1343.36 1049.97,1343.53 1053.04,1343.63 1056.1,1343.66 1059.17,1343.61 1062.23,1343.5 
  1065.3,1343.32 1068.36,1343.07 1071.43,1342.74 1074.49,1342.36 1077.56,1341.9 1080.62,1341.37 1083.69,1340.78 1086.76,1340.12 1089.82,1339.4 1092.89,1338.6 
  1095.95,1337.75 1099.02,1336.82 1102.08,1335.84 1105.15,1334.78 1108.21,1333.67 1111.28,1332.49 1114.34,1331.24 1117.41,1329.94 1120.47,1328.57 1123.54,1327.14 
  1126.61,1325.64 1129.67,1324.09 1132.74,1322.47 1135.8,1320.8 1138.87,1319.06 1141.93,1317.27 1145,1315.42 1148.06,1313.51 1151.13,1311.55 1154.19,1309.54 
  1157.26,1307.46 1160.32,1305.34 1163.39,1303.16 1166.46,1300.94 1169.52,1298.66 1172.59,1296.33 1175.65,1293.95 1178.72,1291.53 1181.78,1289.05 1184.85,1286.54 
  1187.91,1283.97 1190.98,1281.36 1194.04,1278.71 1197.11,1276.01 1200.17,1273.27 1203.24,1270.49 1206.3,1267.67 1209.37,1264.81 1212.44,1261.91 1215.5,1258.97 
  1218.57,1256 1221.63,1252.99 1224.7,1249.94 1227.76,1246.86 1230.83,1243.74 1233.89,1240.6 1236.96,1237.41 1240.02,1234.2 1243.09,1230.96 1246.15,1227.69 
  1249.22,1224.38 1252.29,1221.06 1255.35,1217.7 1258.42,1214.32 1261.48,1210.91 1264.55,1207.47 1267.61,1204.02 1270.68,1200.54 1273.74,1197.03 1276.81,1193.51 
  1279.87,1189.96 1282.94,1186.4 1286,1182.82 1289.07,1179.22 1292.14,1175.6 1295.2,1171.97 1298.27,1168.33 1301.33,1164.67 1304.4,1161 1307.46,1157.33 
  1310.53,1153.64 1313.59,1149.95 1316.66,1146.25 1319.72,1142.55 1322.79,1138.84 1325.85,1135.14 1328.92,1131.43 1331.99,1127.72 1335.05,1124.01 1338.12,1120.31 
  1341.18,1116.61 1344.25,1112.92 1347.31,1109.23 1350.38,1105.55 1353.44,1101.88 1356.51,1098.22 1359.57,1094.57 1362.64,1090.94 1365.7,1087.32 1368.77,1083.71 
  1371.84,1080.12 1374.9,1076.55 1377.97,1073 1381.03,1069.47 1384.1,1065.97 1387.16,1062.48 1390.23,1059.02 1393.29,1055.58 1396.36,1052.18 1399.42,1048.8 
  1402.49,1045.44 1405.55,1042.12 1408.62,1038.84 1411.69,1035.58 1414.75,1032.36 1417.82,1029.17 1420.88,1026.03 1423.95,1022.92 1427.01,1019.85 1430.08,1016.82 
  1433.14,1013.83 1436.21,1010.88 1439.27,1007.98 1442.34,1005.13 1445.4,1002.33 1448.47,999.574 1451.54,996.871 1454.6,994.223 1457.67,991.63 1460.73,989.094 
  1463.8,986.618 1466.86,984.202 1469.93,981.848 1472.99,979.559 1476.06,977.335 1479.12,975.179 1482.19,973.093 1485.25,971.078 1488.32,969.136 1491.39,967.268 
  1494.45,965.477 1497.52,963.764 1500.58,962.131 1503.65,960.58 1506.71,959.112 1509.78,957.73 1512.84,956.434 1515.91,955.227 1518.97,954.11 1522.04,953.086 
  1525.1,952.155 1528.17,951.32 1531.23,950.582 1534.3,949.944 1537.37,949.407 1540.43,948.972 1543.5,948.641 1546.56,948.417 1549.63,948.3 1552.69,948.294 
  1555.76,948.398 1558.82,948.616 1561.89,948.948 1564.95,949.398 1568.02,949.965 1571.08,950.653 1574.15,951.463 1577.22,952.396 1580.28,953.454 1583.35,954.64 
  1586.41,955.954 1589.48,957.399 1592.54,958.969 1595.61,960.663 1598.67,962.474 1601.74,964.4 1604.8,966.437 1607.87,968.58 1610.93,970.825 1614,973.169 
  1617.07,975.606 1620.13,978.134 1623.2,980.749 1626.26,983.445 1629.33,986.219 1632.39,989.067 1635.46,991.986 1638.52,994.97 1641.59,998.016 1644.65,1001.12 
  1647.72,1004.28 1650.78,1007.49 1653.85,1010.74 1656.92,1014.03 1659.98,1017.37 1663.05,1020.73 1666.11,1024.13 1669.18,1027.55 1672.24,1030.99 1675.31,1034.45 
  1678.37,1037.93 1681.44,1041.41 1684.5,1044.9 1687.57,1048.39 1690.63,1051.88 1693.7,1055.36 1696.77,1058.83 1699.83,1062.28 1702.9,1065.72 1705.96,1069.13 
  1709.03,1072.52 1712.09,1075.87 1715.16,1079.19 1718.22,1082.47 1721.29,1085.71 1724.35,1088.9 1727.42,1092.04 1730.48,1095.12 1733.55,1098.15 1736.62,1101.11 
  1739.68,1104 1742.75,1106.83 1745.81,1109.58 1748.88,1112.26 1751.94,1114.88 1755.01,1117.42 1758.07,1119.9 1761.14,1122.32 1764.2,1124.67 1767.27,1126.95 
  1770.33,1129.18 1773.4,1131.34 1776.47,1133.44 1779.53,1135.48 1782.6,1137.46 1785.66,1139.39 1788.73,1141.25 1791.79,1143.06 1794.86,1144.82 1797.92,1146.52 
  1800.99,1148.17 1804.05,1149.76 1807.12,1151.31 1810.18,1152.8 1813.25,1154.25 1816.31,1155.64 1819.38,1156.99 1822.45,1158.29 1825.51,1159.55 1828.58,1160.76 
  1831.64,1161.93 1834.71,1163.06 1837.77,1164.14 1840.84,1165.18 1843.9,1166.19 1846.97,1167.15 1850.03,1168.08 1853.1,1168.97 1856.16,1169.82 1859.23,1170.64 
  1862.3,1171.42 1865.36,1172.17 1868.43,1172.89 1871.49,1173.58 1874.56,1174.24 1877.62,1174.87 1880.69,1175.47 1883.75,1176.04 1886.82,1176.59 1889.88,1177.11 
  1892.95,1177.61 1896.01,1178.08 1899.08,1178.53 1902.15,1178.96 1905.21,1179.36 1908.28,1179.75 1911.34,1180.11 1914.41,1180.45 1917.47,1180.77 1920.54,1181.07 
  1923.6,1181.36 1926.67,1181.62 1929.73,1181.87 1932.8,1182.09 1935.86,1182.3 1938.93,1182.5 1942,1182.67 1945.06,1182.83 1948.13,1182.98 1951.19,1183.11 
  1954.26,1183.22 1957.32,1183.33 1960.39,1183.41 1963.45,1183.49 1966.52,1183.55 1969.58,1183.6 1972.65,1183.64 1975.71,1183.66 1978.78,1183.68 1981.85,1183.69 
  1984.91,1183.68 1987.98,1183.67 1991.04,1183.64 1994.11,1183.61 1997.17,1183.57 2000.24,1183.53 2003.3,1183.47 2006.37,1183.41 2009.43,1183.35 2012.5,1183.27 
  2015.56,1183.2 2018.63,1183.12 2021.7,1183.03 2024.76,1182.94 2027.83,1182.85 2030.89,1182.75 2033.96,1182.65 2037.02,1182.55 2040.09,1182.45 2043.15,1182.35 
  2046.22,1182.24 2049.28,1182.14 2052.35,1182.04 2055.41,1181.93 2058.48,1181.83 2061.55,1181.73 2064.61,1181.62 2067.68,1181.52 2070.74,1181.42 2073.81,1181.31 
  2076.87,1181.21 2079.94,1181.11 2083,1181 2086.07,1180.9 2089.13,1180.8 2092.2,1180.69 2095.26,1180.59 2098.33,1180.49 2101.4,1180.38 2104.46,1180.28 
  2107.53,1180.18 2110.59,1180.07 2113.66,1179.97 2116.72,1179.87 2119.79,1179.76 2122.85,1179.66 2125.92,1179.56 2128.98,1179.45 2132.05,1179.35 2135.11,1179.25 
  2138.18,1179.14 2141.24,1179.04 2144.31,1178.94 2147.38,1178.83 2150.44,1178.73 2153.51,1178.63 2156.57,1178.52 2159.64,1178.42 2162.7,1178.32 2165.77,1178.21 
  2168.83,1178.11 2171.9,1178.01 2174.96,1177.91 2178.03,1177.8 2181.09,1177.7 2184.16,1177.6 2187.23,1177.49 2190.29,1177.39 2193.36,1177.29 2196.42,1177.18 
  2199.49,1177.08 
  "/>
<polyline clip-path="url(#clip473)" style="stroke:#c271d2; stroke-width:4; stroke-opacity:1; fill:none" points="
  513.53,1939.02 513.53,324.976 
  "/>
<polyline clip-path="url(#clip473)" style="stroke:#c271d2; stroke-width:4; stroke-opacity:1; fill:none" points="
  2046.22,1939.02 2046.22,324.976 
  "/>
<polyline clip-path="url(#clip473)" style="stroke:#ac8d18; stroke-width:4; stroke-opacity:1; fill:none" stroke-dasharray="16, 10" points="
  513.53,1939.02 513.53,324.976 
  "/>
<polyline clip-path="url(#clip473)" style="stroke:#ac8d18; stroke-width:4; stroke-opacity:1; fill:none" stroke-dasharray="16, 10" points="
  666.799,1939.02 666.799,324.976 
  "/>
<polyline clip-path="url(#clip473)" style="stroke:#ac8d18; stroke-width:4; stroke-opacity:1; fill:none" stroke-dasharray="16, 10" points="
  820.067,1939.02 820.067,324.976 
  "/>
<polyline clip-path="url(#clip473)" style="stroke:#ac8d18; stroke-width:4; stroke-opacity:1; fill:none" stroke-dasharray="16, 10" points="
  973.336,1939.02 973.336,324.976 
  "/>
<polyline clip-path="url(#clip473)" style="stroke:#ac8d18; stroke-width:4; stroke-opacity:1; fill:none" stroke-dasharray="16, 10" points="
  1126.61,1939.02 1126.61,324.976 
  "/>
<polyline clip-path="url(#clip473)" style="stroke:#ac8d18; stroke-width:4; stroke-opacity:1; fill:none" stroke-dasharray="16, 10" points="
  1279.87,1939.02 1279.87,324.976 
  "/>
<polyline clip-path="url(#clip473)" style="stroke:#ac8d18; stroke-width:4; stroke-opacity:1; fill:none" stroke-dasharray="16, 10" points="
  1433.14,1939.02 1433.14,324.976 
  "/>
<polyline clip-path="url(#clip473)" style="stroke:#ac8d18; stroke-width:4; stroke-opacity:1; fill:none" stroke-dasharray="16, 10" points="
  1586.41,1939.02 1586.41,324.976 
  "/>
<polyline clip-path="url(#clip473)" style="stroke:#ac8d18; stroke-width:4; stroke-opacity:1; fill:none" stroke-dasharray="16, 10" points="
  1739.68,1939.02 1739.68,324.976 
  "/>
<polyline clip-path="url(#clip473)" style="stroke:#ac8d18; stroke-width:4; stroke-opacity:1; fill:none" stroke-dasharray="16, 10" points="
  1892.95,1939.02 1892.95,324.976 
  "/>
<polyline clip-path="url(#clip473)" style="stroke:#ac8d18; stroke-width:4; stroke-opacity:1; fill:none" stroke-dasharray="16, 10" points="
  2046.22,1939.02 2046.22,324.976 
  "/>
<path clip-path="url(#clip470)" d="
M1756.56 1062.37 L2281.23 1062.37 L2281.23 880.926 L1756.56 880.926  Z
  " fill="#ffffff" fill-rule="evenodd" fill-opacity="1"/>
<polyline clip-path="url(#clip470)" style="stroke:#000000; stroke-width:4; stroke-opacity:1; fill:none" points="
  1756.56,1062.37 2281.23,1062.37 2281.23,880.926 1756.56,880.926 1756.56,1062.37 
  "/>
<polyline clip-path="url(#clip470)" style="stroke:#e26f46; stroke-width:4; stroke-opacity:1; fill:none" points="
  1780.4,941.406 1923.45,941.406 
  "/>
<g clip-path="url(#clip470)">
<text style="fill:#000000; fill-opacity:1; font-family:Arial,Helvetica Neue,Helvetica,sans-serif; font-size:48px; text-anchor:start;" transform="rotate(0, 1947.3, 958.906)" x="1947.3" y="958.906">spline</text>
</g>
<polyline clip-path="url(#clip470)" style="stroke:#3da44d; stroke-width:4; stroke-opacity:1; fill:none" points="
  1780.4,1001.89 1923.45,1001.89 
  "/>
<g clip-path="url(#clip470)">
<text style="fill:#000000; fill-opacity:1; font-family:Arial,Helvetica Neue,Helvetica,sans-serif; font-size:48px; text-anchor:start;" transform="rotate(0, 1947.3, 1019.39)" x="1947.3" y="1019.39">natural spline</text>
</g>
</svg>
