<?xml version="1.0" encoding="utf-8"?>
<svg xmlns="http://www.w3.org/2000/svg" xmlns:xlink="http://www.w3.org/1999/xlink" width="600" height="400" viewBox="0 0 2400 1600">
<defs>
  <clipPath id="clip530">
    <rect x="0" y="0" width="2400" height="1600"/>
  </clipPath>
</defs>
<path clip-path="url(#clip530)" d="
M0 1600 L2400 1600 L2400 0 L0 0  Z
  " fill="#ffffff" fill-rule="evenodd" fill-opacity="1"/>
<defs>
  <clipPath id="clip531">
    <rect x="480" y="0" width="1681" height="1600"/>
  </clipPath>
</defs>
<path clip-path="url(#clip530)" d="
M206.992 1401.01 L2352.76 1401.01 L2352.76 62.9921 L206.992 62.9921  Z
  " fill="#ffffff" fill-rule="evenodd" fill-opacity="1"/>
<defs>
  <clipPath id="clip532">
    <rect x="206" y="62" width="2147" height="1339"/>
  </clipPath>
</defs>
<polyline clip-path="url(#clip532)" style="stroke:#000000; stroke-width:2; stroke-opacity:0.1; fill:none" points="
  651.905,1401.01 651.905,62.9921 
  "/>
<polyline clip-path="url(#clip532)" style="stroke:#000000; stroke-width:2; stroke-opacity:0.1; fill:none" points="
  1184.85,1401.01 1184.85,62.9921 
  "/>
<polyline clip-path="url(#clip532)" style="stroke:#000000; stroke-width:2; stroke-opacity:0.1; fill:none" points="
  1717.79,1401.01 1717.79,62.9921 
  "/>
<polyline clip-path="url(#clip532)" style="stroke:#000000; stroke-width:2; stroke-opacity:0.1; fill:none" points="
  2250.73,1401.01 2250.73,62.9921 
  "/>
<polyline clip-path="url(#clip530)" style="stroke:#000000; stroke-width:4; stroke-opacity:1; fill:none" points="
  206.992,1401.01 2352.76,1401.01 
  "/>
<polyline clip-path="url(#clip530)" style="stroke:#000000; stroke-width:4; stroke-opacity:1; fill:none" points="
  651.905,1401.01 651.905,1384.95 
  "/>
<polyline clip-path="url(#clip530)" style="stroke:#000000; stroke-width:4; stroke-opacity:1; fill:none" points="
  1184.85,1401.01 1184.85,1384.95 
  "/>
<polyline clip-path="url(#clip530)" style="stroke:#000000; stroke-width:4; stroke-opacity:1; fill:none" points="
  1717.79,1401.01 1717.79,1384.95 
  "/>
<polyline clip-path="url(#clip530)" style="stroke:#000000; stroke-width:4; stroke-opacity:1; fill:none" points="
  2250.73,1401.01 2250.73,1384.95 
  "/>
<g clip-path="url(#clip530)">
<text style="fill:#000000; fill-opacity:1; font-family:Arial,Helvetica Neue,Helvetica,sans-serif; font-size:48px; text-anchor:middle;" transform="rotate(0, 651.905, 1462.21)" x="651.905" y="1462.21">4</text>
</g>
<g clip-path="url(#clip530)">
<text style="fill:#000000; fill-opacity:1; font-family:Arial,Helvetica Neue,Helvetica,sans-serif; font-size:48px; text-anchor:middle;" transform="rotate(0, 1184.85, 1462.21)" x="1184.85" y="1462.21">5</text>
</g>
<g clip-path="url(#clip530)">
<text style="fill:#000000; fill-opacity:1; font-family:Arial,Helvetica Neue,Helvetica,sans-serif; font-size:48px; text-anchor:middle;" transform="rotate(0, 1717.79, 1462.21)" x="1717.79" y="1462.21">6</text>
</g>
<g clip-path="url(#clip530)">
<text style="fill:#000000; fill-opacity:1; font-family:Arial,Helvetica Neue,Helvetica,sans-serif; font-size:48px; text-anchor:middle;" transform="rotate(0, 2250.73, 1462.21)" x="2250.73" y="1462.21">7</text>
</g>
<g clip-path="url(#clip530)">
<text style="fill:#000000; fill-opacity:1; font-family:Arial,Helvetica Neue,Helvetica,sans-serif; font-size:66px; text-anchor:middle;" transform="rotate(0, 1279.87, 1534.87)" x="1279.87" y="1534.87">有効自由度</text>
</g>
<polyline clip-path="url(#clip532)" style="stroke:#000000; stroke-width:2; stroke-opacity:0.1; fill:none" points="
  206.992,1313.7 2352.76,1313.7 
  "/>
<polyline clip-path="url(#clip532)" style="stroke:#000000; stroke-width:2; stroke-opacity:0.1; fill:none" points="
  206.992,912.442 2352.76,912.442 
  "/>
<polyline clip-path="url(#clip532)" style="stroke:#000000; stroke-width:2; stroke-opacity:0.1; fill:none" points="
  206.992,511.188 2352.76,511.188 
  "/>
<polyline clip-path="url(#clip532)" style="stroke:#000000; stroke-width:2; stroke-opacity:0.1; fill:none" points="
  206.992,109.935 2352.76,109.935 
  "/>
<polyline clip-path="url(#clip530)" style="stroke:#000000; stroke-width:4; stroke-opacity:1; fill:none" points="
  206.992,1401.01 206.992,62.9921 
  "/>
<polyline clip-path="url(#clip530)" style="stroke:#000000; stroke-width:4; stroke-opacity:1; fill:none" points="
  206.992,1313.7 232.741,1313.7 
  "/>
<polyline clip-path="url(#clip530)" style="stroke:#000000; stroke-width:4; stroke-opacity:1; fill:none" points="
  206.992,912.442 232.741,912.442 
  "/>
<polyline clip-path="url(#clip530)" style="stroke:#000000; stroke-width:4; stroke-opacity:1; fill:none" points="
  206.992,511.188 232.741,511.188 
  "/>
<polyline clip-path="url(#clip530)" style="stroke:#000000; stroke-width:4; stroke-opacity:1; fill:none" points="
  206.992,109.935 232.741,109.935 
  "/>
<g clip-path="url(#clip530)">
<text style="fill:#000000; fill-opacity:1; font-family:Arial,Helvetica Neue,Helvetica,sans-serif; font-size:48px; text-anchor:end;" transform="rotate(0, 170.992, 1331.2)" x="170.992" y="1331.2">0.0102</text>
</g>
<g clip-path="url(#clip530)">
<text style="fill:#000000; fill-opacity:1; font-family:Arial,Helvetica Neue,Helvetica,sans-serif; font-size:48px; text-anchor:end;" transform="rotate(0, 170.992, 929.942)" x="170.992" y="929.942">0.0103</text>
</g>
<g clip-path="url(#clip530)">
<text style="fill:#000000; fill-opacity:1; font-family:Arial,Helvetica Neue,Helvetica,sans-serif; font-size:48px; text-anchor:end;" transform="rotate(0, 170.992, 528.688)" x="170.992" y="528.688">0.0104</text>
</g>
<g clip-path="url(#clip530)">
<text style="fill:#000000; fill-opacity:1; font-family:Arial,Helvetica Neue,Helvetica,sans-serif; font-size:48px; text-anchor:end;" transform="rotate(0, 170.992, 127.435)" x="170.992" y="127.435">0.0105</text>
</g>
<g clip-path="url(#clip530)">
<text style="fill:#000000; fill-opacity:1; font-family:Arial,Helvetica Neue,Helvetica,sans-serif; font-size:66px; text-anchor:middle;" transform="rotate(-90, 0.23714, 732)" x="0.23714" y="732">CVによる予測誤差</text>
</g>
<g clip-path="url(#clip530)">
<text style="fill:#000000; fill-opacity:1; font-family:Arial,Helvetica Neue,Helvetica,sans-serif; font-size:84px; text-anchor:middle;" transform="rotate(0, 1279.87, 73.2)" x="1279.87" y="73.2">有効自由度とCVによる予測誤差</text>
</g>
<polyline clip-path="url(#clip532)" style="stroke:#009af9; stroke-width:4; stroke-opacity:1; fill:none" points="
  2292.03,100.86 1782.31,518.898 1521.19,730.866 1350.51,868.948 1225.86,968.157 1128.8,1043.19 1049.97,1101.76 984.002,1148.44 927.555,1186.19 878.411,1217.07 
  835.03,1242.52 796.302,1263.62 761.4,1281.2 729.694,1295.88 700.695,1308.17 674.015,1318.46 649.34,1327.08 626.416,1334.28 605.031,1340.29 585.01,1345.28 
  566.203,1349.41 548.485,1352.79 531.748,1355.54 515.898,1357.74 500.855,1359.48 486.547,1360.81 472.912,1361.79 459.896,1362.48 447.449,1362.91 435.529,1363.12 
  424.097,1363.14 413.117,1363 402.559,1362.72 392.395,1362.32 382.598,1361.82 373.146,1361.24 364.017,1360.59 355.191,1359.88 346.652,1359.12 338.382,1358.33 
  330.367,1357.5 322.593,1356.65 315.047,1355.78 307.718,1354.9 300.594,1354.01 293.665,1353.12 286.921,1352.23 280.355,1351.35 273.958,1350.47 267.721,1349.59 
  
  "/>
</svg>
