<?xml version="1.0" encoding="utf-8"?>
<svg xmlns="http://www.w3.org/2000/svg" xmlns:xlink="http://www.w3.org/1999/xlink" width="600" height="400" viewBox="0 0 2400 1600">
<defs>
  <clipPath id="clip100">
    <rect x="0" y="0" width="2400" height="1600"/>
  </clipPath>
</defs>
<path clip-path="url(#clip100)" d="
M0 1600 L2400 1600 L2400 0 L0 0  Z
  " fill="#ffffff" fill-rule="evenodd" fill-opacity="1"/>
<defs>
  <clipPath id="clip101">
    <rect x="480" y="0" width="1681" height="1600"/>
  </clipPath>
</defs>
<path clip-path="url(#clip100)" d="
M102.74 1505.26 L2352.76 1505.26 L2352.76 62.9921 L102.74 62.9921  Z
  " fill="#ffffff" fill-rule="evenodd" fill-opacity="1"/>
<defs>
  <clipPath id="clip102">
    <rect x="102" y="62" width="2251" height="1443"/>
  </clipPath>
</defs>
<polyline clip-path="url(#clip102)" style="stroke:#000000; stroke-width:2; stroke-opacity:0.1; fill:none" points="
  102.74,1505.26 102.74,62.9921 
  "/>
<polyline clip-path="url(#clip102)" style="stroke:#000000; stroke-width:2; stroke-opacity:0.1; fill:none" points="
  665.244,1505.26 665.244,62.9921 
  "/>
<polyline clip-path="url(#clip102)" style="stroke:#000000; stroke-width:2; stroke-opacity:0.1; fill:none" points="
  1227.75,1505.26 1227.75,62.9921 
  "/>
<polyline clip-path="url(#clip102)" style="stroke:#000000; stroke-width:2; stroke-opacity:0.1; fill:none" points="
  1790.25,1505.26 1790.25,62.9921 
  "/>
<polyline clip-path="url(#clip102)" style="stroke:#000000; stroke-width:2; stroke-opacity:0.1; fill:none" points="
  2352.76,1505.26 2352.76,62.9921 
  "/>
<polyline clip-path="url(#clip100)" style="stroke:#000000; stroke-width:4; stroke-opacity:1; fill:none" points="
  102.74,1505.26 2352.76,1505.26 
  "/>
<polyline clip-path="url(#clip100)" style="stroke:#000000; stroke-width:4; stroke-opacity:1; fill:none" points="
  102.74,1505.26 102.74,1487.95 
  "/>
<polyline clip-path="url(#clip100)" style="stroke:#000000; stroke-width:4; stroke-opacity:1; fill:none" points="
  665.244,1505.26 665.244,1487.95 
  "/>
<polyline clip-path="url(#clip100)" style="stroke:#000000; stroke-width:4; stroke-opacity:1; fill:none" points="
  1227.75,1505.26 1227.75,1487.95 
  "/>
<polyline clip-path="url(#clip100)" style="stroke:#000000; stroke-width:4; stroke-opacity:1; fill:none" points="
  1790.25,1505.26 1790.25,1487.95 
  "/>
<polyline clip-path="url(#clip100)" style="stroke:#000000; stroke-width:4; stroke-opacity:1; fill:none" points="
  2352.76,1505.26 2352.76,1487.95 
  "/>
<g clip-path="url(#clip100)">
<text style="fill:#000000; fill-opacity:1; font-family:Arial,Helvetica Neue,Helvetica,sans-serif; font-size:48px; text-anchor:middle;" transform="rotate(0, 102.74, 1566.46)" x="102.74" y="1566.46">−10</text>
</g>
<g clip-path="url(#clip100)">
<text style="fill:#000000; fill-opacity:1; font-family:Arial,Helvetica Neue,Helvetica,sans-serif; font-size:48px; text-anchor:middle;" transform="rotate(0, 665.244, 1566.46)" x="665.244" y="1566.46">−5</text>
</g>
<g clip-path="url(#clip100)">
<text style="fill:#000000; fill-opacity:1; font-family:Arial,Helvetica Neue,Helvetica,sans-serif; font-size:48px; text-anchor:middle;" transform="rotate(0, 1227.75, 1566.46)" x="1227.75" y="1566.46">0</text>
</g>
<g clip-path="url(#clip100)">
<text style="fill:#000000; fill-opacity:1; font-family:Arial,Helvetica Neue,Helvetica,sans-serif; font-size:48px; text-anchor:middle;" transform="rotate(0, 1790.25, 1566.46)" x="1790.25" y="1566.46">5</text>
</g>
<g clip-path="url(#clip100)">
<text style="fill:#000000; fill-opacity:1; font-family:Arial,Helvetica Neue,Helvetica,sans-serif; font-size:48px; text-anchor:middle;" transform="rotate(0, 2352.76, 1566.46)" x="2352.76" y="1566.46">10</text>
</g>
<g clip-path="url(#clip100)">
<text style="fill:#000000; fill-opacity:1; font-family:Arial,Helvetica Neue,Helvetica,sans-serif; font-size:66px; text-anchor:middle;" transform="rotate(0, 1227.75, 1639.12)" x="1227.75" y="1639.12">x</text>
</g>
<polyline clip-path="url(#clip102)" style="stroke:#000000; stroke-width:2; stroke-opacity:0.1; fill:none" points="
  102.74,1464.44 2352.76,1464.44 
  "/>
<polyline clip-path="url(#clip102)" style="stroke:#000000; stroke-width:2; stroke-opacity:0.1; fill:none" points="
  102.74,1124.28 2352.76,1124.28 
  "/>
<polyline clip-path="url(#clip102)" style="stroke:#000000; stroke-width:2; stroke-opacity:0.1; fill:none" points="
  102.74,784.126 2352.76,784.126 
  "/>
<polyline clip-path="url(#clip102)" style="stroke:#000000; stroke-width:2; stroke-opacity:0.1; fill:none" points="
  102.74,443.969 2352.76,443.969 
  "/>
<polyline clip-path="url(#clip102)" style="stroke:#000000; stroke-width:2; stroke-opacity:0.1; fill:none" points="
  102.74,103.811 2352.76,103.811 
  "/>
<polyline clip-path="url(#clip100)" style="stroke:#000000; stroke-width:4; stroke-opacity:1; fill:none" points="
  102.74,1505.26 102.74,62.9921 
  "/>
<polyline clip-path="url(#clip100)" style="stroke:#000000; stroke-width:4; stroke-opacity:1; fill:none" points="
  102.74,1464.44 129.74,1464.44 
  "/>
<polyline clip-path="url(#clip100)" style="stroke:#000000; stroke-width:4; stroke-opacity:1; fill:none" points="
  102.74,1124.28 129.74,1124.28 
  "/>
<polyline clip-path="url(#clip100)" style="stroke:#000000; stroke-width:4; stroke-opacity:1; fill:none" points="
  102.74,784.126 129.74,784.126 
  "/>
<polyline clip-path="url(#clip100)" style="stroke:#000000; stroke-width:4; stroke-opacity:1; fill:none" points="
  102.74,443.969 129.74,443.969 
  "/>
<polyline clip-path="url(#clip100)" style="stroke:#000000; stroke-width:4; stroke-opacity:1; fill:none" points="
  102.74,103.811 129.74,103.811 
  "/>
<g clip-path="url(#clip100)">
<text style="fill:#000000; fill-opacity:1; font-family:Arial,Helvetica Neue,Helvetica,sans-serif; font-size:48px; text-anchor:end;" transform="rotate(0, 66.7402, 1481.94)" x="66.7402" y="1481.94">0.00</text>
</g>
<g clip-path="url(#clip100)">
<text style="fill:#000000; fill-opacity:1; font-family:Arial,Helvetica Neue,Helvetica,sans-serif; font-size:48px; text-anchor:end;" transform="rotate(0, 66.7402, 1141.78)" x="66.7402" y="1141.78">0.25</text>
</g>
<g clip-path="url(#clip100)">
<text style="fill:#000000; fill-opacity:1; font-family:Arial,Helvetica Neue,Helvetica,sans-serif; font-size:48px; text-anchor:end;" transform="rotate(0, 66.7402, 801.626)" x="66.7402" y="801.626">0.50</text>
</g>
<g clip-path="url(#clip100)">
<text style="fill:#000000; fill-opacity:1; font-family:Arial,Helvetica Neue,Helvetica,sans-serif; font-size:48px; text-anchor:end;" transform="rotate(0, 66.7402, 461.469)" x="66.7402" y="461.469">0.75</text>
</g>
<g clip-path="url(#clip100)">
<text style="fill:#000000; fill-opacity:1; font-family:Arial,Helvetica Neue,Helvetica,sans-serif; font-size:48px; text-anchor:end;" transform="rotate(0, 66.7402, 121.311)" x="66.7402" y="121.311">1.00</text>
</g>
<g clip-path="url(#clip100)">
<text style="fill:#000000; fill-opacity:1; font-family:Arial,Helvetica Neue,Helvetica,sans-serif; font-size:66px; text-anchor:middle;" transform="rotate(-90, -50.4901, 784.126)" x="-50.4901" y="784.126">P(Y=1|x)</text>
</g>
<g clip-path="url(#clip100)">
<text style="fill:#000000; fill-opacity:1; font-family:Arial,Helvetica Neue,Helvetica,sans-serif; font-size:84px; text-anchor:middle;" transform="rotate(0, 1227.75, 73.2)" x="1227.75" y="73.2">ロジスティック曲線</text>
</g>
<polyline clip-path="url(#clip102)" style="stroke:#009af9; stroke-width:4; stroke-opacity:1; fill:none" points="
  102.74,784.126 113.99,784.126 125.24,784.126 136.49,784.126 147.74,784.126 158.991,784.126 170.241,784.126 181.491,784.126 192.741,784.126 203.991,784.126 
  215.241,784.126 226.491,784.126 237.741,784.126 248.991,784.126 260.241,784.126 271.491,784.126 282.741,784.126 293.991,784.126 305.242,784.126 316.492,784.126 
  327.742,784.126 338.992,784.126 350.242,784.126 361.492,784.126 372.742,784.126 383.992,784.126 395.242,784.126 406.492,784.126 417.742,784.126 428.992,784.126 
  440.243,784.126 451.493,784.126 462.743,784.126 473.993,784.126 485.243,784.126 496.493,784.126 507.743,784.126 518.993,784.126 530.243,784.126 541.493,784.126 
  552.743,784.126 563.993,784.126 575.243,784.126 586.494,784.126 597.744,784.126 608.994,784.126 620.244,784.126 631.494,784.126 642.744,784.126 653.994,784.126 
  665.244,784.126 676.494,784.126 687.744,784.126 698.994,784.126 710.244,784.126 721.494,784.126 732.745,784.126 743.995,784.126 755.245,784.126 766.495,784.126 
  777.745,784.126 788.995,784.126 800.245,784.126 811.495,784.126 822.745,784.126 833.995,784.126 845.245,784.126 856.495,784.126 867.746,784.126 878.996,784.126 
  890.246,784.126 901.496,784.126 912.746,784.126 923.996,784.126 935.246,784.126 946.496,784.126 957.746,784.126 968.996,784.126 980.246,784.126 991.496,784.126 
  1002.75,784.126 1014,784.126 1025.25,784.126 1036.5,784.126 1047.75,784.126 1059,784.126 1070.25,784.126 1081.5,784.126 1092.75,784.126 1104,784.126 
  1115.25,784.126 1126.5,784.126 1137.75,784.126 1149,784.126 1160.25,784.126 1171.5,784.126 1182.75,784.126 1194,784.126 1205.25,784.126 1216.5,784.126 
  1227.75,784.126 1239,784.126 1250.25,784.126 1261.5,784.126 1272.75,784.126 1284,784.126 1295.25,784.126 1306.5,784.126 1317.75,784.126 1329,784.126 
  1340.25,784.126 1351.5,784.126 1362.75,784.126 1374,784.126 1385.25,784.126 1396.5,784.126 1407.75,784.126 1419,784.126 1430.25,784.126 1441.5,784.126 
  1452.75,784.126 1464,784.126 1475.25,784.126 1486.5,784.126 1497.75,784.126 1509,784.126 1520.25,784.126 1531.5,784.126 1542.75,784.126 1554,784.126 
  1565.25,784.126 1576.5,784.126 1587.75,784.126 1599,784.126 1610.25,784.126 1621.5,784.126 1632.75,784.126 1644,784.126 1655.25,784.126 1666.5,784.126 
  1677.75,784.126 1689,784.126 1700.25,784.126 1711.5,784.126 1722.75,784.126 1734,784.126 1745.25,784.126 1756.5,784.126 1767.75,784.126 1779,784.126 
  1790.25,784.126 1801.5,784.126 1812.75,784.126 1824,784.126 1835.25,784.126 1846.5,784.126 1857.75,784.126 1869,784.126 1880.25,784.126 1891.5,784.126 
  1902.75,784.126 1914,784.126 1925.25,784.126 1936.5,784.126 1947.75,784.126 1959,784.126 1970.25,784.126 1981.5,784.126 1992.75,784.126 2004,784.126 
  2015.25,784.126 2026.5,784.126 2037.75,784.126 2049,784.126 2060.25,784.126 2071.5,784.126 2082.75,784.126 2094,784.126 2105.25,784.126 2116.5,784.126 
  2127.75,784.126 2139,784.126 2150.25,784.126 2161.5,784.126 2172.75,784.126 2184,784.126 2195.25,784.126 2206.5,784.126 2217.75,784.126 2229.01,784.126 
  2240.26,784.126 2251.51,784.126 2262.76,784.126 2274.01,784.126 2285.26,784.126 2296.51,784.126 2307.76,784.126 2319.01,784.126 2330.26,784.126 2341.51,784.126 
  2352.76,784.126 
  "/>
<polyline clip-path="url(#clip102)" style="stroke:#e26f46; stroke-width:4; stroke-opacity:1; fill:none" points="
  102.74,1302.25 113.99,1299.37 125.24,1296.45 136.49,1293.48 147.74,1290.47 158.991,1287.41 170.241,1284.31 181.491,1281.16 192.741,1277.96 203.991,1274.72 
  215.241,1271.43 226.491,1268.1 237.741,1264.71 248.991,1261.28 260.241,1257.8 271.491,1254.27 282.741,1250.69 293.991,1247.06 305.242,1243.39 316.492,1239.66 
  327.742,1235.88 338.992,1232.05 350.242,1228.17 361.492,1224.24 372.742,1220.26 383.992,1216.23 395.242,1212.14 406.492,1208.01 417.742,1203.82 428.992,1199.58 
  440.243,1195.29 451.493,1190.94 462.743,1186.55 473.993,1182.1 485.243,1177.6 496.493,1173.04 507.743,1168.44 518.993,1163.78 530.243,1159.07 541.493,1154.3 
  552.743,1149.49 563.993,1144.62 575.243,1139.7 586.494,1134.73 597.744,1129.71 608.994,1124.64 620.244,1119.51 631.494,1114.34 642.744,1109.11 653.994,1103.84 
  665.244,1098.51 676.494,1093.14 687.744,1087.71 698.994,1082.24 710.244,1076.72 721.494,1071.15 732.745,1065.53 743.995,1059.87 755.245,1054.16 766.495,1048.41 
  777.745,1042.61 788.995,1036.77 800.245,1030.88 811.495,1024.95 822.745,1018.98 833.995,1012.97 845.245,1006.91 856.495,1000.82 867.746,994.688 878.996,988.518 
  890.246,982.31 901.496,976.067 912.746,969.787 923.996,963.474 935.246,957.127 946.496,950.748 957.746,944.337 968.996,937.896 980.246,931.426 991.496,924.928 
  1002.75,918.403 1014,911.853 1025.25,905.277 1036.5,898.678 1047.75,892.057 1059,885.415 1070.25,878.753 1081.5,872.072 1092.75,865.374 1104,858.66 
  1115.25,851.932 1126.5,845.19 1137.75,838.435 1149,831.67 1160.25,824.896 1171.5,818.113 1182.75,811.324 1194,804.529 1205.25,797.73 1216.5,790.929 
  1227.75,784.126 1239,777.323 1250.25,770.521 1261.5,763.723 1272.75,756.928 1284,750.139 1295.25,743.356 1306.5,736.582 1317.75,729.817 1329,723.062 
  1340.25,716.32 1351.5,709.592 1362.75,702.878 1374,696.18 1385.25,689.499 1396.5,682.837 1407.75,676.195 1419,669.574 1430.25,662.975 1441.5,656.399 
  1452.75,649.849 1464,643.324 1475.25,636.826 1486.5,630.356 1497.75,623.915 1509,617.504 1520.25,611.125 1531.5,604.778 1542.75,598.465 1554,592.185 
  1565.25,585.942 1576.5,579.734 1587.75,573.564 1599,567.432 1610.25,561.338 1621.5,555.285 1632.75,549.272 1644,543.3 1655.25,537.371 1666.5,531.484 
  1677.75,525.641 1689,519.842 1700.25,514.088 1711.5,508.38 1722.75,502.717 1734,497.102 1745.25,491.533 1756.5,486.012 1767.75,480.54 1779,475.116 
  1790.25,469.741 1801.5,464.415 1812.75,459.14 1824,453.914 1835.25,448.739 1846.5,443.615 1857.75,438.541 1869,433.519 1880.25,428.549 1891.5,423.63 
  1902.75,418.763 1914,413.948 1925.25,409.185 1936.5,404.475 1947.75,399.816 1959,395.21 1970.25,390.657 1981.5,386.155 1992.75,381.706 2004,377.31 
  2015.25,372.966 2026.5,368.673 2037.75,364.433 2049,360.245 2060.25,356.109 2071.5,352.025 2082.75,347.992 2094,344.01 2105.25,340.08 2116.5,336.2 
  2127.75,332.372 2139,328.594 2150.25,324.866 2161.5,321.188 2172.75,317.56 2184,313.981 2195.25,310.451 2206.5,306.971 2217.75,303.538 2229.01,300.154 
  2240.26,296.818 2251.51,293.529 2262.76,290.287 2274.01,287.092 2285.26,283.943 2296.51,280.841 2307.76,277.783 2319.01,274.771 2330.26,271.804 2341.51,268.881 
  2352.76,266.002 
  "/>
<polyline clip-path="url(#clip102)" style="stroke:#3da44d; stroke-width:4; stroke-opacity:1; fill:none" points="
  102.74,1455.33 113.99,1454.87 125.24,1454.38 136.49,1453.87 147.74,1453.33 158.991,1452.77 170.241,1452.18 181.491,1451.55 192.741,1450.9 203.991,1450.21 
  215.241,1449.49 226.491,1448.73 237.741,1447.94 248.991,1447.1 260.241,1446.23 271.491,1445.31 282.741,1444.34 293.991,1443.32 305.242,1442.26 316.492,1441.14 
  327.742,1439.97 338.992,1438.74 350.242,1437.45 361.492,1436.09 372.742,1434.67 383.992,1433.18 395.242,1431.61 406.492,1429.97 417.742,1428.25 428.992,1426.45 
  440.243,1424.56 451.493,1422.58 462.743,1420.5 473.993,1418.32 485.243,1416.04 496.493,1413.65 507.743,1411.15 518.993,1408.53 530.243,1405.79 541.493,1402.92 
  552.743,1399.91 563.993,1396.77 575.243,1393.48 586.494,1390.04 597.744,1386.44 608.994,1382.69 620.244,1378.76 631.494,1374.65 642.744,1370.37 653.994,1365.9 
  665.244,1361.23 676.494,1356.35 687.744,1351.27 698.994,1345.98 710.244,1340.46 721.494,1334.71 732.745,1328.72 743.995,1322.48 755.245,1316 766.495,1309.26 
  777.745,1302.25 788.995,1294.97 800.245,1287.41 811.495,1279.57 822.745,1271.43 833.995,1263 845.245,1254.27 856.495,1245.23 867.746,1235.88 878.996,1226.21 
  890.246,1216.23 901.496,1205.92 912.746,1195.29 923.996,1184.33 935.246,1173.04 946.496,1161.43 957.746,1149.49 968.996,1137.22 980.246,1124.64 991.496,1111.73 
  1002.75,1098.51 1014,1084.98 1025.25,1071.15 1036.5,1057.02 1047.75,1042.61 1059,1027.92 1070.25,1012.97 1081.5,997.759 1092.75,982.31 1104,966.635 
  1115.25,950.748 1126.5,934.665 1137.75,918.403 1149,901.98 1160.25,885.415 1171.5,868.725 1182.75,851.932 1194,835.054 1205.25,818.113 1216.5,801.13 
  1227.75,784.126 1239,767.122 1250.25,750.139 1261.5,733.198 1272.75,716.32 1284,699.527 1295.25,682.837 1306.5,666.272 1317.75,649.849 1329,633.587 
  1340.25,617.504 1351.5,601.617 1362.75,585.942 1374,570.493 1385.25,555.285 1396.5,540.33 1407.75,525.641 1419,511.228 1430.25,497.102 1441.5,483.27 
  1452.75,469.741 1464,456.52 1475.25,443.615 1486.5,431.028 1497.75,418.763 1509,406.823 1520.25,395.21 1531.5,383.924 1542.75,372.966 1554,362.333 
  1565.25,352.025 1576.5,342.039 1587.75,332.372 1599,323.021 1610.25,313.981 1621.5,305.248 1632.75,296.818 1644,288.684 1655.25,280.841 1666.5,273.282 
  1677.75,266.002 1689,258.994 1700.25,252.251 1711.5,245.767 1722.75,239.535 1734,233.546 1745.25,227.796 1756.5,222.275 1767.75,216.978 1779,211.897 
  1790.25,207.026 1801.5,202.357 1812.75,197.883 1824,193.598 1835.25,189.494 1846.5,185.567 1857.75,181.808 1869,178.212 1880.25,174.773 1891.5,171.484 
  1902.75,168.34 1914,165.335 1925.25,162.464 1936.5,159.721 1947.75,157.101 1959,154.599 1970.25,152.21 1981.5,149.93 1992.75,147.753 2004,145.676 
  2015.25,143.694 2026.5,141.803 2037.75,140 2049,138.279 2060.25,136.639 2071.5,135.075 2082.75,133.583 2094,132.162 2105.25,130.806 2116.5,129.515 
  2127.75,128.284 2139,127.11 2150.25,125.993 2161.5,124.928 2172.75,123.913 2184,122.946 2195.25,122.026 2206.5,121.149 2217.75,120.313 2229.01,119.518 
  2240.26,118.76 2251.51,118.039 2262.76,117.352 2274.01,116.698 2285.26,116.075 2296.51,115.482 2307.76,114.917 2319.01,114.38 2330.26,113.868 2341.51,113.381 
  2352.76,112.918 
  "/>
<polyline clip-path="url(#clip102)" style="stroke:#c271d2; stroke-width:4; stroke-opacity:1; fill:none" points="
  102.74,1464.38 113.99,1464.37 125.24,1464.37 136.49,1464.36 147.74,1464.35 158.991,1464.34 170.241,1464.33 181.491,1464.32 192.741,1464.3 203.991,1464.29 
  215.241,1464.27 226.491,1464.26 237.741,1464.24 248.991,1464.21 260.241,1464.19 271.491,1464.16 282.741,1464.14 293.991,1464.1 305.242,1464.07 316.492,1464.03 
  327.742,1463.98 338.992,1463.94 350.242,1463.88 361.492,1463.83 372.742,1463.76 383.992,1463.69 395.242,1463.61 406.492,1463.52 417.742,1463.43 428.992,1463.32 
  440.243,1463.2 451.493,1463.07 462.743,1462.93 473.993,1462.77 485.243,1462.59 496.493,1462.4 507.743,1462.18 518.993,1461.95 530.243,1461.69 541.493,1461.4 
  552.743,1461.08 563.993,1460.72 575.243,1460.33 586.494,1459.9 597.744,1459.43 608.994,1458.9 620.244,1458.32 631.494,1457.68 642.744,1456.98 653.994,1456.2 
  665.244,1455.33 676.494,1454.38 687.744,1453.33 698.994,1452.18 710.244,1450.9 721.494,1449.49 732.745,1447.94 743.995,1446.23 755.245,1444.34 766.495,1442.26 
  777.745,1439.97 788.995,1437.45 800.245,1434.67 811.495,1431.61 822.745,1428.25 833.995,1424.56 845.245,1420.5 856.495,1416.04 867.746,1411.15 878.996,1405.79 
  890.246,1399.91 901.496,1393.48 912.746,1386.44 923.996,1378.76 935.246,1370.37 946.496,1361.23 957.746,1351.27 968.996,1340.46 980.246,1328.72 991.496,1316 
  1002.75,1302.25 1014,1287.41 1025.25,1271.43 1036.5,1254.27 1047.75,1235.88 1059,1216.23 1070.25,1195.29 1081.5,1173.04 1092.75,1149.49 1104,1124.64 
  1115.25,1098.51 1126.5,1071.15 1137.75,1042.61 1149,1012.97 1160.25,982.31 1171.5,950.748 1182.75,918.403 1194,885.415 1205.25,851.932 1216.5,818.113 
  1227.75,784.126 1239,750.139 1250.25,716.32 1261.5,682.837 1272.75,649.849 1284,617.504 1295.25,585.942 1306.5,555.285 1317.75,525.641 1329,497.102 
  1340.25,469.741 1351.5,443.615 1362.75,418.763 1374,395.21 1385.25,372.966 1396.5,352.025 1407.75,332.372 1419,313.981 1430.25,296.818 1441.5,280.841 
  1452.75,266.002 1464,252.251 1475.25,239.535 1486.5,227.796 1497.75,216.978 1509,207.026 1520.25,197.883 1531.5,189.494 1542.75,181.808 1554,174.773 
  1565.25,168.34 1576.5,162.464 1587.75,157.101 1599,152.21 1610.25,147.753 1621.5,143.694 1632.75,140 1644,136.639 1655.25,133.583 1666.5,130.806 
  1677.75,128.284 1689,125.993 1700.25,123.913 1711.5,122.026 1722.75,120.313 1734,118.76 1745.25,117.352 1756.5,116.075 1767.75,114.917 1779,113.868 
  1790.25,112.918 1801.5,112.056 1812.75,111.276 1824,110.569 1835.25,109.929 1846.5,109.349 1857.75,108.824 1869,108.348 1880.25,107.918 1891.5,107.528 
  1902.75,107.175 1914,106.856 1925.25,106.567 1936.5,106.305 1947.75,106.068 1959,105.854 1970.25,105.659 1981.5,105.484 1992.75,105.325 2004,105.181 
  2015.25,105.051 2026.5,104.933 2037.75,104.826 2049,104.73 2060.25,104.642 2071.5,104.563 2082.75,104.492 2094,104.427 2105.25,104.368 2116.5,104.315 
  2127.75,104.267 2139,104.224 2150.25,104.185 2161.5,104.149 2172.75,104.117 2184,104.088 2195.25,104.061 2206.5,104.038 2217.75,104.016 2229.01,103.997 
  2240.26,103.979 2251.51,103.963 2262.76,103.948 2274.01,103.935 2285.26,103.924 2296.51,103.913 2307.76,103.903 2319.01,103.894 2330.26,103.886 2341.51,103.879 
  2352.76,103.873 
  "/>
<polyline clip-path="url(#clip102)" style="stroke:#ac8d18; stroke-width:4; stroke-opacity:1; fill:none" points="
  102.74,1464.44 113.99,1464.44 125.24,1464.44 136.49,1464.44 147.74,1464.44 158.991,1464.44 170.241,1464.44 181.491,1464.44 192.741,1464.44 203.991,1464.44 
  215.241,1464.44 226.491,1464.44 237.741,1464.44 248.991,1464.44 260.241,1464.44 271.491,1464.44 282.741,1464.44 293.991,1464.44 305.242,1464.44 316.492,1464.44 
  327.742,1464.44 338.992,1464.44 350.242,1464.44 361.492,1464.44 372.742,1464.44 383.992,1464.44 395.242,1464.44 406.492,1464.44 417.742,1464.44 428.992,1464.44 
  440.243,1464.44 451.493,1464.44 462.743,1464.44 473.993,1464.44 485.243,1464.44 496.493,1464.44 507.743,1464.44 518.993,1464.44 530.243,1464.44 541.493,1464.43 
  552.743,1464.43 563.993,1464.43 575.243,1464.43 586.494,1464.43 597.744,1464.42 608.994,1464.42 620.244,1464.41 631.494,1464.41 642.744,1464.4 653.994,1464.39 
  665.244,1464.38 676.494,1464.37 687.744,1464.35 698.994,1464.33 710.244,1464.3 721.494,1464.27 732.745,1464.24 743.995,1464.19 755.245,1464.14 766.495,1464.07 
  777.745,1463.98 788.995,1463.88 800.245,1463.76 811.495,1463.61 822.745,1463.43 833.995,1463.2 845.245,1462.93 856.495,1462.59 867.746,1462.18 878.996,1461.69 
  890.246,1461.08 901.496,1460.33 912.746,1459.43 923.996,1458.32 935.246,1456.98 946.496,1455.33 957.746,1453.33 968.996,1450.9 980.246,1447.94 991.496,1444.34 
  1002.75,1439.97 1014,1434.67 1025.25,1428.25 1036.5,1420.5 1047.75,1411.15 1059,1399.91 1070.25,1386.44 1081.5,1370.37 1092.75,1351.27 1104,1328.72 
  1115.25,1302.25 1126.5,1271.43 1137.75,1235.88 1149,1195.29 1160.25,1149.49 1171.5,1098.51 1182.75,1042.61 1194,982.31 1205.25,918.403 1216.5,851.932 
  1227.75,784.126 1239,716.32 1250.25,649.849 1261.5,585.942 1272.75,525.641 1284,469.741 1295.25,418.763 1306.5,372.966 1317.75,332.372 1329,296.818 
  1340.25,266.002 1351.5,239.535 1362.75,216.978 1374,197.883 1385.25,181.808 1396.5,168.34 1407.75,157.101 1419,147.753 1430.25,140 1441.5,133.583 
  1452.75,128.284 1464,123.913 1475.25,120.313 1486.5,117.352 1497.75,114.917 1509,112.918 1520.25,111.276 1531.5,109.929 1542.75,108.824 1554,107.918 
  1565.25,107.175 1576.5,106.567 1587.75,106.068 1599,105.659 1610.25,105.325 1621.5,105.051 1632.75,104.826 1644,104.642 1655.25,104.492 1666.5,104.368 
  1677.75,104.267 1689,104.185 1700.25,104.117 1711.5,104.061 1722.75,104.016 1734,103.979 1745.25,103.948 1756.5,103.924 1767.75,103.903 1779,103.886 
  1790.25,103.873 1801.5,103.862 1812.75,103.852 1824,103.845 1835.25,103.839 1846.5,103.834 1857.75,103.83 1869,103.826 1880.25,103.823 1891.5,103.821 
  1902.75,103.819 1914,103.818 1925.25,103.817 1936.5,103.816 1947.75,103.815 1959,103.814 1970.25,103.814 1981.5,103.813 1992.75,103.813 2004,103.812 
  2015.25,103.812 2026.5,103.812 2037.75,103.812 2049,103.812 2060.25,103.812 2071.5,103.811 2082.75,103.811 2094,103.811 2105.25,103.811 2116.5,103.811 
  2127.75,103.811 2139,103.811 2150.25,103.811 2161.5,103.811 2172.75,103.811 2184,103.811 2195.25,103.811 2206.5,103.811 2217.75,103.811 2229.01,103.811 
  2240.26,103.811 2251.51,103.811 2262.76,103.811 2274.01,103.811 2285.26,103.811 2296.51,103.811 2307.76,103.811 2319.01,103.811 2330.26,103.811 2341.51,103.811 
  2352.76,103.811 
  "/>
<polyline clip-path="url(#clip102)" style="stroke:#00a9ad; stroke-width:4; stroke-opacity:1; fill:none" points="
  102.74,1464.44 113.99,1464.44 125.24,1464.44 136.49,1464.44 147.74,1464.44 158.991,1464.44 170.241,1464.44 181.491,1464.44 192.741,1464.44 203.991,1464.44 
  215.241,1464.44 226.491,1464.44 237.741,1464.44 248.991,1464.44 260.241,1464.44 271.491,1464.44 282.741,1464.44 293.991,1464.44 305.242,1464.44 316.492,1464.44 
  327.742,1464.44 338.992,1464.44 350.242,1464.44 361.492,1464.44 372.742,1464.44 383.992,1464.44 395.242,1464.44 406.492,1464.44 417.742,1464.44 428.992,1464.44 
  440.243,1464.44 451.493,1464.44 462.743,1464.44 473.993,1464.44 485.243,1464.44 496.493,1464.44 507.743,1464.44 518.993,1464.44 530.243,1464.44 541.493,1464.44 
  552.743,1464.44 563.993,1464.44 575.243,1464.44 586.494,1464.44 597.744,1464.44 608.994,1464.44 620.244,1464.44 631.494,1464.44 642.744,1464.44 653.994,1464.44 
  665.244,1464.44 676.494,1464.44 687.744,1464.44 698.994,1464.44 710.244,1464.44 721.494,1464.44 732.745,1464.44 743.995,1464.44 755.245,1464.44 766.495,1464.44 
  777.745,1464.44 788.995,1464.44 800.245,1464.44 811.495,1464.44 822.745,1464.44 833.995,1464.44 845.245,1464.44 856.495,1464.44 867.746,1464.44 878.996,1464.44 
  890.246,1464.44 901.496,1464.44 912.746,1464.44 923.996,1464.44 935.246,1464.44 946.496,1464.44 957.746,1464.44 968.996,1464.44 980.246,1464.44 991.496,1464.44 
  1002.75,1464.44 1014,1464.44 1025.25,1464.44 1036.5,1464.44 1047.75,1464.44 1059,1464.44 1070.25,1464.44 1081.5,1464.44 1092.75,1464.43 1104,1464.42 
  1115.25,1464.38 1126.5,1464.27 1137.75,1463.98 1149,1463.2 1160.25,1461.08 1171.5,1455.33 1182.75,1439.97 1194,1399.91 1205.25,1302.25 1216.5,1098.51 
  1227.75,784.126 1239,469.741 1250.25,266.002 1261.5,168.34 1272.75,128.284 1284,112.918 1295.25,107.175 1306.5,105.051 1317.75,104.267 1329,103.979 
  1340.25,103.873 1351.5,103.834 1362.75,103.819 1374,103.814 1385.25,103.812 1396.5,103.811 1407.75,103.811 1419,103.811 1430.25,103.811 1441.5,103.811 
  1452.75,103.811 1464,103.811 1475.25,103.811 1486.5,103.811 1497.75,103.811 1509,103.811 1520.25,103.811 1531.5,103.811 1542.75,103.811 1554,103.811 
  1565.25,103.811 1576.5,103.811 1587.75,103.811 1599,103.811 1610.25,103.811 1621.5,103.811 1632.75,103.811 1644,103.811 1655.25,103.811 1666.5,103.811 
  1677.75,103.811 1689,103.811 1700.25,103.811 1711.5,103.811 1722.75,103.811 1734,103.811 1745.25,103.811 1756.5,103.811 1767.75,103.811 1779,103.811 
  1790.25,103.811 1801.5,103.811 1812.75,103.811 1824,103.811 1835.25,103.811 1846.5,103.811 1857.75,103.811 1869,103.811 1880.25,103.811 1891.5,103.811 
  1902.75,103.811 1914,103.811 1925.25,103.811 1936.5,103.811 1947.75,103.811 1959,103.811 1970.25,103.811 1981.5,103.811 1992.75,103.811 2004,103.811 
  2015.25,103.811 2026.5,103.811 2037.75,103.811 2049,103.811 2060.25,103.811 2071.5,103.811 2082.75,103.811 2094,103.811 2105.25,103.811 2116.5,103.811 
  2127.75,103.811 2139,103.811 2150.25,103.811 2161.5,103.811 2172.75,103.811 2184,103.811 2195.25,103.811 2206.5,103.811 2217.75,103.811 2229.01,103.811 
  2240.26,103.811 2251.51,103.811 2262.76,103.811 2274.01,103.811 2285.26,103.811 2296.51,103.811 2307.76,103.811 2319.01,103.811 2330.26,103.811 2341.51,103.811 
  2352.76,103.811 
  "/>
<path clip-path="url(#clip100)" d="
M177.741 534.428 L521.411 534.428 L521.411 111.068 L177.741 111.068  Z
  " fill="#ffffff" fill-rule="evenodd" fill-opacity="1"/>
<polyline clip-path="url(#clip100)" style="stroke:#000000; stroke-width:4; stroke-opacity:1; fill:none" points="
  177.741,534.428 521.411,534.428 521.411,111.068 177.741,111.068 177.741,534.428 
  "/>
<polyline clip-path="url(#clip100)" style="stroke:#009af9; stroke-width:4; stroke-opacity:1; fill:none" points="
  202.741,171.548 352.742,171.548 
  "/>
<g clip-path="url(#clip100)">
<text style="fill:#000000; fill-opacity:1; font-family:Arial,Helvetica Neue,Helvetica,sans-serif; font-size:48px; text-anchor:start;" transform="rotate(0, 377.742, 189.048)" x="377.742" y="189.048">0.0</text>
</g>
<polyline clip-path="url(#clip100)" style="stroke:#e26f46; stroke-width:4; stroke-opacity:1; fill:none" points="
  202.741,232.028 352.742,232.028 
  "/>
<g clip-path="url(#clip100)">
<text style="fill:#000000; fill-opacity:1; font-family:Arial,Helvetica Neue,Helvetica,sans-serif; font-size:48px; text-anchor:start;" transform="rotate(0, 377.742, 249.528)" x="377.742" y="249.528">0.2</text>
</g>
<polyline clip-path="url(#clip100)" style="stroke:#3da44d; stroke-width:4; stroke-opacity:1; fill:none" points="
  202.741,292.508 352.742,292.508 
  "/>
<g clip-path="url(#clip100)">
<text style="fill:#000000; fill-opacity:1; font-family:Arial,Helvetica Neue,Helvetica,sans-serif; font-size:48px; text-anchor:start;" transform="rotate(0, 377.742, 310.008)" x="377.742" y="310.008">0.5</text>
</g>
<polyline clip-path="url(#clip100)" style="stroke:#c271d2; stroke-width:4; stroke-opacity:1; fill:none" points="
  202.741,352.988 352.742,352.988 
  "/>
<g clip-path="url(#clip100)">
<text style="fill:#000000; fill-opacity:1; font-family:Arial,Helvetica Neue,Helvetica,sans-serif; font-size:48px; text-anchor:start;" transform="rotate(0, 377.742, 370.488)" x="377.742" y="370.488">1.0</text>
</g>
<polyline clip-path="url(#clip100)" style="stroke:#ac8d18; stroke-width:4; stroke-opacity:1; fill:none" points="
  202.741,413.468 352.742,413.468 
  "/>
<g clip-path="url(#clip100)">
<text style="fill:#000000; fill-opacity:1; font-family:Arial,Helvetica Neue,Helvetica,sans-serif; font-size:48px; text-anchor:start;" transform="rotate(0, 377.742, 430.968)" x="377.742" y="430.968">2.0</text>
</g>
<polyline clip-path="url(#clip100)" style="stroke:#00a9ad; stroke-width:4; stroke-opacity:1; fill:none" points="
  202.741,473.948 352.742,473.948 
  "/>
<g clip-path="url(#clip100)">
<text style="fill:#000000; fill-opacity:1; font-family:Arial,Helvetica Neue,Helvetica,sans-serif; font-size:48px; text-anchor:start;" transform="rotate(0, 377.742, 491.448)" x="377.742" y="491.448">10.0</text>
</g>
</svg>
