<?xml version="1.0" encoding="utf-8"?>
<svg xmlns="http://www.w3.org/2000/svg" xmlns:xlink="http://www.w3.org/1999/xlink" width="600" height="400" viewBox="0 0 2400 1600">
<defs>
  <clipPath id="clip060">
    <rect x="0" y="0" width="2400" height="1600"/>
  </clipPath>
</defs>
<path clip-path="url(#clip060)" d="
M0 1600 L2400 1600 L2400 0 L0 0  Z
  " fill="#ffffff" fill-rule="evenodd" fill-opacity="1"/>
<defs>
  <clipPath id="clip061">
    <rect x="480" y="0" width="1681" height="1600"/>
  </clipPath>
</defs>
<path clip-path="url(#clip060)" d="
M346.768 1321.37 L2352.76 1321.37 L2352.76 121.675 L346.768 121.675  Z
  " fill="#ffffff" fill-rule="evenodd" fill-opacity="1"/>
<defs>
  <clipPath id="clip062">
    <rect x="346" y="121" width="2007" height="1201"/>
  </clipPath>
</defs>
<polyline clip-path="url(#clip062)" style="stroke:#000000; stroke-linecap:butt; stroke-linejoin:round; stroke-width:2; stroke-opacity:0.1; fill:none" points="
  346.768,1321.37 346.768,121.675 
  "/>
<polyline clip-path="url(#clip062)" style="stroke:#000000; stroke-linecap:butt; stroke-linejoin:round; stroke-width:2; stroke-opacity:0.1; fill:none" points="
  848.265,1321.37 848.265,121.675 
  "/>
<polyline clip-path="url(#clip062)" style="stroke:#000000; stroke-linecap:butt; stroke-linejoin:round; stroke-width:2; stroke-opacity:0.1; fill:none" points="
  1349.76,1321.37 1349.76,121.675 
  "/>
<polyline clip-path="url(#clip062)" style="stroke:#000000; stroke-linecap:butt; stroke-linejoin:round; stroke-width:2; stroke-opacity:0.1; fill:none" points="
  1851.26,1321.37 1851.26,121.675 
  "/>
<polyline clip-path="url(#clip062)" style="stroke:#000000; stroke-linecap:butt; stroke-linejoin:round; stroke-width:2; stroke-opacity:0.1; fill:none" points="
  2352.76,1321.37 2352.76,121.675 
  "/>
<polyline clip-path="url(#clip060)" style="stroke:#000000; stroke-linecap:butt; stroke-linejoin:round; stroke-width:4; stroke-opacity:1; fill:none" points="
  346.768,1321.37 2352.76,1321.37 
  "/>
<polyline clip-path="url(#clip060)" style="stroke:#000000; stroke-linecap:butt; stroke-linejoin:round; stroke-width:4; stroke-opacity:1; fill:none" points="
  346.768,1321.37 346.768,1302.47 
  "/>
<polyline clip-path="url(#clip060)" style="stroke:#000000; stroke-linecap:butt; stroke-linejoin:round; stroke-width:4; stroke-opacity:1; fill:none" points="
  848.265,1321.37 848.265,1302.47 
  "/>
<polyline clip-path="url(#clip060)" style="stroke:#000000; stroke-linecap:butt; stroke-linejoin:round; stroke-width:4; stroke-opacity:1; fill:none" points="
  1349.76,1321.37 1349.76,1302.47 
  "/>
<polyline clip-path="url(#clip060)" style="stroke:#000000; stroke-linecap:butt; stroke-linejoin:round; stroke-width:4; stroke-opacity:1; fill:none" points="
  1851.26,1321.37 1851.26,1302.47 
  "/>
<polyline clip-path="url(#clip060)" style="stroke:#000000; stroke-linecap:butt; stroke-linejoin:round; stroke-width:4; stroke-opacity:1; fill:none" points="
  2352.76,1321.37 2352.76,1302.47 
  "/>
<g clip-path="url(#clip060)">
<text style="fill:#000000; fill-opacity:1; font-family:Arial,Helvetica Neue,Helvetica,sans-serif; font-size:48px; text-anchor:middle;" transform="rotate(0, 346.768, 1382.57)" x="346.768" y="1382.57">−10</text>
</g>
<g clip-path="url(#clip060)">
<text style="fill:#000000; fill-opacity:1; font-family:Arial,Helvetica Neue,Helvetica,sans-serif; font-size:48px; text-anchor:middle;" transform="rotate(0, 848.265, 1382.57)" x="848.265" y="1382.57">−5</text>
</g>
<g clip-path="url(#clip060)">
<text style="fill:#000000; fill-opacity:1; font-family:Arial,Helvetica Neue,Helvetica,sans-serif; font-size:48px; text-anchor:middle;" transform="rotate(0, 1349.76, 1382.57)" x="1349.76" y="1382.57">0</text>
</g>
<g clip-path="url(#clip060)">
<text style="fill:#000000; fill-opacity:1; font-family:Arial,Helvetica Neue,Helvetica,sans-serif; font-size:48px; text-anchor:middle;" transform="rotate(0, 1851.26, 1382.57)" x="1851.26" y="1382.57">5</text>
</g>
<g clip-path="url(#clip060)">
<text style="fill:#000000; fill-opacity:1; font-family:Arial,Helvetica Neue,Helvetica,sans-serif; font-size:48px; text-anchor:middle;" transform="rotate(0, 2352.76, 1382.57)" x="2352.76" y="1382.57">10</text>
</g>
<g clip-path="url(#clip060)">
<text style="fill:#000000; fill-opacity:1; font-family:Arial,Helvetica Neue,Helvetica,sans-serif; font-size:66px; text-anchor:middle;" transform="rotate(0, 1349.76, 1467.23)" x="1349.76" y="1467.23">x</text>
</g>
<polyline clip-path="url(#clip062)" style="stroke:#000000; stroke-linecap:butt; stroke-linejoin:round; stroke-width:2; stroke-opacity:0.1; fill:none" points="
  346.768,1287.41 2352.76,1287.41 
  "/>
<polyline clip-path="url(#clip062)" style="stroke:#000000; stroke-linecap:butt; stroke-linejoin:round; stroke-width:2; stroke-opacity:0.1; fill:none" points="
  346.768,1004.47 2352.76,1004.47 
  "/>
<polyline clip-path="url(#clip062)" style="stroke:#000000; stroke-linecap:butt; stroke-linejoin:round; stroke-width:2; stroke-opacity:0.1; fill:none" points="
  346.768,721.521 2352.76,721.521 
  "/>
<polyline clip-path="url(#clip062)" style="stroke:#000000; stroke-linecap:butt; stroke-linejoin:round; stroke-width:2; stroke-opacity:0.1; fill:none" points="
  346.768,438.575 2352.76,438.575 
  "/>
<polyline clip-path="url(#clip062)" style="stroke:#000000; stroke-linecap:butt; stroke-linejoin:round; stroke-width:2; stroke-opacity:0.1; fill:none" points="
  346.768,155.629 2352.76,155.629 
  "/>
<polyline clip-path="url(#clip060)" style="stroke:#000000; stroke-linecap:butt; stroke-linejoin:round; stroke-width:4; stroke-opacity:1; fill:none" points="
  346.768,1321.37 346.768,121.675 
  "/>
<polyline clip-path="url(#clip060)" style="stroke:#000000; stroke-linecap:butt; stroke-linejoin:round; stroke-width:4; stroke-opacity:1; fill:none" points="
  346.768,1287.41 365.666,1287.41 
  "/>
<polyline clip-path="url(#clip060)" style="stroke:#000000; stroke-linecap:butt; stroke-linejoin:round; stroke-width:4; stroke-opacity:1; fill:none" points="
  346.768,1004.47 365.666,1004.47 
  "/>
<polyline clip-path="url(#clip060)" style="stroke:#000000; stroke-linecap:butt; stroke-linejoin:round; stroke-width:4; stroke-opacity:1; fill:none" points="
  346.768,721.521 365.666,721.521 
  "/>
<polyline clip-path="url(#clip060)" style="stroke:#000000; stroke-linecap:butt; stroke-linejoin:round; stroke-width:4; stroke-opacity:1; fill:none" points="
  346.768,438.575 365.666,438.575 
  "/>
<polyline clip-path="url(#clip060)" style="stroke:#000000; stroke-linecap:butt; stroke-linejoin:round; stroke-width:4; stroke-opacity:1; fill:none" points="
  346.768,155.629 365.666,155.629 
  "/>
<g clip-path="url(#clip060)">
<text style="fill:#000000; fill-opacity:1; font-family:Arial,Helvetica Neue,Helvetica,sans-serif; font-size:48px; text-anchor:end;" transform="rotate(0, 310.768, 1304.91)" x="310.768" y="1304.91">0.00</text>
</g>
<g clip-path="url(#clip060)">
<text style="fill:#000000; fill-opacity:1; font-family:Arial,Helvetica Neue,Helvetica,sans-serif; font-size:48px; text-anchor:end;" transform="rotate(0, 310.768, 1021.97)" x="310.768" y="1021.97">0.25</text>
</g>
<g clip-path="url(#clip060)">
<text style="fill:#000000; fill-opacity:1; font-family:Arial,Helvetica Neue,Helvetica,sans-serif; font-size:48px; text-anchor:end;" transform="rotate(0, 310.768, 739.021)" x="310.768" y="739.021">0.50</text>
</g>
<g clip-path="url(#clip060)">
<text style="fill:#000000; fill-opacity:1; font-family:Arial,Helvetica Neue,Helvetica,sans-serif; font-size:48px; text-anchor:end;" transform="rotate(0, 310.768, 456.075)" x="310.768" y="456.075">0.75</text>
</g>
<g clip-path="url(#clip060)">
<text style="fill:#000000; fill-opacity:1; font-family:Arial,Helvetica Neue,Helvetica,sans-serif; font-size:48px; text-anchor:end;" transform="rotate(0, 310.768, 173.129)" x="310.768" y="173.129">1.00</text>
</g>
<g clip-path="url(#clip060)">
<text style="fill:#000000; fill-opacity:1; font-family:Arial,Helvetica Neue,Helvetica,sans-serif; font-size:66px; text-anchor:middle;" transform="rotate(-90, 169.538, 721.521)" x="169.538" y="721.521">P(Y=1|x)</text>
</g>
<g clip-path="url(#clip060)">
<text style="fill:#000000; fill-opacity:1; font-family:Arial,Helvetica Neue,Helvetica,sans-serif; font-size:84px; text-anchor:middle;" transform="rotate(0, 1349.76, 73.2)" x="1349.76" y="73.2">ロジスティック曲線</text>
</g>
<polyline clip-path="url(#clip062)" style="stroke:#009af9; stroke-linecap:butt; stroke-linejoin:round; stroke-width:4; stroke-opacity:1; fill:none" points="
  346.768,721.521 356.798,721.521 366.828,721.521 376.858,721.521 386.888,721.521 396.918,721.521 406.948,721.521 416.978,721.521 427.008,721.521 437.038,721.521 
  447.068,721.521 457.098,721.521 467.128,721.521 477.158,721.521 487.188,721.521 497.217,721.521 507.247,721.521 517.277,721.521 527.307,721.521 537.337,721.521 
  547.367,721.521 557.397,721.521 567.427,721.521 577.457,721.521 587.487,721.521 597.517,721.521 607.547,721.521 617.577,721.521 627.607,721.521 637.637,721.521 
  647.667,721.521 657.696,721.521 667.726,721.521 677.756,721.521 687.786,721.521 697.816,721.521 707.846,721.521 717.876,721.521 727.906,721.521 737.936,721.521 
  747.966,721.521 757.996,721.521 768.026,721.521 778.056,721.521 788.086,721.521 798.116,721.521 808.146,721.521 818.175,721.521 828.205,721.521 838.235,721.521 
  848.265,721.521 858.295,721.521 868.325,721.521 878.355,721.521 888.385,721.521 898.415,721.521 908.445,721.521 918.475,721.521 928.505,721.521 938.535,721.521 
  948.565,721.521 958.595,721.521 968.625,721.521 978.654,721.521 988.684,721.521 998.714,721.521 1008.74,721.521 1018.77,721.521 1028.8,721.521 1038.83,721.521 
  1048.86,721.521 1058.89,721.521 1068.92,721.521 1078.95,721.521 1088.98,721.521 1099.01,721.521 1109.04,721.521 1119.07,721.521 1129.1,721.521 1139.13,721.521 
  1149.16,721.521 1159.19,721.521 1169.22,721.521 1179.25,721.521 1189.28,721.521 1199.31,721.521 1209.34,721.521 1219.37,721.521 1229.4,721.521 1239.43,721.521 
  1249.46,721.521 1259.49,721.521 1269.52,721.521 1279.55,721.521 1289.58,721.521 1299.61,721.521 1309.64,721.521 1319.67,721.521 1329.7,721.521 1339.73,721.521 
  1349.76,721.521 1359.79,721.521 1369.82,721.521 1379.85,721.521 1389.88,721.521 1399.91,721.521 1409.94,721.521 1419.97,721.521 1430,721.521 1440.03,721.521 
  1450.06,721.521 1460.09,721.521 1470.12,721.521 1480.15,721.521 1490.18,721.521 1500.21,721.521 1510.24,721.521 1520.27,721.521 1530.3,721.521 1540.33,721.521 
  1550.36,721.521 1560.39,721.521 1570.42,721.521 1580.45,721.521 1590.48,721.521 1600.51,721.521 1610.54,721.521 1620.57,721.521 1630.6,721.521 1640.63,721.521 
  1650.66,721.521 1660.69,721.521 1670.72,721.521 1680.75,721.521 1690.78,721.521 1700.81,721.521 1710.84,721.521 1720.87,721.521 1730.9,721.521 1740.93,721.521 
  1750.96,721.521 1760.99,721.521 1771.02,721.521 1781.05,721.521 1791.08,721.521 1801.11,721.521 1811.14,721.521 1821.17,721.521 1831.2,721.521 1841.23,721.521 
  1851.26,721.521 1861.29,721.521 1871.32,721.521 1881.35,721.521 1891.38,721.521 1901.41,721.521 1911.44,721.521 1921.47,721.521 1931.5,721.521 1941.53,721.521 
  1951.56,721.521 1961.59,721.521 1971.62,721.521 1981.65,721.521 1991.68,721.521 2001.71,721.521 2011.74,721.521 2021.77,721.521 2031.8,721.521 2041.83,721.521 
  2051.86,721.521 2061.89,721.521 2071.92,721.521 2081.95,721.521 2091.98,721.521 2102.01,721.521 2112.04,721.521 2122.07,721.521 2132.1,721.521 2142.13,721.521 
  2152.16,721.521 2162.19,721.521 2172.22,721.521 2182.25,721.521 2192.28,721.521 2202.31,721.521 2212.34,721.521 2222.37,721.521 2232.4,721.521 2242.43,721.521 
  2252.46,721.521 2262.49,721.521 2272.52,721.521 2282.55,721.521 2292.58,721.521 2302.61,721.521 2312.64,721.521 2322.67,721.521 2332.7,721.521 2342.73,721.521 
  2352.76,721.521 
  "/>
<polyline clip-path="url(#clip062)" style="stroke:#e26f46; stroke-linecap:butt; stroke-linejoin:round; stroke-width:4; stroke-opacity:1; fill:none" points="
  346.768,1152.5 356.798,1150.11 366.828,1147.68 376.858,1145.21 386.888,1142.7 396.918,1140.16 406.948,1137.58 416.978,1134.96 427.008,1132.3 437.038,1129.6 
  447.068,1126.87 457.098,1124.09 467.128,1121.28 477.158,1118.42 487.188,1115.53 497.217,1112.59 507.247,1109.61 517.277,1106.6 527.307,1103.54 537.337,1100.44 
  547.367,1097.29 557.397,1094.11 567.427,1090.88 577.457,1087.61 587.487,1084.3 597.517,1080.95 607.547,1077.55 617.577,1074.11 627.607,1070.63 637.637,1067.1 
  647.667,1063.53 657.696,1059.91 667.726,1056.26 677.756,1052.56 687.786,1048.81 697.816,1045.02 707.846,1041.19 717.876,1037.32 727.906,1033.4 737.936,1029.44 
  747.966,1025.43 757.996,1021.38 768.026,1017.29 778.056,1013.16 788.086,1008.98 798.116,1004.76 808.146,1000.5 818.175,996.194 828.205,991.848 838.235,987.459 
  848.265,983.029 858.295,978.558 868.325,974.047 878.355,969.494 888.385,964.902 898.415,960.27 908.445,955.599 918.475,950.889 928.505,946.141 938.535,941.355 
  948.565,936.531 958.595,931.671 968.625,926.774 978.654,921.842 988.684,916.875 998.714,911.873 1008.74,906.838 1018.77,901.769 1028.8,896.668 1038.83,891.536 
  1048.86,886.372 1058.89,881.179 1068.92,875.956 1078.95,870.704 1088.98,865.425 1099.01,860.118 1109.04,854.786 1119.07,849.429 1129.1,844.047 1139.13,838.642 
  1149.16,833.214 1159.19,827.765 1169.22,822.295 1179.25,816.806 1189.28,811.299 1199.31,805.774 1209.34,800.232 1219.37,794.675 1229.4,789.104 1239.43,783.519 
  1249.46,777.922 1259.49,772.314 1269.52,766.696 1279.55,761.069 1289.58,755.434 1299.61,749.792 1309.64,744.145 1319.67,738.493 1329.7,732.837 1339.73,727.18 
  1349.76,721.521 1359.79,715.862 1369.82,710.205 1379.85,704.549 1389.88,698.897 1399.91,693.25 1409.94,687.608 1419.97,681.973 1430,676.346 1440.03,670.728 
  1450.06,665.12 1460.09,659.523 1470.12,653.938 1480.15,648.367 1490.18,642.81 1500.21,637.268 1510.24,631.743 1520.27,626.235 1530.3,620.746 1540.33,615.277 
  1550.36,609.828 1560.39,604.4 1570.42,598.995 1580.45,593.613 1590.48,588.256 1600.51,582.923 1610.54,577.617 1620.57,572.338 1630.6,567.086 1640.63,561.863 
  1650.66,556.669 1660.69,551.506 1670.72,546.373 1680.75,541.272 1690.78,536.204 1700.81,531.169 1710.84,526.167 1720.87,521.2 1730.9,516.268 1740.93,511.371 
  1750.96,506.511 1760.99,501.687 1771.02,496.901 1781.05,492.153 1791.08,487.443 1801.11,482.772 1811.14,478.14 1821.17,473.547 1831.2,468.995 1841.23,464.483 
  1851.26,460.012 1861.29,455.583 1871.32,451.194 1881.35,446.848 1891.38,442.543 1901.41,438.28 1911.44,434.06 1921.47,429.883 1931.5,425.749 1941.53,421.657 
  1951.56,417.609 1961.59,413.604 1971.62,409.642 1981.65,405.723 1991.68,401.849 2001.71,398.017 2011.74,394.23 2021.77,390.485 2031.8,386.785 2041.83,383.128 
  2051.86,379.514 2061.89,375.944 2071.92,372.417 2081.95,368.933 2091.98,365.493 2102.01,362.095 2112.04,358.74 2122.07,355.429 2132.1,352.159 2142.13,348.932 
  2152.16,345.748 2162.19,342.605 2172.22,339.504 2182.25,336.445 2192.28,333.427 2202.31,330.45 2212.34,327.514 2222.37,324.619 2232.4,321.764 2242.43,318.949 
  2252.46,316.173 2262.49,313.438 2272.52,310.741 2282.55,308.083 2292.58,305.464 2302.61,302.883 2312.64,300.34 2322.67,297.835 2332.7,295.367 2342.73,292.935 
  2352.76,290.541 
  "/>
<polyline clip-path="url(#clip062)" style="stroke:#3da44d; stroke-linecap:butt; stroke-linejoin:round; stroke-width:4; stroke-opacity:1; fill:none" points="
  346.768,1279.84 356.798,1279.45 366.828,1279.05 376.858,1278.62 386.888,1278.17 396.918,1277.71 406.948,1277.21 416.978,1276.69 427.008,1276.15 437.038,1275.58 
  447.068,1274.98 457.098,1274.35 467.128,1273.69 477.158,1272.99 487.188,1272.26 497.217,1271.5 507.247,1270.69 517.277,1269.85 527.307,1268.96 537.337,1268.03 
  547.367,1267.06 557.397,1266.03 567.427,1264.96 577.457,1263.83 587.487,1262.65 597.517,1261.41 607.547,1260.11 617.577,1258.74 627.607,1257.31 637.637,1255.81 
  647.667,1254.24 657.696,1252.59 667.726,1250.86 677.756,1249.05 687.786,1247.15 697.816,1245.17 707.846,1243.09 717.876,1240.91 727.906,1238.62 737.936,1236.24 
  747.966,1233.74 757.996,1231.12 768.026,1228.39 778.056,1225.53 788.086,1222.53 798.116,1219.41 808.146,1216.14 818.175,1212.73 828.205,1209.16 838.235,1205.44 
  848.265,1201.56 858.295,1197.51 868.325,1193.28 878.355,1188.87 888.385,1184.28 898.415,1179.5 908.445,1174.52 918.475,1169.33 928.505,1163.94 938.535,1158.33 
  948.565,1152.5 958.595,1146.45 968.625,1140.16 978.654,1133.63 988.684,1126.87 998.714,1119.86 1008.74,1112.59 1018.77,1105.07 1028.8,1097.29 1038.83,1089.25 
  1048.86,1080.95 1058.89,1072.37 1068.92,1063.53 1078.95,1054.41 1088.98,1045.02 1099.01,1035.36 1109.04,1025.43 1119.07,1015.23 1129.1,1004.76 1139.13,994.026 
  1149.16,983.029 1159.19,971.776 1169.22,960.27 1179.25,948.52 1189.28,936.531 1199.31,924.313 1209.34,911.873 1219.37,899.223 1229.4,886.372 1239.43,873.333 
  1249.46,860.118 1259.49,846.741 1269.52,833.214 1279.55,819.553 1289.58,805.774 1299.61,791.891 1309.64,777.922 1319.67,763.883 1329.7,749.792 1339.73,735.665 
  1349.76,721.521 1359.79,707.377 1369.82,693.25 1379.85,679.158 1389.88,665.12 1399.91,651.15 1409.94,637.268 1419.97,623.488 1430,609.828 1440.03,596.301 
  1450.06,582.923 1460.09,569.708 1470.12,556.669 1480.15,543.819 1490.18,531.169 1500.21,518.729 1510.24,506.511 1520.27,494.522 1530.3,482.772 1540.33,471.266 
  1550.36,460.012 1560.39,449.016 1570.42,438.28 1580.45,427.81 1590.48,417.609 1600.51,407.677 1610.54,398.017 1620.57,388.63 1630.6,379.514 1640.63,370.669 
  1650.66,362.095 1660.69,353.789 1670.72,345.748 1680.75,337.969 1690.78,330.45 1700.81,323.186 1710.84,316.173 1720.87,309.407 1730.9,302.883 1740.93,296.596 
  1750.96,290.541 1760.99,284.711 1771.02,279.103 1781.05,273.709 1791.08,268.525 1801.11,263.544 1811.14,258.76 1821.17,254.168 1831.2,249.762 1841.23,245.536 
  1851.26,241.484 1861.29,237.6 1871.32,233.878 1881.35,230.314 1891.38,226.901 1901.41,223.634 1911.44,220.507 1921.47,217.516 1931.5,214.655 1941.53,211.92 
  1951.56,209.305 1961.59,206.805 1971.62,204.417 1981.65,202.135 1991.68,199.956 2001.71,197.875 2011.74,195.888 2021.77,193.991 2031.8,192.18 2041.83,190.452 
  2051.86,188.804 2061.89,187.231 2071.92,185.731 2081.95,184.3 2091.98,182.935 2102.01,181.634 2112.04,180.394 2122.07,179.211 2132.1,178.084 2142.13,177.009 
  2152.16,175.985 2162.19,175.009 2172.22,174.08 2182.25,173.194 2192.28,172.35 2202.31,171.546 2212.34,170.78 2222.37,170.05 2232.4,169.355 2242.43,168.694 
  2252.46,168.064 2262.49,167.463 2272.52,166.892 2282.55,166.348 2292.58,165.83 2302.61,165.337 2312.64,164.867 2322.67,164.42 2332.7,163.994 2342.73,163.589 
  2352.76,163.204 
  "/>
<polyline clip-path="url(#clip062)" style="stroke:#c271d2; stroke-linecap:butt; stroke-linejoin:round; stroke-width:4; stroke-opacity:1; fill:none" points="
  346.768,1287.36 356.798,1287.36 366.828,1287.35 376.858,1287.34 386.888,1287.34 396.918,1287.33 406.948,1287.32 416.978,1287.31 427.008,1287.3 437.038,1287.29 
  447.068,1287.27 457.098,1287.26 467.128,1287.24 477.158,1287.22 487.188,1287.2 497.217,1287.18 507.247,1287.16 517.277,1287.13 527.307,1287.1 537.337,1287.07 
  547.367,1287.03 557.397,1286.99 567.427,1286.95 577.457,1286.9 587.487,1286.85 597.517,1286.79 607.547,1286.72 617.577,1286.65 627.607,1286.57 637.637,1286.48 
  647.667,1286.38 657.696,1286.27 667.726,1286.15 677.756,1286.02 687.786,1285.88 697.816,1285.71 707.846,1285.54 717.876,1285.34 727.906,1285.12 737.936,1284.88 
  747.966,1284.61 757.996,1284.32 768.026,1284 778.056,1283.64 788.086,1283.24 798.116,1282.81 808.146,1282.32 818.175,1281.79 828.205,1281.2 838.235,1280.55 
  848.265,1279.84 858.295,1279.05 868.325,1278.17 878.355,1277.21 888.385,1276.15 898.415,1274.98 908.445,1273.69 918.475,1272.26 928.505,1270.69 938.535,1268.96 
  948.565,1267.06 958.595,1264.96 968.625,1262.65 978.654,1260.11 988.684,1257.31 998.714,1254.24 1008.74,1250.86 1018.77,1247.15 1028.8,1243.09 1038.83,1238.62 
  1048.86,1233.74 1058.89,1228.39 1068.92,1222.53 1078.95,1216.14 1088.98,1209.16 1099.01,1201.56 1109.04,1193.28 1119.07,1184.28 1129.1,1174.52 1139.13,1163.94 
  1149.16,1152.5 1159.19,1140.16 1169.22,1126.87 1179.25,1112.59 1189.28,1097.29 1199.31,1080.95 1209.34,1063.53 1219.37,1045.02 1229.4,1025.43 1239.43,1004.76 
  1249.46,983.029 1259.49,960.27 1269.52,936.531 1279.55,911.873 1289.58,886.372 1299.61,860.118 1309.64,833.214 1319.67,805.774 1329.7,777.922 1339.73,749.792 
  1349.76,721.521 1359.79,693.25 1369.82,665.12 1379.85,637.268 1389.88,609.828 1399.91,582.923 1409.94,556.669 1419.97,531.169 1430,506.511 1440.03,482.772 
  1450.06,460.012 1460.09,438.28 1470.12,417.609 1480.15,398.017 1490.18,379.514 1500.21,362.095 1510.24,345.748 1520.27,330.45 1530.3,316.173 1540.33,302.883 
  1550.36,290.541 1560.39,279.103 1570.42,268.525 1580.45,258.76 1590.48,249.762 1600.51,241.484 1610.54,233.878 1620.57,226.901 1630.6,220.507 1640.63,214.655 
  1650.66,209.305 1660.69,204.417 1670.72,199.956 1680.75,195.888 1690.78,192.18 1700.81,188.804 1710.84,185.731 1720.87,182.935 1730.9,180.394 1740.93,178.084 
  1750.96,175.985 1760.99,174.08 1771.02,172.35 1781.05,170.78 1791.08,169.355 1801.11,168.064 1811.14,166.892 1821.17,165.83 1831.2,164.867 1841.23,163.994 
  1851.26,163.204 1861.29,162.487 1871.32,161.838 1881.35,161.25 1891.38,160.717 1901.41,160.235 1911.44,159.798 1921.47,159.403 1931.5,159.045 1941.53,158.721 
  1951.56,158.427 1961.59,158.161 1971.62,157.921 1981.65,157.703 1991.68,157.506 2001.71,157.328 2011.74,157.166 2021.77,157.02 2031.8,156.888 2041.83,156.768 
  2051.86,156.66 2061.89,156.562 2071.92,156.473 2081.95,156.393 2091.98,156.32 2102.01,156.254 2112.04,156.195 2122.07,156.141 2132.1,156.092 2142.13,156.048 
  2152.16,156.008 2162.19,155.972 2172.22,155.939 2182.25,155.91 2192.28,155.883 2202.31,155.859 2212.34,155.837 2222.37,155.817 2232.4,155.799 2242.43,155.783 
  2252.46,155.768 2262.49,155.755 2272.52,155.743 2282.55,155.732 2292.58,155.722 2302.61,155.713 2312.64,155.705 2322.67,155.698 2332.7,155.691 2342.73,155.685 
  2352.76,155.68 
  "/>
<polyline clip-path="url(#clip062)" style="stroke:#ac8d18; stroke-linecap:butt; stroke-linejoin:round; stroke-width:4; stroke-opacity:1; fill:none" points="
  346.768,1287.41 356.798,1287.41 366.828,1287.41 376.858,1287.41 386.888,1287.41 396.918,1287.41 406.948,1287.41 416.978,1287.41 427.008,1287.41 437.038,1287.41 
  447.068,1287.41 457.098,1287.41 467.128,1287.41 477.158,1287.41 487.188,1287.41 497.217,1287.41 507.247,1287.41 517.277,1287.41 527.307,1287.41 537.337,1287.41 
  547.367,1287.41 557.397,1287.41 567.427,1287.41 577.457,1287.41 587.487,1287.41 597.517,1287.41 607.547,1287.41 617.577,1287.41 627.607,1287.41 637.637,1287.41 
  647.667,1287.41 657.696,1287.41 667.726,1287.41 677.756,1287.41 687.786,1287.41 697.816,1287.41 707.846,1287.41 717.876,1287.41 727.906,1287.41 737.936,1287.41 
  747.966,1287.41 757.996,1287.4 768.026,1287.4 778.056,1287.4 788.086,1287.4 798.116,1287.39 808.146,1287.39 818.175,1287.38 828.205,1287.38 838.235,1287.37 
  848.265,1287.36 858.295,1287.35 868.325,1287.34 878.355,1287.32 888.385,1287.3 898.415,1287.27 908.445,1287.24 918.475,1287.2 928.505,1287.16 938.535,1287.1 
  948.565,1287.03 958.595,1286.95 968.625,1286.85 978.654,1286.72 988.684,1286.57 998.714,1286.38 1008.74,1286.15 1018.77,1285.88 1028.8,1285.54 1038.83,1285.12 
  1048.86,1284.61 1058.89,1284 1068.92,1283.24 1078.95,1282.32 1088.98,1281.2 1099.01,1279.84 1109.04,1278.17 1119.07,1276.15 1129.1,1273.69 1139.13,1270.69 
  1149.16,1267.06 1159.19,1262.65 1169.22,1257.31 1179.25,1250.86 1189.28,1243.09 1199.31,1233.74 1209.34,1222.53 1219.37,1209.16 1229.4,1193.28 1239.43,1174.52 
  1249.46,1152.5 1259.49,1126.87 1269.52,1097.29 1279.55,1063.53 1289.58,1025.43 1299.61,983.029 1309.64,936.531 1319.67,886.372 1329.7,833.214 1339.73,777.922 
  1349.76,721.521 1359.79,665.12 1369.82,609.828 1379.85,556.669 1389.88,506.511 1399.91,460.012 1409.94,417.609 1419.97,379.514 1430,345.748 1440.03,316.173 
  1450.06,290.541 1460.09,268.525 1470.12,249.762 1480.15,233.878 1490.18,220.507 1500.21,209.305 1510.24,199.956 1520.27,192.18 1530.3,185.731 1540.33,180.394 
  1550.36,175.985 1560.39,172.35 1570.42,169.355 1580.45,166.892 1590.48,164.867 1600.51,163.204 1610.54,161.838 1620.57,160.717 1630.6,159.798 1640.63,159.045 
  1650.66,158.427 1660.69,157.921 1670.72,157.506 1680.75,157.166 1690.78,156.888 1700.81,156.66 1710.84,156.473 1720.87,156.32 1730.9,156.195 1740.93,156.092 
  1750.96,156.008 1760.99,155.939 1771.02,155.883 1781.05,155.837 1791.08,155.799 1801.11,155.768 1811.14,155.743 1821.17,155.722 1831.2,155.705 1841.23,155.691 
  1851.26,155.68 1861.29,155.671 1871.32,155.663 1881.35,155.657 1891.38,155.652 1901.41,155.648 1911.44,155.644 1921.47,155.641 1931.5,155.639 1941.53,155.637 
  1951.56,155.636 1961.59,155.634 1971.62,155.633 1981.65,155.632 1991.68,155.632 2001.71,155.631 2011.74,155.631 2021.77,155.63 2031.8,155.63 2041.83,155.63 
  2051.86,155.63 2061.89,155.629 2071.92,155.629 2081.95,155.629 2091.98,155.629 2102.01,155.629 2112.04,155.629 2122.07,155.629 2132.1,155.629 2142.13,155.629 
  2152.16,155.629 2162.19,155.629 2172.22,155.629 2182.25,155.629 2192.28,155.629 2202.31,155.629 2212.34,155.629 2222.37,155.629 2232.4,155.629 2242.43,155.629 
  2252.46,155.629 2262.49,155.629 2272.52,155.629 2282.55,155.629 2292.58,155.629 2302.61,155.629 2312.64,155.629 2322.67,155.629 2332.7,155.629 2342.73,155.629 
  2352.76,155.629 
  "/>
<polyline clip-path="url(#clip062)" style="stroke:#00a9ad; stroke-linecap:butt; stroke-linejoin:round; stroke-width:4; stroke-opacity:1; fill:none" points="
  346.768,1287.41 356.798,1287.41 366.828,1287.41 376.858,1287.41 386.888,1287.41 396.918,1287.41 406.948,1287.41 416.978,1287.41 427.008,1287.41 437.038,1287.41 
  447.068,1287.41 457.098,1287.41 467.128,1287.41 477.158,1287.41 487.188,1287.41 497.217,1287.41 507.247,1287.41 517.277,1287.41 527.307,1287.41 537.337,1287.41 
  547.367,1287.41 557.397,1287.41 567.427,1287.41 577.457,1287.41 587.487,1287.41 597.517,1287.41 607.547,1287.41 617.577,1287.41 627.607,1287.41 637.637,1287.41 
  647.667,1287.41 657.696,1287.41 667.726,1287.41 677.756,1287.41 687.786,1287.41 697.816,1287.41 707.846,1287.41 717.876,1287.41 727.906,1287.41 737.936,1287.41 
  747.966,1287.41 757.996,1287.41 768.026,1287.41 778.056,1287.41 788.086,1287.41 798.116,1287.41 808.146,1287.41 818.175,1287.41 828.205,1287.41 838.235,1287.41 
  848.265,1287.41 858.295,1287.41 868.325,1287.41 878.355,1287.41 888.385,1287.41 898.415,1287.41 908.445,1287.41 918.475,1287.41 928.505,1287.41 938.535,1287.41 
  948.565,1287.41 958.595,1287.41 968.625,1287.41 978.654,1287.41 988.684,1287.41 998.714,1287.41 1008.74,1287.41 1018.77,1287.41 1028.8,1287.41 1038.83,1287.41 
  1048.86,1287.41 1058.89,1287.41 1068.92,1287.41 1078.95,1287.41 1088.98,1287.41 1099.01,1287.41 1109.04,1287.41 1119.07,1287.41 1129.1,1287.41 1139.13,1287.41 
  1149.16,1287.41 1159.19,1287.41 1169.22,1287.41 1179.25,1287.41 1189.28,1287.41 1199.31,1287.41 1209.34,1287.41 1219.37,1287.41 1229.4,1287.41 1239.43,1287.39 
  1249.46,1287.36 1259.49,1287.27 1269.52,1287.03 1279.55,1286.38 1289.58,1284.61 1299.61,1279.84 1309.64,1267.06 1319.67,1233.74 1329.7,1152.5 1339.73,983.029 
  1349.76,721.521 1359.79,460.012 1369.82,290.541 1379.85,209.305 1389.88,175.985 1399.91,163.204 1409.94,158.427 1419.97,156.66 1430,156.008 1440.03,155.768 
  1450.06,155.68 1460.09,155.648 1470.12,155.636 1480.15,155.631 1490.18,155.63 1500.21,155.629 1510.24,155.629 1520.27,155.629 1530.3,155.629 1540.33,155.629 
  1550.36,155.629 1560.39,155.629 1570.42,155.629 1580.45,155.629 1590.48,155.629 1600.51,155.629 1610.54,155.629 1620.57,155.629 1630.6,155.629 1640.63,155.629 
  1650.66,155.629 1660.69,155.629 1670.72,155.629 1680.75,155.629 1690.78,155.629 1700.81,155.629 1710.84,155.629 1720.87,155.629 1730.9,155.629 1740.93,155.629 
  1750.96,155.629 1760.99,155.629 1771.02,155.629 1781.05,155.629 1791.08,155.629 1801.11,155.629 1811.14,155.629 1821.17,155.629 1831.2,155.629 1841.23,155.629 
  1851.26,155.629 1861.29,155.629 1871.32,155.629 1881.35,155.629 1891.38,155.629 1901.41,155.629 1911.44,155.629 1921.47,155.629 1931.5,155.629 1941.53,155.629 
  1951.56,155.629 1961.59,155.629 1971.62,155.629 1981.65,155.629 1991.68,155.629 2001.71,155.629 2011.74,155.629 2021.77,155.629 2031.8,155.629 2041.83,155.629 
  2051.86,155.629 2061.89,155.629 2071.92,155.629 2081.95,155.629 2091.98,155.629 2102.01,155.629 2112.04,155.629 2122.07,155.629 2132.1,155.629 2142.13,155.629 
  2152.16,155.629 2162.19,155.629 2172.22,155.629 2182.25,155.629 2192.28,155.629 2202.31,155.629 2212.34,155.629 2222.37,155.629 2232.4,155.629 2242.43,155.629 
  2252.46,155.629 2262.49,155.629 2272.52,155.629 2282.55,155.629 2292.58,155.629 2302.61,155.629 2312.64,155.629 2322.67,155.629 2332.7,155.629 2342.73,155.629 
  2352.76,155.629 
  "/>
<path clip-path="url(#clip060)" d="
M413.635 513.763 L730.19 513.763 L730.19 161.665 L413.635 161.665  Z
  " fill="#ffffff" fill-rule="evenodd" fill-opacity="1"/>
<polyline clip-path="url(#clip060)" style="stroke:#000000; stroke-linecap:butt; stroke-linejoin:round; stroke-width:4; stroke-opacity:1; fill:none" points="
  413.635,513.763 730.19,513.763 730.19,161.665 413.635,161.665 413.635,513.763 
  "/>
<polyline clip-path="url(#clip060)" style="stroke:#009af9; stroke-linecap:butt; stroke-linejoin:round; stroke-width:4; stroke-opacity:1; fill:none" points="
  435.923,211.965 569.656,211.965 
  "/>
<g clip-path="url(#clip060)">
<text style="fill:#000000; fill-opacity:1; font-family:Arial,Helvetica Neue,Helvetica,sans-serif; font-size:48px; text-anchor:start;" transform="rotate(0, 591.945, 229.465)" x="591.945" y="229.465">0.0</text>
</g>
<polyline clip-path="url(#clip060)" style="stroke:#e26f46; stroke-linecap:butt; stroke-linejoin:round; stroke-width:4; stroke-opacity:1; fill:none" points="
  435.923,262.264 569.656,262.264 
  "/>
<g clip-path="url(#clip060)">
<text style="fill:#000000; fill-opacity:1; font-family:Arial,Helvetica Neue,Helvetica,sans-serif; font-size:48px; text-anchor:start;" transform="rotate(0, 591.945, 279.764)" x="591.945" y="279.764">0.2</text>
</g>
<polyline clip-path="url(#clip060)" style="stroke:#3da44d; stroke-linecap:butt; stroke-linejoin:round; stroke-width:4; stroke-opacity:1; fill:none" points="
  435.923,312.564 569.656,312.564 
  "/>
<g clip-path="url(#clip060)">
<text style="fill:#000000; fill-opacity:1; font-family:Arial,Helvetica Neue,Helvetica,sans-serif; font-size:48px; text-anchor:start;" transform="rotate(0, 591.945, 330.064)" x="591.945" y="330.064">0.5</text>
</g>
<polyline clip-path="url(#clip060)" style="stroke:#c271d2; stroke-linecap:butt; stroke-linejoin:round; stroke-width:4; stroke-opacity:1; fill:none" points="
  435.923,362.864 569.656,362.864 
  "/>
<g clip-path="url(#clip060)">
<text style="fill:#000000; fill-opacity:1; font-family:Arial,Helvetica Neue,Helvetica,sans-serif; font-size:48px; text-anchor:start;" transform="rotate(0, 591.945, 380.364)" x="591.945" y="380.364">1.0</text>
</g>
<polyline clip-path="url(#clip060)" style="stroke:#ac8d18; stroke-linecap:butt; stroke-linejoin:round; stroke-width:4; stroke-opacity:1; fill:none" points="
  435.923,413.163 569.656,413.163 
  "/>
<g clip-path="url(#clip060)">
<text style="fill:#000000; fill-opacity:1; font-family:Arial,Helvetica Neue,Helvetica,sans-serif; font-size:48px; text-anchor:start;" transform="rotate(0, 591.945, 430.663)" x="591.945" y="430.663">2.0</text>
</g>
<polyline clip-path="url(#clip060)" style="stroke:#00a9ad; stroke-linecap:butt; stroke-linejoin:round; stroke-width:4; stroke-opacity:1; fill:none" points="
  435.923,463.463 569.656,463.463 
  "/>
<g clip-path="url(#clip060)">
<text style="fill:#000000; fill-opacity:1; font-family:Arial,Helvetica Neue,Helvetica,sans-serif; font-size:48px; text-anchor:start;" transform="rotate(0, 591.945, 480.963)" x="591.945" y="480.963">10.0</text>
</g>
</svg>
