<?xml version="1.0" encoding="utf-8"?>
<svg xmlns="http://www.w3.org/2000/svg" xmlns:xlink="http://www.w3.org/1999/xlink" width="600" height="400" viewBox="0 0 2400 1600">
<defs>
  <clipPath id="clip780">
    <rect x="0" y="0" width="2400" height="1600"/>
  </clipPath>
</defs>
<path clip-path="url(#clip780)" d="
M0 1600 L2400 1600 L2400 0 L0 0  Z
  " fill="#ffffff" fill-rule="evenodd" fill-opacity="1"/>
<defs>
  <clipPath id="clip781">
    <rect x="480" y="0" width="1681" height="1600"/>
  </clipPath>
</defs>
<path clip-path="url(#clip780)" d="
M191.244 1416.76 L2112.76 1416.76 L2112.76 62.9921 L191.244 62.9921  Z
  " fill="#ffffff" fill-rule="evenodd" fill-opacity="1"/>
<defs>
  <clipPath id="clip782">
    <rect x="191" y="62" width="1923" height="1355"/>
  </clipPath>
</defs>
<polyline clip-path="url(#clip782)" style="stroke:#000000; stroke-width:2; stroke-opacity:0.1; fill:none" points="
  352.658,1416.76 352.658,62.9921 
  "/>
<polyline clip-path="url(#clip782)" style="stroke:#000000; stroke-width:2; stroke-opacity:0.1; fill:none" points="
  751.63,1416.76 751.63,62.9921 
  "/>
<polyline clip-path="url(#clip782)" style="stroke:#000000; stroke-width:2; stroke-opacity:0.1; fill:none" points="
  1150.6,1416.76 1150.6,62.9921 
  "/>
<polyline clip-path="url(#clip782)" style="stroke:#000000; stroke-width:2; stroke-opacity:0.1; fill:none" points="
  1549.57,1416.76 1549.57,62.9921 
  "/>
<polyline clip-path="url(#clip782)" style="stroke:#000000; stroke-width:2; stroke-opacity:0.1; fill:none" points="
  1948.55,1416.76 1948.55,62.9921 
  "/>
<polyline clip-path="url(#clip780)" style="stroke:#000000; stroke-width:4; stroke-opacity:1; fill:none" points="
  191.244,1416.76 2112.76,1416.76 
  "/>
<polyline clip-path="url(#clip780)" style="stroke:#000000; stroke-width:4; stroke-opacity:1; fill:none" points="
  352.658,1416.76 352.658,1400.51 
  "/>
<polyline clip-path="url(#clip780)" style="stroke:#000000; stroke-width:4; stroke-opacity:1; fill:none" points="
  751.63,1416.76 751.63,1400.51 
  "/>
<polyline clip-path="url(#clip780)" style="stroke:#000000; stroke-width:4; stroke-opacity:1; fill:none" points="
  1150.6,1416.76 1150.6,1400.51 
  "/>
<polyline clip-path="url(#clip780)" style="stroke:#000000; stroke-width:4; stroke-opacity:1; fill:none" points="
  1549.57,1416.76 1549.57,1400.51 
  "/>
<polyline clip-path="url(#clip780)" style="stroke:#000000; stroke-width:4; stroke-opacity:1; fill:none" points="
  1948.55,1416.76 1948.55,1400.51 
  "/>
<g clip-path="url(#clip780)">
<text style="fill:#000000; fill-opacity:1; font-family:Arial,Helvetica Neue,Helvetica,sans-serif; font-size:48px; text-anchor:middle;" transform="rotate(0, 352.658, 1477.96)" x="352.658" y="1477.96">−5.0</text>
</g>
<g clip-path="url(#clip780)">
<text style="fill:#000000; fill-opacity:1; font-family:Arial,Helvetica Neue,Helvetica,sans-serif; font-size:48px; text-anchor:middle;" transform="rotate(0, 751.63, 1477.96)" x="751.63" y="1477.96">−2.5</text>
</g>
<g clip-path="url(#clip780)">
<text style="fill:#000000; fill-opacity:1; font-family:Arial,Helvetica Neue,Helvetica,sans-serif; font-size:48px; text-anchor:middle;" transform="rotate(0, 1150.6, 1477.96)" x="1150.6" y="1477.96">0.0</text>
</g>
<g clip-path="url(#clip780)">
<text style="fill:#000000; fill-opacity:1; font-family:Arial,Helvetica Neue,Helvetica,sans-serif; font-size:48px; text-anchor:middle;" transform="rotate(0, 1549.57, 1477.96)" x="1549.57" y="1477.96">2.5</text>
</g>
<g clip-path="url(#clip780)">
<text style="fill:#000000; fill-opacity:1; font-family:Arial,Helvetica Neue,Helvetica,sans-serif; font-size:48px; text-anchor:middle;" transform="rotate(0, 1948.55, 1477.96)" x="1948.55" y="1477.96">5.0</text>
</g>
<polyline clip-path="url(#clip782)" style="stroke:#000000; stroke-width:2; stroke-opacity:0.1; fill:none" points="
  191.244,1345.82 2112.76,1345.82 
  "/>
<polyline clip-path="url(#clip782)" style="stroke:#000000; stroke-width:2; stroke-opacity:0.1; fill:none" points="
  191.244,1060.97 2112.76,1060.97 
  "/>
<polyline clip-path="url(#clip782)" style="stroke:#000000; stroke-width:2; stroke-opacity:0.1; fill:none" points="
  191.244,776.115 2112.76,776.115 
  "/>
<polyline clip-path="url(#clip782)" style="stroke:#000000; stroke-width:2; stroke-opacity:0.1; fill:none" points="
  191.244,491.263 2112.76,491.263 
  "/>
<polyline clip-path="url(#clip782)" style="stroke:#000000; stroke-width:2; stroke-opacity:0.1; fill:none" points="
  191.244,206.411 2112.76,206.411 
  "/>
<polyline clip-path="url(#clip780)" style="stroke:#000000; stroke-width:4; stroke-opacity:1; fill:none" points="
  191.244,1416.76 191.244,62.9921 
  "/>
<polyline clip-path="url(#clip780)" style="stroke:#000000; stroke-width:4; stroke-opacity:1; fill:none" points="
  191.244,1345.82 214.302,1345.82 
  "/>
<polyline clip-path="url(#clip780)" style="stroke:#000000; stroke-width:4; stroke-opacity:1; fill:none" points="
  191.244,1060.97 214.302,1060.97 
  "/>
<polyline clip-path="url(#clip780)" style="stroke:#000000; stroke-width:4; stroke-opacity:1; fill:none" points="
  191.244,776.115 214.302,776.115 
  "/>
<polyline clip-path="url(#clip780)" style="stroke:#000000; stroke-width:4; stroke-opacity:1; fill:none" points="
  191.244,491.263 214.302,491.263 
  "/>
<polyline clip-path="url(#clip780)" style="stroke:#000000; stroke-width:4; stroke-opacity:1; fill:none" points="
  191.244,206.411 214.302,206.411 
  "/>
<g clip-path="url(#clip780)">
<text style="fill:#000000; fill-opacity:1; font-family:Arial,Helvetica Neue,Helvetica,sans-serif; font-size:48px; text-anchor:end;" transform="rotate(0, 155.244, 1363.32)" x="155.244" y="1363.32">−5.0</text>
</g>
<g clip-path="url(#clip780)">
<text style="fill:#000000; fill-opacity:1; font-family:Arial,Helvetica Neue,Helvetica,sans-serif; font-size:48px; text-anchor:end;" transform="rotate(0, 155.244, 1078.47)" x="155.244" y="1078.47">−2.5</text>
</g>
<g clip-path="url(#clip780)">
<text style="fill:#000000; fill-opacity:1; font-family:Arial,Helvetica Neue,Helvetica,sans-serif; font-size:48px; text-anchor:end;" transform="rotate(0, 155.244, 793.615)" x="155.244" y="793.615">0.0</text>
</g>
<g clip-path="url(#clip780)">
<text style="fill:#000000; fill-opacity:1; font-family:Arial,Helvetica Neue,Helvetica,sans-serif; font-size:48px; text-anchor:end;" transform="rotate(0, 155.244, 508.763)" x="155.244" y="508.763">2.5</text>
</g>
<g clip-path="url(#clip780)">
<text style="fill:#000000; fill-opacity:1; font-family:Arial,Helvetica Neue,Helvetica,sans-serif; font-size:48px; text-anchor:end;" transform="rotate(0, 155.244, 223.911)" x="155.244" y="223.911">5.0</text>
</g>
<g clip-path="url(#clip780)">
<text style="fill:#000000; fill-opacity:1; font-family:Arial,Helvetica Neue,Helvetica,sans-serif; font-size:84px; text-anchor:middle;" transform="rotate(0, 1152, 73.2)" x="1152" y="73.2">QDA</text>
</g>
<circle clip-path="url(#clip782)" cx="1738.41" cy="218.197" r="14" fill="#009af9" fill-rule="evenodd" fill-opacity="1" stroke="#000000" stroke-opacity="1" stroke-width="3.2"/>
<circle clip-path="url(#clip782)" cx="1727.67" cy="474.205" r="14" fill="#009af9" fill-rule="evenodd" fill-opacity="1" stroke="#000000" stroke-opacity="1" stroke-width="3.2"/>
<circle clip-path="url(#clip782)" cx="1380.25" cy="655.343" r="14" fill="#009af9" fill-rule="evenodd" fill-opacity="1" stroke="#000000" stroke-opacity="1" stroke-width="3.2"/>
<circle clip-path="url(#clip782)" cx="1691.18" cy="560.396" r="14" fill="#009af9" fill-rule="evenodd" fill-opacity="1" stroke="#000000" stroke-opacity="1" stroke-width="3.2"/>
<circle clip-path="url(#clip782)" cx="1531.58" cy="579.531" r="14" fill="#009af9" fill-rule="evenodd" fill-opacity="1" stroke="#000000" stroke-opacity="1" stroke-width="3.2"/>
<circle clip-path="url(#clip782)" cx="1393.19" cy="684.213" r="14" fill="#009af9" fill-rule="evenodd" fill-opacity="1" stroke="#000000" stroke-opacity="1" stroke-width="3.2"/>
<circle clip-path="url(#clip782)" cx="1269.15" cy="495.507" r="14" fill="#009af9" fill-rule="evenodd" fill-opacity="1" stroke="#000000" stroke-opacity="1" stroke-width="3.2"/>
<circle clip-path="url(#clip782)" cx="1603.48" cy="488.935" r="14" fill="#009af9" fill-rule="evenodd" fill-opacity="1" stroke="#000000" stroke-opacity="1" stroke-width="3.2"/>
<circle clip-path="url(#clip782)" cx="1406.33" cy="666.65" r="14" fill="#009af9" fill-rule="evenodd" fill-opacity="1" stroke="#000000" stroke-opacity="1" stroke-width="3.2"/>
<circle clip-path="url(#clip782)" cx="1307.87" cy="673.125" r="14" fill="#009af9" fill-rule="evenodd" fill-opacity="1" stroke="#000000" stroke-opacity="1" stroke-width="3.2"/>
<circle clip-path="url(#clip782)" cx="1248.71" cy="506.273" r="14" fill="#009af9" fill-rule="evenodd" fill-opacity="1" stroke="#000000" stroke-opacity="1" stroke-width="3.2"/>
<circle clip-path="url(#clip782)" cx="1364.05" cy="690.178" r="14" fill="#009af9" fill-rule="evenodd" fill-opacity="1" stroke="#000000" stroke-opacity="1" stroke-width="3.2"/>
<circle clip-path="url(#clip782)" cx="1532.46" cy="302.675" r="14" fill="#009af9" fill-rule="evenodd" fill-opacity="1" stroke="#000000" stroke-opacity="1" stroke-width="3.2"/>
<circle clip-path="url(#clip782)" cx="1068.56" cy="1020.86" r="14" fill="#009af9" fill-rule="evenodd" fill-opacity="1" stroke="#000000" stroke-opacity="1" stroke-width="3.2"/>
<circle clip-path="url(#clip782)" cx="1646.33" cy="175.431" r="14" fill="#009af9" fill-rule="evenodd" fill-opacity="1" stroke="#000000" stroke-opacity="1" stroke-width="3.2"/>
<circle clip-path="url(#clip782)" cx="1273.19" cy="492.524" r="14" fill="#009af9" fill-rule="evenodd" fill-opacity="1" stroke="#000000" stroke-opacity="1" stroke-width="3.2"/>
<circle clip-path="url(#clip782)" cx="1434.61" cy="172.3" r="14" fill="#009af9" fill-rule="evenodd" fill-opacity="1" stroke="#000000" stroke-opacity="1" stroke-width="3.2"/>
<circle clip-path="url(#clip782)" cx="1244.46" cy="537.444" r="14" fill="#009af9" fill-rule="evenodd" fill-opacity="1" stroke="#000000" stroke-opacity="1" stroke-width="3.2"/>
<circle clip-path="url(#clip782)" cx="1076.13" cy="690.118" r="14" fill="#009af9" fill-rule="evenodd" fill-opacity="1" stroke="#000000" stroke-opacity="1" stroke-width="3.2"/>
<circle clip-path="url(#clip782)" cx="1412.51" cy="417.064" r="14" fill="#009af9" fill-rule="evenodd" fill-opacity="1" stroke="#000000" stroke-opacity="1" stroke-width="3.2"/>
<circle clip-path="url(#clip782)" cx="1215.91" cy="603.728" r="14" fill="#009af9" fill-rule="evenodd" fill-opacity="1" stroke="#000000" stroke-opacity="1" stroke-width="3.2"/>
<circle clip-path="url(#clip782)" cx="1415.05" cy="301.373" r="14" fill="#009af9" fill-rule="evenodd" fill-opacity="1" stroke="#000000" stroke-opacity="1" stroke-width="3.2"/>
<circle clip-path="url(#clip782)" cx="1563.09" cy="584.91" r="14" fill="#009af9" fill-rule="evenodd" fill-opacity="1" stroke="#000000" stroke-opacity="1" stroke-width="3.2"/>
<circle clip-path="url(#clip782)" cx="1427.84" cy="301.402" r="14" fill="#009af9" fill-rule="evenodd" fill-opacity="1" stroke="#000000" stroke-opacity="1" stroke-width="3.2"/>
<circle clip-path="url(#clip782)" cx="760.368" cy="780.28" r="14" fill="#009af9" fill-rule="evenodd" fill-opacity="1" stroke="#000000" stroke-opacity="1" stroke-width="3.2"/>
<circle clip-path="url(#clip782)" cx="1519.14" cy="581.634" r="14" fill="#009af9" fill-rule="evenodd" fill-opacity="1" stroke="#000000" stroke-opacity="1" stroke-width="3.2"/>
<circle clip-path="url(#clip782)" cx="1761.52" cy="359.757" r="14" fill="#009af9" fill-rule="evenodd" fill-opacity="1" stroke="#000000" stroke-opacity="1" stroke-width="3.2"/>
<circle clip-path="url(#clip782)" cx="1476.72" cy="731.955" r="14" fill="#009af9" fill-rule="evenodd" fill-opacity="1" stroke="#000000" stroke-opacity="1" stroke-width="3.2"/>
<circle clip-path="url(#clip782)" cx="1567.88" cy="598.888" r="14" fill="#009af9" fill-rule="evenodd" fill-opacity="1" stroke="#000000" stroke-opacity="1" stroke-width="3.2"/>
<circle clip-path="url(#clip782)" cx="1345.9" cy="650.694" r="14" fill="#009af9" fill-rule="evenodd" fill-opacity="1" stroke="#000000" stroke-opacity="1" stroke-width="3.2"/>
<circle clip-path="url(#clip782)" cx="1620.04" cy="696.523" r="14" fill="#009af9" fill-rule="evenodd" fill-opacity="1" stroke="#000000" stroke-opacity="1" stroke-width="3.2"/>
<circle clip-path="url(#clip782)" cx="1436.75" cy="567.954" r="14" fill="#009af9" fill-rule="evenodd" fill-opacity="1" stroke="#000000" stroke-opacity="1" stroke-width="3.2"/>
<circle clip-path="url(#clip782)" cx="1659.75" cy="629.267" r="14" fill="#009af9" fill-rule="evenodd" fill-opacity="1" stroke="#000000" stroke-opacity="1" stroke-width="3.2"/>
<circle clip-path="url(#clip782)" cx="1701.19" cy="718.819" r="14" fill="#009af9" fill-rule="evenodd" fill-opacity="1" stroke="#000000" stroke-opacity="1" stroke-width="3.2"/>
<circle clip-path="url(#clip782)" cx="1510.06" cy="101.306" r="14" fill="#009af9" fill-rule="evenodd" fill-opacity="1" stroke="#000000" stroke-opacity="1" stroke-width="3.2"/>
<circle clip-path="url(#clip782)" cx="1236.54" cy="597.293" r="14" fill="#009af9" fill-rule="evenodd" fill-opacity="1" stroke="#000000" stroke-opacity="1" stroke-width="3.2"/>
<circle clip-path="url(#clip782)" cx="1661.39" cy="1018.03" r="14" fill="#009af9" fill-rule="evenodd" fill-opacity="1" stroke="#000000" stroke-opacity="1" stroke-width="3.2"/>
<circle clip-path="url(#clip782)" cx="1466.33" cy="655.613" r="14" fill="#009af9" fill-rule="evenodd" fill-opacity="1" stroke="#000000" stroke-opacity="1" stroke-width="3.2"/>
<circle clip-path="url(#clip782)" cx="2058.37" cy="319.193" r="14" fill="#009af9" fill-rule="evenodd" fill-opacity="1" stroke="#000000" stroke-opacity="1" stroke-width="3.2"/>
<circle clip-path="url(#clip782)" cx="1541.52" cy="341.185" r="14" fill="#009af9" fill-rule="evenodd" fill-opacity="1" stroke="#000000" stroke-opacity="1" stroke-width="3.2"/>
<circle clip-path="url(#clip782)" cx="1158.08" cy="275.484" r="14" fill="#009af9" fill-rule="evenodd" fill-opacity="1" stroke="#000000" stroke-opacity="1" stroke-width="3.2"/>
<circle clip-path="url(#clip782)" cx="1561.19" cy="699.193" r="14" fill="#009af9" fill-rule="evenodd" fill-opacity="1" stroke="#000000" stroke-opacity="1" stroke-width="3.2"/>
<circle clip-path="url(#clip782)" cx="1759.03" cy="431.064" r="14" fill="#009af9" fill-rule="evenodd" fill-opacity="1" stroke="#000000" stroke-opacity="1" stroke-width="3.2"/>
<circle clip-path="url(#clip782)" cx="1380.24" cy="378.168" r="14" fill="#009af9" fill-rule="evenodd" fill-opacity="1" stroke="#000000" stroke-opacity="1" stroke-width="3.2"/>
<circle clip-path="url(#clip782)" cx="1304.13" cy="474.208" r="14" fill="#009af9" fill-rule="evenodd" fill-opacity="1" stroke="#000000" stroke-opacity="1" stroke-width="3.2"/>
<circle clip-path="url(#clip782)" cx="1854.85" cy="438.912" r="14" fill="#009af9" fill-rule="evenodd" fill-opacity="1" stroke="#000000" stroke-opacity="1" stroke-width="3.2"/>
<circle clip-path="url(#clip782)" cx="1534.59" cy="376.115" r="14" fill="#009af9" fill-rule="evenodd" fill-opacity="1" stroke="#000000" stroke-opacity="1" stroke-width="3.2"/>
<circle clip-path="url(#clip782)" cx="1400.52" cy="857.65" r="14" fill="#009af9" fill-rule="evenodd" fill-opacity="1" stroke="#000000" stroke-opacity="1" stroke-width="3.2"/>
<circle clip-path="url(#clip782)" cx="1846.6" cy="582.645" r="14" fill="#009af9" fill-rule="evenodd" fill-opacity="1" stroke="#000000" stroke-opacity="1" stroke-width="3.2"/>
<circle clip-path="url(#clip782)" cx="1432.83" cy="693.737" r="14" fill="#009af9" fill-rule="evenodd" fill-opacity="1" stroke="#000000" stroke-opacity="1" stroke-width="3.2"/>
<circle clip-path="url(#clip782)" cx="1554.7" cy="613.537" r="14" fill="#009af9" fill-rule="evenodd" fill-opacity="1" stroke="#000000" stroke-opacity="1" stroke-width="3.2"/>
<circle clip-path="url(#clip782)" cx="1771.27" cy="290.293" r="14" fill="#009af9" fill-rule="evenodd" fill-opacity="1" stroke="#000000" stroke-opacity="1" stroke-width="3.2"/>
<circle clip-path="url(#clip782)" cx="1140.74" cy="419.229" r="14" fill="#009af9" fill-rule="evenodd" fill-opacity="1" stroke="#000000" stroke-opacity="1" stroke-width="3.2"/>
<circle clip-path="url(#clip782)" cx="1671.97" cy="659.729" r="14" fill="#009af9" fill-rule="evenodd" fill-opacity="1" stroke="#000000" stroke-opacity="1" stroke-width="3.2"/>
<circle clip-path="url(#clip782)" cx="1129.26" cy="669.814" r="14" fill="#009af9" fill-rule="evenodd" fill-opacity="1" stroke="#000000" stroke-opacity="1" stroke-width="3.2"/>
<circle clip-path="url(#clip782)" cx="1495.88" cy="509.142" r="14" fill="#009af9" fill-rule="evenodd" fill-opacity="1" stroke="#000000" stroke-opacity="1" stroke-width="3.2"/>
<circle clip-path="url(#clip782)" cx="1419.4" cy="619.19" r="14" fill="#009af9" fill-rule="evenodd" fill-opacity="1" stroke="#000000" stroke-opacity="1" stroke-width="3.2"/>
<circle clip-path="url(#clip782)" cx="1069.89" cy="443.234" r="14" fill="#009af9" fill-rule="evenodd" fill-opacity="1" stroke="#000000" stroke-opacity="1" stroke-width="3.2"/>
<circle clip-path="url(#clip782)" cx="1559.54" cy="514.266" r="14" fill="#009af9" fill-rule="evenodd" fill-opacity="1" stroke="#000000" stroke-opacity="1" stroke-width="3.2"/>
<circle clip-path="url(#clip782)" cx="1698.77" cy="487.533" r="14" fill="#009af9" fill-rule="evenodd" fill-opacity="1" stroke="#000000" stroke-opacity="1" stroke-width="3.2"/>
<circle clip-path="url(#clip782)" cx="1296.9" cy="580.33" r="14" fill="#009af9" fill-rule="evenodd" fill-opacity="1" stroke="#000000" stroke-opacity="1" stroke-width="3.2"/>
<circle clip-path="url(#clip782)" cx="1806.96" cy="544.625" r="14" fill="#009af9" fill-rule="evenodd" fill-opacity="1" stroke="#000000" stroke-opacity="1" stroke-width="3.2"/>
<circle clip-path="url(#clip782)" cx="1475.23" cy="369.751" r="14" fill="#009af9" fill-rule="evenodd" fill-opacity="1" stroke="#000000" stroke-opacity="1" stroke-width="3.2"/>
<circle clip-path="url(#clip782)" cx="1503.45" cy="275.992" r="14" fill="#009af9" fill-rule="evenodd" fill-opacity="1" stroke="#000000" stroke-opacity="1" stroke-width="3.2"/>
<circle clip-path="url(#clip782)" cx="1351.99" cy="447.436" r="14" fill="#009af9" fill-rule="evenodd" fill-opacity="1" stroke="#000000" stroke-opacity="1" stroke-width="3.2"/>
<circle clip-path="url(#clip782)" cx="1103.92" cy="441.144" r="14" fill="#009af9" fill-rule="evenodd" fill-opacity="1" stroke="#000000" stroke-opacity="1" stroke-width="3.2"/>
<circle clip-path="url(#clip782)" cx="1819.84" cy="776.143" r="14" fill="#009af9" fill-rule="evenodd" fill-opacity="1" stroke="#000000" stroke-opacity="1" stroke-width="3.2"/>
<circle clip-path="url(#clip782)" cx="1476.9" cy="410.86" r="14" fill="#009af9" fill-rule="evenodd" fill-opacity="1" stroke="#000000" stroke-opacity="1" stroke-width="3.2"/>
<circle clip-path="url(#clip782)" cx="1602.59" cy="391.149" r="14" fill="#009af9" fill-rule="evenodd" fill-opacity="1" stroke="#000000" stroke-opacity="1" stroke-width="3.2"/>
<circle clip-path="url(#clip782)" cx="1402.56" cy="414.181" r="14" fill="#009af9" fill-rule="evenodd" fill-opacity="1" stroke="#000000" stroke-opacity="1" stroke-width="3.2"/>
<circle clip-path="url(#clip782)" cx="1541.73" cy="596.848" r="14" fill="#009af9" fill-rule="evenodd" fill-opacity="1" stroke="#000000" stroke-opacity="1" stroke-width="3.2"/>
<circle clip-path="url(#clip782)" cx="1168.31" cy="548.12" r="14" fill="#009af9" fill-rule="evenodd" fill-opacity="1" stroke="#000000" stroke-opacity="1" stroke-width="3.2"/>
<circle clip-path="url(#clip782)" cx="1954.15" cy="546.875" r="14" fill="#009af9" fill-rule="evenodd" fill-opacity="1" stroke="#000000" stroke-opacity="1" stroke-width="3.2"/>
<circle clip-path="url(#clip782)" cx="1981.26" cy="512.829" r="14" fill="#009af9" fill-rule="evenodd" fill-opacity="1" stroke="#000000" stroke-opacity="1" stroke-width="3.2"/>
<circle clip-path="url(#clip782)" cx="1580.08" cy="740.628" r="14" fill="#009af9" fill-rule="evenodd" fill-opacity="1" stroke="#000000" stroke-opacity="1" stroke-width="3.2"/>
<circle clip-path="url(#clip782)" cx="1425.13" cy="235.969" r="14" fill="#009af9" fill-rule="evenodd" fill-opacity="1" stroke="#000000" stroke-opacity="1" stroke-width="3.2"/>
<circle clip-path="url(#clip782)" cx="1459.78" cy="673.598" r="14" fill="#009af9" fill-rule="evenodd" fill-opacity="1" stroke="#000000" stroke-opacity="1" stroke-width="3.2"/>
<circle clip-path="url(#clip782)" cx="1490.26" cy="421.639" r="14" fill="#009af9" fill-rule="evenodd" fill-opacity="1" stroke="#000000" stroke-opacity="1" stroke-width="3.2"/>
<circle clip-path="url(#clip782)" cx="1695.81" cy="664.633" r="14" fill="#009af9" fill-rule="evenodd" fill-opacity="1" stroke="#000000" stroke-opacity="1" stroke-width="3.2"/>
<circle clip-path="url(#clip782)" cx="1126.51" cy="796.239" r="14" fill="#009af9" fill-rule="evenodd" fill-opacity="1" stroke="#000000" stroke-opacity="1" stroke-width="3.2"/>
<circle clip-path="url(#clip782)" cx="1506.11" cy="638.162" r="14" fill="#009af9" fill-rule="evenodd" fill-opacity="1" stroke="#000000" stroke-opacity="1" stroke-width="3.2"/>
<circle clip-path="url(#clip782)" cx="959.178" cy="497.238" r="14" fill="#009af9" fill-rule="evenodd" fill-opacity="1" stroke="#000000" stroke-opacity="1" stroke-width="3.2"/>
<circle clip-path="url(#clip782)" cx="1443.33" cy="530.823" r="14" fill="#009af9" fill-rule="evenodd" fill-opacity="1" stroke="#000000" stroke-opacity="1" stroke-width="3.2"/>
<circle clip-path="url(#clip782)" cx="1938.79" cy="513.124" r="14" fill="#009af9" fill-rule="evenodd" fill-opacity="1" stroke="#000000" stroke-opacity="1" stroke-width="3.2"/>
<circle clip-path="url(#clip782)" cx="1343.17" cy="717.319" r="14" fill="#009af9" fill-rule="evenodd" fill-opacity="1" stroke="#000000" stroke-opacity="1" stroke-width="3.2"/>
<circle clip-path="url(#clip782)" cx="1584.51" cy="764.321" r="14" fill="#009af9" fill-rule="evenodd" fill-opacity="1" stroke="#000000" stroke-opacity="1" stroke-width="3.2"/>
<circle clip-path="url(#clip782)" cx="1547.63" cy="722.553" r="14" fill="#009af9" fill-rule="evenodd" fill-opacity="1" stroke="#000000" stroke-opacity="1" stroke-width="3.2"/>
<circle clip-path="url(#clip782)" cx="1523.22" cy="460.695" r="14" fill="#009af9" fill-rule="evenodd" fill-opacity="1" stroke="#000000" stroke-opacity="1" stroke-width="3.2"/>
<circle clip-path="url(#clip782)" cx="1218.4" cy="570.817" r="14" fill="#009af9" fill-rule="evenodd" fill-opacity="1" stroke="#000000" stroke-opacity="1" stroke-width="3.2"/>
<circle clip-path="url(#clip782)" cx="1881.61" cy="478.573" r="14" fill="#009af9" fill-rule="evenodd" fill-opacity="1" stroke="#000000" stroke-opacity="1" stroke-width="3.2"/>
<circle clip-path="url(#clip782)" cx="1225.32" cy="337.189" r="14" fill="#009af9" fill-rule="evenodd" fill-opacity="1" stroke="#000000" stroke-opacity="1" stroke-width="3.2"/>
<circle clip-path="url(#clip782)" cx="1365.35" cy="568.851" r="14" fill="#009af9" fill-rule="evenodd" fill-opacity="1" stroke="#000000" stroke-opacity="1" stroke-width="3.2"/>
<circle clip-path="url(#clip782)" cx="1328.98" cy="430.027" r="14" fill="#009af9" fill-rule="evenodd" fill-opacity="1" stroke="#000000" stroke-opacity="1" stroke-width="3.2"/>
<circle clip-path="url(#clip782)" cx="1363.3" cy="724.852" r="14" fill="#009af9" fill-rule="evenodd" fill-opacity="1" stroke="#000000" stroke-opacity="1" stroke-width="3.2"/>
<circle clip-path="url(#clip782)" cx="1675.55" cy="545.997" r="14" fill="#009af9" fill-rule="evenodd" fill-opacity="1" stroke="#000000" stroke-opacity="1" stroke-width="3.2"/>
<circle clip-path="url(#clip782)" cx="1987.95" cy="397.574" r="14" fill="#009af9" fill-rule="evenodd" fill-opacity="1" stroke="#000000" stroke-opacity="1" stroke-width="3.2"/>
<circle clip-path="url(#clip782)" cx="1922.53" cy="609.351" r="14" fill="#009af9" fill-rule="evenodd" fill-opacity="1" stroke="#000000" stroke-opacity="1" stroke-width="3.2"/>
<circle clip-path="url(#clip782)" cx="1516.38" cy="592.711" r="14" fill="#009af9" fill-rule="evenodd" fill-opacity="1" stroke="#000000" stroke-opacity="1" stroke-width="3.2"/>
<circle clip-path="url(#clip782)" cx="1739.68" cy="757.148" r="14" fill="#009af9" fill-rule="evenodd" fill-opacity="1" stroke="#000000" stroke-opacity="1" stroke-width="3.2"/>
<circle clip-path="url(#clip782)" cx="1599.62" cy="574.982" r="14" fill="#009af9" fill-rule="evenodd" fill-opacity="1" stroke="#000000" stroke-opacity="1" stroke-width="3.2"/>
<circle clip-path="url(#clip782)" cx="727.147" cy="1039.85" r="14" fill="#e26f46" fill-rule="evenodd" fill-opacity="1" stroke="#000000" stroke-opacity="1" stroke-width="3.2"/>
<circle clip-path="url(#clip782)" cx="667.9" cy="1122.94" r="14" fill="#e26f46" fill-rule="evenodd" fill-opacity="1" stroke="#000000" stroke-opacity="1" stroke-width="3.2"/>
<circle clip-path="url(#clip782)" cx="465.778" cy="1023.35" r="14" fill="#e26f46" fill-rule="evenodd" fill-opacity="1" stroke="#000000" stroke-opacity="1" stroke-width="3.2"/>
<circle clip-path="url(#clip782)" cx="643.574" cy="1062.49" r="14" fill="#e26f46" fill-rule="evenodd" fill-opacity="1" stroke="#000000" stroke-opacity="1" stroke-width="3.2"/>
<circle clip-path="url(#clip782)" cx="451.868" cy="1051.63" r="14" fill="#e26f46" fill-rule="evenodd" fill-opacity="1" stroke="#000000" stroke-opacity="1" stroke-width="3.2"/>
<circle clip-path="url(#clip782)" cx="607.988" cy="1061.3" r="14" fill="#e26f46" fill-rule="evenodd" fill-opacity="1" stroke="#000000" stroke-opacity="1" stroke-width="3.2"/>
<circle clip-path="url(#clip782)" cx="802.331" cy="1227.87" r="14" fill="#e26f46" fill-rule="evenodd" fill-opacity="1" stroke="#000000" stroke-opacity="1" stroke-width="3.2"/>
<circle clip-path="url(#clip782)" cx="595.028" cy="1195.43" r="14" fill="#e26f46" fill-rule="evenodd" fill-opacity="1" stroke="#000000" stroke-opacity="1" stroke-width="3.2"/>
<circle clip-path="url(#clip782)" cx="684.634" cy="1016.28" r="14" fill="#e26f46" fill-rule="evenodd" fill-opacity="1" stroke="#000000" stroke-opacity="1" stroke-width="3.2"/>
<circle clip-path="url(#clip782)" cx="857.191" cy="1279.55" r="14" fill="#e26f46" fill-rule="evenodd" fill-opacity="1" stroke="#000000" stroke-opacity="1" stroke-width="3.2"/>
<circle clip-path="url(#clip782)" cx="755.014" cy="1155.64" r="14" fill="#e26f46" fill-rule="evenodd" fill-opacity="1" stroke="#000000" stroke-opacity="1" stroke-width="3.2"/>
<circle clip-path="url(#clip782)" cx="840.163" cy="1143.65" r="14" fill="#e26f46" fill-rule="evenodd" fill-opacity="1" stroke="#000000" stroke-opacity="1" stroke-width="3.2"/>
<circle clip-path="url(#clip782)" cx="632.381" cy="1038.53" r="14" fill="#e26f46" fill-rule="evenodd" fill-opacity="1" stroke="#000000" stroke-opacity="1" stroke-width="3.2"/>
<circle clip-path="url(#clip782)" cx="635.632" cy="985.057" r="14" fill="#e26f46" fill-rule="evenodd" fill-opacity="1" stroke="#000000" stroke-opacity="1" stroke-width="3.2"/>
<circle clip-path="url(#clip782)" cx="1030.11" cy="1378.44" r="14" fill="#e26f46" fill-rule="evenodd" fill-opacity="1" stroke="#000000" stroke-opacity="1" stroke-width="3.2"/>
<circle clip-path="url(#clip782)" cx="639.286" cy="1072.68" r="14" fill="#e26f46" fill-rule="evenodd" fill-opacity="1" stroke="#000000" stroke-opacity="1" stroke-width="3.2"/>
<circle clip-path="url(#clip782)" cx="768.274" cy="1186.31" r="14" fill="#e26f46" fill-rule="evenodd" fill-opacity="1" stroke="#000000" stroke-opacity="1" stroke-width="3.2"/>
<circle clip-path="url(#clip782)" cx="842.937" cy="1249.03" r="14" fill="#e26f46" fill-rule="evenodd" fill-opacity="1" stroke="#000000" stroke-opacity="1" stroke-width="3.2"/>
<circle clip-path="url(#clip782)" cx="677.071" cy="1168.78" r="14" fill="#e26f46" fill-rule="evenodd" fill-opacity="1" stroke="#000000" stroke-opacity="1" stroke-width="3.2"/>
<circle clip-path="url(#clip782)" cx="705.172" cy="1138.72" r="14" fill="#e26f46" fill-rule="evenodd" fill-opacity="1" stroke="#000000" stroke-opacity="1" stroke-width="3.2"/>
<circle clip-path="url(#clip782)" cx="757.301" cy="1155.58" r="14" fill="#e26f46" fill-rule="evenodd" fill-opacity="1" stroke="#000000" stroke-opacity="1" stroke-width="3.2"/>
<circle clip-path="url(#clip782)" cx="644.763" cy="1168.52" r="14" fill="#e26f46" fill-rule="evenodd" fill-opacity="1" stroke="#000000" stroke-opacity="1" stroke-width="3.2"/>
<circle clip-path="url(#clip782)" cx="842.623" cy="1124.35" r="14" fill="#e26f46" fill-rule="evenodd" fill-opacity="1" stroke="#000000" stroke-opacity="1" stroke-width="3.2"/>
<circle clip-path="url(#clip782)" cx="448.408" cy="1015.14" r="14" fill="#e26f46" fill-rule="evenodd" fill-opacity="1" stroke="#000000" stroke-opacity="1" stroke-width="3.2"/>
<circle clip-path="url(#clip782)" cx="728.442" cy="1151.85" r="14" fill="#e26f46" fill-rule="evenodd" fill-opacity="1" stroke="#000000" stroke-opacity="1" stroke-width="3.2"/>
<circle clip-path="url(#clip782)" cx="628.807" cy="1279.82" r="14" fill="#e26f46" fill-rule="evenodd" fill-opacity="1" stroke="#000000" stroke-opacity="1" stroke-width="3.2"/>
<circle clip-path="url(#clip782)" cx="551.753" cy="1105.99" r="14" fill="#e26f46" fill-rule="evenodd" fill-opacity="1" stroke="#000000" stroke-opacity="1" stroke-width="3.2"/>
<circle clip-path="url(#clip782)" cx="444.286" cy="1023.49" r="14" fill="#e26f46" fill-rule="evenodd" fill-opacity="1" stroke="#000000" stroke-opacity="1" stroke-width="3.2"/>
<circle clip-path="url(#clip782)" cx="478.397" cy="1000.98" r="14" fill="#e26f46" fill-rule="evenodd" fill-opacity="1" stroke="#000000" stroke-opacity="1" stroke-width="3.2"/>
<circle clip-path="url(#clip782)" cx="372.213" cy="844.147" r="14" fill="#e26f46" fill-rule="evenodd" fill-opacity="1" stroke="#000000" stroke-opacity="1" stroke-width="3.2"/>
<circle clip-path="url(#clip782)" cx="763.934" cy="1233.04" r="14" fill="#e26f46" fill-rule="evenodd" fill-opacity="1" stroke="#000000" stroke-opacity="1" stroke-width="3.2"/>
<circle clip-path="url(#clip782)" cx="794.489" cy="1268.95" r="14" fill="#e26f46" fill-rule="evenodd" fill-opacity="1" stroke="#000000" stroke-opacity="1" stroke-width="3.2"/>
<circle clip-path="url(#clip782)" cx="245.627" cy="977.313" r="14" fill="#e26f46" fill-rule="evenodd" fill-opacity="1" stroke="#000000" stroke-opacity="1" stroke-width="3.2"/>
<circle clip-path="url(#clip782)" cx="650.938" cy="1037.45" r="14" fill="#e26f46" fill-rule="evenodd" fill-opacity="1" stroke="#000000" stroke-opacity="1" stroke-width="3.2"/>
<circle clip-path="url(#clip782)" cx="856.387" cy="1270.17" r="14" fill="#e26f46" fill-rule="evenodd" fill-opacity="1" stroke="#000000" stroke-opacity="1" stroke-width="3.2"/>
<circle clip-path="url(#clip782)" cx="250.348" cy="802.127" r="14" fill="#e26f46" fill-rule="evenodd" fill-opacity="1" stroke="#000000" stroke-opacity="1" stroke-width="3.2"/>
<circle clip-path="url(#clip782)" cx="817.709" cy="1017.25" r="14" fill="#e26f46" fill-rule="evenodd" fill-opacity="1" stroke="#000000" stroke-opacity="1" stroke-width="3.2"/>
<circle clip-path="url(#clip782)" cx="813.564" cy="1253.22" r="14" fill="#e26f46" fill-rule="evenodd" fill-opacity="1" stroke="#000000" stroke-opacity="1" stroke-width="3.2"/>
<circle clip-path="url(#clip782)" cx="400.625" cy="821.648" r="14" fill="#e26f46" fill-rule="evenodd" fill-opacity="1" stroke="#000000" stroke-opacity="1" stroke-width="3.2"/>
<circle clip-path="url(#clip782)" cx="501.08" cy="1028.27" r="14" fill="#e26f46" fill-rule="evenodd" fill-opacity="1" stroke="#000000" stroke-opacity="1" stroke-width="3.2"/>
<circle clip-path="url(#clip782)" cx="757.702" cy="1141.55" r="14" fill="#e26f46" fill-rule="evenodd" fill-opacity="1" stroke="#000000" stroke-opacity="1" stroke-width="3.2"/>
<circle clip-path="url(#clip782)" cx="739.49" cy="1130.01" r="14" fill="#e26f46" fill-rule="evenodd" fill-opacity="1" stroke="#000000" stroke-opacity="1" stroke-width="3.2"/>
<circle clip-path="url(#clip782)" cx="800.917" cy="1069.57" r="14" fill="#e26f46" fill-rule="evenodd" fill-opacity="1" stroke="#000000" stroke-opacity="1" stroke-width="3.2"/>
<circle clip-path="url(#clip782)" cx="840.971" cy="1243.19" r="14" fill="#e26f46" fill-rule="evenodd" fill-opacity="1" stroke="#000000" stroke-opacity="1" stroke-width="3.2"/>
<circle clip-path="url(#clip782)" cx="573.202" cy="1135.79" r="14" fill="#e26f46" fill-rule="evenodd" fill-opacity="1" stroke="#000000" stroke-opacity="1" stroke-width="3.2"/>
<circle clip-path="url(#clip782)" cx="736.054" cy="1125.54" r="14" fill="#e26f46" fill-rule="evenodd" fill-opacity="1" stroke="#000000" stroke-opacity="1" stroke-width="3.2"/>
<circle clip-path="url(#clip782)" cx="482.038" cy="1001.58" r="14" fill="#e26f46" fill-rule="evenodd" fill-opacity="1" stroke="#000000" stroke-opacity="1" stroke-width="3.2"/>
<circle clip-path="url(#clip782)" cx="457.193" cy="966.193" r="14" fill="#e26f46" fill-rule="evenodd" fill-opacity="1" stroke="#000000" stroke-opacity="1" stroke-width="3.2"/>
<circle clip-path="url(#clip782)" cx="546.778" cy="1002.18" r="14" fill="#e26f46" fill-rule="evenodd" fill-opacity="1" stroke="#000000" stroke-opacity="1" stroke-width="3.2"/>
<circle clip-path="url(#clip782)" cx="643.659" cy="1189.3" r="14" fill="#e26f46" fill-rule="evenodd" fill-opacity="1" stroke="#000000" stroke-opacity="1" stroke-width="3.2"/>
<circle clip-path="url(#clip782)" cx="744.943" cy="1150.18" r="14" fill="#e26f46" fill-rule="evenodd" fill-opacity="1" stroke="#000000" stroke-opacity="1" stroke-width="3.2"/>
<circle clip-path="url(#clip782)" cx="635.011" cy="1004.48" r="14" fill="#e26f46" fill-rule="evenodd" fill-opacity="1" stroke="#000000" stroke-opacity="1" stroke-width="3.2"/>
<circle clip-path="url(#clip782)" cx="654.869" cy="1122.32" r="14" fill="#e26f46" fill-rule="evenodd" fill-opacity="1" stroke="#000000" stroke-opacity="1" stroke-width="3.2"/>
<circle clip-path="url(#clip782)" cx="574.167" cy="1157.45" r="14" fill="#e26f46" fill-rule="evenodd" fill-opacity="1" stroke="#000000" stroke-opacity="1" stroke-width="3.2"/>
<circle clip-path="url(#clip782)" cx="948.139" cy="1096.94" r="14" fill="#e26f46" fill-rule="evenodd" fill-opacity="1" stroke="#000000" stroke-opacity="1" stroke-width="3.2"/>
<circle clip-path="url(#clip782)" cx="954.163" cy="1262.76" r="14" fill="#e26f46" fill-rule="evenodd" fill-opacity="1" stroke="#000000" stroke-opacity="1" stroke-width="3.2"/>
<circle clip-path="url(#clip782)" cx="444.607" cy="943.672" r="14" fill="#e26f46" fill-rule="evenodd" fill-opacity="1" stroke="#000000" stroke-opacity="1" stroke-width="3.2"/>
<circle clip-path="url(#clip782)" cx="1101.06" cy="1329.72" r="14" fill="#e26f46" fill-rule="evenodd" fill-opacity="1" stroke="#000000" stroke-opacity="1" stroke-width="3.2"/>
<circle clip-path="url(#clip782)" cx="917.961" cy="1346.48" r="14" fill="#e26f46" fill-rule="evenodd" fill-opacity="1" stroke="#000000" stroke-opacity="1" stroke-width="3.2"/>
<circle clip-path="url(#clip782)" cx="496.668" cy="981.491" r="14" fill="#e26f46" fill-rule="evenodd" fill-opacity="1" stroke="#000000" stroke-opacity="1" stroke-width="3.2"/>
<circle clip-path="url(#clip782)" cx="772.894" cy="1287.22" r="14" fill="#e26f46" fill-rule="evenodd" fill-opacity="1" stroke="#000000" stroke-opacity="1" stroke-width="3.2"/>
<circle clip-path="url(#clip782)" cx="873.937" cy="1267" r="14" fill="#e26f46" fill-rule="evenodd" fill-opacity="1" stroke="#000000" stroke-opacity="1" stroke-width="3.2"/>
<circle clip-path="url(#clip782)" cx="620.304" cy="1102.22" r="14" fill="#e26f46" fill-rule="evenodd" fill-opacity="1" stroke="#000000" stroke-opacity="1" stroke-width="3.2"/>
<circle clip-path="url(#clip782)" cx="336.676" cy="991.339" r="14" fill="#e26f46" fill-rule="evenodd" fill-opacity="1" stroke="#000000" stroke-opacity="1" stroke-width="3.2"/>
<circle clip-path="url(#clip782)" cx="922.576" cy="1319.53" r="14" fill="#e26f46" fill-rule="evenodd" fill-opacity="1" stroke="#000000" stroke-opacity="1" stroke-width="3.2"/>
<circle clip-path="url(#clip782)" cx="924.324" cy="1202.22" r="14" fill="#e26f46" fill-rule="evenodd" fill-opacity="1" stroke="#000000" stroke-opacity="1" stroke-width="3.2"/>
<circle clip-path="url(#clip782)" cx="687.823" cy="1102.3" r="14" fill="#e26f46" fill-rule="evenodd" fill-opacity="1" stroke="#000000" stroke-opacity="1" stroke-width="3.2"/>
<circle clip-path="url(#clip782)" cx="430.568" cy="994.747" r="14" fill="#e26f46" fill-rule="evenodd" fill-opacity="1" stroke="#000000" stroke-opacity="1" stroke-width="3.2"/>
<circle clip-path="url(#clip782)" cx="558.284" cy="1043.54" r="14" fill="#e26f46" fill-rule="evenodd" fill-opacity="1" stroke="#000000" stroke-opacity="1" stroke-width="3.2"/>
<circle clip-path="url(#clip782)" cx="623.472" cy="1093.64" r="14" fill="#e26f46" fill-rule="evenodd" fill-opacity="1" stroke="#000000" stroke-opacity="1" stroke-width="3.2"/>
<circle clip-path="url(#clip782)" cx="557.639" cy="1026.11" r="14" fill="#e26f46" fill-rule="evenodd" fill-opacity="1" stroke="#000000" stroke-opacity="1" stroke-width="3.2"/>
<circle clip-path="url(#clip782)" cx="556.917" cy="1060.79" r="14" fill="#e26f46" fill-rule="evenodd" fill-opacity="1" stroke="#000000" stroke-opacity="1" stroke-width="3.2"/>
<circle clip-path="url(#clip782)" cx="603.397" cy="1160.3" r="14" fill="#e26f46" fill-rule="evenodd" fill-opacity="1" stroke="#000000" stroke-opacity="1" stroke-width="3.2"/>
<circle clip-path="url(#clip782)" cx="443.601" cy="975.055" r="14" fill="#e26f46" fill-rule="evenodd" fill-opacity="1" stroke="#000000" stroke-opacity="1" stroke-width="3.2"/>
<circle clip-path="url(#clip782)" cx="636.67" cy="1160.93" r="14" fill="#e26f46" fill-rule="evenodd" fill-opacity="1" stroke="#000000" stroke-opacity="1" stroke-width="3.2"/>
<circle clip-path="url(#clip782)" cx="655.576" cy="1074.03" r="14" fill="#e26f46" fill-rule="evenodd" fill-opacity="1" stroke="#000000" stroke-opacity="1" stroke-width="3.2"/>
<circle clip-path="url(#clip782)" cx="667.492" cy="1085.87" r="14" fill="#e26f46" fill-rule="evenodd" fill-opacity="1" stroke="#000000" stroke-opacity="1" stroke-width="3.2"/>
<circle clip-path="url(#clip782)" cx="649.451" cy="1050.92" r="14" fill="#e26f46" fill-rule="evenodd" fill-opacity="1" stroke="#000000" stroke-opacity="1" stroke-width="3.2"/>
<circle clip-path="url(#clip782)" cx="791.611" cy="1116.96" r="14" fill="#e26f46" fill-rule="evenodd" fill-opacity="1" stroke="#000000" stroke-opacity="1" stroke-width="3.2"/>
<circle clip-path="url(#clip782)" cx="599.148" cy="1071.67" r="14" fill="#e26f46" fill-rule="evenodd" fill-opacity="1" stroke="#000000" stroke-opacity="1" stroke-width="3.2"/>
<circle clip-path="url(#clip782)" cx="751.922" cy="1101.27" r="14" fill="#e26f46" fill-rule="evenodd" fill-opacity="1" stroke="#000000" stroke-opacity="1" stroke-width="3.2"/>
<circle clip-path="url(#clip782)" cx="500.096" cy="1096.94" r="14" fill="#e26f46" fill-rule="evenodd" fill-opacity="1" stroke="#000000" stroke-opacity="1" stroke-width="3.2"/>
<circle clip-path="url(#clip782)" cx="498.862" cy="1078.98" r="14" fill="#e26f46" fill-rule="evenodd" fill-opacity="1" stroke="#000000" stroke-opacity="1" stroke-width="3.2"/>
<circle clip-path="url(#clip782)" cx="595.322" cy="1133.35" r="14" fill="#e26f46" fill-rule="evenodd" fill-opacity="1" stroke="#000000" stroke-opacity="1" stroke-width="3.2"/>
<circle clip-path="url(#clip782)" cx="522.312" cy="1018.14" r="14" fill="#e26f46" fill-rule="evenodd" fill-opacity="1" stroke="#000000" stroke-opacity="1" stroke-width="3.2"/>
<circle clip-path="url(#clip782)" cx="657.501" cy="1012.53" r="14" fill="#e26f46" fill-rule="evenodd" fill-opacity="1" stroke="#000000" stroke-opacity="1" stroke-width="3.2"/>
<circle clip-path="url(#clip782)" cx="716.909" cy="1093.22" r="14" fill="#e26f46" fill-rule="evenodd" fill-opacity="1" stroke="#000000" stroke-opacity="1" stroke-width="3.2"/>
<circle clip-path="url(#clip782)" cx="535.137" cy="1068.44" r="14" fill="#e26f46" fill-rule="evenodd" fill-opacity="1" stroke="#000000" stroke-opacity="1" stroke-width="3.2"/>
<circle clip-path="url(#clip782)" cx="785.563" cy="1228.37" r="14" fill="#e26f46" fill-rule="evenodd" fill-opacity="1" stroke="#000000" stroke-opacity="1" stroke-width="3.2"/>
<circle clip-path="url(#clip782)" cx="638.442" cy="1122.23" r="14" fill="#e26f46" fill-rule="evenodd" fill-opacity="1" stroke="#000000" stroke-opacity="1" stroke-width="3.2"/>
<circle clip-path="url(#clip782)" cx="713.916" cy="1173.19" r="14" fill="#e26f46" fill-rule="evenodd" fill-opacity="1" stroke="#000000" stroke-opacity="1" stroke-width="3.2"/>
<circle clip-path="url(#clip782)" cx="562.303" cy="1058.23" r="14" fill="#e26f46" fill-rule="evenodd" fill-opacity="1" stroke="#000000" stroke-opacity="1" stroke-width="3.2"/>
<circle clip-path="url(#clip782)" cx="729.433" cy="1038.1" r="14" fill="#e26f46" fill-rule="evenodd" fill-opacity="1" stroke="#000000" stroke-opacity="1" stroke-width="3.2"/>
<circle clip-path="url(#clip782)" cx="781.748" cy="1221.56" r="14" fill="#e26f46" fill-rule="evenodd" fill-opacity="1" stroke="#000000" stroke-opacity="1" stroke-width="3.2"/>
<circle clip-path="url(#clip782)" cx="620.784" cy="1124.96" r="14" fill="#e26f46" fill-rule="evenodd" fill-opacity="1" stroke="#000000" stroke-opacity="1" stroke-width="3.2"/>
<circle clip-path="url(#clip782)" cx="906.816" cy="1171.87" r="14" fill="#e26f46" fill-rule="evenodd" fill-opacity="1" stroke="#000000" stroke-opacity="1" stroke-width="3.2"/>
<circle clip-path="url(#clip782)" cx="888.385" cy="1072.02" r="14" fill="#e26f46" fill-rule="evenodd" fill-opacity="1" stroke="#000000" stroke-opacity="1" stroke-width="3.2"/>
<circle clip-path="url(#clip782)" cx="578.584" cy="1038.15" r="14" fill="#e26f46" fill-rule="evenodd" fill-opacity="1" stroke="#000000" stroke-opacity="1" stroke-width="3.2"/>
<circle clip-path="url(#clip782)" cx="786.532" cy="1203.23" r="14" fill="#e26f46" fill-rule="evenodd" fill-opacity="1" stroke="#000000" stroke-opacity="1" stroke-width="3.2"/>
<circle clip-path="url(#clip782)" cx="664.538" cy="1203.49" r="14" fill="#e26f46" fill-rule="evenodd" fill-opacity="1" stroke="#000000" stroke-opacity="1" stroke-width="3.2"/>
<polyline clip-path="url(#clip782)" style="stroke:#090621; stroke-width:4; stroke-opacity:1; fill:none" points="
  1471.39,1345.82 1469.78,1344.53 1457.08,1334.42 1453.82,1331.82 1442.76,1323.03 1437.86,1319.13 1428.43,1311.64 1421.9,1306.45 1414.08,1300.24 1405.94,1293.79 
  1399.71,1288.85 1389.99,1281.14 1385.32,1277.45 1374.03,1268.51 1370.92,1266.06 1358.07,1255.9 1356.5,1254.67 1342.11,1243.31 1342.07,1243.27 1327.58,1231.88 
  1326.15,1230.75 1313.07,1220.48 1310.19,1218.22 1298.54,1209.09 1294.23,1205.7 1284,1197.7 1278.27,1193.2 1269.44,1186.3 1262.31,1180.72 1254.87,1174.91 
  1246.36,1168.25 1240.27,1163.51 1230.4,1155.8 1225.66,1152.12 1214.44,1143.37 1211.03,1140.72 1198.48,1130.96 1196.38,1129.33 1182.52,1118.56 1181.72,1117.94 
  1167.02,1106.54 1166.56,1106.19 1152.29,1095.15 1150.6,1093.84 1137.53,1083.75 1134.64,1081.52 1122.76,1072.36 1118.68,1069.21 1107.97,1060.97 1102.73,1056.92 
  1093.16,1049.57 1086.77,1044.65 1078.34,1038.18 1070.81,1032.39 1063.49,1026.78 1054.85,1020.15 1048.62,1015.39 1038.89,1007.93 1033.74,1004 1022.93,995.729 
  1018.83,992.602 1006.97,983.542 1003.91,981.208 991.013,971.373 988.964,969.814 975.054,959.221 973.999,958.42 959.096,947.087 959.014,947.026 943.987,935.632 
  943.137,934.986 928.938,924.238 927.178,922.903 913.869,912.843 911.219,910.838 898.779,901.449 895.26,898.79 883.669,890.055 879.301,886.76 868.538,878.661 
  863.342,874.748 853.386,867.267 847.383,862.753 838.213,855.873 831.424,850.775 823.018,844.479 815.466,838.816 807.802,833.085 799.507,826.874 792.565,821.691 
  783.548,814.95 777.306,810.297 767.589,803.045 762.025,798.903 751.63,791.157 746.721,787.509 735.671,779.287 731.396,776.115 719.712,767.435 716.048,764.721 
  703.753,755.602 700.677,753.327 687.794,743.787 685.284,741.932 671.836,731.99 669.867,730.538 655.877,720.211 654.427,719.144 639.918,708.451 638.964,707.75 
  623.959,696.709 623.477,696.356 608,684.986 607.967,684.962 592.422,673.568 592.041,673.288 576.853,662.174 576.082,661.609 561.26,650.78 560.123,649.949 
  545.643,639.386 544.164,638.306 530.002,627.992 528.206,626.682 514.336,616.598 512.247,615.077 498.646,605.204 496.288,603.49 482.931,593.81 480.329,591.921 
  467.191,582.416 464.37,580.372 451.426,571.021 448.411,568.841 435.635,559.627 432.452,557.329 419.819,548.233 416.493,545.836 403.977,536.839 400.534,534.362 
  388.109,525.445 384.576,522.907 372.215,514.051 368.617,511.471 356.294,502.657 352.658,500.054 
  "/>
<polyline clip-path="url(#clip782)" style="stroke:#1f0c47; stroke-width:4; stroke-opacity:1; fill:none" points="
  352.658,291.776 360.636,297.564 368.617,303.35 376.338,308.958 384.576,314.937 392.022,320.352 400.534,326.538 407.688,331.746 416.493,338.152 423.337,343.14 
  432.452,349.779 438.969,354.534 448.411,361.419 454.583,365.928 464.37,373.073 470.181,377.322 480.329,384.739 485.761,388.716 496.288,396.418 501.324,400.111 
  512.247,408.111 516.871,411.505 528.206,419.817 532.4,422.899 544.164,431.535 547.914,434.293 560.123,443.267 563.41,445.687 576.082,455.011 578.89,457.081 
  592.041,466.768 594.354,468.475 608,478.538 609.801,479.869 623.959,490.321 625.232,491.263 639.918,502.117 640.648,502.657 655.877,513.925 656.047,514.051 
  671.422,525.445 671.836,525.751 686.779,536.839 687.794,537.592 702.12,548.233 703.753,549.446 717.444,559.627 719.712,561.313 732.753,571.021 735.671,573.192 
  748.046,582.416 751.63,585.085 763.324,593.81 767.589,596.99 778.586,605.204 783.548,608.907 793.832,616.598 799.507,620.838 809.063,627.992 815.466,632.781 
  824.279,639.386 831.424,644.736 839.48,650.78 847.383,656.705 854.666,662.174 863.342,668.686 869.836,673.568 879.301,680.679 884.992,684.962 895.26,692.685 
  900.133,696.356 911.219,704.703 915.259,707.75 927.178,716.734 930.37,719.144 943.137,728.777 945.467,730.538 959.096,740.833 960.549,741.932 975.054,752.901 
  975.617,753.327 990.664,764.721 991.013,764.985 1005.69,776.115 1006.97,777.089 1020.69,787.509 1022.93,789.206 1035.69,798.903 1038.89,801.335 1050.67,810.297 
  1054.85,813.476 1065.63,821.691 1070.81,825.63 1080.58,833.085 1086.77,837.796 1095.52,844.479 1102.73,849.974 1110.45,855.873 1118.68,862.164 1125.35,867.267 
  1134.64,874.367 1140.25,878.661 1150.6,886.582 1155.13,890.055 1166.56,898.809 1170,901.449 1182.52,911.049 1184.86,912.843 1198.48,923.3 1199.7,924.238 
  1214.44,935.564 1214.53,935.632 1229.32,947.026 1230.4,947.853 1244.1,958.42 1246.36,960.156 1258.87,969.814 1262.31,972.47 1273.62,981.208 1278.27,984.797 
  1288.37,992.602 1294.23,997.136 1303.09,1004 1310.19,1009.49 1317.81,1015.39 1326.15,1021.85 1332.51,1026.78 1342.11,1034.23 1347.2,1038.18 1358.07,1046.61 
  1361.88,1049.57 1374.03,1059.01 1376.54,1060.97 1389.99,1071.42 1391.19,1072.36 1405.83,1083.75 1405.94,1083.85 1420.43,1095.15 1421.9,1096.3 1435.02,1106.54 
  1437.86,1108.76 1449.59,1117.94 1453.82,1121.24 1464.16,1129.33 1469.78,1133.73 1478.71,1140.72 1485.74,1146.23 1493.25,1152.12 1501.7,1158.74 1507.78,1163.51 
  1517.66,1171.27 1522.29,1174.91 1533.62,1183.8 1536.79,1186.3 1549.57,1196.35 1551.28,1197.7 1565.53,1208.91 1565.76,1209.09 1580.21,1220.48 1581.49,1221.5 
  1594.64,1231.88 1597.45,1234.1 1609.05,1243.27 1613.41,1246.71 1623.46,1254.67 1629.37,1259.34 1637.85,1266.06 1645.33,1271.98 1652.23,1277.45 1661.29,1284.63 
  1666.6,1288.85 1677.25,1297.29 1680.96,1300.24 1693.2,1309.97 1695.3,1311.64 1709.16,1322.65 1709.64,1323.03 1723.94,1334.42 1725.12,1335.37 1738.22,1345.82 
  
  "/>
<polyline clip-path="url(#clip782)" style="stroke:#3b0964; stroke-width:4; stroke-opacity:1; fill:none" points="
  1942.97,1345.82 1932.59,1337.54 1928.68,1334.42 1916.63,1324.82 1914.38,1323.03 1900.67,1312.12 1900.07,1311.64 1885.73,1300.24 1884.71,1299.43 1871.38,1288.85 
  1868.75,1286.76 1857.02,1277.45 1852.79,1274.1 1842.65,1266.06 1836.83,1261.45 1828.27,1254.67 1820.88,1248.81 1813.88,1243.27 1804.92,1236.18 1799.48,1231.88 
  1788.96,1223.55 1785.07,1220.48 1773,1210.94 1770.65,1209.09 1757.04,1198.34 1756.22,1197.7 1741.78,1186.3 1741.08,1185.75 1727.31,1174.91 1725.12,1173.19 
  1712.83,1163.51 1709.16,1160.63 1698.34,1152.12 1693.2,1148.08 1683.84,1140.72 1677.25,1135.54 1669.33,1129.33 1661.29,1123.02 1654.81,1117.94 1645.33,1110.5 
  1640.28,1106.54 1629.37,1097.99 1625.74,1095.15 1613.41,1085.49 1611.19,1083.75 1597.45,1073 1596.63,1072.36 1582.05,1060.97 1581.49,1060.53 1567.46,1049.57 
  1565.53,1048.07 1552.85,1038.18 1549.57,1035.63 1538.23,1026.78 1533.62,1023.19 1523.59,1015.39 1517.66,1010.76 1508.95,1004 1501.7,998.349 1494.3,992.602 
  1485.74,985.942 1479.64,981.208 1469.78,973.546 1464.97,969.814 1453.82,961.159 1450.29,958.42 1437.86,948.783 1435.59,947.026 1421.9,936.416 1420.89,935.632 
  1406.17,924.238 1405.94,924.061 1391.43,912.843 1389.99,911.727 1376.68,901.449 1374.03,899.403 1361.91,890.055 1358.07,887.088 1347.14,878.661 1342.11,874.783 
  1332.35,867.267 1326.15,862.488 1317.55,855.873 1310.19,850.203 1302.75,844.479 1294.23,837.928 1287.93,833.085 1278.27,825.663 1273.1,821.691 1262.31,813.408 
  1258.26,810.297 1246.36,801.163 1243.41,798.903 1230.4,788.928 1228.54,787.509 1214.44,776.703 1213.67,776.115 1198.78,764.721 1198.48,764.491 1183.87,753.327 
  1182.52,752.297 1168.94,741.932 1166.56,740.113 1154.01,730.538 1150.6,727.938 1139.06,719.144 1134.64,715.774 1124.11,707.75 1118.68,703.62 1109.14,696.356 
  1102.73,691.476 1094.16,684.962 1086.77,679.341 1079.16,673.568 1070.81,667.217 1064.16,662.174 1054.85,655.103 1049.15,650.78 1038.89,642.999 1034.12,639.386 
  1022.93,630.906 1019.08,627.992 1006.97,618.822 1004.03,616.598 991.013,606.749 988.968,605.204 975.054,594.686 973.894,593.81 959.096,582.633 958.808,582.416 
  943.701,571.021 943.137,570.595 928.579,559.627 927.178,558.571 913.444,548.233 911.219,546.557 898.297,536.839 895.26,534.554 883.138,525.445 879.301,522.56 
  867.967,514.051 863.342,510.577 852.784,502.657 847.383,498.604 837.588,491.263 831.424,486.641 822.38,479.869 815.466,474.688 807.16,468.475 799.507,462.746 
  791.927,457.081 783.548,450.814 776.682,445.687 767.589,438.892 761.424,434.293 751.63,426.981 746.154,422.899 735.671,415.08 730.87,411.505 719.712,403.189 
  715.574,400.111 703.753,391.309 700.266,388.716 687.794,379.439 684.944,377.322 671.836,367.58 669.61,365.928 655.877,355.731 654.262,354.534 639.918,343.893 
  638.902,343.14 623.959,332.065 623.528,331.746 608.139,320.352 608,320.249 592.731,308.958 592.041,308.448 577.309,297.564 576.082,296.657 561.874,286.17 
  560.123,284.876 546.427,274.776 544.164,273.107 530.965,263.382 528.206,261.347 515.491,251.988 512.247,249.598 500.003,240.594 496.288,237.86 484.501,229.2 
  480.329,226.132 468.986,217.805 464.37,214.415 453.458,206.411 
  "/>
<polyline clip-path="url(#clip782)" style="stroke:#550f6d; stroke-width:4; stroke-opacity:1; fill:none" points="
  634.342,206.411 639.918,210.547 649.689,217.805 655.877,222.398 665.026,229.2 671.836,234.259 680.351,240.594 687.794,246.128 695.666,251.988 703.753,258.006 
  710.969,263.382 719.712,269.893 726.261,274.776 735.671,281.789 741.542,286.17 751.63,293.694 756.812,297.564 767.589,305.608 772.072,308.958 783.548,317.53 
  787.32,320.352 799.507,329.462 802.558,331.746 815.466,341.403 817.785,343.14 831.424,353.352 833.001,354.534 847.383,365.311 848.206,365.928 863.342,377.278 
  863.401,377.322 878.576,388.716 879.301,389.26 893.74,400.111 895.26,401.252 908.893,411.505 911.219,413.253 924.036,422.899 927.178,425.262 939.168,434.293 
  943.137,437.28 954.289,445.687 959.096,449.308 969.4,457.081 975.054,461.344 984.501,468.475 991.013,473.389 999.591,479.869 1006.97,485.442 1014.67,491.263 
  1022.93,497.505 1029.74,502.657 1038.89,509.576 1044.8,514.051 1054.85,521.656 1059.85,525.445 1070.81,533.745 1074.89,536.839 1086.77,545.843 1089.92,548.233 
  1102.73,557.949 1104.94,559.627 1118.68,570.064 1119.94,571.021 1134.64,582.188 1134.94,582.416 1149.92,593.81 1150.6,594.326 1164.89,605.204 1166.56,606.476 
  1179.85,616.598 1182.52,618.634 1194.79,627.992 1198.48,630.801 1209.73,639.386 1214.44,642.977 1224.66,650.78 1230.4,655.162 1239.57,662.174 1246.36,667.355 
  1254.48,673.568 1262.31,679.557 1269.38,684.962 1278.27,691.768 1284.26,696.356 1294.23,703.987 1299.14,707.75 1310.19,716.215 1314.01,719.144 1326.15,728.451 
  1328.87,730.538 1342.11,740.696 1343.72,741.932 1358.07,752.95 1358.56,753.327 1373.38,764.721 1374.03,765.218 1388.19,776.115 1389.99,777.499 1402.98,787.509 
  1405.94,789.789 1417.77,798.903 1421.9,802.087 1432.55,810.297 1437.86,814.394 1447.32,821.691 1453.82,826.709 1462.08,833.085 1469.78,839.033 1476.83,844.479 
  1485.74,851.365 1491.57,855.873 1501.7,863.707 1506.3,867.267 1517.66,876.056 1521.02,878.661 1533.62,888.414 1535.73,890.055 1549.57,900.781 1550.44,901.449 
  1565.13,912.843 1565.53,913.16 1579.8,924.238 1581.49,925.555 1594.46,935.632 1597.45,937.958 1609.11,947.026 1613.41,950.371 1623.75,958.42 1629.37,962.791 
  1638.38,969.814 1645.33,975.221 1653.01,981.208 1661.29,987.658 1667.62,992.602 1677.25,1000.1 1682.23,1004 1693.2,1012.56 1696.83,1015.39 1709.16,1025.02 
  1711.42,1026.78 1725.12,1037.49 1726,1038.18 1740.56,1049.57 1741.08,1049.98 1755.11,1060.97 1757.04,1062.48 1769.64,1072.36 1773,1074.99 1784.17,1083.75 
  1788.96,1087.51 1798.69,1095.15 1804.92,1100.03 1813.2,1106.54 1820.88,1112.57 1827.7,1117.94 1836.83,1125.11 1842.2,1129.33 1852.79,1137.66 1856.68,1140.72 
  1868.75,1150.22 1871.16,1152.12 1884.71,1162.79 1885.63,1163.51 1900.08,1174.91 1900.67,1175.37 1914.51,1186.3 1916.63,1187.97 1928.93,1197.7 1932.59,1200.58 
  1943.35,1209.09 1948.55,1213.2 
  "/>
<polyline clip-path="url(#clip782)" style="stroke:#6e186e; stroke-width:4; stroke-opacity:1; fill:none" points="
  1948.55,1093.21 1936.51,1083.75 1932.59,1080.68 1921.99,1072.36 1916.63,1068.15 1907.48,1060.97 1900.67,1055.63 1892.95,1049.57 1884.71,1043.11 1878.41,1038.18 
  1868.75,1030.61 1863.87,1026.78 1852.79,1018.11 1849.32,1015.39 1836.83,1005.62 1834.76,1004 1820.88,993.132 1820.2,992.602 1805.62,981.208 1804.92,980.662 
  1791.02,969.814 1788.96,968.204 1776.41,958.42 1773,955.755 1761.8,947.026 1757.04,943.313 1747.18,935.632 1741.08,930.878 1732.55,924.238 1725.12,918.451 
  1717.91,912.843 1709.16,906.032 1703.27,901.449 1693.2,893.62 1688.62,890.055 1677.25,881.216 1673.96,878.661 1661.29,868.82 1659.29,867.267 1645.33,856.431 
  1644.61,855.873 1629.92,844.479 1629.37,844.054 1615.21,833.085 1613.41,831.691 1600.49,821.691 1597.45,819.335 1585.77,810.297 1581.49,806.987 1571.04,798.903 
  1565.53,794.646 1556.3,787.509 1549.57,782.313 1541.55,776.115 1533.62,769.988 1526.79,764.721 1517.66,757.671 1512.02,753.327 1501.7,745.361 1497.25,741.932 
  1485.74,733.059 1482.47,730.538 1469.78,720.764 1467.68,719.144 1453.82,708.477 1452.88,707.75 1438.07,696.356 1437.86,696.2 1423.24,684.962 1421.9,683.937 
  1408.4,673.568 1405.94,671.683 1393.55,662.174 1389.99,659.436 1378.7,650.78 1374.03,647.197 1363.83,639.386 1358.07,634.965 1348.96,627.992 1342.11,622.741 
  1334.08,616.598 1326.15,610.525 1319.19,605.204 1310.19,598.317 1304.29,593.81 1294.23,586.116 1289.39,582.416 1278.27,573.923 1274.47,571.021 1262.31,561.738 
  1259.55,559.627 1246.36,549.561 1244.61,548.233 1230.4,537.391 1229.67,536.839 1214.72,525.445 1214.44,525.232 1199.75,514.051 1198.48,513.086 1184.77,502.657 
  1182.52,500.948 1169.78,491.263 1166.56,488.817 1154.78,479.869 1150.6,476.694 1139.77,468.475 1134.64,464.58 1124.76,457.081 1118.68,452.472 1109.73,445.687 
  1102.73,440.373 1094.7,434.293 1086.77,428.282 1079.66,422.899 1070.81,416.198 1064.6,411.505 1054.85,404.122 1049.54,400.111 1038.89,392.054 1034.47,388.716 
  1022.93,379.995 1019.39,377.322 1006.97,367.942 1004.3,365.928 991.013,355.898 989.204,354.534 975.054,343.862 974.096,343.14 959.096,331.834 958.979,331.746 
  943.845,320.352 943.137,319.819 928.7,308.958 927.178,307.813 913.545,297.564 911.219,295.814 898.381,286.17 895.26,283.824 883.208,274.776 879.301,271.841 
  868.025,263.382 863.342,259.867 852.832,251.988 847.383,247.9 837.631,240.594 831.424,235.942 822.419,229.2 815.466,223.991 807.198,217.805 799.507,212.048 
  791.967,206.411 
  "/>
<polyline clip-path="url(#clip782)" style="stroke:#88216a; stroke-width:4; stroke-opacity:1; fill:none" points="
  933.511,206.411 943.137,213.65 948.658,217.805 959.096,225.659 963.796,229.2 975.054,237.676 978.925,240.594 991.013,249.7 994.046,251.988 1006.97,261.732 
  1009.16,263.382 1022.93,273.77 1024.26,274.776 1038.89,285.816 1039.36,286.17 1054.44,297.564 1054.85,297.872 1069.51,308.958 1070.81,309.938 1084.57,320.352 
  1086.77,322.012 1099.63,331.746 1102.73,334.092 1114.67,343.14 1118.68,346.18 1129.71,354.534 1134.64,358.275 1144.73,365.928 1150.6,370.377 1159.75,377.322 
  1166.56,382.487 1174.76,388.716 1182.52,394.603 1189.77,400.111 1198.48,406.727 1204.76,411.505 1214.44,418.858 1219.75,422.899 1230.4,430.995 1234.73,434.293 
  1246.36,443.14 1249.7,445.687 1262.31,455.292 1264.66,457.081 1278.27,467.452 1279.62,468.475 1294.23,479.618 1294.56,479.869 1309.49,491.263 1310.19,491.796 
  1324.41,502.657 1326.15,503.984 1339.32,514.051 1342.11,516.179 1354.23,525.445 1358.07,528.381 1369.12,536.839 1374.03,540.59 1384.01,548.233 1389.99,552.806 
  1398.89,559.627 1405.94,565.029 1413.76,571.021 1421.9,577.259 1428.63,582.416 1437.86,589.497 1443.48,593.81 1453.82,601.741 1458.33,605.204 1469.78,613.992 
  1473.17,616.598 1485.74,626.251 1488,627.992 1501.7,638.516 1502.83,639.386 1517.65,650.78 1517.66,650.789 1532.44,662.174 1533.62,663.076 1547.23,673.568 
  1549.57,675.371 1562.02,684.962 1565.53,687.673 1576.79,696.356 1581.49,699.982 1591.56,707.75 1597.45,712.298 1606.32,719.144 1613.41,724.621 1621.07,730.538 
  1629.37,736.951 1635.81,741.932 1645.33,749.287 1650.55,753.327 1661.29,761.631 1665.28,764.721 1677.25,773.982 1680,776.115 1693.2,786.34 1694.71,787.509 
  1709.16,798.705 1709.42,798.903 1724.11,810.297 1725.12,811.084 1738.79,821.691 1741.08,823.472 1753.46,833.085 1757.04,835.866 1768.12,844.479 1773,848.268 
  1782.78,855.873 1788.96,860.677 1797.43,867.267 1804.92,873.093 1812.07,878.661 1820.88,885.515 1826.7,890.055 1836.83,897.945 1841.33,901.449 1852.79,910.382 
  1855.95,912.843 1868.75,922.825 1870.56,924.238 1884.71,935.275 1885.17,935.632 1899.76,947.026 1900.67,947.739 1914.33,958.42 1916.63,960.214 1928.9,969.814 
  1932.59,972.695 1943.47,981.208 1948.55,985.183 
  "/>
<polyline clip-path="url(#clip782)" style="stroke:#a12b61; stroke-width:4; stroke-opacity:1; fill:none" points="
  1948.55,886.109 1938.99,878.661 1932.59,873.665 1924.38,867.267 1916.63,861.228 1909.75,855.873 1900.67,848.797 1895.12,844.479 1884.71,836.373 1880.48,833.085 
  1868.75,823.955 1865.84,821.691 1852.79,811.543 1851.19,810.297 1836.83,799.138 1836.53,798.903 1821.86,787.509 1820.88,786.746 1807.17,776.115 1804.92,774.363 
  1792.48,764.721 1788.96,761.985 1777.79,753.327 1773,749.615 1763.08,741.932 1757.04,737.251 1748.37,730.538 1741.08,724.893 1733.65,719.144 1725.12,712.542 
  1718.93,707.75 1709.16,700.197 1704.19,696.356 1693.2,687.858 1689.46,684.962 1677.25,675.526 1674.71,673.568 1661.29,663.201 1659.96,662.174 1645.33,650.882 
  1645.2,650.78 1630.42,639.386 1629.37,638.577 1615.63,627.992 1613.41,626.279 1600.84,616.598 1597.45,613.987 1586.04,605.204 1581.49,601.703 1571.23,593.81 
  1565.53,589.424 1556.42,582.416 1549.57,577.152 1541.6,571.021 1533.62,564.887 1526.77,559.627 1517.66,552.628 1511.93,548.233 1501.7,540.375 1497.09,536.839 
  1485.74,528.129 1482.24,525.445 1469.78,515.89 1467.38,514.051 1453.82,503.657 1452.52,502.657 1437.86,491.431 1437.64,491.263 1422.76,479.869 1421.9,479.217 
  1407.86,468.475 1405.94,467.011 1392.95,457.081 1389.99,454.811 1378.04,445.687 1374.03,442.618 1363.12,434.293 1358.07,430.432 1348.2,422.899 1342.11,418.252 
  1333.26,411.505 1326.15,406.078 1318.32,400.111 1310.19,393.912 1303.37,388.716 1294.23,381.751 1288.41,377.322 1278.27,369.598 1273.45,365.928 1262.31,357.451 
  1258.48,354.534 1246.36,345.31 1243.5,343.14 1230.4,333.177 1228.51,331.746 1214.44,321.049 1213.52,320.352 1198.52,308.958 1198.48,308.929 1183.5,297.564 
  1182.52,296.822 1168.47,286.17 1166.56,284.72 1153.44,274.776 1150.6,272.626 1138.4,263.382 1134.64,260.538 1123.35,251.988 1118.68,248.457 1108.29,240.594 
  1102.73,236.382 1093.23,229.2 1086.77,224.314 1078.15,217.805 1070.81,212.253 1063.07,206.411 
  "/>
<polyline clip-path="url(#clip782)" style="stroke:#ba3655; stroke-width:4; stroke-opacity:1; fill:none" points="
  1183.28,206.411 1198.31,217.805 1198.48,217.935 1213.33,229.2 1214.44,230.044 1228.33,240.594 1230.4,242.159 1243.34,251.988 1246.36,254.28 1258.33,263.382 
  1262.31,266.408 1273.32,274.776 1278.27,278.541 1288.3,286.17 1294.23,290.681 1303.27,297.564 1310.19,302.827 1318.24,308.958 1326.15,314.98 1333.2,320.352 
  1342.11,327.138 1348.15,331.746 1358.07,339.303 1363.1,343.14 1374.03,351.473 1378.04,354.534 1389.99,363.65 1392.97,365.928 1405.94,375.833 1407.89,377.322 
  1421.9,388.022 1422.81,388.716 1437.72,400.111 1437.86,400.218 1452.62,411.505 1453.82,412.426 1467.5,422.899 1469.78,424.64 1482.38,434.293 1485.74,436.86 
  1497.26,445.687 1501.7,449.087 1512.13,457.081 1517.66,461.319 1526.99,468.475 1533.62,473.558 1541.84,479.869 1549.57,485.802 1556.69,491.263 1565.53,498.053 
  1571.53,502.657 1581.49,510.31 1586.36,514.051 1597.45,522.573 1601.19,525.445 1613.41,534.842 1616.01,536.839 1629.37,547.117 1630.82,548.233 1645.33,559.398 
  1645.63,559.627 1660.42,571.021 1661.29,571.691 1675.2,582.416 1677.25,583.991 1689.98,593.81 1693.2,596.298 1704.75,605.204 1709.16,608.611 1719.51,616.598 
  1725.12,620.929 1734.27,627.992 1741.08,633.254 1749.02,639.386 1757.04,645.585 1763.76,650.78 1773,657.922 1778.5,662.174 1788.96,670.265 1793.23,673.568 
  1804.92,682.614 1807.95,684.962 1820.88,694.969 1822.67,696.356 1836.83,707.33 1837.38,707.75 1852.07,719.144 1852.79,719.702 1866.76,730.538 1868.75,732.083 
  1881.44,741.932 1884.71,744.47 1896.11,753.327 1900.67,756.864 1910.78,764.721 1916.63,769.263 1925.44,776.115 1932.59,781.668 1940.1,787.509 1948.55,794.079 
  
  "/>
<polyline clip-path="url(#clip782)" style="stroke:#d04544; stroke-width:4; stroke-opacity:1; fill:none" points="
  1948.55,707.764 1948.53,707.75 1933.84,696.356 1932.59,695.383 1919.15,684.962 1916.63,683.008 1904.45,673.568 1900.67,670.638 1889.74,662.174 1884.71,658.275 
  1875.03,650.78 1868.75,645.916 1860.31,639.386 1852.79,633.564 1845.59,627.992 1836.83,621.217 1830.86,616.598 1820.88,608.877 1816.12,605.204 1804.92,596.541 
  1801.38,593.81 1788.96,584.212 1786.63,582.416 1773,571.888 1771.88,571.021 1757.11,559.627 1757.04,559.57 1742.34,548.233 1741.08,547.265 1727.55,536.839 
  1725.12,534.965 1712.76,525.445 1709.16,522.672 1697.97,514.051 1693.2,510.383 1683.16,502.657 1677.25,498.101 1668.36,491.263 1661.29,485.824 1653.54,479.869 
  1645.33,473.553 1638.72,468.475 1629.37,461.288 1623.89,457.081 1613.41,449.029 1609.06,445.687 1597.45,436.775 1594.22,434.293 1581.49,424.527 1579.37,422.899 
  1565.53,412.285 1564.52,411.505 1549.66,400.111 1549.57,400.049 1534.78,388.716 1533.62,387.824 1519.9,377.322 1517.66,375.606 1505.01,365.928 1501.7,363.393 
  1490.11,354.534 1485.74,351.186 1475.21,343.14 1469.78,338.985 1460.31,331.746 1453.82,326.79 1445.39,320.352 1437.86,314.6 1430.47,308.958 1421.9,302.416 
  1415.54,297.564 1405.94,290.238 1400.61,286.17 1389.99,278.066 1385.67,274.776 1374.03,265.899 1370.72,263.382 1358.07,253.738 1355.77,251.988 1342.11,241.584 
  1340.81,240.594 1326.15,229.435 1325.84,229.2 1310.86,217.805 1310.19,217.295 1295.87,206.411 
  "/>
<polyline clip-path="url(#clip782)" style="stroke:#e35832; stroke-width:4; stroke-opacity:1; fill:none" points="
  1402.15,206.411 1405.94,209.299 1417.1,217.805 1421.9,221.466 1432.04,229.2 1437.86,233.638 1446.98,240.594 1453.82,245.816 1461.9,251.988 1469.78,257.999 
  1476.83,263.382 1485.74,270.187 1491.74,274.776 1501.7,282.381 1506.65,286.17 1517.66,294.581 1521.56,297.564 1533.62,306.786 1536.45,308.958 1549.57,318.996 
  1551.35,320.352 1565.53,331.212 1566.23,331.746 1581.11,343.14 1581.49,343.436 1595.97,354.534 1597.45,355.669 1610.83,365.928 1613.41,367.907 1625.68,377.322 
  1629.37,380.151 1640.53,388.716 1645.33,392.4 1655.37,400.111 1661.29,404.655 1670.2,411.505 1677.25,416.915 1685.03,422.899 1693.2,429.181 1699.85,434.293 
  1709.16,441.452 1714.67,445.687 1725.12,453.729 1729.48,457.081 1741.08,466.011 1744.28,468.475 1757.04,478.298 1759.08,479.869 1773,490.591 1773.87,491.263 
  1788.65,502.657 1788.96,502.891 1803.43,514.051 1804.92,515.201 1818.19,525.445 1820.88,527.517 1832.95,536.839 1836.83,539.838 1847.7,548.233 1852.79,552.165 
  1862.45,559.627 1868.75,564.497 1877.19,571.021 1884.71,576.834 1891.93,582.416 1900.67,589.177 1906.66,593.81 1916.63,601.525 1921.38,605.204 1932.59,613.879 
  1936.1,616.598 1948.55,626.238 
  "/>
<polyline clip-path="url(#clip782)" style="stroke:#f0701e; stroke-width:4; stroke-opacity:1; fill:none" points="
  1948.55,548.763 1947.86,548.233 1933.13,536.839 1932.59,536.421 1918.38,525.445 1916.63,524.088 1903.63,514.051 1900.67,511.76 1888.88,502.657 1884.71,499.438 
  1874.12,491.263 1868.75,487.12 1859.35,479.869 1852.79,474.808 1844.58,468.475 1836.83,462.501 1829.8,457.081 1820.88,450.199 1815.02,445.687 1804.92,437.902 
  1800.23,434.293 1788.96,425.61 1785.43,422.899 1773,413.324 1770.63,411.505 1757.04,401.043 1755.83,400.111 1741.08,388.767 1741.02,388.716 1726.19,377.322 
  1725.12,376.501 1711.36,365.928 1709.16,364.242 1696.52,354.534 1693.2,351.987 1681.68,343.14 1677.25,339.738 1666.83,331.746 1661.29,327.494 1651.97,320.352 
  1645.33,315.255 1637.11,308.958 1629.37,303.022 1622.24,297.564 1613.41,290.793 1607.37,286.17 1597.45,278.57 1592.49,274.776 1581.49,266.352 1577.61,263.382 
  1565.53,254.139 1562.72,251.988 1549.57,241.932 1547.82,240.594 1533.62,229.73 1532.92,229.2 1518.01,217.805 1517.66,217.534 1503.09,206.411 
  "/>
<polyline clip-path="url(#clip782)" style="stroke:#f98c09; stroke-width:4; stroke-opacity:1; fill:none" points="
  1599.4,206.411 1613.41,217.13 1614.29,217.805 1629.18,229.2 1629.37,229.344 1644.06,240.594 1645.33,241.568 1658.92,251.988 1661.29,253.797 1673.79,263.382 
  1677.25,266.031 1688.65,274.776 1693.2,278.27 1703.5,286.17 1709.16,290.513 1718.35,297.564 1725.12,302.762 1733.19,308.958 1741.08,315.016 1748.03,320.352 
  1757.04,327.274 1762.86,331.746 1773,339.538 1777.68,343.14 1788.96,351.807 1792.5,354.534 1804.92,364.08 1807.32,365.928 1820.88,376.359 1822.13,377.322 
  1836.83,388.642 1836.93,388.716 1851.72,400.111 1852.79,400.936 1866.51,411.505 1868.75,413.235 1881.28,422.899 1884.71,425.54 1896.06,434.293 1900.67,437.849 
  1910.83,445.687 1916.63,450.163 1925.59,457.081 1932.59,462.483 1940.35,468.475 1948.55,474.807 
  "/>
<polyline clip-path="url(#clip782)" style="stroke:#fbaa0e; stroke-width:4; stroke-opacity:1; fill:none" points="
  1948.55,403.912 1943.62,400.111 1932.59,391.601 1928.85,388.716 1916.63,379.296 1914.07,377.322 1900.67,366.995 1899.29,365.928 1884.71,354.699 1884.5,354.534 
  1869.7,343.14 1868.75,342.413 1854.89,331.746 1852.79,330.132 1840.08,320.352 1836.83,317.856 1825.26,308.958 1820.88,305.585 1810.44,297.564 1804.92,293.318 
  1795.61,286.17 1788.96,281.056 1780.78,274.776 1773,268.8 1765.94,263.382 1757.04,256.547 1751.1,251.988 1741.08,244.3 1736.25,240.594 1725.12,232.058 
  1721.39,229.2 1709.16,219.82 1706.53,217.805 1693.2,207.587 1691.67,206.411 
  "/>
<polyline clip-path="url(#clip782)" style="stroke:#f8c931; stroke-width:4; stroke-opacity:1; fill:none" points="
  1780.36,206.411 1788.96,213.005 1795.21,217.805 1804.92,225.255 1810.05,229.2 1820.88,237.509 1824.89,240.594 1836.83,249.768 1839.72,251.988 1852.79,262.032 
  1854.55,263.382 1868.75,274.3 1869.37,274.776 1884.18,286.17 1884.71,286.576 1898.99,297.564 1900.67,298.859 1913.79,308.958 1916.63,311.146 1928.58,320.352 
  1932.59,323.438 1943.37,331.746 1948.55,335.735 
  "/>
<polyline clip-path="url(#clip782)" style="stroke:#f1e864; stroke-width:4; stroke-opacity:1; fill:none" points="
  1948.55,269.985 1939.97,263.382 1932.59,257.702 1925.16,251.988 1916.63,245.423 1910.35,240.594 1900.67,233.148 1895.53,229.2 1884.71,220.878 1880.71,217.805 
  1868.75,208.613 1865.89,206.411 
  "/>
<defs>
  <clipPath id="clip783">
    <rect x="2160" y="62" width="73" height="1355"/>
  </clipPath>
</defs>
<polyline clip-path="url(#clip783)" style="stroke:#0a0723; stroke-width:4; stroke-opacity:1; fill:none" points="
  2160.76,1332.15 2232.76,1332.15 
  "/>
<polyline clip-path="url(#clip783)" style="stroke:#200c4a; stroke-width:4; stroke-opacity:1; fill:none" points="
  2160.76,1247.54 2232.76,1247.54 
  "/>
<polyline clip-path="url(#clip783)" style="stroke:#3c0965; stroke-width:4; stroke-opacity:1; fill:none" points="
  2160.76,1162.93 2232.76,1162.93 
  "/>
<polyline clip-path="url(#clip783)" style="stroke:#570f6d; stroke-width:4; stroke-opacity:1; fill:none" points="
  2160.76,1078.31 2232.76,1078.31 
  "/>
<polyline clip-path="url(#clip783)" style="stroke:#70196e; stroke-width:4; stroke-opacity:1; fill:none" points="
  2160.76,993.705 2232.76,993.705 
  "/>
<polyline clip-path="url(#clip783)" style="stroke:#892269; stroke-width:4; stroke-opacity:1; fill:none" points="
  2160.76,909.094 2232.76,909.094 
  "/>
<polyline clip-path="url(#clip783)" style="stroke:#a32b61; stroke-width:4; stroke-opacity:1; fill:none" points="
  2160.76,824.484 2232.76,824.484 
  "/>
<polyline clip-path="url(#clip783)" style="stroke:#bb3754; stroke-width:4; stroke-opacity:1; fill:none" points="
  2160.76,739.874 2232.76,739.874 
  "/>
<polyline clip-path="url(#clip783)" style="stroke:#d04544; stroke-width:4; stroke-opacity:1; fill:none" points="
  2160.76,655.264 2232.76,655.264 
  "/>
<polyline clip-path="url(#clip783)" style="stroke:#e35832; stroke-width:4; stroke-opacity:1; fill:none" points="
  2160.76,570.654 2232.76,570.654 
  "/>
<polyline clip-path="url(#clip783)" style="stroke:#f0701e; stroke-width:4; stroke-opacity:1; fill:none" points="
  2160.76,486.043 2232.76,486.043 
  "/>
<polyline clip-path="url(#clip783)" style="stroke:#f98c09; stroke-width:4; stroke-opacity:1; fill:none" points="
  2160.76,401.433 2232.76,401.433 
  "/>
<polyline clip-path="url(#clip783)" style="stroke:#fbaa0e; stroke-width:4; stroke-opacity:1; fill:none" points="
  2160.76,316.823 2232.76,316.823 
  "/>
<polyline clip-path="url(#clip783)" style="stroke:#f8c931; stroke-width:4; stroke-opacity:1; fill:none" points="
  2160.76,232.213 2232.76,232.213 
  "/>
<polyline clip-path="url(#clip783)" style="stroke:#f1e864; stroke-width:4; stroke-opacity:1; fill:none" points="
  2160.76,147.602 2232.76,147.602 
  "/>
<g clip-path="url(#clip780)">
<text style="fill:#000000; fill-opacity:1; font-family:Arial,Helvetica Neue,Helvetica,sans-serif; font-size:48px; text-anchor:start;" transform="rotate(0, 2268.76, 1369.42)" x="2268.76" y="1369.42">0</text>
</g>
<g clip-path="url(#clip780)">
<text style="fill:#000000; fill-opacity:1; font-family:Arial,Helvetica Neue,Helvetica,sans-serif; font-size:48px; text-anchor:start;" transform="rotate(0, 2268.76, 1147.28)" x="2268.76" y="1147.28">50</text>
</g>
<g clip-path="url(#clip780)">
<text style="fill:#000000; fill-opacity:1; font-family:Arial,Helvetica Neue,Helvetica,sans-serif; font-size:48px; text-anchor:start;" transform="rotate(0, 2268.76, 925.127)" x="2268.76" y="925.127">100</text>
</g>
<g clip-path="url(#clip780)">
<text style="fill:#000000; fill-opacity:1; font-family:Arial,Helvetica Neue,Helvetica,sans-serif; font-size:48px; text-anchor:start;" transform="rotate(0, 2268.76, 702.979)" x="2268.76" y="702.979">150</text>
</g>
<g clip-path="url(#clip780)">
<text style="fill:#000000; fill-opacity:1; font-family:Arial,Helvetica Neue,Helvetica,sans-serif; font-size:48px; text-anchor:start;" transform="rotate(0, 2268.76, 480.83)" x="2268.76" y="480.83">200</text>
</g>
<g clip-path="url(#clip780)">
<text style="fill:#000000; fill-opacity:1; font-family:Arial,Helvetica Neue,Helvetica,sans-serif; font-size:48px; text-anchor:start;" transform="rotate(0, 2268.76, 258.682)" x="2268.76" y="258.682">250</text>
</g>
<polyline clip-path="url(#clip780)" style="stroke:#000000; stroke-width:4; stroke-opacity:1; fill:none" points="
  2232.76,1416.76 2232.76,1355.77 2256.76,1355.77 2232.76,1355.77 2232.76,1133.62 2256.76,1133.62 2232.76,1133.62 2232.76,911.476 2256.76,911.476 2232.76,911.476 
  2232.76,689.328 2256.76,689.328 2232.76,689.328 2232.76,467.179 2256.76,467.179 2232.76,467.179 2232.76,245.031 2256.76,245.031 2232.76,245.031 2232.76,62.9921 
  
  "/>
<path clip-path="url(#clip780)" d="
M1784.38 289.558 L2048.71 289.558 L2048.71 108.118 L1784.38 108.118  Z
  " fill="#ffffff" fill-rule="evenodd" fill-opacity="1"/>
<polyline clip-path="url(#clip780)" style="stroke:#000000; stroke-width:4; stroke-opacity:1; fill:none" points="
  1784.38,289.558 2048.71,289.558 2048.71,108.118 1784.38,108.118 1784.38,289.558 
  "/>
<circle clip-path="url(#clip780)" cx="1869.78" cy="168.598" r="23" fill="#009af9" fill-rule="evenodd" fill-opacity="1" stroke="#000000" stroke-opacity="1" stroke-width="5.12"/>
<g clip-path="url(#clip780)">
<text style="fill:#000000; fill-opacity:1; font-family:Arial,Helvetica Neue,Helvetica,sans-serif; font-size:48px; text-anchor:start;" transform="rotate(0, 1955.18, 186.098)" x="1955.18" y="186.098">y1</text>
</g>
<circle clip-path="url(#clip780)" cx="1869.78" cy="229.078" r="23" fill="#e26f46" fill-rule="evenodd" fill-opacity="1" stroke="#000000" stroke-opacity="1" stroke-width="5.12"/>
<g clip-path="url(#clip780)">
<text style="fill:#000000; fill-opacity:1; font-family:Arial,Helvetica Neue,Helvetica,sans-serif; font-size:48px; text-anchor:start;" transform="rotate(0, 1955.18, 246.578)" x="1955.18" y="246.578">y2</text>
</g>
</svg>
