<?xml version="1.0" encoding="utf-8"?>
<svg xmlns="http://www.w3.org/2000/svg" xmlns:xlink="http://www.w3.org/1999/xlink" width="600" height="400" viewBox="0 0 2400 1600">
<defs>
  <clipPath id="clip100">
    <rect x="0" y="0" width="2400" height="1600"/>
  </clipPath>
</defs>
<path clip-path="url(#clip100)" d="
M0 1600 L2400 1600 L2400 0 L0 0  Z
  " fill="#ffffff" fill-rule="evenodd" fill-opacity="1"/>
<defs>
  <clipPath id="clip101">
    <rect x="480" y="0" width="1681" height="1600"/>
  </clipPath>
</defs>
<path clip-path="url(#clip100)" d="
M206.992 1401.01 L2352.76 1401.01 L2352.76 62.9921 L206.992 62.9921  Z
  " fill="#ffffff" fill-rule="evenodd" fill-opacity="1"/>
<defs>
  <clipPath id="clip102">
    <rect x="206" y="62" width="2147" height="1339"/>
  </clipPath>
</defs>
<polyline clip-path="url(#clip102)" style="stroke:#000000; stroke-width:2; stroke-opacity:0.1; fill:none" points="
  206.992,1401.01 206.992,62.9921 
  "/>
<polyline clip-path="url(#clip102)" style="stroke:#000000; stroke-width:2; stroke-opacity:0.1; fill:none" points="
  743.433,1401.01 743.433,62.9921 
  "/>
<polyline clip-path="url(#clip102)" style="stroke:#000000; stroke-width:2; stroke-opacity:0.1; fill:none" points="
  1279.87,1401.01 1279.87,62.9921 
  "/>
<polyline clip-path="url(#clip102)" style="stroke:#000000; stroke-width:2; stroke-opacity:0.1; fill:none" points="
  1816.31,1401.01 1816.31,62.9921 
  "/>
<polyline clip-path="url(#clip102)" style="stroke:#000000; stroke-width:2; stroke-opacity:0.1; fill:none" points="
  2352.76,1401.01 2352.76,62.9921 
  "/>
<polyline clip-path="url(#clip100)" style="stroke:#000000; stroke-width:4; stroke-opacity:1; fill:none" points="
  206.992,1401.01 2352.76,1401.01 
  "/>
<polyline clip-path="url(#clip100)" style="stroke:#000000; stroke-width:4; stroke-opacity:1; fill:none" points="
  206.992,1401.01 206.992,1384.95 
  "/>
<polyline clip-path="url(#clip100)" style="stroke:#000000; stroke-width:4; stroke-opacity:1; fill:none" points="
  743.433,1401.01 743.433,1384.95 
  "/>
<polyline clip-path="url(#clip100)" style="stroke:#000000; stroke-width:4; stroke-opacity:1; fill:none" points="
  1279.87,1401.01 1279.87,1384.95 
  "/>
<polyline clip-path="url(#clip100)" style="stroke:#000000; stroke-width:4; stroke-opacity:1; fill:none" points="
  1816.31,1401.01 1816.31,1384.95 
  "/>
<polyline clip-path="url(#clip100)" style="stroke:#000000; stroke-width:4; stroke-opacity:1; fill:none" points="
  2352.76,1401.01 2352.76,1384.95 
  "/>
<g clip-path="url(#clip100)">
<text style="fill:#000000; fill-opacity:1; font-family:Arial,Helvetica Neue,Helvetica,sans-serif; font-size:48px; text-anchor:middle;" transform="rotate(0, 206.992, 1462.21)" x="206.992" y="1462.21">−10</text>
</g>
<g clip-path="url(#clip100)">
<text style="fill:#000000; fill-opacity:1; font-family:Arial,Helvetica Neue,Helvetica,sans-serif; font-size:48px; text-anchor:middle;" transform="rotate(0, 743.433, 1462.21)" x="743.433" y="1462.21">−5</text>
</g>
<g clip-path="url(#clip100)">
<text style="fill:#000000; fill-opacity:1; font-family:Arial,Helvetica Neue,Helvetica,sans-serif; font-size:48px; text-anchor:middle;" transform="rotate(0, 1279.87, 1462.21)" x="1279.87" y="1462.21">0</text>
</g>
<g clip-path="url(#clip100)">
<text style="fill:#000000; fill-opacity:1; font-family:Arial,Helvetica Neue,Helvetica,sans-serif; font-size:48px; text-anchor:middle;" transform="rotate(0, 1816.31, 1462.21)" x="1816.31" y="1462.21">5</text>
</g>
<g clip-path="url(#clip100)">
<text style="fill:#000000; fill-opacity:1; font-family:Arial,Helvetica Neue,Helvetica,sans-serif; font-size:48px; text-anchor:middle;" transform="rotate(0, 2352.76, 1462.21)" x="2352.76" y="1462.21">10</text>
</g>
<g clip-path="url(#clip100)">
<text style="fill:#000000; fill-opacity:1; font-family:Arial,Helvetica Neue,Helvetica,sans-serif; font-size:66px; text-anchor:middle;" transform="rotate(0, 1279.87, 1534.87)" x="1279.87" y="1534.87">x</text>
</g>
<polyline clip-path="url(#clip102)" style="stroke:#000000; stroke-width:2; stroke-opacity:0.1; fill:none" points="
  206.992,1363.14 2352.76,1363.14 
  "/>
<polyline clip-path="url(#clip102)" style="stroke:#000000; stroke-width:2; stroke-opacity:0.1; fill:none" points="
  206.992,1047.57 2352.76,1047.57 
  "/>
<polyline clip-path="url(#clip102)" style="stroke:#000000; stroke-width:2; stroke-opacity:0.1; fill:none" points="
  206.992,732 2352.76,732 
  "/>
<polyline clip-path="url(#clip102)" style="stroke:#000000; stroke-width:2; stroke-opacity:0.1; fill:none" points="
  206.992,416.43 2352.76,416.43 
  "/>
<polyline clip-path="url(#clip102)" style="stroke:#000000; stroke-width:2; stroke-opacity:0.1; fill:none" points="
  206.992,100.86 2352.76,100.86 
  "/>
<polyline clip-path="url(#clip100)" style="stroke:#000000; stroke-width:4; stroke-opacity:1; fill:none" points="
  206.992,1401.01 206.992,62.9921 
  "/>
<polyline clip-path="url(#clip100)" style="stroke:#000000; stroke-width:4; stroke-opacity:1; fill:none" points="
  206.992,1363.14 232.741,1363.14 
  "/>
<polyline clip-path="url(#clip100)" style="stroke:#000000; stroke-width:4; stroke-opacity:1; fill:none" points="
  206.992,1047.57 232.741,1047.57 
  "/>
<polyline clip-path="url(#clip100)" style="stroke:#000000; stroke-width:4; stroke-opacity:1; fill:none" points="
  206.992,732 232.741,732 
  "/>
<polyline clip-path="url(#clip100)" style="stroke:#000000; stroke-width:4; stroke-opacity:1; fill:none" points="
  206.992,416.43 232.741,416.43 
  "/>
<polyline clip-path="url(#clip100)" style="stroke:#000000; stroke-width:4; stroke-opacity:1; fill:none" points="
  206.992,100.86 232.741,100.86 
  "/>
<g clip-path="url(#clip100)">
<text style="fill:#000000; fill-opacity:1; font-family:Arial,Helvetica Neue,Helvetica,sans-serif; font-size:48px; text-anchor:end;" transform="rotate(0, 170.992, 1380.64)" x="170.992" y="1380.64">0.00</text>
</g>
<g clip-path="url(#clip100)">
<text style="fill:#000000; fill-opacity:1; font-family:Arial,Helvetica Neue,Helvetica,sans-serif; font-size:48px; text-anchor:end;" transform="rotate(0, 170.992, 1065.07)" x="170.992" y="1065.07">0.25</text>
</g>
<g clip-path="url(#clip100)">
<text style="fill:#000000; fill-opacity:1; font-family:Arial,Helvetica Neue,Helvetica,sans-serif; font-size:48px; text-anchor:end;" transform="rotate(0, 170.992, 749.5)" x="170.992" y="749.5">0.50</text>
</g>
<g clip-path="url(#clip100)">
<text style="fill:#000000; fill-opacity:1; font-family:Arial,Helvetica Neue,Helvetica,sans-serif; font-size:48px; text-anchor:end;" transform="rotate(0, 170.992, 433.93)" x="170.992" y="433.93">0.75</text>
</g>
<g clip-path="url(#clip100)">
<text style="fill:#000000; fill-opacity:1; font-family:Arial,Helvetica Neue,Helvetica,sans-serif; font-size:48px; text-anchor:end;" transform="rotate(0, 170.992, 118.36)" x="170.992" y="118.36">1.00</text>
</g>
<g clip-path="url(#clip100)">
<text style="fill:#000000; fill-opacity:1; font-family:Arial,Helvetica Neue,Helvetica,sans-serif; font-size:66px; text-anchor:middle;" transform="rotate(-90, 53.7618, 732)" x="53.7618" y="732">P(Y=1|x)</text>
</g>
<g clip-path="url(#clip100)">
<text style="fill:#000000; fill-opacity:1; font-family:Arial,Helvetica Neue,Helvetica,sans-serif; font-size:84px; text-anchor:middle;" transform="rotate(0, 1279.87, 73.2)" x="1279.87" y="73.2">ロジスティック曲線</text>
</g>
<polyline clip-path="url(#clip102)" style="stroke:#009af9; stroke-width:4; stroke-opacity:1; fill:none" points="
  206.992,732 217.721,732 228.45,732 239.179,732 249.907,732 260.636,732 271.365,732 282.094,732 292.823,732 303.551,732 
  314.28,732 325.009,732 335.738,732 346.467,732 357.196,732 367.924,732 378.653,732 389.382,732 400.111,732 410.84,732 
  421.569,732 432.297,732 443.026,732 453.755,732 464.484,732 475.213,732 485.941,732 496.67,732 507.399,732 518.128,732 
  528.857,732 539.586,732 550.314,732 561.043,732 571.772,732 582.501,732 593.23,732 603.958,732 614.687,732 625.416,732 
  636.145,732 646.874,732 657.603,732 668.331,732 679.06,732 689.789,732 700.518,732 711.247,732 721.975,732 732.704,732 
  743.433,732 754.162,732 764.891,732 775.62,732 786.348,732 797.077,732 807.806,732 818.535,732 829.264,732 839.992,732 
  850.721,732 861.45,732 872.179,732 882.908,732 893.637,732 904.365,732 915.094,732 925.823,732 936.552,732 947.281,732 
  958.009,732 968.738,732 979.467,732 990.196,732 1000.92,732 1011.65,732 1022.38,732 1033.11,732 1043.84,732 1054.57,732 
  1065.3,732 1076.03,732 1086.76,732 1097.48,732 1108.21,732 1118.94,732 1129.67,732 1140.4,732 1151.13,732 1161.86,732 
  1172.59,732 1183.31,732 1194.04,732 1204.77,732 1215.5,732 1226.23,732 1236.96,732 1247.69,732 1258.42,732 1269.15,732 
  1279.87,732 1290.6,732 1301.33,732 1312.06,732 1322.79,732 1333.52,732 1344.25,732 1354.98,732 1365.7,732 1376.43,732 
  1387.16,732 1397.89,732 1408.62,732 1419.35,732 1430.08,732 1440.81,732 1451.54,732 1462.26,732 1472.99,732 1483.72,732 
  1494.45,732 1505.18,732 1515.91,732 1526.64,732 1537.37,732 1548.09,732 1558.82,732 1569.55,732 1580.28,732 1591.01,732 
  1601.74,732 1612.47,732 1623.2,732 1633.93,732 1644.65,732 1655.38,732 1666.11,732 1676.84,732 1687.57,732 1698.3,732 
  1709.03,732 1719.76,732 1730.48,732 1741.21,732 1751.94,732 1762.67,732 1773.4,732 1784.13,732 1794.86,732 1805.59,732 
  1816.31,732 1827.04,732 1837.77,732 1848.5,732 1859.23,732 1869.96,732 1880.69,732 1891.42,732 1902.15,732 1912.87,732 
  1923.6,732 1934.33,732 1945.06,732 1955.79,732 1966.52,732 1977.25,732 1987.98,732 1998.7,732 2009.43,732 2020.16,732 
  2030.89,732 2041.62,732 2052.35,732 2063.08,732 2073.81,732 2084.54,732 2095.26,732 2105.99,732 2116.72,732 2127.45,732 
  2138.18,732 2148.91,732 2159.64,732 2170.37,732 2181.09,732 2191.82,732 2202.55,732 2213.28,732 2224.01,732 2234.74,732 
  2245.47,732 2256.2,732 2266.93,732 2277.65,732 2288.38,732 2299.11,732 2309.84,732 2320.57,732 2331.3,732 2342.03,732 
  2352.76,732 
  "/>
<polyline clip-path="url(#clip102)" style="stroke:#e26f46; stroke-width:4; stroke-opacity:1; fill:none" points="
  206.992,1212.67 217.721,1210 228.45,1207.29 239.179,1204.54 249.907,1201.74 260.636,1198.91 271.365,1196.03 282.094,1193.11 292.823,1190.14 303.551,1187.14 
  314.28,1184.08 325.009,1180.99 335.738,1177.85 346.467,1174.66 357.196,1171.44 367.924,1168.16 378.653,1164.84 389.382,1161.48 400.111,1158.06 410.84,1154.6 
  421.569,1151.1 432.297,1147.55 443.026,1143.95 453.755,1140.3 464.484,1136.61 475.213,1132.87 485.941,1129.08 496.67,1125.24 507.399,1121.36 518.128,1117.42 
  528.857,1113.44 539.586,1109.41 550.314,1105.33 561.043,1101.2 571.772,1097.03 582.501,1092.8 593.23,1088.53 603.958,1084.21 614.687,1079.84 625.416,1075.42 
  636.145,1070.95 646.874,1066.44 657.603,1061.87 668.331,1057.26 679.06,1052.6 689.789,1047.9 700.518,1043.14 711.247,1038.34 721.975,1033.5 732.704,1028.6 
  743.433,1023.66 754.162,1018.67 764.891,1013.64 775.62,1008.56 786.348,1003.44 797.077,998.277 807.806,993.067 818.535,987.814 829.264,982.518 839.992,977.18 
  850.721,971.801 861.45,966.38 872.179,960.919 882.908,955.418 893.637,949.878 904.365,944.3 915.094,938.684 925.823,933.031 936.552,927.342 947.281,921.618 
  958.009,915.859 968.738,910.066 979.467,904.241 990.196,898.384 1000.92,892.496 1011.65,886.578 1022.38,880.631 1033.11,874.655 1043.84,868.653 1054.57,862.625 
  1065.3,856.571 1076.03,850.494 1086.76,844.394 1097.48,838.272 1108.21,832.129 1118.94,825.967 1129.67,819.787 1140.4,813.589 1151.13,807.375 1161.86,801.147 
  1172.59,794.904 1183.31,788.65 1194.04,782.384 1204.77,776.108 1215.5,769.823 1226.23,763.531 1236.96,757.232 1247.69,750.929 1258.42,744.621 1269.15,738.311 
  1279.87,732 1290.6,725.689 1301.33,719.379 1312.06,713.071 1322.79,706.768 1333.52,700.469 1344.25,694.177 1354.98,687.892 1365.7,681.616 1376.43,675.35 
  1387.16,669.096 1397.89,662.853 1408.62,656.625 1419.35,650.411 1430.08,644.213 1440.81,638.033 1451.54,631.871 1462.26,625.728 1472.99,619.606 1483.72,613.506 
  1494.45,607.429 1505.18,601.375 1515.91,595.347 1526.64,589.345 1537.37,583.369 1548.09,577.422 1558.82,571.504 1569.55,565.616 1580.28,559.759 1591.01,553.934 
  1601.74,548.141 1612.47,542.382 1623.2,536.658 1633.93,530.969 1644.65,525.316 1655.38,519.7 1666.11,514.122 1676.84,508.582 1687.57,503.081 1698.3,497.62 
  1709.03,492.199 1719.76,486.82 1730.48,481.482 1741.21,476.186 1751.94,470.933 1762.67,465.723 1773.4,460.557 1784.13,455.435 1794.86,450.358 1805.59,445.326 
  1816.31,440.34 1827.04,435.399 1837.77,430.505 1848.5,425.657 1859.23,420.856 1869.96,416.102 1880.69,411.395 1891.42,406.736 1902.15,402.125 1912.87,397.562 
  1923.6,393.047 1934.33,388.58 1945.06,384.161 1955.79,379.791 1966.52,375.47 1977.25,371.197 1987.98,366.972 1998.7,362.796 2009.43,358.669 2020.16,354.59 
  2030.89,350.56 2041.62,346.578 2052.35,342.644 2063.08,338.759 2073.81,334.922 2084.54,331.132 2095.26,327.391 2105.99,323.697 2116.72,320.051 2127.45,316.452 
  2138.18,312.9 2148.91,309.395 2159.64,305.937 2170.37,302.525 2181.09,299.159 2191.82,295.839 2202.55,292.564 2213.28,289.335 2224.01,286.151 2234.74,283.011 
  2245.47,279.916 2256.2,276.865 2266.93,273.857 2277.65,270.893 2288.38,267.972 2299.11,265.094 2309.84,262.257 2320.57,259.463 2331.3,256.71 2342.03,253.999 
  2352.76,251.328 
  "/>
<polyline clip-path="url(#clip102)" style="stroke:#3da44d; stroke-width:4; stroke-opacity:1; fill:none" points="
  206.992,1354.69 217.721,1354.26 228.45,1353.81 239.179,1353.33 249.907,1352.84 260.636,1352.31 271.365,1351.76 282.094,1351.18 292.823,1350.58 303.551,1349.94 
  314.28,1349.27 325.009,1348.57 335.738,1347.83 346.467,1347.06 357.196,1346.24 367.924,1345.39 378.653,1344.49 389.382,1343.55 400.111,1342.56 410.84,1341.52 
  421.569,1340.44 432.297,1339.29 443.026,1338.1 453.755,1336.84 464.484,1335.52 475.213,1334.14 485.941,1332.68 496.67,1331.16 507.399,1329.57 518.128,1327.89 
  528.857,1326.14 539.586,1324.3 550.314,1322.37 561.043,1320.35 571.772,1318.24 582.501,1316.02 593.23,1313.7 603.958,1311.27 614.687,1308.73 625.416,1306.06 
  636.145,1303.27 646.874,1300.36 657.603,1297.31 668.331,1294.12 679.06,1290.78 689.789,1287.29 700.518,1283.65 711.247,1279.84 721.975,1275.87 732.704,1271.72 
  743.433,1267.39 754.162,1262.87 764.891,1258.15 775.62,1253.24 786.348,1248.12 797.077,1242.78 807.806,1237.23 818.535,1231.44 829.264,1225.43 839.992,1219.17 
  850.721,1212.67 861.45,1205.92 872.179,1198.91 882.908,1191.63 893.637,1184.08 904.365,1176.26 915.094,1168.16 925.823,1159.78 936.552,1151.1 947.281,1142.13 
  958.009,1132.87 968.738,1123.3 979.467,1113.44 990.196,1103.27 1000.92,1092.8 1011.65,1082.03 1022.38,1070.95 1033.11,1059.58 1043.84,1047.9 1054.57,1035.93 
  1065.3,1023.66 1076.03,1011.11 1086.76,998.277 1097.48,985.172 1108.21,971.801 1118.94,958.174 1129.67,944.3 1140.4,930.191 1151.13,915.859 1161.86,901.317 
  1172.59,886.578 1183.31,871.658 1194.04,856.571 1204.77,841.336 1215.5,825.967 1226.23,810.484 1236.96,794.904 1247.69,779.247 1258.42,763.531 1269.15,747.775 
  1279.87,732 1290.6,716.225 1301.33,700.469 1312.06,684.753 1322.79,669.096 1333.52,653.516 1344.25,638.033 1354.98,622.664 1365.7,607.429 1376.43,592.342 
  1387.16,577.422 1397.89,562.683 1408.62,548.141 1419.35,533.809 1430.08,519.7 1440.81,505.826 1451.54,492.199 1462.26,478.828 1472.99,465.723 1483.72,452.891 
  1494.45,440.34 1505.18,428.075 1515.91,416.102 1526.64,404.425 1537.37,393.047 1548.09,381.97 1558.82,371.197 1569.55,360.726 1580.28,350.56 1591.01,340.695 
  1601.74,331.132 1612.47,321.868 1623.2,312.9 1633.93,304.225 1644.65,295.839 1655.38,287.737 1666.11,279.916 1676.84,272.37 1687.57,265.094 1698.3,258.082 
  1709.03,251.328 1719.76,244.826 1730.48,238.571 1741.21,232.556 1751.94,226.773 1762.67,221.218 1773.4,215.883 1784.13,210.762 1794.86,205.848 1805.59,201.134 
  1816.31,196.615 1827.04,192.283 1837.77,188.132 1848.5,184.157 1859.23,180.35 1869.96,176.707 1880.69,173.22 1891.42,169.884 1902.15,166.693 1912.87,163.642 
  1923.6,160.725 1934.33,157.938 1945.06,155.274 1955.79,152.729 1966.52,150.299 1977.25,147.977 1987.98,145.761 1998.7,143.646 2009.43,141.626 2020.16,139.699 
  2030.89,137.861 2041.62,136.107 2052.35,134.433 2063.08,132.837 2073.81,131.316 2084.54,129.864 2095.26,128.481 2105.99,127.162 2116.72,125.904 2127.45,124.706 
  2138.18,123.564 2148.91,122.476 2159.64,121.439 2170.37,120.451 2181.09,119.509 2191.82,118.613 2202.55,117.759 2213.28,116.945 2224.01,116.17 2234.74,115.432 
  2245.47,114.729 2256.2,114.06 2266.93,113.422 2277.65,112.816 2288.38,112.238 2299.11,111.688 2309.84,111.164 2320.57,110.665 2331.3,110.191 2342.03,109.739 
  2352.76,109.309 
  "/>
<polyline clip-path="url(#clip102)" style="stroke:#c271d2; stroke-width:4; stroke-opacity:1; fill:none" points="
  206.992,1363.08 217.721,1363.08 228.45,1363.07 239.179,1363.06 249.907,1363.05 260.636,1363.05 271.365,1363.04 282.094,1363.02 292.823,1363.01 303.551,1363 
  314.28,1362.98 325.009,1362.97 335.738,1362.95 346.467,1362.93 357.196,1362.91 367.924,1362.88 378.653,1362.86 389.382,1362.83 400.111,1362.79 410.84,1362.76 
  421.569,1362.72 432.297,1362.67 443.026,1362.62 453.755,1362.57 464.484,1362.51 475.213,1362.44 485.941,1362.37 496.67,1362.29 507.399,1362.2 518.128,1362.1 
  528.857,1361.99 539.586,1361.87 550.314,1361.74 561.043,1361.59 571.772,1361.42 582.501,1361.24 593.23,1361.05 603.958,1360.83 614.687,1360.58 625.416,1360.31 
  636.145,1360.02 646.874,1359.69 657.603,1359.33 668.331,1358.93 679.06,1358.49 689.789,1358 700.518,1357.46 711.247,1356.87 721.975,1356.21 732.704,1355.49 
  743.433,1354.69 754.162,1353.81 764.891,1352.84 775.62,1351.76 786.348,1350.58 797.077,1349.27 807.806,1347.83 818.535,1346.24 829.264,1344.49 839.992,1342.56 
  850.721,1340.44 861.45,1338.1 872.179,1335.52 882.908,1332.68 893.637,1329.57 904.365,1326.14 915.094,1322.37 925.823,1318.24 936.552,1313.7 947.281,1308.73 
  958.009,1303.27 968.738,1297.31 979.467,1290.78 990.196,1283.65 1000.92,1275.87 1011.65,1267.39 1022.38,1258.15 1033.11,1248.12 1043.84,1237.23 1054.57,1225.43 
  1065.3,1212.67 1076.03,1198.91 1086.76,1184.08 1097.48,1168.16 1108.21,1151.1 1118.94,1132.87 1129.67,1113.44 1140.4,1092.8 1151.13,1070.95 1161.86,1047.9 
  1172.59,1023.66 1183.31,998.277 1194.04,971.801 1204.77,944.3 1215.5,915.859 1226.23,886.578 1236.96,856.571 1247.69,825.967 1258.42,794.904 1269.15,763.531 
  1279.87,732 1290.6,700.469 1301.33,669.096 1312.06,638.033 1322.79,607.429 1333.52,577.422 1344.25,548.141 1354.98,519.7 1365.7,492.199 1376.43,465.723 
  1387.16,440.34 1397.89,416.102 1408.62,393.047 1419.35,371.197 1430.08,350.56 1440.81,331.132 1451.54,312.9 1462.26,295.839 1472.99,279.916 1483.72,265.094 
  1494.45,251.328 1505.18,238.571 1515.91,226.773 1526.64,215.883 1537.37,205.848 1548.09,196.615 1558.82,188.132 1569.55,180.35 1580.28,173.22 1591.01,166.693 
  1601.74,160.725 1612.47,155.274 1623.2,150.299 1633.93,145.761 1644.65,141.626 1655.38,137.861 1666.11,134.433 1676.84,131.316 1687.57,128.481 1698.3,125.904 
  1709.03,123.564 1719.76,121.439 1730.48,119.509 1741.21,117.759 1751.94,116.17 1762.67,114.729 1773.4,113.422 1784.13,112.238 1794.86,111.164 1805.59,110.191 
  1816.31,109.309 1827.04,108.51 1837.77,107.786 1848.5,107.13 1859.23,106.536 1869.96,105.998 1880.69,105.511 1891.42,105.07 1902.15,104.671 1912.87,104.309 
  1923.6,103.982 1934.33,103.685 1945.06,103.417 1955.79,103.174 1966.52,102.954 1977.25,102.755 1987.98,102.575 1998.7,102.412 2009.43,102.265 2020.16,102.131 
  2030.89,102.01 2041.62,101.901 2052.35,101.802 2063.08,101.713 2073.81,101.632 2084.54,101.558 2095.26,101.492 2105.99,101.432 2116.72,101.377 2127.45,101.328 
  2138.18,101.284 2148.91,101.244 2159.64,101.207 2170.37,101.174 2181.09,101.144 2191.82,101.117 2202.55,101.093 2213.28,101.071 2224.01,101.051 2234.74,101.033 
  2245.47,101.016 2256.2,101.001 2266.93,100.988 2277.65,100.976 2288.38,100.965 2299.11,100.955 2309.84,100.946 2320.57,100.938 2331.3,100.93 2342.03,100.924 
  2352.76,100.918 
  "/>
<polyline clip-path="url(#clip102)" style="stroke:#ac8d18; stroke-width:4; stroke-opacity:1; fill:none" points="
  206.992,1363.14 217.721,1363.14 228.45,1363.14 239.179,1363.14 249.907,1363.14 260.636,1363.14 271.365,1363.14 282.094,1363.14 292.823,1363.14 303.551,1363.14 
  314.28,1363.14 325.009,1363.14 335.738,1363.14 346.467,1363.14 357.196,1363.14 367.924,1363.14 378.653,1363.14 389.382,1363.14 400.111,1363.14 410.84,1363.14 
  421.569,1363.14 432.297,1363.14 443.026,1363.14 453.755,1363.14 464.484,1363.14 475.213,1363.14 485.941,1363.14 496.67,1363.14 507.399,1363.14 518.128,1363.14 
  528.857,1363.14 539.586,1363.14 550.314,1363.14 561.043,1363.14 571.772,1363.14 582.501,1363.14 593.23,1363.14 603.958,1363.14 614.687,1363.13 625.416,1363.13 
  636.145,1363.13 646.874,1363.13 657.603,1363.13 668.331,1363.13 679.06,1363.12 689.789,1363.12 700.518,1363.11 711.247,1363.11 721.975,1363.1 732.704,1363.09 
  743.433,1363.08 754.162,1363.07 764.891,1363.05 775.62,1363.04 786.348,1363.01 797.077,1362.98 807.806,1362.95 818.535,1362.91 829.264,1362.86 839.992,1362.79 
  850.721,1362.72 861.45,1362.62 872.179,1362.51 882.908,1362.37 893.637,1362.2 904.365,1361.99 915.094,1361.74 925.823,1361.42 936.552,1361.05 947.281,1360.58 
  958.009,1360.02 968.738,1359.33 979.467,1358.49 990.196,1357.46 1000.92,1356.21 1011.65,1354.69 1022.38,1352.84 1033.11,1350.58 1043.84,1347.83 1054.57,1344.49 
  1065.3,1340.44 1076.03,1335.52 1086.76,1329.57 1097.48,1322.37 1108.21,1313.7 1118.94,1303.27 1129.67,1290.78 1140.4,1275.87 1151.13,1258.15 1161.86,1237.23 
  1172.59,1212.67 1183.31,1184.08 1194.04,1151.1 1204.77,1113.44 1215.5,1070.95 1226.23,1023.66 1236.96,971.801 1247.69,915.859 1258.42,856.571 1269.15,794.904 
  1279.87,732 1290.6,669.096 1301.33,607.429 1312.06,548.141 1322.79,492.199 1333.52,440.34 1344.25,393.047 1354.98,350.56 1365.7,312.9 1376.43,279.916 
  1387.16,251.328 1397.89,226.773 1408.62,205.848 1419.35,188.132 1430.08,173.22 1440.81,160.725 1451.54,150.299 1462.26,141.626 1472.99,134.433 1483.72,128.481 
  1494.45,123.564 1505.18,119.509 1515.91,116.17 1526.64,113.422 1537.37,111.164 1548.09,109.309 1558.82,107.786 1569.55,106.536 1580.28,105.511 1591.01,104.671 
  1601.74,103.982 1612.47,103.417 1623.2,102.954 1633.93,102.575 1644.65,102.265 1655.38,102.01 1666.11,101.802 1676.84,101.632 1687.57,101.492 1698.3,101.377 
  1709.03,101.284 1719.76,101.207 1730.48,101.144 1741.21,101.093 1751.94,101.051 1762.67,101.016 1773.4,100.988 1784.13,100.965 1794.86,100.946 1805.59,100.93 
  1816.31,100.918 1827.04,100.907 1837.77,100.899 1848.5,100.892 1859.23,100.886 1869.96,100.882 1880.69,100.878 1891.42,100.875 1902.15,100.872 1912.87,100.87 
  1923.6,100.868 1934.33,100.867 1945.06,100.866 1955.79,100.865 1966.52,100.864 1977.25,100.863 1987.98,100.863 1998.7,100.862 2009.43,100.862 2020.16,100.862 
  2030.89,100.862 2041.62,100.861 2052.35,100.861 2063.08,100.861 2073.81,100.861 2084.54,100.861 2095.26,100.861 2105.99,100.861 2116.72,100.861 2127.45,100.861 
  2138.18,100.861 2148.91,100.861 2159.64,100.861 2170.37,100.861 2181.09,100.861 2191.82,100.861 2202.55,100.861 2213.28,100.861 2224.01,100.861 2234.74,100.861 
  2245.47,100.861 2256.2,100.861 2266.93,100.861 2277.65,100.861 2288.38,100.861 2299.11,100.861 2309.84,100.861 2320.57,100.861 2331.3,100.861 2342.03,100.86 
  2352.76,100.86 
  "/>
<polyline clip-path="url(#clip102)" style="stroke:#00a9ad; stroke-width:4; stroke-opacity:1; fill:none" points="
  206.992,1363.14 217.721,1363.14 228.45,1363.14 239.179,1363.14 249.907,1363.14 260.636,1363.14 271.365,1363.14 282.094,1363.14 292.823,1363.14 303.551,1363.14 
  314.28,1363.14 325.009,1363.14 335.738,1363.14 346.467,1363.14 357.196,1363.14 367.924,1363.14 378.653,1363.14 389.382,1363.14 400.111,1363.14 410.84,1363.14 
  421.569,1363.14 432.297,1363.14 443.026,1363.14 453.755,1363.14 464.484,1363.14 475.213,1363.14 485.941,1363.14 496.67,1363.14 507.399,1363.14 518.128,1363.14 
  528.857,1363.14 539.586,1363.14 550.314,1363.14 561.043,1363.14 571.772,1363.14 582.501,1363.14 593.23,1363.14 603.958,1363.14 614.687,1363.14 625.416,1363.14 
  636.145,1363.14 646.874,1363.14 657.603,1363.14 668.331,1363.14 679.06,1363.14 689.789,1363.14 700.518,1363.14 711.247,1363.14 721.975,1363.14 732.704,1363.14 
  743.433,1363.14 754.162,1363.14 764.891,1363.14 775.62,1363.14 786.348,1363.14 797.077,1363.14 807.806,1363.14 818.535,1363.14 829.264,1363.14 839.992,1363.14 
  850.721,1363.14 861.45,1363.14 872.179,1363.14 882.908,1363.14 893.637,1363.14 904.365,1363.14 915.094,1363.14 925.823,1363.14 936.552,1363.14 947.281,1363.14 
  958.009,1363.14 968.738,1363.14 979.467,1363.14 990.196,1363.14 1000.92,1363.14 1011.65,1363.14 1022.38,1363.14 1033.11,1363.14 1043.84,1363.14 1054.57,1363.14 
  1065.3,1363.14 1076.03,1363.14 1086.76,1363.14 1097.48,1363.14 1108.21,1363.14 1118.94,1363.14 1129.67,1363.14 1140.4,1363.14 1151.13,1363.13 1161.86,1363.12 
  1172.59,1363.08 1183.31,1362.98 1194.04,1362.72 1204.77,1361.99 1215.5,1360.02 1226.23,1354.69 1236.96,1340.44 1247.69,1303.27 1258.42,1212.67 1269.15,1023.66 
  1279.87,732 1290.6,440.34 1301.33,251.328 1312.06,160.725 1322.79,123.564 1333.52,109.309 1344.25,103.982 1354.98,102.01 1365.7,101.284 1376.43,101.016 
  1387.16,100.918 1397.89,100.882 1408.62,100.868 1419.35,100.863 1430.08,100.862 1440.81,100.861 1451.54,100.861 1462.26,100.861 1472.99,100.861 1483.72,100.861 
  1494.45,100.86 1505.18,100.86 1515.91,100.86 1526.64,100.86 1537.37,100.86 1548.09,100.86 1558.82,100.86 1569.55,100.86 1580.28,100.86 1591.01,100.86 
  1601.74,100.86 1612.47,100.86 1623.2,100.86 1633.93,100.86 1644.65,100.86 1655.38,100.86 1666.11,100.86 1676.84,100.86 1687.57,100.86 1698.3,100.86 
  1709.03,100.86 1719.76,100.86 1730.48,100.86 1741.21,100.86 1751.94,100.86 1762.67,100.86 1773.4,100.86 1784.13,100.86 1794.86,100.86 1805.59,100.86 
  1816.31,100.86 1827.04,100.86 1837.77,100.86 1848.5,100.86 1859.23,100.86 1869.96,100.86 1880.69,100.86 1891.42,100.86 1902.15,100.86 1912.87,100.86 
  1923.6,100.86 1934.33,100.86 1945.06,100.86 1955.79,100.86 1966.52,100.86 1977.25,100.86 1987.98,100.86 1998.7,100.86 2009.43,100.86 2020.16,100.86 
  2030.89,100.86 2041.62,100.86 2052.35,100.86 2063.08,100.86 2073.81,100.86 2084.54,100.86 2095.26,100.86 2105.99,100.86 2116.72,100.86 2127.45,100.86 
  2138.18,100.86 2148.91,100.86 2159.64,100.86 2170.37,100.86 2181.09,100.86 2191.82,100.86 2202.55,100.86 2213.28,100.86 2224.01,100.86 2234.74,100.86 
  2245.47,100.86 2256.2,100.86 2266.93,100.86 2277.65,100.86 2288.38,100.86 2299.11,100.86 2309.84,100.86 2320.57,100.86 2331.3,100.86 2342.03,100.86 
  2352.76,100.86 
  "/>
<path clip-path="url(#clip100)" d="
M278.518 530.953 L610.604 530.953 L610.604 107.593 L278.518 107.593  Z
  " fill="#ffffff" fill-rule="evenodd" fill-opacity="1"/>
<polyline clip-path="url(#clip100)" style="stroke:#000000; stroke-width:4; stroke-opacity:1; fill:none" points="
  278.518,530.953 610.604,530.953 610.604,107.593 278.518,107.593 278.518,530.953 
  "/>
<polyline clip-path="url(#clip100)" style="stroke:#009af9; stroke-width:4; stroke-opacity:1; fill:none" points="
  302.359,168.073 445.41,168.073 
  "/>
<g clip-path="url(#clip100)">
<text style="fill:#000000; fill-opacity:1; font-family:Arial,Helvetica Neue,Helvetica,sans-serif; font-size:48px; text-anchor:start;" transform="rotate(0, 469.252, 185.573)" x="469.252" y="185.573">0.0</text>
</g>
<polyline clip-path="url(#clip100)" style="stroke:#e26f46; stroke-width:4; stroke-opacity:1; fill:none" points="
  302.359,228.553 445.41,228.553 
  "/>
<g clip-path="url(#clip100)">
<text style="fill:#000000; fill-opacity:1; font-family:Arial,Helvetica Neue,Helvetica,sans-serif; font-size:48px; text-anchor:start;" transform="rotate(0, 469.252, 246.053)" x="469.252" y="246.053">0.2</text>
</g>
<polyline clip-path="url(#clip100)" style="stroke:#3da44d; stroke-width:4; stroke-opacity:1; fill:none" points="
  302.359,289.033 445.41,289.033 
  "/>
<g clip-path="url(#clip100)">
<text style="fill:#000000; fill-opacity:1; font-family:Arial,Helvetica Neue,Helvetica,sans-serif; font-size:48px; text-anchor:start;" transform="rotate(0, 469.252, 306.533)" x="469.252" y="306.533">0.5</text>
</g>
<polyline clip-path="url(#clip100)" style="stroke:#c271d2; stroke-width:4; stroke-opacity:1; fill:none" points="
  302.359,349.513 445.41,349.513 
  "/>
<g clip-path="url(#clip100)">
<text style="fill:#000000; fill-opacity:1; font-family:Arial,Helvetica Neue,Helvetica,sans-serif; font-size:48px; text-anchor:start;" transform="rotate(0, 469.252, 367.013)" x="469.252" y="367.013">1.0</text>
</g>
<polyline clip-path="url(#clip100)" style="stroke:#ac8d18; stroke-width:4; stroke-opacity:1; fill:none" points="
  302.359,409.993 445.41,409.993 
  "/>
<g clip-path="url(#clip100)">
<text style="fill:#000000; fill-opacity:1; font-family:Arial,Helvetica Neue,Helvetica,sans-serif; font-size:48px; text-anchor:start;" transform="rotate(0, 469.252, 427.493)" x="469.252" y="427.493">2.0</text>
</g>
<polyline clip-path="url(#clip100)" style="stroke:#00a9ad; stroke-width:4; stroke-opacity:1; fill:none" points="
  302.359,470.473 445.41,470.473 
  "/>
<g clip-path="url(#clip100)">
<text style="fill:#000000; fill-opacity:1; font-family:Arial,Helvetica Neue,Helvetica,sans-serif; font-size:48px; text-anchor:start;" transform="rotate(0, 469.252, 487.973)" x="469.252" y="487.973">10.0</text>
</g>
</svg>
