<?xml version="1.0" encoding="utf-8"?>
<svg xmlns="http://www.w3.org/2000/svg" xmlns:xlink="http://www.w3.org/1999/xlink" width="600" height="400" viewBox="0 0 2400 1600">
<defs>
  <clipPath id="clip990">
    <rect x="0" y="0" width="2400" height="1600"/>
  </clipPath>
</defs>
<path clip-path="url(#clip990)" d="
M0 1600 L2400 1600 L2400 0 L0 0  Z
  " fill="#ffffff" fill-rule="evenodd" fill-opacity="1"/>
<defs>
  <clipPath id="clip991">
    <rect x="480" y="0" width="1681" height="1600"/>
  </clipPath>
</defs>
<path clip-path="url(#clip990)" d="
M86.9921 1521.01 L2112.76 1521.01 L2112.76 62.9921 L86.9921 62.9921  Z
  " fill="#ffffff" fill-rule="evenodd" fill-opacity="1"/>
<defs>
  <clipPath id="clip992">
    <rect x="86" y="62" width="2027" height="1459"/>
  </clipPath>
</defs>
<polyline clip-path="url(#clip992)" style="stroke:#000000; stroke-width:2; stroke-opacity:0.1; fill:none" points="
  257.163,1521.01 257.163,62.9921 
  "/>
<polyline clip-path="url(#clip992)" style="stroke:#000000; stroke-width:2; stroke-opacity:0.1; fill:none" points="
  677.782,1521.01 677.782,62.9921 
  "/>
<polyline clip-path="url(#clip992)" style="stroke:#000000; stroke-width:2; stroke-opacity:0.1; fill:none" points="
  1098.4,1521.01 1098.4,62.9921 
  "/>
<polyline clip-path="url(#clip992)" style="stroke:#000000; stroke-width:2; stroke-opacity:0.1; fill:none" points="
  1519.02,1521.01 1519.02,62.9921 
  "/>
<polyline clip-path="url(#clip992)" style="stroke:#000000; stroke-width:2; stroke-opacity:0.1; fill:none" points="
  1939.64,1521.01 1939.64,62.9921 
  "/>
<polyline clip-path="url(#clip990)" style="stroke:#000000; stroke-width:4; stroke-opacity:1; fill:none" points="
  86.9921,1521.01 2112.76,1521.01 
  "/>
<polyline clip-path="url(#clip990)" style="stroke:#000000; stroke-width:4; stroke-opacity:1; fill:none" points="
  257.163,1521.01 257.163,1503.51 
  "/>
<polyline clip-path="url(#clip990)" style="stroke:#000000; stroke-width:4; stroke-opacity:1; fill:none" points="
  677.782,1521.01 677.782,1503.51 
  "/>
<polyline clip-path="url(#clip990)" style="stroke:#000000; stroke-width:4; stroke-opacity:1; fill:none" points="
  1098.4,1521.01 1098.4,1503.51 
  "/>
<polyline clip-path="url(#clip990)" style="stroke:#000000; stroke-width:4; stroke-opacity:1; fill:none" points="
  1519.02,1521.01 1519.02,1503.51 
  "/>
<polyline clip-path="url(#clip990)" style="stroke:#000000; stroke-width:4; stroke-opacity:1; fill:none" points="
  1939.64,1521.01 1939.64,1503.51 
  "/>
<g clip-path="url(#clip990)">
<text style="fill:#000000; fill-opacity:1; font-family:Arial,Helvetica Neue,Helvetica,sans-serif; font-size:48px; text-anchor:middle;" transform="rotate(0, 257.163, 1582.21)" x="257.163" y="1582.21">−5.0</text>
</g>
<g clip-path="url(#clip990)">
<text style="fill:#000000; fill-opacity:1; font-family:Arial,Helvetica Neue,Helvetica,sans-serif; font-size:48px; text-anchor:middle;" transform="rotate(0, 677.782, 1582.21)" x="677.782" y="1582.21">−2.5</text>
</g>
<g clip-path="url(#clip990)">
<text style="fill:#000000; fill-opacity:1; font-family:Arial,Helvetica Neue,Helvetica,sans-serif; font-size:48px; text-anchor:middle;" transform="rotate(0, 1098.4, 1582.21)" x="1098.4" y="1582.21">0.0</text>
</g>
<g clip-path="url(#clip990)">
<text style="fill:#000000; fill-opacity:1; font-family:Arial,Helvetica Neue,Helvetica,sans-serif; font-size:48px; text-anchor:middle;" transform="rotate(0, 1519.02, 1582.21)" x="1519.02" y="1582.21">2.5</text>
</g>
<g clip-path="url(#clip990)">
<text style="fill:#000000; fill-opacity:1; font-family:Arial,Helvetica Neue,Helvetica,sans-serif; font-size:48px; text-anchor:middle;" transform="rotate(0, 1939.64, 1582.21)" x="1939.64" y="1582.21">5.0</text>
</g>
<polyline clip-path="url(#clip992)" style="stroke:#000000; stroke-width:2; stroke-opacity:0.1; fill:none" points="
  86.9921,1444.61 2112.76,1444.61 
  "/>
<polyline clip-path="url(#clip992)" style="stroke:#000000; stroke-width:2; stroke-opacity:0.1; fill:none" points="
  86.9921,1137.82 2112.76,1137.82 
  "/>
<polyline clip-path="url(#clip992)" style="stroke:#000000; stroke-width:2; stroke-opacity:0.1; fill:none" points="
  86.9921,831.032 2112.76,831.032 
  "/>
<polyline clip-path="url(#clip992)" style="stroke:#000000; stroke-width:2; stroke-opacity:0.1; fill:none" points="
  86.9921,524.244 2112.76,524.244 
  "/>
<polyline clip-path="url(#clip992)" style="stroke:#000000; stroke-width:2; stroke-opacity:0.1; fill:none" points="
  86.9921,217.456 2112.76,217.456 
  "/>
<polyline clip-path="url(#clip990)" style="stroke:#000000; stroke-width:4; stroke-opacity:1; fill:none" points="
  86.9921,1521.01 86.9921,62.9921 
  "/>
<polyline clip-path="url(#clip990)" style="stroke:#000000; stroke-width:4; stroke-opacity:1; fill:none" points="
  86.9921,1444.61 111.301,1444.61 
  "/>
<polyline clip-path="url(#clip990)" style="stroke:#000000; stroke-width:4; stroke-opacity:1; fill:none" points="
  86.9921,1137.82 111.301,1137.82 
  "/>
<polyline clip-path="url(#clip990)" style="stroke:#000000; stroke-width:4; stroke-opacity:1; fill:none" points="
  86.9921,831.032 111.301,831.032 
  "/>
<polyline clip-path="url(#clip990)" style="stroke:#000000; stroke-width:4; stroke-opacity:1; fill:none" points="
  86.9921,524.244 111.301,524.244 
  "/>
<polyline clip-path="url(#clip990)" style="stroke:#000000; stroke-width:4; stroke-opacity:1; fill:none" points="
  86.9921,217.456 111.301,217.456 
  "/>
<g clip-path="url(#clip990)">
<text style="fill:#000000; fill-opacity:1; font-family:Arial,Helvetica Neue,Helvetica,sans-serif; font-size:48px; text-anchor:end;" transform="rotate(0, 50.9921, 1462.11)" x="50.9921" y="1462.11">−5.0</text>
</g>
<g clip-path="url(#clip990)">
<text style="fill:#000000; fill-opacity:1; font-family:Arial,Helvetica Neue,Helvetica,sans-serif; font-size:48px; text-anchor:end;" transform="rotate(0, 50.9921, 1155.32)" x="50.9921" y="1155.32">−2.5</text>
</g>
<g clip-path="url(#clip990)">
<text style="fill:#000000; fill-opacity:1; font-family:Arial,Helvetica Neue,Helvetica,sans-serif; font-size:48px; text-anchor:end;" transform="rotate(0, 50.9921, 848.532)" x="50.9921" y="848.532">0.0</text>
</g>
<g clip-path="url(#clip990)">
<text style="fill:#000000; fill-opacity:1; font-family:Arial,Helvetica Neue,Helvetica,sans-serif; font-size:48px; text-anchor:end;" transform="rotate(0, 50.9921, 541.744)" x="50.9921" y="541.744">2.5</text>
</g>
<g clip-path="url(#clip990)">
<text style="fill:#000000; fill-opacity:1; font-family:Arial,Helvetica Neue,Helvetica,sans-serif; font-size:48px; text-anchor:end;" transform="rotate(0, 50.9921, 234.956)" x="50.9921" y="234.956">5.0</text>
</g>
<g clip-path="url(#clip990)">
<text style="fill:#000000; fill-opacity:1; font-family:Arial,Helvetica Neue,Helvetica,sans-serif; font-size:84px; text-anchor:middle;" transform="rotate(0, 1099.87, 73.2)" x="1099.87" y="73.2">LDA</text>
</g>
<circle clip-path="url(#clip992)" cx="1718.11" cy="230.149" r="14" fill="#009af9" fill-rule="evenodd" fill-opacity="1" stroke="#000000" stroke-opacity="1" stroke-width="3.2"/>
<circle clip-path="url(#clip992)" cx="1706.78" cy="505.872" r="14" fill="#009af9" fill-rule="evenodd" fill-opacity="1" stroke="#000000" stroke-opacity="1" stroke-width="3.2"/>
<circle clip-path="url(#clip992)" cx="1340.51" cy="700.959" r="14" fill="#009af9" fill-rule="evenodd" fill-opacity="1" stroke="#000000" stroke-opacity="1" stroke-width="3.2"/>
<circle clip-path="url(#clip992)" cx="1668.3" cy="598.701" r="14" fill="#009af9" fill-rule="evenodd" fill-opacity="1" stroke="#000000" stroke-opacity="1" stroke-width="3.2"/>
<circle clip-path="url(#clip992)" cx="1500.05" cy="619.309" r="14" fill="#009af9" fill-rule="evenodd" fill-opacity="1" stroke="#000000" stroke-opacity="1" stroke-width="3.2"/>
<circle clip-path="url(#clip992)" cx="1354.15" cy="732.052" r="14" fill="#009af9" fill-rule="evenodd" fill-opacity="1" stroke="#000000" stroke-opacity="1" stroke-width="3.2"/>
<circle clip-path="url(#clip992)" cx="1223.38" cy="528.815" r="14" fill="#009af9" fill-rule="evenodd" fill-opacity="1" stroke="#000000" stroke-opacity="1" stroke-width="3.2"/>
<circle clip-path="url(#clip992)" cx="1575.85" cy="521.736" r="14" fill="#009af9" fill-rule="evenodd" fill-opacity="1" stroke="#000000" stroke-opacity="1" stroke-width="3.2"/>
<circle clip-path="url(#clip992)" cx="1368" cy="713.137" r="14" fill="#009af9" fill-rule="evenodd" fill-opacity="1" stroke="#000000" stroke-opacity="1" stroke-width="3.2"/>
<circle clip-path="url(#clip992)" cx="1264.2" cy="720.111" r="14" fill="#009af9" fill-rule="evenodd" fill-opacity="1" stroke="#000000" stroke-opacity="1" stroke-width="3.2"/>
<circle clip-path="url(#clip992)" cx="1201.83" cy="540.41" r="14" fill="#009af9" fill-rule="evenodd" fill-opacity="1" stroke="#000000" stroke-opacity="1" stroke-width="3.2"/>
<circle clip-path="url(#clip992)" cx="1323.42" cy="738.477" r="14" fill="#009af9" fill-rule="evenodd" fill-opacity="1" stroke="#000000" stroke-opacity="1" stroke-width="3.2"/>
<circle clip-path="url(#clip992)" cx="1500.98" cy="321.133" r="14" fill="#009af9" fill-rule="evenodd" fill-opacity="1" stroke="#000000" stroke-opacity="1" stroke-width="3.2"/>
<circle clip-path="url(#clip992)" cx="1011.91" cy="1094.62" r="14" fill="#009af9" fill-rule="evenodd" fill-opacity="1" stroke="#000000" stroke-opacity="1" stroke-width="3.2"/>
<circle clip-path="url(#clip992)" cx="1621.02" cy="184.09" r="14" fill="#009af9" fill-rule="evenodd" fill-opacity="1" stroke="#000000" stroke-opacity="1" stroke-width="3.2"/>
<circle clip-path="url(#clip992)" cx="1227.64" cy="525.602" r="14" fill="#009af9" fill-rule="evenodd" fill-opacity="1" stroke="#000000" stroke-opacity="1" stroke-width="3.2"/>
<circle clip-path="url(#clip992)" cx="1397.81" cy="180.718" r="14" fill="#009af9" fill-rule="evenodd" fill-opacity="1" stroke="#000000" stroke-opacity="1" stroke-width="3.2"/>
<circle clip-path="url(#clip992)" cx="1197.35" cy="573.981" r="14" fill="#009af9" fill-rule="evenodd" fill-opacity="1" stroke="#000000" stroke-opacity="1" stroke-width="3.2"/>
<circle clip-path="url(#clip992)" cx="1019.88" cy="738.412" r="14" fill="#009af9" fill-rule="evenodd" fill-opacity="1" stroke="#000000" stroke-opacity="1" stroke-width="3.2"/>
<circle clip-path="url(#clip992)" cx="1374.52" cy="444.331" r="14" fill="#009af9" fill-rule="evenodd" fill-opacity="1" stroke="#000000" stroke-opacity="1" stroke-width="3.2"/>
<circle clip-path="url(#clip992)" cx="1167.25" cy="645.37" r="14" fill="#009af9" fill-rule="evenodd" fill-opacity="1" stroke="#000000" stroke-opacity="1" stroke-width="3.2"/>
<circle clip-path="url(#clip992)" cx="1377.2" cy="319.731" r="14" fill="#009af9" fill-rule="evenodd" fill-opacity="1" stroke="#000000" stroke-opacity="1" stroke-width="3.2"/>
<circle clip-path="url(#clip992)" cx="1533.27" cy="625.102" r="14" fill="#009af9" fill-rule="evenodd" fill-opacity="1" stroke="#000000" stroke-opacity="1" stroke-width="3.2"/>
<circle clip-path="url(#clip992)" cx="1390.67" cy="319.762" r="14" fill="#009af9" fill-rule="evenodd" fill-opacity="1" stroke="#000000" stroke-opacity="1" stroke-width="3.2"/>
<circle clip-path="url(#clip992)" cx="686.994" cy="835.518" r="14" fill="#009af9" fill-rule="evenodd" fill-opacity="1" stroke="#000000" stroke-opacity="1" stroke-width="3.2"/>
<circle clip-path="url(#clip992)" cx="1486.94" cy="621.575" r="14" fill="#009af9" fill-rule="evenodd" fill-opacity="1" stroke="#000000" stroke-opacity="1" stroke-width="3.2"/>
<circle clip-path="url(#clip992)" cx="1742.46" cy="382.611" r="14" fill="#009af9" fill-rule="evenodd" fill-opacity="1" stroke="#000000" stroke-opacity="1" stroke-width="3.2"/>
<circle clip-path="url(#clip992)" cx="1442.21" cy="783.472" r="14" fill="#009af9" fill-rule="evenodd" fill-opacity="1" stroke="#000000" stroke-opacity="1" stroke-width="3.2"/>
<circle clip-path="url(#clip992)" cx="1538.32" cy="640.157" r="14" fill="#009af9" fill-rule="evenodd" fill-opacity="1" stroke="#000000" stroke-opacity="1" stroke-width="3.2"/>
<circle clip-path="url(#clip992)" cx="1304.3" cy="695.952" r="14" fill="#009af9" fill-rule="evenodd" fill-opacity="1" stroke="#000000" stroke-opacity="1" stroke-width="3.2"/>
<circle clip-path="url(#clip992)" cx="1593.3" cy="745.31" r="14" fill="#009af9" fill-rule="evenodd" fill-opacity="1" stroke="#000000" stroke-opacity="1" stroke-width="3.2"/>
<circle clip-path="url(#clip992)" cx="1400.07" cy="606.84" r="14" fill="#009af9" fill-rule="evenodd" fill-opacity="1" stroke="#000000" stroke-opacity="1" stroke-width="3.2"/>
<circle clip-path="url(#clip992)" cx="1635.17" cy="672.876" r="14" fill="#009af9" fill-rule="evenodd" fill-opacity="1" stroke="#000000" stroke-opacity="1" stroke-width="3.2"/>
<circle clip-path="url(#clip992)" cx="1678.86" cy="769.323" r="14" fill="#009af9" fill-rule="evenodd" fill-opacity="1" stroke="#000000" stroke-opacity="1" stroke-width="3.2"/>
<circle clip-path="url(#clip992)" cx="1477.36" cy="104.257" r="14" fill="#009af9" fill-rule="evenodd" fill-opacity="1" stroke="#000000" stroke-opacity="1" stroke-width="3.2"/>
<circle clip-path="url(#clip992)" cx="1189" cy="638.439" r="14" fill="#009af9" fill-rule="evenodd" fill-opacity="1" stroke="#000000" stroke-opacity="1" stroke-width="3.2"/>
<circle clip-path="url(#clip992)" cx="1636.9" cy="1091.57" r="14" fill="#009af9" fill-rule="evenodd" fill-opacity="1" stroke="#000000" stroke-opacity="1" stroke-width="3.2"/>
<circle clip-path="url(#clip992)" cx="1431.26" cy="701.25" r="14" fill="#009af9" fill-rule="evenodd" fill-opacity="1" stroke="#000000" stroke-opacity="1" stroke-width="3.2"/>
<circle clip-path="url(#clip992)" cx="2055.42" cy="338.922" r="14" fill="#009af9" fill-rule="evenodd" fill-opacity="1" stroke="#000000" stroke-opacity="1" stroke-width="3.2"/>
<circle clip-path="url(#clip992)" cx="1510.53" cy="362.608" r="14" fill="#009af9" fill-rule="evenodd" fill-opacity="1" stroke="#000000" stroke-opacity="1" stroke-width="3.2"/>
<circle clip-path="url(#clip992)" cx="1106.29" cy="291.848" r="14" fill="#009af9" fill-rule="evenodd" fill-opacity="1" stroke="#000000" stroke-opacity="1" stroke-width="3.2"/>
<circle clip-path="url(#clip992)" cx="1531.27" cy="748.186" r="14" fill="#009af9" fill-rule="evenodd" fill-opacity="1" stroke="#000000" stroke-opacity="1" stroke-width="3.2"/>
<circle clip-path="url(#clip992)" cx="1739.84" cy="459.409" r="14" fill="#009af9" fill-rule="evenodd" fill-opacity="1" stroke="#000000" stroke-opacity="1" stroke-width="3.2"/>
<circle clip-path="url(#clip992)" cx="1340.5" cy="402.439" r="14" fill="#009af9" fill-rule="evenodd" fill-opacity="1" stroke="#000000" stroke-opacity="1" stroke-width="3.2"/>
<circle clip-path="url(#clip992)" cx="1260.26" cy="505.875" r="14" fill="#009af9" fill-rule="evenodd" fill-opacity="1" stroke="#000000" stroke-opacity="1" stroke-width="3.2"/>
<circle clip-path="url(#clip992)" cx="1840.86" cy="467.861" r="14" fill="#009af9" fill-rule="evenodd" fill-opacity="1" stroke="#000000" stroke-opacity="1" stroke-width="3.2"/>
<circle clip-path="url(#clip992)" cx="1503.23" cy="400.228" r="14" fill="#009af9" fill-rule="evenodd" fill-opacity="1" stroke="#000000" stroke-opacity="1" stroke-width="3.2"/>
<circle clip-path="url(#clip992)" cx="1361.88" cy="918.846" r="14" fill="#009af9" fill-rule="evenodd" fill-opacity="1" stroke="#000000" stroke-opacity="1" stroke-width="3.2"/>
<circle clip-path="url(#clip992)" cx="1832.16" cy="622.663" r="14" fill="#009af9" fill-rule="evenodd" fill-opacity="1" stroke="#000000" stroke-opacity="1" stroke-width="3.2"/>
<circle clip-path="url(#clip992)" cx="1395.94" cy="742.31" r="14" fill="#009af9" fill-rule="evenodd" fill-opacity="1" stroke="#000000" stroke-opacity="1" stroke-width="3.2"/>
<circle clip-path="url(#clip992)" cx="1524.42" cy="655.934" r="14" fill="#009af9" fill-rule="evenodd" fill-opacity="1" stroke="#000000" stroke-opacity="1" stroke-width="3.2"/>
<circle clip-path="url(#clip992)" cx="1752.75" cy="307.797" r="14" fill="#009af9" fill-rule="evenodd" fill-opacity="1" stroke="#000000" stroke-opacity="1" stroke-width="3.2"/>
<circle clip-path="url(#clip992)" cx="1088.01" cy="446.663" r="14" fill="#009af9" fill-rule="evenodd" fill-opacity="1" stroke="#000000" stroke-opacity="1" stroke-width="3.2"/>
<circle clip-path="url(#clip992)" cx="1648.06" cy="705.683" r="14" fill="#009af9" fill-rule="evenodd" fill-opacity="1" stroke="#000000" stroke-opacity="1" stroke-width="3.2"/>
<circle clip-path="url(#clip992)" cx="1075.9" cy="716.545" r="14" fill="#009af9" fill-rule="evenodd" fill-opacity="1" stroke="#000000" stroke-opacity="1" stroke-width="3.2"/>
<circle clip-path="url(#clip992)" cx="1462.41" cy="543.5" r="14" fill="#009af9" fill-rule="evenodd" fill-opacity="1" stroke="#000000" stroke-opacity="1" stroke-width="3.2"/>
<circle clip-path="url(#clip992)" cx="1381.79" cy="662.022" r="14" fill="#009af9" fill-rule="evenodd" fill-opacity="1" stroke="#000000" stroke-opacity="1" stroke-width="3.2"/>
<circle clip-path="url(#clip992)" cx="1013.31" cy="472.516" r="14" fill="#009af9" fill-rule="evenodd" fill-opacity="1" stroke="#000000" stroke-opacity="1" stroke-width="3.2"/>
<circle clip-path="url(#clip992)" cx="1529.52" cy="549.018" r="14" fill="#009af9" fill-rule="evenodd" fill-opacity="1" stroke="#000000" stroke-opacity="1" stroke-width="3.2"/>
<circle clip-path="url(#clip992)" cx="1676.3" cy="520.226" r="14" fill="#009af9" fill-rule="evenodd" fill-opacity="1" stroke="#000000" stroke-opacity="1" stroke-width="3.2"/>
<circle clip-path="url(#clip992)" cx="1252.64" cy="620.17" r="14" fill="#009af9" fill-rule="evenodd" fill-opacity="1" stroke="#000000" stroke-opacity="1" stroke-width="3.2"/>
<circle clip-path="url(#clip992)" cx="1790.36" cy="581.716" r="14" fill="#009af9" fill-rule="evenodd" fill-opacity="1" stroke="#000000" stroke-opacity="1" stroke-width="3.2"/>
<circle clip-path="url(#clip992)" cx="1440.64" cy="393.374" r="14" fill="#009af9" fill-rule="evenodd" fill-opacity="1" stroke="#000000" stroke-opacity="1" stroke-width="3.2"/>
<circle clip-path="url(#clip992)" cx="1470.39" cy="292.395" r="14" fill="#009af9" fill-rule="evenodd" fill-opacity="1" stroke="#000000" stroke-opacity="1" stroke-width="3.2"/>
<circle clip-path="url(#clip992)" cx="1310.71" cy="477.042" r="14" fill="#009af9" fill-rule="evenodd" fill-opacity="1" stroke="#000000" stroke-opacity="1" stroke-width="3.2"/>
<circle clip-path="url(#clip992)" cx="1049.18" cy="470.265" r="14" fill="#009af9" fill-rule="evenodd" fill-opacity="1" stroke="#000000" stroke-opacity="1" stroke-width="3.2"/>
<circle clip-path="url(#clip992)" cx="1803.95" cy="831.062" r="14" fill="#009af9" fill-rule="evenodd" fill-opacity="1" stroke="#000000" stroke-opacity="1" stroke-width="3.2"/>
<circle clip-path="url(#clip992)" cx="1442.4" cy="437.649" r="14" fill="#009af9" fill-rule="evenodd" fill-opacity="1" stroke="#000000" stroke-opacity="1" stroke-width="3.2"/>
<circle clip-path="url(#clip992)" cx="1574.91" cy="416.42" r="14" fill="#009af9" fill-rule="evenodd" fill-opacity="1" stroke="#000000" stroke-opacity="1" stroke-width="3.2"/>
<circle clip-path="url(#clip992)" cx="1364.02" cy="441.225" r="14" fill="#009af9" fill-rule="evenodd" fill-opacity="1" stroke="#000000" stroke-opacity="1" stroke-width="3.2"/>
<circle clip-path="url(#clip992)" cx="1510.75" cy="637.959" r="14" fill="#009af9" fill-rule="evenodd" fill-opacity="1" stroke="#000000" stroke-opacity="1" stroke-width="3.2"/>
<circle clip-path="url(#clip992)" cx="1117.07" cy="585.479" r="14" fill="#009af9" fill-rule="evenodd" fill-opacity="1" stroke="#000000" stroke-opacity="1" stroke-width="3.2"/>
<circle clip-path="url(#clip992)" cx="1945.55" cy="584.138" r="14" fill="#009af9" fill-rule="evenodd" fill-opacity="1" stroke="#000000" stroke-opacity="1" stroke-width="3.2"/>
<circle clip-path="url(#clip992)" cx="1974.12" cy="547.471" r="14" fill="#009af9" fill-rule="evenodd" fill-opacity="1" stroke="#000000" stroke-opacity="1" stroke-width="3.2"/>
<circle clip-path="url(#clip992)" cx="1551.18" cy="792.812" r="14" fill="#009af9" fill-rule="evenodd" fill-opacity="1" stroke="#000000" stroke-opacity="1" stroke-width="3.2"/>
<circle clip-path="url(#clip992)" cx="1387.82" cy="249.29" r="14" fill="#009af9" fill-rule="evenodd" fill-opacity="1" stroke="#000000" stroke-opacity="1" stroke-width="3.2"/>
<circle clip-path="url(#clip992)" cx="1424.35" cy="720.62" r="14" fill="#009af9" fill-rule="evenodd" fill-opacity="1" stroke="#000000" stroke-opacity="1" stroke-width="3.2"/>
<circle clip-path="url(#clip992)" cx="1456.49" cy="449.258" r="14" fill="#009af9" fill-rule="evenodd" fill-opacity="1" stroke="#000000" stroke-opacity="1" stroke-width="3.2"/>
<circle clip-path="url(#clip992)" cx="1673.18" cy="710.965" r="14" fill="#009af9" fill-rule="evenodd" fill-opacity="1" stroke="#000000" stroke-opacity="1" stroke-width="3.2"/>
<circle clip-path="url(#clip992)" cx="1073" cy="852.705" r="14" fill="#009af9" fill-rule="evenodd" fill-opacity="1" stroke="#000000" stroke-opacity="1" stroke-width="3.2"/>
<circle clip-path="url(#clip992)" cx="1473.2" cy="682.455" r="14" fill="#009af9" fill-rule="evenodd" fill-opacity="1" stroke="#000000" stroke-opacity="1" stroke-width="3.2"/>
<circle clip-path="url(#clip992)" cx="896.59" cy="530.679" r="14" fill="#009af9" fill-rule="evenodd" fill-opacity="1" stroke="#000000" stroke-opacity="1" stroke-width="3.2"/>
<circle clip-path="url(#clip992)" cx="1407.01" cy="566.851" r="14" fill="#009af9" fill-rule="evenodd" fill-opacity="1" stroke="#000000" stroke-opacity="1" stroke-width="3.2"/>
<circle clip-path="url(#clip992)" cx="1929.36" cy="547.789" r="14" fill="#009af9" fill-rule="evenodd" fill-opacity="1" stroke="#000000" stroke-opacity="1" stroke-width="3.2"/>
<circle clip-path="url(#clip992)" cx="1301.42" cy="767.708" r="14" fill="#009af9" fill-rule="evenodd" fill-opacity="1" stroke="#000000" stroke-opacity="1" stroke-width="3.2"/>
<circle clip-path="url(#clip992)" cx="1555.85" cy="818.33" r="14" fill="#009af9" fill-rule="evenodd" fill-opacity="1" stroke="#000000" stroke-opacity="1" stroke-width="3.2"/>
<circle clip-path="url(#clip992)" cx="1516.97" cy="773.345" r="14" fill="#009af9" fill-rule="evenodd" fill-opacity="1" stroke="#000000" stroke-opacity="1" stroke-width="3.2"/>
<circle clip-path="url(#clip992)" cx="1491.23" cy="491.321" r="14" fill="#009af9" fill-rule="evenodd" fill-opacity="1" stroke="#000000" stroke-opacity="1" stroke-width="3.2"/>
<circle clip-path="url(#clip992)" cx="1169.88" cy="609.924" r="14" fill="#009af9" fill-rule="evenodd" fill-opacity="1" stroke="#000000" stroke-opacity="1" stroke-width="3.2"/>
<circle clip-path="url(#clip992)" cx="1869.07" cy="510.577" r="14" fill="#009af9" fill-rule="evenodd" fill-opacity="1" stroke="#000000" stroke-opacity="1" stroke-width="3.2"/>
<circle clip-path="url(#clip992)" cx="1177.17" cy="358.304" r="14" fill="#009af9" fill-rule="evenodd" fill-opacity="1" stroke="#000000" stroke-opacity="1" stroke-width="3.2"/>
<circle clip-path="url(#clip992)" cx="1324.8" cy="607.807" r="14" fill="#009af9" fill-rule="evenodd" fill-opacity="1" stroke="#000000" stroke-opacity="1" stroke-width="3.2"/>
<circle clip-path="url(#clip992)" cx="1286.45" cy="458.292" r="14" fill="#009af9" fill-rule="evenodd" fill-opacity="1" stroke="#000000" stroke-opacity="1" stroke-width="3.2"/>
<circle clip-path="url(#clip992)" cx="1322.64" cy="775.821" r="14" fill="#009af9" fill-rule="evenodd" fill-opacity="1" stroke="#000000" stroke-opacity="1" stroke-width="3.2"/>
<circle clip-path="url(#clip992)" cx="1651.83" cy="583.193" r="14" fill="#009af9" fill-rule="evenodd" fill-opacity="1" stroke="#000000" stroke-opacity="1" stroke-width="3.2"/>
<circle clip-path="url(#clip992)" cx="1981.18" cy="423.34" r="14" fill="#009af9" fill-rule="evenodd" fill-opacity="1" stroke="#000000" stroke-opacity="1" stroke-width="3.2"/>
<circle clip-path="url(#clip992)" cx="1912.21" cy="651.425" r="14" fill="#009af9" fill-rule="evenodd" fill-opacity="1" stroke="#000000" stroke-opacity="1" stroke-width="3.2"/>
<circle clip-path="url(#clip992)" cx="1484.02" cy="633.505" r="14" fill="#009af9" fill-rule="evenodd" fill-opacity="1" stroke="#000000" stroke-opacity="1" stroke-width="3.2"/>
<circle clip-path="url(#clip992)" cx="1719.44" cy="810.604" r="14" fill="#009af9" fill-rule="evenodd" fill-opacity="1" stroke="#000000" stroke-opacity="1" stroke-width="3.2"/>
<circle clip-path="url(#clip992)" cx="1571.78" cy="614.41" r="14" fill="#009af9" fill-rule="evenodd" fill-opacity="1" stroke="#000000" stroke-opacity="1" stroke-width="3.2"/>
<circle clip-path="url(#clip992)" cx="651.971" cy="1115.08" r="14" fill="#e26f46" fill-rule="evenodd" fill-opacity="1" stroke="#000000" stroke-opacity="1" stroke-width="3.2"/>
<circle clip-path="url(#clip992)" cx="589.509" cy="1204.56" r="14" fill="#e26f46" fill-rule="evenodd" fill-opacity="1" stroke="#000000" stroke-opacity="1" stroke-width="3.2"/>
<circle clip-path="url(#clip992)" cx="376.421" cy="1097.3" r="14" fill="#e26f46" fill-rule="evenodd" fill-opacity="1" stroke="#000000" stroke-opacity="1" stroke-width="3.2"/>
<circle clip-path="url(#clip992)" cx="563.863" cy="1139.46" r="14" fill="#e26f46" fill-rule="evenodd" fill-opacity="1" stroke="#000000" stroke-opacity="1" stroke-width="3.2"/>
<circle clip-path="url(#clip992)" cx="361.756" cy="1127.76" r="14" fill="#e26f46" fill-rule="evenodd" fill-opacity="1" stroke="#000000" stroke-opacity="1" stroke-width="3.2"/>
<circle clip-path="url(#clip992)" cx="526.346" cy="1138.17" r="14" fill="#e26f46" fill-rule="evenodd" fill-opacity="1" stroke="#000000" stroke-opacity="1" stroke-width="3.2"/>
<circle clip-path="url(#clip992)" cx="731.233" cy="1317.58" r="14" fill="#e26f46" fill-rule="evenodd" fill-opacity="1" stroke="#000000" stroke-opacity="1" stroke-width="3.2"/>
<circle clip-path="url(#clip992)" cx="512.683" cy="1282.64" r="14" fill="#e26f46" fill-rule="evenodd" fill-opacity="1" stroke="#000000" stroke-opacity="1" stroke-width="3.2"/>
<circle clip-path="url(#clip992)" cx="607.151" cy="1089.7" r="14" fill="#e26f46" fill-rule="evenodd" fill-opacity="1" stroke="#000000" stroke-opacity="1" stroke-width="3.2"/>
<circle clip-path="url(#clip992)" cx="789.07" cy="1373.24" r="14" fill="#e26f46" fill-rule="evenodd" fill-opacity="1" stroke="#000000" stroke-opacity="1" stroke-width="3.2"/>
<circle clip-path="url(#clip992)" cx="681.35" cy="1239.79" r="14" fill="#e26f46" fill-rule="evenodd" fill-opacity="1" stroke="#000000" stroke-opacity="1" stroke-width="3.2"/>
<circle clip-path="url(#clip992)" cx="771.118" cy="1226.87" r="14" fill="#e26f46" fill-rule="evenodd" fill-opacity="1" stroke="#000000" stroke-opacity="1" stroke-width="3.2"/>
<circle clip-path="url(#clip992)" cx="552.063" cy="1113.66" r="14" fill="#e26f46" fill-rule="evenodd" fill-opacity="1" stroke="#000000" stroke-opacity="1" stroke-width="3.2"/>
<circle clip-path="url(#clip992)" cx="555.491" cy="1056.06" r="14" fill="#e26f46" fill-rule="evenodd" fill-opacity="1" stroke="#000000" stroke-opacity="1" stroke-width="3.2"/>
<circle clip-path="url(#clip992)" cx="971.37" cy="1479.74" r="14" fill="#e26f46" fill-rule="evenodd" fill-opacity="1" stroke="#000000" stroke-opacity="1" stroke-width="3.2"/>
<circle clip-path="url(#clip992)" cx="559.342" cy="1150.43" r="14" fill="#e26f46" fill-rule="evenodd" fill-opacity="1" stroke="#000000" stroke-opacity="1" stroke-width="3.2"/>
<circle clip-path="url(#clip992)" cx="695.329" cy="1272.81" r="14" fill="#e26f46" fill-rule="evenodd" fill-opacity="1" stroke="#000000" stroke-opacity="1" stroke-width="3.2"/>
<circle clip-path="url(#clip992)" cx="774.042" cy="1340.36" r="14" fill="#e26f46" fill-rule="evenodd" fill-opacity="1" stroke="#000000" stroke-opacity="1" stroke-width="3.2"/>
<circle clip-path="url(#clip992)" cx="599.178" cy="1253.94" r="14" fill="#e26f46" fill-rule="evenodd" fill-opacity="1" stroke="#000000" stroke-opacity="1" stroke-width="3.2"/>
<circle clip-path="url(#clip992)" cx="628.804" cy="1221.56" r="14" fill="#e26f46" fill-rule="evenodd" fill-opacity="1" stroke="#000000" stroke-opacity="1" stroke-width="3.2"/>
<circle clip-path="url(#clip992)" cx="683.761" cy="1239.72" r="14" fill="#e26f46" fill-rule="evenodd" fill-opacity="1" stroke="#000000" stroke-opacity="1" stroke-width="3.2"/>
<circle clip-path="url(#clip992)" cx="565.116" cy="1253.65" r="14" fill="#e26f46" fill-rule="evenodd" fill-opacity="1" stroke="#000000" stroke-opacity="1" stroke-width="3.2"/>
<circle clip-path="url(#clip992)" cx="773.712" cy="1206.08" r="14" fill="#e26f46" fill-rule="evenodd" fill-opacity="1" stroke="#000000" stroke-opacity="1" stroke-width="3.2"/>
<circle clip-path="url(#clip992)" cx="358.109" cy="1088.47" r="14" fill="#e26f46" fill-rule="evenodd" fill-opacity="1" stroke="#000000" stroke-opacity="1" stroke-width="3.2"/>
<circle clip-path="url(#clip992)" cx="653.336" cy="1235.7" r="14" fill="#e26f46" fill-rule="evenodd" fill-opacity="1" stroke="#000000" stroke-opacity="1" stroke-width="3.2"/>
<circle clip-path="url(#clip992)" cx="548.295" cy="1373.53" r="14" fill="#e26f46" fill-rule="evenodd" fill-opacity="1" stroke="#000000" stroke-opacity="1" stroke-width="3.2"/>
<circle clip-path="url(#clip992)" cx="467.06" cy="1186.31" r="14" fill="#e26f46" fill-rule="evenodd" fill-opacity="1" stroke="#000000" stroke-opacity="1" stroke-width="3.2"/>
<circle clip-path="url(#clip992)" cx="353.763" cy="1097.46" r="14" fill="#e26f46" fill-rule="evenodd" fill-opacity="1" stroke="#000000" stroke-opacity="1" stroke-width="3.2"/>
<circle clip-path="url(#clip992)" cx="389.725" cy="1073.21" r="14" fill="#e26f46" fill-rule="evenodd" fill-opacity="1" stroke="#000000" stroke-opacity="1" stroke-width="3.2"/>
<circle clip-path="url(#clip992)" cx="277.78" cy="904.303" r="14" fill="#e26f46" fill-rule="evenodd" fill-opacity="1" stroke="#000000" stroke-opacity="1" stroke-width="3.2"/>
<circle clip-path="url(#clip992)" cx="690.754" cy="1323.15" r="14" fill="#e26f46" fill-rule="evenodd" fill-opacity="1" stroke="#000000" stroke-opacity="1" stroke-width="3.2"/>
<circle clip-path="url(#clip992)" cx="722.966" cy="1361.82" r="14" fill="#e26f46" fill-rule="evenodd" fill-opacity="1" stroke="#000000" stroke-opacity="1" stroke-width="3.2"/>
<circle clip-path="url(#clip992)" cx="144.325" cy="1047.72" r="14" fill="#e26f46" fill-rule="evenodd" fill-opacity="1" stroke="#000000" stroke-opacity="1" stroke-width="3.2"/>
<circle clip-path="url(#clip992)" cx="571.627" cy="1112.49" r="14" fill="#e26f46" fill-rule="evenodd" fill-opacity="1" stroke="#000000" stroke-opacity="1" stroke-width="3.2"/>
<circle clip-path="url(#clip992)" cx="788.222" cy="1363.13" r="14" fill="#e26f46" fill-rule="evenodd" fill-opacity="1" stroke="#000000" stroke-opacity="1" stroke-width="3.2"/>
<circle clip-path="url(#clip992)" cx="149.303" cy="859.048" r="14" fill="#e26f46" fill-rule="evenodd" fill-opacity="1" stroke="#000000" stroke-opacity="1" stroke-width="3.2"/>
<circle clip-path="url(#clip992)" cx="747.446" cy="1090.74" r="14" fill="#e26f46" fill-rule="evenodd" fill-opacity="1" stroke="#000000" stroke-opacity="1" stroke-width="3.2"/>
<circle clip-path="url(#clip992)" cx="743.076" cy="1344.88" r="14" fill="#e26f46" fill-rule="evenodd" fill-opacity="1" stroke="#000000" stroke-opacity="1" stroke-width="3.2"/>
<circle clip-path="url(#clip992)" cx="307.733" cy="880.071" r="14" fill="#e26f46" fill-rule="evenodd" fill-opacity="1" stroke="#000000" stroke-opacity="1" stroke-width="3.2"/>
<circle clip-path="url(#clip992)" cx="413.638" cy="1102.61" r="14" fill="#e26f46" fill-rule="evenodd" fill-opacity="1" stroke="#000000" stroke-opacity="1" stroke-width="3.2"/>
<circle clip-path="url(#clip992)" cx="684.183" cy="1224.61" r="14" fill="#e26f46" fill-rule="evenodd" fill-opacity="1" stroke="#000000" stroke-opacity="1" stroke-width="3.2"/>
<circle clip-path="url(#clip992)" cx="664.983" cy="1212.18" r="14" fill="#e26f46" fill-rule="evenodd" fill-opacity="1" stroke="#000000" stroke-opacity="1" stroke-width="3.2"/>
<circle clip-path="url(#clip992)" cx="729.743" cy="1147.09" r="14" fill="#e26f46" fill-rule="evenodd" fill-opacity="1" stroke="#000000" stroke-opacity="1" stroke-width="3.2"/>
<circle clip-path="url(#clip992)" cx="771.97" cy="1334.08" r="14" fill="#e26f46" fill-rule="evenodd" fill-opacity="1" stroke="#000000" stroke-opacity="1" stroke-width="3.2"/>
<circle clip-path="url(#clip992)" cx="489.673" cy="1218.41" r="14" fill="#e26f46" fill-rule="evenodd" fill-opacity="1" stroke="#000000" stroke-opacity="1" stroke-width="3.2"/>
<circle clip-path="url(#clip992)" cx="661.361" cy="1207.36" r="14" fill="#e26f46" fill-rule="evenodd" fill-opacity="1" stroke="#000000" stroke-opacity="1" stroke-width="3.2"/>
<circle clip-path="url(#clip992)" cx="393.563" cy="1073.86" r="14" fill="#e26f46" fill-rule="evenodd" fill-opacity="1" stroke="#000000" stroke-opacity="1" stroke-width="3.2"/>
<circle clip-path="url(#clip992)" cx="367.37" cy="1035.75" r="14" fill="#e26f46" fill-rule="evenodd" fill-opacity="1" stroke="#000000" stroke-opacity="1" stroke-width="3.2"/>
<circle clip-path="url(#clip992)" cx="461.815" cy="1074.5" r="14" fill="#e26f46" fill-rule="evenodd" fill-opacity="1" stroke="#000000" stroke-opacity="1" stroke-width="3.2"/>
<circle clip-path="url(#clip992)" cx="563.953" cy="1276.03" r="14" fill="#e26f46" fill-rule="evenodd" fill-opacity="1" stroke="#000000" stroke-opacity="1" stroke-width="3.2"/>
<circle clip-path="url(#clip992)" cx="670.732" cy="1233.91" r="14" fill="#e26f46" fill-rule="evenodd" fill-opacity="1" stroke="#000000" stroke-opacity="1" stroke-width="3.2"/>
<circle clip-path="url(#clip992)" cx="554.836" cy="1076.98" r="14" fill="#e26f46" fill-rule="evenodd" fill-opacity="1" stroke="#000000" stroke-opacity="1" stroke-width="3.2"/>
<circle clip-path="url(#clip992)" cx="575.771" cy="1203.9" r="14" fill="#e26f46" fill-rule="evenodd" fill-opacity="1" stroke="#000000" stroke-opacity="1" stroke-width="3.2"/>
<circle clip-path="url(#clip992)" cx="490.69" cy="1241.73" r="14" fill="#e26f46" fill-rule="evenodd" fill-opacity="1" stroke="#000000" stroke-opacity="1" stroke-width="3.2"/>
<circle clip-path="url(#clip992)" cx="884.953" cy="1176.57" r="14" fill="#e26f46" fill-rule="evenodd" fill-opacity="1" stroke="#000000" stroke-opacity="1" stroke-width="3.2"/>
<circle clip-path="url(#clip992)" cx="891.304" cy="1355.16" r="14" fill="#e26f46" fill-rule="evenodd" fill-opacity="1" stroke="#000000" stroke-opacity="1" stroke-width="3.2"/>
<circle clip-path="url(#clip992)" cx="354.101" cy="1011.49" r="14" fill="#e26f46" fill-rule="evenodd" fill-opacity="1" stroke="#000000" stroke-opacity="1" stroke-width="3.2"/>
<circle clip-path="url(#clip992)" cx="1046.17" cy="1427.27" r="14" fill="#e26f46" fill-rule="evenodd" fill-opacity="1" stroke="#000000" stroke-opacity="1" stroke-width="3.2"/>
<circle clip-path="url(#clip992)" cx="853.138" cy="1445.31" r="14" fill="#e26f46" fill-rule="evenodd" fill-opacity="1" stroke="#000000" stroke-opacity="1" stroke-width="3.2"/>
<circle clip-path="url(#clip992)" cx="408.987" cy="1052.22" r="14" fill="#e26f46" fill-rule="evenodd" fill-opacity="1" stroke="#000000" stroke-opacity="1" stroke-width="3.2"/>
<circle clip-path="url(#clip992)" cx="700.2" cy="1381.5" r="14" fill="#e26f46" fill-rule="evenodd" fill-opacity="1" stroke="#000000" stroke-opacity="1" stroke-width="3.2"/>
<circle clip-path="url(#clip992)" cx="806.724" cy="1359.72" r="14" fill="#e26f46" fill-rule="evenodd" fill-opacity="1" stroke="#000000" stroke-opacity="1" stroke-width="3.2"/>
<circle clip-path="url(#clip992)" cx="539.331" cy="1182.25" r="14" fill="#e26f46" fill-rule="evenodd" fill-opacity="1" stroke="#000000" stroke-opacity="1" stroke-width="3.2"/>
<circle clip-path="url(#clip992)" cx="240.315" cy="1062.83" r="14" fill="#e26f46" fill-rule="evenodd" fill-opacity="1" stroke="#000000" stroke-opacity="1" stroke-width="3.2"/>
<circle clip-path="url(#clip992)" cx="858.003" cy="1416.3" r="14" fill="#e26f46" fill-rule="evenodd" fill-opacity="1" stroke="#000000" stroke-opacity="1" stroke-width="3.2"/>
<circle clip-path="url(#clip992)" cx="859.845" cy="1289.95" r="14" fill="#e26f46" fill-rule="evenodd" fill-opacity="1" stroke="#000000" stroke-opacity="1" stroke-width="3.2"/>
<circle clip-path="url(#clip992)" cx="610.513" cy="1182.34" r="14" fill="#e26f46" fill-rule="evenodd" fill-opacity="1" stroke="#000000" stroke-opacity="1" stroke-width="3.2"/>
<circle clip-path="url(#clip992)" cx="339.3" cy="1066.5" r="14" fill="#e26f46" fill-rule="evenodd" fill-opacity="1" stroke="#000000" stroke-opacity="1" stroke-width="3.2"/>
<circle clip-path="url(#clip992)" cx="473.946" cy="1119.05" r="14" fill="#e26f46" fill-rule="evenodd" fill-opacity="1" stroke="#000000" stroke-opacity="1" stroke-width="3.2"/>
<circle clip-path="url(#clip992)" cx="542.671" cy="1173.01" r="14" fill="#e26f46" fill-rule="evenodd" fill-opacity="1" stroke="#000000" stroke-opacity="1" stroke-width="3.2"/>
<circle clip-path="url(#clip992)" cx="473.266" cy="1100.28" r="14" fill="#e26f46" fill-rule="evenodd" fill-opacity="1" stroke="#000000" stroke-opacity="1" stroke-width="3.2"/>
<circle clip-path="url(#clip992)" cx="472.505" cy="1137.63" r="14" fill="#e26f46" fill-rule="evenodd" fill-opacity="1" stroke="#000000" stroke-opacity="1" stroke-width="3.2"/>
<circle clip-path="url(#clip992)" cx="521.507" cy="1244.81" r="14" fill="#e26f46" fill-rule="evenodd" fill-opacity="1" stroke="#000000" stroke-opacity="1" stroke-width="3.2"/>
<circle clip-path="url(#clip992)" cx="353.041" cy="1045.29" r="14" fill="#e26f46" fill-rule="evenodd" fill-opacity="1" stroke="#000000" stroke-opacity="1" stroke-width="3.2"/>
<circle clip-path="url(#clip992)" cx="556.585" cy="1245.48" r="14" fill="#e26f46" fill-rule="evenodd" fill-opacity="1" stroke="#000000" stroke-opacity="1" stroke-width="3.2"/>
<circle clip-path="url(#clip992)" cx="576.517" cy="1151.89" r="14" fill="#e26f46" fill-rule="evenodd" fill-opacity="1" stroke="#000000" stroke-opacity="1" stroke-width="3.2"/>
<circle clip-path="url(#clip992)" cx="589.079" cy="1164.64" r="14" fill="#e26f46" fill-rule="evenodd" fill-opacity="1" stroke="#000000" stroke-opacity="1" stroke-width="3.2"/>
<circle clip-path="url(#clip992)" cx="570.059" cy="1127" r="14" fill="#e26f46" fill-rule="evenodd" fill-opacity="1" stroke="#000000" stroke-opacity="1" stroke-width="3.2"/>
<circle clip-path="url(#clip992)" cx="719.932" cy="1198.13" r="14" fill="#e26f46" fill-rule="evenodd" fill-opacity="1" stroke="#000000" stroke-opacity="1" stroke-width="3.2"/>
<circle clip-path="url(#clip992)" cx="517.027" cy="1149.35" r="14" fill="#e26f46" fill-rule="evenodd" fill-opacity="1" stroke="#000000" stroke-opacity="1" stroke-width="3.2"/>
<circle clip-path="url(#clip992)" cx="678.09" cy="1181.23" r="14" fill="#e26f46" fill-rule="evenodd" fill-opacity="1" stroke="#000000" stroke-opacity="1" stroke-width="3.2"/>
<circle clip-path="url(#clip992)" cx="412.601" cy="1176.56" r="14" fill="#e26f46" fill-rule="evenodd" fill-opacity="1" stroke="#000000" stroke-opacity="1" stroke-width="3.2"/>
<circle clip-path="url(#clip992)" cx="411.299" cy="1157.22" r="14" fill="#e26f46" fill-rule="evenodd" fill-opacity="1" stroke="#000000" stroke-opacity="1" stroke-width="3.2"/>
<circle clip-path="url(#clip992)" cx="512.994" cy="1215.77" r="14" fill="#e26f46" fill-rule="evenodd" fill-opacity="1" stroke="#000000" stroke-opacity="1" stroke-width="3.2"/>
<circle clip-path="url(#clip992)" cx="436.022" cy="1091.69" r="14" fill="#e26f46" fill-rule="evenodd" fill-opacity="1" stroke="#000000" stroke-opacity="1" stroke-width="3.2"/>
<circle clip-path="url(#clip992)" cx="578.545" cy="1085.65" r="14" fill="#e26f46" fill-rule="evenodd" fill-opacity="1" stroke="#000000" stroke-opacity="1" stroke-width="3.2"/>
<circle clip-path="url(#clip992)" cx="641.178" cy="1172.56" r="14" fill="#e26f46" fill-rule="evenodd" fill-opacity="1" stroke="#000000" stroke-opacity="1" stroke-width="3.2"/>
<circle clip-path="url(#clip992)" cx="449.543" cy="1145.87" r="14" fill="#e26f46" fill-rule="evenodd" fill-opacity="1" stroke="#000000" stroke-opacity="1" stroke-width="3.2"/>
<circle clip-path="url(#clip992)" cx="713.556" cy="1318.11" r="14" fill="#e26f46" fill-rule="evenodd" fill-opacity="1" stroke="#000000" stroke-opacity="1" stroke-width="3.2"/>
<circle clip-path="url(#clip992)" cx="558.453" cy="1203.8" r="14" fill="#e26f46" fill-rule="evenodd" fill-opacity="1" stroke="#000000" stroke-opacity="1" stroke-width="3.2"/>
<circle clip-path="url(#clip992)" cx="638.022" cy="1258.69" r="14" fill="#e26f46" fill-rule="evenodd" fill-opacity="1" stroke="#000000" stroke-opacity="1" stroke-width="3.2"/>
<circle clip-path="url(#clip992)" cx="478.183" cy="1134.87" r="14" fill="#e26f46" fill-rule="evenodd" fill-opacity="1" stroke="#000000" stroke-opacity="1" stroke-width="3.2"/>
<circle clip-path="url(#clip992)" cx="654.38" cy="1113.19" r="14" fill="#e26f46" fill-rule="evenodd" fill-opacity="1" stroke="#000000" stroke-opacity="1" stroke-width="3.2"/>
<circle clip-path="url(#clip992)" cx="709.533" cy="1310.78" r="14" fill="#e26f46" fill-rule="evenodd" fill-opacity="1" stroke="#000000" stroke-opacity="1" stroke-width="3.2"/>
<circle clip-path="url(#clip992)" cx="539.837" cy="1206.74" r="14" fill="#e26f46" fill-rule="evenodd" fill-opacity="1" stroke="#000000" stroke-opacity="1" stroke-width="3.2"/>
<circle clip-path="url(#clip992)" cx="841.387" cy="1257.26" r="14" fill="#e26f46" fill-rule="evenodd" fill-opacity="1" stroke="#000000" stroke-opacity="1" stroke-width="3.2"/>
<circle clip-path="url(#clip992)" cx="821.957" cy="1149.72" r="14" fill="#e26f46" fill-rule="evenodd" fill-opacity="1" stroke="#000000" stroke-opacity="1" stroke-width="3.2"/>
<circle clip-path="url(#clip992)" cx="495.347" cy="1113.25" r="14" fill="#e26f46" fill-rule="evenodd" fill-opacity="1" stroke="#000000" stroke-opacity="1" stroke-width="3.2"/>
<circle clip-path="url(#clip992)" cx="714.577" cy="1291.04" r="14" fill="#e26f46" fill-rule="evenodd" fill-opacity="1" stroke="#000000" stroke-opacity="1" stroke-width="3.2"/>
<circle clip-path="url(#clip992)" cx="585.965" cy="1291.32" r="14" fill="#e26f46" fill-rule="evenodd" fill-opacity="1" stroke="#000000" stroke-opacity="1" stroke-width="3.2"/>
<polyline clip-path="url(#clip992)" style="stroke:#090621; stroke-width:4; stroke-opacity:1; fill:none" points="
  464.443,1444.61 459.06,1440.56 448.103,1432.34 442.235,1427.93 431.763,1420.06 425.411,1415.29 415.423,1407.79 408.586,1402.66 399.083,1395.52 391.761,1390.02 
  382.743,1383.25 374.936,1377.39 366.403,1370.98 358.112,1364.75 350.063,1358.71 341.287,1352.12 333.723,1346.43 324.462,1339.48 317.383,1334.16 307.638,1326.84 
  301.043,1321.89 290.813,1314.21 284.702,1309.62 273.988,1301.57 268.362,1297.35 257.163,1288.94 
  "/>
<polyline clip-path="url(#clip992)" style="stroke:#1f0c47; stroke-width:4; stroke-opacity:1; fill:none" points="
  257.163,1133.27 263.221,1137.82 273.988,1145.91 279.562,1150.09 290.813,1158.54 295.902,1162.36 307.638,1171.18 312.242,1174.63 324.462,1183.81 328.582,1186.91 
  341.287,1196.45 344.922,1199.18 358.112,1209.08 361.262,1211.45 374.936,1221.72 377.602,1223.72 391.761,1234.35 393.942,1235.99 408.586,1246.99 410.282,1248.26 
  425.411,1259.62 426.622,1260.53 442.235,1272.26 442.962,1272.81 459.06,1284.9 459.303,1285.08 475.643,1297.35 475.885,1297.53 491.983,1309.62 492.71,1310.17 
  508.323,1321.89 509.534,1322.8 524.663,1334.16 526.359,1335.44 541.003,1346.43 543.184,1348.07 557.343,1358.71 560.009,1360.71 573.683,1370.98 576.833,1373.34 
  590.023,1383.25 593.658,1385.98 606.363,1395.52 610.483,1398.61 622.703,1407.79 627.308,1411.25 639.044,1420.06 644.132,1423.89 655.384,1432.34 660.957,1436.52 
  671.724,1444.61 
  "/>
<polyline clip-path="url(#clip992)" style="stroke:#3b0964; stroke-width:4; stroke-opacity:1; fill:none" points="
  879.004,1444.61 862.854,1432.48 862.664,1432.34 846.324,1420.06 846.029,1419.84 829.984,1407.79 829.205,1407.21 813.644,1395.52 812.38,1394.57 797.303,1383.25 
  795.555,1381.94 780.963,1370.98 778.73,1369.3 764.623,1358.71 761.906,1356.67 748.283,1346.43 745.081,1344.03 731.943,1334.16 728.256,1331.39 715.603,1321.89 
  711.431,1318.76 699.263,1309.62 694.607,1306.12 682.923,1297.35 677.782,1293.49 666.583,1285.08 660.957,1280.85 650.243,1272.81 644.132,1268.22 633.903,1260.53 
  627.308,1255.58 617.562,1248.26 610.483,1242.95 601.222,1235.99 593.658,1230.31 584.882,1223.72 576.833,1217.68 568.542,1211.45 560.009,1205.04 552.202,1199.18 
  543.184,1192.4 535.862,1186.91 526.359,1179.77 519.522,1174.63 509.534,1167.13 503.182,1162.36 492.71,1154.5 486.842,1150.09 475.885,1141.86 470.502,1137.82 
  459.06,1129.23 454.162,1125.55 442.235,1116.59 437.821,1113.28 425.411,1103.96 421.481,1101 408.586,1091.32 405.141,1088.73 391.761,1078.68 388.801,1076.46 
  374.936,1066.05 372.461,1064.19 358.112,1053.41 356.121,1051.92 341.287,1040.78 339.781,1039.65 324.462,1028.14 323.441,1027.38 307.638,1015.51 307.101,1015.1 
  290.813,1002.87 290.761,1002.83 274.421,990.561 273.988,990.236 258.08,978.29 257.163,977.601 
  "/>
<polyline clip-path="url(#clip992)" style="stroke:#550f6d; stroke-width:4; stroke-opacity:1; fill:none" points="
  257.163,821.932 269.28,831.032 273.988,834.568 285.62,843.303 290.813,847.203 301.96,855.575 307.638,859.839 318.3,867.846 324.462,872.474 334.64,880.118 
  341.287,885.11 350.98,892.389 358.112,897.745 367.32,904.661 374.936,910.38 383.66,916.932 391.761,923.016 400,929.204 408.586,935.651 416.34,941.475 
  425.411,948.287 432.681,953.747 442.235,960.922 449.021,966.018 459.06,973.558 465.361,978.29 475.885,986.193 481.701,990.561 492.71,998.829 498.041,1002.83 
  509.534,1011.46 514.381,1015.1 526.359,1024.1 530.721,1027.38 543.184,1036.74 547.061,1039.65 560.009,1049.37 563.401,1051.92 576.833,1062.01 579.741,1064.19 
  593.658,1074.64 596.081,1076.46 610.483,1087.28 612.421,1088.73 627.308,1099.91 628.762,1101 644.132,1112.55 645.102,1113.28 660.957,1125.18 661.442,1125.55 
  677.782,1137.82 677.782,1137.82 694.122,1150.09 694.607,1150.45 710.462,1162.36 711.431,1163.09 726.802,1174.63 728.256,1175.73 743.142,1186.91 745.081,1188.36 
  759.482,1199.18 761.906,1201 775.822,1211.45 778.73,1213.63 792.162,1223.72 795.555,1226.27 808.503,1235.99 812.38,1238.9 824.843,1248.26 829.205,1251.54 
  841.183,1260.53 846.029,1264.17 857.523,1272.81 862.854,1276.81 873.863,1285.08 879.679,1289.45 890.203,1297.35 896.504,1302.08 906.543,1309.62 913.328,1314.72 
  922.883,1321.89 930.153,1327.35 939.223,1334.16 946.978,1339.99 955.563,1346.43 963.802,1352.62 971.903,1358.71 980.627,1365.26 988.244,1370.98 997.452,1377.89 
  1004.58,1383.25 1014.28,1390.53 1020.92,1395.52 1031.1,1403.16 1037.26,1407.79 1047.93,1415.8 1053.6,1420.06 1064.75,1428.44 1069.94,1432.34 1081.58,1441.07 
  1086.28,1444.61 
  "/>
<polyline clip-path="url(#clip992)" style="stroke:#6e186e; stroke-width:4; stroke-opacity:1; fill:none" points="
  1293.56,1444.61 1283.47,1437.03 1277.22,1432.34 1266.65,1424.39 1260.88,1420.06 1249.82,1411.76 1244.54,1407.79 1233,1399.12 1228.2,1395.52 1216.17,1386.49 
  1211.86,1383.25 1199.35,1373.85 1195.52,1370.98 1182.52,1361.22 1179.18,1358.71 1165.7,1348.58 1162.84,1346.43 1148.87,1335.94 1146.5,1334.16 1132.05,1323.31 
  1130.16,1321.89 1115.23,1310.67 1113.82,1309.62 1098.4,1298.04 1097.48,1297.35 1081.58,1285.4 1081.14,1285.08 1064.8,1272.81 1064.75,1272.77 1048.46,1260.53 
  1047.93,1260.13 1032.12,1248.26 1031.1,1247.5 1015.78,1235.99 1014.28,1234.86 999.443,1223.72 997.452,1222.22 983.103,1211.45 980.627,1209.59 966.763,1199.18 
  963.802,1196.95 950.422,1186.91 946.978,1184.32 934.082,1174.63 930.153,1171.68 917.742,1162.36 913.328,1159.05 901.402,1150.09 896.504,1146.41 885.062,1137.82 
  879.679,1133.78 868.722,1125.55 862.854,1121.14 852.382,1113.28 846.029,1108.51 836.042,1101 829.205,1095.87 819.702,1088.73 812.38,1083.23 803.362,1076.46 
  795.555,1070.6 787.022,1064.19 778.73,1057.96 770.681,1051.92 761.906,1045.33 754.341,1039.65 745.081,1032.69 738.001,1027.38 728.256,1020.06 721.661,1015.1 
  711.431,1007.42 705.321,1002.83 694.607,994.786 688.981,990.561 677.782,982.151 672.641,978.29 660.957,969.515 656.301,966.018 644.132,956.88 639.961,953.747 
  627.308,944.244 623.621,941.475 610.483,931.609 607.281,929.204 593.658,918.973 590.94,916.932 576.833,906.338 574.6,904.661 560.009,893.702 558.26,892.389 
  543.184,881.067 541.92,880.118 526.359,868.431 525.58,867.846 509.534,855.796 509.24,855.575 492.9,843.303 492.71,843.16 476.56,831.032 475.885,830.525 
  460.22,818.76 459.06,817.889 443.88,806.488 442.235,805.254 427.54,794.217 425.411,792.618 411.199,781.945 408.586,779.983 394.859,769.674 391.761,767.347 
  378.519,757.402 374.936,754.712 362.179,745.131 358.112,742.076 345.839,732.859 341.287,729.441 329.499,720.588 324.462,716.805 313.159,708.316 307.638,704.17 
  296.819,696.045 290.813,691.534 280.479,683.773 273.988,678.899 264.139,671.502 257.163,666.263 
  "/>
<polyline clip-path="url(#clip992)" style="stroke:#88216a; stroke-width:4; stroke-opacity:1; fill:none" points="
  257.163,510.595 258.998,511.972 273.988,523.23 275.338,524.244 290.813,535.866 291.678,536.515 307.638,548.501 308.018,548.787 324.358,561.058 324.462,561.137 
  340.698,573.33 341.287,573.772 357.038,585.601 358.112,586.408 373.378,597.873 374.936,599.043 389.718,610.144 391.761,611.678 406.058,622.416 408.586,624.314 
  422.399,634.687 425.411,636.949 438.739,646.959 442.235,649.585 455.079,659.23 459.06,662.22 471.419,671.502 475.885,674.856 487.759,683.773 492.71,687.491 
  504.099,696.045 509.534,700.127 520.439,708.316 526.359,712.762 536.779,720.588 543.184,725.398 553.119,732.859 560.009,738.033 569.459,745.131 576.833,750.669 
  585.799,757.402 593.658,763.304 602.14,769.674 610.483,775.94 618.48,781.945 627.308,788.575 634.82,794.217 644.132,801.211 651.16,806.488 660.957,813.846 
  667.5,818.76 677.782,826.482 683.84,831.032 694.607,839.117 700.18,843.303 711.431,851.753 716.52,855.575 728.256,864.388 732.86,867.846 745.081,877.024 
  749.2,880.118 761.906,889.659 765.54,892.389 778.73,902.295 781.881,904.661 795.555,914.93 798.221,916.932 812.38,927.566 814.561,929.204 829.205,940.201 
  830.901,941.475 846.029,952.837 847.241,953.747 862.854,965.472 863.581,966.018 879.679,978.108 879.921,978.29 896.261,990.561 896.504,990.743 912.601,1002.83 
  913.328,1003.38 928.941,1015.1 930.153,1016.01 945.281,1027.38 946.978,1028.65 961.622,1039.65 963.802,1041.29 977.962,1051.92 980.627,1053.92 994.302,1064.19 
  997.452,1066.56 1010.64,1076.46 1014.28,1079.19 1026.98,1088.73 1031.1,1091.83 1043.32,1101 1047.93,1104.46 1059.66,1113.28 1064.75,1117.1 1076,1125.55 
  1081.58,1129.73 1092.34,1137.82 1098.4,1142.37 1108.68,1150.09 1115.23,1155 1125.02,1162.36 1132.05,1167.64 1141.36,1174.63 1148.87,1180.28 1157.7,1186.91 
  1165.7,1192.91 1174.04,1199.18 1182.52,1205.55 1190.38,1211.45 1199.35,1218.18 1206.72,1223.72 1216.17,1230.82 1223.06,1235.99 1233,1243.45 1239.4,1248.26 
  1249.82,1256.09 1255.74,1260.53 1266.65,1268.72 1272.08,1272.81 1283.47,1281.36 1288.42,1285.08 1300.3,1293.99 1304.76,1297.35 1317.12,1306.63 1321.1,1309.62 
  1333.95,1319.27 1337.44,1321.89 1350.77,1331.9 1353.78,1334.16 1367.6,1344.54 1370.12,1346.43 1384.42,1357.17 1386.46,1358.71 1401.25,1369.81 1402.8,1370.98 
  1418.07,1382.44 1419.14,1383.25 1434.9,1395.08 1435.48,1395.52 1451.72,1407.71 1451.82,1407.79 1468.16,1420.06 1468.54,1420.35 1484.5,1432.34 1485.37,1432.99 
  1500.84,1444.61 
  "/>
<polyline clip-path="url(#clip992)" style="stroke:#a12b61; stroke-width:4; stroke-opacity:1; fill:none" points="
  1708.12,1444.61 1704.09,1441.58 1691.78,1432.34 1687.27,1428.94 1675.44,1420.06 1670.44,1416.31 1659.1,1407.79 1653.62,1403.67 1642.76,1395.52 1636.79,1391.04 
  1626.42,1383.25 1619.97,1378.4 1610.08,1370.98 1603.14,1365.76 1593.74,1358.71 1586.32,1353.13 1577.4,1346.43 1569.49,1340.49 1561.06,1334.16 1552.67,1327.86 
  1544.72,1321.89 1535.84,1315.22 1528.38,1309.62 1519.02,1302.59 1512.04,1297.35 1502.19,1289.95 1495.7,1285.08 1485.37,1277.32 1479.36,1272.81 1468.54,1264.68 
  1463.02,1260.53 1451.72,1252.05 1446.68,1248.26 1434.9,1239.41 1430.34,1235.99 1418.07,1226.77 1414,1223.72 1401.25,1214.14 1397.66,1211.45 1384.42,1201.5 
  1381.32,1199.18 1367.6,1188.87 1364.98,1186.91 1350.77,1176.23 1348.64,1174.63 1333.95,1163.6 1332.3,1162.36 1317.12,1150.96 1315.96,1150.09 1300.3,1138.33 
  1299.62,1137.82 1283.47,1125.69 1283.28,1125.55 1266.94,1113.28 1266.65,1113.06 1250.6,1101 1249.82,1100.42 1234.26,1088.73 1233,1087.78 1217.92,1076.46 
  1216.17,1075.15 1201.58,1064.19 1199.35,1062.51 1185.24,1051.92 1182.52,1049.88 1168.9,1039.65 1165.7,1037.24 1152.56,1027.38 1148.87,1024.61 1136.22,1015.1 
  1132.05,1011.97 1119.88,1002.83 1115.23,999.336 1103.54,990.561 1098.4,986.7 1087.2,978.29 1081.58,974.065 1070.86,966.018 1064.75,961.429 1054.52,953.747 
  1047.93,948.794 1038.18,941.475 1031.1,936.158 1021.84,929.204 1014.28,923.523 1005.5,916.932 997.452,910.887 989.161,904.661 980.627,898.252 972.821,892.389 
  963.802,885.616 956.481,880.118 946.978,872.981 940.14,867.846 930.153,860.345 923.8,855.575 913.328,847.71 907.46,843.303 896.504,835.074 891.12,831.032 
  879.679,822.439 874.78,818.76 862.854,809.803 858.44,806.488 846.029,797.168 842.1,794.217 829.205,784.532 825.76,781.945 812.38,771.897 809.42,769.674 
  795.555,759.261 793.08,757.402 778.73,746.626 776.74,745.131 761.906,733.99 760.4,732.859 745.081,721.355 744.059,720.588 728.256,708.72 727.719,708.316 
  711.431,696.084 711.379,696.045 695.039,683.773 694.607,683.449 678.699,671.502 677.782,670.813 662.359,659.23 660.957,658.178 646.019,646.959 644.132,645.542 
  629.679,634.687 627.308,632.907 613.339,622.416 610.483,620.271 596.999,610.144 593.658,607.636 580.659,597.873 576.833,595 564.318,585.601 560.009,582.365 
  547.978,573.33 543.184,569.729 531.638,561.058 526.359,557.094 515.298,548.787 509.534,544.458 498.958,536.515 492.71,531.823 482.618,524.244 475.885,519.187 
  466.278,511.972 459.06,506.552 449.938,499.701 442.235,493.916 433.598,487.429 425.411,481.281 417.258,475.158 408.586,468.645 400.918,462.886 391.761,456.01 
  384.577,450.615 374.936,443.374 368.237,438.343 358.112,430.739 351.897,426.072 341.287,418.103 335.557,413.8 324.462,405.468 319.217,401.529 307.638,392.832 
  302.877,389.257 290.813,380.197 286.537,376.986 273.988,367.561 270.197,364.714 257.163,354.926 
  "/>
<polyline clip-path="url(#clip992)" style="stroke:#ba3655; stroke-width:4; stroke-opacity:1; fill:none" points="
  281.396,217.456 290.813,224.528 297.736,229.727 307.638,237.164 314.076,241.999 324.462,249.799 330.416,254.271 341.287,262.435 346.756,266.542 358.112,275.07 
  363.096,278.814 374.936,287.706 379.436,291.085 391.761,300.341 395.777,303.357 408.586,312.976 412.117,315.628 425.411,325.612 428.457,327.9 442.235,338.247 
  444.797,340.171 459.06,350.883 461.137,352.443 475.885,363.518 477.477,364.714 492.71,376.154 493.817,376.986 509.534,388.789 510.157,389.257 526.359,401.425 
  526.497,401.529 542.837,413.8 543.184,414.06 559.177,426.072 560.009,426.696 575.518,438.343 576.833,439.331 591.858,450.615 593.658,451.967 608.198,462.886 
  610.483,464.602 624.538,475.158 627.308,477.238 640.878,487.429 644.132,489.873 657.218,499.701 660.957,502.509 673.558,511.972 677.782,515.144 689.898,524.244 
  694.607,527.78 706.238,536.515 711.431,540.415 722.578,548.787 728.256,553.051 738.918,561.058 745.081,565.686 755.259,573.33 761.906,578.322 771.599,585.601 
  778.73,590.957 787.939,597.873 795.555,603.593 804.279,610.144 812.38,616.228 820.619,622.416 829.205,628.864 836.959,634.687 846.029,641.499 853.299,646.959 
  862.854,654.135 869.639,659.23 879.679,666.77 885.979,671.502 896.504,679.406 902.319,683.773 913.328,692.041 918.659,696.045 930.153,704.677 935,708.316 
  946.978,717.312 951.34,720.588 963.802,729.948 967.68,732.859 980.627,742.583 984.02,745.131 997.452,755.219 1000.36,757.402 1014.28,767.854 1016.7,769.674 
  1031.1,780.49 1033.04,781.945 1047.93,793.125 1049.38,794.217 1064.75,805.761 1065.72,806.488 1081.58,818.396 1082.06,818.76 1098.4,831.032 1098.4,831.032 
  1114.74,843.303 1115.23,843.667 1131.08,855.575 1132.05,856.302 1147.42,867.846 1148.87,868.938 1163.76,880.118 1165.7,881.573 1180.1,892.389 1182.52,894.209 
  1196.44,904.661 1199.35,906.844 1212.78,916.932 1216.17,919.48 1229.12,929.204 1233,932.115 1245.46,941.475 1249.82,944.751 1261.8,953.747 1266.65,957.386 
  1278.14,966.018 1283.47,970.022 1294.48,978.29 1300.3,982.657 1310.82,990.561 1317.12,995.293 1327.16,1002.83 1333.95,1007.93 1343.5,1015.1 1350.77,1020.56 
  1359.84,1027.38 1367.6,1033.2 1376.18,1039.65 1384.42,1045.83 1392.52,1051.92 1401.25,1058.47 1408.86,1064.19 1418.07,1071.11 1425.2,1076.46 1434.9,1083.74 
  1441.54,1088.73 1451.72,1096.38 1457.88,1101 1468.54,1109.01 1474.22,1113.28 1485.37,1121.65 1490.56,1125.55 1502.19,1134.28 1506.9,1137.82 1519.02,1146.92 
  1523.24,1150.09 1535.84,1159.55 1539.58,1162.36 1552.67,1172.19 1555.92,1174.63 1569.49,1184.83 1572.26,1186.91 1586.32,1197.46 1588.6,1199.18 1603.14,1210.1 
  1604.94,1211.45 1619.97,1222.73 1621.28,1223.72 1636.79,1235.37 1637.62,1235.99 1653.62,1248 1653.96,1248.26 1670.3,1260.53 1670.44,1260.64 1686.64,1272.81 
  1687.27,1273.27 1702.98,1285.08 1704.09,1285.91 1719.32,1297.35 1720.92,1298.54 1735.66,1309.62 1737.74,1311.18 1752,1321.89 1754.57,1323.82 1768.34,1334.16 
  1771.39,1336.45 1784.68,1346.43 1788.21,1349.09 1801.02,1358.71 1805.04,1361.72 1817.36,1370.98 1821.86,1374.36 1833.7,1383.25 1838.69,1386.99 1850.04,1395.52 
  1855.51,1399.63 1866.38,1407.79 1872.34,1412.26 1882.72,1420.06 1889.16,1424.9 1899.06,1432.34 1905.99,1437.53 1915.4,1444.61 
  "/>
<polyline clip-path="url(#clip992)" style="stroke:#d04544; stroke-width:4; stroke-opacity:1; fill:none" points="
  1939.64,1307.14 1926.6,1297.35 1922.81,1294.5 1910.26,1285.08 1905.99,1281.87 1893.92,1272.81 1889.16,1269.23 1877.58,1260.53 1872.34,1256.6 1861.24,1248.26 
  1855.51,1243.96 1844.9,1235.99 1838.69,1231.32 1828.56,1223.72 1821.86,1218.69 1812.22,1211.45 1805.04,1206.05 1795.88,1199.18 1788.21,1193.42 1779.54,1186.91 
  1771.39,1180.78 1763.2,1174.63 1754.57,1168.15 1746.86,1162.36 1737.74,1155.51 1730.52,1150.09 1720.92,1142.88 1714.18,1137.82 1704.09,1130.24 1697.84,1125.55 
  1687.27,1117.6 1681.5,1113.28 1670.44,1104.97 1665.16,1101 1653.62,1092.33 1648.82,1088.73 1636.79,1079.7 1632.48,1076.46 1619.97,1067.06 1616.14,1064.19 
  1603.14,1054.43 1599.8,1051.92 1586.32,1041.79 1583.46,1039.65 1569.49,1029.16 1567.12,1027.38 1552.67,1016.52 1550.78,1015.1 1535.84,1003.89 1534.44,1002.83 
  1519.02,991.25 1518.1,990.561 1502.19,978.614 1501.76,978.29 1485.42,966.018 1485.37,965.979 1469.08,953.747 1468.54,953.344 1452.74,941.475 1451.72,940.708 
  1436.4,929.204 1434.9,928.073 1420.06,916.932 1418.07,915.437 1403.72,904.661 1401.25,902.802 1387.38,892.389 1384.42,890.166 1371.04,880.118 1367.6,877.531 
  1354.7,867.846 1350.77,864.895 1338.36,855.575 1333.95,852.26 1322.02,843.303 1317.12,839.624 1305.68,831.032 1300.3,826.989 1289.34,818.76 1283.47,814.353 
  1273,806.488 1266.65,801.718 1256.66,794.217 1249.82,789.082 1240.32,781.945 1233,776.447 1223.98,769.674 1216.17,763.811 1207.64,757.402 1199.35,751.176 
  1191.3,745.131 1182.52,738.54 1174.96,732.859 1165.7,725.905 1158.62,720.588 1148.87,713.269 1142.28,708.316 1132.05,700.634 1125.94,696.045 1115.23,687.998 
  1109.6,683.773 1098.4,675.363 1093.26,671.502 1081.58,662.727 1076.92,659.23 1064.75,650.092 1060.58,646.959 1047.93,637.456 1044.24,634.687 1031.1,624.821 
  1027.9,622.416 1014.28,612.185 1011.56,610.144 997.452,599.55 995.219,597.873 980.627,586.914 978.879,585.601 963.802,574.279 962.539,573.33 946.978,561.643 
  946.199,561.058 930.153,549.008 929.859,548.787 913.518,536.515 913.328,536.372 897.178,524.244 896.504,523.737 880.838,511.972 879.679,511.101 864.498,499.701 
  862.854,498.466 848.158,487.429 846.029,485.83 831.818,475.158 829.205,473.195 815.478,462.886 812.38,460.559 799.138,450.615 795.555,447.924 782.798,438.343 
  778.73,435.288 766.458,426.072 761.906,422.653 750.118,413.8 745.081,410.018 733.777,401.529 728.256,397.382 717.437,389.257 711.431,384.747 701.097,376.986 
  694.607,372.111 684.757,364.714 677.782,359.476 668.417,352.443 660.957,346.84 652.077,340.171 644.132,334.205 635.737,327.9 627.308,321.569 619.397,315.628 
  610.483,308.934 603.057,303.357 593.658,296.298 586.717,291.085 576.833,283.663 570.377,278.814 560.009,271.027 554.036,266.542 543.184,258.392 537.696,254.271 
  526.359,245.756 521.356,241.999 509.534,233.121 505.016,229.727 492.71,220.485 488.676,217.456 
  "/>
<polyline clip-path="url(#clip992)" style="stroke:#e35832; stroke-width:4; stroke-opacity:1; fill:none" points="
  695.956,217.456 711.431,229.078 712.296,229.727 728.256,241.713 728.637,241.999 744.977,254.271 745.081,254.349 761.317,266.542 761.906,266.984 777.657,278.814 
  778.73,279.62 793.997,291.085 795.555,292.255 810.337,303.357 812.38,304.891 826.677,315.628 829.205,317.526 843.017,327.9 846.029,330.162 859.357,340.171 
  862.854,342.797 875.697,352.443 879.679,355.433 892.037,364.714 896.504,368.068 908.378,376.986 913.328,380.704 924.718,389.257 930.153,393.339 941.058,401.529 
  946.978,405.975 957.398,413.8 963.802,418.61 973.738,426.072 980.627,431.246 990.078,438.343 997.452,443.881 1006.42,450.615 1014.28,456.517 1022.76,462.886 
  1031.1,469.152 1039.1,475.158 1047.93,481.788 1055.44,487.429 1064.75,494.423 1071.78,499.701 1081.58,507.059 1088.12,511.972 1098.4,519.694 1104.46,524.244 
  1115.23,532.33 1120.8,536.515 1132.05,544.965 1137.14,548.787 1148.87,557.6 1153.48,561.058 1165.7,570.236 1169.82,573.33 1182.52,582.871 1186.16,585.601 
  1199.35,595.507 1202.5,597.873 1216.17,608.142 1218.84,610.144 1233,620.778 1235.18,622.416 1249.82,633.413 1251.52,634.687 1266.65,646.049 1267.86,646.959 
  1283.47,658.684 1284.2,659.23 1300.3,671.32 1300.54,671.502 1316.88,683.773 1317.12,683.955 1333.22,696.045 1333.95,696.591 1349.56,708.316 1350.77,709.226 
  1365.9,720.588 1367.6,721.862 1382.24,732.859 1384.42,734.497 1398.58,745.131 1401.25,747.133 1414.92,757.402 1418.07,759.768 1431.26,769.674 1434.9,772.404 
  1447.6,781.945 1451.72,785.039 1463.94,794.217 1468.54,797.675 1480.28,806.488 1485.37,810.31 1496.62,818.76 1502.19,822.946 1512.96,831.032 1519.02,835.581 
  1529.3,843.303 1535.84,848.217 1545.64,855.575 1552.67,860.852 1561.98,867.846 1569.49,873.488 1578.32,880.118 1586.32,886.123 1594.66,892.389 1603.14,898.759 
  1611,904.661 1619.97,911.394 1627.34,916.932 1636.79,924.03 1643.68,929.204 1653.62,936.665 1660.02,941.475 1670.44,949.301 1676.36,953.747 1687.27,961.936 
  1692.7,966.018 1704.09,974.572 1709.04,978.29 1720.92,987.207 1725.38,990.561 1737.74,999.843 1741.72,1002.83 1754.57,1012.48 1758.06,1015.1 1771.39,1025.11 
  1774.4,1027.38 1788.21,1037.75 1790.74,1039.65 1805.04,1050.38 1807.08,1051.92 1821.86,1063.02 1823.42,1064.19 1838.69,1075.66 1839.76,1076.46 1855.51,1088.29 
  1856.1,1088.73 1872.34,1100.93 1872.44,1101 1888.78,1113.28 1889.16,1113.56 1905.12,1125.55 1905.99,1126.2 1921.46,1137.82 1922.81,1138.83 1937.8,1150.09 
  1939.64,1151.47 
  "/>
<polyline clip-path="url(#clip992)" style="stroke:#f0701e; stroke-width:4; stroke-opacity:1; fill:none" points="
  1939.64,995.8 1932.66,990.561 1922.81,983.164 1916.32,978.29 1905.99,970.529 1899.98,966.018 1889.16,957.893 1883.64,953.747 1872.34,945.258 1867.3,941.475 
  1855.51,932.622 1850.96,929.204 1838.69,919.987 1834.62,916.932 1821.86,907.351 1818.28,904.661 1805.04,894.716 1801.94,892.389 1788.21,882.08 1785.6,880.118 
  1771.39,869.445 1769.26,867.846 1754.57,856.809 1752.92,855.575 1737.74,844.174 1736.58,843.303 1720.92,831.538 1720.24,831.032 1704.09,818.903 1703.9,818.76 
  1687.56,806.488 1687.27,806.267 1671.22,794.217 1670.44,793.632 1654.88,781.945 1653.62,780.996 1638.54,769.674 1636.79,768.361 1622.2,757.402 1619.97,755.725 
  1605.86,745.131 1603.14,743.09 1589.52,732.859 1586.32,730.454 1573.18,720.588 1569.49,717.819 1556.84,708.316 1552.67,705.183 1540.5,696.045 1535.84,692.548 
  1524.16,683.773 1519.02,679.912 1507.82,671.502 1502.19,667.277 1491.48,659.23 1485.37,654.642 1475.14,646.959 1468.54,642.006 1458.8,634.687 1451.72,629.371 
  1442.46,622.416 1434.9,616.735 1426.12,610.144 1418.07,604.1 1409.78,597.873 1401.25,591.464 1393.44,585.601 1384.42,578.829 1377.1,573.33 1367.6,566.193 
  1360.76,561.058 1350.77,553.558 1344.42,548.787 1333.95,540.922 1328.08,536.515 1317.12,528.287 1311.74,524.244 1300.3,515.651 1295.4,511.972 1283.47,503.016 
  1279.06,499.701 1266.65,490.38 1262.72,487.429 1249.82,477.745 1246.38,475.158 1233,465.109 1230.04,462.886 1216.17,452.474 1213.7,450.615 1199.35,439.838 
  1197.36,438.343 1182.52,427.203 1181.02,426.072 1165.7,414.567 1164.68,413.8 1148.87,401.932 1148.34,401.529 1132.05,389.296 1132,389.257 1115.66,376.986 
  1115.23,376.661 1099.32,364.714 1098.4,364.025 1082.98,352.443 1081.58,351.39 1066.64,340.171 1064.75,338.754 1050.3,327.9 1047.93,326.119 1033.96,315.628 
  1031.1,313.483 1017.62,303.357 1014.28,300.848 1001.28,291.085 997.452,288.212 984.937,278.814 980.627,275.577 968.597,266.542 963.802,262.941 952.257,254.271 
  946.978,250.306 935.917,241.999 930.153,237.67 919.577,229.727 913.328,225.035 903.237,217.456 
  "/>
<polyline clip-path="url(#clip992)" style="stroke:#f98c09; stroke-width:4; stroke-opacity:1; fill:none" points="
  1110.52,217.456 1115.23,220.992 1126.86,229.727 1132.05,233.628 1143.2,241.999 1148.87,246.263 1159.54,254.271 1165.7,258.898 1175.88,266.542 1182.52,271.534 
  1192.22,278.814 1199.35,284.169 1208.56,291.085 1216.17,296.805 1224.9,303.357 1233,309.44 1241.24,315.628 1249.82,322.076 1257.58,327.9 1266.65,334.711 
  1273.92,340.171 1283.47,347.347 1290.26,352.443 1300.3,359.982 1306.6,364.714 1317.12,372.618 1322.94,376.986 1333.95,385.253 1339.28,389.257 1350.77,397.889 
  1355.62,401.529 1367.6,410.524 1371.96,413.8 1384.42,423.16 1388.3,426.072 1401.25,435.795 1404.64,438.343 1418.07,448.431 1420.98,450.615 1434.9,461.066 
  1437.32,462.886 1451.72,473.702 1453.66,475.158 1468.54,486.337 1470,487.429 1485.37,498.973 1486.34,499.701 1502.19,511.608 1502.68,511.972 1519.02,524.244 
  1535.36,536.515 1535.84,536.879 1551.7,548.787 1552.67,549.515 1568.04,561.058 1569.49,562.15 1584.38,573.33 1586.32,574.786 1600.72,585.601 
  1603.14,587.421 1617.06,597.873 1619.97,600.057 1633.4,610.144 1636.79,612.692 1649.74,622.416 1653.62,625.328 1666.08,634.687 1670.44,637.963 1682.42,646.959 
  1687.27,650.599 1698.76,659.23 1704.09,663.234 1715.1,671.502 1720.92,675.87 1731.44,683.773 1737.74,688.505 1747.78,696.045 1754.57,701.141 1764.12,708.316 
  1771.39,713.776 1780.46,720.588 1788.21,726.412 1796.8,732.859 1805.04,739.047 1813.14,745.131 1821.86,751.683 1829.48,757.402 1838.69,764.318 1845.82,769.674 
  1855.51,776.954 1862.16,781.945 1872.34,789.589 1878.5,794.217 1889.16,802.224 1894.84,806.488 1905.99,814.86 1911.18,818.76 1922.81,827.495 1927.52,831.032 
  1939.64,840.131 
  "/>
<polyline clip-path="url(#clip992)" style="stroke:#fbaa0e; stroke-width:4; stroke-opacity:1; fill:none" points="
  1939.64,684.462 1938.72,683.773 1922.81,671.827 1922.38,671.502 1906.04,659.23 1905.99,659.191 1889.7,646.959 1889.16,646.556 1873.36,634.687 1872.34,633.92 
  1857.02,622.416 1855.51,621.285 1840.68,610.144 1838.69,608.649 1824.34,597.873 1821.86,596.014 1808,585.601 1805.04,583.378 1791.66,573.33 1788.21,570.743 
  1775.32,561.058 1771.39,558.107 1758.98,548.787 1754.57,545.472 1742.64,536.515 1737.74,532.836 1726.3,524.244 1720.92,520.201 1709.96,511.972 1704.09,507.565 
  1693.62,499.701 1687.27,494.93 1677.28,487.429 1670.44,482.294 1660.94,475.158 1653.62,469.659 1644.6,462.886 1636.79,457.023 1628.26,450.615 1619.97,444.388 
  1611.92,438.343 1603.14,431.752 1595.58,426.072 1586.32,419.117 1579.24,413.8 1569.49,406.481 1562.9,401.529 1552.67,393.846 1546.56,389.257 1535.84,381.21 
  1530.22,376.986 1519.02,368.575 1513.88,364.714 1502.19,355.94 1497.54,352.443 1485.37,343.304 1481.2,340.171 1468.54,330.669 1464.86,327.9 1451.72,318.033 
  1448.52,315.628 1434.9,305.398 1432.18,303.357 1418.07,292.762 1415.84,291.085 1401.25,280.127 1399.5,278.814 1384.42,267.491 1383.16,266.542 1367.6,254.856 
  1366.82,254.271 1350.77,242.22 1350.48,241.999 1334.14,229.727 1333.95,229.585 1317.8,217.456 
  "/>
<polyline clip-path="url(#clip992)" style="stroke:#f8c931; stroke-width:4; stroke-opacity:1; fill:none" points="
  1525.08,217.456 1535.84,225.542 1541.42,229.727 1552.67,238.177 1557.76,241.999 1569.49,250.813 1574.1,254.271 1586.32,263.448 1590.44,266.542 1603.14,276.084 
  1606.78,278.814 1619.97,288.719 1623.12,291.085 1636.79,301.355 1639.46,303.357 1653.62,313.99 1655.8,315.628 1670.44,326.626 1672.14,327.9 1687.27,339.261 
  1688.48,340.171 1704.09,351.897 1704.82,352.443 1720.92,364.532 1721.16,364.714 1737.5,376.986 1737.74,377.168 1753.84,389.257 1754.57,389.803 1770.18,401.529 
  1771.39,402.439 1786.52,413.8 1788.21,415.074 1802.86,426.072 1805.04,427.71 1819.2,438.343 1821.86,440.345 1835.54,450.615 1838.69,452.981 1851.88,462.886 
  1855.51,465.616 1868.22,475.158 1872.34,478.252 1884.56,487.429 1889.16,490.887 1900.9,499.701 1905.99,503.522 1917.24,511.972 1922.81,516.158 1933.58,524.244 
  1939.64,528.793 
  "/>
<polyline clip-path="url(#clip992)" style="stroke:#f1e864; stroke-width:4; stroke-opacity:1; fill:none" points="
  1939.64,373.125 1928.44,364.714 1922.81,360.489 1912.1,352.443 1905.99,347.854 1895.76,340.171 1889.16,335.218 1879.42,327.9 1872.34,322.583 1863.08,315.628 
  1855.51,309.947 1846.74,303.357 1838.69,297.312 1830.4,291.085 1821.86,284.676 1814.06,278.814 1805.04,272.041 1797.72,266.542 1788.21,259.405 1781.38,254.271 
  1771.39,246.77 1765.04,241.999 1754.57,234.134 1748.7,229.727 1737.74,221.499 1732.36,217.456 
  "/>
<defs>
  <clipPath id="clip993">
    <rect x="2160" y="62" width="73" height="1459"/>
  </clipPath>
</defs>
<polyline clip-path="url(#clip993)" style="stroke:#0a0723; stroke-width:4; stroke-opacity:1; fill:none" points="
  2160.76,1429.88 2232.76,1429.88 
  "/>
<polyline clip-path="url(#clip993)" style="stroke:#200c4a; stroke-width:4; stroke-opacity:1; fill:none" points="
  2160.76,1338.76 2232.76,1338.76 
  "/>
<polyline clip-path="url(#clip993)" style="stroke:#3c0965; stroke-width:4; stroke-opacity:1; fill:none" points="
  2160.76,1247.63 2232.76,1247.63 
  "/>
<polyline clip-path="url(#clip993)" style="stroke:#570f6d; stroke-width:4; stroke-opacity:1; fill:none" points="
  2160.76,1156.5 2232.76,1156.5 
  "/>
<polyline clip-path="url(#clip993)" style="stroke:#70196e; stroke-width:4; stroke-opacity:1; fill:none" points="
  2160.76,1065.38 2232.76,1065.38 
  "/>
<polyline clip-path="url(#clip993)" style="stroke:#892269; stroke-width:4; stroke-opacity:1; fill:none" points="
  2160.76,974.252 2232.76,974.252 
  "/>
<polyline clip-path="url(#clip993)" style="stroke:#a32b61; stroke-width:4; stroke-opacity:1; fill:none" points="
  2160.76,883.126 2232.76,883.126 
  "/>
<polyline clip-path="url(#clip993)" style="stroke:#bb3754; stroke-width:4; stroke-opacity:1; fill:none" points="
  2160.76,792 2232.76,792 
  "/>
<polyline clip-path="url(#clip993)" style="stroke:#d04544; stroke-width:4; stroke-opacity:1; fill:none" points="
  2160.76,700.874 2232.76,700.874 
  "/>
<polyline clip-path="url(#clip993)" style="stroke:#e35832; stroke-width:4; stroke-opacity:1; fill:none" points="
  2160.76,609.748 2232.76,609.748 
  "/>
<polyline clip-path="url(#clip993)" style="stroke:#f0701e; stroke-width:4; stroke-opacity:1; fill:none" points="
  2160.76,518.622 2232.76,518.622 
  "/>
<polyline clip-path="url(#clip993)" style="stroke:#f98c09; stroke-width:4; stroke-opacity:1; fill:none" points="
  2160.76,427.496 2232.76,427.496 
  "/>
<polyline clip-path="url(#clip993)" style="stroke:#fbaa0e; stroke-width:4; stroke-opacity:1; fill:none" points="
  2160.76,336.37 2232.76,336.37 
  "/>
<polyline clip-path="url(#clip993)" style="stroke:#f8c931; stroke-width:4; stroke-opacity:1; fill:none" points="
  2160.76,245.244 2232.76,245.244 
  "/>
<polyline clip-path="url(#clip993)" style="stroke:#f1e864; stroke-width:4; stroke-opacity:1; fill:none" points="
  2160.76,154.118 2232.76,154.118 
  "/>
<g clip-path="url(#clip990)">
<text style="fill:#000000; fill-opacity:1; font-family:Arial,Helvetica Neue,Helvetica,sans-serif; font-size:48px; text-anchor:start;" transform="rotate(0, 2268.76, 1465.76)" x="2268.76" y="1465.76">-</text>
</g>
<g clip-path="url(#clip990)">
<text style="fill:#000000; fill-opacity:1; font-family:Arial,Helvetica Neue,Helvetica,sans-serif; font-size:48px; text-anchor:start;" transform="rotate(0, 2296.87, 1465.76)" x="2296.87" y="1465.76">30</text>
</g>
<g clip-path="url(#clip990)">
<text style="fill:#000000; fill-opacity:1; font-family:Arial,Helvetica Neue,Helvetica,sans-serif; font-size:48px; text-anchor:start;" transform="rotate(0, 2268.76, 1267.27)" x="2268.76" y="1267.27">-</text>
</g>
<g clip-path="url(#clip990)">
<text style="fill:#000000; fill-opacity:1; font-family:Arial,Helvetica Neue,Helvetica,sans-serif; font-size:48px; text-anchor:start;" transform="rotate(0, 2296.87, 1267.27)" x="2296.87" y="1267.27">20</text>
</g>
<g clip-path="url(#clip990)">
<text style="fill:#000000; fill-opacity:1; font-family:Arial,Helvetica Neue,Helvetica,sans-serif; font-size:48px; text-anchor:start;" transform="rotate(0, 2268.76, 1068.77)" x="2268.76" y="1068.77">-</text>
</g>
<g clip-path="url(#clip990)">
<text style="fill:#000000; fill-opacity:1; font-family:Arial,Helvetica Neue,Helvetica,sans-serif; font-size:48px; text-anchor:start;" transform="rotate(0, 2296.87, 1068.77)" x="2296.87" y="1068.77">10</text>
</g>
<g clip-path="url(#clip990)">
<text style="fill:#000000; fill-opacity:1; font-family:Arial,Helvetica Neue,Helvetica,sans-serif; font-size:48px; text-anchor:start;" transform="rotate(0, 2268.76, 870.267)" x="2268.76" y="870.267">0</text>
</g>
<g clip-path="url(#clip990)">
<text style="fill:#000000; fill-opacity:1; font-family:Arial,Helvetica Neue,Helvetica,sans-serif; font-size:48px; text-anchor:start;" transform="rotate(0, 2268.76, 671.768)" x="2268.76" y="671.768">10</text>
</g>
<g clip-path="url(#clip990)">
<text style="fill:#000000; fill-opacity:1; font-family:Arial,Helvetica Neue,Helvetica,sans-serif; font-size:48px; text-anchor:start;" transform="rotate(0, 2268.76, 473.269)" x="2268.76" y="473.269">20</text>
</g>
<g clip-path="url(#clip990)">
<text style="fill:#000000; fill-opacity:1; font-family:Arial,Helvetica Neue,Helvetica,sans-serif; font-size:48px; text-anchor:start;" transform="rotate(0, 2268.76, 274.77)" x="2268.76" y="274.77">30</text>
</g>
<polyline clip-path="url(#clip990)" style="stroke:#000000; stroke-width:4; stroke-opacity:1; fill:none" points="
  2232.76,1521.01 2232.76,1452.11 2256.76,1452.11 2232.76,1452.11 2232.76,1253.61 2256.76,1253.61 2232.76,1253.61 2232.76,1055.11 2256.76,1055.11 2232.76,1055.11 
  2232.76,856.616 2256.76,856.616 2232.76,856.616 2232.76,658.117 2256.76,658.117 2232.76,658.117 2232.76,459.618 2256.76,459.618 2232.76,459.618 2232.76,261.119 
  2256.76,261.119 2232.76,261.119 2232.76,62.9921 
  "/>
<path clip-path="url(#clip990)" d="
M1769.32 293.033 L2045.23 293.033 L2045.23 111.593 L1769.32 111.593  Z
  " fill="#ffffff" fill-rule="evenodd" fill-opacity="1"/>
<polyline clip-path="url(#clip990)" style="stroke:#000000; stroke-width:4; stroke-opacity:1; fill:none" points="
  1769.32,293.033 2045.23,293.033 2045.23,111.593 1769.32,111.593 1769.32,293.033 
  "/>
<circle clip-path="url(#clip990)" cx="1859.35" cy="172.073" r="23" fill="#009af9" fill-rule="evenodd" fill-opacity="1" stroke="#000000" stroke-opacity="1" stroke-width="5.12"/>
<g clip-path="url(#clip990)">
<text style="fill:#000000; fill-opacity:1; font-family:Arial,Helvetica Neue,Helvetica,sans-serif; font-size:48px; text-anchor:start;" transform="rotate(0, 1949.38, 189.573)" x="1949.38" y="189.573">y1</text>
</g>
<circle clip-path="url(#clip990)" cx="1859.35" cy="232.553" r="23" fill="#e26f46" fill-rule="evenodd" fill-opacity="1" stroke="#000000" stroke-opacity="1" stroke-width="5.12"/>
<g clip-path="url(#clip990)">
<text style="fill:#000000; fill-opacity:1; font-family:Arial,Helvetica Neue,Helvetica,sans-serif; font-size:48px; text-anchor:start;" transform="rotate(0, 1949.38, 250.053)" x="1949.38" y="250.053">y2</text>
</g>
</svg>
