<?xml version="1.0" encoding="utf-8"?>
<svg xmlns="http://www.w3.org/2000/svg" xmlns:xlink="http://www.w3.org/1999/xlink" width="600" height="400" viewBox="0 0 2400 1600">
<defs>
  <clipPath id="clip810">
    <rect x="0" y="0" width="2400" height="1600"/>
  </clipPath>
</defs>
<path clip-path="url(#clip810)" d="
M0 1600 L2400 1600 L2400 0 L0 0  Z
  " fill="#ffffff" fill-rule="evenodd" fill-opacity="1"/>
<defs>
  <clipPath id="clip811">
    <rect x="480" y="0" width="1681" height="1600"/>
  </clipPath>
</defs>
<path clip-path="url(#clip810)" d="
M191.244 1416.76 L2112.76 1416.76 L2112.76 62.9921 L191.244 62.9921  Z
  " fill="#ffffff" fill-rule="evenodd" fill-opacity="1"/>
<defs>
  <clipPath id="clip812">
    <rect x="191" y="62" width="1923" height="1355"/>
  </clipPath>
</defs>
<polyline clip-path="url(#clip812)" style="stroke:#000000; stroke-width:2; stroke-opacity:0.1; fill:none" points="
  352.658,1416.76 352.658,62.9921 
  "/>
<polyline clip-path="url(#clip812)" style="stroke:#000000; stroke-width:2; stroke-opacity:0.1; fill:none" points="
  751.63,1416.76 751.63,62.9921 
  "/>
<polyline clip-path="url(#clip812)" style="stroke:#000000; stroke-width:2; stroke-opacity:0.1; fill:none" points="
  1150.6,1416.76 1150.6,62.9921 
  "/>
<polyline clip-path="url(#clip812)" style="stroke:#000000; stroke-width:2; stroke-opacity:0.1; fill:none" points="
  1549.57,1416.76 1549.57,62.9921 
  "/>
<polyline clip-path="url(#clip812)" style="stroke:#000000; stroke-width:2; stroke-opacity:0.1; fill:none" points="
  1948.55,1416.76 1948.55,62.9921 
  "/>
<polyline clip-path="url(#clip810)" style="stroke:#000000; stroke-width:4; stroke-opacity:1; fill:none" points="
  191.244,1416.76 2112.76,1416.76 
  "/>
<polyline clip-path="url(#clip810)" style="stroke:#000000; stroke-width:4; stroke-opacity:1; fill:none" points="
  352.658,1416.76 352.658,1400.51 
  "/>
<polyline clip-path="url(#clip810)" style="stroke:#000000; stroke-width:4; stroke-opacity:1; fill:none" points="
  751.63,1416.76 751.63,1400.51 
  "/>
<polyline clip-path="url(#clip810)" style="stroke:#000000; stroke-width:4; stroke-opacity:1; fill:none" points="
  1150.6,1416.76 1150.6,1400.51 
  "/>
<polyline clip-path="url(#clip810)" style="stroke:#000000; stroke-width:4; stroke-opacity:1; fill:none" points="
  1549.57,1416.76 1549.57,1400.51 
  "/>
<polyline clip-path="url(#clip810)" style="stroke:#000000; stroke-width:4; stroke-opacity:1; fill:none" points="
  1948.55,1416.76 1948.55,1400.51 
  "/>
<g clip-path="url(#clip810)">
<text style="fill:#000000; fill-opacity:1; font-family:Arial,Helvetica Neue,Helvetica,sans-serif; font-size:48px; text-anchor:middle;" transform="rotate(0, 352.658, 1477.96)" x="352.658" y="1477.96">−5.0</text>
</g>
<g clip-path="url(#clip810)">
<text style="fill:#000000; fill-opacity:1; font-family:Arial,Helvetica Neue,Helvetica,sans-serif; font-size:48px; text-anchor:middle;" transform="rotate(0, 751.63, 1477.96)" x="751.63" y="1477.96">−2.5</text>
</g>
<g clip-path="url(#clip810)">
<text style="fill:#000000; fill-opacity:1; font-family:Arial,Helvetica Neue,Helvetica,sans-serif; font-size:48px; text-anchor:middle;" transform="rotate(0, 1150.6, 1477.96)" x="1150.6" y="1477.96">0.0</text>
</g>
<g clip-path="url(#clip810)">
<text style="fill:#000000; fill-opacity:1; font-family:Arial,Helvetica Neue,Helvetica,sans-serif; font-size:48px; text-anchor:middle;" transform="rotate(0, 1549.57, 1477.96)" x="1549.57" y="1477.96">2.5</text>
</g>
<g clip-path="url(#clip810)">
<text style="fill:#000000; fill-opacity:1; font-family:Arial,Helvetica Neue,Helvetica,sans-serif; font-size:48px; text-anchor:middle;" transform="rotate(0, 1948.55, 1477.96)" x="1948.55" y="1477.96">5.0</text>
</g>
<polyline clip-path="url(#clip812)" style="stroke:#000000; stroke-width:2; stroke-opacity:0.1; fill:none" points="
  191.244,1345.82 2112.76,1345.82 
  "/>
<polyline clip-path="url(#clip812)" style="stroke:#000000; stroke-width:2; stroke-opacity:0.1; fill:none" points="
  191.244,1060.97 2112.76,1060.97 
  "/>
<polyline clip-path="url(#clip812)" style="stroke:#000000; stroke-width:2; stroke-opacity:0.1; fill:none" points="
  191.244,776.115 2112.76,776.115 
  "/>
<polyline clip-path="url(#clip812)" style="stroke:#000000; stroke-width:2; stroke-opacity:0.1; fill:none" points="
  191.244,491.263 2112.76,491.263 
  "/>
<polyline clip-path="url(#clip812)" style="stroke:#000000; stroke-width:2; stroke-opacity:0.1; fill:none" points="
  191.244,206.411 2112.76,206.411 
  "/>
<polyline clip-path="url(#clip810)" style="stroke:#000000; stroke-width:4; stroke-opacity:1; fill:none" points="
  191.244,1416.76 191.244,62.9921 
  "/>
<polyline clip-path="url(#clip810)" style="stroke:#000000; stroke-width:4; stroke-opacity:1; fill:none" points="
  191.244,1345.82 214.302,1345.82 
  "/>
<polyline clip-path="url(#clip810)" style="stroke:#000000; stroke-width:4; stroke-opacity:1; fill:none" points="
  191.244,1060.97 214.302,1060.97 
  "/>
<polyline clip-path="url(#clip810)" style="stroke:#000000; stroke-width:4; stroke-opacity:1; fill:none" points="
  191.244,776.115 214.302,776.115 
  "/>
<polyline clip-path="url(#clip810)" style="stroke:#000000; stroke-width:4; stroke-opacity:1; fill:none" points="
  191.244,491.263 214.302,491.263 
  "/>
<polyline clip-path="url(#clip810)" style="stroke:#000000; stroke-width:4; stroke-opacity:1; fill:none" points="
  191.244,206.411 214.302,206.411 
  "/>
<g clip-path="url(#clip810)">
<text style="fill:#000000; fill-opacity:1; font-family:Arial,Helvetica Neue,Helvetica,sans-serif; font-size:48px; text-anchor:end;" transform="rotate(0, 155.244, 1363.32)" x="155.244" y="1363.32">−5.0</text>
</g>
<g clip-path="url(#clip810)">
<text style="fill:#000000; fill-opacity:1; font-family:Arial,Helvetica Neue,Helvetica,sans-serif; font-size:48px; text-anchor:end;" transform="rotate(0, 155.244, 1078.47)" x="155.244" y="1078.47">−2.5</text>
</g>
<g clip-path="url(#clip810)">
<text style="fill:#000000; fill-opacity:1; font-family:Arial,Helvetica Neue,Helvetica,sans-serif; font-size:48px; text-anchor:end;" transform="rotate(0, 155.244, 793.615)" x="155.244" y="793.615">0.0</text>
</g>
<g clip-path="url(#clip810)">
<text style="fill:#000000; fill-opacity:1; font-family:Arial,Helvetica Neue,Helvetica,sans-serif; font-size:48px; text-anchor:end;" transform="rotate(0, 155.244, 508.763)" x="155.244" y="508.763">2.5</text>
</g>
<g clip-path="url(#clip810)">
<text style="fill:#000000; fill-opacity:1; font-family:Arial,Helvetica Neue,Helvetica,sans-serif; font-size:48px; text-anchor:end;" transform="rotate(0, 155.244, 223.911)" x="155.244" y="223.911">5.0</text>
</g>
<g clip-path="url(#clip810)">
<text style="fill:#000000; fill-opacity:1; font-family:Arial,Helvetica Neue,Helvetica,sans-serif; font-size:84px; text-anchor:middle;" transform="rotate(0, 1152, 73.2)" x="1152" y="73.2">LDA</text>
</g>
<circle clip-path="url(#clip812)" cx="1738.41" cy="218.197" r="14" fill="#009af9" fill-rule="evenodd" fill-opacity="1" stroke="#000000" stroke-opacity="1" stroke-width="3.2"/>
<circle clip-path="url(#clip812)" cx="1727.67" cy="474.205" r="14" fill="#009af9" fill-rule="evenodd" fill-opacity="1" stroke="#000000" stroke-opacity="1" stroke-width="3.2"/>
<circle clip-path="url(#clip812)" cx="1380.25" cy="655.343" r="14" fill="#009af9" fill-rule="evenodd" fill-opacity="1" stroke="#000000" stroke-opacity="1" stroke-width="3.2"/>
<circle clip-path="url(#clip812)" cx="1691.18" cy="560.396" r="14" fill="#009af9" fill-rule="evenodd" fill-opacity="1" stroke="#000000" stroke-opacity="1" stroke-width="3.2"/>
<circle clip-path="url(#clip812)" cx="1531.58" cy="579.531" r="14" fill="#009af9" fill-rule="evenodd" fill-opacity="1" stroke="#000000" stroke-opacity="1" stroke-width="3.2"/>
<circle clip-path="url(#clip812)" cx="1393.19" cy="684.213" r="14" fill="#009af9" fill-rule="evenodd" fill-opacity="1" stroke="#000000" stroke-opacity="1" stroke-width="3.2"/>
<circle clip-path="url(#clip812)" cx="1269.15" cy="495.507" r="14" fill="#009af9" fill-rule="evenodd" fill-opacity="1" stroke="#000000" stroke-opacity="1" stroke-width="3.2"/>
<circle clip-path="url(#clip812)" cx="1603.48" cy="488.935" r="14" fill="#009af9" fill-rule="evenodd" fill-opacity="1" stroke="#000000" stroke-opacity="1" stroke-width="3.2"/>
<circle clip-path="url(#clip812)" cx="1406.33" cy="666.65" r="14" fill="#009af9" fill-rule="evenodd" fill-opacity="1" stroke="#000000" stroke-opacity="1" stroke-width="3.2"/>
<circle clip-path="url(#clip812)" cx="1307.87" cy="673.125" r="14" fill="#009af9" fill-rule="evenodd" fill-opacity="1" stroke="#000000" stroke-opacity="1" stroke-width="3.2"/>
<circle clip-path="url(#clip812)" cx="1248.71" cy="506.273" r="14" fill="#009af9" fill-rule="evenodd" fill-opacity="1" stroke="#000000" stroke-opacity="1" stroke-width="3.2"/>
<circle clip-path="url(#clip812)" cx="1364.05" cy="690.178" r="14" fill="#009af9" fill-rule="evenodd" fill-opacity="1" stroke="#000000" stroke-opacity="1" stroke-width="3.2"/>
<circle clip-path="url(#clip812)" cx="1532.46" cy="302.675" r="14" fill="#009af9" fill-rule="evenodd" fill-opacity="1" stroke="#000000" stroke-opacity="1" stroke-width="3.2"/>
<circle clip-path="url(#clip812)" cx="1068.56" cy="1020.86" r="14" fill="#009af9" fill-rule="evenodd" fill-opacity="1" stroke="#000000" stroke-opacity="1" stroke-width="3.2"/>
<circle clip-path="url(#clip812)" cx="1646.33" cy="175.431" r="14" fill="#009af9" fill-rule="evenodd" fill-opacity="1" stroke="#000000" stroke-opacity="1" stroke-width="3.2"/>
<circle clip-path="url(#clip812)" cx="1273.19" cy="492.524" r="14" fill="#009af9" fill-rule="evenodd" fill-opacity="1" stroke="#000000" stroke-opacity="1" stroke-width="3.2"/>
<circle clip-path="url(#clip812)" cx="1434.61" cy="172.3" r="14" fill="#009af9" fill-rule="evenodd" fill-opacity="1" stroke="#000000" stroke-opacity="1" stroke-width="3.2"/>
<circle clip-path="url(#clip812)" cx="1244.46" cy="537.444" r="14" fill="#009af9" fill-rule="evenodd" fill-opacity="1" stroke="#000000" stroke-opacity="1" stroke-width="3.2"/>
<circle clip-path="url(#clip812)" cx="1076.13" cy="690.118" r="14" fill="#009af9" fill-rule="evenodd" fill-opacity="1" stroke="#000000" stroke-opacity="1" stroke-width="3.2"/>
<circle clip-path="url(#clip812)" cx="1412.51" cy="417.064" r="14" fill="#009af9" fill-rule="evenodd" fill-opacity="1" stroke="#000000" stroke-opacity="1" stroke-width="3.2"/>
<circle clip-path="url(#clip812)" cx="1215.91" cy="603.728" r="14" fill="#009af9" fill-rule="evenodd" fill-opacity="1" stroke="#000000" stroke-opacity="1" stroke-width="3.2"/>
<circle clip-path="url(#clip812)" cx="1415.05" cy="301.373" r="14" fill="#009af9" fill-rule="evenodd" fill-opacity="1" stroke="#000000" stroke-opacity="1" stroke-width="3.2"/>
<circle clip-path="url(#clip812)" cx="1563.09" cy="584.91" r="14" fill="#009af9" fill-rule="evenodd" fill-opacity="1" stroke="#000000" stroke-opacity="1" stroke-width="3.2"/>
<circle clip-path="url(#clip812)" cx="1427.84" cy="301.402" r="14" fill="#009af9" fill-rule="evenodd" fill-opacity="1" stroke="#000000" stroke-opacity="1" stroke-width="3.2"/>
<circle clip-path="url(#clip812)" cx="760.368" cy="780.28" r="14" fill="#009af9" fill-rule="evenodd" fill-opacity="1" stroke="#000000" stroke-opacity="1" stroke-width="3.2"/>
<circle clip-path="url(#clip812)" cx="1519.14" cy="581.634" r="14" fill="#009af9" fill-rule="evenodd" fill-opacity="1" stroke="#000000" stroke-opacity="1" stroke-width="3.2"/>
<circle clip-path="url(#clip812)" cx="1761.52" cy="359.757" r="14" fill="#009af9" fill-rule="evenodd" fill-opacity="1" stroke="#000000" stroke-opacity="1" stroke-width="3.2"/>
<circle clip-path="url(#clip812)" cx="1476.72" cy="731.955" r="14" fill="#009af9" fill-rule="evenodd" fill-opacity="1" stroke="#000000" stroke-opacity="1" stroke-width="3.2"/>
<circle clip-path="url(#clip812)" cx="1567.88" cy="598.888" r="14" fill="#009af9" fill-rule="evenodd" fill-opacity="1" stroke="#000000" stroke-opacity="1" stroke-width="3.2"/>
<circle clip-path="url(#clip812)" cx="1345.9" cy="650.694" r="14" fill="#009af9" fill-rule="evenodd" fill-opacity="1" stroke="#000000" stroke-opacity="1" stroke-width="3.2"/>
<circle clip-path="url(#clip812)" cx="1620.04" cy="696.523" r="14" fill="#009af9" fill-rule="evenodd" fill-opacity="1" stroke="#000000" stroke-opacity="1" stroke-width="3.2"/>
<circle clip-path="url(#clip812)" cx="1436.75" cy="567.954" r="14" fill="#009af9" fill-rule="evenodd" fill-opacity="1" stroke="#000000" stroke-opacity="1" stroke-width="3.2"/>
<circle clip-path="url(#clip812)" cx="1659.75" cy="629.267" r="14" fill="#009af9" fill-rule="evenodd" fill-opacity="1" stroke="#000000" stroke-opacity="1" stroke-width="3.2"/>
<circle clip-path="url(#clip812)" cx="1701.19" cy="718.819" r="14" fill="#009af9" fill-rule="evenodd" fill-opacity="1" stroke="#000000" stroke-opacity="1" stroke-width="3.2"/>
<circle clip-path="url(#clip812)" cx="1510.06" cy="101.306" r="14" fill="#009af9" fill-rule="evenodd" fill-opacity="1" stroke="#000000" stroke-opacity="1" stroke-width="3.2"/>
<circle clip-path="url(#clip812)" cx="1236.54" cy="597.293" r="14" fill="#009af9" fill-rule="evenodd" fill-opacity="1" stroke="#000000" stroke-opacity="1" stroke-width="3.2"/>
<circle clip-path="url(#clip812)" cx="1661.39" cy="1018.03" r="14" fill="#009af9" fill-rule="evenodd" fill-opacity="1" stroke="#000000" stroke-opacity="1" stroke-width="3.2"/>
<circle clip-path="url(#clip812)" cx="1466.33" cy="655.613" r="14" fill="#009af9" fill-rule="evenodd" fill-opacity="1" stroke="#000000" stroke-opacity="1" stroke-width="3.2"/>
<circle clip-path="url(#clip812)" cx="2058.37" cy="319.193" r="14" fill="#009af9" fill-rule="evenodd" fill-opacity="1" stroke="#000000" stroke-opacity="1" stroke-width="3.2"/>
<circle clip-path="url(#clip812)" cx="1541.52" cy="341.185" r="14" fill="#009af9" fill-rule="evenodd" fill-opacity="1" stroke="#000000" stroke-opacity="1" stroke-width="3.2"/>
<circle clip-path="url(#clip812)" cx="1158.08" cy="275.484" r="14" fill="#009af9" fill-rule="evenodd" fill-opacity="1" stroke="#000000" stroke-opacity="1" stroke-width="3.2"/>
<circle clip-path="url(#clip812)" cx="1561.19" cy="699.193" r="14" fill="#009af9" fill-rule="evenodd" fill-opacity="1" stroke="#000000" stroke-opacity="1" stroke-width="3.2"/>
<circle clip-path="url(#clip812)" cx="1759.03" cy="431.064" r="14" fill="#009af9" fill-rule="evenodd" fill-opacity="1" stroke="#000000" stroke-opacity="1" stroke-width="3.2"/>
<circle clip-path="url(#clip812)" cx="1380.24" cy="378.168" r="14" fill="#009af9" fill-rule="evenodd" fill-opacity="1" stroke="#000000" stroke-opacity="1" stroke-width="3.2"/>
<circle clip-path="url(#clip812)" cx="1304.13" cy="474.208" r="14" fill="#009af9" fill-rule="evenodd" fill-opacity="1" stroke="#000000" stroke-opacity="1" stroke-width="3.2"/>
<circle clip-path="url(#clip812)" cx="1854.85" cy="438.912" r="14" fill="#009af9" fill-rule="evenodd" fill-opacity="1" stroke="#000000" stroke-opacity="1" stroke-width="3.2"/>
<circle clip-path="url(#clip812)" cx="1534.59" cy="376.115" r="14" fill="#009af9" fill-rule="evenodd" fill-opacity="1" stroke="#000000" stroke-opacity="1" stroke-width="3.2"/>
<circle clip-path="url(#clip812)" cx="1400.52" cy="857.65" r="14" fill="#009af9" fill-rule="evenodd" fill-opacity="1" stroke="#000000" stroke-opacity="1" stroke-width="3.2"/>
<circle clip-path="url(#clip812)" cx="1846.6" cy="582.645" r="14" fill="#009af9" fill-rule="evenodd" fill-opacity="1" stroke="#000000" stroke-opacity="1" stroke-width="3.2"/>
<circle clip-path="url(#clip812)" cx="1432.83" cy="693.737" r="14" fill="#009af9" fill-rule="evenodd" fill-opacity="1" stroke="#000000" stroke-opacity="1" stroke-width="3.2"/>
<circle clip-path="url(#clip812)" cx="1554.7" cy="613.537" r="14" fill="#009af9" fill-rule="evenodd" fill-opacity="1" stroke="#000000" stroke-opacity="1" stroke-width="3.2"/>
<circle clip-path="url(#clip812)" cx="1771.27" cy="290.293" r="14" fill="#009af9" fill-rule="evenodd" fill-opacity="1" stroke="#000000" stroke-opacity="1" stroke-width="3.2"/>
<circle clip-path="url(#clip812)" cx="1140.74" cy="419.229" r="14" fill="#009af9" fill-rule="evenodd" fill-opacity="1" stroke="#000000" stroke-opacity="1" stroke-width="3.2"/>
<circle clip-path="url(#clip812)" cx="1671.97" cy="659.729" r="14" fill="#009af9" fill-rule="evenodd" fill-opacity="1" stroke="#000000" stroke-opacity="1" stroke-width="3.2"/>
<circle clip-path="url(#clip812)" cx="1129.26" cy="669.814" r="14" fill="#009af9" fill-rule="evenodd" fill-opacity="1" stroke="#000000" stroke-opacity="1" stroke-width="3.2"/>
<circle clip-path="url(#clip812)" cx="1495.88" cy="509.142" r="14" fill="#009af9" fill-rule="evenodd" fill-opacity="1" stroke="#000000" stroke-opacity="1" stroke-width="3.2"/>
<circle clip-path="url(#clip812)" cx="1419.4" cy="619.19" r="14" fill="#009af9" fill-rule="evenodd" fill-opacity="1" stroke="#000000" stroke-opacity="1" stroke-width="3.2"/>
<circle clip-path="url(#clip812)" cx="1069.89" cy="443.234" r="14" fill="#009af9" fill-rule="evenodd" fill-opacity="1" stroke="#000000" stroke-opacity="1" stroke-width="3.2"/>
<circle clip-path="url(#clip812)" cx="1559.54" cy="514.266" r="14" fill="#009af9" fill-rule="evenodd" fill-opacity="1" stroke="#000000" stroke-opacity="1" stroke-width="3.2"/>
<circle clip-path="url(#clip812)" cx="1698.77" cy="487.533" r="14" fill="#009af9" fill-rule="evenodd" fill-opacity="1" stroke="#000000" stroke-opacity="1" stroke-width="3.2"/>
<circle clip-path="url(#clip812)" cx="1296.9" cy="580.33" r="14" fill="#009af9" fill-rule="evenodd" fill-opacity="1" stroke="#000000" stroke-opacity="1" stroke-width="3.2"/>
<circle clip-path="url(#clip812)" cx="1806.96" cy="544.625" r="14" fill="#009af9" fill-rule="evenodd" fill-opacity="1" stroke="#000000" stroke-opacity="1" stroke-width="3.2"/>
<circle clip-path="url(#clip812)" cx="1475.23" cy="369.751" r="14" fill="#009af9" fill-rule="evenodd" fill-opacity="1" stroke="#000000" stroke-opacity="1" stroke-width="3.2"/>
<circle clip-path="url(#clip812)" cx="1503.45" cy="275.992" r="14" fill="#009af9" fill-rule="evenodd" fill-opacity="1" stroke="#000000" stroke-opacity="1" stroke-width="3.2"/>
<circle clip-path="url(#clip812)" cx="1351.99" cy="447.436" r="14" fill="#009af9" fill-rule="evenodd" fill-opacity="1" stroke="#000000" stroke-opacity="1" stroke-width="3.2"/>
<circle clip-path="url(#clip812)" cx="1103.92" cy="441.144" r="14" fill="#009af9" fill-rule="evenodd" fill-opacity="1" stroke="#000000" stroke-opacity="1" stroke-width="3.2"/>
<circle clip-path="url(#clip812)" cx="1819.84" cy="776.143" r="14" fill="#009af9" fill-rule="evenodd" fill-opacity="1" stroke="#000000" stroke-opacity="1" stroke-width="3.2"/>
<circle clip-path="url(#clip812)" cx="1476.9" cy="410.86" r="14" fill="#009af9" fill-rule="evenodd" fill-opacity="1" stroke="#000000" stroke-opacity="1" stroke-width="3.2"/>
<circle clip-path="url(#clip812)" cx="1602.59" cy="391.149" r="14" fill="#009af9" fill-rule="evenodd" fill-opacity="1" stroke="#000000" stroke-opacity="1" stroke-width="3.2"/>
<circle clip-path="url(#clip812)" cx="1402.56" cy="414.181" r="14" fill="#009af9" fill-rule="evenodd" fill-opacity="1" stroke="#000000" stroke-opacity="1" stroke-width="3.2"/>
<circle clip-path="url(#clip812)" cx="1541.73" cy="596.848" r="14" fill="#009af9" fill-rule="evenodd" fill-opacity="1" stroke="#000000" stroke-opacity="1" stroke-width="3.2"/>
<circle clip-path="url(#clip812)" cx="1168.31" cy="548.12" r="14" fill="#009af9" fill-rule="evenodd" fill-opacity="1" stroke="#000000" stroke-opacity="1" stroke-width="3.2"/>
<circle clip-path="url(#clip812)" cx="1954.15" cy="546.875" r="14" fill="#009af9" fill-rule="evenodd" fill-opacity="1" stroke="#000000" stroke-opacity="1" stroke-width="3.2"/>
<circle clip-path="url(#clip812)" cx="1981.26" cy="512.829" r="14" fill="#009af9" fill-rule="evenodd" fill-opacity="1" stroke="#000000" stroke-opacity="1" stroke-width="3.2"/>
<circle clip-path="url(#clip812)" cx="1580.08" cy="740.628" r="14" fill="#009af9" fill-rule="evenodd" fill-opacity="1" stroke="#000000" stroke-opacity="1" stroke-width="3.2"/>
<circle clip-path="url(#clip812)" cx="1425.13" cy="235.969" r="14" fill="#009af9" fill-rule="evenodd" fill-opacity="1" stroke="#000000" stroke-opacity="1" stroke-width="3.2"/>
<circle clip-path="url(#clip812)" cx="1459.78" cy="673.598" r="14" fill="#009af9" fill-rule="evenodd" fill-opacity="1" stroke="#000000" stroke-opacity="1" stroke-width="3.2"/>
<circle clip-path="url(#clip812)" cx="1490.26" cy="421.639" r="14" fill="#009af9" fill-rule="evenodd" fill-opacity="1" stroke="#000000" stroke-opacity="1" stroke-width="3.2"/>
<circle clip-path="url(#clip812)" cx="1695.81" cy="664.633" r="14" fill="#009af9" fill-rule="evenodd" fill-opacity="1" stroke="#000000" stroke-opacity="1" stroke-width="3.2"/>
<circle clip-path="url(#clip812)" cx="1126.51" cy="796.239" r="14" fill="#009af9" fill-rule="evenodd" fill-opacity="1" stroke="#000000" stroke-opacity="1" stroke-width="3.2"/>
<circle clip-path="url(#clip812)" cx="1506.11" cy="638.162" r="14" fill="#009af9" fill-rule="evenodd" fill-opacity="1" stroke="#000000" stroke-opacity="1" stroke-width="3.2"/>
<circle clip-path="url(#clip812)" cx="959.178" cy="497.238" r="14" fill="#009af9" fill-rule="evenodd" fill-opacity="1" stroke="#000000" stroke-opacity="1" stroke-width="3.2"/>
<circle clip-path="url(#clip812)" cx="1443.33" cy="530.823" r="14" fill="#009af9" fill-rule="evenodd" fill-opacity="1" stroke="#000000" stroke-opacity="1" stroke-width="3.2"/>
<circle clip-path="url(#clip812)" cx="1938.79" cy="513.124" r="14" fill="#009af9" fill-rule="evenodd" fill-opacity="1" stroke="#000000" stroke-opacity="1" stroke-width="3.2"/>
<circle clip-path="url(#clip812)" cx="1343.17" cy="717.319" r="14" fill="#009af9" fill-rule="evenodd" fill-opacity="1" stroke="#000000" stroke-opacity="1" stroke-width="3.2"/>
<circle clip-path="url(#clip812)" cx="1584.51" cy="764.321" r="14" fill="#009af9" fill-rule="evenodd" fill-opacity="1" stroke="#000000" stroke-opacity="1" stroke-width="3.2"/>
<circle clip-path="url(#clip812)" cx="1547.63" cy="722.553" r="14" fill="#009af9" fill-rule="evenodd" fill-opacity="1" stroke="#000000" stroke-opacity="1" stroke-width="3.2"/>
<circle clip-path="url(#clip812)" cx="1523.22" cy="460.695" r="14" fill="#009af9" fill-rule="evenodd" fill-opacity="1" stroke="#000000" stroke-opacity="1" stroke-width="3.2"/>
<circle clip-path="url(#clip812)" cx="1218.4" cy="570.817" r="14" fill="#009af9" fill-rule="evenodd" fill-opacity="1" stroke="#000000" stroke-opacity="1" stroke-width="3.2"/>
<circle clip-path="url(#clip812)" cx="1881.61" cy="478.573" r="14" fill="#009af9" fill-rule="evenodd" fill-opacity="1" stroke="#000000" stroke-opacity="1" stroke-width="3.2"/>
<circle clip-path="url(#clip812)" cx="1225.32" cy="337.189" r="14" fill="#009af9" fill-rule="evenodd" fill-opacity="1" stroke="#000000" stroke-opacity="1" stroke-width="3.2"/>
<circle clip-path="url(#clip812)" cx="1365.35" cy="568.851" r="14" fill="#009af9" fill-rule="evenodd" fill-opacity="1" stroke="#000000" stroke-opacity="1" stroke-width="3.2"/>
<circle clip-path="url(#clip812)" cx="1328.98" cy="430.027" r="14" fill="#009af9" fill-rule="evenodd" fill-opacity="1" stroke="#000000" stroke-opacity="1" stroke-width="3.2"/>
<circle clip-path="url(#clip812)" cx="1363.3" cy="724.852" r="14" fill="#009af9" fill-rule="evenodd" fill-opacity="1" stroke="#000000" stroke-opacity="1" stroke-width="3.2"/>
<circle clip-path="url(#clip812)" cx="1675.55" cy="545.997" r="14" fill="#009af9" fill-rule="evenodd" fill-opacity="1" stroke="#000000" stroke-opacity="1" stroke-width="3.2"/>
<circle clip-path="url(#clip812)" cx="1987.95" cy="397.574" r="14" fill="#009af9" fill-rule="evenodd" fill-opacity="1" stroke="#000000" stroke-opacity="1" stroke-width="3.2"/>
<circle clip-path="url(#clip812)" cx="1922.53" cy="609.351" r="14" fill="#009af9" fill-rule="evenodd" fill-opacity="1" stroke="#000000" stroke-opacity="1" stroke-width="3.2"/>
<circle clip-path="url(#clip812)" cx="1516.38" cy="592.711" r="14" fill="#009af9" fill-rule="evenodd" fill-opacity="1" stroke="#000000" stroke-opacity="1" stroke-width="3.2"/>
<circle clip-path="url(#clip812)" cx="1739.68" cy="757.148" r="14" fill="#009af9" fill-rule="evenodd" fill-opacity="1" stroke="#000000" stroke-opacity="1" stroke-width="3.2"/>
<circle clip-path="url(#clip812)" cx="1599.62" cy="574.982" r="14" fill="#009af9" fill-rule="evenodd" fill-opacity="1" stroke="#000000" stroke-opacity="1" stroke-width="3.2"/>
<circle clip-path="url(#clip812)" cx="727.147" cy="1039.85" r="14" fill="#e26f46" fill-rule="evenodd" fill-opacity="1" stroke="#000000" stroke-opacity="1" stroke-width="3.2"/>
<circle clip-path="url(#clip812)" cx="667.9" cy="1122.94" r="14" fill="#e26f46" fill-rule="evenodd" fill-opacity="1" stroke="#000000" stroke-opacity="1" stroke-width="3.2"/>
<circle clip-path="url(#clip812)" cx="465.778" cy="1023.35" r="14" fill="#e26f46" fill-rule="evenodd" fill-opacity="1" stroke="#000000" stroke-opacity="1" stroke-width="3.2"/>
<circle clip-path="url(#clip812)" cx="643.574" cy="1062.49" r="14" fill="#e26f46" fill-rule="evenodd" fill-opacity="1" stroke="#000000" stroke-opacity="1" stroke-width="3.2"/>
<circle clip-path="url(#clip812)" cx="451.868" cy="1051.63" r="14" fill="#e26f46" fill-rule="evenodd" fill-opacity="1" stroke="#000000" stroke-opacity="1" stroke-width="3.2"/>
<circle clip-path="url(#clip812)" cx="607.988" cy="1061.3" r="14" fill="#e26f46" fill-rule="evenodd" fill-opacity="1" stroke="#000000" stroke-opacity="1" stroke-width="3.2"/>
<circle clip-path="url(#clip812)" cx="802.331" cy="1227.87" r="14" fill="#e26f46" fill-rule="evenodd" fill-opacity="1" stroke="#000000" stroke-opacity="1" stroke-width="3.2"/>
<circle clip-path="url(#clip812)" cx="595.028" cy="1195.43" r="14" fill="#e26f46" fill-rule="evenodd" fill-opacity="1" stroke="#000000" stroke-opacity="1" stroke-width="3.2"/>
<circle clip-path="url(#clip812)" cx="684.634" cy="1016.28" r="14" fill="#e26f46" fill-rule="evenodd" fill-opacity="1" stroke="#000000" stroke-opacity="1" stroke-width="3.2"/>
<circle clip-path="url(#clip812)" cx="857.191" cy="1279.55" r="14" fill="#e26f46" fill-rule="evenodd" fill-opacity="1" stroke="#000000" stroke-opacity="1" stroke-width="3.2"/>
<circle clip-path="url(#clip812)" cx="755.014" cy="1155.64" r="14" fill="#e26f46" fill-rule="evenodd" fill-opacity="1" stroke="#000000" stroke-opacity="1" stroke-width="3.2"/>
<circle clip-path="url(#clip812)" cx="840.163" cy="1143.65" r="14" fill="#e26f46" fill-rule="evenodd" fill-opacity="1" stroke="#000000" stroke-opacity="1" stroke-width="3.2"/>
<circle clip-path="url(#clip812)" cx="632.381" cy="1038.53" r="14" fill="#e26f46" fill-rule="evenodd" fill-opacity="1" stroke="#000000" stroke-opacity="1" stroke-width="3.2"/>
<circle clip-path="url(#clip812)" cx="635.632" cy="985.057" r="14" fill="#e26f46" fill-rule="evenodd" fill-opacity="1" stroke="#000000" stroke-opacity="1" stroke-width="3.2"/>
<circle clip-path="url(#clip812)" cx="1030.11" cy="1378.44" r="14" fill="#e26f46" fill-rule="evenodd" fill-opacity="1" stroke="#000000" stroke-opacity="1" stroke-width="3.2"/>
<circle clip-path="url(#clip812)" cx="639.286" cy="1072.68" r="14" fill="#e26f46" fill-rule="evenodd" fill-opacity="1" stroke="#000000" stroke-opacity="1" stroke-width="3.2"/>
<circle clip-path="url(#clip812)" cx="768.274" cy="1186.31" r="14" fill="#e26f46" fill-rule="evenodd" fill-opacity="1" stroke="#000000" stroke-opacity="1" stroke-width="3.2"/>
<circle clip-path="url(#clip812)" cx="842.937" cy="1249.03" r="14" fill="#e26f46" fill-rule="evenodd" fill-opacity="1" stroke="#000000" stroke-opacity="1" stroke-width="3.2"/>
<circle clip-path="url(#clip812)" cx="677.071" cy="1168.78" r="14" fill="#e26f46" fill-rule="evenodd" fill-opacity="1" stroke="#000000" stroke-opacity="1" stroke-width="3.2"/>
<circle clip-path="url(#clip812)" cx="705.172" cy="1138.72" r="14" fill="#e26f46" fill-rule="evenodd" fill-opacity="1" stroke="#000000" stroke-opacity="1" stroke-width="3.2"/>
<circle clip-path="url(#clip812)" cx="757.301" cy="1155.58" r="14" fill="#e26f46" fill-rule="evenodd" fill-opacity="1" stroke="#000000" stroke-opacity="1" stroke-width="3.2"/>
<circle clip-path="url(#clip812)" cx="644.763" cy="1168.52" r="14" fill="#e26f46" fill-rule="evenodd" fill-opacity="1" stroke="#000000" stroke-opacity="1" stroke-width="3.2"/>
<circle clip-path="url(#clip812)" cx="842.623" cy="1124.35" r="14" fill="#e26f46" fill-rule="evenodd" fill-opacity="1" stroke="#000000" stroke-opacity="1" stroke-width="3.2"/>
<circle clip-path="url(#clip812)" cx="448.408" cy="1015.14" r="14" fill="#e26f46" fill-rule="evenodd" fill-opacity="1" stroke="#000000" stroke-opacity="1" stroke-width="3.2"/>
<circle clip-path="url(#clip812)" cx="728.442" cy="1151.85" r="14" fill="#e26f46" fill-rule="evenodd" fill-opacity="1" stroke="#000000" stroke-opacity="1" stroke-width="3.2"/>
<circle clip-path="url(#clip812)" cx="628.807" cy="1279.82" r="14" fill="#e26f46" fill-rule="evenodd" fill-opacity="1" stroke="#000000" stroke-opacity="1" stroke-width="3.2"/>
<circle clip-path="url(#clip812)" cx="551.753" cy="1105.99" r="14" fill="#e26f46" fill-rule="evenodd" fill-opacity="1" stroke="#000000" stroke-opacity="1" stroke-width="3.2"/>
<circle clip-path="url(#clip812)" cx="444.286" cy="1023.49" r="14" fill="#e26f46" fill-rule="evenodd" fill-opacity="1" stroke="#000000" stroke-opacity="1" stroke-width="3.2"/>
<circle clip-path="url(#clip812)" cx="478.397" cy="1000.98" r="14" fill="#e26f46" fill-rule="evenodd" fill-opacity="1" stroke="#000000" stroke-opacity="1" stroke-width="3.2"/>
<circle clip-path="url(#clip812)" cx="372.213" cy="844.147" r="14" fill="#e26f46" fill-rule="evenodd" fill-opacity="1" stroke="#000000" stroke-opacity="1" stroke-width="3.2"/>
<circle clip-path="url(#clip812)" cx="763.934" cy="1233.04" r="14" fill="#e26f46" fill-rule="evenodd" fill-opacity="1" stroke="#000000" stroke-opacity="1" stroke-width="3.2"/>
<circle clip-path="url(#clip812)" cx="794.489" cy="1268.95" r="14" fill="#e26f46" fill-rule="evenodd" fill-opacity="1" stroke="#000000" stroke-opacity="1" stroke-width="3.2"/>
<circle clip-path="url(#clip812)" cx="245.627" cy="977.313" r="14" fill="#e26f46" fill-rule="evenodd" fill-opacity="1" stroke="#000000" stroke-opacity="1" stroke-width="3.2"/>
<circle clip-path="url(#clip812)" cx="650.938" cy="1037.45" r="14" fill="#e26f46" fill-rule="evenodd" fill-opacity="1" stroke="#000000" stroke-opacity="1" stroke-width="3.2"/>
<circle clip-path="url(#clip812)" cx="856.387" cy="1270.17" r="14" fill="#e26f46" fill-rule="evenodd" fill-opacity="1" stroke="#000000" stroke-opacity="1" stroke-width="3.2"/>
<circle clip-path="url(#clip812)" cx="250.348" cy="802.127" r="14" fill="#e26f46" fill-rule="evenodd" fill-opacity="1" stroke="#000000" stroke-opacity="1" stroke-width="3.2"/>
<circle clip-path="url(#clip812)" cx="817.709" cy="1017.25" r="14" fill="#e26f46" fill-rule="evenodd" fill-opacity="1" stroke="#000000" stroke-opacity="1" stroke-width="3.2"/>
<circle clip-path="url(#clip812)" cx="813.564" cy="1253.22" r="14" fill="#e26f46" fill-rule="evenodd" fill-opacity="1" stroke="#000000" stroke-opacity="1" stroke-width="3.2"/>
<circle clip-path="url(#clip812)" cx="400.625" cy="821.648" r="14" fill="#e26f46" fill-rule="evenodd" fill-opacity="1" stroke="#000000" stroke-opacity="1" stroke-width="3.2"/>
<circle clip-path="url(#clip812)" cx="501.08" cy="1028.27" r="14" fill="#e26f46" fill-rule="evenodd" fill-opacity="1" stroke="#000000" stroke-opacity="1" stroke-width="3.2"/>
<circle clip-path="url(#clip812)" cx="757.702" cy="1141.55" r="14" fill="#e26f46" fill-rule="evenodd" fill-opacity="1" stroke="#000000" stroke-opacity="1" stroke-width="3.2"/>
<circle clip-path="url(#clip812)" cx="739.49" cy="1130.01" r="14" fill="#e26f46" fill-rule="evenodd" fill-opacity="1" stroke="#000000" stroke-opacity="1" stroke-width="3.2"/>
<circle clip-path="url(#clip812)" cx="800.917" cy="1069.57" r="14" fill="#e26f46" fill-rule="evenodd" fill-opacity="1" stroke="#000000" stroke-opacity="1" stroke-width="3.2"/>
<circle clip-path="url(#clip812)" cx="840.971" cy="1243.19" r="14" fill="#e26f46" fill-rule="evenodd" fill-opacity="1" stroke="#000000" stroke-opacity="1" stroke-width="3.2"/>
<circle clip-path="url(#clip812)" cx="573.202" cy="1135.79" r="14" fill="#e26f46" fill-rule="evenodd" fill-opacity="1" stroke="#000000" stroke-opacity="1" stroke-width="3.2"/>
<circle clip-path="url(#clip812)" cx="736.054" cy="1125.54" r="14" fill="#e26f46" fill-rule="evenodd" fill-opacity="1" stroke="#000000" stroke-opacity="1" stroke-width="3.2"/>
<circle clip-path="url(#clip812)" cx="482.038" cy="1001.58" r="14" fill="#e26f46" fill-rule="evenodd" fill-opacity="1" stroke="#000000" stroke-opacity="1" stroke-width="3.2"/>
<circle clip-path="url(#clip812)" cx="457.193" cy="966.193" r="14" fill="#e26f46" fill-rule="evenodd" fill-opacity="1" stroke="#000000" stroke-opacity="1" stroke-width="3.2"/>
<circle clip-path="url(#clip812)" cx="546.778" cy="1002.18" r="14" fill="#e26f46" fill-rule="evenodd" fill-opacity="1" stroke="#000000" stroke-opacity="1" stroke-width="3.2"/>
<circle clip-path="url(#clip812)" cx="643.659" cy="1189.3" r="14" fill="#e26f46" fill-rule="evenodd" fill-opacity="1" stroke="#000000" stroke-opacity="1" stroke-width="3.2"/>
<circle clip-path="url(#clip812)" cx="744.943" cy="1150.18" r="14" fill="#e26f46" fill-rule="evenodd" fill-opacity="1" stroke="#000000" stroke-opacity="1" stroke-width="3.2"/>
<circle clip-path="url(#clip812)" cx="635.011" cy="1004.48" r="14" fill="#e26f46" fill-rule="evenodd" fill-opacity="1" stroke="#000000" stroke-opacity="1" stroke-width="3.2"/>
<circle clip-path="url(#clip812)" cx="654.869" cy="1122.32" r="14" fill="#e26f46" fill-rule="evenodd" fill-opacity="1" stroke="#000000" stroke-opacity="1" stroke-width="3.2"/>
<circle clip-path="url(#clip812)" cx="574.167" cy="1157.45" r="14" fill="#e26f46" fill-rule="evenodd" fill-opacity="1" stroke="#000000" stroke-opacity="1" stroke-width="3.2"/>
<circle clip-path="url(#clip812)" cx="948.139" cy="1096.94" r="14" fill="#e26f46" fill-rule="evenodd" fill-opacity="1" stroke="#000000" stroke-opacity="1" stroke-width="3.2"/>
<circle clip-path="url(#clip812)" cx="954.163" cy="1262.76" r="14" fill="#e26f46" fill-rule="evenodd" fill-opacity="1" stroke="#000000" stroke-opacity="1" stroke-width="3.2"/>
<circle clip-path="url(#clip812)" cx="444.607" cy="943.672" r="14" fill="#e26f46" fill-rule="evenodd" fill-opacity="1" stroke="#000000" stroke-opacity="1" stroke-width="3.2"/>
<circle clip-path="url(#clip812)" cx="1101.06" cy="1329.72" r="14" fill="#e26f46" fill-rule="evenodd" fill-opacity="1" stroke="#000000" stroke-opacity="1" stroke-width="3.2"/>
<circle clip-path="url(#clip812)" cx="917.961" cy="1346.48" r="14" fill="#e26f46" fill-rule="evenodd" fill-opacity="1" stroke="#000000" stroke-opacity="1" stroke-width="3.2"/>
<circle clip-path="url(#clip812)" cx="496.668" cy="981.491" r="14" fill="#e26f46" fill-rule="evenodd" fill-opacity="1" stroke="#000000" stroke-opacity="1" stroke-width="3.2"/>
<circle clip-path="url(#clip812)" cx="772.894" cy="1287.22" r="14" fill="#e26f46" fill-rule="evenodd" fill-opacity="1" stroke="#000000" stroke-opacity="1" stroke-width="3.2"/>
<circle clip-path="url(#clip812)" cx="873.937" cy="1267" r="14" fill="#e26f46" fill-rule="evenodd" fill-opacity="1" stroke="#000000" stroke-opacity="1" stroke-width="3.2"/>
<circle clip-path="url(#clip812)" cx="620.304" cy="1102.22" r="14" fill="#e26f46" fill-rule="evenodd" fill-opacity="1" stroke="#000000" stroke-opacity="1" stroke-width="3.2"/>
<circle clip-path="url(#clip812)" cx="336.676" cy="991.339" r="14" fill="#e26f46" fill-rule="evenodd" fill-opacity="1" stroke="#000000" stroke-opacity="1" stroke-width="3.2"/>
<circle clip-path="url(#clip812)" cx="922.576" cy="1319.53" r="14" fill="#e26f46" fill-rule="evenodd" fill-opacity="1" stroke="#000000" stroke-opacity="1" stroke-width="3.2"/>
<circle clip-path="url(#clip812)" cx="924.324" cy="1202.22" r="14" fill="#e26f46" fill-rule="evenodd" fill-opacity="1" stroke="#000000" stroke-opacity="1" stroke-width="3.2"/>
<circle clip-path="url(#clip812)" cx="687.823" cy="1102.3" r="14" fill="#e26f46" fill-rule="evenodd" fill-opacity="1" stroke="#000000" stroke-opacity="1" stroke-width="3.2"/>
<circle clip-path="url(#clip812)" cx="430.568" cy="994.747" r="14" fill="#e26f46" fill-rule="evenodd" fill-opacity="1" stroke="#000000" stroke-opacity="1" stroke-width="3.2"/>
<circle clip-path="url(#clip812)" cx="558.284" cy="1043.54" r="14" fill="#e26f46" fill-rule="evenodd" fill-opacity="1" stroke="#000000" stroke-opacity="1" stroke-width="3.2"/>
<circle clip-path="url(#clip812)" cx="623.472" cy="1093.64" r="14" fill="#e26f46" fill-rule="evenodd" fill-opacity="1" stroke="#000000" stroke-opacity="1" stroke-width="3.2"/>
<circle clip-path="url(#clip812)" cx="557.639" cy="1026.11" r="14" fill="#e26f46" fill-rule="evenodd" fill-opacity="1" stroke="#000000" stroke-opacity="1" stroke-width="3.2"/>
<circle clip-path="url(#clip812)" cx="556.917" cy="1060.79" r="14" fill="#e26f46" fill-rule="evenodd" fill-opacity="1" stroke="#000000" stroke-opacity="1" stroke-width="3.2"/>
<circle clip-path="url(#clip812)" cx="603.397" cy="1160.3" r="14" fill="#e26f46" fill-rule="evenodd" fill-opacity="1" stroke="#000000" stroke-opacity="1" stroke-width="3.2"/>
<circle clip-path="url(#clip812)" cx="443.601" cy="975.055" r="14" fill="#e26f46" fill-rule="evenodd" fill-opacity="1" stroke="#000000" stroke-opacity="1" stroke-width="3.2"/>
<circle clip-path="url(#clip812)" cx="636.67" cy="1160.93" r="14" fill="#e26f46" fill-rule="evenodd" fill-opacity="1" stroke="#000000" stroke-opacity="1" stroke-width="3.2"/>
<circle clip-path="url(#clip812)" cx="655.576" cy="1074.03" r="14" fill="#e26f46" fill-rule="evenodd" fill-opacity="1" stroke="#000000" stroke-opacity="1" stroke-width="3.2"/>
<circle clip-path="url(#clip812)" cx="667.492" cy="1085.87" r="14" fill="#e26f46" fill-rule="evenodd" fill-opacity="1" stroke="#000000" stroke-opacity="1" stroke-width="3.2"/>
<circle clip-path="url(#clip812)" cx="649.451" cy="1050.92" r="14" fill="#e26f46" fill-rule="evenodd" fill-opacity="1" stroke="#000000" stroke-opacity="1" stroke-width="3.2"/>
<circle clip-path="url(#clip812)" cx="791.611" cy="1116.96" r="14" fill="#e26f46" fill-rule="evenodd" fill-opacity="1" stroke="#000000" stroke-opacity="1" stroke-width="3.2"/>
<circle clip-path="url(#clip812)" cx="599.148" cy="1071.67" r="14" fill="#e26f46" fill-rule="evenodd" fill-opacity="1" stroke="#000000" stroke-opacity="1" stroke-width="3.2"/>
<circle clip-path="url(#clip812)" cx="751.922" cy="1101.27" r="14" fill="#e26f46" fill-rule="evenodd" fill-opacity="1" stroke="#000000" stroke-opacity="1" stroke-width="3.2"/>
<circle clip-path="url(#clip812)" cx="500.096" cy="1096.94" r="14" fill="#e26f46" fill-rule="evenodd" fill-opacity="1" stroke="#000000" stroke-opacity="1" stroke-width="3.2"/>
<circle clip-path="url(#clip812)" cx="498.862" cy="1078.98" r="14" fill="#e26f46" fill-rule="evenodd" fill-opacity="1" stroke="#000000" stroke-opacity="1" stroke-width="3.2"/>
<circle clip-path="url(#clip812)" cx="595.322" cy="1133.35" r="14" fill="#e26f46" fill-rule="evenodd" fill-opacity="1" stroke="#000000" stroke-opacity="1" stroke-width="3.2"/>
<circle clip-path="url(#clip812)" cx="522.312" cy="1018.14" r="14" fill="#e26f46" fill-rule="evenodd" fill-opacity="1" stroke="#000000" stroke-opacity="1" stroke-width="3.2"/>
<circle clip-path="url(#clip812)" cx="657.501" cy="1012.53" r="14" fill="#e26f46" fill-rule="evenodd" fill-opacity="1" stroke="#000000" stroke-opacity="1" stroke-width="3.2"/>
<circle clip-path="url(#clip812)" cx="716.909" cy="1093.22" r="14" fill="#e26f46" fill-rule="evenodd" fill-opacity="1" stroke="#000000" stroke-opacity="1" stroke-width="3.2"/>
<circle clip-path="url(#clip812)" cx="535.137" cy="1068.44" r="14" fill="#e26f46" fill-rule="evenodd" fill-opacity="1" stroke="#000000" stroke-opacity="1" stroke-width="3.2"/>
<circle clip-path="url(#clip812)" cx="785.563" cy="1228.37" r="14" fill="#e26f46" fill-rule="evenodd" fill-opacity="1" stroke="#000000" stroke-opacity="1" stroke-width="3.2"/>
<circle clip-path="url(#clip812)" cx="638.442" cy="1122.23" r="14" fill="#e26f46" fill-rule="evenodd" fill-opacity="1" stroke="#000000" stroke-opacity="1" stroke-width="3.2"/>
<circle clip-path="url(#clip812)" cx="713.916" cy="1173.19" r="14" fill="#e26f46" fill-rule="evenodd" fill-opacity="1" stroke="#000000" stroke-opacity="1" stroke-width="3.2"/>
<circle clip-path="url(#clip812)" cx="562.303" cy="1058.23" r="14" fill="#e26f46" fill-rule="evenodd" fill-opacity="1" stroke="#000000" stroke-opacity="1" stroke-width="3.2"/>
<circle clip-path="url(#clip812)" cx="729.433" cy="1038.1" r="14" fill="#e26f46" fill-rule="evenodd" fill-opacity="1" stroke="#000000" stroke-opacity="1" stroke-width="3.2"/>
<circle clip-path="url(#clip812)" cx="781.748" cy="1221.56" r="14" fill="#e26f46" fill-rule="evenodd" fill-opacity="1" stroke="#000000" stroke-opacity="1" stroke-width="3.2"/>
<circle clip-path="url(#clip812)" cx="620.784" cy="1124.96" r="14" fill="#e26f46" fill-rule="evenodd" fill-opacity="1" stroke="#000000" stroke-opacity="1" stroke-width="3.2"/>
<circle clip-path="url(#clip812)" cx="906.816" cy="1171.87" r="14" fill="#e26f46" fill-rule="evenodd" fill-opacity="1" stroke="#000000" stroke-opacity="1" stroke-width="3.2"/>
<circle clip-path="url(#clip812)" cx="888.385" cy="1072.02" r="14" fill="#e26f46" fill-rule="evenodd" fill-opacity="1" stroke="#000000" stroke-opacity="1" stroke-width="3.2"/>
<circle clip-path="url(#clip812)" cx="578.584" cy="1038.15" r="14" fill="#e26f46" fill-rule="evenodd" fill-opacity="1" stroke="#000000" stroke-opacity="1" stroke-width="3.2"/>
<circle clip-path="url(#clip812)" cx="786.532" cy="1203.23" r="14" fill="#e26f46" fill-rule="evenodd" fill-opacity="1" stroke="#000000" stroke-opacity="1" stroke-width="3.2"/>
<circle clip-path="url(#clip812)" cx="664.538" cy="1203.49" r="14" fill="#e26f46" fill-rule="evenodd" fill-opacity="1" stroke="#000000" stroke-opacity="1" stroke-width="3.2"/>
<polyline clip-path="url(#clip812)" style="stroke:#090621; stroke-width:4; stroke-opacity:1; fill:none" points="
  549.271,1345.82 544.164,1342.06 533.771,1334.42 528.206,1330.33 518.272,1323.03 512.247,1318.6 502.773,1311.64 496.288,1306.87 487.274,1300.24 480.329,1295.14 
  471.775,1288.85 464.37,1283.4 456.276,1277.45 448.411,1271.67 440.776,1266.06 432.452,1259.94 425.277,1254.67 416.493,1248.21 409.778,1243.27 400.534,1236.48 
  394.279,1231.88 384.576,1224.74 378.78,1220.48 368.617,1213.01 363.281,1209.09 352.658,1201.28 
  "/>
<polyline clip-path="url(#clip812)" style="stroke:#1f0c47; stroke-width:4; stroke-opacity:1; fill:none" points="
  352.658,1056.74 358.404,1060.97 368.617,1068.47 373.903,1072.36 384.576,1080.21 389.402,1083.75 400.534,1091.94 404.902,1095.15 416.493,1103.67 420.401,1106.54 
  432.452,1115.4 435.9,1117.94 448.411,1127.13 451.399,1129.33 464.37,1138.87 466.898,1140.72 480.329,1150.6 482.398,1152.12 496.288,1162.33 497.897,1163.51 
  512.247,1174.06 513.396,1174.91 528.206,1185.79 528.895,1186.3 544.164,1197.53 544.394,1197.7 559.893,1209.09 560.123,1209.26 575.393,1220.48 576.082,1220.99 
  590.892,1231.88 592.041,1232.72 606.391,1243.27 608,1244.45 621.89,1254.67 623.959,1256.19 637.389,1266.06 639.918,1267.92 652.889,1277.45 655.877,1279.65 
  668.388,1288.85 671.836,1291.38 683.887,1300.24 687.794,1303.11 699.386,1311.64 703.753,1314.85 714.885,1323.03 719.712,1326.58 730.384,1334.42 735.671,1338.31 
  745.884,1345.82 
  "/>
<polyline clip-path="url(#clip812)" style="stroke:#3b0964; stroke-width:4; stroke-opacity:1; fill:none" points="
  942.497,1345.82 927.178,1334.56 926.997,1334.42 911.498,1323.03 911.219,1322.82 895.999,1311.64 895.26,1311.09 880.5,1300.24 879.301,1299.36 865.001,1288.85 
  863.342,1287.63 849.501,1277.45 847.383,1275.9 834.002,1266.06 831.424,1264.16 818.503,1254.67 815.466,1252.43 803.004,1243.27 799.507,1240.7 787.505,1231.88 
  783.548,1228.97 772.006,1220.48 767.589,1217.24 756.506,1209.09 751.63,1205.5 741.007,1197.7 735.671,1193.77 725.508,1186.3 719.712,1182.04 710.009,1174.91 
  703.753,1170.31 694.51,1163.51 687.794,1158.58 679.01,1152.12 671.836,1146.84 663.511,1140.72 655.877,1135.11 648.012,1129.33 639.918,1123.38 632.513,1117.94 
  623.959,1111.65 617.014,1106.54 608,1099.92 601.515,1095.15 592.041,1088.18 586.015,1083.75 576.082,1076.45 570.516,1072.36 560.123,1064.72 555.017,1060.97 
  544.164,1052.99 539.518,1049.57 528.206,1041.26 524.019,1038.18 512.247,1029.52 508.52,1026.78 496.288,1017.79 493.02,1015.39 480.329,1006.06 477.521,1004 
  464.37,994.328 462.022,992.602 448.411,982.596 446.523,981.208 432.452,970.864 431.024,969.814 416.493,959.132 415.524,958.42 400.534,947.4 400.025,947.026 
  384.576,935.668 384.526,935.632 369.027,924.238 368.617,923.936 353.528,912.843 352.658,912.204 
  "/>
<polyline clip-path="url(#clip812)" style="stroke:#550f6d; stroke-width:4; stroke-opacity:1; fill:none" points="
  352.658,767.666 364.151,776.115 368.617,779.398 379.65,787.509 384.576,791.13 395.149,798.903 400.534,802.862 410.648,810.297 416.493,814.594 426.147,821.691 
  432.452,826.326 441.646,833.085 448.411,838.058 457.146,844.479 464.37,849.79 472.645,855.873 480.329,861.522 488.144,867.267 496.288,873.254 503.643,878.661 
  512.247,884.986 519.142,890.055 528.206,896.718 534.641,901.449 544.164,908.45 550.141,912.843 560.123,920.182 565.64,924.238 576.082,931.914 581.139,935.632 
  592.041,943.646 596.638,947.026 608,955.378 612.137,958.42 623.959,967.11 627.637,969.814 639.918,978.842 643.136,981.208 655.877,990.574 658.635,992.602 
  671.836,1002.31 674.134,1004 687.794,1014.04 689.633,1015.39 703.753,1025.77 705.132,1026.78 719.712,1037.5 720.632,1038.18 735.671,1049.23 736.131,1049.57 
  751.63,1060.97 751.63,1060.97 767.129,1072.36 767.589,1072.7 782.628,1083.75 783.548,1084.43 798.128,1095.15 799.507,1096.16 813.627,1106.54 815.466,1107.89 
  829.126,1117.94 831.424,1119.63 844.625,1129.33 847.383,1131.36 860.124,1140.72 863.342,1143.09 875.623,1152.12 879.301,1154.82 891.123,1163.51 895.26,1166.55 
  906.622,1174.91 911.219,1178.29 922.121,1186.3 927.178,1190.02 937.62,1197.7 943.137,1201.75 953.119,1209.09 959.096,1213.48 968.619,1220.48 975.054,1225.21 
  984.118,1231.88 991.013,1236.95 999.617,1243.27 1006.97,1248.68 1015.12,1254.67 1022.93,1260.41 1030.62,1266.06 1038.89,1272.14 1046.11,1277.45 1054.85,1283.87 
  1061.61,1288.85 1070.81,1295.61 1077.11,1300.24 1086.77,1307.34 1092.61,1311.64 1102.73,1319.07 1108.11,1323.03 1118.68,1330.8 1123.61,1334.42 1134.64,1342.53 
  1139.11,1345.82 
  "/>
<polyline clip-path="url(#clip812)" style="stroke:#6e186e; stroke-width:4; stroke-opacity:1; fill:none" points="
  1335.72,1345.82 1326.15,1338.78 1320.22,1334.42 1310.19,1327.05 1304.72,1323.03 1294.23,1315.32 1289.22,1311.64 1278.27,1303.58 1273.73,1300.24 1262.31,1291.85 
  1258.23,1288.85 1246.36,1280.12 1242.73,1277.45 1230.4,1268.39 1227.23,1266.06 1214.44,1256.66 1211.73,1254.67 1198.48,1244.92 1196.23,1243.27 1182.52,1233.19 
  1180.73,1231.88 1166.56,1221.46 1165.23,1220.48 1150.6,1209.73 1149.73,1209.09 1134.64,1198 1134.23,1197.7 1118.73,1186.3 1118.68,1186.26 1103.23,1174.91 
  1102.73,1174.53 1087.74,1163.51 1086.77,1162.8 1072.24,1152.12 1070.81,1151.07 1056.74,1140.72 1054.85,1139.34 1041.24,1129.33 1038.89,1127.6 1025.74,1117.94 
  1022.93,1115.87 1010.24,1106.54 1006.97,1104.14 994.74,1095.15 991.013,1092.41 979.241,1083.75 975.054,1080.68 963.742,1072.36 959.096,1068.94 948.243,1060.97 
  943.137,1057.21 932.744,1049.57 927.178,1045.48 917.245,1038.18 911.219,1033.75 901.745,1026.78 895.26,1022.02 886.246,1015.39 879.301,1010.28 870.747,1004 
  863.342,998.552 855.248,992.602 847.383,986.82 839.749,981.208 831.424,975.088 824.249,969.814 815.466,963.356 808.75,958.42 799.507,951.624 793.251,947.026 
  783.548,939.892 777.752,935.632 767.589,928.16 762.253,924.238 751.63,916.428 746.754,912.843 735.671,904.696 731.254,901.449 719.712,892.964 715.755,890.055 
  703.753,881.232 700.256,878.661 687.794,869.5 684.757,867.267 671.836,857.768 669.258,855.873 655.877,846.036 653.759,844.479 639.918,834.304 638.259,833.085 
  623.959,822.572 622.76,821.691 608,810.84 607.261,810.297 592.041,799.108 591.762,798.903 576.263,787.509 576.082,787.376 560.763,776.115 560.123,775.644 
  545.264,764.721 544.164,763.912 529.765,753.327 528.206,752.18 514.266,741.932 512.247,740.448 498.767,730.538 496.288,728.716 483.268,719.144 480.329,716.984 
  467.768,707.75 464.37,705.252 452.269,696.356 448.411,693.52 436.77,684.962 432.452,681.788 421.271,673.568 416.493,670.056 405.772,662.174 400.534,658.324 
  390.272,650.78 384.576,646.592 374.773,639.386 368.617,634.86 359.274,627.992 352.658,623.128 
  "/>
<polyline clip-path="url(#clip812)" style="stroke:#88216a; stroke-width:4; stroke-opacity:1; fill:none" points="
  352.658,478.59 354.398,479.869 368.617,490.322 369.897,491.263 384.576,502.054 385.396,502.657 400.534,513.786 400.895,514.051 416.394,525.445 416.493,525.518 
  431.894,536.839 432.452,537.25 447.393,548.233 448.411,548.982 462.892,559.627 464.37,560.714 478.391,571.021 480.329,572.446 493.89,582.416 496.288,584.178 
  509.39,593.81 512.247,595.91 524.889,605.204 528.206,607.642 540.388,616.598 544.164,619.374 555.887,627.992 560.123,631.106 571.386,639.386 576.082,642.838 
  586.885,650.78 592.041,654.57 602.385,662.174 608,666.302 617.884,673.568 623.959,678.034 633.383,684.962 639.918,689.766 648.882,696.356 655.877,701.498 
  664.381,707.75 671.836,713.23 679.88,719.144 687.794,724.962 695.38,730.538 703.753,736.694 710.879,741.932 719.712,748.426 726.378,753.327 735.671,760.158 
  741.877,764.721 751.63,771.89 757.376,776.115 767.589,783.622 772.876,787.509 783.548,795.354 788.375,798.903 799.507,807.086 803.874,810.297 815.466,818.818 
  819.373,821.691 831.424,830.55 834.872,833.085 847.383,842.282 850.371,844.479 863.342,854.014 865.871,855.873 879.301,865.746 881.37,867.267 895.26,877.478 
  896.869,878.661 911.219,889.21 912.368,890.055 927.178,900.942 927.867,901.449 943.137,912.674 943.367,912.843 958.866,924.238 959.096,924.407 974.365,935.632 
  975.054,936.139 989.864,947.026 991.013,947.871 1005.36,958.42 1006.97,959.603 1020.86,969.814 1022.93,971.335 1036.36,981.208 1038.89,983.067 1051.86,992.602 
  1054.85,994.799 1067.36,1004 1070.81,1006.53 1082.86,1015.39 1086.77,1018.26 1098.36,1026.78 1102.73,1029.99 1113.86,1038.18 1118.68,1041.73 1129.36,1049.57 
  1134.64,1053.46 1144.86,1060.97 1150.6,1065.19 1160.36,1072.36 1166.56,1076.92 1175.85,1083.75 1182.52,1088.65 1191.35,1095.15 1198.48,1100.39 1206.85,1106.54 
  1214.44,1112.12 1222.35,1117.94 1230.4,1123.85 1237.85,1129.33 1246.36,1135.58 1253.35,1140.72 1262.31,1147.31 1268.85,1152.12 1278.27,1159.05 1284.35,1163.51 
  1294.23,1170.78 1299.85,1174.91 1310.19,1182.51 1315.35,1186.3 1326.15,1194.24 1330.85,1197.7 1342.11,1205.97 1346.35,1209.09 1358.07,1217.71 1361.84,1220.48 
  1374.03,1229.44 1377.34,1231.88 1389.99,1241.17 1392.84,1243.27 1405.94,1252.9 1408.34,1254.67 1421.9,1264.64 1423.84,1266.06 1437.86,1276.37 1439.34,1277.45 
  1453.82,1288.1 1454.84,1288.85 1469.78,1299.83 1470.34,1300.24 1485.74,1311.56 1485.84,1311.64 1501.34,1323.03 1501.7,1323.3 1516.84,1334.42 1517.66,1335.03 
  1532.34,1345.82 
  "/>
<polyline clip-path="url(#clip812)" style="stroke:#a12b61; stroke-width:4; stroke-opacity:1; fill:none" points="
  1728.95,1345.82 1725.12,1343.01 1713.45,1334.42 1709.16,1331.27 1697.95,1323.03 1693.2,1319.54 1682.45,1311.64 1677.25,1307.81 1666.95,1300.24 1661.29,1296.08 
  1651.45,1288.85 1645.33,1284.35 1635.95,1277.45 1629.37,1272.61 1620.45,1266.06 1613.41,1260.88 1604.95,1254.67 1597.45,1249.15 1589.46,1243.27 1581.49,1237.42 
  1573.96,1231.88 1565.53,1225.69 1558.46,1220.48 1549.57,1213.95 1542.96,1209.09 1533.62,1202.22 1527.46,1197.7 1517.66,1190.49 1511.96,1186.3 1501.7,1178.76 
  1496.46,1174.91 1485.74,1167.03 1480.96,1163.51 1469.78,1155.29 1465.46,1152.12 1453.82,1143.56 1449.96,1140.72 1437.86,1131.83 1434.46,1129.33 1421.9,1120.1 
  1418.96,1117.94 1405.94,1108.36 1403.47,1106.54 1389.99,1096.63 1387.97,1095.15 1374.03,1084.9 1372.47,1083.75 1358.07,1073.17 1356.97,1072.36 1342.11,1061.44 
  1341.47,1060.97 1326.15,1049.7 1325.97,1049.57 1310.47,1038.18 1310.19,1037.97 1294.97,1026.78 1294.23,1026.24 1279.47,1015.39 1278.27,1014.51 1263.97,1004 
  1262.31,1002.78 1248.47,992.602 1246.36,991.045 1232.97,981.208 1230.4,979.313 1217.48,969.814 1214.44,967.581 1201.98,958.42 1198.48,955.849 1186.48,947.026 
  1182.52,944.117 1170.98,935.632 1166.56,932.385 1155.48,924.238 1150.6,920.653 1139.98,912.843 1134.64,908.921 1124.48,901.449 1118.68,897.189 1108.98,890.055 
  1102.73,885.457 1093.48,878.661 1086.77,873.725 1077.98,867.267 1070.81,861.993 1062.48,855.873 1054.85,850.261 1046.98,844.479 1038.89,838.529 1031.49,833.085 
  1022.93,826.797 1015.99,821.691 1006.97,815.065 1000.49,810.297 991.013,803.333 984.988,798.903 975.054,791.6 969.488,787.509 959.096,779.868 953.989,776.115 
  943.137,768.136 938.49,764.721 927.178,756.404 922.991,753.327 911.219,744.672 907.492,741.932 895.26,732.94 891.993,730.538 879.301,721.208 876.493,719.144 
  863.342,709.476 860.994,707.75 847.383,697.744 845.495,696.356 831.424,686.012 829.996,684.962 815.466,674.28 814.497,673.568 799.507,662.548 798.998,662.174 
  783.548,650.816 783.498,650.78 767.999,639.386 767.589,639.084 752.5,627.992 751.63,627.352 737.001,616.598 735.671,615.62 721.502,605.204 719.712,603.888 
  706.002,593.81 703.753,592.156 690.503,582.416 687.794,580.424 675.004,571.021 671.836,568.692 659.505,559.627 655.877,556.96 644.006,548.233 639.918,545.228 
  628.507,536.839 623.959,533.496 613.007,525.445 608,521.764 597.508,514.051 592.041,510.032 582.009,502.657 576.082,498.3 566.51,491.263 560.123,486.568 
  551.011,479.869 544.164,474.836 535.511,468.475 528.206,463.104 520.012,457.081 512.247,451.372 504.513,445.687 496.288,439.64 489.014,434.293 480.329,427.908 
  473.515,422.899 464.37,416.176 458.016,411.505 448.411,404.444 442.516,400.111 432.452,392.712 427.017,388.716 416.493,380.98 411.518,377.322 400.534,369.248 
  396.019,365.928 384.576,357.516 380.52,354.534 368.617,345.784 365.021,343.14 352.658,334.052 
  "/>
<polyline clip-path="url(#clip812)" style="stroke:#ba3655; stroke-width:4; stroke-opacity:1; fill:none" points="
  375.643,206.411 384.576,212.978 391.142,217.805 400.534,224.71 406.642,229.2 416.493,236.442 422.141,240.594 432.452,248.174 437.64,251.988 448.411,259.906 
  453.139,263.382 464.37,271.638 468.638,274.776 480.329,283.37 484.138,286.17 496.288,295.102 499.637,297.564 512.247,306.834 515.136,308.958 528.206,318.566 
  530.635,320.352 544.164,330.298 546.134,331.746 560.123,342.03 561.633,343.14 576.082,353.762 577.133,354.534 592.041,365.494 592.632,365.928 608,377.226 
  608.131,377.322 623.63,388.716 623.959,388.958 639.129,400.111 639.918,400.69 654.629,411.505 655.877,412.422 670.128,422.899 671.836,424.154 685.627,434.293 
  687.794,435.886 701.126,445.687 703.753,447.618 716.625,457.081 719.712,459.35 732.124,468.475 735.671,471.082 747.624,479.869 751.63,482.814 763.123,491.263 
  767.589,494.546 778.622,502.657 783.548,506.278 794.121,514.051 799.507,518.01 809.62,525.445 815.466,529.742 825.119,536.839 831.424,541.474 840.619,548.233 
  847.383,553.206 856.118,559.627 863.342,564.938 871.617,571.021 879.301,576.67 887.116,582.416 895.26,588.402 902.615,593.81 911.219,600.134 918.115,605.204 
  927.178,611.866 933.614,616.598 943.137,623.598 949.113,627.992 959.096,635.33 964.612,639.386 975.054,647.062 980.111,650.78 991.013,658.794 995.61,662.174 
  1006.97,670.527 1011.11,673.568 1022.93,682.259 1026.61,684.962 1038.89,693.991 1042.11,696.356 1054.85,705.723 1057.61,707.75 1070.81,717.455 1073.11,719.144 
  1086.77,729.187 1088.61,730.538 1102.73,740.919 1104.1,741.932 1118.68,752.651 1119.6,753.327 1134.64,764.383 1135.1,764.721 1150.6,776.115 1150.6,776.115 
  1166.1,787.509 1166.56,787.847 1181.6,798.903 1182.52,799.579 1197.1,810.297 1198.48,811.311 1212.6,821.691 1214.44,823.043 1228.1,833.085 1230.4,834.775 
  1243.6,844.479 1246.36,846.507 1259.1,855.873 1262.31,858.239 1274.6,867.267 1278.27,869.971 1290.09,878.661 1294.23,881.703 1305.59,890.055 1310.19,893.435 
  1321.09,901.449 1326.15,905.167 1336.59,912.843 1342.11,916.899 1352.09,924.238 1358.07,928.631 1367.59,935.632 1374.03,940.363 1383.09,947.026 1389.99,952.095 
  1398.59,958.42 1405.94,963.827 1414.09,969.814 1421.9,975.559 1429.59,981.208 1437.86,987.291 1445.09,992.602 1453.82,999.023 1460.59,1004 1469.78,1010.76 
  1476.09,1015.39 1485.74,1022.49 1491.58,1026.78 1501.7,1034.22 1507.08,1038.18 1517.66,1045.95 1522.58,1049.57 1533.62,1057.68 1538.08,1060.97 1549.57,1069.42 
  1553.58,1072.36 1565.53,1081.15 1569.08,1083.75 1581.49,1092.88 1584.58,1095.15 1597.45,1104.61 1600.08,1106.54 1613.41,1116.34 1615.58,1117.94 1629.37,1128.08 
  1631.08,1129.33 1645.33,1139.81 1646.58,1140.72 1661.29,1151.54 1662.08,1152.12 1677.25,1163.27 1677.57,1163.51 1693.07,1174.91 1693.2,1175 1708.57,1186.3 
  1709.16,1186.74 1724.07,1197.7 1725.12,1198.47 1739.57,1209.09 1741.08,1210.2 1755.07,1220.48 1757.04,1221.93 1770.57,1231.88 1773,1233.66 1786.07,1243.27 
  1788.96,1245.4 1801.57,1254.67 1804.92,1257.13 1817.07,1266.06 1820.88,1268.86 1832.57,1277.45 1836.83,1280.59 1848.07,1288.85 1852.79,1292.32 1863.56,1300.24 
  1868.75,1304.06 1879.06,1311.64 1884.71,1315.79 1894.56,1323.03 1900.67,1327.52 1910.06,1334.42 1916.63,1339.25 1925.56,1345.82 
  "/>
<polyline clip-path="url(#clip812)" style="stroke:#d04544; stroke-width:4; stroke-opacity:1; fill:none" points="
  1948.55,1218.18 1936.18,1209.09 1932.59,1206.45 1920.68,1197.7 1916.63,1194.71 1905.19,1186.3 1900.67,1182.98 1889.69,1174.91 1884.71,1171.25 1874.19,1163.51 
  1868.75,1159.52 1858.69,1152.12 1852.79,1147.79 1843.19,1140.72 1836.83,1136.05 1827.69,1129.33 1820.88,1124.32 1812.19,1117.94 1804.92,1112.59 1796.69,1106.54 
  1788.96,1100.86 1781.19,1095.15 1773,1089.13 1765.69,1083.75 1757.04,1077.39 1750.19,1072.36 1741.08,1065.66 1734.69,1060.97 1725.12,1053.93 1719.2,1049.57 
  1709.16,1042.2 1703.7,1038.18 1693.2,1030.47 1688.2,1026.78 1677.25,1018.73 1672.7,1015.39 1661.29,1007 1657.2,1004 1645.33,995.269 1641.7,992.602 
  1629.37,983.537 1626.2,981.208 1613.41,971.805 1610.7,969.814 1597.45,960.073 1595.2,958.42 1581.49,948.341 1579.7,947.026 1565.53,936.609 1564.2,935.632 
  1549.57,924.877 1548.7,924.238 1533.62,913.145 1533.21,912.843 1517.71,901.449 1517.66,901.413 1502.21,890.055 1501.7,889.681 1486.71,878.661 1485.74,877.949 
  1471.21,867.267 1469.78,866.217 1455.71,855.873 1453.82,854.485 1440.21,844.479 1437.86,842.753 1424.71,833.085 1421.9,831.021 1409.21,821.691 1405.94,819.289 
  1393.71,810.297 1389.99,807.557 1378.21,798.903 1374.03,795.825 1362.71,787.509 1358.07,784.093 1347.22,776.115 1342.11,772.361 1331.72,764.721 1326.15,760.629 
  1316.22,753.327 1310.19,748.897 1300.72,741.932 1294.23,737.165 1285.22,730.538 1278.27,725.433 1269.72,719.144 1262.31,713.701 1254.22,707.75 1246.36,701.969 
  1238.72,696.356 1230.4,690.237 1223.22,684.962 1214.44,678.505 1207.72,673.568 1198.48,666.773 1192.22,662.174 1182.52,655.041 1176.72,650.78 1166.56,643.309 
  1161.23,639.386 1150.6,631.577 1145.73,627.992 1134.64,619.845 1130.23,616.598 1118.68,608.113 1114.73,605.204 1102.73,596.381 1099.23,593.81 1086.77,584.649 
  1083.73,582.416 1070.81,572.917 1068.23,571.021 1054.85,561.185 1052.73,559.627 1038.89,549.453 1037.23,548.233 1022.93,537.721 1021.73,536.839 1006.97,525.988 
  1006.23,525.445 991.013,514.256 990.734,514.051 975.235,502.657 975.054,502.524 959.736,491.263 959.096,490.792 944.237,479.869 943.137,479.06 928.737,468.475 
  927.178,467.328 913.238,457.081 911.219,455.596 897.739,445.687 895.26,443.864 882.24,434.293 879.301,432.132 866.741,422.899 863.342,420.4 851.241,411.505 
  847.383,408.668 835.742,400.111 831.424,396.936 820.243,388.716 815.466,385.204 804.744,377.322 799.507,373.472 789.245,365.928 783.548,361.74 773.746,354.534 
  767.589,350.008 758.246,343.14 751.63,338.276 742.747,331.746 735.671,326.544 727.248,320.352 719.712,314.812 711.749,308.958 703.753,303.08 696.25,297.564 
  687.794,291.348 680.75,286.17 671.836,279.616 665.251,274.776 655.877,267.884 649.752,263.382 639.918,256.152 634.253,251.988 623.959,244.42 618.754,240.594 
  608,232.688 603.255,229.2 592.041,220.956 587.755,217.805 576.082,209.224 572.256,206.411 
  "/>
<polyline clip-path="url(#clip812)" style="stroke:#e35832; stroke-width:4; stroke-opacity:1; fill:none" points="
  768.869,206.411 783.548,217.202 784.368,217.805 799.507,228.934 799.868,229.2 815.367,240.594 815.466,240.666 830.866,251.988 831.424,252.398 846.365,263.382 
  847.383,264.13 861.864,274.776 863.342,275.862 877.363,286.17 879.301,287.594 892.863,297.564 895.26,299.326 908.362,308.958 911.219,311.058 923.861,320.352 
  927.178,322.79 939.36,331.746 943.137,334.522 954.859,343.14 959.096,346.254 970.358,354.534 975.054,357.986 985.858,365.928 991.013,369.718 1001.36,377.322 
  1006.97,381.45 1016.86,388.716 1022.93,393.182 1032.36,400.111 1038.89,404.915 1047.85,411.505 1054.85,416.647 1063.35,422.899 1070.81,428.379 1078.85,434.293 
  1086.77,440.111 1094.35,445.687 1102.73,451.843 1109.85,457.081 1118.68,463.575 1125.35,468.475 1134.64,475.307 1140.85,479.869 1150.6,487.039 1156.35,491.263 
  1166.56,498.771 1171.85,502.657 1182.52,510.503 1187.35,514.051 1198.48,522.235 1202.85,525.445 1214.44,533.967 1218.35,536.839 1230.4,545.699 1233.84,548.233 
  1246.36,557.431 1249.34,559.627 1262.31,569.163 1264.84,571.021 1278.27,580.895 1280.34,582.416 1294.23,592.627 1295.84,593.81 1310.19,604.359 1311.34,605.204 
  1326.15,616.091 1326.84,616.598 1342.11,627.823 1342.34,627.992 1357.84,639.386 1358.07,639.555 1373.34,650.78 1374.03,651.287 1388.84,662.174 1389.99,663.019 
  1404.34,673.568 1405.94,674.751 1419.83,684.962 1421.9,686.483 1435.33,696.356 1437.86,698.215 1450.83,707.75 1453.82,709.947 1466.33,719.144 1469.78,721.679 
  1481.83,730.538 1485.74,733.411 1497.33,741.932 1501.7,745.143 1512.83,753.327 1517.66,756.875 1528.33,764.721 1533.62,768.607 1543.83,776.115 1549.57,780.339 
  1559.33,787.509 1565.53,792.071 1574.83,798.903 1581.49,803.803 1590.33,810.297 1597.45,815.535 1605.82,821.691 1613.41,827.267 1621.32,833.085 1629.37,838.999 
  1636.82,844.479 1645.33,850.731 1652.32,855.873 1661.29,862.463 1667.82,867.267 1677.25,874.195 1683.32,878.661 1693.2,885.927 1698.82,890.055 1709.16,897.659 
  1714.32,901.449 1725.12,909.391 1729.82,912.843 1741.08,921.123 1745.32,924.238 1757.04,932.855 1760.82,935.632 1773,944.587 1776.32,947.026 1788.96,956.319 
  1791.82,958.42 1804.92,968.051 1807.31,969.814 1820.88,979.783 1822.81,981.208 1836.83,991.515 1838.31,992.602 1852.79,1003.25 1853.81,1004 1868.75,1014.98 
  1869.31,1015.39 1884.71,1026.71 1884.81,1026.78 1900.31,1038.18 1900.67,1038.44 1915.81,1049.57 1916.63,1050.18 1931.31,1060.97 1932.59,1061.91 1946.81,1072.36 
  1948.55,1073.64 
  "/>
<polyline clip-path="url(#clip812)" style="stroke:#f0701e; stroke-width:4; stroke-opacity:1; fill:none" points="
  1948.55,929.101 1941.93,924.238 1932.59,917.369 1926.43,912.843 1916.63,905.637 1910.93,901.449 1900.67,893.905 1895.43,890.055 1884.71,882.173 1879.93,878.661 
  1868.75,870.441 1864.43,867.267 1852.79,858.709 1848.94,855.873 1836.83,846.977 1833.44,844.479 1820.88,835.245 1817.94,833.085 1804.92,823.513 1802.44,821.691 
  1788.96,811.781 1786.94,810.297 1773,800.049 1771.44,798.903 1757.04,788.317 1755.94,787.509 1741.08,776.585 1740.44,776.115 1725.12,764.853 1724.94,764.721 
  1709.44,753.327 1709.16,753.121 1693.94,741.932 1693.2,741.389 1678.44,730.538 1677.25,729.657 1662.95,719.144 1661.29,717.925 1647.45,707.75 1645.33,706.193 
  1631.95,696.356 1629.37,694.461 1616.45,684.962 1613.41,682.729 1600.95,673.568 1597.45,670.997 1585.45,662.174 1581.49,659.265 1569.95,650.78 1565.53,647.533 
  1554.45,639.386 1549.57,635.801 1538.95,627.992 1533.62,624.069 1523.45,616.598 1517.66,612.337 1507.95,605.204 1501.7,600.605 1492.45,593.81 1485.74,588.873 
  1476.96,582.416 1469.78,577.141 1461.46,571.021 1453.82,565.409 1445.96,559.627 1437.86,553.677 1430.46,548.233 1421.9,541.945 1414.96,536.839 1405.94,530.213 
  1399.46,525.445 1389.99,518.481 1383.96,514.051 1374.03,506.749 1368.46,502.657 1358.07,495.017 1352.96,491.263 1342.11,483.285 1337.46,479.869 1326.15,471.553 
  1321.96,468.475 1310.19,459.821 1306.46,457.081 1294.23,448.089 1290.96,445.687 1278.27,436.357 1275.47,434.293 1262.31,424.625 1259.97,422.899 1246.36,412.893 
  1244.47,411.505 1230.4,401.161 1228.97,400.111 1214.44,389.429 1213.47,388.716 1198.48,377.697 1197.97,377.322 1182.52,365.965 1182.47,365.928 1166.97,354.534 
  1166.56,354.233 1151.47,343.14 1150.6,342.501 1135.97,331.746 1134.64,330.769 1120.47,320.352 1118.68,319.037 1104.97,308.958 1102.73,307.305 1089.48,297.564 
  1086.77,295.573 1073.98,286.17 1070.81,283.841 1058.48,274.776 1054.85,272.109 1042.98,263.382 1038.89,260.376 1027.48,251.988 1022.93,248.644 1011.98,240.594 
  1006.97,236.912 996.48,229.2 991.013,225.18 980.981,217.805 975.054,213.448 965.482,206.411 
  "/>
<polyline clip-path="url(#clip812)" style="stroke:#f98c09; stroke-width:4; stroke-opacity:1; fill:none" points="
  1162.1,206.411 1166.56,209.695 1177.59,217.805 1182.52,221.427 1193.09,229.2 1198.48,233.159 1208.59,240.594 1214.44,244.891 1224.09,251.988 1230.4,256.623 
  1239.59,263.382 1246.36,268.355 1255.09,274.776 1262.31,280.087 1270.59,286.17 1278.27,291.819 1286.09,297.564 1294.23,303.551 1301.59,308.958 1310.19,315.283 
  1317.09,320.352 1326.15,327.015 1332.59,331.746 1342.11,338.747 1348.09,343.14 1358.07,350.479 1363.58,354.534 1374.03,362.211 1379.08,365.928 1389.99,373.943 
  1394.58,377.322 1405.94,385.675 1410.08,388.716 1421.9,397.407 1425.58,400.111 1437.86,409.139 1441.08,411.505 1453.82,420.871 1456.58,422.899 1469.78,432.603 
  1472.08,434.293 1485.74,444.335 1487.58,445.687 1501.7,456.067 1503.08,457.081 1517.66,467.799 1518.58,468.475 1533.62,479.531 1534.08,479.869 1549.57,491.263 
  1565.07,502.657 1565.53,502.995 1580.57,514.051 1581.49,514.727 1596.07,525.445 1597.45,526.459 1611.57,536.839 1613.41,538.191 1627.07,548.233 
  1629.37,549.923 1642.57,559.627 1645.33,561.655 1658.07,571.021 1661.29,573.387 1673.57,582.416 1677.25,585.119 1689.07,593.81 1693.2,596.851 1704.57,605.204 
  1709.16,608.583 1720.07,616.598 1725.12,620.315 1735.56,627.992 1741.08,632.047 1751.06,639.386 1757.04,643.779 1766.56,650.78 1773,655.511 1782.06,662.174 
  1788.96,667.243 1797.56,673.568 1804.92,678.975 1813.06,684.962 1820.88,690.707 1828.56,696.356 1836.83,702.439 1844.06,707.75 1852.79,714.171 1859.56,719.144 
  1868.75,725.903 1875.06,730.538 1884.71,737.635 1890.56,741.932 1900.67,749.367 1906.06,753.327 1916.63,761.099 1921.55,764.721 1932.59,772.831 1937.05,776.115 
  1948.55,784.563 
  "/>
<polyline clip-path="url(#clip812)" style="stroke:#fbaa0e; stroke-width:4; stroke-opacity:1; fill:none" points="
  1948.55,640.025 1947.68,639.386 1932.59,628.293 1932.18,627.992 1916.68,616.598 1916.63,616.561 1901.18,605.204 1900.67,604.829 1885.68,593.81 1884.71,593.097 
  1870.18,582.416 1868.75,581.365 1854.68,571.021 1852.79,569.633 1839.18,559.627 1836.83,557.901 1823.68,548.233 1820.88,546.169 1808.18,536.839 1804.92,534.437 
  1792.68,525.445 1788.96,522.705 1777.19,514.051 1773,510.973 1761.69,502.657 1757.04,499.241 1746.19,491.263 1741.08,487.509 1730.69,479.869 1725.12,475.777 
  1715.19,468.475 1709.16,464.045 1699.69,457.081 1693.2,452.313 1684.19,445.687 1677.25,440.581 1668.69,434.293 1661.29,428.849 1653.19,422.899 1645.33,417.117 
  1637.69,411.505 1629.37,405.385 1622.19,400.111 1613.41,393.653 1606.69,388.716 1597.45,381.921 1591.2,377.322 1581.49,370.189 1575.7,365.928 1565.53,358.457 
  1560.2,354.534 1549.57,346.725 1544.7,343.14 1533.62,334.993 1529.2,331.746 1517.66,323.261 1513.7,320.352 1501.7,311.529 1498.2,308.958 1485.74,299.797 
  1482.7,297.564 1469.78,288.065 1467.2,286.17 1453.82,276.333 1451.7,274.776 1437.86,264.601 1436.2,263.382 1421.9,252.869 1420.7,251.988 1405.94,241.137 
  1405.21,240.594 1389.99,229.405 1389.71,229.2 1374.21,217.805 1374.03,217.673 1358.71,206.411 
  "/>
<polyline clip-path="url(#clip812)" style="stroke:#f8c931; stroke-width:4; stroke-opacity:1; fill:none" points="
  1555.32,206.411 1565.53,213.919 1570.82,217.805 1581.49,225.651 1586.32,229.2 1597.45,237.383 1601.82,240.594 1613.41,249.115 1617.32,251.988 1629.37,260.847 
  1632.82,263.382 1645.33,272.579 1648.32,274.776 1661.29,284.311 1663.82,286.17 1677.25,296.043 1679.31,297.564 1693.2,307.775 1694.81,308.958 1709.16,319.507 
  1710.31,320.352 1725.12,331.239 1725.81,331.746 1741.08,342.971 1741.31,343.14 1756.81,354.534 1757.04,354.703 1772.31,365.928 1773,366.435 1787.81,377.322 
  1788.96,378.167 1803.31,388.716 1804.92,389.899 1818.81,400.111 1820.88,401.631 1834.31,411.505 1836.83,413.363 1849.81,422.899 1852.79,425.095 1865.3,434.293 
  1868.75,436.827 1880.8,445.687 1884.71,448.559 1896.3,457.081 1900.67,460.291 1911.8,468.475 1916.63,472.023 1927.3,479.869 1932.59,483.755 1942.8,491.263 
  1948.55,495.487 
  "/>
<polyline clip-path="url(#clip812)" style="stroke:#f1e864; stroke-width:4; stroke-opacity:1; fill:none" points="
  1948.55,350.949 1937.92,343.14 1932.59,339.217 1922.42,331.746 1916.63,327.485 1906.93,320.352 1900.67,315.753 1891.43,308.958 1884.71,304.021 1875.93,297.564 
  1868.75,292.289 1860.43,286.17 1852.79,280.557 1844.93,274.776 1836.83,268.825 1829.43,263.382 1820.88,257.093 1813.93,251.988 1804.92,245.361 1798.43,240.594 
  1788.96,233.629 1782.93,229.2 1773,221.897 1767.43,217.805 1757.04,210.165 1751.93,206.411 
  "/>
<defs>
  <clipPath id="clip813">
    <rect x="2160" y="62" width="73" height="1355"/>
  </clipPath>
</defs>
<polyline clip-path="url(#clip813)" style="stroke:#0a0723; stroke-width:4; stroke-opacity:1; fill:none" points="
  2160.76,1332.15 2232.76,1332.15 
  "/>
<polyline clip-path="url(#clip813)" style="stroke:#200c4a; stroke-width:4; stroke-opacity:1; fill:none" points="
  2160.76,1247.54 2232.76,1247.54 
  "/>
<polyline clip-path="url(#clip813)" style="stroke:#3c0965; stroke-width:4; stroke-opacity:1; fill:none" points="
  2160.76,1162.93 2232.76,1162.93 
  "/>
<polyline clip-path="url(#clip813)" style="stroke:#570f6d; stroke-width:4; stroke-opacity:1; fill:none" points="
  2160.76,1078.31 2232.76,1078.31 
  "/>
<polyline clip-path="url(#clip813)" style="stroke:#70196e; stroke-width:4; stroke-opacity:1; fill:none" points="
  2160.76,993.705 2232.76,993.705 
  "/>
<polyline clip-path="url(#clip813)" style="stroke:#892269; stroke-width:4; stroke-opacity:1; fill:none" points="
  2160.76,909.094 2232.76,909.094 
  "/>
<polyline clip-path="url(#clip813)" style="stroke:#a32b61; stroke-width:4; stroke-opacity:1; fill:none" points="
  2160.76,824.484 2232.76,824.484 
  "/>
<polyline clip-path="url(#clip813)" style="stroke:#bb3754; stroke-width:4; stroke-opacity:1; fill:none" points="
  2160.76,739.874 2232.76,739.874 
  "/>
<polyline clip-path="url(#clip813)" style="stroke:#d04544; stroke-width:4; stroke-opacity:1; fill:none" points="
  2160.76,655.264 2232.76,655.264 
  "/>
<polyline clip-path="url(#clip813)" style="stroke:#e35832; stroke-width:4; stroke-opacity:1; fill:none" points="
  2160.76,570.654 2232.76,570.654 
  "/>
<polyline clip-path="url(#clip813)" style="stroke:#f0701e; stroke-width:4; stroke-opacity:1; fill:none" points="
  2160.76,486.043 2232.76,486.043 
  "/>
<polyline clip-path="url(#clip813)" style="stroke:#f98c09; stroke-width:4; stroke-opacity:1; fill:none" points="
  2160.76,401.433 2232.76,401.433 
  "/>
<polyline clip-path="url(#clip813)" style="stroke:#fbaa0e; stroke-width:4; stroke-opacity:1; fill:none" points="
  2160.76,316.823 2232.76,316.823 
  "/>
<polyline clip-path="url(#clip813)" style="stroke:#f8c931; stroke-width:4; stroke-opacity:1; fill:none" points="
  2160.76,232.213 2232.76,232.213 
  "/>
<polyline clip-path="url(#clip813)" style="stroke:#f1e864; stroke-width:4; stroke-opacity:1; fill:none" points="
  2160.76,147.602 2232.76,147.602 
  "/>
<g clip-path="url(#clip810)">
<text style="fill:#000000; fill-opacity:1; font-family:Arial,Helvetica Neue,Helvetica,sans-serif; font-size:48px; text-anchor:start;" transform="rotate(0, 2268.76, 1366.44)" x="2268.76" y="1366.44">-</text>
</g>
<g clip-path="url(#clip810)">
<text style="fill:#000000; fill-opacity:1; font-family:Arial,Helvetica Neue,Helvetica,sans-serif; font-size:48px; text-anchor:start;" transform="rotate(0, 2296.87, 1366.44)" x="2296.87" y="1366.44">30</text>
</g>
<g clip-path="url(#clip810)">
<text style="fill:#000000; fill-opacity:1; font-family:Arial,Helvetica Neue,Helvetica,sans-serif; font-size:48px; text-anchor:start;" transform="rotate(0, 2268.76, 1182.13)" x="2268.76" y="1182.13">-</text>
</g>
<g clip-path="url(#clip810)">
<text style="fill:#000000; fill-opacity:1; font-family:Arial,Helvetica Neue,Helvetica,sans-serif; font-size:48px; text-anchor:start;" transform="rotate(0, 2296.87, 1182.13)" x="2296.87" y="1182.13">20</text>
</g>
<g clip-path="url(#clip810)">
<text style="fill:#000000; fill-opacity:1; font-family:Arial,Helvetica Neue,Helvetica,sans-serif; font-size:48px; text-anchor:start;" transform="rotate(0, 2268.76, 997.827)" x="2268.76" y="997.827">-</text>
</g>
<g clip-path="url(#clip810)">
<text style="fill:#000000; fill-opacity:1; font-family:Arial,Helvetica Neue,Helvetica,sans-serif; font-size:48px; text-anchor:start;" transform="rotate(0, 2296.87, 997.827)" x="2296.87" y="997.827">10</text>
</g>
<g clip-path="url(#clip810)">
<text style="fill:#000000; fill-opacity:1; font-family:Arial,Helvetica Neue,Helvetica,sans-serif; font-size:48px; text-anchor:start;" transform="rotate(0, 2268.76, 813.521)" x="2268.76" y="813.521">0</text>
</g>
<g clip-path="url(#clip810)">
<text style="fill:#000000; fill-opacity:1; font-family:Arial,Helvetica Neue,Helvetica,sans-serif; font-size:48px; text-anchor:start;" transform="rotate(0, 2268.76, 629.215)" x="2268.76" y="629.215">10</text>
</g>
<g clip-path="url(#clip810)">
<text style="fill:#000000; fill-opacity:1; font-family:Arial,Helvetica Neue,Helvetica,sans-serif; font-size:48px; text-anchor:start;" transform="rotate(0, 2268.76, 444.909)" x="2268.76" y="444.909">20</text>
</g>
<g clip-path="url(#clip810)">
<text style="fill:#000000; fill-opacity:1; font-family:Arial,Helvetica Neue,Helvetica,sans-serif; font-size:48px; text-anchor:start;" transform="rotate(0, 2268.76, 260.603)" x="2268.76" y="260.603">30</text>
</g>
<polyline clip-path="url(#clip810)" style="stroke:#000000; stroke-width:4; stroke-opacity:1; fill:none" points="
  2232.76,1416.76 2232.76,1352.79 2256.76,1352.79 2232.76,1352.79 2232.76,1168.48 2256.76,1168.48 2232.76,1168.48 2232.76,984.175 2256.76,984.175 2232.76,984.175 
  2232.76,799.87 2256.76,799.87 2232.76,799.87 2232.76,615.564 2256.76,615.564 2232.76,615.564 2232.76,431.258 2256.76,431.258 2232.76,431.258 2232.76,246.952 
  2256.76,246.952 2232.76,246.952 2232.76,62.9921 
  "/>
<path clip-path="url(#clip810)" d="
M1784.38 289.558 L2048.71 289.558 L2048.71 108.118 L1784.38 108.118  Z
  " fill="#ffffff" fill-rule="evenodd" fill-opacity="1"/>
<polyline clip-path="url(#clip810)" style="stroke:#000000; stroke-width:4; stroke-opacity:1; fill:none" points="
  1784.38,289.558 2048.71,289.558 2048.71,108.118 1784.38,108.118 1784.38,289.558 
  "/>
<circle clip-path="url(#clip810)" cx="1869.78" cy="168.598" r="23" fill="#009af9" fill-rule="evenodd" fill-opacity="1" stroke="#000000" stroke-opacity="1" stroke-width="5.12"/>
<g clip-path="url(#clip810)">
<text style="fill:#000000; fill-opacity:1; font-family:Arial,Helvetica Neue,Helvetica,sans-serif; font-size:48px; text-anchor:start;" transform="rotate(0, 1955.18, 186.098)" x="1955.18" y="186.098">y1</text>
</g>
<circle clip-path="url(#clip810)" cx="1869.78" cy="229.078" r="23" fill="#e26f46" fill-rule="evenodd" fill-opacity="1" stroke="#000000" stroke-opacity="1" stroke-width="5.12"/>
<g clip-path="url(#clip810)">
<text style="fill:#000000; fill-opacity:1; font-family:Arial,Helvetica Neue,Helvetica,sans-serif; font-size:48px; text-anchor:start;" transform="rotate(0, 1955.18, 246.578)" x="1955.18" y="246.578">y2</text>
</g>
</svg>
