<?xml version="1.0" encoding="utf-8"?>
<svg xmlns="http://www.w3.org/2000/svg" xmlns:xlink="http://www.w3.org/1999/xlink" width="600" height="400" viewBox="0 0 2400 1600">
<defs>
  <clipPath id="clip880">
    <rect x="0" y="0" width="2400" height="1600"/>
  </clipPath>
</defs>
<path clip-path="url(#clip880)" d="
M0 1600 L2400 1600 L2400 0 L0 0  Z
  " fill="#ffffff" fill-rule="evenodd" fill-opacity="1"/>
<defs>
  <clipPath id="clip881">
    <rect x="480" y="0" width="1681" height="1600"/>
  </clipPath>
</defs>
<path clip-path="url(#clip880)" d="
M86.9921 1521.01 L2112.76 1521.01 L2112.76 62.9921 L86.9921 62.9921  Z
  " fill="#ffffff" fill-rule="evenodd" fill-opacity="1"/>
<defs>
  <clipPath id="clip882">
    <rect x="86" y="62" width="2027" height="1459"/>
  </clipPath>
</defs>
<polyline clip-path="url(#clip882)" style="stroke:#000000; stroke-width:2; stroke-opacity:0.1; fill:none" points="
  257.163,1521.01 257.163,62.9921 
  "/>
<polyline clip-path="url(#clip882)" style="stroke:#000000; stroke-width:2; stroke-opacity:0.1; fill:none" points="
  677.782,1521.01 677.782,62.9921 
  "/>
<polyline clip-path="url(#clip882)" style="stroke:#000000; stroke-width:2; stroke-opacity:0.1; fill:none" points="
  1098.4,1521.01 1098.4,62.9921 
  "/>
<polyline clip-path="url(#clip882)" style="stroke:#000000; stroke-width:2; stroke-opacity:0.1; fill:none" points="
  1519.02,1521.01 1519.02,62.9921 
  "/>
<polyline clip-path="url(#clip882)" style="stroke:#000000; stroke-width:2; stroke-opacity:0.1; fill:none" points="
  1939.64,1521.01 1939.64,62.9921 
  "/>
<polyline clip-path="url(#clip880)" style="stroke:#000000; stroke-width:4; stroke-opacity:1; fill:none" points="
  86.9921,1521.01 2112.76,1521.01 
  "/>
<polyline clip-path="url(#clip880)" style="stroke:#000000; stroke-width:4; stroke-opacity:1; fill:none" points="
  257.163,1521.01 257.163,1503.51 
  "/>
<polyline clip-path="url(#clip880)" style="stroke:#000000; stroke-width:4; stroke-opacity:1; fill:none" points="
  677.782,1521.01 677.782,1503.51 
  "/>
<polyline clip-path="url(#clip880)" style="stroke:#000000; stroke-width:4; stroke-opacity:1; fill:none" points="
  1098.4,1521.01 1098.4,1503.51 
  "/>
<polyline clip-path="url(#clip880)" style="stroke:#000000; stroke-width:4; stroke-opacity:1; fill:none" points="
  1519.02,1521.01 1519.02,1503.51 
  "/>
<polyline clip-path="url(#clip880)" style="stroke:#000000; stroke-width:4; stroke-opacity:1; fill:none" points="
  1939.64,1521.01 1939.64,1503.51 
  "/>
<g clip-path="url(#clip880)">
<text style="fill:#000000; fill-opacity:1; font-family:Arial,Helvetica Neue,Helvetica,sans-serif; font-size:48px; text-anchor:middle;" transform="rotate(0, 257.163, 1582.21)" x="257.163" y="1582.21">−5.0</text>
</g>
<g clip-path="url(#clip880)">
<text style="fill:#000000; fill-opacity:1; font-family:Arial,Helvetica Neue,Helvetica,sans-serif; font-size:48px; text-anchor:middle;" transform="rotate(0, 677.782, 1582.21)" x="677.782" y="1582.21">−2.5</text>
</g>
<g clip-path="url(#clip880)">
<text style="fill:#000000; fill-opacity:1; font-family:Arial,Helvetica Neue,Helvetica,sans-serif; font-size:48px; text-anchor:middle;" transform="rotate(0, 1098.4, 1582.21)" x="1098.4" y="1582.21">0.0</text>
</g>
<g clip-path="url(#clip880)">
<text style="fill:#000000; fill-opacity:1; font-family:Arial,Helvetica Neue,Helvetica,sans-serif; font-size:48px; text-anchor:middle;" transform="rotate(0, 1519.02, 1582.21)" x="1519.02" y="1582.21">2.5</text>
</g>
<g clip-path="url(#clip880)">
<text style="fill:#000000; fill-opacity:1; font-family:Arial,Helvetica Neue,Helvetica,sans-serif; font-size:48px; text-anchor:middle;" transform="rotate(0, 1939.64, 1582.21)" x="1939.64" y="1582.21">5.0</text>
</g>
<polyline clip-path="url(#clip882)" style="stroke:#000000; stroke-width:2; stroke-opacity:0.1; fill:none" points="
  86.9921,1444.61 2112.76,1444.61 
  "/>
<polyline clip-path="url(#clip882)" style="stroke:#000000; stroke-width:2; stroke-opacity:0.1; fill:none" points="
  86.9921,1137.82 2112.76,1137.82 
  "/>
<polyline clip-path="url(#clip882)" style="stroke:#000000; stroke-width:2; stroke-opacity:0.1; fill:none" points="
  86.9921,831.032 2112.76,831.032 
  "/>
<polyline clip-path="url(#clip882)" style="stroke:#000000; stroke-width:2; stroke-opacity:0.1; fill:none" points="
  86.9921,524.244 2112.76,524.244 
  "/>
<polyline clip-path="url(#clip882)" style="stroke:#000000; stroke-width:2; stroke-opacity:0.1; fill:none" points="
  86.9921,217.456 2112.76,217.456 
  "/>
<polyline clip-path="url(#clip880)" style="stroke:#000000; stroke-width:4; stroke-opacity:1; fill:none" points="
  86.9921,1521.01 86.9921,62.9921 
  "/>
<polyline clip-path="url(#clip880)" style="stroke:#000000; stroke-width:4; stroke-opacity:1; fill:none" points="
  86.9921,1444.61 111.301,1444.61 
  "/>
<polyline clip-path="url(#clip880)" style="stroke:#000000; stroke-width:4; stroke-opacity:1; fill:none" points="
  86.9921,1137.82 111.301,1137.82 
  "/>
<polyline clip-path="url(#clip880)" style="stroke:#000000; stroke-width:4; stroke-opacity:1; fill:none" points="
  86.9921,831.032 111.301,831.032 
  "/>
<polyline clip-path="url(#clip880)" style="stroke:#000000; stroke-width:4; stroke-opacity:1; fill:none" points="
  86.9921,524.244 111.301,524.244 
  "/>
<polyline clip-path="url(#clip880)" style="stroke:#000000; stroke-width:4; stroke-opacity:1; fill:none" points="
  86.9921,217.456 111.301,217.456 
  "/>
<g clip-path="url(#clip880)">
<text style="fill:#000000; fill-opacity:1; font-family:Arial,Helvetica Neue,Helvetica,sans-serif; font-size:48px; text-anchor:end;" transform="rotate(0, 50.9921, 1462.11)" x="50.9921" y="1462.11">−5.0</text>
</g>
<g clip-path="url(#clip880)">
<text style="fill:#000000; fill-opacity:1; font-family:Arial,Helvetica Neue,Helvetica,sans-serif; font-size:48px; text-anchor:end;" transform="rotate(0, 50.9921, 1155.32)" x="50.9921" y="1155.32">−2.5</text>
</g>
<g clip-path="url(#clip880)">
<text style="fill:#000000; fill-opacity:1; font-family:Arial,Helvetica Neue,Helvetica,sans-serif; font-size:48px; text-anchor:end;" transform="rotate(0, 50.9921, 848.532)" x="50.9921" y="848.532">0.0</text>
</g>
<g clip-path="url(#clip880)">
<text style="fill:#000000; fill-opacity:1; font-family:Arial,Helvetica Neue,Helvetica,sans-serif; font-size:48px; text-anchor:end;" transform="rotate(0, 50.9921, 541.744)" x="50.9921" y="541.744">2.5</text>
</g>
<g clip-path="url(#clip880)">
<text style="fill:#000000; fill-opacity:1; font-family:Arial,Helvetica Neue,Helvetica,sans-serif; font-size:48px; text-anchor:end;" transform="rotate(0, 50.9921, 234.956)" x="50.9921" y="234.956">5.0</text>
</g>
<g clip-path="url(#clip880)">
<text style="fill:#000000; fill-opacity:1; font-family:Arial,Helvetica Neue,Helvetica,sans-serif; font-size:84px; text-anchor:middle;" transform="rotate(0, 1099.87, 73.2)" x="1099.87" y="73.2">QDA</text>
</g>
<circle clip-path="url(#clip882)" cx="1718.11" cy="230.149" r="14" fill="#009af9" fill-rule="evenodd" fill-opacity="1" stroke="#000000" stroke-opacity="1" stroke-width="3.2"/>
<circle clip-path="url(#clip882)" cx="1706.78" cy="505.872" r="14" fill="#009af9" fill-rule="evenodd" fill-opacity="1" stroke="#000000" stroke-opacity="1" stroke-width="3.2"/>
<circle clip-path="url(#clip882)" cx="1340.51" cy="700.959" r="14" fill="#009af9" fill-rule="evenodd" fill-opacity="1" stroke="#000000" stroke-opacity="1" stroke-width="3.2"/>
<circle clip-path="url(#clip882)" cx="1668.3" cy="598.701" r="14" fill="#009af9" fill-rule="evenodd" fill-opacity="1" stroke="#000000" stroke-opacity="1" stroke-width="3.2"/>
<circle clip-path="url(#clip882)" cx="1500.05" cy="619.309" r="14" fill="#009af9" fill-rule="evenodd" fill-opacity="1" stroke="#000000" stroke-opacity="1" stroke-width="3.2"/>
<circle clip-path="url(#clip882)" cx="1354.15" cy="732.052" r="14" fill="#009af9" fill-rule="evenodd" fill-opacity="1" stroke="#000000" stroke-opacity="1" stroke-width="3.2"/>
<circle clip-path="url(#clip882)" cx="1223.38" cy="528.815" r="14" fill="#009af9" fill-rule="evenodd" fill-opacity="1" stroke="#000000" stroke-opacity="1" stroke-width="3.2"/>
<circle clip-path="url(#clip882)" cx="1575.85" cy="521.736" r="14" fill="#009af9" fill-rule="evenodd" fill-opacity="1" stroke="#000000" stroke-opacity="1" stroke-width="3.2"/>
<circle clip-path="url(#clip882)" cx="1368" cy="713.137" r="14" fill="#009af9" fill-rule="evenodd" fill-opacity="1" stroke="#000000" stroke-opacity="1" stroke-width="3.2"/>
<circle clip-path="url(#clip882)" cx="1264.2" cy="720.111" r="14" fill="#009af9" fill-rule="evenodd" fill-opacity="1" stroke="#000000" stroke-opacity="1" stroke-width="3.2"/>
<circle clip-path="url(#clip882)" cx="1201.83" cy="540.41" r="14" fill="#009af9" fill-rule="evenodd" fill-opacity="1" stroke="#000000" stroke-opacity="1" stroke-width="3.2"/>
<circle clip-path="url(#clip882)" cx="1323.42" cy="738.477" r="14" fill="#009af9" fill-rule="evenodd" fill-opacity="1" stroke="#000000" stroke-opacity="1" stroke-width="3.2"/>
<circle clip-path="url(#clip882)" cx="1500.98" cy="321.133" r="14" fill="#009af9" fill-rule="evenodd" fill-opacity="1" stroke="#000000" stroke-opacity="1" stroke-width="3.2"/>
<circle clip-path="url(#clip882)" cx="1011.91" cy="1094.62" r="14" fill="#009af9" fill-rule="evenodd" fill-opacity="1" stroke="#000000" stroke-opacity="1" stroke-width="3.2"/>
<circle clip-path="url(#clip882)" cx="1621.02" cy="184.09" r="14" fill="#009af9" fill-rule="evenodd" fill-opacity="1" stroke="#000000" stroke-opacity="1" stroke-width="3.2"/>
<circle clip-path="url(#clip882)" cx="1227.64" cy="525.602" r="14" fill="#009af9" fill-rule="evenodd" fill-opacity="1" stroke="#000000" stroke-opacity="1" stroke-width="3.2"/>
<circle clip-path="url(#clip882)" cx="1397.81" cy="180.718" r="14" fill="#009af9" fill-rule="evenodd" fill-opacity="1" stroke="#000000" stroke-opacity="1" stroke-width="3.2"/>
<circle clip-path="url(#clip882)" cx="1197.35" cy="573.981" r="14" fill="#009af9" fill-rule="evenodd" fill-opacity="1" stroke="#000000" stroke-opacity="1" stroke-width="3.2"/>
<circle clip-path="url(#clip882)" cx="1019.88" cy="738.412" r="14" fill="#009af9" fill-rule="evenodd" fill-opacity="1" stroke="#000000" stroke-opacity="1" stroke-width="3.2"/>
<circle clip-path="url(#clip882)" cx="1374.52" cy="444.331" r="14" fill="#009af9" fill-rule="evenodd" fill-opacity="1" stroke="#000000" stroke-opacity="1" stroke-width="3.2"/>
<circle clip-path="url(#clip882)" cx="1167.25" cy="645.37" r="14" fill="#009af9" fill-rule="evenodd" fill-opacity="1" stroke="#000000" stroke-opacity="1" stroke-width="3.2"/>
<circle clip-path="url(#clip882)" cx="1377.2" cy="319.731" r="14" fill="#009af9" fill-rule="evenodd" fill-opacity="1" stroke="#000000" stroke-opacity="1" stroke-width="3.2"/>
<circle clip-path="url(#clip882)" cx="1533.27" cy="625.102" r="14" fill="#009af9" fill-rule="evenodd" fill-opacity="1" stroke="#000000" stroke-opacity="1" stroke-width="3.2"/>
<circle clip-path="url(#clip882)" cx="1390.67" cy="319.762" r="14" fill="#009af9" fill-rule="evenodd" fill-opacity="1" stroke="#000000" stroke-opacity="1" stroke-width="3.2"/>
<circle clip-path="url(#clip882)" cx="686.994" cy="835.518" r="14" fill="#009af9" fill-rule="evenodd" fill-opacity="1" stroke="#000000" stroke-opacity="1" stroke-width="3.2"/>
<circle clip-path="url(#clip882)" cx="1486.94" cy="621.575" r="14" fill="#009af9" fill-rule="evenodd" fill-opacity="1" stroke="#000000" stroke-opacity="1" stroke-width="3.2"/>
<circle clip-path="url(#clip882)" cx="1742.46" cy="382.611" r="14" fill="#009af9" fill-rule="evenodd" fill-opacity="1" stroke="#000000" stroke-opacity="1" stroke-width="3.2"/>
<circle clip-path="url(#clip882)" cx="1442.21" cy="783.472" r="14" fill="#009af9" fill-rule="evenodd" fill-opacity="1" stroke="#000000" stroke-opacity="1" stroke-width="3.2"/>
<circle clip-path="url(#clip882)" cx="1538.32" cy="640.157" r="14" fill="#009af9" fill-rule="evenodd" fill-opacity="1" stroke="#000000" stroke-opacity="1" stroke-width="3.2"/>
<circle clip-path="url(#clip882)" cx="1304.3" cy="695.952" r="14" fill="#009af9" fill-rule="evenodd" fill-opacity="1" stroke="#000000" stroke-opacity="1" stroke-width="3.2"/>
<circle clip-path="url(#clip882)" cx="1593.3" cy="745.31" r="14" fill="#009af9" fill-rule="evenodd" fill-opacity="1" stroke="#000000" stroke-opacity="1" stroke-width="3.2"/>
<circle clip-path="url(#clip882)" cx="1400.07" cy="606.84" r="14" fill="#009af9" fill-rule="evenodd" fill-opacity="1" stroke="#000000" stroke-opacity="1" stroke-width="3.2"/>
<circle clip-path="url(#clip882)" cx="1635.17" cy="672.876" r="14" fill="#009af9" fill-rule="evenodd" fill-opacity="1" stroke="#000000" stroke-opacity="1" stroke-width="3.2"/>
<circle clip-path="url(#clip882)" cx="1678.86" cy="769.323" r="14" fill="#009af9" fill-rule="evenodd" fill-opacity="1" stroke="#000000" stroke-opacity="1" stroke-width="3.2"/>
<circle clip-path="url(#clip882)" cx="1477.36" cy="104.257" r="14" fill="#009af9" fill-rule="evenodd" fill-opacity="1" stroke="#000000" stroke-opacity="1" stroke-width="3.2"/>
<circle clip-path="url(#clip882)" cx="1189" cy="638.439" r="14" fill="#009af9" fill-rule="evenodd" fill-opacity="1" stroke="#000000" stroke-opacity="1" stroke-width="3.2"/>
<circle clip-path="url(#clip882)" cx="1636.9" cy="1091.57" r="14" fill="#009af9" fill-rule="evenodd" fill-opacity="1" stroke="#000000" stroke-opacity="1" stroke-width="3.2"/>
<circle clip-path="url(#clip882)" cx="1431.26" cy="701.25" r="14" fill="#009af9" fill-rule="evenodd" fill-opacity="1" stroke="#000000" stroke-opacity="1" stroke-width="3.2"/>
<circle clip-path="url(#clip882)" cx="2055.42" cy="338.922" r="14" fill="#009af9" fill-rule="evenodd" fill-opacity="1" stroke="#000000" stroke-opacity="1" stroke-width="3.2"/>
<circle clip-path="url(#clip882)" cx="1510.53" cy="362.608" r="14" fill="#009af9" fill-rule="evenodd" fill-opacity="1" stroke="#000000" stroke-opacity="1" stroke-width="3.2"/>
<circle clip-path="url(#clip882)" cx="1106.29" cy="291.848" r="14" fill="#009af9" fill-rule="evenodd" fill-opacity="1" stroke="#000000" stroke-opacity="1" stroke-width="3.2"/>
<circle clip-path="url(#clip882)" cx="1531.27" cy="748.186" r="14" fill="#009af9" fill-rule="evenodd" fill-opacity="1" stroke="#000000" stroke-opacity="1" stroke-width="3.2"/>
<circle clip-path="url(#clip882)" cx="1739.84" cy="459.409" r="14" fill="#009af9" fill-rule="evenodd" fill-opacity="1" stroke="#000000" stroke-opacity="1" stroke-width="3.2"/>
<circle clip-path="url(#clip882)" cx="1340.5" cy="402.439" r="14" fill="#009af9" fill-rule="evenodd" fill-opacity="1" stroke="#000000" stroke-opacity="1" stroke-width="3.2"/>
<circle clip-path="url(#clip882)" cx="1260.26" cy="505.875" r="14" fill="#009af9" fill-rule="evenodd" fill-opacity="1" stroke="#000000" stroke-opacity="1" stroke-width="3.2"/>
<circle clip-path="url(#clip882)" cx="1840.86" cy="467.861" r="14" fill="#009af9" fill-rule="evenodd" fill-opacity="1" stroke="#000000" stroke-opacity="1" stroke-width="3.2"/>
<circle clip-path="url(#clip882)" cx="1503.23" cy="400.228" r="14" fill="#009af9" fill-rule="evenodd" fill-opacity="1" stroke="#000000" stroke-opacity="1" stroke-width="3.2"/>
<circle clip-path="url(#clip882)" cx="1361.88" cy="918.846" r="14" fill="#009af9" fill-rule="evenodd" fill-opacity="1" stroke="#000000" stroke-opacity="1" stroke-width="3.2"/>
<circle clip-path="url(#clip882)" cx="1832.16" cy="622.663" r="14" fill="#009af9" fill-rule="evenodd" fill-opacity="1" stroke="#000000" stroke-opacity="1" stroke-width="3.2"/>
<circle clip-path="url(#clip882)" cx="1395.94" cy="742.31" r="14" fill="#009af9" fill-rule="evenodd" fill-opacity="1" stroke="#000000" stroke-opacity="1" stroke-width="3.2"/>
<circle clip-path="url(#clip882)" cx="1524.42" cy="655.934" r="14" fill="#009af9" fill-rule="evenodd" fill-opacity="1" stroke="#000000" stroke-opacity="1" stroke-width="3.2"/>
<circle clip-path="url(#clip882)" cx="1752.75" cy="307.797" r="14" fill="#009af9" fill-rule="evenodd" fill-opacity="1" stroke="#000000" stroke-opacity="1" stroke-width="3.2"/>
<circle clip-path="url(#clip882)" cx="1088.01" cy="446.663" r="14" fill="#009af9" fill-rule="evenodd" fill-opacity="1" stroke="#000000" stroke-opacity="1" stroke-width="3.2"/>
<circle clip-path="url(#clip882)" cx="1648.06" cy="705.683" r="14" fill="#009af9" fill-rule="evenodd" fill-opacity="1" stroke="#000000" stroke-opacity="1" stroke-width="3.2"/>
<circle clip-path="url(#clip882)" cx="1075.9" cy="716.545" r="14" fill="#009af9" fill-rule="evenodd" fill-opacity="1" stroke="#000000" stroke-opacity="1" stroke-width="3.2"/>
<circle clip-path="url(#clip882)" cx="1462.41" cy="543.5" r="14" fill="#009af9" fill-rule="evenodd" fill-opacity="1" stroke="#000000" stroke-opacity="1" stroke-width="3.2"/>
<circle clip-path="url(#clip882)" cx="1381.79" cy="662.022" r="14" fill="#009af9" fill-rule="evenodd" fill-opacity="1" stroke="#000000" stroke-opacity="1" stroke-width="3.2"/>
<circle clip-path="url(#clip882)" cx="1013.31" cy="472.516" r="14" fill="#009af9" fill-rule="evenodd" fill-opacity="1" stroke="#000000" stroke-opacity="1" stroke-width="3.2"/>
<circle clip-path="url(#clip882)" cx="1529.52" cy="549.018" r="14" fill="#009af9" fill-rule="evenodd" fill-opacity="1" stroke="#000000" stroke-opacity="1" stroke-width="3.2"/>
<circle clip-path="url(#clip882)" cx="1676.3" cy="520.226" r="14" fill="#009af9" fill-rule="evenodd" fill-opacity="1" stroke="#000000" stroke-opacity="1" stroke-width="3.2"/>
<circle clip-path="url(#clip882)" cx="1252.64" cy="620.17" r="14" fill="#009af9" fill-rule="evenodd" fill-opacity="1" stroke="#000000" stroke-opacity="1" stroke-width="3.2"/>
<circle clip-path="url(#clip882)" cx="1790.36" cy="581.716" r="14" fill="#009af9" fill-rule="evenodd" fill-opacity="1" stroke="#000000" stroke-opacity="1" stroke-width="3.2"/>
<circle clip-path="url(#clip882)" cx="1440.64" cy="393.374" r="14" fill="#009af9" fill-rule="evenodd" fill-opacity="1" stroke="#000000" stroke-opacity="1" stroke-width="3.2"/>
<circle clip-path="url(#clip882)" cx="1470.39" cy="292.395" r="14" fill="#009af9" fill-rule="evenodd" fill-opacity="1" stroke="#000000" stroke-opacity="1" stroke-width="3.2"/>
<circle clip-path="url(#clip882)" cx="1310.71" cy="477.042" r="14" fill="#009af9" fill-rule="evenodd" fill-opacity="1" stroke="#000000" stroke-opacity="1" stroke-width="3.2"/>
<circle clip-path="url(#clip882)" cx="1049.18" cy="470.265" r="14" fill="#009af9" fill-rule="evenodd" fill-opacity="1" stroke="#000000" stroke-opacity="1" stroke-width="3.2"/>
<circle clip-path="url(#clip882)" cx="1803.95" cy="831.062" r="14" fill="#009af9" fill-rule="evenodd" fill-opacity="1" stroke="#000000" stroke-opacity="1" stroke-width="3.2"/>
<circle clip-path="url(#clip882)" cx="1442.4" cy="437.649" r="14" fill="#009af9" fill-rule="evenodd" fill-opacity="1" stroke="#000000" stroke-opacity="1" stroke-width="3.2"/>
<circle clip-path="url(#clip882)" cx="1574.91" cy="416.42" r="14" fill="#009af9" fill-rule="evenodd" fill-opacity="1" stroke="#000000" stroke-opacity="1" stroke-width="3.2"/>
<circle clip-path="url(#clip882)" cx="1364.02" cy="441.225" r="14" fill="#009af9" fill-rule="evenodd" fill-opacity="1" stroke="#000000" stroke-opacity="1" stroke-width="3.2"/>
<circle clip-path="url(#clip882)" cx="1510.75" cy="637.959" r="14" fill="#009af9" fill-rule="evenodd" fill-opacity="1" stroke="#000000" stroke-opacity="1" stroke-width="3.2"/>
<circle clip-path="url(#clip882)" cx="1117.07" cy="585.479" r="14" fill="#009af9" fill-rule="evenodd" fill-opacity="1" stroke="#000000" stroke-opacity="1" stroke-width="3.2"/>
<circle clip-path="url(#clip882)" cx="1945.55" cy="584.138" r="14" fill="#009af9" fill-rule="evenodd" fill-opacity="1" stroke="#000000" stroke-opacity="1" stroke-width="3.2"/>
<circle clip-path="url(#clip882)" cx="1974.12" cy="547.471" r="14" fill="#009af9" fill-rule="evenodd" fill-opacity="1" stroke="#000000" stroke-opacity="1" stroke-width="3.2"/>
<circle clip-path="url(#clip882)" cx="1551.18" cy="792.812" r="14" fill="#009af9" fill-rule="evenodd" fill-opacity="1" stroke="#000000" stroke-opacity="1" stroke-width="3.2"/>
<circle clip-path="url(#clip882)" cx="1387.82" cy="249.29" r="14" fill="#009af9" fill-rule="evenodd" fill-opacity="1" stroke="#000000" stroke-opacity="1" stroke-width="3.2"/>
<circle clip-path="url(#clip882)" cx="1424.35" cy="720.62" r="14" fill="#009af9" fill-rule="evenodd" fill-opacity="1" stroke="#000000" stroke-opacity="1" stroke-width="3.2"/>
<circle clip-path="url(#clip882)" cx="1456.49" cy="449.258" r="14" fill="#009af9" fill-rule="evenodd" fill-opacity="1" stroke="#000000" stroke-opacity="1" stroke-width="3.2"/>
<circle clip-path="url(#clip882)" cx="1673.18" cy="710.965" r="14" fill="#009af9" fill-rule="evenodd" fill-opacity="1" stroke="#000000" stroke-opacity="1" stroke-width="3.2"/>
<circle clip-path="url(#clip882)" cx="1073" cy="852.705" r="14" fill="#009af9" fill-rule="evenodd" fill-opacity="1" stroke="#000000" stroke-opacity="1" stroke-width="3.2"/>
<circle clip-path="url(#clip882)" cx="1473.2" cy="682.455" r="14" fill="#009af9" fill-rule="evenodd" fill-opacity="1" stroke="#000000" stroke-opacity="1" stroke-width="3.2"/>
<circle clip-path="url(#clip882)" cx="896.59" cy="530.679" r="14" fill="#009af9" fill-rule="evenodd" fill-opacity="1" stroke="#000000" stroke-opacity="1" stroke-width="3.2"/>
<circle clip-path="url(#clip882)" cx="1407.01" cy="566.851" r="14" fill="#009af9" fill-rule="evenodd" fill-opacity="1" stroke="#000000" stroke-opacity="1" stroke-width="3.2"/>
<circle clip-path="url(#clip882)" cx="1929.36" cy="547.789" r="14" fill="#009af9" fill-rule="evenodd" fill-opacity="1" stroke="#000000" stroke-opacity="1" stroke-width="3.2"/>
<circle clip-path="url(#clip882)" cx="1301.42" cy="767.708" r="14" fill="#009af9" fill-rule="evenodd" fill-opacity="1" stroke="#000000" stroke-opacity="1" stroke-width="3.2"/>
<circle clip-path="url(#clip882)" cx="1555.85" cy="818.33" r="14" fill="#009af9" fill-rule="evenodd" fill-opacity="1" stroke="#000000" stroke-opacity="1" stroke-width="3.2"/>
<circle clip-path="url(#clip882)" cx="1516.97" cy="773.345" r="14" fill="#009af9" fill-rule="evenodd" fill-opacity="1" stroke="#000000" stroke-opacity="1" stroke-width="3.2"/>
<circle clip-path="url(#clip882)" cx="1491.23" cy="491.321" r="14" fill="#009af9" fill-rule="evenodd" fill-opacity="1" stroke="#000000" stroke-opacity="1" stroke-width="3.2"/>
<circle clip-path="url(#clip882)" cx="1169.88" cy="609.924" r="14" fill="#009af9" fill-rule="evenodd" fill-opacity="1" stroke="#000000" stroke-opacity="1" stroke-width="3.2"/>
<circle clip-path="url(#clip882)" cx="1869.07" cy="510.577" r="14" fill="#009af9" fill-rule="evenodd" fill-opacity="1" stroke="#000000" stroke-opacity="1" stroke-width="3.2"/>
<circle clip-path="url(#clip882)" cx="1177.17" cy="358.304" r="14" fill="#009af9" fill-rule="evenodd" fill-opacity="1" stroke="#000000" stroke-opacity="1" stroke-width="3.2"/>
<circle clip-path="url(#clip882)" cx="1324.8" cy="607.807" r="14" fill="#009af9" fill-rule="evenodd" fill-opacity="1" stroke="#000000" stroke-opacity="1" stroke-width="3.2"/>
<circle clip-path="url(#clip882)" cx="1286.45" cy="458.292" r="14" fill="#009af9" fill-rule="evenodd" fill-opacity="1" stroke="#000000" stroke-opacity="1" stroke-width="3.2"/>
<circle clip-path="url(#clip882)" cx="1322.64" cy="775.821" r="14" fill="#009af9" fill-rule="evenodd" fill-opacity="1" stroke="#000000" stroke-opacity="1" stroke-width="3.2"/>
<circle clip-path="url(#clip882)" cx="1651.83" cy="583.193" r="14" fill="#009af9" fill-rule="evenodd" fill-opacity="1" stroke="#000000" stroke-opacity="1" stroke-width="3.2"/>
<circle clip-path="url(#clip882)" cx="1981.18" cy="423.34" r="14" fill="#009af9" fill-rule="evenodd" fill-opacity="1" stroke="#000000" stroke-opacity="1" stroke-width="3.2"/>
<circle clip-path="url(#clip882)" cx="1912.21" cy="651.425" r="14" fill="#009af9" fill-rule="evenodd" fill-opacity="1" stroke="#000000" stroke-opacity="1" stroke-width="3.2"/>
<circle clip-path="url(#clip882)" cx="1484.02" cy="633.505" r="14" fill="#009af9" fill-rule="evenodd" fill-opacity="1" stroke="#000000" stroke-opacity="1" stroke-width="3.2"/>
<circle clip-path="url(#clip882)" cx="1719.44" cy="810.604" r="14" fill="#009af9" fill-rule="evenodd" fill-opacity="1" stroke="#000000" stroke-opacity="1" stroke-width="3.2"/>
<circle clip-path="url(#clip882)" cx="1571.78" cy="614.41" r="14" fill="#009af9" fill-rule="evenodd" fill-opacity="1" stroke="#000000" stroke-opacity="1" stroke-width="3.2"/>
<circle clip-path="url(#clip882)" cx="651.971" cy="1115.08" r="14" fill="#e26f46" fill-rule="evenodd" fill-opacity="1" stroke="#000000" stroke-opacity="1" stroke-width="3.2"/>
<circle clip-path="url(#clip882)" cx="589.509" cy="1204.56" r="14" fill="#e26f46" fill-rule="evenodd" fill-opacity="1" stroke="#000000" stroke-opacity="1" stroke-width="3.2"/>
<circle clip-path="url(#clip882)" cx="376.421" cy="1097.3" r="14" fill="#e26f46" fill-rule="evenodd" fill-opacity="1" stroke="#000000" stroke-opacity="1" stroke-width="3.2"/>
<circle clip-path="url(#clip882)" cx="563.863" cy="1139.46" r="14" fill="#e26f46" fill-rule="evenodd" fill-opacity="1" stroke="#000000" stroke-opacity="1" stroke-width="3.2"/>
<circle clip-path="url(#clip882)" cx="361.756" cy="1127.76" r="14" fill="#e26f46" fill-rule="evenodd" fill-opacity="1" stroke="#000000" stroke-opacity="1" stroke-width="3.2"/>
<circle clip-path="url(#clip882)" cx="526.346" cy="1138.17" r="14" fill="#e26f46" fill-rule="evenodd" fill-opacity="1" stroke="#000000" stroke-opacity="1" stroke-width="3.2"/>
<circle clip-path="url(#clip882)" cx="731.233" cy="1317.58" r="14" fill="#e26f46" fill-rule="evenodd" fill-opacity="1" stroke="#000000" stroke-opacity="1" stroke-width="3.2"/>
<circle clip-path="url(#clip882)" cx="512.683" cy="1282.64" r="14" fill="#e26f46" fill-rule="evenodd" fill-opacity="1" stroke="#000000" stroke-opacity="1" stroke-width="3.2"/>
<circle clip-path="url(#clip882)" cx="607.151" cy="1089.7" r="14" fill="#e26f46" fill-rule="evenodd" fill-opacity="1" stroke="#000000" stroke-opacity="1" stroke-width="3.2"/>
<circle clip-path="url(#clip882)" cx="789.07" cy="1373.24" r="14" fill="#e26f46" fill-rule="evenodd" fill-opacity="1" stroke="#000000" stroke-opacity="1" stroke-width="3.2"/>
<circle clip-path="url(#clip882)" cx="681.35" cy="1239.79" r="14" fill="#e26f46" fill-rule="evenodd" fill-opacity="1" stroke="#000000" stroke-opacity="1" stroke-width="3.2"/>
<circle clip-path="url(#clip882)" cx="771.118" cy="1226.87" r="14" fill="#e26f46" fill-rule="evenodd" fill-opacity="1" stroke="#000000" stroke-opacity="1" stroke-width="3.2"/>
<circle clip-path="url(#clip882)" cx="552.063" cy="1113.66" r="14" fill="#e26f46" fill-rule="evenodd" fill-opacity="1" stroke="#000000" stroke-opacity="1" stroke-width="3.2"/>
<circle clip-path="url(#clip882)" cx="555.491" cy="1056.06" r="14" fill="#e26f46" fill-rule="evenodd" fill-opacity="1" stroke="#000000" stroke-opacity="1" stroke-width="3.2"/>
<circle clip-path="url(#clip882)" cx="971.37" cy="1479.74" r="14" fill="#e26f46" fill-rule="evenodd" fill-opacity="1" stroke="#000000" stroke-opacity="1" stroke-width="3.2"/>
<circle clip-path="url(#clip882)" cx="559.342" cy="1150.43" r="14" fill="#e26f46" fill-rule="evenodd" fill-opacity="1" stroke="#000000" stroke-opacity="1" stroke-width="3.2"/>
<circle clip-path="url(#clip882)" cx="695.329" cy="1272.81" r="14" fill="#e26f46" fill-rule="evenodd" fill-opacity="1" stroke="#000000" stroke-opacity="1" stroke-width="3.2"/>
<circle clip-path="url(#clip882)" cx="774.042" cy="1340.36" r="14" fill="#e26f46" fill-rule="evenodd" fill-opacity="1" stroke="#000000" stroke-opacity="1" stroke-width="3.2"/>
<circle clip-path="url(#clip882)" cx="599.178" cy="1253.94" r="14" fill="#e26f46" fill-rule="evenodd" fill-opacity="1" stroke="#000000" stroke-opacity="1" stroke-width="3.2"/>
<circle clip-path="url(#clip882)" cx="628.804" cy="1221.56" r="14" fill="#e26f46" fill-rule="evenodd" fill-opacity="1" stroke="#000000" stroke-opacity="1" stroke-width="3.2"/>
<circle clip-path="url(#clip882)" cx="683.761" cy="1239.72" r="14" fill="#e26f46" fill-rule="evenodd" fill-opacity="1" stroke="#000000" stroke-opacity="1" stroke-width="3.2"/>
<circle clip-path="url(#clip882)" cx="565.116" cy="1253.65" r="14" fill="#e26f46" fill-rule="evenodd" fill-opacity="1" stroke="#000000" stroke-opacity="1" stroke-width="3.2"/>
<circle clip-path="url(#clip882)" cx="773.712" cy="1206.08" r="14" fill="#e26f46" fill-rule="evenodd" fill-opacity="1" stroke="#000000" stroke-opacity="1" stroke-width="3.2"/>
<circle clip-path="url(#clip882)" cx="358.109" cy="1088.47" r="14" fill="#e26f46" fill-rule="evenodd" fill-opacity="1" stroke="#000000" stroke-opacity="1" stroke-width="3.2"/>
<circle clip-path="url(#clip882)" cx="653.336" cy="1235.7" r="14" fill="#e26f46" fill-rule="evenodd" fill-opacity="1" stroke="#000000" stroke-opacity="1" stroke-width="3.2"/>
<circle clip-path="url(#clip882)" cx="548.295" cy="1373.53" r="14" fill="#e26f46" fill-rule="evenodd" fill-opacity="1" stroke="#000000" stroke-opacity="1" stroke-width="3.2"/>
<circle clip-path="url(#clip882)" cx="467.06" cy="1186.31" r="14" fill="#e26f46" fill-rule="evenodd" fill-opacity="1" stroke="#000000" stroke-opacity="1" stroke-width="3.2"/>
<circle clip-path="url(#clip882)" cx="353.763" cy="1097.46" r="14" fill="#e26f46" fill-rule="evenodd" fill-opacity="1" stroke="#000000" stroke-opacity="1" stroke-width="3.2"/>
<circle clip-path="url(#clip882)" cx="389.725" cy="1073.21" r="14" fill="#e26f46" fill-rule="evenodd" fill-opacity="1" stroke="#000000" stroke-opacity="1" stroke-width="3.2"/>
<circle clip-path="url(#clip882)" cx="277.78" cy="904.303" r="14" fill="#e26f46" fill-rule="evenodd" fill-opacity="1" stroke="#000000" stroke-opacity="1" stroke-width="3.2"/>
<circle clip-path="url(#clip882)" cx="690.754" cy="1323.15" r="14" fill="#e26f46" fill-rule="evenodd" fill-opacity="1" stroke="#000000" stroke-opacity="1" stroke-width="3.2"/>
<circle clip-path="url(#clip882)" cx="722.966" cy="1361.82" r="14" fill="#e26f46" fill-rule="evenodd" fill-opacity="1" stroke="#000000" stroke-opacity="1" stroke-width="3.2"/>
<circle clip-path="url(#clip882)" cx="144.325" cy="1047.72" r="14" fill="#e26f46" fill-rule="evenodd" fill-opacity="1" stroke="#000000" stroke-opacity="1" stroke-width="3.2"/>
<circle clip-path="url(#clip882)" cx="571.627" cy="1112.49" r="14" fill="#e26f46" fill-rule="evenodd" fill-opacity="1" stroke="#000000" stroke-opacity="1" stroke-width="3.2"/>
<circle clip-path="url(#clip882)" cx="788.222" cy="1363.13" r="14" fill="#e26f46" fill-rule="evenodd" fill-opacity="1" stroke="#000000" stroke-opacity="1" stroke-width="3.2"/>
<circle clip-path="url(#clip882)" cx="149.303" cy="859.048" r="14" fill="#e26f46" fill-rule="evenodd" fill-opacity="1" stroke="#000000" stroke-opacity="1" stroke-width="3.2"/>
<circle clip-path="url(#clip882)" cx="747.446" cy="1090.74" r="14" fill="#e26f46" fill-rule="evenodd" fill-opacity="1" stroke="#000000" stroke-opacity="1" stroke-width="3.2"/>
<circle clip-path="url(#clip882)" cx="743.076" cy="1344.88" r="14" fill="#e26f46" fill-rule="evenodd" fill-opacity="1" stroke="#000000" stroke-opacity="1" stroke-width="3.2"/>
<circle clip-path="url(#clip882)" cx="307.733" cy="880.071" r="14" fill="#e26f46" fill-rule="evenodd" fill-opacity="1" stroke="#000000" stroke-opacity="1" stroke-width="3.2"/>
<circle clip-path="url(#clip882)" cx="413.638" cy="1102.61" r="14" fill="#e26f46" fill-rule="evenodd" fill-opacity="1" stroke="#000000" stroke-opacity="1" stroke-width="3.2"/>
<circle clip-path="url(#clip882)" cx="684.183" cy="1224.61" r="14" fill="#e26f46" fill-rule="evenodd" fill-opacity="1" stroke="#000000" stroke-opacity="1" stroke-width="3.2"/>
<circle clip-path="url(#clip882)" cx="664.983" cy="1212.18" r="14" fill="#e26f46" fill-rule="evenodd" fill-opacity="1" stroke="#000000" stroke-opacity="1" stroke-width="3.2"/>
<circle clip-path="url(#clip882)" cx="729.743" cy="1147.09" r="14" fill="#e26f46" fill-rule="evenodd" fill-opacity="1" stroke="#000000" stroke-opacity="1" stroke-width="3.2"/>
<circle clip-path="url(#clip882)" cx="771.97" cy="1334.08" r="14" fill="#e26f46" fill-rule="evenodd" fill-opacity="1" stroke="#000000" stroke-opacity="1" stroke-width="3.2"/>
<circle clip-path="url(#clip882)" cx="489.673" cy="1218.41" r="14" fill="#e26f46" fill-rule="evenodd" fill-opacity="1" stroke="#000000" stroke-opacity="1" stroke-width="3.2"/>
<circle clip-path="url(#clip882)" cx="661.361" cy="1207.36" r="14" fill="#e26f46" fill-rule="evenodd" fill-opacity="1" stroke="#000000" stroke-opacity="1" stroke-width="3.2"/>
<circle clip-path="url(#clip882)" cx="393.563" cy="1073.86" r="14" fill="#e26f46" fill-rule="evenodd" fill-opacity="1" stroke="#000000" stroke-opacity="1" stroke-width="3.2"/>
<circle clip-path="url(#clip882)" cx="367.37" cy="1035.75" r="14" fill="#e26f46" fill-rule="evenodd" fill-opacity="1" stroke="#000000" stroke-opacity="1" stroke-width="3.2"/>
<circle clip-path="url(#clip882)" cx="461.815" cy="1074.5" r="14" fill="#e26f46" fill-rule="evenodd" fill-opacity="1" stroke="#000000" stroke-opacity="1" stroke-width="3.2"/>
<circle clip-path="url(#clip882)" cx="563.953" cy="1276.03" r="14" fill="#e26f46" fill-rule="evenodd" fill-opacity="1" stroke="#000000" stroke-opacity="1" stroke-width="3.2"/>
<circle clip-path="url(#clip882)" cx="670.732" cy="1233.91" r="14" fill="#e26f46" fill-rule="evenodd" fill-opacity="1" stroke="#000000" stroke-opacity="1" stroke-width="3.2"/>
<circle clip-path="url(#clip882)" cx="554.836" cy="1076.98" r="14" fill="#e26f46" fill-rule="evenodd" fill-opacity="1" stroke="#000000" stroke-opacity="1" stroke-width="3.2"/>
<circle clip-path="url(#clip882)" cx="575.771" cy="1203.9" r="14" fill="#e26f46" fill-rule="evenodd" fill-opacity="1" stroke="#000000" stroke-opacity="1" stroke-width="3.2"/>
<circle clip-path="url(#clip882)" cx="490.69" cy="1241.73" r="14" fill="#e26f46" fill-rule="evenodd" fill-opacity="1" stroke="#000000" stroke-opacity="1" stroke-width="3.2"/>
<circle clip-path="url(#clip882)" cx="884.953" cy="1176.57" r="14" fill="#e26f46" fill-rule="evenodd" fill-opacity="1" stroke="#000000" stroke-opacity="1" stroke-width="3.2"/>
<circle clip-path="url(#clip882)" cx="891.304" cy="1355.16" r="14" fill="#e26f46" fill-rule="evenodd" fill-opacity="1" stroke="#000000" stroke-opacity="1" stroke-width="3.2"/>
<circle clip-path="url(#clip882)" cx="354.101" cy="1011.49" r="14" fill="#e26f46" fill-rule="evenodd" fill-opacity="1" stroke="#000000" stroke-opacity="1" stroke-width="3.2"/>
<circle clip-path="url(#clip882)" cx="1046.17" cy="1427.27" r="14" fill="#e26f46" fill-rule="evenodd" fill-opacity="1" stroke="#000000" stroke-opacity="1" stroke-width="3.2"/>
<circle clip-path="url(#clip882)" cx="853.138" cy="1445.31" r="14" fill="#e26f46" fill-rule="evenodd" fill-opacity="1" stroke="#000000" stroke-opacity="1" stroke-width="3.2"/>
<circle clip-path="url(#clip882)" cx="408.987" cy="1052.22" r="14" fill="#e26f46" fill-rule="evenodd" fill-opacity="1" stroke="#000000" stroke-opacity="1" stroke-width="3.2"/>
<circle clip-path="url(#clip882)" cx="700.2" cy="1381.5" r="14" fill="#e26f46" fill-rule="evenodd" fill-opacity="1" stroke="#000000" stroke-opacity="1" stroke-width="3.2"/>
<circle clip-path="url(#clip882)" cx="806.724" cy="1359.72" r="14" fill="#e26f46" fill-rule="evenodd" fill-opacity="1" stroke="#000000" stroke-opacity="1" stroke-width="3.2"/>
<circle clip-path="url(#clip882)" cx="539.331" cy="1182.25" r="14" fill="#e26f46" fill-rule="evenodd" fill-opacity="1" stroke="#000000" stroke-opacity="1" stroke-width="3.2"/>
<circle clip-path="url(#clip882)" cx="240.315" cy="1062.83" r="14" fill="#e26f46" fill-rule="evenodd" fill-opacity="1" stroke="#000000" stroke-opacity="1" stroke-width="3.2"/>
<circle clip-path="url(#clip882)" cx="858.003" cy="1416.3" r="14" fill="#e26f46" fill-rule="evenodd" fill-opacity="1" stroke="#000000" stroke-opacity="1" stroke-width="3.2"/>
<circle clip-path="url(#clip882)" cx="859.845" cy="1289.95" r="14" fill="#e26f46" fill-rule="evenodd" fill-opacity="1" stroke="#000000" stroke-opacity="1" stroke-width="3.2"/>
<circle clip-path="url(#clip882)" cx="610.513" cy="1182.34" r="14" fill="#e26f46" fill-rule="evenodd" fill-opacity="1" stroke="#000000" stroke-opacity="1" stroke-width="3.2"/>
<circle clip-path="url(#clip882)" cx="339.3" cy="1066.5" r="14" fill="#e26f46" fill-rule="evenodd" fill-opacity="1" stroke="#000000" stroke-opacity="1" stroke-width="3.2"/>
<circle clip-path="url(#clip882)" cx="473.946" cy="1119.05" r="14" fill="#e26f46" fill-rule="evenodd" fill-opacity="1" stroke="#000000" stroke-opacity="1" stroke-width="3.2"/>
<circle clip-path="url(#clip882)" cx="542.671" cy="1173.01" r="14" fill="#e26f46" fill-rule="evenodd" fill-opacity="1" stroke="#000000" stroke-opacity="1" stroke-width="3.2"/>
<circle clip-path="url(#clip882)" cx="473.266" cy="1100.28" r="14" fill="#e26f46" fill-rule="evenodd" fill-opacity="1" stroke="#000000" stroke-opacity="1" stroke-width="3.2"/>
<circle clip-path="url(#clip882)" cx="472.505" cy="1137.63" r="14" fill="#e26f46" fill-rule="evenodd" fill-opacity="1" stroke="#000000" stroke-opacity="1" stroke-width="3.2"/>
<circle clip-path="url(#clip882)" cx="521.507" cy="1244.81" r="14" fill="#e26f46" fill-rule="evenodd" fill-opacity="1" stroke="#000000" stroke-opacity="1" stroke-width="3.2"/>
<circle clip-path="url(#clip882)" cx="353.041" cy="1045.29" r="14" fill="#e26f46" fill-rule="evenodd" fill-opacity="1" stroke="#000000" stroke-opacity="1" stroke-width="3.2"/>
<circle clip-path="url(#clip882)" cx="556.585" cy="1245.48" r="14" fill="#e26f46" fill-rule="evenodd" fill-opacity="1" stroke="#000000" stroke-opacity="1" stroke-width="3.2"/>
<circle clip-path="url(#clip882)" cx="576.517" cy="1151.89" r="14" fill="#e26f46" fill-rule="evenodd" fill-opacity="1" stroke="#000000" stroke-opacity="1" stroke-width="3.2"/>
<circle clip-path="url(#clip882)" cx="589.079" cy="1164.64" r="14" fill="#e26f46" fill-rule="evenodd" fill-opacity="1" stroke="#000000" stroke-opacity="1" stroke-width="3.2"/>
<circle clip-path="url(#clip882)" cx="570.059" cy="1127" r="14" fill="#e26f46" fill-rule="evenodd" fill-opacity="1" stroke="#000000" stroke-opacity="1" stroke-width="3.2"/>
<circle clip-path="url(#clip882)" cx="719.932" cy="1198.13" r="14" fill="#e26f46" fill-rule="evenodd" fill-opacity="1" stroke="#000000" stroke-opacity="1" stroke-width="3.2"/>
<circle clip-path="url(#clip882)" cx="517.027" cy="1149.35" r="14" fill="#e26f46" fill-rule="evenodd" fill-opacity="1" stroke="#000000" stroke-opacity="1" stroke-width="3.2"/>
<circle clip-path="url(#clip882)" cx="678.09" cy="1181.23" r="14" fill="#e26f46" fill-rule="evenodd" fill-opacity="1" stroke="#000000" stroke-opacity="1" stroke-width="3.2"/>
<circle clip-path="url(#clip882)" cx="412.601" cy="1176.56" r="14" fill="#e26f46" fill-rule="evenodd" fill-opacity="1" stroke="#000000" stroke-opacity="1" stroke-width="3.2"/>
<circle clip-path="url(#clip882)" cx="411.299" cy="1157.22" r="14" fill="#e26f46" fill-rule="evenodd" fill-opacity="1" stroke="#000000" stroke-opacity="1" stroke-width="3.2"/>
<circle clip-path="url(#clip882)" cx="512.994" cy="1215.77" r="14" fill="#e26f46" fill-rule="evenodd" fill-opacity="1" stroke="#000000" stroke-opacity="1" stroke-width="3.2"/>
<circle clip-path="url(#clip882)" cx="436.022" cy="1091.69" r="14" fill="#e26f46" fill-rule="evenodd" fill-opacity="1" stroke="#000000" stroke-opacity="1" stroke-width="3.2"/>
<circle clip-path="url(#clip882)" cx="578.545" cy="1085.65" r="14" fill="#e26f46" fill-rule="evenodd" fill-opacity="1" stroke="#000000" stroke-opacity="1" stroke-width="3.2"/>
<circle clip-path="url(#clip882)" cx="641.178" cy="1172.56" r="14" fill="#e26f46" fill-rule="evenodd" fill-opacity="1" stroke="#000000" stroke-opacity="1" stroke-width="3.2"/>
<circle clip-path="url(#clip882)" cx="449.543" cy="1145.87" r="14" fill="#e26f46" fill-rule="evenodd" fill-opacity="1" stroke="#000000" stroke-opacity="1" stroke-width="3.2"/>
<circle clip-path="url(#clip882)" cx="713.556" cy="1318.11" r="14" fill="#e26f46" fill-rule="evenodd" fill-opacity="1" stroke="#000000" stroke-opacity="1" stroke-width="3.2"/>
<circle clip-path="url(#clip882)" cx="558.453" cy="1203.8" r="14" fill="#e26f46" fill-rule="evenodd" fill-opacity="1" stroke="#000000" stroke-opacity="1" stroke-width="3.2"/>
<circle clip-path="url(#clip882)" cx="638.022" cy="1258.69" r="14" fill="#e26f46" fill-rule="evenodd" fill-opacity="1" stroke="#000000" stroke-opacity="1" stroke-width="3.2"/>
<circle clip-path="url(#clip882)" cx="478.183" cy="1134.87" r="14" fill="#e26f46" fill-rule="evenodd" fill-opacity="1" stroke="#000000" stroke-opacity="1" stroke-width="3.2"/>
<circle clip-path="url(#clip882)" cx="654.38" cy="1113.19" r="14" fill="#e26f46" fill-rule="evenodd" fill-opacity="1" stroke="#000000" stroke-opacity="1" stroke-width="3.2"/>
<circle clip-path="url(#clip882)" cx="709.533" cy="1310.78" r="14" fill="#e26f46" fill-rule="evenodd" fill-opacity="1" stroke="#000000" stroke-opacity="1" stroke-width="3.2"/>
<circle clip-path="url(#clip882)" cx="539.837" cy="1206.74" r="14" fill="#e26f46" fill-rule="evenodd" fill-opacity="1" stroke="#000000" stroke-opacity="1" stroke-width="3.2"/>
<circle clip-path="url(#clip882)" cx="841.387" cy="1257.26" r="14" fill="#e26f46" fill-rule="evenodd" fill-opacity="1" stroke="#000000" stroke-opacity="1" stroke-width="3.2"/>
<circle clip-path="url(#clip882)" cx="821.957" cy="1149.72" r="14" fill="#e26f46" fill-rule="evenodd" fill-opacity="1" stroke="#000000" stroke-opacity="1" stroke-width="3.2"/>
<circle clip-path="url(#clip882)" cx="495.347" cy="1113.25" r="14" fill="#e26f46" fill-rule="evenodd" fill-opacity="1" stroke="#000000" stroke-opacity="1" stroke-width="3.2"/>
<circle clip-path="url(#clip882)" cx="714.577" cy="1291.04" r="14" fill="#e26f46" fill-rule="evenodd" fill-opacity="1" stroke="#000000" stroke-opacity="1" stroke-width="3.2"/>
<circle clip-path="url(#clip882)" cx="585.965" cy="1291.32" r="14" fill="#e26f46" fill-rule="evenodd" fill-opacity="1" stroke="#000000" stroke-opacity="1" stroke-width="3.2"/>
<polyline clip-path="url(#clip882)" style="stroke:#090621; stroke-width:4; stroke-opacity:1; fill:none" points="
  1436.59,1444.61 1434.9,1443.22 1421.51,1432.34 1418.07,1429.53 1406.41,1420.06 1401.25,1415.86 1391.3,1407.79 1384.42,1402.21 1376.17,1395.52 1367.6,1388.57 
  1361.02,1383.25 1350.77,1374.95 1345.86,1370.98 1333.95,1361.35 1330.67,1358.71 1317.12,1347.77 1315.47,1346.43 1300.3,1334.2 1300.25,1334.16 1284.98,1321.89 
  1283.47,1320.68 1269.68,1309.62 1266.65,1307.18 1254.37,1297.35 1249.82,1293.7 1239.04,1285.08 1233,1280.24 1223.69,1272.81 1216.17,1266.8 1208.32,1260.53 
  1199.35,1253.37 1192.94,1248.26 1182.52,1239.96 1177.53,1235.99 1165.7,1226.57 1162.11,1223.72 1148.87,1213.2 1146.67,1211.45 1132.05,1199.85 1131.2,1199.18 
  1115.71,1186.91 1115.23,1186.52 1100.18,1174.63 1098.4,1173.23 1084.62,1162.36 1081.58,1159.96 1069.05,1150.09 1064.75,1146.7 1053.46,1137.82 1047.93,1133.46 
  1037.85,1125.55 1031.1,1120.25 1022.21,1113.28 1014.28,1107.05 1006.56,1101 997.452,1093.86 990.889,1088.73 980.627,1080.7 975.196,1076.46 963.802,1067.56 
  959.482,1064.19 946.978,1054.43 943.748,1051.92 930.153,1041.33 927.992,1039.65 913.328,1028.24 912.216,1027.38 896.504,1015.17 896.418,1015.1 880.576,1002.83 
  879.679,1002.14 864.71,990.561 862.854,989.124 848.823,978.29 846.029,976.13 832.915,966.018 829.205,963.154 816.985,953.747 812.38,950.198 801.033,941.475 
  795.555,937.26 785.058,929.204 778.73,924.341 769.062,916.932 761.906,911.442 753.043,904.661 745.081,898.561 737.002,892.389 728.256,885.7 720.938,880.118 
  711.431,872.858 704.851,867.846 694.607,860.035 688.74,855.575 677.782,847.232 672.607,843.303 660.957,834.448 656.45,831.032 644.132,821.684 640.269,818.76 
  627.308,808.939 624.065,806.488 610.483,796.214 607.836,794.217 593.658,783.509 591.583,781.945 576.833,770.823 575.305,769.674 560.009,758.157 559.003,757.402 
  543.184,745.511 542.676,745.131 526.359,732.886 526.324,732.859 509.936,720.588 509.534,720.287 493.522,708.316 492.71,707.708 477.083,696.045 475.885,695.149 
  460.619,683.773 459.06,682.61 444.129,671.502 442.235,670.091 427.614,659.23 425.411,657.592 411.072,646.959 408.586,645.113 394.505,634.687 391.761,632.654 
  377.911,622.416 374.936,620.215 361.29,610.144 358.112,607.796 344.643,597.873 341.287,595.398 327.969,585.601 324.462,583.019 311.267,573.33 307.638,570.662 
  294.538,561.058 290.813,558.324 277.781,548.787 273.988,546.008 260.996,536.515 257.163,533.711 
  "/>
<polyline clip-path="url(#clip882)" style="stroke:#1f0c47; stroke-width:4; stroke-opacity:1; fill:none" points="
  257.163,309.394 265.574,315.628 273.988,321.859 282.128,327.9 290.813,334.339 298.663,340.171 307.638,346.833 315.179,352.443 324.462,359.342 331.677,364.714 
  341.287,371.864 348.157,376.986 358.112,384.401 364.619,389.257 374.936,396.951 381.062,401.529 391.761,409.516 397.488,413.8 408.586,422.095 413.896,426.072 
  425.411,434.688 430.286,438.343 442.235,447.295 446.658,450.615 459.06,459.916 463.013,462.886 475.885,472.551 479.35,475.158 492.71,485.2 495.67,487.429 
  509.534,497.862 511.973,499.701 526.359,510.539 528.258,511.972 543.184,523.229 544.527,524.244 560.009,535.933 560.778,536.515 576.833,548.651 577.013,548.787 
  593.223,561.058 593.658,561.388 609.412,573.33 610.483,574.141 625.585,585.601 627.308,586.907 641.741,597.873 644.132,599.688 657.881,610.144 660.957,612.482 
  674.004,622.416 677.782,625.29 690.11,634.687 694.607,638.112 706.2,646.959 711.431,650.948 722.274,659.23 728.256,663.797 738.331,671.502 745.081,676.66 
  754.373,683.773 761.906,689.536 770.398,696.045 778.73,702.426 786.408,708.316 795.555,715.329 802.401,720.588 812.38,728.246 818.379,732.859 829.205,741.177 
  834.341,745.131 846.029,754.121 850.288,757.402 862.854,767.078 866.219,769.674 879.679,780.049 882.135,781.945 896.504,793.033 898.036,794.217 913.328,806.03 
  913.921,806.488 929.784,818.76 930.153,819.045 945.622,831.032 946.978,832.081 961.444,843.303 963.802,845.131 977.252,855.575 980.627,858.194 993.044,867.846 
  997.452,871.27 1008.82,880.118 1014.28,884.359 1024.58,892.389 1031.1,897.462 1040.33,904.661 1047.93,910.578 1056.06,916.932 1064.75,923.708 1071.78,929.204 
  1081.58,936.85 1087.49,941.475 1098.4,950.006 1103.18,953.747 1115.23,963.175 1118.85,966.018 1132.05,976.357 1134.51,978.29 1148.87,989.552 1150.16,990.561 
  1165.7,1002.76 1165.79,1002.83 1181.39,1015.1 1182.52,1016 1196.97,1027.38 1199.35,1029.25 1212.54,1039.65 1216.17,1042.51 1228.1,1051.92 1233,1055.78 
  1243.64,1064.19 1249.82,1069.07 1259.16,1076.46 1266.65,1082.38 1274.68,1088.73 1283.47,1095.69 1290.18,1101 1300.3,1109.02 1305.66,1113.28 1317.12,1122.36 
  1321.14,1125.55 1333.95,1135.71 1336.59,1137.82 1350.77,1149.08 1352.04,1150.09 1367.47,1162.36 1367.6,1162.46 1382.86,1174.63 1384.42,1175.87 1398.25,1186.91 
  1401.25,1189.3 1413.61,1199.18 1418.07,1202.73 1428.97,1211.45 1434.9,1216.18 1444.31,1223.72 1451.72,1229.65 1459.64,1235.99 1468.54,1243.12 1474.95,1248.26 
  1485.37,1256.61 1490.25,1260.53 1502.19,1270.11 1505.54,1272.81 1519.02,1283.63 1520.82,1285.08 1535.84,1297.15 1536.09,1297.35 1551.31,1309.62 1552.67,1310.71 
  1566.52,1321.89 1569.49,1324.29 1581.72,1334.16 1586.32,1337.87 1596.91,1346.43 1603.14,1351.47 1612.08,1358.71 1619.97,1365.08 1627.24,1370.98 1636.79,1378.71 
  1642.39,1383.25 1653.62,1392.35 1657.53,1395.52 1670.44,1406 1672.65,1407.79 1687.27,1419.66 1687.77,1420.06 1702.84,1432.34 1704.09,1433.35 1717.9,1444.61 
  
  "/>
<polyline clip-path="url(#clip882)" style="stroke:#3b0964; stroke-width:4; stroke-opacity:1; fill:none" points="
  1933.76,1444.61 1922.81,1435.69 1918.69,1432.34 1905.99,1421.99 1903.61,1420.06 1889.16,1408.31 1888.53,1407.79 1873.42,1395.52 1872.34,1394.65 1858.29,1383.25 
  1855.51,1381 1843.15,1370.98 1838.69,1367.36 1827.99,1358.71 1821.86,1353.74 1812.83,1346.43 1805.04,1340.13 1797.66,1334.16 1788.21,1326.52 1782.48,1321.89 
  1771.39,1312.93 1767.29,1309.62 1754.57,1299.34 1752.09,1297.35 1737.74,1285.77 1736.88,1285.08 1721.65,1272.81 1720.92,1272.22 1706.39,1260.53 1704.09,1258.68 
  1691.13,1248.26 1687.27,1245.16 1675.85,1235.99 1670.44,1231.64 1660.57,1223.72 1653.62,1218.14 1645.27,1211.45 1636.79,1204.65 1629.96,1199.18 1619.97,1191.16 
  1614.65,1186.91 1603.14,1177.69 1599.32,1174.63 1586.32,1164.23 1583.98,1162.36 1569.49,1150.78 1568.63,1150.09 1553.26,1137.82 1552.67,1137.35 1537.87,1125.55 
  1535.84,1123.93 1522.47,1113.28 1519.02,1110.53 1507.05,1101 1502.19,1097.13 1491.63,1088.73 1485.37,1083.75 1476.19,1076.46 1468.54,1070.38 1460.75,1064.19 
  1451.72,1057.02 1445.29,1051.92 1434.9,1043.67 1429.82,1039.65 1418.07,1030.33 1414.34,1027.38 1401.25,1017 1398.85,1015.1 1384.42,1003.68 1383.35,1002.83 
  1367.84,990.561 1367.6,990.371 1352.29,978.29 1350.77,977.087 1336.74,966.018 1333.95,963.814 1321.17,953.747 1317.12,950.551 1305.6,941.475 1300.3,937.298 
  1290.01,929.204 1283.47,924.057 1274.41,916.932 1266.65,910.826 1258.8,904.661 1249.82,897.606 1243.18,892.389 1233,884.396 1227.54,880.118 1216.17,871.197 
  1211.9,867.846 1199.35,858.009 1196.24,855.575 1182.52,844.832 1180.57,843.303 1165.7,831.665 1164.89,831.032 1149.19,818.76 1148.87,818.513 1133.47,806.488 
  1132.05,805.38 1117.74,794.217 1115.23,792.257 1101.99,781.945 1098.4,779.145 1086.24,769.674 1081.58,766.044 1070.47,757.402 1064.75,752.954 1054.69,745.131 
  1047.93,739.874 1038.89,732.859 1031.1,726.806 1023.09,720.588 1014.28,713.748 1007.27,708.316 997.452,700.701 991.44,696.045 980.627,687.665 975.598,683.773 
  963.802,674.64 959.743,671.502 946.978,661.626 943.876,659.23 930.153,648.623 927.997,646.959 913.328,635.631 912.105,634.687 896.504,622.65 896.2,622.416 
  880.274,610.144 879.679,609.685 864.331,597.873 862.854,596.735 848.375,585.601 846.029,583.796 832.406,573.33 829.205,570.868 816.425,561.058 812.38,557.951 
  800.431,548.787 795.555,545.045 784.424,536.515 778.73,532.15 768.404,524.244 761.906,519.266 752.371,511.972 745.081,506.392 736.325,499.701 728.256,493.53 
  720.265,487.429 711.431,480.68 704.193,475.158 694.607,467.84 688.107,462.886 677.782,455.011 672.008,450.615 660.957,442.194 655.896,438.343 644.132,429.388 
  639.77,426.072 627.308,416.592 623.631,413.8 610.483,403.809 607.478,401.529 593.658,391.036 591.311,389.257 576.833,378.275 575.131,376.986 560.009,365.525 
  558.937,364.714 543.184,352.786 542.73,352.443 526.506,340.171 526.359,340.06 510.261,327.9 509.534,327.35 494.003,315.628 492.71,314.651 477.731,303.357 
  475.885,301.964 461.445,291.085 459.06,289.287 445.145,278.814 442.235,276.622 428.831,266.542 425.411,263.968 412.503,254.271 408.586,251.326 396.16,241.999 
  391.761,238.695 379.803,229.727 374.936,226.075 363.432,217.456 
  "/>
<polyline clip-path="url(#clip882)" style="stroke:#550f6d; stroke-width:4; stroke-opacity:1; fill:none" points="
  554.13,217.456 560.009,221.911 570.311,229.727 576.833,234.674 586.479,241.999 593.658,247.448 602.636,254.271 610.483,260.231 618.781,266.542 627.308,273.023 
  634.915,278.814 644.132,285.826 651.036,291.085 660.957,298.638 667.147,303.357 677.782,311.46 683.245,315.628 694.607,324.291 699.333,327.9 711.431,337.132 
  715.408,340.171 728.256,349.983 731.473,352.443 745.081,362.843 747.526,364.714 761.906,375.713 763.568,376.986 778.73,388.592 779.598,389.257 795.555,401.481 
  795.617,401.529 811.616,413.8 812.38,414.386 827.602,426.072 829.205,427.301 843.577,438.343 846.029,440.226 859.541,450.615 862.854,453.16 875.494,462.886 
  879.679,466.104 891.436,475.158 896.504,479.057 907.367,487.429 913.328,492.02 923.287,499.701 930.153,504.993 939.196,511.972 946.978,517.975 955.094,524.244 
  963.802,530.966 970.981,536.515 980.627,543.967 986.858,548.787 997.452,556.978 1002.72,561.058 1014.28,569.997 1018.58,573.33 1031.1,583.027 1034.42,585.601 
  1047.93,596.065 1050.26,597.873 1064.75,609.113 1066.08,610.144 1081.58,622.171 1081.89,622.416 1097.68,634.687 1098.4,635.244 1113.46,646.959 1115.23,648.329 
  1129.23,659.23 1132.05,661.424 1144.99,671.502 1148.87,674.528 1160.73,683.773 1165.7,687.641 1176.47,696.045 1182.52,700.764 1192.2,708.316 1199.35,713.896 
  1207.91,720.588 1216.17,727.038 1223.62,732.859 1233,740.189 1239.31,745.131 1249.82,753.349 1255,757.402 1266.65,766.519 1270.67,769.674 1283.47,779.698 
  1286.34,781.945 1300.3,792.886 1301.99,794.217 1317.12,806.083 1317.64,806.488 1333.26,818.76 1333.95,819.296 1348.87,831.032 1350.77,832.522 1364.47,843.303 
  1367.6,845.758 1380.06,855.575 1384.42,859.004 1395.64,867.846 1401.25,872.258 1411.21,880.118 1418.07,885.522 1426.77,892.389 1434.9,898.795 1442.32,904.661 
  1451.72,912.077 1457.86,916.932 1468.54,925.369 1473.39,929.204 1485.37,938.669 1488.91,941.475 1502.19,951.979 1504.43,953.747 1519.02,965.298 1519.93,966.018 
  1535.41,978.29 1535.84,978.63 1550.88,990.561 1552.67,991.98 1566.34,1002.83 1569.49,1005.34 1581.78,1015.1 1586.32,1018.71 1597.22,1027.38 1603.14,1032.08 
  1612.65,1039.65 1619.97,1045.47 1628.06,1051.92 1636.79,1058.87 1643.47,1064.19 1653.62,1072.27 1658.87,1076.46 1670.44,1085.68 1674.26,1088.73 1687.27,1099.11 
  1689.64,1101 1704.09,1112.54 1705.01,1113.28 1720.37,1125.55 1720.92,1125.99 1735.7,1137.82 1737.74,1139.45 1751.03,1150.09 1754.57,1152.92 1766.34,1162.36 
  1771.39,1166.4 1781.65,1174.63 1788.21,1179.9 1796.95,1186.91 1805.04,1193.4 1812.24,1199.18 1821.86,1206.9 1827.52,1211.45 1838.69,1220.42 1842.79,1223.72 
  1855.51,1233.95 1858.05,1235.99 1872.34,1247.49 1873.3,1248.26 1888.54,1260.53 1889.16,1261.04 1903.75,1272.81 1905.99,1274.61 1918.96,1285.08 1922.81,1288.19 
  1934.16,1297.35 1939.64,1301.77 
  "/>
<polyline clip-path="url(#clip882)" style="stroke:#6e186e; stroke-width:4; stroke-opacity:1; fill:none" points="
  1939.64,1172.55 1926.94,1162.36 1922.81,1159.05 1911.64,1150.09 1905.99,1145.55 1896.34,1137.82 1889.16,1132.07 1881.02,1125.55 1872.34,1118.59 1865.7,1113.28 
  1855.51,1105.12 1850.37,1101 1838.69,1091.66 1835.03,1088.73 1821.86,1078.21 1819.68,1076.46 1805.04,1064.76 1804.32,1064.19 1788.95,1051.92 1788.21,1051.33 
  1773.56,1039.65 1771.39,1037.91 1758.17,1027.38 1754.57,1024.51 1742.76,1015.1 1737.74,1011.11 1727.35,1002.83 1720.92,997.713 1711.92,990.561 1704.09,984.329 
  1696.49,978.29 1687.27,970.954 1681.05,966.018 1670.44,957.586 1665.6,953.747 1653.62,944.227 1650.15,941.475 1636.79,930.876 1634.68,929.204 1619.97,917.533 
  1619.21,916.932 1603.72,904.661 1603.14,904.203 1588.21,892.389 1586.32,890.888 1572.7,880.118 1569.49,877.58 1557.18,867.846 1552.67,864.281 1541.64,855.575 
  1535.84,850.99 1526.1,843.303 1519.02,837.708 1510.56,831.032 1502.19,824.433 1495,818.76 1485.37,811.167 1479.43,806.488 1468.54,797.909 1463.85,794.217 
  1451.72,784.66 1448.27,781.945 1434.9,771.418 1432.68,769.674 1418.07,758.185 1417.07,757.402 1401.46,745.131 1401.25,744.962 1385.83,732.859 1384.42,731.756 
  1370.18,720.588 1367.6,718.557 1354.53,708.316 1350.77,705.367 1338.87,696.045 1333.95,692.186 1323.2,683.773 1317.12,679.012 1307.52,671.502 1300.3,665.847 
  1291.83,659.23 1283.47,652.69 1276.14,646.959 1266.65,639.542 1260.43,634.687 1249.82,626.401 1244.72,622.416 1233,613.27 1228.99,610.144 1216.17,600.146 
  1213.26,597.873 1199.35,587.031 1197.51,585.601 1182.52,573.925 1181.76,573.33 1165.99,561.058 1165.7,560.829 1150.21,548.787 1148.87,547.747 1134.42,536.515 
  1132.05,534.674 1118.62,524.244 1115.23,521.61 1102.8,511.972 1098.4,508.553 1086.98,499.701 1081.58,495.505 1071.15,487.429 1064.75,482.466 1055.31,475.158 
  1047.93,469.435 1039.46,462.886 1031.1,456.412 1023.6,450.615 1014.28,443.398 1007.74,438.343 997.452,430.392 991.857,426.072 980.627,417.395 975.969,413.8 
  963.802,404.407 960.071,401.529 946.978,391.426 944.163,389.257 930.153,378.455 928.246,376.986 913.328,365.491 912.318,364.714 896.504,352.537 896.381,352.443 
  880.425,340.171 879.679,339.597 864.459,327.9 862.854,326.666 848.482,315.628 846.029,313.744 832.495,303.357 829.205,300.83 816.498,291.085 812.38,287.925 
  800.492,278.814 795.555,275.028 784.475,266.542 778.73,262.14 768.448,254.271 761.906,249.26 752.412,241.999 745.081,236.389 736.365,229.727 728.256,223.527 
  720.307,217.456 
  "/>
<polyline clip-path="url(#clip882)" style="stroke:#88216a; stroke-width:4; stroke-opacity:1; fill:none" points="
  869.531,217.456 879.679,225.251 885.499,229.727 896.504,238.186 901.459,241.999 913.328,251.128 917.409,254.271 930.153,264.079 933.35,266.542 946.978,277.037 
  949.283,278.814 963.802,290.002 965.206,291.085 980.627,302.975 981.121,303.357 997.022,315.628 997.452,315.96 1012.91,327.9 1014.28,328.955 1028.79,340.171 
  1031.1,341.958 1044.66,352.443 1047.93,354.969 1060.52,364.714 1064.75,367.988 1076.37,376.986 1081.58,381.015 1092.21,389.257 1098.4,394.049 1108.05,401.529 
  1115.23,407.091 1123.87,413.8 1132.05,420.14 1139.69,426.072 1148.87,433.197 1155.5,438.343 1165.7,446.262 1171.3,450.615 1182.52,459.335 1187.09,462.886 
  1199.35,472.415 1202.87,475.158 1216.17,485.503 1218.65,487.429 1233,498.599 1234.41,499.701 1249.82,511.702 1250.17,511.972 1265.91,524.244 1266.65,524.818 
  1281.64,536.515 1283.47,537.944 1297.36,548.787 1300.3,551.078 1313.07,561.058 1317.12,564.22 1328.78,573.33 1333.95,577.369 1344.47,585.601 1350.77,590.526 
  1360.16,597.873 1367.6,603.69 1375.84,610.144 1384.42,616.863 1391.51,622.416 1401.25,630.042 1407.17,634.687 1418.07,643.229 1422.82,646.959 1434.9,656.424 
  1438.47,659.23 1451.72,669.627 1454.11,671.502 1468.54,682.837 1469.74,683.773 1485.36,696.045 1485.37,696.054 1500.96,708.316 1502.19,709.288 1516.55,720.588 
  1519.02,722.53 1532.13,732.859 1535.84,735.779 1547.71,745.131 1552.67,749.036 1563.28,757.402 1569.49,762.3 1578.84,769.674 1586.32,775.572 1594.39,781.945 
  1603.14,788.851 1609.94,794.217 1619.97,802.138 1625.47,806.488 1636.79,815.433 1641,818.76 1653.62,828.735 1656.52,831.032 1670.44,842.044 1672.03,843.303 
  1687.27,855.361 1687.54,855.575 1703.02,867.846 1704.09,868.693 1718.5,880.118 1720.92,882.035 1733.96,892.389 1737.74,895.385 1749.42,904.661 1754.57,908.742 
  1764.87,916.932 1771.39,922.106 1780.32,929.204 1788.21,935.478 1795.75,941.475 1805.04,948.857 1811.18,953.747 1821.86,962.244 1826.6,966.018 1838.69,975.638 
  1842.02,978.29 1855.51,989.04 1857.42,990.561 1872.34,1002.45 1872.82,1002.83 1888.2,1015.1 1889.16,1015.87 1903.57,1027.38 1905.99,1029.31 1918.93,1039.65 
  1922.81,1042.75 1934.28,1051.92 1939.64,1056.2 
  "/>
<polyline clip-path="url(#clip882)" style="stroke:#a12b61; stroke-width:4; stroke-opacity:1; fill:none" points="
  1939.64,949.497 1929.57,941.475 1922.81,936.095 1914.16,929.204 1905.99,922.7 1898.74,916.932 1889.16,909.311 1883.31,904.661 1872.34,895.93 1867.88,892.389 
  1855.51,882.556 1852.44,880.118 1838.69,869.188 1837,867.846 1821.86,855.828 1821.55,855.575 1806.07,843.303 1805.04,842.482 1790.59,831.032 1788.21,829.144 
  1775.11,818.76 1771.39,815.814 1759.61,806.488 1754.57,802.491 1744.11,794.217 1737.74,789.175 1728.6,781.945 1720.92,775.865 1713.08,769.674 1704.09,762.563 
  1697.56,757.402 1687.27,749.267 1682.03,745.131 1670.44,735.979 1666.49,732.859 1653.62,722.697 1650.94,720.588 1636.79,709.423 1635.39,708.316 1619.97,696.155 
  1619.83,696.045 1604.25,683.773 1603.14,682.902 1588.66,671.502 1586.32,669.657 1573.07,659.23 1569.49,656.419 1557.46,646.959 1552.67,643.188 1541.85,634.687 
  1535.84,629.964 1526.23,622.416 1519.02,616.747 1510.61,610.144 1502.19,603.537 1494.97,597.873 1485.37,590.334 1479.33,585.601 1468.54,577.138 1463.69,573.33 
  1451.72,563.949 1448.03,561.058 1434.9,550.767 1432.37,548.787 1418.07,537.592 1416.69,536.515 1401.25,524.424 1401.01,524.244 1385.32,511.972 1384.42,511.27 
  1369.61,499.701 1367.6,498.124 1353.9,487.429 1350.77,484.985 1338.18,475.158 1333.95,471.853 1322.45,462.886 1317.12,458.728 1306.71,450.615 1300.3,445.61 
  1290.97,438.343 1283.47,432.499 1275.22,426.072 1266.65,419.395 1259.46,413.8 1249.82,406.299 1243.69,401.529 1233,393.209 1227.91,389.257 1216.17,380.127 
  1212.13,376.986 1199.35,367.051 1196.34,364.714 1182.52,353.983 1180.54,352.443 1165.7,340.922 1164.73,340.171 1148.91,327.9 1148.87,327.869 1133.08,315.628 
  1132.05,314.828 1117.24,303.357 1115.23,301.796 1101.39,291.085 1098.4,288.77 1085.53,278.814 1081.58,275.751 1069.67,266.542 1064.75,262.739 1053.79,254.271 
  1047.93,249.735 1037.91,241.999 1031.1,236.737 1022.02,229.727 1014.28,223.747 1006.12,217.456 
  "/>
<polyline clip-path="url(#clip882)" style="stroke:#ba3655; stroke-width:4; stroke-opacity:1; fill:none" points="
  1132.85,217.456 1148.7,229.727 1148.87,229.867 1164.53,241.999 1165.7,242.908 1180.35,254.271 1182.52,255.956 1196.17,266.542 1199.35,269.011 1211.97,278.814 
  1216.17,282.073 1227.78,291.085 1233,295.141 1243.57,303.357 1249.82,308.216 1259.36,315.628 1266.65,321.297 1275.13,327.9 1283.47,334.385 1290.91,340.171 
  1300.3,347.48 1306.67,352.443 1317.12,360.581 1322.43,364.714 1333.95,373.689 1338.17,376.986 1350.77,386.804 1353.92,389.257 1367.6,399.925 1369.65,401.529 
  1384.42,413.053 1385.38,413.8 1401.1,426.072 1401.25,426.188 1416.8,438.343 1418.07,439.336 1432.5,450.615 1434.9,452.49 1448.18,462.886 1451.72,465.652 
  1463.86,475.158 1468.54,478.82 1479.54,487.429 1485.37,491.994 1495.21,499.701 1502.19,505.175 1510.86,511.972 1519.02,518.363 1526.52,524.244 1535.84,531.557 
  1542.16,536.515 1552.67,544.757 1557.8,548.787 1569.49,557.965 1573.43,561.058 1586.32,571.178 1589.05,573.33 1603.14,584.399 1604.67,585.601 1619.97,597.626 
  1620.28,597.873 1635.88,610.144 1636.79,610.865 1651.46,622.416 1653.62,624.113 1667.04,634.687 1670.44,637.367 1682.61,646.959 1687.27,650.628 1698.17,659.23 
  1704.09,663.895 1713.73,671.502 1720.92,677.169 1729.28,683.773 1737.74,690.45 1744.82,696.045 1754.57,703.737 1760.36,708.316 1771.39,717.031 1775.89,720.588 
  1788.21,730.331 1791.41,732.859 1805.04,743.637 1806.93,745.131 1821.86,756.95 1822.44,757.402 1837.93,769.674 1838.69,770.275 1853.41,781.945 1855.51,783.609 
  1868.89,794.217 1872.34,796.95 1884.36,806.488 1889.16,810.298 1899.82,818.76 1905.99,823.652 1915.28,831.032 1922.81,837.013 1930.73,843.303 1939.64,850.38 
  
  "/>
<polyline clip-path="url(#clip882)" style="stroke:#d04544; stroke-width:4; stroke-opacity:1; fill:none" points="
  1939.64,757.417 1939.62,757.402 1924.14,745.131 1922.81,744.083 1908.64,732.859 1905.99,730.754 1893.15,720.588 1889.16,717.432 1877.64,708.316 1872.34,704.117 
  1862.13,696.045 1855.51,690.807 1846.62,683.773 1838.69,677.503 1831.09,671.502 1821.86,664.206 1815.56,659.23 1805.04,650.915 1800.03,646.959 1788.21,637.629 
  1784.49,634.687 1771.39,624.35 1768.94,622.416 1754.57,611.078 1753.38,610.144 1737.82,597.873 1737.74,597.811 1722.24,585.601 1720.92,584.558 1706.65,573.33 
  1704.09,571.312 1691.06,561.058 1687.27,558.071 1675.46,548.787 1670.44,544.837 1659.86,536.515 1653.62,531.608 1644.24,524.244 1636.79,518.386 1628.63,511.972 
  1619.97,505.17 1613,499.701 1603.14,491.96 1597.37,487.429 1586.32,478.757 1581.73,475.158 1569.49,465.559 1566.08,462.886 1552.67,452.368 1550.43,450.615 
  1535.84,439.183 1534.77,438.343 1519.1,426.072 1519.02,426.005 1503.42,413.8 1502.19,412.839 1487.73,401.529 1485.37,399.68 1472.04,389.257 1468.54,386.527 
  1456.33,376.986 1451.72,373.38 1440.62,364.714 1434.9,360.239 1424.91,352.443 1418.07,347.104 1409.18,340.171 1401.25,333.976 1393.45,327.9 1384.42,320.854 
  1377.72,315.628 1367.6,307.738 1361.97,303.357 1350.77,294.628 1346.22,291.085 1333.95,281.525 1330.46,278.814 1317.12,268.428 1314.7,266.542 1300.3,255.337 
  1298.93,254.271 1283.47,242.252 1283.15,241.999 1267.35,229.727 1266.65,229.178 1251.55,217.456 
  "/>
<polyline clip-path="url(#clip882)" style="stroke:#e35832; stroke-width:4; stroke-opacity:1; fill:none" points="
  1363.6,217.456 1367.6,220.566 1379.36,229.727 1384.42,233.67 1395.11,241.999 1401.25,246.779 1410.85,254.271 1418.07,259.895 1426.59,266.542 1434.9,273.016 
  1442.32,278.814 1451.72,286.143 1458.05,291.085 1468.54,299.276 1473.77,303.357 1485.37,312.415 1489.48,315.628 1502.19,325.56 1505.19,327.9 1519.02,338.711 
  1520.89,340.171 1535.84,351.868 1536.58,352.443 1552.26,364.714 1552.67,365.032 1567.93,376.986 1569.49,378.207 1583.6,389.257 1586.32,391.388 1599.25,401.529 
  1603.14,404.575 1614.91,413.8 1619.97,417.768 1630.55,426.072 1636.79,430.966 1646.19,438.343 1653.62,444.17 1661.82,450.615 1670.44,457.381 1677.45,462.886 
  1687.27,470.597 1693.07,475.158 1704.09,483.819 1708.68,487.429 1720.92,497.047 1724.29,499.701 1737.74,510.28 1739.89,511.972 1754.57,523.52 1755.48,524.244 
  1771.07,536.515 1771.39,536.767 1786.64,548.787 1788.21,550.025 1802.21,561.058 1805.04,563.29 1817.77,573.33 1821.86,576.56 1833.32,585.601 1838.69,589.835 
  1848.87,597.873 1855.51,603.117 1864.41,610.144 1872.34,616.405 1879.95,622.416 1889.16,629.698 1895.47,634.687 1905.99,642.997 1911,646.959 1922.81,656.302 
  1926.51,659.23 1939.64,669.613 
  "/>
<polyline clip-path="url(#clip882)" style="stroke:#f0701e; stroke-width:4; stroke-opacity:1; fill:none" points="
  1939.64,586.172 1938.92,585.601 1923.38,573.33 1922.81,572.88 1907.84,561.058 1905.99,559.597 1892.29,548.787 1889.16,546.32 1876.73,536.515 1872.34,533.048 
  1861.17,524.244 1855.51,519.782 1845.6,511.972 1838.69,506.521 1830.03,499.701 1821.86,493.266 1814.45,487.429 1805.04,480.017 1798.87,475.158 1788.21,466.773 
  1783.27,462.886 1771.39,453.535 1767.68,450.615 1754.57,440.302 1752.07,438.343 1737.74,427.075 1736.46,426.072 1720.92,413.854 1720.85,413.8 1705.22,401.529 
  1704.09,400.644 1689.58,389.257 1687.27,387.441 1673.94,376.986 1670.44,374.243 1658.29,364.714 1653.62,361.05 1642.63,352.443 1636.79,347.863 1626.97,340.171 
  1619.97,334.682 1611.31,327.9 1603.14,321.506 1595.63,315.628 1586.32,308.336 1579.95,303.357 1569.49,295.172 1564.27,291.085 1552.67,282.013 1548.58,278.814 
  1535.84,268.859 1532.88,266.542 1519.02,255.712 1517.17,254.271 1502.19,242.57 1501.46,241.999 1485.74,229.727 1485.37,229.436 1470.01,217.456 
  "/>
<polyline clip-path="url(#clip882)" style="stroke:#f98c09; stroke-width:4; stroke-opacity:1; fill:none" points="
  1571.55,217.456 1586.32,229 1587.25,229.727 1602.94,241.999 1603.14,242.155 1618.63,254.271 1619.97,255.32 1634.3,266.542 1636.79,268.491 1649.97,278.814 
  1653.62,281.667 1665.64,291.085 1670.44,294.848 1681.3,303.357 1687.27,308.034 1696.95,315.628 1704.09,321.226 1712.6,327.9 1720.92,334.424 1728.24,340.171 
  1737.74,347.626 1743.87,352.443 1754.57,360.835 1759.5,364.714 1771.39,374.048 1775.13,376.986 1788.21,387.267 1790.75,389.257 1805.04,400.491 1806.36,401.529 
  1821.86,413.72 1821.97,413.8 1837.56,426.072 1838.69,426.961 1853.15,438.343 1855.51,440.207 1868.73,450.615 1872.34,453.459 1884.3,462.886 1889.16,466.716 
  1899.87,475.158 1905.99,479.979 1915.43,487.429 1922.81,493.247 1930.99,499.701 1939.64,506.52 
  "/>
<polyline clip-path="url(#clip882)" style="stroke:#fbaa0e; stroke-width:4; stroke-opacity:1; fill:none" points="
  1939.64,430.166 1934.44,426.072 1922.81,416.907 1918.87,413.8 1905.99,403.654 1903.29,401.529 1889.16,390.406 1887.7,389.257 1872.34,377.163 1872.11,376.986 
  1856.51,364.714 1855.51,363.93 1840.9,352.443 1838.69,350.704 1825.28,340.171 1821.86,337.483 1809.66,327.9 1805.04,324.266 1794.04,315.628 1788.21,311.055 
  1778.41,303.357 1771.39,297.849 1762.77,291.085 1754.57,284.649 1747.12,278.814 1737.74,271.453 1731.48,266.542 1720.92,258.262 1715.82,254.271 1704.09,245.077 
  1700.16,241.999 1687.27,231.897 1684.5,229.727 1670.44,218.722 1668.82,217.456 
  "/>
<polyline clip-path="url(#clip882)" style="stroke:#f8c931; stroke-width:4; stroke-opacity:1; fill:none" points="
  1762.33,217.456 1771.39,224.557 1777.98,229.727 1788.21,237.751 1793.63,241.999 1805.04,250.949 1809.27,254.271 1821.86,264.152 1824.91,266.542 1838.69,277.36 
  1840.54,278.814 1855.51,290.573 1856.17,291.085 1871.78,303.357 1872.34,303.794 1887.39,315.628 1889.16,317.022 1902.99,327.9 1905.99,330.256 1918.59,340.171 
  1922.81,343.495 1934.18,352.443 1939.64,356.739 
  "/>
<polyline clip-path="url(#clip882)" style="stroke:#f1e864; stroke-width:4; stroke-opacity:1; fill:none" points="
  1939.64,285.925 1930.59,278.814 1922.81,272.696 1914.98,266.542 1905.99,259.472 1899.37,254.271 1889.16,246.252 1883.75,241.999 1872.34,233.037 1868.12,229.727 
  1855.51,219.827 1852.49,217.456 
  "/>
<defs>
  <clipPath id="clip883">
    <rect x="2160" y="62" width="73" height="1459"/>
  </clipPath>
</defs>
<polyline clip-path="url(#clip883)" style="stroke:#0a0723; stroke-width:4; stroke-opacity:1; fill:none" points="
  2160.76,1429.88 2232.76,1429.88 
  "/>
<polyline clip-path="url(#clip883)" style="stroke:#200c4a; stroke-width:4; stroke-opacity:1; fill:none" points="
  2160.76,1338.76 2232.76,1338.76 
  "/>
<polyline clip-path="url(#clip883)" style="stroke:#3c0965; stroke-width:4; stroke-opacity:1; fill:none" points="
  2160.76,1247.63 2232.76,1247.63 
  "/>
<polyline clip-path="url(#clip883)" style="stroke:#570f6d; stroke-width:4; stroke-opacity:1; fill:none" points="
  2160.76,1156.5 2232.76,1156.5 
  "/>
<polyline clip-path="url(#clip883)" style="stroke:#70196e; stroke-width:4; stroke-opacity:1; fill:none" points="
  2160.76,1065.38 2232.76,1065.38 
  "/>
<polyline clip-path="url(#clip883)" style="stroke:#892269; stroke-width:4; stroke-opacity:1; fill:none" points="
  2160.76,974.252 2232.76,974.252 
  "/>
<polyline clip-path="url(#clip883)" style="stroke:#a32b61; stroke-width:4; stroke-opacity:1; fill:none" points="
  2160.76,883.126 2232.76,883.126 
  "/>
<polyline clip-path="url(#clip883)" style="stroke:#bb3754; stroke-width:4; stroke-opacity:1; fill:none" points="
  2160.76,792 2232.76,792 
  "/>
<polyline clip-path="url(#clip883)" style="stroke:#d04544; stroke-width:4; stroke-opacity:1; fill:none" points="
  2160.76,700.874 2232.76,700.874 
  "/>
<polyline clip-path="url(#clip883)" style="stroke:#e35832; stroke-width:4; stroke-opacity:1; fill:none" points="
  2160.76,609.748 2232.76,609.748 
  "/>
<polyline clip-path="url(#clip883)" style="stroke:#f0701e; stroke-width:4; stroke-opacity:1; fill:none" points="
  2160.76,518.622 2232.76,518.622 
  "/>
<polyline clip-path="url(#clip883)" style="stroke:#f98c09; stroke-width:4; stroke-opacity:1; fill:none" points="
  2160.76,427.496 2232.76,427.496 
  "/>
<polyline clip-path="url(#clip883)" style="stroke:#fbaa0e; stroke-width:4; stroke-opacity:1; fill:none" points="
  2160.76,336.37 2232.76,336.37 
  "/>
<polyline clip-path="url(#clip883)" style="stroke:#f8c931; stroke-width:4; stroke-opacity:1; fill:none" points="
  2160.76,245.244 2232.76,245.244 
  "/>
<polyline clip-path="url(#clip883)" style="stroke:#f1e864; stroke-width:4; stroke-opacity:1; fill:none" points="
  2160.76,154.118 2232.76,154.118 
  "/>
<g clip-path="url(#clip880)">
<text style="fill:#000000; fill-opacity:1; font-family:Arial,Helvetica Neue,Helvetica,sans-serif; font-size:48px; text-anchor:start;" transform="rotate(0, 2268.76, 1468.98)" x="2268.76" y="1468.98">0</text>
</g>
<g clip-path="url(#clip880)">
<text style="fill:#000000; fill-opacity:1; font-family:Arial,Helvetica Neue,Helvetica,sans-serif; font-size:48px; text-anchor:start;" transform="rotate(0, 2268.76, 1229.72)" x="2268.76" y="1229.72">50</text>
</g>
<g clip-path="url(#clip880)">
<text style="fill:#000000; fill-opacity:1; font-family:Arial,Helvetica Neue,Helvetica,sans-serif; font-size:48px; text-anchor:start;" transform="rotate(0, 2268.76, 990.468)" x="2268.76" y="990.468">100</text>
</g>
<g clip-path="url(#clip880)">
<text style="fill:#000000; fill-opacity:1; font-family:Arial,Helvetica Neue,Helvetica,sans-serif; font-size:48px; text-anchor:start;" transform="rotate(0, 2268.76, 751.212)" x="2268.76" y="751.212">150</text>
</g>
<g clip-path="url(#clip880)">
<text style="fill:#000000; fill-opacity:1; font-family:Arial,Helvetica Neue,Helvetica,sans-serif; font-size:48px; text-anchor:start;" transform="rotate(0, 2268.76, 511.956)" x="2268.76" y="511.956">200</text>
</g>
<g clip-path="url(#clip880)">
<text style="fill:#000000; fill-opacity:1; font-family:Arial,Helvetica Neue,Helvetica,sans-serif; font-size:48px; text-anchor:start;" transform="rotate(0, 2268.76, 272.701)" x="2268.76" y="272.701">250</text>
</g>
<polyline clip-path="url(#clip880)" style="stroke:#000000; stroke-width:4; stroke-opacity:1; fill:none" points="
  2232.76,1521.01 2232.76,1455.33 2256.76,1455.33 2232.76,1455.33 2232.76,1216.07 2256.76,1216.07 2232.76,1216.07 2232.76,976.817 2256.76,976.817 2232.76,976.817 
  2232.76,737.561 2256.76,737.561 2232.76,737.561 2232.76,498.305 2256.76,498.305 2232.76,498.305 2232.76,259.049 2256.76,259.049 2232.76,259.049 2232.76,62.9921 
  
  "/>
<path clip-path="url(#clip880)" d="
M1769.32 293.033 L2045.23 293.033 L2045.23 111.593 L1769.32 111.593  Z
  " fill="#ffffff" fill-rule="evenodd" fill-opacity="1"/>
<polyline clip-path="url(#clip880)" style="stroke:#000000; stroke-width:4; stroke-opacity:1; fill:none" points="
  1769.32,293.033 2045.23,293.033 2045.23,111.593 1769.32,111.593 1769.32,293.033 
  "/>
<circle clip-path="url(#clip880)" cx="1859.35" cy="172.073" r="23" fill="#009af9" fill-rule="evenodd" fill-opacity="1" stroke="#000000" stroke-opacity="1" stroke-width="5.12"/>
<g clip-path="url(#clip880)">
<text style="fill:#000000; fill-opacity:1; font-family:Arial,Helvetica Neue,Helvetica,sans-serif; font-size:48px; text-anchor:start;" transform="rotate(0, 1949.38, 189.573)" x="1949.38" y="189.573">y1</text>
</g>
<circle clip-path="url(#clip880)" cx="1859.35" cy="232.553" r="23" fill="#e26f46" fill-rule="evenodd" fill-opacity="1" stroke="#000000" stroke-opacity="1" stroke-width="5.12"/>
<g clip-path="url(#clip880)">
<text style="fill:#000000; fill-opacity:1; font-family:Arial,Helvetica Neue,Helvetica,sans-serif; font-size:48px; text-anchor:start;" transform="rotate(0, 1949.38, 250.053)" x="1949.38" y="250.053">y2</text>
</g>
</svg>
