<?xml version="1.0" encoding="utf-8"?>
<svg xmlns="http://www.w3.org/2000/svg" xmlns:xlink="http://www.w3.org/1999/xlink" width="600" height="400" viewBox="0 0 2400 1600">
<defs>
  <clipPath id="clip340">
    <rect x="0" y="0" width="2400" height="1600"/>
  </clipPath>
</defs>
<path clip-path="url(#clip340)" d="
M0 1600 L2400 1600 L2400 0 L0 0  Z
  " fill="#ffffff" fill-rule="evenodd" fill-opacity="1"/>
<defs>
  <clipPath id="clip341">
    <rect x="480" y="0" width="1681" height="1600"/>
  </clipPath>
</defs>
<path clip-path="url(#clip340)" d="
M284.912 1383.22 L2112.76 1383.22 L2112.76 121.675 L284.912 121.675  Z
  " fill="#ffffff" fill-rule="evenodd" fill-opacity="1"/>
<defs>
  <clipPath id="clip342">
    <rect x="284" y="121" width="1829" height="1263"/>
  </clipPath>
</defs>
<polyline clip-path="url(#clip342)" style="stroke:#000000; stroke-linecap:butt; stroke-linejoin:round; stroke-width:2; stroke-opacity:0.1; fill:none" points="
  438.457,1383.22 438.457,121.675 
  "/>
<polyline clip-path="url(#clip342)" style="stroke:#000000; stroke-linecap:butt; stroke-linejoin:round; stroke-width:2; stroke-opacity:0.1; fill:none" points="
  817.981,1383.22 817.981,121.675 
  "/>
<polyline clip-path="url(#clip342)" style="stroke:#000000; stroke-linecap:butt; stroke-linejoin:round; stroke-width:2; stroke-opacity:0.1; fill:none" points="
  1197.5,1383.22 1197.5,121.675 
  "/>
<polyline clip-path="url(#clip342)" style="stroke:#000000; stroke-linecap:butt; stroke-linejoin:round; stroke-width:2; stroke-opacity:0.1; fill:none" points="
  1577.03,1383.22 1577.03,121.675 
  "/>
<polyline clip-path="url(#clip342)" style="stroke:#000000; stroke-linecap:butt; stroke-linejoin:round; stroke-width:2; stroke-opacity:0.1; fill:none" points="
  1956.55,1383.22 1956.55,121.675 
  "/>
<polyline clip-path="url(#clip340)" style="stroke:#000000; stroke-linecap:butt; stroke-linejoin:round; stroke-width:4; stroke-opacity:1; fill:none" points="
  284.912,1383.22 2112.76,1383.22 
  "/>
<polyline clip-path="url(#clip340)" style="stroke:#000000; stroke-linecap:butt; stroke-linejoin:round; stroke-width:4; stroke-opacity:1; fill:none" points="
  438.457,1383.22 438.457,1364.33 
  "/>
<polyline clip-path="url(#clip340)" style="stroke:#000000; stroke-linecap:butt; stroke-linejoin:round; stroke-width:4; stroke-opacity:1; fill:none" points="
  817.981,1383.22 817.981,1364.33 
  "/>
<polyline clip-path="url(#clip340)" style="stroke:#000000; stroke-linecap:butt; stroke-linejoin:round; stroke-width:4; stroke-opacity:1; fill:none" points="
  1197.5,1383.22 1197.5,1364.33 
  "/>
<polyline clip-path="url(#clip340)" style="stroke:#000000; stroke-linecap:butt; stroke-linejoin:round; stroke-width:4; stroke-opacity:1; fill:none" points="
  1577.03,1383.22 1577.03,1364.33 
  "/>
<polyline clip-path="url(#clip340)" style="stroke:#000000; stroke-linecap:butt; stroke-linejoin:round; stroke-width:4; stroke-opacity:1; fill:none" points="
  1956.55,1383.22 1956.55,1364.33 
  "/>
<g clip-path="url(#clip340)">
<text style="fill:#000000; fill-opacity:1; font-family:Arial,Helvetica Neue,Helvetica,sans-serif; font-size:48px; text-anchor:middle;" transform="rotate(0, 438.457, 1444.42)" x="438.457" y="1444.42">−5.0</text>
</g>
<g clip-path="url(#clip340)">
<text style="fill:#000000; fill-opacity:1; font-family:Arial,Helvetica Neue,Helvetica,sans-serif; font-size:48px; text-anchor:middle;" transform="rotate(0, 817.981, 1444.42)" x="817.981" y="1444.42">−2.5</text>
</g>
<g clip-path="url(#clip340)">
<text style="fill:#000000; fill-opacity:1; font-family:Arial,Helvetica Neue,Helvetica,sans-serif; font-size:48px; text-anchor:middle;" transform="rotate(0, 1197.5, 1444.42)" x="1197.5" y="1444.42">0.0</text>
</g>
<g clip-path="url(#clip340)">
<text style="fill:#000000; fill-opacity:1; font-family:Arial,Helvetica Neue,Helvetica,sans-serif; font-size:48px; text-anchor:middle;" transform="rotate(0, 1577.03, 1444.42)" x="1577.03" y="1444.42">2.5</text>
</g>
<g clip-path="url(#clip340)">
<text style="fill:#000000; fill-opacity:1; font-family:Arial,Helvetica Neue,Helvetica,sans-serif; font-size:48px; text-anchor:middle;" transform="rotate(0, 1956.55, 1444.42)" x="1956.55" y="1444.42">5.0</text>
</g>
<polyline clip-path="url(#clip342)" style="stroke:#000000; stroke-linecap:butt; stroke-linejoin:round; stroke-width:2; stroke-opacity:0.1; fill:none" points="
  284.912,1317.12 2112.76,1317.12 
  "/>
<polyline clip-path="url(#clip342)" style="stroke:#000000; stroke-linecap:butt; stroke-linejoin:round; stroke-width:2; stroke-opacity:0.1; fill:none" points="
  284.912,1051.67 2112.76,1051.67 
  "/>
<polyline clip-path="url(#clip342)" style="stroke:#000000; stroke-linecap:butt; stroke-linejoin:round; stroke-width:2; stroke-opacity:0.1; fill:none" points="
  284.912,786.221 2112.76,786.221 
  "/>
<polyline clip-path="url(#clip342)" style="stroke:#000000; stroke-linecap:butt; stroke-linejoin:round; stroke-width:2; stroke-opacity:0.1; fill:none" points="
  284.912,520.773 2112.76,520.773 
  "/>
<polyline clip-path="url(#clip342)" style="stroke:#000000; stroke-linecap:butt; stroke-linejoin:round; stroke-width:2; stroke-opacity:0.1; fill:none" points="
  284.912,255.325 2112.76,255.325 
  "/>
<polyline clip-path="url(#clip340)" style="stroke:#000000; stroke-linecap:butt; stroke-linejoin:round; stroke-width:4; stroke-opacity:1; fill:none" points="
  284.912,1383.22 284.912,121.675 
  "/>
<polyline clip-path="url(#clip340)" style="stroke:#000000; stroke-linecap:butt; stroke-linejoin:round; stroke-width:4; stroke-opacity:1; fill:none" points="
  284.912,1317.12 301.617,1317.12 
  "/>
<polyline clip-path="url(#clip340)" style="stroke:#000000; stroke-linecap:butt; stroke-linejoin:round; stroke-width:4; stroke-opacity:1; fill:none" points="
  284.912,1051.67 301.617,1051.67 
  "/>
<polyline clip-path="url(#clip340)" style="stroke:#000000; stroke-linecap:butt; stroke-linejoin:round; stroke-width:4; stroke-opacity:1; fill:none" points="
  284.912,786.221 301.617,786.221 
  "/>
<polyline clip-path="url(#clip340)" style="stroke:#000000; stroke-linecap:butt; stroke-linejoin:round; stroke-width:4; stroke-opacity:1; fill:none" points="
  284.912,520.773 301.617,520.773 
  "/>
<polyline clip-path="url(#clip340)" style="stroke:#000000; stroke-linecap:butt; stroke-linejoin:round; stroke-width:4; stroke-opacity:1; fill:none" points="
  284.912,255.325 301.617,255.325 
  "/>
<g clip-path="url(#clip340)">
<text style="fill:#000000; fill-opacity:1; font-family:Arial,Helvetica Neue,Helvetica,sans-serif; font-size:48px; text-anchor:end;" transform="rotate(0, 248.912, 1334.62)" x="248.912" y="1334.62">−5.0</text>
</g>
<g clip-path="url(#clip340)">
<text style="fill:#000000; fill-opacity:1; font-family:Arial,Helvetica Neue,Helvetica,sans-serif; font-size:48px; text-anchor:end;" transform="rotate(0, 248.912, 1069.17)" x="248.912" y="1069.17">−2.5</text>
</g>
<g clip-path="url(#clip340)">
<text style="fill:#000000; fill-opacity:1; font-family:Arial,Helvetica Neue,Helvetica,sans-serif; font-size:48px; text-anchor:end;" transform="rotate(0, 248.912, 803.721)" x="248.912" y="803.721">0.0</text>
</g>
<g clip-path="url(#clip340)">
<text style="fill:#000000; fill-opacity:1; font-family:Arial,Helvetica Neue,Helvetica,sans-serif; font-size:48px; text-anchor:end;" transform="rotate(0, 248.912, 538.273)" x="248.912" y="538.273">2.5</text>
</g>
<g clip-path="url(#clip340)">
<text style="fill:#000000; fill-opacity:1; font-family:Arial,Helvetica Neue,Helvetica,sans-serif; font-size:48px; text-anchor:end;" transform="rotate(0, 248.912, 272.825)" x="248.912" y="272.825">5.0</text>
</g>
<g clip-path="url(#clip340)">
<text style="fill:#000000; fill-opacity:1; font-family:Arial,Helvetica Neue,Helvetica,sans-serif; font-size:84px; text-anchor:middle;" transform="rotate(0, 1198.83, 73.2)" x="1198.83" y="73.2">QDA</text>
</g>
<circle clip-path="url(#clip342)" cx="1756.66" cy="266.308" r="14" fill="#009af9" fill-rule="evenodd" fill-opacity="1" stroke="#000000" stroke-opacity="1" stroke-width="3.2"/>
<circle clip-path="url(#clip342)" cx="1746.44" cy="504.877" r="14" fill="#009af9" fill-rule="evenodd" fill-opacity="1" stroke="#000000" stroke-opacity="1" stroke-width="3.2"/>
<circle clip-path="url(#clip342)" cx="1415.96" cy="673.676" r="14" fill="#009af9" fill-rule="evenodd" fill-opacity="1" stroke="#000000" stroke-opacity="1" stroke-width="3.2"/>
<circle clip-path="url(#clip342)" cx="1711.73" cy="585.197" r="14" fill="#009af9" fill-rule="evenodd" fill-opacity="1" stroke="#000000" stroke-opacity="1" stroke-width="3.2"/>
<circle clip-path="url(#clip342)" cx="1559.91" cy="603.028" r="14" fill="#009af9" fill-rule="evenodd" fill-opacity="1" stroke="#000000" stroke-opacity="1" stroke-width="3.2"/>
<circle clip-path="url(#clip342)" cx="1428.26" cy="700.579" r="14" fill="#009af9" fill-rule="evenodd" fill-opacity="1" stroke="#000000" stroke-opacity="1" stroke-width="3.2"/>
<circle clip-path="url(#clip342)" cx="1310.28" cy="524.728" r="14" fill="#009af9" fill-rule="evenodd" fill-opacity="1" stroke="#000000" stroke-opacity="1" stroke-width="3.2"/>
<circle clip-path="url(#clip342)" cx="1628.31" cy="518.603" r="14" fill="#009af9" fill-rule="evenodd" fill-opacity="1" stroke="#000000" stroke-opacity="1" stroke-width="3.2"/>
<circle clip-path="url(#clip342)" cx="1440.77" cy="684.213" r="14" fill="#009af9" fill-rule="evenodd" fill-opacity="1" stroke="#000000" stroke-opacity="1" stroke-width="3.2"/>
<circle clip-path="url(#clip342)" cx="1347.1" cy="690.247" r="14" fill="#009af9" fill-rule="evenodd" fill-opacity="1" stroke="#000000" stroke-opacity="1" stroke-width="3.2"/>
<circle clip-path="url(#clip342)" cx="1290.83" cy="534.761" r="14" fill="#009af9" fill-rule="evenodd" fill-opacity="1" stroke="#000000" stroke-opacity="1" stroke-width="3.2"/>
<circle clip-path="url(#clip342)" cx="1400.54" cy="706.138" r="14" fill="#009af9" fill-rule="evenodd" fill-opacity="1" stroke="#000000" stroke-opacity="1" stroke-width="3.2"/>
<circle clip-path="url(#clip342)" cx="1560.75" cy="345.031" r="14" fill="#009af9" fill-rule="evenodd" fill-opacity="1" stroke="#000000" stroke-opacity="1" stroke-width="3.2"/>
<circle clip-path="url(#clip342)" cx="1119.46" cy="1014.29" r="14" fill="#009af9" fill-rule="evenodd" fill-opacity="1" stroke="#000000" stroke-opacity="1" stroke-width="3.2"/>
<circle clip-path="url(#clip342)" cx="1669.07" cy="226.455" r="14" fill="#009af9" fill-rule="evenodd" fill-opacity="1" stroke="#000000" stroke-opacity="1" stroke-width="3.2"/>
<circle clip-path="url(#clip342)" cx="1314.12" cy="521.948" r="14" fill="#009af9" fill-rule="evenodd" fill-opacity="1" stroke="#000000" stroke-opacity="1" stroke-width="3.2"/>
<circle clip-path="url(#clip342)" cx="1467.66" cy="223.537" r="14" fill="#009af9" fill-rule="evenodd" fill-opacity="1" stroke="#000000" stroke-opacity="1" stroke-width="3.2"/>
<circle clip-path="url(#clip342)" cx="1286.79" cy="563.808" r="14" fill="#009af9" fill-rule="evenodd" fill-opacity="1" stroke="#000000" stroke-opacity="1" stroke-width="3.2"/>
<circle clip-path="url(#clip342)" cx="1126.66" cy="706.082" r="14" fill="#009af9" fill-rule="evenodd" fill-opacity="1" stroke="#000000" stroke-opacity="1" stroke-width="3.2"/>
<circle clip-path="url(#clip342)" cx="1446.64" cy="451.628" r="14" fill="#009af9" fill-rule="evenodd" fill-opacity="1" stroke="#000000" stroke-opacity="1" stroke-width="3.2"/>
<circle clip-path="url(#clip342)" cx="1259.63" cy="625.577" r="14" fill="#009af9" fill-rule="evenodd" fill-opacity="1" stroke="#000000" stroke-opacity="1" stroke-width="3.2"/>
<circle clip-path="url(#clip342)" cx="1449.06" cy="343.818" r="14" fill="#009af9" fill-rule="evenodd" fill-opacity="1" stroke="#000000" stroke-opacity="1" stroke-width="3.2"/>
<circle clip-path="url(#clip342)" cx="1589.89" cy="608.041" r="14" fill="#009af9" fill-rule="evenodd" fill-opacity="1" stroke="#000000" stroke-opacity="1" stroke-width="3.2"/>
<circle clip-path="url(#clip342)" cx="1461.22" cy="343.845" r="14" fill="#009af9" fill-rule="evenodd" fill-opacity="1" stroke="#000000" stroke-opacity="1" stroke-width="3.2"/>
<circle clip-path="url(#clip342)" cx="826.293" cy="790.102" r="14" fill="#009af9" fill-rule="evenodd" fill-opacity="1" stroke="#000000" stroke-opacity="1" stroke-width="3.2"/>
<circle clip-path="url(#clip342)" cx="1548.08" cy="604.988" r="14" fill="#009af9" fill-rule="evenodd" fill-opacity="1" stroke="#000000" stroke-opacity="1" stroke-width="3.2"/>
<circle clip-path="url(#clip342)" cx="1778.64" cy="398.225" r="14" fill="#009af9" fill-rule="evenodd" fill-opacity="1" stroke="#000000" stroke-opacity="1" stroke-width="3.2"/>
<circle clip-path="url(#clip342)" cx="1507.73" cy="745.07" r="14" fill="#009af9" fill-rule="evenodd" fill-opacity="1" stroke="#000000" stroke-opacity="1" stroke-width="3.2"/>
<circle clip-path="url(#clip342)" cx="1594.44" cy="621.067" r="14" fill="#009af9" fill-rule="evenodd" fill-opacity="1" stroke="#000000" stroke-opacity="1" stroke-width="3.2"/>
<circle clip-path="url(#clip342)" cx="1383.29" cy="669.343" r="14" fill="#009af9" fill-rule="evenodd" fill-opacity="1" stroke="#000000" stroke-opacity="1" stroke-width="3.2"/>
<circle clip-path="url(#clip342)" cx="1644.05" cy="712.051" r="14" fill="#009af9" fill-rule="evenodd" fill-opacity="1" stroke="#000000" stroke-opacity="1" stroke-width="3.2"/>
<circle clip-path="url(#clip342)" cx="1469.7" cy="592.24" r="14" fill="#009af9" fill-rule="evenodd" fill-opacity="1" stroke="#000000" stroke-opacity="1" stroke-width="3.2"/>
<circle clip-path="url(#clip342)" cx="1681.83" cy="649.377" r="14" fill="#009af9" fill-rule="evenodd" fill-opacity="1" stroke="#000000" stroke-opacity="1" stroke-width="3.2"/>
<circle clip-path="url(#clip342)" cx="1721.25" cy="732.828" r="14" fill="#009af9" fill-rule="evenodd" fill-opacity="1" stroke="#000000" stroke-opacity="1" stroke-width="3.2"/>
<circle clip-path="url(#clip342)" cx="1539.44" cy="157.379" r="14" fill="#009af9" fill-rule="evenodd" fill-opacity="1" stroke="#000000" stroke-opacity="1" stroke-width="3.2"/>
<circle clip-path="url(#clip342)" cx="1279.25" cy="619.58" r="14" fill="#009af9" fill-rule="evenodd" fill-opacity="1" stroke="#000000" stroke-opacity="1" stroke-width="3.2"/>
<circle clip-path="url(#clip342)" cx="1683.39" cy="1011.66" r="14" fill="#009af9" fill-rule="evenodd" fill-opacity="1" stroke="#000000" stroke-opacity="1" stroke-width="3.2"/>
<circle clip-path="url(#clip342)" cx="1497.84" cy="673.928" r="14" fill="#009af9" fill-rule="evenodd" fill-opacity="1" stroke="#000000" stroke-opacity="1" stroke-width="3.2"/>
<circle clip-path="url(#clip342)" cx="2061.02" cy="360.424" r="14" fill="#009af9" fill-rule="evenodd" fill-opacity="1" stroke="#000000" stroke-opacity="1" stroke-width="3.2"/>
<circle clip-path="url(#clip342)" cx="1569.37" cy="380.918" r="14" fill="#009af9" fill-rule="evenodd" fill-opacity="1" stroke="#000000" stroke-opacity="1" stroke-width="3.2"/>
<circle clip-path="url(#clip342)" cx="1204.62" cy="319.693" r="14" fill="#009af9" fill-rule="evenodd" fill-opacity="1" stroke="#000000" stroke-opacity="1" stroke-width="3.2"/>
<circle clip-path="url(#clip342)" cx="1588.08" cy="714.539" r="14" fill="#009af9" fill-rule="evenodd" fill-opacity="1" stroke="#000000" stroke-opacity="1" stroke-width="3.2"/>
<circle clip-path="url(#clip342)" cx="1776.28" cy="464.675" r="14" fill="#009af9" fill-rule="evenodd" fill-opacity="1" stroke="#000000" stroke-opacity="1" stroke-width="3.2"/>
<circle clip-path="url(#clip342)" cx="1415.95" cy="415.382" r="14" fill="#009af9" fill-rule="evenodd" fill-opacity="1" stroke="#000000" stroke-opacity="1" stroke-width="3.2"/>
<circle clip-path="url(#clip342)" cx="1343.55" cy="504.879" r="14" fill="#009af9" fill-rule="evenodd" fill-opacity="1" stroke="#000000" stroke-opacity="1" stroke-width="3.2"/>
<circle clip-path="url(#clip342)" cx="1867.43" cy="471.988" r="14" fill="#009af9" fill-rule="evenodd" fill-opacity="1" stroke="#000000" stroke-opacity="1" stroke-width="3.2"/>
<circle clip-path="url(#clip342)" cx="1562.78" cy="413.468" r="14" fill="#009af9" fill-rule="evenodd" fill-opacity="1" stroke="#000000" stroke-opacity="1" stroke-width="3.2"/>
<circle clip-path="url(#clip342)" cx="1435.24" cy="862.202" r="14" fill="#009af9" fill-rule="evenodd" fill-opacity="1" stroke="#000000" stroke-opacity="1" stroke-width="3.2"/>
<circle clip-path="url(#clip342)" cx="1859.57" cy="605.93" r="14" fill="#009af9" fill-rule="evenodd" fill-opacity="1" stroke="#000000" stroke-opacity="1" stroke-width="3.2"/>
<circle clip-path="url(#clip342)" cx="1465.98" cy="709.455" r="14" fill="#009af9" fill-rule="evenodd" fill-opacity="1" stroke="#000000" stroke-opacity="1" stroke-width="3.2"/>
<circle clip-path="url(#clip342)" cx="1581.9" cy="634.718" r="14" fill="#009af9" fill-rule="evenodd" fill-opacity="1" stroke="#000000" stroke-opacity="1" stroke-width="3.2"/>
<circle clip-path="url(#clip342)" cx="1787.92" cy="333.492" r="14" fill="#009af9" fill-rule="evenodd" fill-opacity="1" stroke="#000000" stroke-opacity="1" stroke-width="3.2"/>
<circle clip-path="url(#clip342)" cx="1188.13" cy="453.646" r="14" fill="#009af9" fill-rule="evenodd" fill-opacity="1" stroke="#000000" stroke-opacity="1" stroke-width="3.2"/>
<circle clip-path="url(#clip342)" cx="1693.46" cy="677.763" r="14" fill="#009af9" fill-rule="evenodd" fill-opacity="1" stroke="#000000" stroke-opacity="1" stroke-width="3.2"/>
<circle clip-path="url(#clip342)" cx="1177.21" cy="687.162" r="14" fill="#009af9" fill-rule="evenodd" fill-opacity="1" stroke="#000000" stroke-opacity="1" stroke-width="3.2"/>
<circle clip-path="url(#clip342)" cx="1525.95" cy="537.434" r="14" fill="#009af9" fill-rule="evenodd" fill-opacity="1" stroke="#000000" stroke-opacity="1" stroke-width="3.2"/>
<circle clip-path="url(#clip342)" cx="1453.2" cy="639.986" r="14" fill="#009af9" fill-rule="evenodd" fill-opacity="1" stroke="#000000" stroke-opacity="1" stroke-width="3.2"/>
<circle clip-path="url(#clip342)" cx="1120.72" cy="476.016" r="14" fill="#009af9" fill-rule="evenodd" fill-opacity="1" stroke="#000000" stroke-opacity="1" stroke-width="3.2"/>
<circle clip-path="url(#clip342)" cx="1586.51" cy="542.209" r="14" fill="#009af9" fill-rule="evenodd" fill-opacity="1" stroke="#000000" stroke-opacity="1" stroke-width="3.2"/>
<circle clip-path="url(#clip342)" cx="1718.95" cy="517.297" r="14" fill="#009af9" fill-rule="evenodd" fill-opacity="1" stroke="#000000" stroke-opacity="1" stroke-width="3.2"/>
<circle clip-path="url(#clip342)" cx="1336.67" cy="603.773" r="14" fill="#009af9" fill-rule="evenodd" fill-opacity="1" stroke="#000000" stroke-opacity="1" stroke-width="3.2"/>
<circle clip-path="url(#clip342)" cx="1821.86" cy="570.5" r="14" fill="#009af9" fill-rule="evenodd" fill-opacity="1" stroke="#000000" stroke-opacity="1" stroke-width="3.2"/>
<circle clip-path="url(#clip342)" cx="1506.31" cy="407.538" r="14" fill="#009af9" fill-rule="evenodd" fill-opacity="1" stroke="#000000" stroke-opacity="1" stroke-width="3.2"/>
<circle clip-path="url(#clip342)" cx="1533.15" cy="320.166" r="14" fill="#009af9" fill-rule="evenodd" fill-opacity="1" stroke="#000000" stroke-opacity="1" stroke-width="3.2"/>
<circle clip-path="url(#clip342)" cx="1389.08" cy="479.932" r="14" fill="#009af9" fill-rule="evenodd" fill-opacity="1" stroke="#000000" stroke-opacity="1" stroke-width="3.2"/>
<circle clip-path="url(#clip342)" cx="1153.09" cy="474.068" r="14" fill="#009af9" fill-rule="evenodd" fill-opacity="1" stroke="#000000" stroke-opacity="1" stroke-width="3.2"/>
<circle clip-path="url(#clip342)" cx="1834.12" cy="786.247" r="14" fill="#009af9" fill-rule="evenodd" fill-opacity="1" stroke="#000000" stroke-opacity="1" stroke-width="3.2"/>
<circle clip-path="url(#clip342)" cx="1507.89" cy="445.847" r="14" fill="#009af9" fill-rule="evenodd" fill-opacity="1" stroke="#000000" stroke-opacity="1" stroke-width="3.2"/>
<circle clip-path="url(#clip342)" cx="1627.46" cy="427.479" r="14" fill="#009af9" fill-rule="evenodd" fill-opacity="1" stroke="#000000" stroke-opacity="1" stroke-width="3.2"/>
<circle clip-path="url(#clip342)" cx="1437.18" cy="448.941" r="14" fill="#009af9" fill-rule="evenodd" fill-opacity="1" stroke="#000000" stroke-opacity="1" stroke-width="3.2"/>
<circle clip-path="url(#clip342)" cx="1569.57" cy="619.165" r="14" fill="#009af9" fill-rule="evenodd" fill-opacity="1" stroke="#000000" stroke-opacity="1" stroke-width="3.2"/>
<circle clip-path="url(#clip342)" cx="1214.35" cy="573.757" r="14" fill="#009af9" fill-rule="evenodd" fill-opacity="1" stroke="#000000" stroke-opacity="1" stroke-width="3.2"/>
<circle clip-path="url(#clip342)" cx="1961.88" cy="572.596" r="14" fill="#009af9" fill-rule="evenodd" fill-opacity="1" stroke="#000000" stroke-opacity="1" stroke-width="3.2"/>
<circle clip-path="url(#clip342)" cx="1987.67" cy="540.87" r="14" fill="#009af9" fill-rule="evenodd" fill-opacity="1" stroke="#000000" stroke-opacity="1" stroke-width="3.2"/>
<circle clip-path="url(#clip342)" cx="1606.05" cy="753.151" r="14" fill="#009af9" fill-rule="evenodd" fill-opacity="1" stroke="#000000" stroke-opacity="1" stroke-width="3.2"/>
<circle clip-path="url(#clip342)" cx="1458.65" cy="282.87" r="14" fill="#009af9" fill-rule="evenodd" fill-opacity="1" stroke="#000000" stroke-opacity="1" stroke-width="3.2"/>
<circle clip-path="url(#clip342)" cx="1491.61" cy="690.687" r="14" fill="#009af9" fill-rule="evenodd" fill-opacity="1" stroke="#000000" stroke-opacity="1" stroke-width="3.2"/>
<circle clip-path="url(#clip342)" cx="1520.61" cy="455.891" r="14" fill="#009af9" fill-rule="evenodd" fill-opacity="1" stroke="#000000" stroke-opacity="1" stroke-width="3.2"/>
<circle clip-path="url(#clip342)" cx="1716.13" cy="682.334" r="14" fill="#009af9" fill-rule="evenodd" fill-opacity="1" stroke="#000000" stroke-opacity="1" stroke-width="3.2"/>
<circle clip-path="url(#clip342)" cx="1174.59" cy="804.974" r="14" fill="#009af9" fill-rule="evenodd" fill-opacity="1" stroke="#000000" stroke-opacity="1" stroke-width="3.2"/>
<circle clip-path="url(#clip342)" cx="1535.68" cy="657.665" r="14" fill="#009af9" fill-rule="evenodd" fill-opacity="1" stroke="#000000" stroke-opacity="1" stroke-width="3.2"/>
<circle clip-path="url(#clip342)" cx="1015.41" cy="526.341" r="14" fill="#009af9" fill-rule="evenodd" fill-opacity="1" stroke="#000000" stroke-opacity="1" stroke-width="3.2"/>
<circle clip-path="url(#clip342)" cx="1475.96" cy="557.638" r="14" fill="#009af9" fill-rule="evenodd" fill-opacity="1" stroke="#000000" stroke-opacity="1" stroke-width="3.2"/>
<circle clip-path="url(#clip342)" cx="1947.27" cy="541.145" r="14" fill="#009af9" fill-rule="evenodd" fill-opacity="1" stroke="#000000" stroke-opacity="1" stroke-width="3.2"/>
<circle clip-path="url(#clip342)" cx="1380.68" cy="731.43" r="14" fill="#009af9" fill-rule="evenodd" fill-opacity="1" stroke="#000000" stroke-opacity="1" stroke-width="3.2"/>
<circle clip-path="url(#clip342)" cx="1610.26" cy="775.231" r="14" fill="#009af9" fill-rule="evenodd" fill-opacity="1" stroke="#000000" stroke-opacity="1" stroke-width="3.2"/>
<circle clip-path="url(#clip342)" cx="1575.18" cy="736.308" r="14" fill="#009af9" fill-rule="evenodd" fill-opacity="1" stroke="#000000" stroke-opacity="1" stroke-width="3.2"/>
<circle clip-path="url(#clip342)" cx="1551.95" cy="492.287" r="14" fill="#009af9" fill-rule="evenodd" fill-opacity="1" stroke="#000000" stroke-opacity="1" stroke-width="3.2"/>
<circle clip-path="url(#clip342)" cx="1262" cy="594.907" r="14" fill="#009af9" fill-rule="evenodd" fill-opacity="1" stroke="#000000" stroke-opacity="1" stroke-width="3.2"/>
<circle clip-path="url(#clip342)" cx="1892.88" cy="508.948" r="14" fill="#009af9" fill-rule="evenodd" fill-opacity="1" stroke="#000000" stroke-opacity="1" stroke-width="3.2"/>
<circle clip-path="url(#clip342)" cx="1268.58" cy="377.194" r="14" fill="#009af9" fill-rule="evenodd" fill-opacity="1" stroke="#000000" stroke-opacity="1" stroke-width="3.2"/>
<circle clip-path="url(#clip342)" cx="1401.79" cy="593.076" r="14" fill="#009af9" fill-rule="evenodd" fill-opacity="1" stroke="#000000" stroke-opacity="1" stroke-width="3.2"/>
<circle clip-path="url(#clip342)" cx="1367.18" cy="463.708" r="14" fill="#009af9" fill-rule="evenodd" fill-opacity="1" stroke="#000000" stroke-opacity="1" stroke-width="3.2"/>
<circle clip-path="url(#clip342)" cx="1399.83" cy="738.45" r="14" fill="#009af9" fill-rule="evenodd" fill-opacity="1" stroke="#000000" stroke-opacity="1" stroke-width="3.2"/>
<circle clip-path="url(#clip342)" cx="1696.87" cy="571.778" r="14" fill="#009af9" fill-rule="evenodd" fill-opacity="1" stroke="#000000" stroke-opacity="1" stroke-width="3.2"/>
<circle clip-path="url(#clip342)" cx="1994.03" cy="433.466" r="14" fill="#009af9" fill-rule="evenodd" fill-opacity="1" stroke="#000000" stroke-opacity="1" stroke-width="3.2"/>
<circle clip-path="url(#clip342)" cx="1931.81" cy="630.817" r="14" fill="#009af9" fill-rule="evenodd" fill-opacity="1" stroke="#000000" stroke-opacity="1" stroke-width="3.2"/>
<circle clip-path="url(#clip342)" cx="1545.45" cy="615.311" r="14" fill="#009af9" fill-rule="evenodd" fill-opacity="1" stroke="#000000" stroke-opacity="1" stroke-width="3.2"/>
<circle clip-path="url(#clip342)" cx="1757.86" cy="768.546" r="14" fill="#009af9" fill-rule="evenodd" fill-opacity="1" stroke="#000000" stroke-opacity="1" stroke-width="3.2"/>
<circle clip-path="url(#clip342)" cx="1624.63" cy="598.789" r="14" fill="#009af9" fill-rule="evenodd" fill-opacity="1" stroke="#000000" stroke-opacity="1" stroke-width="3.2"/>
<circle clip-path="url(#clip342)" cx="794.692" cy="1031.99" r="14" fill="#e26f46" fill-rule="evenodd" fill-opacity="1" stroke="#000000" stroke-opacity="1" stroke-width="3.2"/>
<circle clip-path="url(#clip342)" cx="738.333" cy="1109.42" r="14" fill="#e26f46" fill-rule="evenodd" fill-opacity="1" stroke="#000000" stroke-opacity="1" stroke-width="3.2"/>
<circle clip-path="url(#clip342)" cx="546.063" cy="1016.61" r="14" fill="#e26f46" fill-rule="evenodd" fill-opacity="1" stroke="#000000" stroke-opacity="1" stroke-width="3.2"/>
<circle clip-path="url(#clip342)" cx="715.192" cy="1053.08" r="14" fill="#e26f46" fill-rule="evenodd" fill-opacity="1" stroke="#000000" stroke-opacity="1" stroke-width="3.2"/>
<circle clip-path="url(#clip342)" cx="532.832" cy="1042.97" r="14" fill="#e26f46" fill-rule="evenodd" fill-opacity="1" stroke="#000000" stroke-opacity="1" stroke-width="3.2"/>
<circle clip-path="url(#clip342)" cx="681.341" cy="1051.98" r="14" fill="#e26f46" fill-rule="evenodd" fill-opacity="1" stroke="#000000" stroke-opacity="1" stroke-width="3.2"/>
<circle clip-path="url(#clip342)" cx="866.21" cy="1207.21" r="14" fill="#e26f46" fill-rule="evenodd" fill-opacity="1" stroke="#000000" stroke-opacity="1" stroke-width="3.2"/>
<circle clip-path="url(#clip342)" cx="669.013" cy="1176.97" r="14" fill="#e26f46" fill-rule="evenodd" fill-opacity="1" stroke="#000000" stroke-opacity="1" stroke-width="3.2"/>
<circle clip-path="url(#clip342)" cx="754.251" cy="1010.03" r="14" fill="#e26f46" fill-rule="evenodd" fill-opacity="1" stroke="#000000" stroke-opacity="1" stroke-width="3.2"/>
<circle clip-path="url(#clip342)" cx="918.396" cy="1255.37" r="14" fill="#e26f46" fill-rule="evenodd" fill-opacity="1" stroke="#000000" stroke-opacity="1" stroke-width="3.2"/>
<circle clip-path="url(#clip342)" cx="821.2" cy="1139.89" r="14" fill="#e26f46" fill-rule="evenodd" fill-opacity="1" stroke="#000000" stroke-opacity="1" stroke-width="3.2"/>
<circle clip-path="url(#clip342)" cx="902.198" cy="1128.72" r="14" fill="#e26f46" fill-rule="evenodd" fill-opacity="1" stroke="#000000" stroke-opacity="1" stroke-width="3.2"/>
<circle clip-path="url(#clip342)" cx="704.545" cy="1030.76" r="14" fill="#e26f46" fill-rule="evenodd" fill-opacity="1" stroke="#000000" stroke-opacity="1" stroke-width="3.2"/>
<circle clip-path="url(#clip342)" cx="707.638" cy="980.931" r="14" fill="#e26f46" fill-rule="evenodd" fill-opacity="1" stroke="#000000" stroke-opacity="1" stroke-width="3.2"/>
<circle clip-path="url(#clip342)" cx="1082.88" cy="1347.52" r="14" fill="#e26f46" fill-rule="evenodd" fill-opacity="1" stroke="#000000" stroke-opacity="1" stroke-width="3.2"/>
<circle clip-path="url(#clip342)" cx="711.113" cy="1062.58" r="14" fill="#e26f46" fill-rule="evenodd" fill-opacity="1" stroke="#000000" stroke-opacity="1" stroke-width="3.2"/>
<circle clip-path="url(#clip342)" cx="833.813" cy="1168.47" r="14" fill="#e26f46" fill-rule="evenodd" fill-opacity="1" stroke="#000000" stroke-opacity="1" stroke-width="3.2"/>
<circle clip-path="url(#clip342)" cx="904.837" cy="1226.92" r="14" fill="#e26f46" fill-rule="evenodd" fill-opacity="1" stroke="#000000" stroke-opacity="1" stroke-width="3.2"/>
<circle clip-path="url(#clip342)" cx="747.057" cy="1152.14" r="14" fill="#e26f46" fill-rule="evenodd" fill-opacity="1" stroke="#000000" stroke-opacity="1" stroke-width="3.2"/>
<circle clip-path="url(#clip342)" cx="773.788" cy="1124.13" r="14" fill="#e26f46" fill-rule="evenodd" fill-opacity="1" stroke="#000000" stroke-opacity="1" stroke-width="3.2"/>
<circle clip-path="url(#clip342)" cx="823.376" cy="1139.84" r="14" fill="#e26f46" fill-rule="evenodd" fill-opacity="1" stroke="#000000" stroke-opacity="1" stroke-width="3.2"/>
<circle clip-path="url(#clip342)" cx="716.323" cy="1151.89" r="14" fill="#e26f46" fill-rule="evenodd" fill-opacity="1" stroke="#000000" stroke-opacity="1" stroke-width="3.2"/>
<circle clip-path="url(#clip342)" cx="904.539" cy="1110.73" r="14" fill="#e26f46" fill-rule="evenodd" fill-opacity="1" stroke="#000000" stroke-opacity="1" stroke-width="3.2"/>
<circle clip-path="url(#clip342)" cx="529.541" cy="1008.97" r="14" fill="#e26f46" fill-rule="evenodd" fill-opacity="1" stroke="#000000" stroke-opacity="1" stroke-width="3.2"/>
<circle clip-path="url(#clip342)" cx="795.923" cy="1136.36" r="14" fill="#e26f46" fill-rule="evenodd" fill-opacity="1" stroke="#000000" stroke-opacity="1" stroke-width="3.2"/>
<circle clip-path="url(#clip342)" cx="701.145" cy="1255.62" r="14" fill="#e26f46" fill-rule="evenodd" fill-opacity="1" stroke="#000000" stroke-opacity="1" stroke-width="3.2"/>
<circle clip-path="url(#clip342)" cx="627.847" cy="1093.63" r="14" fill="#e26f46" fill-rule="evenodd" fill-opacity="1" stroke="#000000" stroke-opacity="1" stroke-width="3.2"/>
<circle clip-path="url(#clip342)" cx="525.619" cy="1016.75" r="14" fill="#e26f46" fill-rule="evenodd" fill-opacity="1" stroke="#000000" stroke-opacity="1" stroke-width="3.2"/>
<circle clip-path="url(#clip342)" cx="558.067" cy="995.767" r="14" fill="#e26f46" fill-rule="evenodd" fill-opacity="1" stroke="#000000" stroke-opacity="1" stroke-width="3.2"/>
<circle clip-path="url(#clip342)" cx="457.06" cy="849.619" r="14" fill="#e26f46" fill-rule="evenodd" fill-opacity="1" stroke="#000000" stroke-opacity="1" stroke-width="3.2"/>
<circle clip-path="url(#clip342)" cx="829.686" cy="1212.02" r="14" fill="#e26f46" fill-rule="evenodd" fill-opacity="1" stroke="#000000" stroke-opacity="1" stroke-width="3.2"/>
<circle clip-path="url(#clip342)" cx="858.751" cy="1245.49" r="14" fill="#e26f46" fill-rule="evenodd" fill-opacity="1" stroke="#000000" stroke-opacity="1" stroke-width="3.2"/>
<circle clip-path="url(#clip342)" cx="336.644" cy="973.714" r="14" fill="#e26f46" fill-rule="evenodd" fill-opacity="1" stroke="#000000" stroke-opacity="1" stroke-width="3.2"/>
<circle clip-path="url(#clip342)" cx="722.197" cy="1029.75" r="14" fill="#e26f46" fill-rule="evenodd" fill-opacity="1" stroke="#000000" stroke-opacity="1" stroke-width="3.2"/>
<circle clip-path="url(#clip342)" cx="917.631" cy="1246.62" r="14" fill="#e26f46" fill-rule="evenodd" fill-opacity="1" stroke="#000000" stroke-opacity="1" stroke-width="3.2"/>
<circle clip-path="url(#clip342)" cx="341.135" cy="810.462" r="14" fill="#e26f46" fill-rule="evenodd" fill-opacity="1" stroke="#000000" stroke-opacity="1" stroke-width="3.2"/>
<circle clip-path="url(#clip342)" cx="880.839" cy="1010.93" r="14" fill="#e26f46" fill-rule="evenodd" fill-opacity="1" stroke="#000000" stroke-opacity="1" stroke-width="3.2"/>
<circle clip-path="url(#clip342)" cx="876.896" cy="1230.83" r="14" fill="#e26f46" fill-rule="evenodd" fill-opacity="1" stroke="#000000" stroke-opacity="1" stroke-width="3.2"/>
<circle clip-path="url(#clip342)" cx="484.086" cy="828.652" r="14" fill="#e26f46" fill-rule="evenodd" fill-opacity="1" stroke="#000000" stroke-opacity="1" stroke-width="3.2"/>
<circle clip-path="url(#clip342)" cx="579.645" cy="1021.2" r="14" fill="#e26f46" fill-rule="evenodd" fill-opacity="1" stroke="#000000" stroke-opacity="1" stroke-width="3.2"/>
<circle clip-path="url(#clip342)" cx="823.757" cy="1126.76" r="14" fill="#e26f46" fill-rule="evenodd" fill-opacity="1" stroke="#000000" stroke-opacity="1" stroke-width="3.2"/>
<circle clip-path="url(#clip342)" cx="806.433" cy="1116.01" r="14" fill="#e26f46" fill-rule="evenodd" fill-opacity="1" stroke="#000000" stroke-opacity="1" stroke-width="3.2"/>
<circle clip-path="url(#clip342)" cx="864.865" cy="1059.69" r="14" fill="#e26f46" fill-rule="evenodd" fill-opacity="1" stroke="#000000" stroke-opacity="1" stroke-width="3.2"/>
<circle clip-path="url(#clip342)" cx="902.967" cy="1221.48" r="14" fill="#e26f46" fill-rule="evenodd" fill-opacity="1" stroke="#000000" stroke-opacity="1" stroke-width="3.2"/>
<circle clip-path="url(#clip342)" cx="648.251" cy="1121.4" r="14" fill="#e26f46" fill-rule="evenodd" fill-opacity="1" stroke="#000000" stroke-opacity="1" stroke-width="3.2"/>
<circle clip-path="url(#clip342)" cx="803.164" cy="1111.84" r="14" fill="#e26f46" fill-rule="evenodd" fill-opacity="1" stroke="#000000" stroke-opacity="1" stroke-width="3.2"/>
<circle clip-path="url(#clip342)" cx="561.53" cy="996.326" r="14" fill="#e26f46" fill-rule="evenodd" fill-opacity="1" stroke="#000000" stroke-opacity="1" stroke-width="3.2"/>
<circle clip-path="url(#clip342)" cx="537.897" cy="963.351" r="14" fill="#e26f46" fill-rule="evenodd" fill-opacity="1" stroke="#000000" stroke-opacity="1" stroke-width="3.2"/>
<circle clip-path="url(#clip342)" cx="623.115" cy="996.885" r="14" fill="#e26f46" fill-rule="evenodd" fill-opacity="1" stroke="#000000" stroke-opacity="1" stroke-width="3.2"/>
<circle clip-path="url(#clip342)" cx="715.274" cy="1171.26" r="14" fill="#e26f46" fill-rule="evenodd" fill-opacity="1" stroke="#000000" stroke-opacity="1" stroke-width="3.2"/>
<circle clip-path="url(#clip342)" cx="811.62" cy="1134.81" r="14" fill="#e26f46" fill-rule="evenodd" fill-opacity="1" stroke="#000000" stroke-opacity="1" stroke-width="3.2"/>
<circle clip-path="url(#clip342)" cx="707.047" cy="999.029" r="14" fill="#e26f46" fill-rule="evenodd" fill-opacity="1" stroke="#000000" stroke-opacity="1" stroke-width="3.2"/>
<circle clip-path="url(#clip342)" cx="725.937" cy="1108.84" r="14" fill="#e26f46" fill-rule="evenodd" fill-opacity="1" stroke="#000000" stroke-opacity="1" stroke-width="3.2"/>
<circle clip-path="url(#clip342)" cx="649.168" cy="1141.58" r="14" fill="#e26f46" fill-rule="evenodd" fill-opacity="1" stroke="#000000" stroke-opacity="1" stroke-width="3.2"/>
<circle clip-path="url(#clip342)" cx="1004.91" cy="1085.19" r="14" fill="#e26f46" fill-rule="evenodd" fill-opacity="1" stroke="#000000" stroke-opacity="1" stroke-width="3.2"/>
<circle clip-path="url(#clip342)" cx="1010.64" cy="1239.72" r="14" fill="#e26f46" fill-rule="evenodd" fill-opacity="1" stroke="#000000" stroke-opacity="1" stroke-width="3.2"/>
<circle clip-path="url(#clip342)" cx="525.925" cy="942.364" r="14" fill="#e26f46" fill-rule="evenodd" fill-opacity="1" stroke="#000000" stroke-opacity="1" stroke-width="3.2"/>
<circle clip-path="url(#clip342)" cx="1150.38" cy="1302.11" r="14" fill="#e26f46" fill-rule="evenodd" fill-opacity="1" stroke="#000000" stroke-opacity="1" stroke-width="3.2"/>
<circle clip-path="url(#clip342)" cx="976.204" cy="1317.73" r="14" fill="#e26f46" fill-rule="evenodd" fill-opacity="1" stroke="#000000" stroke-opacity="1" stroke-width="3.2"/>
<circle clip-path="url(#clip342)" cx="575.447" cy="977.608" r="14" fill="#e26f46" fill-rule="evenodd" fill-opacity="1" stroke="#000000" stroke-opacity="1" stroke-width="3.2"/>
<circle clip-path="url(#clip342)" cx="838.208" cy="1262.51" r="14" fill="#e26f46" fill-rule="evenodd" fill-opacity="1" stroke="#000000" stroke-opacity="1" stroke-width="3.2"/>
<circle clip-path="url(#clip342)" cx="934.326" cy="1243.67" r="14" fill="#e26f46" fill-rule="evenodd" fill-opacity="1" stroke="#000000" stroke-opacity="1" stroke-width="3.2"/>
<circle clip-path="url(#clip342)" cx="693.057" cy="1090.12" r="14" fill="#e26f46" fill-rule="evenodd" fill-opacity="1" stroke="#000000" stroke-opacity="1" stroke-width="3.2"/>
<circle clip-path="url(#clip342)" cx="423.255" cy="986.785" r="14" fill="#e26f46" fill-rule="evenodd" fill-opacity="1" stroke="#000000" stroke-opacity="1" stroke-width="3.2"/>
<circle clip-path="url(#clip342)" cx="980.594" cy="1292.62" r="14" fill="#e26f46" fill-rule="evenodd" fill-opacity="1" stroke="#000000" stroke-opacity="1" stroke-width="3.2"/>
<circle clip-path="url(#clip342)" cx="982.257" cy="1183.3" r="14" fill="#e26f46" fill-rule="evenodd" fill-opacity="1" stroke="#000000" stroke-opacity="1" stroke-width="3.2"/>
<circle clip-path="url(#clip342)" cx="757.284" cy="1090.19" r="14" fill="#e26f46" fill-rule="evenodd" fill-opacity="1" stroke="#000000" stroke-opacity="1" stroke-width="3.2"/>
<circle clip-path="url(#clip342)" cx="512.569" cy="989.961" r="14" fill="#e26f46" fill-rule="evenodd" fill-opacity="1" stroke="#000000" stroke-opacity="1" stroke-width="3.2"/>
<circle clip-path="url(#clip342)" cx="634.06" cy="1035.43" r="14" fill="#e26f46" fill-rule="evenodd" fill-opacity="1" stroke="#000000" stroke-opacity="1" stroke-width="3.2"/>
<circle clip-path="url(#clip342)" cx="696.07" cy="1082.12" r="14" fill="#e26f46" fill-rule="evenodd" fill-opacity="1" stroke="#000000" stroke-opacity="1" stroke-width="3.2"/>
<circle clip-path="url(#clip342)" cx="633.446" cy="1019.19" r="14" fill="#e26f46" fill-rule="evenodd" fill-opacity="1" stroke="#000000" stroke-opacity="1" stroke-width="3.2"/>
<circle clip-path="url(#clip342)" cx="632.76" cy="1051.51" r="14" fill="#e26f46" fill-rule="evenodd" fill-opacity="1" stroke="#000000" stroke-opacity="1" stroke-width="3.2"/>
<circle clip-path="url(#clip342)" cx="676.974" cy="1144.24" r="14" fill="#e26f46" fill-rule="evenodd" fill-opacity="1" stroke="#000000" stroke-opacity="1" stroke-width="3.2"/>
<circle clip-path="url(#clip342)" cx="524.968" cy="971.61" r="14" fill="#e26f46" fill-rule="evenodd" fill-opacity="1" stroke="#000000" stroke-opacity="1" stroke-width="3.2"/>
<circle clip-path="url(#clip342)" cx="708.625" cy="1144.82" r="14" fill="#e26f46" fill-rule="evenodd" fill-opacity="1" stroke="#000000" stroke-opacity="1" stroke-width="3.2"/>
<circle clip-path="url(#clip342)" cx="726.61" cy="1063.84" r="14" fill="#e26f46" fill-rule="evenodd" fill-opacity="1" stroke="#000000" stroke-opacity="1" stroke-width="3.2"/>
<circle clip-path="url(#clip342)" cx="737.944" cy="1074.88" r="14" fill="#e26f46" fill-rule="evenodd" fill-opacity="1" stroke="#000000" stroke-opacity="1" stroke-width="3.2"/>
<circle clip-path="url(#clip342)" cx="720.783" cy="1042.31" r="14" fill="#e26f46" fill-rule="evenodd" fill-opacity="1" stroke="#000000" stroke-opacity="1" stroke-width="3.2"/>
<circle clip-path="url(#clip342)" cx="856.013" cy="1103.85" r="14" fill="#e26f46" fill-rule="evenodd" fill-opacity="1" stroke="#000000" stroke-opacity="1" stroke-width="3.2"/>
<circle clip-path="url(#clip342)" cx="672.932" cy="1061.65" r="14" fill="#e26f46" fill-rule="evenodd" fill-opacity="1" stroke="#000000" stroke-opacity="1" stroke-width="3.2"/>
<circle clip-path="url(#clip342)" cx="818.259" cy="1089.23" r="14" fill="#e26f46" fill-rule="evenodd" fill-opacity="1" stroke="#000000" stroke-opacity="1" stroke-width="3.2"/>
<circle clip-path="url(#clip342)" cx="578.708" cy="1085.19" r="14" fill="#e26f46" fill-rule="evenodd" fill-opacity="1" stroke="#000000" stroke-opacity="1" stroke-width="3.2"/>
<circle clip-path="url(#clip342)" cx="577.534" cy="1068.46" r="14" fill="#e26f46" fill-rule="evenodd" fill-opacity="1" stroke="#000000" stroke-opacity="1" stroke-width="3.2"/>
<circle clip-path="url(#clip342)" cx="669.293" cy="1119.12" r="14" fill="#e26f46" fill-rule="evenodd" fill-opacity="1" stroke="#000000" stroke-opacity="1" stroke-width="3.2"/>
<circle clip-path="url(#clip342)" cx="599.842" cy="1011.76" r="14" fill="#e26f46" fill-rule="evenodd" fill-opacity="1" stroke="#000000" stroke-opacity="1" stroke-width="3.2"/>
<circle clip-path="url(#clip342)" cx="728.44" cy="1006.53" r="14" fill="#e26f46" fill-rule="evenodd" fill-opacity="1" stroke="#000000" stroke-opacity="1" stroke-width="3.2"/>
<circle clip-path="url(#clip342)" cx="784.953" cy="1081.73" r="14" fill="#e26f46" fill-rule="evenodd" fill-opacity="1" stroke="#000000" stroke-opacity="1" stroke-width="3.2"/>
<circle clip-path="url(#clip342)" cx="612.041" cy="1058.63" r="14" fill="#e26f46" fill-rule="evenodd" fill-opacity="1" stroke="#000000" stroke-opacity="1" stroke-width="3.2"/>
<circle clip-path="url(#clip342)" cx="850.26" cy="1207.67" r="14" fill="#e26f46" fill-rule="evenodd" fill-opacity="1" stroke="#000000" stroke-opacity="1" stroke-width="3.2"/>
<circle clip-path="url(#clip342)" cx="710.31" cy="1108.75" r="14" fill="#e26f46" fill-rule="evenodd" fill-opacity="1" stroke="#000000" stroke-opacity="1" stroke-width="3.2"/>
<circle clip-path="url(#clip342)" cx="782.106" cy="1156.25" r="14" fill="#e26f46" fill-rule="evenodd" fill-opacity="1" stroke="#000000" stroke-opacity="1" stroke-width="3.2"/>
<circle clip-path="url(#clip342)" cx="637.883" cy="1049.12" r="14" fill="#e26f46" fill-rule="evenodd" fill-opacity="1" stroke="#000000" stroke-opacity="1" stroke-width="3.2"/>
<circle clip-path="url(#clip342)" cx="796.866" cy="1030.36" r="14" fill="#e26f46" fill-rule="evenodd" fill-opacity="1" stroke="#000000" stroke-opacity="1" stroke-width="3.2"/>
<circle clip-path="url(#clip342)" cx="846.63" cy="1201.33" r="14" fill="#e26f46" fill-rule="evenodd" fill-opacity="1" stroke="#000000" stroke-opacity="1" stroke-width="3.2"/>
<circle clip-path="url(#clip342)" cx="693.514" cy="1111.3" r="14" fill="#e26f46" fill-rule="evenodd" fill-opacity="1" stroke="#000000" stroke-opacity="1" stroke-width="3.2"/>
<circle clip-path="url(#clip342)" cx="965.602" cy="1155.02" r="14" fill="#e26f46" fill-rule="evenodd" fill-opacity="1" stroke="#000000" stroke-opacity="1" stroke-width="3.2"/>
<circle clip-path="url(#clip342)" cx="948.07" cy="1061.97" r="14" fill="#e26f46" fill-rule="evenodd" fill-opacity="1" stroke="#000000" stroke-opacity="1" stroke-width="3.2"/>
<circle clip-path="url(#clip342)" cx="653.37" cy="1030.41" r="14" fill="#e26f46" fill-rule="evenodd" fill-opacity="1" stroke="#000000" stroke-opacity="1" stroke-width="3.2"/>
<circle clip-path="url(#clip342)" cx="851.181" cy="1184.24" r="14" fill="#e26f46" fill-rule="evenodd" fill-opacity="1" stroke="#000000" stroke-opacity="1" stroke-width="3.2"/>
<circle clip-path="url(#clip342)" cx="735.135" cy="1184.48" r="14" fill="#e26f46" fill-rule="evenodd" fill-opacity="1" stroke="#000000" stroke-opacity="1" stroke-width="3.2"/>
<polyline clip-path="url(#clip342)" style="stroke:#090621; stroke-linecap:butt; stroke-linejoin:round; stroke-width:4; stroke-opacity:1; fill:none" points="
  1502.65,1317.12 1501.12,1315.92 1489.05,1306.5 1485.94,1304.07 1475.42,1295.88 1470.76,1292.24 1461.79,1285.26 1455.58,1280.43 1448.13,1274.65 1440.4,1268.63 
  1434.47,1264.03 1425.22,1256.85 1420.78,1253.41 1410.04,1245.08 1407.08,1242.79 1394.86,1233.32 1393.37,1232.17 1379.68,1221.59 1379.63,1221.56 1365.85,1210.94 
  1364.49,1209.89 1352.05,1200.32 1349.31,1198.21 1338.24,1189.7 1334.13,1186.55 1324.4,1179.08 1318.95,1174.9 1310.55,1168.47 1303.77,1163.27 1296.69,1157.85 
  1288.59,1151.65 1282.8,1147.23 1273.41,1140.05 1268.9,1136.61 1258.23,1128.46 1254.99,1125.99 1243.05,1116.89 1241.05,1115.38 1227.87,1105.34 1227.1,1104.76 
  1213.12,1094.14 1212.69,1093.81 1199.11,1083.52 1197.5,1082.31 1185.07,1072.9 1182.32,1070.82 1171.02,1062.29 1167.14,1059.35 1156.95,1051.67 1151.96,1047.9 
  1142.87,1041.05 1136.78,1036.46 1128.76,1030.43 1121.6,1025.04 1114.64,1019.82 1106.42,1013.64 1100.5,1009.2 1091.24,1002.25 1086.34,998.579 1076.06,990.875 
  1072.16,987.961 1060.88,979.519 1057.96,977.344 1045.7,968.178 1043.75,966.726 1030.51,956.855 1029.51,956.108 1015.33,945.547 1015.26,945.49 1000.96,934.872 
  1000.15,934.27 986.646,924.254 984.971,923.011 972.311,913.636 969.79,911.767 957.957,903.018 954.609,900.54 943.583,892.4 939.428,889.329 929.19,881.782 
  924.248,878.135 914.776,871.164 909.067,866.957 900.343,860.546 893.886,855.796 885.889,849.928 878.705,844.651 871.415,839.311 863.524,833.523 856.92,828.693 
  848.343,822.411 842.405,818.075 833.162,811.316 827.869,807.457 817.981,800.238 813.312,796.839 802.8,789.177 798.733,786.221 787.619,778.133 784.133,775.603 
  772.438,767.105 769.512,764.985 757.257,756.095 754.869,754.367 742.076,745.102 740.204,743.749 726.895,734.126 725.517,733.131 711.714,723.167 710.807,722.513 
  696.533,712.225 696.075,711.896 681.353,701.3 681.321,701.278 666.534,690.66 666.172,690.399 651.724,680.042 650.991,679.516 636.891,669.424 635.81,668.649 
  622.035,658.806 620.629,657.8 607.157,648.188 605.448,646.967 592.255,637.57 590.267,636.153 577.329,626.952 575.086,625.355 562.38,616.334 559.905,614.575 
  547.408,605.716 544.724,603.812 532.411,595.098 529.543,593.067 517.39,584.48 514.362,582.339 502.345,573.863 499.181,571.629 487.275,563.245 484,560.936 
  472.181,552.627 468.819,550.261 457.061,542.009 453.638,539.604 441.916,531.391 438.457,528.965 
  "/>
<polyline clip-path="url(#clip342)" style="stroke:#1f0c47; stroke-linecap:butt; stroke-linejoin:round; stroke-width:4; stroke-opacity:1; fill:none" points="
  438.457,334.874 446.047,340.268 453.638,345.66 460.983,350.886 468.819,356.458 475.902,361.504 484,367.269 490.805,372.122 499.181,378.091 505.691,382.74 
  514.362,388.926 520.561,393.358 529.543,399.774 535.414,403.976 544.724,410.633 550.251,414.594 559.905,421.505 565.072,425.212 575.086,432.389 579.877,435.83 
  590.267,443.285 594.666,446.447 605.448,454.193 609.438,457.065 620.629,465.114 624.195,467.683 635.81,476.046 638.936,478.301 650.991,486.99 653.662,488.919 
  666.172,497.947 668.372,499.537 681.353,508.915 683.066,510.155 696.533,519.895 697.745,520.773 711.714,530.887 712.409,531.391 726.895,541.891 727.057,542.009 
  741.683,552.627 742.076,552.912 756.291,563.245 757.257,563.946 770.884,573.863 772.438,574.993 785.462,584.48 787.619,586.051 800.024,595.098 802.8,597.121 
  814.572,605.716 817.981,608.203 829.105,616.334 833.162,619.298 843.623,626.952 848.343,630.403 858.126,637.57 863.524,641.521 872.615,648.188 878.705,652.651 
  887.089,658.806 893.886,663.792 901.548,669.424 909.067,674.945 915.994,680.042 924.248,686.11 930.425,690.66 939.428,697.286 944.842,701.278 954.609,708.474 
  959.244,711.896 969.79,719.674 973.633,722.513 984.971,730.885 988.008,733.131 1000.15,742.108 1002.37,743.749 1015.33,753.342 1016.72,754.367 1030.51,764.588 
  1031.05,764.985 1045.36,775.603 1045.7,775.85 1059.65,786.221 1060.88,787.129 1073.93,796.839 1076.06,798.42 1088.19,807.457 1091.24,809.723 1102.44,818.075 
  1106.42,821.037 1116.68,828.693 1121.6,832.363 1130.9,839.311 1136.78,843.7 1145.11,849.928 1151.96,855.049 1159.31,860.546 1167.14,866.409 1173.49,871.164 
  1182.32,877.781 1187.66,881.782 1197.5,889.164 1201.81,892.4 1212.69,900.558 1215.96,903.018 1227.87,911.964 1230.09,913.636 1243.05,923.381 1244.21,924.254 
  1258.23,934.809 1258.31,934.872 1272.39,945.49 1273.41,946.261 1286.45,956.108 1288.59,957.725 1300.49,966.726 1303.77,969.201 1314.53,977.344 1318.95,980.688 
  1328.55,987.961 1334.13,992.187 1342.56,998.579 1349.31,1003.7 1356.56,1009.2 1364.49,1015.22 1370.54,1019.82 1379.68,1026.75 1384.52,1030.43 1394.86,1038.29 
  1398.48,1041.05 1410.04,1049.85 1412.43,1051.67 1425.22,1061.41 1426.36,1062.29 1440.29,1072.9 1440.4,1072.99 1454.18,1083.52 1455.58,1084.6 1468.05,1094.14 
  1470.76,1096.21 1481.92,1104.76 1485.94,1107.84 1495.77,1115.38 1501.12,1119.47 1509.62,1125.99 1516.3,1131.12 1523.45,1136.61 1531.49,1142.78 1537.27,1147.23 
  1546.67,1154.45 1551.07,1157.85 1561.85,1166.14 1564.87,1168.47 1577.03,1177.83 1578.65,1179.08 1592.21,1189.53 1592.43,1189.7 1606.17,1200.32 1607.39,1201.26 
  1619.89,1210.94 1622.57,1213.01 1633.61,1221.56 1637.75,1224.76 1647.31,1232.17 1652.93,1236.53 1661,1242.79 1668.11,1248.31 1674.68,1253.41 1683.29,1260.1 
  1688.35,1264.03 1698.48,1271.9 1702.01,1274.65 1713.66,1283.71 1715.65,1285.26 1728.84,1295.53 1729.29,1295.88 1742.89,1306.5 1744.02,1307.38 1756.48,1317.12 
  
  "/>
<polyline clip-path="url(#clip342)" style="stroke:#3b0964; stroke-linecap:butt; stroke-linejoin:round; stroke-width:4; stroke-opacity:1; fill:none" points="
  1951.24,1317.12 1941.37,1309.4 1937.65,1306.5 1926.19,1297.55 1924.05,1295.88 1911.01,1285.71 1910.43,1285.26 1896.8,1274.65 1895.83,1273.89 1883.15,1264.03 
  1880.65,1262.08 1869.49,1253.41 1865.47,1250.28 1855.82,1242.79 1850.28,1238.49 1842.14,1232.17 1835.1,1226.71 1828.45,1221.56 1819.92,1214.94 1814.75,1210.94 
  1804.74,1203.18 1801.04,1200.32 1789.56,1191.43 1787.33,1189.7 1774.38,1179.68 1773.6,1179.08 1759.86,1168.47 1759.2,1167.96 1746.1,1157.85 1744.02,1156.24 
  1732.32,1147.23 1728.84,1144.54 1718.54,1136.61 1713.66,1132.85 1704.75,1125.99 1698.48,1121.17 1690.94,1115.38 1683.29,1109.49 1677.13,1104.76 1668.11,1097.83 
  1663.31,1094.14 1652.93,1086.17 1649.48,1083.52 1637.75,1074.52 1635.64,1072.9 1622.57,1062.88 1621.79,1062.29 1607.93,1051.67 1607.39,1051.26 1594.04,1041.05 
  1592.21,1039.65 1580.14,1030.43 1577.03,1028.05 1566.23,1019.82 1561.85,1016.47 1552.31,1009.2 1546.67,1004.89 1538.39,998.579 1531.49,993.317 1524.45,987.961 
  1516.3,981.755 1510.5,977.344 1501.12,970.203 1496.55,966.726 1485.94,958.661 1482.58,956.108 1470.76,947.127 1468.6,945.49 1455.58,935.603 1454.62,934.872 
  1440.62,924.254 1440.4,924.09 1426.59,913.636 1425.22,912.596 1412.56,903.018 1410.04,901.111 1398.51,892.4 1394.86,889.635 1384.46,881.782 1379.68,878.168 
  1370.39,871.164 1364.49,866.711 1356.32,860.546 1349.31,855.263 1342.23,849.928 1334.13,843.824 1328.14,839.311 1318.95,832.395 1314.03,828.693 1303.77,820.974 
  1299.91,818.075 1288.59,809.563 1285.78,807.457 1273.41,798.162 1271.65,796.839 1258.23,786.769 1257.5,786.221 1243.33,775.603 1243.05,775.389 1229.15,764.985 
  1227.87,764.026 1214.95,754.367 1212.69,752.671 1200.75,743.749 1197.5,741.326 1186.53,733.131 1182.32,729.991 1172.3,722.513 1167.14,718.664 1158.06,711.896 
  1151.96,707.347 1143.81,701.278 1136.78,696.04 1129.55,690.66 1121.6,684.741 1115.28,680.042 1106.42,673.453 1100.99,669.424 1091.24,662.173 1086.7,658.806 
  1076.06,650.903 1072.39,648.188 1060.88,639.643 1058.08,637.57 1045.7,628.392 1043.75,626.952 1030.51,617.15 1029.41,616.334 1015.33,605.918 1015.06,605.716 
  1000.69,595.098 1000.15,594.701 986.304,584.48 984.971,583.496 971.907,573.863 969.79,572.301 957.498,563.245 954.609,561.115 943.079,552.627 939.428,549.938 
  928.647,542.009 924.248,538.771 914.204,531.391 909.067,527.614 899.749,520.773 893.886,516.466 885.282,510.155 878.705,505.327 870.804,499.537 863.524,494.198 
  856.314,488.919 848.343,483.079 841.812,478.301 833.162,471.969 827.298,467.683 817.981,460.87 812.772,457.065 802.8,449.779 798.233,446.447 787.619,438.699 
  783.683,435.83 772.438,427.628 769.121,425.212 757.257,416.567 754.546,414.594 742.076,405.515 739.959,403.976 726.895,394.473 725.36,393.358 711.714,383.441 
  710.748,382.74 696.533,372.419 696.123,372.122 681.485,361.504 681.353,361.408 666.827,350.886 666.172,350.411 652.158,340.268 650.991,339.423 637.475,329.65 
  635.81,328.445 622.781,319.032 620.629,317.477 608.073,308.415 605.448,306.518 593.353,297.797 590.267,295.57 578.62,287.179 575.086,284.631 563.874,276.561 
  559.905,273.702 549.115,265.943 544.724,262.783 534.344,255.325 
  "/>
<polyline clip-path="url(#clip342)" style="stroke:#550f6d; stroke-linecap:butt; stroke-linejoin:round; stroke-width:4; stroke-opacity:1; fill:none" points="
  706.41,255.325 711.714,259.179 721.01,265.943 726.895,270.223 735.599,276.561 742.076,281.275 750.177,287.179 757.257,292.336 764.745,297.797 772.438,303.405 
  779.302,308.415 787.619,314.482 793.849,319.032 802.8,325.568 808.385,329.65 817.981,336.662 822.911,340.268 833.162,347.764 837.426,350.886 848.343,358.875 
  851.931,361.504 863.524,369.994 866.426,372.122 878.705,381.121 880.911,382.74 893.886,392.256 895.385,393.358 909.067,403.4 909.85,403.976 924.248,414.552 
  924.304,414.594 938.739,425.212 939.428,425.718 953.164,435.83 954.609,436.893 967.578,446.447 969.79,448.076 981.982,457.065 984.971,459.268 996.377,467.683 
  1000.15,470.468 1010.76,478.301 1015.33,481.676 1025.14,488.919 1030.51,492.892 1039.5,499.537 1045.7,504.116 1053.85,510.155 1060.88,515.349 1068.2,520.773 
  1076.06,526.59 1082.53,531.391 1091.24,537.839 1096.86,542.009 1106.42,549.096 1111.18,552.627 1121.6,560.361 1125.48,563.245 1136.78,571.635 1139.78,573.863 
  1151.96,582.916 1154.06,584.48 1167.14,594.206 1168.34,595.098 1182.32,605.504 1182.61,605.716 1196.86,616.334 1197.5,616.815 1211.1,626.952 1212.69,628.138 
  1225.32,637.57 1227.87,639.468 1239.54,648.188 1243.05,650.806 1253.75,658.806 1258.23,662.153 1267.95,669.424 1273.41,673.507 1282.14,680.042 1288.59,684.87 
  1296.32,690.66 1303.77,696.241 1310.49,701.278 1318.95,707.619 1324.65,711.896 1334.13,719.006 1338.8,722.513 1349.31,730.401 1352.95,733.131 1364.49,741.804 
  1367.08,743.749 1379.68,753.215 1381.21,754.367 1394.86,764.634 1395.32,764.985 1409.42,775.603 1410.04,776.067 1423.51,786.221 1425.22,787.511 1437.58,796.839 
  1440.4,798.963 1451.65,807.457 1455.58,810.424 1465.71,818.075 1470.76,821.892 1479.75,828.693 1485.94,833.369 1493.79,839.311 1501.12,844.853 1507.83,849.928 
  1516.3,856.346 1521.85,860.546 1531.49,867.846 1535.86,871.164 1546.67,879.355 1549.86,881.782 1561.85,890.871 1563.86,892.4 1577.03,902.395 1577.85,903.018 
  1591.82,913.636 1592.21,913.931 1605.78,924.254 1607.39,925.481 1619.72,934.872 1622.57,937.04 1633.66,945.49 1637.75,948.607 1647.59,956.108 1652.93,960.181 
  1661.51,966.726 1668.11,971.764 1675.42,977.344 1683.29,983.355 1689.32,987.961 1698.48,994.953 1703.22,998.579 1713.66,1006.56 1717.1,1009.2 1728.84,1018.17 
  1730.98,1019.82 1744.02,1029.8 1744.85,1030.43 1758.71,1041.05 1759.2,1041.43 1772.54,1051.67 1774.38,1053.08 1786.37,1062.29 1789.56,1064.74 1800.19,1072.9 
  1804.74,1076.4 1814,1083.52 1819.92,1088.07 1827.8,1094.14 1835.1,1099.76 1841.6,1104.76 1850.28,1111.44 1855.39,1115.38 1865.47,1123.14 1869.16,1125.99 
  1880.65,1134.85 1882.93,1136.61 1895.83,1146.56 1896.7,1147.23 1910.44,1157.85 1911.01,1158.28 1924.17,1168.47 1926.19,1170.02 1937.89,1179.08 1941.37,1181.77 
  1951.61,1189.7 1956.55,1193.53 
  "/>
<polyline clip-path="url(#clip342)" style="stroke:#6e186e; stroke-linecap:butt; stroke-linejoin:round; stroke-width:4; stroke-opacity:1; fill:none" points="
  1956.55,1081.72 1945.1,1072.9 1941.37,1070.04 1931.29,1062.29 1926.19,1058.36 1917.48,1051.67 1911.01,1046.69 1903.66,1041.05 1895.83,1035.03 1889.84,1030.43 
  1880.65,1023.38 1876,1019.82 1865.47,1011.73 1862.16,1009.2 1850.28,1000.09 1848.31,998.579 1835.1,988.455 1834.46,987.961 1820.59,977.344 1819.92,976.835 
  1806.7,966.726 1804.74,965.226 1792.81,956.108 1789.56,953.624 1778.91,945.49 1774.38,942.03 1765,934.872 1759.2,930.442 1751.08,924.254 1744.02,918.862 
  1737.16,913.636 1728.84,907.289 1723.23,903.018 1713.66,895.722 1709.29,892.4 1698.48,884.163 1695.35,881.782 1683.29,872.611 1681.39,871.164 1668.11,861.066 
  1667.43,860.546 1653.45,849.928 1652.93,849.533 1639.46,839.311 1637.75,838.011 1625.46,828.693 1622.57,826.497 1611.46,818.075 1607.39,814.99 1597.44,807.457 
  1592.21,803.49 1583.42,796.839 1577.03,791.997 1569.39,786.221 1561.85,780.512 1555.35,775.603 1546.67,769.033 1541.31,764.985 1531.49,757.562 1527.25,754.367 
  1516.3,746.098 1513.19,743.749 1501.12,734.641 1499.12,733.131 1485.94,723.191 1485.04,722.513 1470.95,711.896 1470.76,711.75 1456.85,701.278 1455.58,700.323 
  1442.73,690.66 1440.4,688.903 1428.61,680.042 1425.22,677.49 1414.48,669.424 1410.04,666.085 1400.34,658.806 1394.86,654.686 1386.19,648.188 1379.68,643.295 
  1372.04,637.57 1364.49,631.911 1357.88,626.952 1349.31,620.534 1343.7,616.334 1334.13,609.165 1329.52,605.716 1318.95,597.802 1315.34,595.098 1303.77,586.447 
  1301.14,584.48 1288.59,575.1 1286.93,573.863 1273.41,563.759 1272.72,563.245 1258.49,552.627 1258.23,552.428 1244.25,542.009 1243.05,541.109 1230,531.391 
  1227.87,529.798 1215.75,520.773 1212.69,518.494 1201.48,510.155 1197.5,507.197 1187.2,499.537 1182.32,495.907 1172.92,488.919 1167.14,484.625 1158.63,478.301 
  1151.96,473.35 1144.33,467.683 1136.78,462.082 1130.02,457.065 1121.6,450.821 1115.7,446.447 1106.42,439.568 1101.37,435.83 1091.24,428.322 1087.03,425.212 
  1076.06,417.084 1072.69,414.594 1060.88,405.853 1058.34,403.976 1045.7,394.629 1043.97,393.358 1030.51,383.413 1029.6,382.74 1015.33,372.204 1015.22,372.122 
  1000.83,361.504 1000.15,361.007 986.419,350.886 984.971,349.819 972.003,340.268 969.79,338.638 957.578,329.65 954.609,327.464 943.145,319.032 939.428,316.298 
  928.702,308.415 924.248,305.139 914.25,297.797 909.067,293.988 899.789,287.179 893.886,282.844 885.319,276.561 878.705,271.707 870.84,265.943 863.524,260.578 
  856.352,255.325 
  "/>
<polyline clip-path="url(#clip342)" style="stroke:#88216a; stroke-linecap:butt; stroke-linejoin:round; stroke-width:4; stroke-opacity:1; fill:none" points="
  990.996,255.325 1000.15,262.07 1005.4,265.943 1015.33,273.262 1019.8,276.561 1030.51,284.46 1034.2,287.179 1045.7,295.665 1048.58,297.797 1060.88,306.877 
  1062.96,308.415 1076.06,318.095 1077.32,319.032 1091.24,329.321 1091.68,329.65 1106.03,340.268 1106.42,340.555 1120.37,350.886 1121.6,351.8 1134.69,361.504 
  1136.78,363.051 1149.01,372.122 1151.96,374.308 1163.32,382.74 1167.14,385.573 1177.63,393.358 1182.32,396.844 1191.92,403.976 1197.5,408.122 1206.21,414.594 
  1212.69,419.406 1220.49,425.212 1227.87,430.697 1234.76,435.83 1243.05,441.995 1249.02,446.447 1258.23,453.3 1263.28,457.065 1273.41,464.611 1277.53,467.683 
  1288.59,475.928 1291.77,478.301 1303.77,487.253 1306,488.919 1318.95,498.583 1320.23,499.537 1334.13,509.921 1334.45,510.155 1348.65,520.773 1349.31,521.27 
  1362.84,531.391 1364.49,532.627 1377.03,542.009 1379.68,543.991 1391.2,552.627 1394.86,555.362 1405.37,563.245 1410.04,566.74 1419.53,573.863 1425.22,578.124 
  1433.69,584.48 1440.4,589.514 1447.84,595.098 1455.58,600.911 1461.98,605.716 1470.76,612.315 1476.11,616.334 1485.94,623.725 1490.23,626.952 1501.12,635.142 
  1504.35,637.57 1516.3,646.566 1518.46,648.188 1531.49,657.995 1532.56,658.806 1546.66,669.424 1546.67,669.432 1560.73,680.042 1561.85,680.883 1574.8,690.66 
  1577.03,692.34 1588.86,701.278 1592.21,703.804 1602.92,711.896 1607.39,715.274 1616.96,722.513 1622.57,726.751 1631,733.131 1637.75,738.235 1645.04,743.749 
  1652.93,749.725 1659.06,754.367 1668.11,761.221 1673.08,764.985 1683.29,772.724 1687.09,775.603 1698.48,784.234 1701.09,786.221 1713.66,795.75 1715.09,796.839 
  1728.84,807.272 1729.08,807.457 1743.05,818.075 1744.02,818.808 1757.02,828.693 1759.2,830.352 1770.97,839.311 1774.38,841.902 1784.92,849.928 1789.56,853.46 
  1798.86,860.546 1804.74,865.023 1812.8,871.164 1819.92,876.593 1826.73,881.782 1835.1,888.17 1840.65,892.4 1850.28,899.752 1854.56,903.018 1865.47,911.342 
  1868.47,913.636 1880.65,922.938 1882.37,924.254 1895.83,934.54 1896.26,934.872 1910.14,945.49 1911.01,946.155 1924.01,956.108 1926.19,957.779 1937.87,966.726 
  1941.37,969.41 1951.72,977.344 1956.55,981.048 
  "/>
<polyline clip-path="url(#clip342)" style="stroke:#a12b61; stroke-linecap:butt; stroke-linejoin:round; stroke-width:4; stroke-opacity:1; fill:none" points="
  1956.55,888.723 1947.46,881.782 1941.37,877.127 1933.56,871.164 1926.19,865.537 1919.65,860.546 1911.01,853.953 1905.73,849.928 1895.83,842.374 1891.81,839.311 
  1880.65,830.802 1877.88,828.693 1865.47,819.236 1863.94,818.075 1850.28,807.676 1850,807.457 1836.04,796.839 1835.1,796.128 1822.07,786.221 1819.92,784.588 
  1808.1,775.603 1804.74,773.054 1794.11,764.985 1789.56,761.526 1780.13,754.367 1774.38,750.004 1766.13,743.749 1759.2,738.488 1752.13,733.131 1744.02,726.978 
  1738.12,722.513 1728.84,715.474 1724.11,711.896 1713.66,703.977 1710.09,701.278 1698.48,692.485 1696.06,690.66 1683.29,680.999 1682.03,680.042 1668.11,669.519 
  1667.99,669.424 1653.93,658.806 1652.93,658.052 1639.87,648.188 1637.75,646.592 1625.79,637.57 1622.57,635.138 1611.72,626.952 1607.39,623.689 1597.63,616.334 
  1592.21,612.247 1583.54,605.716 1577.03,600.811 1569.44,595.098 1561.85,589.381 1555.33,584.48 1546.67,577.957 1541.22,573.863 1531.49,566.54 1527.1,563.245 
  1516.3,555.128 1512.97,552.627 1501.12,543.722 1498.84,542.009 1485.94,532.323 1484.7,531.391 1470.76,520.929 1470.55,520.773 1456.39,510.155 1455.58,509.547 
  1442.22,499.537 1440.4,498.172 1428.04,488.919 1425.22,486.804 1413.86,478.301 1410.04,475.442 1399.67,467.683 1394.86,464.085 1385.47,457.065 1379.68,452.735 
  1371.26,446.447 1364.49,441.391 1357.05,435.83 1349.31,430.053 1342.83,425.212 1334.13,418.721 1328.6,414.594 1318.95,407.395 1314.36,403.976 1303.77,396.076 
  1300.12,393.358 1288.59,384.762 1285.87,382.74 1273.41,373.455 1271.62,372.122 1258.23,362.154 1257.35,361.504 1243.08,350.886 1243.05,350.859 1228.8,340.268 
  1227.87,339.576 1214.5,329.65 1212.69,328.3 1200.2,319.032 1197.5,317.029 1185.89,308.415 1182.32,305.765 1171.58,297.797 1167.14,294.506 1157.26,287.179 
  1151.96,283.254 1142.92,276.561 1136.78,272.008 1128.59,265.943 1121.6,260.768 1114.24,255.325 
  "/>
<polyline clip-path="url(#clip342)" style="stroke:#ba3655; stroke-linecap:butt; stroke-linejoin:round; stroke-width:4; stroke-opacity:1; fill:none" points="
  1228.59,255.325 1242.89,265.943 1243.05,266.063 1257.17,276.561 1258.23,277.347 1271.45,287.179 1273.41,288.637 1285.72,297.797 1288.59,299.933 1299.98,308.415 
  1303.77,311.234 1314.24,319.032 1318.95,322.542 1328.49,329.65 1334.13,333.855 1342.73,340.268 1349.31,345.173 1356.97,350.886 1364.49,356.498 1371.2,361.504 
  1379.68,367.828 1385.42,372.122 1394.86,379.164 1399.64,382.74 1410.04,390.506 1413.85,393.358 1425.22,401.853 1428.06,403.976 1440.4,413.206 1442.25,414.594 
  1455.58,424.565 1456.44,425.212 1470.63,435.83 1470.76,435.93 1484.8,446.447 1485.94,447.306 1498.96,457.065 1501.12,458.688 1513.11,467.683 1516.3,470.076 
  1527.26,478.301 1531.49,481.47 1541.4,488.919 1546.67,492.869 1555.54,499.537 1561.85,504.274 1569.67,510.155 1577.03,515.684 1583.79,520.773 1592.21,527.1 
  1597.91,531.391 1607.39,538.522 1612.02,542.009 1622.57,549.95 1626.12,552.627 1637.75,561.383 1640.22,563.245 1652.93,572.822 1654.31,573.863 1668.11,584.267 
  1668.4,584.48 1682.47,595.098 1683.29,595.722 1696.53,605.716 1698.48,607.185 1710.59,616.334 1713.66,618.653 1724.64,626.952 1728.84,630.127 1738.68,637.57 
  1744.02,641.607 1752.72,648.188 1759.2,653.092 1766.75,658.806 1774.38,664.583 1780.77,669.424 1789.56,676.079 1794.79,680.042 1804.74,687.582 1808.8,690.66 
  1819.92,699.09 1822.81,701.278 1835.1,710.603 1836.81,711.896 1850.28,722.122 1850.8,722.513 1864.78,733.131 1865.47,733.651 1878.75,743.749 1880.65,745.189 
  1892.72,754.367 1895.83,756.732 1906.67,764.985 1911.01,768.281 1920.63,775.603 1926.19,779.836 1934.57,786.221 1941.37,791.396 1948.51,796.839 1956.55,802.962 
  
  "/>
<polyline clip-path="url(#clip342)" style="stroke:#d04544; stroke-linecap:butt; stroke-linejoin:round; stroke-width:4; stroke-opacity:1; fill:none" points="
  1956.55,722.526 1956.54,722.513 1942.56,711.896 1941.37,710.988 1928.59,701.278 1926.19,699.456 1914.6,690.66 1911.01,687.929 1900.61,680.042 1895.83,676.408 
  1886.62,669.424 1880.65,664.892 1872.62,658.806 1865.47,653.381 1858.61,648.188 1850.28,641.875 1844.6,637.57 1835.1,630.375 1830.58,626.952 1819.92,618.88 
  1816.56,616.334 1804.74,607.39 1802.53,605.716 1789.56,595.906 1788.49,595.098 1774.45,584.48 1774.38,584.427 1760.39,573.863 1759.2,572.96 1746.33,563.245 
  1744.02,561.498 1732.26,552.627 1728.84,550.042 1718.19,542.009 1713.66,538.591 1704.11,531.391 1698.48,527.145 1690.02,520.773 1683.29,515.705 1675.93,510.155 
  1668.11,504.27 1661.83,499.537 1652.93,492.84 1647.72,488.919 1637.75,481.415 1633.61,478.301 1622.57,469.996 1619.49,467.683 1607.39,458.583 1605.37,457.065 
  1592.21,447.174 1591.24,446.447 1577.1,435.83 1577.03,435.772 1562.95,425.212 1561.85,424.38 1548.8,414.594 1546.67,412.994 1534.64,403.976 1531.49,401.613 
  1520.47,393.358 1516.3,390.238 1506.29,382.74 1501.12,378.868 1492.11,372.122 1485.94,367.503 1477.92,361.504 1470.76,356.144 1463.73,350.886 1455.58,344.79 
  1449.53,340.268 1440.4,333.441 1435.32,329.65 1425.22,322.098 1421.11,319.032 1410.04,310.76 1406.89,308.415 1394.86,299.428 1392.67,297.797 1379.68,288.101 
  1378.44,287.179 1364.49,276.78 1364.2,276.561 1349.95,265.943 1349.31,265.467 1335.69,255.325 
  "/>
<polyline clip-path="url(#clip342)" style="stroke:#e35832; stroke-linecap:butt; stroke-linejoin:round; stroke-width:4; stroke-opacity:1; fill:none" points="
  1436.79,255.325 1440.4,258.016 1451.01,265.943 1455.58,269.354 1465.22,276.561 1470.76,280.697 1479.43,287.179 1485.94,292.045 1493.63,297.797 1501.12,303.398 
  1507.83,308.415 1516.3,314.756 1522.02,319.032 1531.49,326.12 1536.2,329.65 1546.67,337.488 1550.38,340.268 1561.85,348.862 1564.55,350.886 1577.03,360.241 
  1578.71,361.504 1592.21,371.625 1592.87,372.122 1607.02,382.74 1607.39,383.015 1621.16,393.358 1622.57,394.415 1635.3,403.976 1637.75,405.82 1649.42,414.594 
  1652.93,417.23 1663.55,425.212 1668.11,428.644 1677.66,435.83 1683.29,440.064 1691.77,446.447 1698.48,451.49 1705.88,457.065 1713.66,462.92 1719.98,467.683 
  1728.84,474.355 1734.07,478.301 1744.02,485.795 1748.16,488.919 1759.2,497.241 1762.24,499.537 1774.38,508.691 1776.32,510.155 1789.56,520.147 1790.39,520.773 
  1804.45,531.391 1804.74,531.609 1818.5,542.009 1819.92,543.08 1832.55,552.627 1835.1,554.557 1846.59,563.245 1850.28,566.039 1860.62,573.863 1865.47,577.526 
  1874.65,584.48 1880.65,589.018 1888.67,595.098 1895.83,600.515 1902.69,605.716 1911.01,612.017 1916.7,616.334 1926.19,623.524 1930.71,626.952 1941.37,635.037 
  1944.71,637.57 1956.55,646.554 
  "/>
<polyline clip-path="url(#clip342)" style="stroke:#f0701e; stroke-linecap:butt; stroke-linejoin:round; stroke-width:4; stroke-opacity:1; fill:none" points="
  1956.55,574.356 1955.9,573.863 1941.88,563.245 1941.37,562.855 1927.86,552.627 1926.19,551.362 1913.83,542.009 1911.01,539.874 1899.79,531.391 1895.83,528.391 
  1885.75,520.773 1880.65,516.912 1871.7,510.155 1865.47,505.439 1857.65,499.537 1850.28,493.97 1843.6,488.919 1835.1,482.506 1829.53,478.301 1819.92,471.047 
  1815.46,467.683 1804.74,459.592 1801.39,457.065 1789.56,448.143 1787.31,446.447 1774.38,436.698 1773.23,435.83 1759.2,425.258 1759.14,425.212 1745.03,414.594 
  1744.02,413.829 1730.93,403.976 1728.84,402.404 1716.81,393.358 1713.66,390.985 1702.69,382.74 1698.48,379.57 1688.57,372.122 1683.29,368.16 1674.43,361.504 
  1668.11,356.755 1660.3,350.886 1652.93,345.354 1646.16,340.268 1637.75,333.959 1632.01,329.65 1622.57,322.568 1617.86,319.032 1607.39,311.183 1603.7,308.415 
  1592.21,299.802 1589.53,297.797 1577.03,288.426 1575.36,287.179 1561.85,277.055 1561.19,276.561 1547,265.943 1546.67,265.69 1532.81,255.325 
  "/>
<polyline clip-path="url(#clip342)" style="stroke:#f98c09; stroke-linecap:butt; stroke-linejoin:round; stroke-width:4; stroke-opacity:1; fill:none" points="
  1624.42,255.325 1637.75,265.314 1638.59,265.943 1652.75,276.561 1652.93,276.696 1666.9,287.179 1668.11,288.087 1681.05,297.797 1683.29,299.483 1695.19,308.415 
  1698.48,310.883 1709.32,319.032 1713.66,322.288 1723.45,329.65 1728.84,333.698 1737.57,340.268 1744.02,345.112 1751.69,350.886 1759.2,356.531 1765.81,361.504 
  1774.38,367.955 1779.91,372.122 1789.56,379.383 1794.02,382.74 1804.74,390.816 1808.12,393.358 1819.92,402.254 1822.21,403.976 1835.1,413.696 1836.29,414.594 
  1850.28,425.142 1850.38,425.212 1864.45,435.83 1865.47,436.599 1878.51,446.447 1880.65,448.06 1892.57,457.065 1895.83,459.527 1906.62,467.683 1911.01,470.997 
  1920.67,478.301 1926.19,482.473 1934.71,488.919 1941.37,493.953 1948.75,499.537 1956.55,505.438 
  "/>
<polyline clip-path="url(#clip342)" style="stroke:#fbaa0e; stroke-linecap:butt; stroke-linejoin:round; stroke-width:4; stroke-opacity:1; fill:none" points="
  1956.55,439.372 1951.86,435.83 1941.37,427.9 1937.81,425.212 1926.19,416.433 1923.75,414.594 1911.01,404.97 1909.69,403.976 1895.83,393.512 1895.62,393.358 
  1881.55,382.74 1880.65,382.062 1867.46,372.122 1865.47,370.618 1853.37,361.504 1850.28,359.178 1839.28,350.886 1835.1,347.743 1825.18,340.268 1819.92,336.312 
  1811.07,329.65 1804.74,324.885 1796.96,319.032 1789.56,313.463 1782.85,308.415 1774.38,302.046 1768.73,297.797 1759.2,290.633 1754.6,287.179 1744.02,279.224 
  1740.47,276.561 1728.84,267.82 1726.34,265.943 1713.66,256.42 1712.2,255.325 
  "/>
<polyline clip-path="url(#clip342)" style="stroke:#f8c931; stroke-linecap:butt; stroke-linejoin:round; stroke-width:4; stroke-opacity:1; fill:none" points="
  1796.57,255.325 1804.74,261.469 1810.69,265.943 1819.92,272.885 1824.81,276.561 1835.1,284.305 1838.92,287.179 1850.28,295.729 1853.03,297.797 1865.47,307.157 
  1867.14,308.415 1880.65,318.589 1881.23,319.032 1895.33,329.65 1895.83,330.029 1909.41,340.268 1911.01,341.475 1923.49,350.886 1926.19,352.925 1937.56,361.504 
  1941.37,364.38 1951.63,372.122 1956.55,375.839 
  "/>
<polyline clip-path="url(#clip342)" style="stroke:#f1e864; stroke-linecap:butt; stroke-linejoin:round; stroke-width:4; stroke-opacity:1; fill:none" points="
  1956.55,314.568 1948.39,308.415 1941.37,303.121 1934.3,297.797 1926.19,291.679 1920.22,287.179 1911.01,280.241 1906.12,276.561 1895.83,268.806 1892.02,265.943 
  1880.65,257.376 1877.92,255.325 
  "/>
<defs>
  <clipPath id="clip343">
    <rect x="2160" y="121" width="73" height="1263"/>
  </clipPath>
</defs>
<polyline clip-path="url(#clip343)" style="stroke:#0a0723; stroke-linecap:butt; stroke-linejoin:round; stroke-width:4; stroke-opacity:1; fill:none" points="
  2160.76,1304.38 2232.76,1304.38 
  "/>
<polyline clip-path="url(#clip343)" style="stroke:#200c4a; stroke-linecap:butt; stroke-linejoin:round; stroke-width:4; stroke-opacity:1; fill:none" points="
  2160.76,1225.53 2232.76,1225.53 
  "/>
<polyline clip-path="url(#clip343)" style="stroke:#3c0965; stroke-linecap:butt; stroke-linejoin:round; stroke-width:4; stroke-opacity:1; fill:none" points="
  2160.76,1146.68 2232.76,1146.68 
  "/>
<polyline clip-path="url(#clip343)" style="stroke:#570f6d; stroke-linecap:butt; stroke-linejoin:round; stroke-width:4; stroke-opacity:1; fill:none" points="
  2160.76,1067.84 2232.76,1067.84 
  "/>
<polyline clip-path="url(#clip343)" style="stroke:#70196e; stroke-linecap:butt; stroke-linejoin:round; stroke-width:4; stroke-opacity:1; fill:none" points="
  2160.76,988.989 2232.76,988.989 
  "/>
<polyline clip-path="url(#clip343)" style="stroke:#892269; stroke-linecap:butt; stroke-linejoin:round; stroke-width:4; stroke-opacity:1; fill:none" points="
  2160.76,910.142 2232.76,910.142 
  "/>
<polyline clip-path="url(#clip343)" style="stroke:#a32b61; stroke-linecap:butt; stroke-linejoin:round; stroke-width:4; stroke-opacity:1; fill:none" points="
  2160.76,831.296 2232.76,831.296 
  "/>
<polyline clip-path="url(#clip343)" style="stroke:#bb3754; stroke-linecap:butt; stroke-linejoin:round; stroke-width:4; stroke-opacity:1; fill:none" points="
  2160.76,752.449 2232.76,752.449 
  "/>
<polyline clip-path="url(#clip343)" style="stroke:#d04544; stroke-linecap:butt; stroke-linejoin:round; stroke-width:4; stroke-opacity:1; fill:none" points="
  2160.76,673.602 2232.76,673.602 
  "/>
<polyline clip-path="url(#clip343)" style="stroke:#e35832; stroke-linecap:butt; stroke-linejoin:round; stroke-width:4; stroke-opacity:1; fill:none" points="
  2160.76,594.755 2232.76,594.755 
  "/>
<polyline clip-path="url(#clip343)" style="stroke:#f0701e; stroke-linecap:butt; stroke-linejoin:round; stroke-width:4; stroke-opacity:1; fill:none" points="
  2160.76,515.909 2232.76,515.909 
  "/>
<polyline clip-path="url(#clip343)" style="stroke:#f98c09; stroke-linecap:butt; stroke-linejoin:round; stroke-width:4; stroke-opacity:1; fill:none" points="
  2160.76,437.062 2232.76,437.062 
  "/>
<polyline clip-path="url(#clip343)" style="stroke:#fbaa0e; stroke-linecap:butt; stroke-linejoin:round; stroke-width:4; stroke-opacity:1; fill:none" points="
  2160.76,358.215 2232.76,358.215 
  "/>
<polyline clip-path="url(#clip343)" style="stroke:#f8c931; stroke-linecap:butt; stroke-linejoin:round; stroke-width:4; stroke-opacity:1; fill:none" points="
  2160.76,279.369 2232.76,279.369 
  "/>
<polyline clip-path="url(#clip343)" style="stroke:#f1e864; stroke-linecap:butt; stroke-linejoin:round; stroke-width:4; stroke-opacity:1; fill:none" points="
  2160.76,200.522 2232.76,200.522 
  "/>
<g clip-path="url(#clip340)">
<text style="fill:#000000; fill-opacity:1; font-family:Arial,Helvetica Neue,Helvetica,sans-serif; font-size:48px; text-anchor:start;" transform="rotate(0, 2268.76, 1340.04)" x="2268.76" y="1340.04">0</text>
</g>
<g clip-path="url(#clip340)">
<text style="fill:#000000; fill-opacity:1; font-family:Arial,Helvetica Neue,Helvetica,sans-serif; font-size:48px; text-anchor:start;" transform="rotate(0, 2268.76, 1133.03)" x="2268.76" y="1133.03">50</text>
</g>
<g clip-path="url(#clip340)">
<text style="fill:#000000; fill-opacity:1; font-family:Arial,Helvetica Neue,Helvetica,sans-serif; font-size:48px; text-anchor:start;" transform="rotate(0, 2268.76, 926.013)" x="2268.76" y="926.013">100</text>
</g>
<g clip-path="url(#clip340)">
<text style="fill:#000000; fill-opacity:1; font-family:Arial,Helvetica Neue,Helvetica,sans-serif; font-size:48px; text-anchor:start;" transform="rotate(0, 2268.76, 718.997)" x="2268.76" y="718.997">150</text>
</g>
<g clip-path="url(#clip340)">
<text style="fill:#000000; fill-opacity:1; font-family:Arial,Helvetica Neue,Helvetica,sans-serif; font-size:48px; text-anchor:start;" transform="rotate(0, 2268.76, 511.981)" x="2268.76" y="511.981">200</text>
</g>
<g clip-path="url(#clip340)">
<text style="fill:#000000; fill-opacity:1; font-family:Arial,Helvetica Neue,Helvetica,sans-serif; font-size:48px; text-anchor:start;" transform="rotate(0, 2268.76, 304.965)" x="2268.76" y="304.965">250</text>
</g>
<polyline clip-path="url(#clip340)" style="stroke:#000000; stroke-linecap:butt; stroke-linejoin:round; stroke-width:4; stroke-opacity:1; fill:none" points="
  2232.76,1383.22 2232.76,1326.39 2256.76,1326.39 2232.76,1326.39 2232.76,1119.38 2256.76,1119.38 2232.76,1119.38 2232.76,912.362 2256.76,912.362 2232.76,912.362 
  2232.76,705.346 2256.76,705.346 2232.76,705.346 2232.76,498.33 2256.76,498.33 2232.76,498.33 2232.76,291.314 2256.76,291.314 2232.76,291.314 2232.76,121.675 
  
  "/>
<path clip-path="url(#clip340)" d="
M1797.9 314.626 L2051.83 314.626 L2051.83 163.727 L1797.9 163.727  Z
  " fill="#ffffff" fill-rule="evenodd" fill-opacity="1"/>
<polyline clip-path="url(#clip340)" style="stroke:#000000; stroke-linecap:butt; stroke-linejoin:round; stroke-width:4; stroke-opacity:1; fill:none" points="
  1797.9,314.626 2051.83,314.626 2051.83,163.727 1797.9,163.727 1797.9,314.626 
  "/>
<circle clip-path="url(#clip340)" cx="1879.14" cy="214.026" r="23" fill="#009af9" fill-rule="evenodd" fill-opacity="1" stroke="#000000" stroke-opacity="1" stroke-width="5.12"/>
<g clip-path="url(#clip340)">
<text style="fill:#000000; fill-opacity:1; font-family:Arial,Helvetica Neue,Helvetica,sans-serif; font-size:48px; text-anchor:start;" transform="rotate(0, 1960.38, 231.526)" x="1960.38" y="231.526">y1</text>
</g>
<circle clip-path="url(#clip340)" cx="1879.14" cy="264.326" r="23" fill="#e26f46" fill-rule="evenodd" fill-opacity="1" stroke="#000000" stroke-opacity="1" stroke-width="5.12"/>
<g clip-path="url(#clip340)">
<text style="fill:#000000; fill-opacity:1; font-family:Arial,Helvetica Neue,Helvetica,sans-serif; font-size:48px; text-anchor:start;" transform="rotate(0, 1960.38, 281.826)" x="1960.38" y="281.826">y2</text>
</g>
</svg>
