<?xml version="1.0" encoding="utf-8"?>
<svg xmlns="http://www.w3.org/2000/svg" xmlns:xlink="http://www.w3.org/1999/xlink" width="600" height="400" viewBox="0 0 2400 1600">
<defs>
  <clipPath id="clip310">
    <rect x="0" y="0" width="2400" height="1600"/>
  </clipPath>
</defs>
<path clip-path="url(#clip310)" d="
M0 1600 L2400 1600 L2400 0 L0 0  Z
  " fill="#ffffff" fill-rule="evenodd" fill-opacity="1"/>
<defs>
  <clipPath id="clip311">
    <rect x="480" y="0" width="1681" height="1600"/>
  </clipPath>
</defs>
<path clip-path="url(#clip310)" d="
M206.992 1401.01 L2352.76 1401.01 L2352.76 62.9921 L206.992 62.9921  Z
  " fill="#ffffff" fill-rule="evenodd" fill-opacity="1"/>
<defs>
  <clipPath id="clip312">
    <rect x="206" y="62" width="2147" height="1339"/>
  </clipPath>
</defs>
<polyline clip-path="url(#clip312)" style="stroke:#000000; stroke-width:2; stroke-opacity:0.1; fill:none" points="
  267.721,1401.01 267.721,62.9921 
  "/>
<polyline clip-path="url(#clip312)" style="stroke:#000000; stroke-width:2; stroke-opacity:0.1; fill:none" points="
  773.798,1401.01 773.798,62.9921 
  "/>
<polyline clip-path="url(#clip312)" style="stroke:#000000; stroke-width:2; stroke-opacity:0.1; fill:none" points="
  1279.87,1401.01 1279.87,62.9921 
  "/>
<polyline clip-path="url(#clip312)" style="stroke:#000000; stroke-width:2; stroke-opacity:0.1; fill:none" points="
  1785.95,1401.01 1785.95,62.9921 
  "/>
<polyline clip-path="url(#clip312)" style="stroke:#000000; stroke-width:2; stroke-opacity:0.1; fill:none" points="
  2292.03,1401.01 2292.03,62.9921 
  "/>
<polyline clip-path="url(#clip310)" style="stroke:#000000; stroke-width:4; stroke-opacity:1; fill:none" points="
  206.992,1401.01 2352.76,1401.01 
  "/>
<polyline clip-path="url(#clip310)" style="stroke:#000000; stroke-width:4; stroke-opacity:1; fill:none" points="
  267.721,1401.01 267.721,1384.95 
  "/>
<polyline clip-path="url(#clip310)" style="stroke:#000000; stroke-width:4; stroke-opacity:1; fill:none" points="
  773.798,1401.01 773.798,1384.95 
  "/>
<polyline clip-path="url(#clip310)" style="stroke:#000000; stroke-width:4; stroke-opacity:1; fill:none" points="
  1279.87,1401.01 1279.87,1384.95 
  "/>
<polyline clip-path="url(#clip310)" style="stroke:#000000; stroke-width:4; stroke-opacity:1; fill:none" points="
  1785.95,1401.01 1785.95,1384.95 
  "/>
<polyline clip-path="url(#clip310)" style="stroke:#000000; stroke-width:4; stroke-opacity:1; fill:none" points="
  2292.03,1401.01 2292.03,1384.95 
  "/>
<g clip-path="url(#clip310)">
<text style="fill:#000000; fill-opacity:1; font-family:Arial,Helvetica Neue,Helvetica,sans-serif; font-size:48px; text-anchor:middle;" transform="rotate(0, 267.721, 1462.21)" x="267.721" y="1462.21">0.00</text>
</g>
<g clip-path="url(#clip310)">
<text style="fill:#000000; fill-opacity:1; font-family:Arial,Helvetica Neue,Helvetica,sans-serif; font-size:48px; text-anchor:middle;" transform="rotate(0, 773.798, 1462.21)" x="773.798" y="1462.21">0.25</text>
</g>
<g clip-path="url(#clip310)">
<text style="fill:#000000; fill-opacity:1; font-family:Arial,Helvetica Neue,Helvetica,sans-serif; font-size:48px; text-anchor:middle;" transform="rotate(0, 1279.87, 1462.21)" x="1279.87" y="1462.21">0.50</text>
</g>
<g clip-path="url(#clip310)">
<text style="fill:#000000; fill-opacity:1; font-family:Arial,Helvetica Neue,Helvetica,sans-serif; font-size:48px; text-anchor:middle;" transform="rotate(0, 1785.95, 1462.21)" x="1785.95" y="1462.21">0.75</text>
</g>
<g clip-path="url(#clip310)">
<text style="fill:#000000; fill-opacity:1; font-family:Arial,Helvetica Neue,Helvetica,sans-serif; font-size:48px; text-anchor:middle;" transform="rotate(0, 2292.03, 1462.21)" x="2292.03" y="1462.21">1.00</text>
</g>
<g clip-path="url(#clip310)">
<text style="fill:#000000; fill-opacity:1; font-family:Arial,Helvetica Neue,Helvetica,sans-serif; font-size:66px; text-anchor:middle;" transform="rotate(0, 1279.87, 1534.87)" x="1279.87" y="1534.87">False Positive</text>
</g>
<polyline clip-path="url(#clip312)" style="stroke:#000000; stroke-width:2; stroke-opacity:0.1; fill:none" points="
  206.992,1363.14 2352.76,1363.14 
  "/>
<polyline clip-path="url(#clip312)" style="stroke:#000000; stroke-width:2; stroke-opacity:0.1; fill:none" points="
  206.992,1047.57 2352.76,1047.57 
  "/>
<polyline clip-path="url(#clip312)" style="stroke:#000000; stroke-width:2; stroke-opacity:0.1; fill:none" points="
  206.992,732 2352.76,732 
  "/>
<polyline clip-path="url(#clip312)" style="stroke:#000000; stroke-width:2; stroke-opacity:0.1; fill:none" points="
  206.992,416.43 2352.76,416.43 
  "/>
<polyline clip-path="url(#clip312)" style="stroke:#000000; stroke-width:2; stroke-opacity:0.1; fill:none" points="
  206.992,100.86 2352.76,100.86 
  "/>
<polyline clip-path="url(#clip310)" style="stroke:#000000; stroke-width:4; stroke-opacity:1; fill:none" points="
  206.992,1401.01 206.992,62.9921 
  "/>
<polyline clip-path="url(#clip310)" style="stroke:#000000; stroke-width:4; stroke-opacity:1; fill:none" points="
  206.992,1363.14 232.741,1363.14 
  "/>
<polyline clip-path="url(#clip310)" style="stroke:#000000; stroke-width:4; stroke-opacity:1; fill:none" points="
  206.992,1047.57 232.741,1047.57 
  "/>
<polyline clip-path="url(#clip310)" style="stroke:#000000; stroke-width:4; stroke-opacity:1; fill:none" points="
  206.992,732 232.741,732 
  "/>
<polyline clip-path="url(#clip310)" style="stroke:#000000; stroke-width:4; stroke-opacity:1; fill:none" points="
  206.992,416.43 232.741,416.43 
  "/>
<polyline clip-path="url(#clip310)" style="stroke:#000000; stroke-width:4; stroke-opacity:1; fill:none" points="
  206.992,100.86 232.741,100.86 
  "/>
<g clip-path="url(#clip310)">
<text style="fill:#000000; fill-opacity:1; font-family:Arial,Helvetica Neue,Helvetica,sans-serif; font-size:48px; text-anchor:end;" transform="rotate(0, 170.992, 1380.64)" x="170.992" y="1380.64">0.00</text>
</g>
<g clip-path="url(#clip310)">
<text style="fill:#000000; fill-opacity:1; font-family:Arial,Helvetica Neue,Helvetica,sans-serif; font-size:48px; text-anchor:end;" transform="rotate(0, 170.992, 1065.07)" x="170.992" y="1065.07">0.25</text>
</g>
<g clip-path="url(#clip310)">
<text style="fill:#000000; fill-opacity:1; font-family:Arial,Helvetica Neue,Helvetica,sans-serif; font-size:48px; text-anchor:end;" transform="rotate(0, 170.992, 749.5)" x="170.992" y="749.5">0.50</text>
</g>
<g clip-path="url(#clip310)">
<text style="fill:#000000; fill-opacity:1; font-family:Arial,Helvetica Neue,Helvetica,sans-serif; font-size:48px; text-anchor:end;" transform="rotate(0, 170.992, 433.93)" x="170.992" y="433.93">0.75</text>
</g>
<g clip-path="url(#clip310)">
<text style="fill:#000000; fill-opacity:1; font-family:Arial,Helvetica Neue,Helvetica,sans-serif; font-size:48px; text-anchor:end;" transform="rotate(0, 170.992, 118.36)" x="170.992" y="118.36">1.00</text>
</g>
<g clip-path="url(#clip310)">
<text style="fill:#000000; fill-opacity:1; font-family:Arial,Helvetica Neue,Helvetica,sans-serif; font-size:66px; text-anchor:middle;" transform="rotate(-90, 53.7618, 732)" x="53.7618" y="732">False Negative</text>
</g>
<g clip-path="url(#clip310)">
<text style="fill:#000000; fill-opacity:1; font-family:Arial,Helvetica Neue,Helvetica,sans-serif; font-size:84px; text-anchor:middle;" transform="rotate(0, 1279.87, 73.2)" x="1279.87" y="73.2">ROC curve</text>
</g>
<polyline clip-path="url(#clip312)" style="stroke:#009af9; stroke-width:4; stroke-opacity:1; fill:none" points="
  2292.03,100.86 2292.03,100.86 2291.82,100.86 2291.62,100.86 2291.42,100.86 
  2291.22,100.86 2290.81,100.86 2290.2,100.86 2289.8,100.86 2289.6,100.86 
  2288.79,100.86 2288.38,100.86 2286.97,100.86 2286.16,100.86 2285.14,100.86 2284.74,100.86 2284.33,100.86 2283.93,100.86 2283.12,100.86 2280.69,100.86 
  2279.48,100.86 2277.45,100.86 2276.03,100.86 2272.8,100.86 2269.96,100.86 2265.91,100.86 2261.66,100.86 2257.41,100.86 2253.56,100.86 2250.12,100.86 
  2244.46,100.86 2240.2,100.86 2233.73,100.86 2228.46,100.86 2220.77,100.86 2212.47,100.86 2204.58,100.86 2194.05,100.86 2179.68,100.86 2170.77,100.86 
  2157.21,100.86 2143.04,100.86 2128.26,100.86 2110.24,100.86 2091.22,100.86 2074.21,100.86 2052.55,100.86 2034.13,102.123 2013.48,102.123 1991.21,103.385 
  1969.55,103.385 1946.68,104.647 1919.96,104.647 1888.38,104.647 1862.27,107.172 1834.53,107.172 1803.76,108.434 1769.35,108.434 1730.69,110.959 1701.13,110.959 
  1670.97,110.959 1630.89,112.221 1595.06,114.746 1561.66,116.008 1521.17,116.008 1480.89,118.532 1440.2,119.795 1399.31,121.057 1363.07,124.844 1318.54,127.368 
  1280.08,128.631 1242.02,129.893 1204.97,137.467 1166.92,141.253 1124,145.04 1084.93,150.089 1048.5,153.876 1006.8,161.45 969.953,170.286 936.349,175.335 
  900.924,185.433 866.308,194.269 832.907,204.367 797.887,208.154 764.688,216.99 735.133,222.039 709.02,238.449 682.906,254.859 656.995,270.006 629.667,283.891 
  601.327,292.727 576.428,307.874 552.541,320.497 532.298,331.858 510.031,349.529 486.751,374.775 469.14,389.922 453.148,407.594 438.168,430.315 423.593,453.036 
  410.03,475.757 394.038,498.478 382.297,519.937 371.163,538.871 363.066,556.543 353.349,591.887 343.835,622.182 335.536,647.427 327.641,668.886 321.365,691.607 
  315.697,705.492 309.22,732 304.361,755.983 300.11,785.016 297.074,820.36 293.025,844.343 289.381,862.015 286.75,879.687 284.118,906.195 281.891,928.916 
  280.07,959.21 278.855,985.718 277.236,1005.91 275.414,1029.9 273.997,1060.19 272.984,1077.86 272.782,1101.85 271.972,1125.83 271.77,1140.98 270.758,1156.13 
  270.555,1162.44 270.353,1178.85 269.746,1185.16 269.746,1195.26 269.543,1210.4 269.543,1217.98 269.341,1230.6 268.733,1241.96 268.531,1257.11 268.329,1269.73 
  268.126,1279.83 268.126,1287.4 268.126,1301.29 267.924,1306.34 267.924,1312.65 267.924,1321.48 267.924,1327.8 267.924,1331.58 267.721,1334.11 
  267.721,1335.37 267.721,1339.16 267.721,1341.68 267.721,1344.21 267.721,1347.99 267.721,1354.3 267.721,1355.57 267.721,1356.83 267.721,1359.35 
  267.721,1360.61 267.721,1361.88 267.721,1363.14 
  
  
  
  
  
  
  
  
  
  
  
  
  
  
  
  
  
  
  
  
  
  
  
  
  
  
  
  
  
  
  
  
  
  
  
  
  
  
  
  
  
  
  
  
  
  
  
  
  
  
  
  
  
  
  
  
  
  
  
  
  
  
  
  
  
  
  
  
  
  
  
  
  
  
  
  
  
  
  
  
  
  
  
  
  
  
  
  
  
  
  
  
  
  "/>
<path clip-path="url(#clip310)" d="M 0 0 M1091.61 709.821 L1080.51 739.92 L1102.75 739.92 L1091.61 709.821 M1086.99 701.76 L1096.27 701.76 L1119.32 762.24 L1110.81 762.24 L1105.3 746.725 L1078.04 746.725 L1072.53 762.24 L1063.9 762.24 L1086.99 701.76 Z" fill="#000000" fill-rule="evenodd" fill-opacity="1" /><path clip-path="url(#clip310)" d="M 0 0 M1126.53 701.76 L1134.75 701.76 L1134.75 738.502 Q1134.75 748.224 1138.27 752.518 Q1141.8 756.771 1149.7 756.771 Q1157.56 756.771 1161.08 752.518 Q1164.61 748.224 1164.61 738.502 L1164.61 701.76 L1172.83 701.76 L1172.83 739.514 Q1172.83 751.343 1166.96 757.379 Q1161.12 763.415 1149.7 763.415 Q1138.23 763.415 1132.36 757.379 Q1126.53 751.343 1126.53 739.514 L1126.53 701.76 Z" fill="#000000" fill-rule="evenodd" fill-opacity="1" /><path clip-path="url(#clip310)" d="M 0 0 M1226.26 706.419 L1226.26 715.047 Q1222.13 711.199 1217.43 709.295 Q1212.77 707.391 1207.5 707.391 Q1197.13 707.391 1191.63 713.751 Q1186.12 720.07 1186.12 732.061 Q1186.12 744.011 1191.63 750.371 Q1197.13 756.69 1207.5 756.69 Q1212.77 756.69 1217.43 754.786 Q1222.13 752.882 1226.26 749.034 L1226.26 757.581 Q1221.97 760.498 1217.15 761.956 Q1212.37 763.415 1207.02 763.415 Q1193.29 763.415 1185.39 755.029 Q1177.49 746.604 1177.49 732.061 Q1177.49 717.478 1185.39 709.092 Q1193.29 700.666 1207.02 700.666 Q1212.45 700.666 1217.23 702.125 Q1222.05 703.542 1226.26 706.419 Z" fill="#000000" fill-rule="evenodd" fill-opacity="1" /><path clip-path="url(#clip310)" d="M 0 0 M1261.42 724.567 L1313.35 724.567 L1313.35 731.372 L1261.42 731.372 L1261.42 724.567 M1261.42 741.094 L1313.35 741.094 L1313.35 747.981 L1261.42 747.981 L1261.42 741.094 Z" fill="#000000" fill-rule="evenodd" fill-opacity="1" /><path clip-path="url(#clip310)" d="M 0 0 M1366.1 707.148 Q1359.78 707.148 1356.58 713.386 Q1353.42 719.584 1353.42 732.061 Q1353.42 744.497 1356.58 750.735 Q1359.78 756.933 1366.1 756.933 Q1372.46 756.933 1375.62 750.735 Q1378.82 744.497 1378.82 732.061 Q1378.82 719.584 1375.62 713.386 Q1372.46 707.148 1366.1 707.148 M1366.1 700.666 Q1376.27 700.666 1381.61 708.728 Q1387 716.748 1387 732.061 Q1387 747.333 1381.61 755.394 Q1376.27 763.415 1366.1 763.415 Q1355.93 763.415 1350.54 755.394 Q1345.19 747.333 1345.19 732.061 Q1345.19 716.748 1350.54 708.728 Q1355.93 700.666 1366.1 700.666 Z" fill="#000000" fill-rule="evenodd" fill-opacity="1" /><path clip-path="url(#clip310)" d="M 0 0 M1395.87 751.951 L1404.42 751.951 L1404.42 762.24 L1395.87 762.24 L1395.87 751.951 Z" fill="#000000" fill-rule="evenodd" fill-opacity="1" /><path clip-path="url(#clip310)" d="M 0 0 M1413.53 760.984 L1413.53 753.531 Q1416.61 754.989 1419.77 755.759 Q1422.93 756.528 1425.97 756.528 Q1434.07 756.528 1438.33 751.1 Q1442.62 745.631 1443.23 734.532 Q1440.88 738.016 1437.27 739.879 Q1433.67 741.742 1429.29 741.742 Q1420.22 741.742 1414.91 736.274 Q1409.64 730.764 1409.64 721.245 Q1409.64 711.928 1415.15 706.297 Q1420.66 700.666 1429.82 700.666 Q1440.31 700.666 1445.82 708.728 Q1451.37 716.748 1451.37 732.061 Q1451.37 746.36 1444.56 754.908 Q1437.8 763.415 1426.33 763.415 Q1423.26 763.415 1420.1 762.807 Q1416.94 762.199 1413.53 760.984 M1429.82 735.342 Q1435.33 735.342 1438.53 731.575 Q1441.77 727.807 1441.77 721.245 Q1441.77 714.723 1438.53 710.956 Q1435.33 707.148 1429.82 707.148 Q1424.31 707.148 1421.07 710.956 Q1417.87 714.723 1417.87 721.245 Q1417.87 727.807 1421.07 731.575 Q1424.31 735.342 1429.82 735.342 Z" fill="#000000" fill-rule="evenodd" fill-opacity="1" /><path clip-path="url(#clip310)" d="M 0 0 M1467.29 755.353 L1495.85 755.353 L1495.85 762.24 L1457.45 762.24 L1457.45 755.353 Q1462.1 750.533 1470.12 742.431 Q1478.19 734.289 1480.25 731.939 Q1484.18 727.524 1485.72 724.486 Q1487.3 721.407 1487.3 718.45 Q1487.3 713.629 1483.9 710.591 Q1480.54 707.553 1475.11 707.553 Q1471.26 707.553 1466.97 708.89 Q1462.71 710.226 1457.85 712.94 L1457.85 704.677 Q1462.79 702.692 1467.09 701.679 Q1471.38 700.666 1474.95 700.666 Q1484.34 700.666 1489.93 705.365 Q1495.52 710.064 1495.52 717.923 Q1495.52 721.65 1494.11 725.012 Q1492.73 728.334 1489.04 732.871 Q1488.03 734.046 1482.6 739.676 Q1477.17 745.267 1467.29 755.353 Z" fill="#000000" fill-rule="evenodd" fill-opacity="1" /></svg>
