<?xml version="1.0" encoding="utf-8"?>
<svg xmlns="http://www.w3.org/2000/svg" xmlns:xlink="http://www.w3.org/1999/xlink" width="600" height="400" viewBox="0 0 2400 1600">
<defs>
  <clipPath id="clip590">
    <rect x="0" y="0" width="2400" height="1600"/>
  </clipPath>
</defs>
<path clip-path="url(#clip590)" d="
M0 1600 L2400 1600 L2400 0 L0 0  Z
  " fill="#ffffff" fill-rule="evenodd" fill-opacity="1"/>
<defs>
  <clipPath id="clip591">
    <rect x="480" y="0" width="1681" height="1600"/>
  </clipPath>
</defs>
<path clip-path="url(#clip590)" d="
M284.912 1383.22 L2112.76 1383.22 L2112.76 121.675 L284.912 121.675  Z
  " fill="#ffffff" fill-rule="evenodd" fill-opacity="1"/>
<defs>
  <clipPath id="clip592">
    <rect x="284" y="121" width="1829" height="1263"/>
  </clipPath>
</defs>
<polyline clip-path="url(#clip592)" style="stroke:#000000; stroke-linecap:butt; stroke-linejoin:round; stroke-width:2; stroke-opacity:0.1; fill:none" points="
  438.457,1383.22 438.457,121.675 
  "/>
<polyline clip-path="url(#clip592)" style="stroke:#000000; stroke-linecap:butt; stroke-linejoin:round; stroke-width:2; stroke-opacity:0.1; fill:none" points="
  817.981,1383.22 817.981,121.675 
  "/>
<polyline clip-path="url(#clip592)" style="stroke:#000000; stroke-linecap:butt; stroke-linejoin:round; stroke-width:2; stroke-opacity:0.1; fill:none" points="
  1197.5,1383.22 1197.5,121.675 
  "/>
<polyline clip-path="url(#clip592)" style="stroke:#000000; stroke-linecap:butt; stroke-linejoin:round; stroke-width:2; stroke-opacity:0.1; fill:none" points="
  1577.03,1383.22 1577.03,121.675 
  "/>
<polyline clip-path="url(#clip592)" style="stroke:#000000; stroke-linecap:butt; stroke-linejoin:round; stroke-width:2; stroke-opacity:0.1; fill:none" points="
  1956.55,1383.22 1956.55,121.675 
  "/>
<polyline clip-path="url(#clip590)" style="stroke:#000000; stroke-linecap:butt; stroke-linejoin:round; stroke-width:4; stroke-opacity:1; fill:none" points="
  284.912,1383.22 2112.76,1383.22 
  "/>
<polyline clip-path="url(#clip590)" style="stroke:#000000; stroke-linecap:butt; stroke-linejoin:round; stroke-width:4; stroke-opacity:1; fill:none" points="
  438.457,1383.22 438.457,1364.33 
  "/>
<polyline clip-path="url(#clip590)" style="stroke:#000000; stroke-linecap:butt; stroke-linejoin:round; stroke-width:4; stroke-opacity:1; fill:none" points="
  817.981,1383.22 817.981,1364.33 
  "/>
<polyline clip-path="url(#clip590)" style="stroke:#000000; stroke-linecap:butt; stroke-linejoin:round; stroke-width:4; stroke-opacity:1; fill:none" points="
  1197.5,1383.22 1197.5,1364.33 
  "/>
<polyline clip-path="url(#clip590)" style="stroke:#000000; stroke-linecap:butt; stroke-linejoin:round; stroke-width:4; stroke-opacity:1; fill:none" points="
  1577.03,1383.22 1577.03,1364.33 
  "/>
<polyline clip-path="url(#clip590)" style="stroke:#000000; stroke-linecap:butt; stroke-linejoin:round; stroke-width:4; stroke-opacity:1; fill:none" points="
  1956.55,1383.22 1956.55,1364.33 
  "/>
<g clip-path="url(#clip590)">
<text style="fill:#000000; fill-opacity:1; font-family:Arial,Helvetica Neue,Helvetica,sans-serif; font-size:48px; text-anchor:middle;" transform="rotate(0, 438.457, 1444.42)" x="438.457" y="1444.42">−5.0</text>
</g>
<g clip-path="url(#clip590)">
<text style="fill:#000000; fill-opacity:1; font-family:Arial,Helvetica Neue,Helvetica,sans-serif; font-size:48px; text-anchor:middle;" transform="rotate(0, 817.981, 1444.42)" x="817.981" y="1444.42">−2.5</text>
</g>
<g clip-path="url(#clip590)">
<text style="fill:#000000; fill-opacity:1; font-family:Arial,Helvetica Neue,Helvetica,sans-serif; font-size:48px; text-anchor:middle;" transform="rotate(0, 1197.5, 1444.42)" x="1197.5" y="1444.42">0.0</text>
</g>
<g clip-path="url(#clip590)">
<text style="fill:#000000; fill-opacity:1; font-family:Arial,Helvetica Neue,Helvetica,sans-serif; font-size:48px; text-anchor:middle;" transform="rotate(0, 1577.03, 1444.42)" x="1577.03" y="1444.42">2.5</text>
</g>
<g clip-path="url(#clip590)">
<text style="fill:#000000; fill-opacity:1; font-family:Arial,Helvetica Neue,Helvetica,sans-serif; font-size:48px; text-anchor:middle;" transform="rotate(0, 1956.55, 1444.42)" x="1956.55" y="1444.42">5.0</text>
</g>
<polyline clip-path="url(#clip592)" style="stroke:#000000; stroke-linecap:butt; stroke-linejoin:round; stroke-width:2; stroke-opacity:0.1; fill:none" points="
  284.912,1317.12 2112.76,1317.12 
  "/>
<polyline clip-path="url(#clip592)" style="stroke:#000000; stroke-linecap:butt; stroke-linejoin:round; stroke-width:2; stroke-opacity:0.1; fill:none" points="
  284.912,1051.67 2112.76,1051.67 
  "/>
<polyline clip-path="url(#clip592)" style="stroke:#000000; stroke-linecap:butt; stroke-linejoin:round; stroke-width:2; stroke-opacity:0.1; fill:none" points="
  284.912,786.221 2112.76,786.221 
  "/>
<polyline clip-path="url(#clip592)" style="stroke:#000000; stroke-linecap:butt; stroke-linejoin:round; stroke-width:2; stroke-opacity:0.1; fill:none" points="
  284.912,520.773 2112.76,520.773 
  "/>
<polyline clip-path="url(#clip592)" style="stroke:#000000; stroke-linecap:butt; stroke-linejoin:round; stroke-width:2; stroke-opacity:0.1; fill:none" points="
  284.912,255.325 2112.76,255.325 
  "/>
<polyline clip-path="url(#clip590)" style="stroke:#000000; stroke-linecap:butt; stroke-linejoin:round; stroke-width:4; stroke-opacity:1; fill:none" points="
  284.912,1383.22 284.912,121.675 
  "/>
<polyline clip-path="url(#clip590)" style="stroke:#000000; stroke-linecap:butt; stroke-linejoin:round; stroke-width:4; stroke-opacity:1; fill:none" points="
  284.912,1317.12 301.617,1317.12 
  "/>
<polyline clip-path="url(#clip590)" style="stroke:#000000; stroke-linecap:butt; stroke-linejoin:round; stroke-width:4; stroke-opacity:1; fill:none" points="
  284.912,1051.67 301.617,1051.67 
  "/>
<polyline clip-path="url(#clip590)" style="stroke:#000000; stroke-linecap:butt; stroke-linejoin:round; stroke-width:4; stroke-opacity:1; fill:none" points="
  284.912,786.221 301.617,786.221 
  "/>
<polyline clip-path="url(#clip590)" style="stroke:#000000; stroke-linecap:butt; stroke-linejoin:round; stroke-width:4; stroke-opacity:1; fill:none" points="
  284.912,520.773 301.617,520.773 
  "/>
<polyline clip-path="url(#clip590)" style="stroke:#000000; stroke-linecap:butt; stroke-linejoin:round; stroke-width:4; stroke-opacity:1; fill:none" points="
  284.912,255.325 301.617,255.325 
  "/>
<g clip-path="url(#clip590)">
<text style="fill:#000000; fill-opacity:1; font-family:Arial,Helvetica Neue,Helvetica,sans-serif; font-size:48px; text-anchor:end;" transform="rotate(0, 248.912, 1334.62)" x="248.912" y="1334.62">−5.0</text>
</g>
<g clip-path="url(#clip590)">
<text style="fill:#000000; fill-opacity:1; font-family:Arial,Helvetica Neue,Helvetica,sans-serif; font-size:48px; text-anchor:end;" transform="rotate(0, 248.912, 1069.17)" x="248.912" y="1069.17">−2.5</text>
</g>
<g clip-path="url(#clip590)">
<text style="fill:#000000; fill-opacity:1; font-family:Arial,Helvetica Neue,Helvetica,sans-serif; font-size:48px; text-anchor:end;" transform="rotate(0, 248.912, 803.721)" x="248.912" y="803.721">0.0</text>
</g>
<g clip-path="url(#clip590)">
<text style="fill:#000000; fill-opacity:1; font-family:Arial,Helvetica Neue,Helvetica,sans-serif; font-size:48px; text-anchor:end;" transform="rotate(0, 248.912, 538.273)" x="248.912" y="538.273">2.5</text>
</g>
<g clip-path="url(#clip590)">
<text style="fill:#000000; fill-opacity:1; font-family:Arial,Helvetica Neue,Helvetica,sans-serif; font-size:48px; text-anchor:end;" transform="rotate(0, 248.912, 272.825)" x="248.912" y="272.825">5.0</text>
</g>
<g clip-path="url(#clip590)">
<text style="fill:#000000; fill-opacity:1; font-family:Arial,Helvetica Neue,Helvetica,sans-serif; font-size:84px; text-anchor:middle;" transform="rotate(0, 1198.83, 73.2)" x="1198.83" y="73.2">LDA</text>
</g>
<circle clip-path="url(#clip592)" cx="1756.66" cy="266.308" r="14" fill="#009af9" fill-rule="evenodd" fill-opacity="1" stroke="#000000" stroke-opacity="1" stroke-width="3.2"/>
<circle clip-path="url(#clip592)" cx="1746.44" cy="504.877" r="14" fill="#009af9" fill-rule="evenodd" fill-opacity="1" stroke="#000000" stroke-opacity="1" stroke-width="3.2"/>
<circle clip-path="url(#clip592)" cx="1415.96" cy="673.676" r="14" fill="#009af9" fill-rule="evenodd" fill-opacity="1" stroke="#000000" stroke-opacity="1" stroke-width="3.2"/>
<circle clip-path="url(#clip592)" cx="1711.73" cy="585.197" r="14" fill="#009af9" fill-rule="evenodd" fill-opacity="1" stroke="#000000" stroke-opacity="1" stroke-width="3.2"/>
<circle clip-path="url(#clip592)" cx="1559.91" cy="603.028" r="14" fill="#009af9" fill-rule="evenodd" fill-opacity="1" stroke="#000000" stroke-opacity="1" stroke-width="3.2"/>
<circle clip-path="url(#clip592)" cx="1428.26" cy="700.579" r="14" fill="#009af9" fill-rule="evenodd" fill-opacity="1" stroke="#000000" stroke-opacity="1" stroke-width="3.2"/>
<circle clip-path="url(#clip592)" cx="1310.28" cy="524.728" r="14" fill="#009af9" fill-rule="evenodd" fill-opacity="1" stroke="#000000" stroke-opacity="1" stroke-width="3.2"/>
<circle clip-path="url(#clip592)" cx="1628.31" cy="518.603" r="14" fill="#009af9" fill-rule="evenodd" fill-opacity="1" stroke="#000000" stroke-opacity="1" stroke-width="3.2"/>
<circle clip-path="url(#clip592)" cx="1440.77" cy="684.213" r="14" fill="#009af9" fill-rule="evenodd" fill-opacity="1" stroke="#000000" stroke-opacity="1" stroke-width="3.2"/>
<circle clip-path="url(#clip592)" cx="1347.1" cy="690.247" r="14" fill="#009af9" fill-rule="evenodd" fill-opacity="1" stroke="#000000" stroke-opacity="1" stroke-width="3.2"/>
<circle clip-path="url(#clip592)" cx="1290.83" cy="534.761" r="14" fill="#009af9" fill-rule="evenodd" fill-opacity="1" stroke="#000000" stroke-opacity="1" stroke-width="3.2"/>
<circle clip-path="url(#clip592)" cx="1400.54" cy="706.138" r="14" fill="#009af9" fill-rule="evenodd" fill-opacity="1" stroke="#000000" stroke-opacity="1" stroke-width="3.2"/>
<circle clip-path="url(#clip592)" cx="1560.75" cy="345.031" r="14" fill="#009af9" fill-rule="evenodd" fill-opacity="1" stroke="#000000" stroke-opacity="1" stroke-width="3.2"/>
<circle clip-path="url(#clip592)" cx="1119.46" cy="1014.29" r="14" fill="#009af9" fill-rule="evenodd" fill-opacity="1" stroke="#000000" stroke-opacity="1" stroke-width="3.2"/>
<circle clip-path="url(#clip592)" cx="1669.07" cy="226.455" r="14" fill="#009af9" fill-rule="evenodd" fill-opacity="1" stroke="#000000" stroke-opacity="1" stroke-width="3.2"/>
<circle clip-path="url(#clip592)" cx="1314.12" cy="521.948" r="14" fill="#009af9" fill-rule="evenodd" fill-opacity="1" stroke="#000000" stroke-opacity="1" stroke-width="3.2"/>
<circle clip-path="url(#clip592)" cx="1467.66" cy="223.537" r="14" fill="#009af9" fill-rule="evenodd" fill-opacity="1" stroke="#000000" stroke-opacity="1" stroke-width="3.2"/>
<circle clip-path="url(#clip592)" cx="1286.79" cy="563.808" r="14" fill="#009af9" fill-rule="evenodd" fill-opacity="1" stroke="#000000" stroke-opacity="1" stroke-width="3.2"/>
<circle clip-path="url(#clip592)" cx="1126.66" cy="706.082" r="14" fill="#009af9" fill-rule="evenodd" fill-opacity="1" stroke="#000000" stroke-opacity="1" stroke-width="3.2"/>
<circle clip-path="url(#clip592)" cx="1446.64" cy="451.628" r="14" fill="#009af9" fill-rule="evenodd" fill-opacity="1" stroke="#000000" stroke-opacity="1" stroke-width="3.2"/>
<circle clip-path="url(#clip592)" cx="1259.63" cy="625.577" r="14" fill="#009af9" fill-rule="evenodd" fill-opacity="1" stroke="#000000" stroke-opacity="1" stroke-width="3.2"/>
<circle clip-path="url(#clip592)" cx="1449.06" cy="343.818" r="14" fill="#009af9" fill-rule="evenodd" fill-opacity="1" stroke="#000000" stroke-opacity="1" stroke-width="3.2"/>
<circle clip-path="url(#clip592)" cx="1589.89" cy="608.041" r="14" fill="#009af9" fill-rule="evenodd" fill-opacity="1" stroke="#000000" stroke-opacity="1" stroke-width="3.2"/>
<circle clip-path="url(#clip592)" cx="1461.22" cy="343.845" r="14" fill="#009af9" fill-rule="evenodd" fill-opacity="1" stroke="#000000" stroke-opacity="1" stroke-width="3.2"/>
<circle clip-path="url(#clip592)" cx="826.293" cy="790.102" r="14" fill="#009af9" fill-rule="evenodd" fill-opacity="1" stroke="#000000" stroke-opacity="1" stroke-width="3.2"/>
<circle clip-path="url(#clip592)" cx="1548.08" cy="604.988" r="14" fill="#009af9" fill-rule="evenodd" fill-opacity="1" stroke="#000000" stroke-opacity="1" stroke-width="3.2"/>
<circle clip-path="url(#clip592)" cx="1778.64" cy="398.225" r="14" fill="#009af9" fill-rule="evenodd" fill-opacity="1" stroke="#000000" stroke-opacity="1" stroke-width="3.2"/>
<circle clip-path="url(#clip592)" cx="1507.73" cy="745.07" r="14" fill="#009af9" fill-rule="evenodd" fill-opacity="1" stroke="#000000" stroke-opacity="1" stroke-width="3.2"/>
<circle clip-path="url(#clip592)" cx="1594.44" cy="621.067" r="14" fill="#009af9" fill-rule="evenodd" fill-opacity="1" stroke="#000000" stroke-opacity="1" stroke-width="3.2"/>
<circle clip-path="url(#clip592)" cx="1383.29" cy="669.343" r="14" fill="#009af9" fill-rule="evenodd" fill-opacity="1" stroke="#000000" stroke-opacity="1" stroke-width="3.2"/>
<circle clip-path="url(#clip592)" cx="1644.05" cy="712.051" r="14" fill="#009af9" fill-rule="evenodd" fill-opacity="1" stroke="#000000" stroke-opacity="1" stroke-width="3.2"/>
<circle clip-path="url(#clip592)" cx="1469.7" cy="592.24" r="14" fill="#009af9" fill-rule="evenodd" fill-opacity="1" stroke="#000000" stroke-opacity="1" stroke-width="3.2"/>
<circle clip-path="url(#clip592)" cx="1681.83" cy="649.377" r="14" fill="#009af9" fill-rule="evenodd" fill-opacity="1" stroke="#000000" stroke-opacity="1" stroke-width="3.2"/>
<circle clip-path="url(#clip592)" cx="1721.25" cy="732.828" r="14" fill="#009af9" fill-rule="evenodd" fill-opacity="1" stroke="#000000" stroke-opacity="1" stroke-width="3.2"/>
<circle clip-path="url(#clip592)" cx="1539.44" cy="157.379" r="14" fill="#009af9" fill-rule="evenodd" fill-opacity="1" stroke="#000000" stroke-opacity="1" stroke-width="3.2"/>
<circle clip-path="url(#clip592)" cx="1279.25" cy="619.58" r="14" fill="#009af9" fill-rule="evenodd" fill-opacity="1" stroke="#000000" stroke-opacity="1" stroke-width="3.2"/>
<circle clip-path="url(#clip592)" cx="1683.39" cy="1011.66" r="14" fill="#009af9" fill-rule="evenodd" fill-opacity="1" stroke="#000000" stroke-opacity="1" stroke-width="3.2"/>
<circle clip-path="url(#clip592)" cx="1497.84" cy="673.928" r="14" fill="#009af9" fill-rule="evenodd" fill-opacity="1" stroke="#000000" stroke-opacity="1" stroke-width="3.2"/>
<circle clip-path="url(#clip592)" cx="2061.02" cy="360.424" r="14" fill="#009af9" fill-rule="evenodd" fill-opacity="1" stroke="#000000" stroke-opacity="1" stroke-width="3.2"/>
<circle clip-path="url(#clip592)" cx="1569.37" cy="380.918" r="14" fill="#009af9" fill-rule="evenodd" fill-opacity="1" stroke="#000000" stroke-opacity="1" stroke-width="3.2"/>
<circle clip-path="url(#clip592)" cx="1204.62" cy="319.693" r="14" fill="#009af9" fill-rule="evenodd" fill-opacity="1" stroke="#000000" stroke-opacity="1" stroke-width="3.2"/>
<circle clip-path="url(#clip592)" cx="1588.08" cy="714.539" r="14" fill="#009af9" fill-rule="evenodd" fill-opacity="1" stroke="#000000" stroke-opacity="1" stroke-width="3.2"/>
<circle clip-path="url(#clip592)" cx="1776.28" cy="464.675" r="14" fill="#009af9" fill-rule="evenodd" fill-opacity="1" stroke="#000000" stroke-opacity="1" stroke-width="3.2"/>
<circle clip-path="url(#clip592)" cx="1415.95" cy="415.382" r="14" fill="#009af9" fill-rule="evenodd" fill-opacity="1" stroke="#000000" stroke-opacity="1" stroke-width="3.2"/>
<circle clip-path="url(#clip592)" cx="1343.55" cy="504.879" r="14" fill="#009af9" fill-rule="evenodd" fill-opacity="1" stroke="#000000" stroke-opacity="1" stroke-width="3.2"/>
<circle clip-path="url(#clip592)" cx="1867.43" cy="471.988" r="14" fill="#009af9" fill-rule="evenodd" fill-opacity="1" stroke="#000000" stroke-opacity="1" stroke-width="3.2"/>
<circle clip-path="url(#clip592)" cx="1562.78" cy="413.468" r="14" fill="#009af9" fill-rule="evenodd" fill-opacity="1" stroke="#000000" stroke-opacity="1" stroke-width="3.2"/>
<circle clip-path="url(#clip592)" cx="1435.24" cy="862.202" r="14" fill="#009af9" fill-rule="evenodd" fill-opacity="1" stroke="#000000" stroke-opacity="1" stroke-width="3.2"/>
<circle clip-path="url(#clip592)" cx="1859.57" cy="605.93" r="14" fill="#009af9" fill-rule="evenodd" fill-opacity="1" stroke="#000000" stroke-opacity="1" stroke-width="3.2"/>
<circle clip-path="url(#clip592)" cx="1465.98" cy="709.455" r="14" fill="#009af9" fill-rule="evenodd" fill-opacity="1" stroke="#000000" stroke-opacity="1" stroke-width="3.2"/>
<circle clip-path="url(#clip592)" cx="1581.9" cy="634.718" r="14" fill="#009af9" fill-rule="evenodd" fill-opacity="1" stroke="#000000" stroke-opacity="1" stroke-width="3.2"/>
<circle clip-path="url(#clip592)" cx="1787.92" cy="333.492" r="14" fill="#009af9" fill-rule="evenodd" fill-opacity="1" stroke="#000000" stroke-opacity="1" stroke-width="3.2"/>
<circle clip-path="url(#clip592)" cx="1188.13" cy="453.646" r="14" fill="#009af9" fill-rule="evenodd" fill-opacity="1" stroke="#000000" stroke-opacity="1" stroke-width="3.2"/>
<circle clip-path="url(#clip592)" cx="1693.46" cy="677.763" r="14" fill="#009af9" fill-rule="evenodd" fill-opacity="1" stroke="#000000" stroke-opacity="1" stroke-width="3.2"/>
<circle clip-path="url(#clip592)" cx="1177.21" cy="687.162" r="14" fill="#009af9" fill-rule="evenodd" fill-opacity="1" stroke="#000000" stroke-opacity="1" stroke-width="3.2"/>
<circle clip-path="url(#clip592)" cx="1525.95" cy="537.434" r="14" fill="#009af9" fill-rule="evenodd" fill-opacity="1" stroke="#000000" stroke-opacity="1" stroke-width="3.2"/>
<circle clip-path="url(#clip592)" cx="1453.2" cy="639.986" r="14" fill="#009af9" fill-rule="evenodd" fill-opacity="1" stroke="#000000" stroke-opacity="1" stroke-width="3.2"/>
<circle clip-path="url(#clip592)" cx="1120.72" cy="476.016" r="14" fill="#009af9" fill-rule="evenodd" fill-opacity="1" stroke="#000000" stroke-opacity="1" stroke-width="3.2"/>
<circle clip-path="url(#clip592)" cx="1586.51" cy="542.209" r="14" fill="#009af9" fill-rule="evenodd" fill-opacity="1" stroke="#000000" stroke-opacity="1" stroke-width="3.2"/>
<circle clip-path="url(#clip592)" cx="1718.95" cy="517.297" r="14" fill="#009af9" fill-rule="evenodd" fill-opacity="1" stroke="#000000" stroke-opacity="1" stroke-width="3.2"/>
<circle clip-path="url(#clip592)" cx="1336.67" cy="603.773" r="14" fill="#009af9" fill-rule="evenodd" fill-opacity="1" stroke="#000000" stroke-opacity="1" stroke-width="3.2"/>
<circle clip-path="url(#clip592)" cx="1821.86" cy="570.5" r="14" fill="#009af9" fill-rule="evenodd" fill-opacity="1" stroke="#000000" stroke-opacity="1" stroke-width="3.2"/>
<circle clip-path="url(#clip592)" cx="1506.31" cy="407.538" r="14" fill="#009af9" fill-rule="evenodd" fill-opacity="1" stroke="#000000" stroke-opacity="1" stroke-width="3.2"/>
<circle clip-path="url(#clip592)" cx="1533.15" cy="320.166" r="14" fill="#009af9" fill-rule="evenodd" fill-opacity="1" stroke="#000000" stroke-opacity="1" stroke-width="3.2"/>
<circle clip-path="url(#clip592)" cx="1389.08" cy="479.932" r="14" fill="#009af9" fill-rule="evenodd" fill-opacity="1" stroke="#000000" stroke-opacity="1" stroke-width="3.2"/>
<circle clip-path="url(#clip592)" cx="1153.09" cy="474.068" r="14" fill="#009af9" fill-rule="evenodd" fill-opacity="1" stroke="#000000" stroke-opacity="1" stroke-width="3.2"/>
<circle clip-path="url(#clip592)" cx="1834.12" cy="786.247" r="14" fill="#009af9" fill-rule="evenodd" fill-opacity="1" stroke="#000000" stroke-opacity="1" stroke-width="3.2"/>
<circle clip-path="url(#clip592)" cx="1507.89" cy="445.847" r="14" fill="#009af9" fill-rule="evenodd" fill-opacity="1" stroke="#000000" stroke-opacity="1" stroke-width="3.2"/>
<circle clip-path="url(#clip592)" cx="1627.46" cy="427.479" r="14" fill="#009af9" fill-rule="evenodd" fill-opacity="1" stroke="#000000" stroke-opacity="1" stroke-width="3.2"/>
<circle clip-path="url(#clip592)" cx="1437.18" cy="448.941" r="14" fill="#009af9" fill-rule="evenodd" fill-opacity="1" stroke="#000000" stroke-opacity="1" stroke-width="3.2"/>
<circle clip-path="url(#clip592)" cx="1569.57" cy="619.165" r="14" fill="#009af9" fill-rule="evenodd" fill-opacity="1" stroke="#000000" stroke-opacity="1" stroke-width="3.2"/>
<circle clip-path="url(#clip592)" cx="1214.35" cy="573.757" r="14" fill="#009af9" fill-rule="evenodd" fill-opacity="1" stroke="#000000" stroke-opacity="1" stroke-width="3.2"/>
<circle clip-path="url(#clip592)" cx="1961.88" cy="572.596" r="14" fill="#009af9" fill-rule="evenodd" fill-opacity="1" stroke="#000000" stroke-opacity="1" stroke-width="3.2"/>
<circle clip-path="url(#clip592)" cx="1987.67" cy="540.87" r="14" fill="#009af9" fill-rule="evenodd" fill-opacity="1" stroke="#000000" stroke-opacity="1" stroke-width="3.2"/>
<circle clip-path="url(#clip592)" cx="1606.05" cy="753.151" r="14" fill="#009af9" fill-rule="evenodd" fill-opacity="1" stroke="#000000" stroke-opacity="1" stroke-width="3.2"/>
<circle clip-path="url(#clip592)" cx="1458.65" cy="282.87" r="14" fill="#009af9" fill-rule="evenodd" fill-opacity="1" stroke="#000000" stroke-opacity="1" stroke-width="3.2"/>
<circle clip-path="url(#clip592)" cx="1491.61" cy="690.687" r="14" fill="#009af9" fill-rule="evenodd" fill-opacity="1" stroke="#000000" stroke-opacity="1" stroke-width="3.2"/>
<circle clip-path="url(#clip592)" cx="1520.61" cy="455.891" r="14" fill="#009af9" fill-rule="evenodd" fill-opacity="1" stroke="#000000" stroke-opacity="1" stroke-width="3.2"/>
<circle clip-path="url(#clip592)" cx="1716.13" cy="682.334" r="14" fill="#009af9" fill-rule="evenodd" fill-opacity="1" stroke="#000000" stroke-opacity="1" stroke-width="3.2"/>
<circle clip-path="url(#clip592)" cx="1174.59" cy="804.974" r="14" fill="#009af9" fill-rule="evenodd" fill-opacity="1" stroke="#000000" stroke-opacity="1" stroke-width="3.2"/>
<circle clip-path="url(#clip592)" cx="1535.68" cy="657.665" r="14" fill="#009af9" fill-rule="evenodd" fill-opacity="1" stroke="#000000" stroke-opacity="1" stroke-width="3.2"/>
<circle clip-path="url(#clip592)" cx="1015.41" cy="526.341" r="14" fill="#009af9" fill-rule="evenodd" fill-opacity="1" stroke="#000000" stroke-opacity="1" stroke-width="3.2"/>
<circle clip-path="url(#clip592)" cx="1475.96" cy="557.638" r="14" fill="#009af9" fill-rule="evenodd" fill-opacity="1" stroke="#000000" stroke-opacity="1" stroke-width="3.2"/>
<circle clip-path="url(#clip592)" cx="1947.27" cy="541.145" r="14" fill="#009af9" fill-rule="evenodd" fill-opacity="1" stroke="#000000" stroke-opacity="1" stroke-width="3.2"/>
<circle clip-path="url(#clip592)" cx="1380.68" cy="731.43" r="14" fill="#009af9" fill-rule="evenodd" fill-opacity="1" stroke="#000000" stroke-opacity="1" stroke-width="3.2"/>
<circle clip-path="url(#clip592)" cx="1610.26" cy="775.231" r="14" fill="#009af9" fill-rule="evenodd" fill-opacity="1" stroke="#000000" stroke-opacity="1" stroke-width="3.2"/>
<circle clip-path="url(#clip592)" cx="1575.18" cy="736.308" r="14" fill="#009af9" fill-rule="evenodd" fill-opacity="1" stroke="#000000" stroke-opacity="1" stroke-width="3.2"/>
<circle clip-path="url(#clip592)" cx="1551.95" cy="492.287" r="14" fill="#009af9" fill-rule="evenodd" fill-opacity="1" stroke="#000000" stroke-opacity="1" stroke-width="3.2"/>
<circle clip-path="url(#clip592)" cx="1262" cy="594.907" r="14" fill="#009af9" fill-rule="evenodd" fill-opacity="1" stroke="#000000" stroke-opacity="1" stroke-width="3.2"/>
<circle clip-path="url(#clip592)" cx="1892.88" cy="508.948" r="14" fill="#009af9" fill-rule="evenodd" fill-opacity="1" stroke="#000000" stroke-opacity="1" stroke-width="3.2"/>
<circle clip-path="url(#clip592)" cx="1268.58" cy="377.194" r="14" fill="#009af9" fill-rule="evenodd" fill-opacity="1" stroke="#000000" stroke-opacity="1" stroke-width="3.2"/>
<circle clip-path="url(#clip592)" cx="1401.79" cy="593.076" r="14" fill="#009af9" fill-rule="evenodd" fill-opacity="1" stroke="#000000" stroke-opacity="1" stroke-width="3.2"/>
<circle clip-path="url(#clip592)" cx="1367.18" cy="463.708" r="14" fill="#009af9" fill-rule="evenodd" fill-opacity="1" stroke="#000000" stroke-opacity="1" stroke-width="3.2"/>
<circle clip-path="url(#clip592)" cx="1399.83" cy="738.45" r="14" fill="#009af9" fill-rule="evenodd" fill-opacity="1" stroke="#000000" stroke-opacity="1" stroke-width="3.2"/>
<circle clip-path="url(#clip592)" cx="1696.87" cy="571.778" r="14" fill="#009af9" fill-rule="evenodd" fill-opacity="1" stroke="#000000" stroke-opacity="1" stroke-width="3.2"/>
<circle clip-path="url(#clip592)" cx="1994.03" cy="433.466" r="14" fill="#009af9" fill-rule="evenodd" fill-opacity="1" stroke="#000000" stroke-opacity="1" stroke-width="3.2"/>
<circle clip-path="url(#clip592)" cx="1931.81" cy="630.817" r="14" fill="#009af9" fill-rule="evenodd" fill-opacity="1" stroke="#000000" stroke-opacity="1" stroke-width="3.2"/>
<circle clip-path="url(#clip592)" cx="1545.45" cy="615.311" r="14" fill="#009af9" fill-rule="evenodd" fill-opacity="1" stroke="#000000" stroke-opacity="1" stroke-width="3.2"/>
<circle clip-path="url(#clip592)" cx="1757.86" cy="768.546" r="14" fill="#009af9" fill-rule="evenodd" fill-opacity="1" stroke="#000000" stroke-opacity="1" stroke-width="3.2"/>
<circle clip-path="url(#clip592)" cx="1624.63" cy="598.789" r="14" fill="#009af9" fill-rule="evenodd" fill-opacity="1" stroke="#000000" stroke-opacity="1" stroke-width="3.2"/>
<circle clip-path="url(#clip592)" cx="794.692" cy="1031.99" r="14" fill="#e26f46" fill-rule="evenodd" fill-opacity="1" stroke="#000000" stroke-opacity="1" stroke-width="3.2"/>
<circle clip-path="url(#clip592)" cx="738.333" cy="1109.42" r="14" fill="#e26f46" fill-rule="evenodd" fill-opacity="1" stroke="#000000" stroke-opacity="1" stroke-width="3.2"/>
<circle clip-path="url(#clip592)" cx="546.063" cy="1016.61" r="14" fill="#e26f46" fill-rule="evenodd" fill-opacity="1" stroke="#000000" stroke-opacity="1" stroke-width="3.2"/>
<circle clip-path="url(#clip592)" cx="715.192" cy="1053.08" r="14" fill="#e26f46" fill-rule="evenodd" fill-opacity="1" stroke="#000000" stroke-opacity="1" stroke-width="3.2"/>
<circle clip-path="url(#clip592)" cx="532.832" cy="1042.97" r="14" fill="#e26f46" fill-rule="evenodd" fill-opacity="1" stroke="#000000" stroke-opacity="1" stroke-width="3.2"/>
<circle clip-path="url(#clip592)" cx="681.341" cy="1051.98" r="14" fill="#e26f46" fill-rule="evenodd" fill-opacity="1" stroke="#000000" stroke-opacity="1" stroke-width="3.2"/>
<circle clip-path="url(#clip592)" cx="866.21" cy="1207.21" r="14" fill="#e26f46" fill-rule="evenodd" fill-opacity="1" stroke="#000000" stroke-opacity="1" stroke-width="3.2"/>
<circle clip-path="url(#clip592)" cx="669.013" cy="1176.97" r="14" fill="#e26f46" fill-rule="evenodd" fill-opacity="1" stroke="#000000" stroke-opacity="1" stroke-width="3.2"/>
<circle clip-path="url(#clip592)" cx="754.251" cy="1010.03" r="14" fill="#e26f46" fill-rule="evenodd" fill-opacity="1" stroke="#000000" stroke-opacity="1" stroke-width="3.2"/>
<circle clip-path="url(#clip592)" cx="918.396" cy="1255.37" r="14" fill="#e26f46" fill-rule="evenodd" fill-opacity="1" stroke="#000000" stroke-opacity="1" stroke-width="3.2"/>
<circle clip-path="url(#clip592)" cx="821.2" cy="1139.89" r="14" fill="#e26f46" fill-rule="evenodd" fill-opacity="1" stroke="#000000" stroke-opacity="1" stroke-width="3.2"/>
<circle clip-path="url(#clip592)" cx="902.198" cy="1128.72" r="14" fill="#e26f46" fill-rule="evenodd" fill-opacity="1" stroke="#000000" stroke-opacity="1" stroke-width="3.2"/>
<circle clip-path="url(#clip592)" cx="704.545" cy="1030.76" r="14" fill="#e26f46" fill-rule="evenodd" fill-opacity="1" stroke="#000000" stroke-opacity="1" stroke-width="3.2"/>
<circle clip-path="url(#clip592)" cx="707.638" cy="980.931" r="14" fill="#e26f46" fill-rule="evenodd" fill-opacity="1" stroke="#000000" stroke-opacity="1" stroke-width="3.2"/>
<circle clip-path="url(#clip592)" cx="1082.88" cy="1347.52" r="14" fill="#e26f46" fill-rule="evenodd" fill-opacity="1" stroke="#000000" stroke-opacity="1" stroke-width="3.2"/>
<circle clip-path="url(#clip592)" cx="711.113" cy="1062.58" r="14" fill="#e26f46" fill-rule="evenodd" fill-opacity="1" stroke="#000000" stroke-opacity="1" stroke-width="3.2"/>
<circle clip-path="url(#clip592)" cx="833.813" cy="1168.47" r="14" fill="#e26f46" fill-rule="evenodd" fill-opacity="1" stroke="#000000" stroke-opacity="1" stroke-width="3.2"/>
<circle clip-path="url(#clip592)" cx="904.837" cy="1226.92" r="14" fill="#e26f46" fill-rule="evenodd" fill-opacity="1" stroke="#000000" stroke-opacity="1" stroke-width="3.2"/>
<circle clip-path="url(#clip592)" cx="747.057" cy="1152.14" r="14" fill="#e26f46" fill-rule="evenodd" fill-opacity="1" stroke="#000000" stroke-opacity="1" stroke-width="3.2"/>
<circle clip-path="url(#clip592)" cx="773.788" cy="1124.13" r="14" fill="#e26f46" fill-rule="evenodd" fill-opacity="1" stroke="#000000" stroke-opacity="1" stroke-width="3.2"/>
<circle clip-path="url(#clip592)" cx="823.376" cy="1139.84" r="14" fill="#e26f46" fill-rule="evenodd" fill-opacity="1" stroke="#000000" stroke-opacity="1" stroke-width="3.2"/>
<circle clip-path="url(#clip592)" cx="716.323" cy="1151.89" r="14" fill="#e26f46" fill-rule="evenodd" fill-opacity="1" stroke="#000000" stroke-opacity="1" stroke-width="3.2"/>
<circle clip-path="url(#clip592)" cx="904.539" cy="1110.73" r="14" fill="#e26f46" fill-rule="evenodd" fill-opacity="1" stroke="#000000" stroke-opacity="1" stroke-width="3.2"/>
<circle clip-path="url(#clip592)" cx="529.541" cy="1008.97" r="14" fill="#e26f46" fill-rule="evenodd" fill-opacity="1" stroke="#000000" stroke-opacity="1" stroke-width="3.2"/>
<circle clip-path="url(#clip592)" cx="795.923" cy="1136.36" r="14" fill="#e26f46" fill-rule="evenodd" fill-opacity="1" stroke="#000000" stroke-opacity="1" stroke-width="3.2"/>
<circle clip-path="url(#clip592)" cx="701.145" cy="1255.62" r="14" fill="#e26f46" fill-rule="evenodd" fill-opacity="1" stroke="#000000" stroke-opacity="1" stroke-width="3.2"/>
<circle clip-path="url(#clip592)" cx="627.847" cy="1093.63" r="14" fill="#e26f46" fill-rule="evenodd" fill-opacity="1" stroke="#000000" stroke-opacity="1" stroke-width="3.2"/>
<circle clip-path="url(#clip592)" cx="525.619" cy="1016.75" r="14" fill="#e26f46" fill-rule="evenodd" fill-opacity="1" stroke="#000000" stroke-opacity="1" stroke-width="3.2"/>
<circle clip-path="url(#clip592)" cx="558.067" cy="995.767" r="14" fill="#e26f46" fill-rule="evenodd" fill-opacity="1" stroke="#000000" stroke-opacity="1" stroke-width="3.2"/>
<circle clip-path="url(#clip592)" cx="457.06" cy="849.619" r="14" fill="#e26f46" fill-rule="evenodd" fill-opacity="1" stroke="#000000" stroke-opacity="1" stroke-width="3.2"/>
<circle clip-path="url(#clip592)" cx="829.686" cy="1212.02" r="14" fill="#e26f46" fill-rule="evenodd" fill-opacity="1" stroke="#000000" stroke-opacity="1" stroke-width="3.2"/>
<circle clip-path="url(#clip592)" cx="858.751" cy="1245.49" r="14" fill="#e26f46" fill-rule="evenodd" fill-opacity="1" stroke="#000000" stroke-opacity="1" stroke-width="3.2"/>
<circle clip-path="url(#clip592)" cx="336.644" cy="973.714" r="14" fill="#e26f46" fill-rule="evenodd" fill-opacity="1" stroke="#000000" stroke-opacity="1" stroke-width="3.2"/>
<circle clip-path="url(#clip592)" cx="722.197" cy="1029.75" r="14" fill="#e26f46" fill-rule="evenodd" fill-opacity="1" stroke="#000000" stroke-opacity="1" stroke-width="3.2"/>
<circle clip-path="url(#clip592)" cx="917.631" cy="1246.62" r="14" fill="#e26f46" fill-rule="evenodd" fill-opacity="1" stroke="#000000" stroke-opacity="1" stroke-width="3.2"/>
<circle clip-path="url(#clip592)" cx="341.135" cy="810.462" r="14" fill="#e26f46" fill-rule="evenodd" fill-opacity="1" stroke="#000000" stroke-opacity="1" stroke-width="3.2"/>
<circle clip-path="url(#clip592)" cx="880.839" cy="1010.93" r="14" fill="#e26f46" fill-rule="evenodd" fill-opacity="1" stroke="#000000" stroke-opacity="1" stroke-width="3.2"/>
<circle clip-path="url(#clip592)" cx="876.896" cy="1230.83" r="14" fill="#e26f46" fill-rule="evenodd" fill-opacity="1" stroke="#000000" stroke-opacity="1" stroke-width="3.2"/>
<circle clip-path="url(#clip592)" cx="484.086" cy="828.652" r="14" fill="#e26f46" fill-rule="evenodd" fill-opacity="1" stroke="#000000" stroke-opacity="1" stroke-width="3.2"/>
<circle clip-path="url(#clip592)" cx="579.645" cy="1021.2" r="14" fill="#e26f46" fill-rule="evenodd" fill-opacity="1" stroke="#000000" stroke-opacity="1" stroke-width="3.2"/>
<circle clip-path="url(#clip592)" cx="823.757" cy="1126.76" r="14" fill="#e26f46" fill-rule="evenodd" fill-opacity="1" stroke="#000000" stroke-opacity="1" stroke-width="3.2"/>
<circle clip-path="url(#clip592)" cx="806.433" cy="1116.01" r="14" fill="#e26f46" fill-rule="evenodd" fill-opacity="1" stroke="#000000" stroke-opacity="1" stroke-width="3.2"/>
<circle clip-path="url(#clip592)" cx="864.865" cy="1059.69" r="14" fill="#e26f46" fill-rule="evenodd" fill-opacity="1" stroke="#000000" stroke-opacity="1" stroke-width="3.2"/>
<circle clip-path="url(#clip592)" cx="902.967" cy="1221.48" r="14" fill="#e26f46" fill-rule="evenodd" fill-opacity="1" stroke="#000000" stroke-opacity="1" stroke-width="3.2"/>
<circle clip-path="url(#clip592)" cx="648.251" cy="1121.4" r="14" fill="#e26f46" fill-rule="evenodd" fill-opacity="1" stroke="#000000" stroke-opacity="1" stroke-width="3.2"/>
<circle clip-path="url(#clip592)" cx="803.164" cy="1111.84" r="14" fill="#e26f46" fill-rule="evenodd" fill-opacity="1" stroke="#000000" stroke-opacity="1" stroke-width="3.2"/>
<circle clip-path="url(#clip592)" cx="561.53" cy="996.326" r="14" fill="#e26f46" fill-rule="evenodd" fill-opacity="1" stroke="#000000" stroke-opacity="1" stroke-width="3.2"/>
<circle clip-path="url(#clip592)" cx="537.897" cy="963.351" r="14" fill="#e26f46" fill-rule="evenodd" fill-opacity="1" stroke="#000000" stroke-opacity="1" stroke-width="3.2"/>
<circle clip-path="url(#clip592)" cx="623.115" cy="996.885" r="14" fill="#e26f46" fill-rule="evenodd" fill-opacity="1" stroke="#000000" stroke-opacity="1" stroke-width="3.2"/>
<circle clip-path="url(#clip592)" cx="715.274" cy="1171.26" r="14" fill="#e26f46" fill-rule="evenodd" fill-opacity="1" stroke="#000000" stroke-opacity="1" stroke-width="3.2"/>
<circle clip-path="url(#clip592)" cx="811.62" cy="1134.81" r="14" fill="#e26f46" fill-rule="evenodd" fill-opacity="1" stroke="#000000" stroke-opacity="1" stroke-width="3.2"/>
<circle clip-path="url(#clip592)" cx="707.047" cy="999.029" r="14" fill="#e26f46" fill-rule="evenodd" fill-opacity="1" stroke="#000000" stroke-opacity="1" stroke-width="3.2"/>
<circle clip-path="url(#clip592)" cx="725.937" cy="1108.84" r="14" fill="#e26f46" fill-rule="evenodd" fill-opacity="1" stroke="#000000" stroke-opacity="1" stroke-width="3.2"/>
<circle clip-path="url(#clip592)" cx="649.168" cy="1141.58" r="14" fill="#e26f46" fill-rule="evenodd" fill-opacity="1" stroke="#000000" stroke-opacity="1" stroke-width="3.2"/>
<circle clip-path="url(#clip592)" cx="1004.91" cy="1085.19" r="14" fill="#e26f46" fill-rule="evenodd" fill-opacity="1" stroke="#000000" stroke-opacity="1" stroke-width="3.2"/>
<circle clip-path="url(#clip592)" cx="1010.64" cy="1239.72" r="14" fill="#e26f46" fill-rule="evenodd" fill-opacity="1" stroke="#000000" stroke-opacity="1" stroke-width="3.2"/>
<circle clip-path="url(#clip592)" cx="525.925" cy="942.364" r="14" fill="#e26f46" fill-rule="evenodd" fill-opacity="1" stroke="#000000" stroke-opacity="1" stroke-width="3.2"/>
<circle clip-path="url(#clip592)" cx="1150.38" cy="1302.11" r="14" fill="#e26f46" fill-rule="evenodd" fill-opacity="1" stroke="#000000" stroke-opacity="1" stroke-width="3.2"/>
<circle clip-path="url(#clip592)" cx="976.204" cy="1317.73" r="14" fill="#e26f46" fill-rule="evenodd" fill-opacity="1" stroke="#000000" stroke-opacity="1" stroke-width="3.2"/>
<circle clip-path="url(#clip592)" cx="575.447" cy="977.608" r="14" fill="#e26f46" fill-rule="evenodd" fill-opacity="1" stroke="#000000" stroke-opacity="1" stroke-width="3.2"/>
<circle clip-path="url(#clip592)" cx="838.208" cy="1262.51" r="14" fill="#e26f46" fill-rule="evenodd" fill-opacity="1" stroke="#000000" stroke-opacity="1" stroke-width="3.2"/>
<circle clip-path="url(#clip592)" cx="934.326" cy="1243.67" r="14" fill="#e26f46" fill-rule="evenodd" fill-opacity="1" stroke="#000000" stroke-opacity="1" stroke-width="3.2"/>
<circle clip-path="url(#clip592)" cx="693.057" cy="1090.12" r="14" fill="#e26f46" fill-rule="evenodd" fill-opacity="1" stroke="#000000" stroke-opacity="1" stroke-width="3.2"/>
<circle clip-path="url(#clip592)" cx="423.255" cy="986.785" r="14" fill="#e26f46" fill-rule="evenodd" fill-opacity="1" stroke="#000000" stroke-opacity="1" stroke-width="3.2"/>
<circle clip-path="url(#clip592)" cx="980.594" cy="1292.62" r="14" fill="#e26f46" fill-rule="evenodd" fill-opacity="1" stroke="#000000" stroke-opacity="1" stroke-width="3.2"/>
<circle clip-path="url(#clip592)" cx="982.257" cy="1183.3" r="14" fill="#e26f46" fill-rule="evenodd" fill-opacity="1" stroke="#000000" stroke-opacity="1" stroke-width="3.2"/>
<circle clip-path="url(#clip592)" cx="757.284" cy="1090.19" r="14" fill="#e26f46" fill-rule="evenodd" fill-opacity="1" stroke="#000000" stroke-opacity="1" stroke-width="3.2"/>
<circle clip-path="url(#clip592)" cx="512.569" cy="989.961" r="14" fill="#e26f46" fill-rule="evenodd" fill-opacity="1" stroke="#000000" stroke-opacity="1" stroke-width="3.2"/>
<circle clip-path="url(#clip592)" cx="634.06" cy="1035.43" r="14" fill="#e26f46" fill-rule="evenodd" fill-opacity="1" stroke="#000000" stroke-opacity="1" stroke-width="3.2"/>
<circle clip-path="url(#clip592)" cx="696.07" cy="1082.12" r="14" fill="#e26f46" fill-rule="evenodd" fill-opacity="1" stroke="#000000" stroke-opacity="1" stroke-width="3.2"/>
<circle clip-path="url(#clip592)" cx="633.446" cy="1019.19" r="14" fill="#e26f46" fill-rule="evenodd" fill-opacity="1" stroke="#000000" stroke-opacity="1" stroke-width="3.2"/>
<circle clip-path="url(#clip592)" cx="632.76" cy="1051.51" r="14" fill="#e26f46" fill-rule="evenodd" fill-opacity="1" stroke="#000000" stroke-opacity="1" stroke-width="3.2"/>
<circle clip-path="url(#clip592)" cx="676.974" cy="1144.24" r="14" fill="#e26f46" fill-rule="evenodd" fill-opacity="1" stroke="#000000" stroke-opacity="1" stroke-width="3.2"/>
<circle clip-path="url(#clip592)" cx="524.968" cy="971.61" r="14" fill="#e26f46" fill-rule="evenodd" fill-opacity="1" stroke="#000000" stroke-opacity="1" stroke-width="3.2"/>
<circle clip-path="url(#clip592)" cx="708.625" cy="1144.82" r="14" fill="#e26f46" fill-rule="evenodd" fill-opacity="1" stroke="#000000" stroke-opacity="1" stroke-width="3.2"/>
<circle clip-path="url(#clip592)" cx="726.61" cy="1063.84" r="14" fill="#e26f46" fill-rule="evenodd" fill-opacity="1" stroke="#000000" stroke-opacity="1" stroke-width="3.2"/>
<circle clip-path="url(#clip592)" cx="737.944" cy="1074.88" r="14" fill="#e26f46" fill-rule="evenodd" fill-opacity="1" stroke="#000000" stroke-opacity="1" stroke-width="3.2"/>
<circle clip-path="url(#clip592)" cx="720.783" cy="1042.31" r="14" fill="#e26f46" fill-rule="evenodd" fill-opacity="1" stroke="#000000" stroke-opacity="1" stroke-width="3.2"/>
<circle clip-path="url(#clip592)" cx="856.013" cy="1103.85" r="14" fill="#e26f46" fill-rule="evenodd" fill-opacity="1" stroke="#000000" stroke-opacity="1" stroke-width="3.2"/>
<circle clip-path="url(#clip592)" cx="672.932" cy="1061.65" r="14" fill="#e26f46" fill-rule="evenodd" fill-opacity="1" stroke="#000000" stroke-opacity="1" stroke-width="3.2"/>
<circle clip-path="url(#clip592)" cx="818.259" cy="1089.23" r="14" fill="#e26f46" fill-rule="evenodd" fill-opacity="1" stroke="#000000" stroke-opacity="1" stroke-width="3.2"/>
<circle clip-path="url(#clip592)" cx="578.708" cy="1085.19" r="14" fill="#e26f46" fill-rule="evenodd" fill-opacity="1" stroke="#000000" stroke-opacity="1" stroke-width="3.2"/>
<circle clip-path="url(#clip592)" cx="577.534" cy="1068.46" r="14" fill="#e26f46" fill-rule="evenodd" fill-opacity="1" stroke="#000000" stroke-opacity="1" stroke-width="3.2"/>
<circle clip-path="url(#clip592)" cx="669.293" cy="1119.12" r="14" fill="#e26f46" fill-rule="evenodd" fill-opacity="1" stroke="#000000" stroke-opacity="1" stroke-width="3.2"/>
<circle clip-path="url(#clip592)" cx="599.842" cy="1011.76" r="14" fill="#e26f46" fill-rule="evenodd" fill-opacity="1" stroke="#000000" stroke-opacity="1" stroke-width="3.2"/>
<circle clip-path="url(#clip592)" cx="728.44" cy="1006.53" r="14" fill="#e26f46" fill-rule="evenodd" fill-opacity="1" stroke="#000000" stroke-opacity="1" stroke-width="3.2"/>
<circle clip-path="url(#clip592)" cx="784.953" cy="1081.73" r="14" fill="#e26f46" fill-rule="evenodd" fill-opacity="1" stroke="#000000" stroke-opacity="1" stroke-width="3.2"/>
<circle clip-path="url(#clip592)" cx="612.041" cy="1058.63" r="14" fill="#e26f46" fill-rule="evenodd" fill-opacity="1" stroke="#000000" stroke-opacity="1" stroke-width="3.2"/>
<circle clip-path="url(#clip592)" cx="850.26" cy="1207.67" r="14" fill="#e26f46" fill-rule="evenodd" fill-opacity="1" stroke="#000000" stroke-opacity="1" stroke-width="3.2"/>
<circle clip-path="url(#clip592)" cx="710.31" cy="1108.75" r="14" fill="#e26f46" fill-rule="evenodd" fill-opacity="1" stroke="#000000" stroke-opacity="1" stroke-width="3.2"/>
<circle clip-path="url(#clip592)" cx="782.106" cy="1156.25" r="14" fill="#e26f46" fill-rule="evenodd" fill-opacity="1" stroke="#000000" stroke-opacity="1" stroke-width="3.2"/>
<circle clip-path="url(#clip592)" cx="637.883" cy="1049.12" r="14" fill="#e26f46" fill-rule="evenodd" fill-opacity="1" stroke="#000000" stroke-opacity="1" stroke-width="3.2"/>
<circle clip-path="url(#clip592)" cx="796.866" cy="1030.36" r="14" fill="#e26f46" fill-rule="evenodd" fill-opacity="1" stroke="#000000" stroke-opacity="1" stroke-width="3.2"/>
<circle clip-path="url(#clip592)" cx="846.63" cy="1201.33" r="14" fill="#e26f46" fill-rule="evenodd" fill-opacity="1" stroke="#000000" stroke-opacity="1" stroke-width="3.2"/>
<circle clip-path="url(#clip592)" cx="693.514" cy="1111.3" r="14" fill="#e26f46" fill-rule="evenodd" fill-opacity="1" stroke="#000000" stroke-opacity="1" stroke-width="3.2"/>
<circle clip-path="url(#clip592)" cx="965.602" cy="1155.02" r="14" fill="#e26f46" fill-rule="evenodd" fill-opacity="1" stroke="#000000" stroke-opacity="1" stroke-width="3.2"/>
<circle clip-path="url(#clip592)" cx="948.07" cy="1061.97" r="14" fill="#e26f46" fill-rule="evenodd" fill-opacity="1" stroke="#000000" stroke-opacity="1" stroke-width="3.2"/>
<circle clip-path="url(#clip592)" cx="653.37" cy="1030.41" r="14" fill="#e26f46" fill-rule="evenodd" fill-opacity="1" stroke="#000000" stroke-opacity="1" stroke-width="3.2"/>
<circle clip-path="url(#clip592)" cx="851.181" cy="1184.24" r="14" fill="#e26f46" fill-rule="evenodd" fill-opacity="1" stroke="#000000" stroke-opacity="1" stroke-width="3.2"/>
<circle clip-path="url(#clip592)" cx="735.135" cy="1184.48" r="14" fill="#e26f46" fill-rule="evenodd" fill-opacity="1" stroke="#000000" stroke-opacity="1" stroke-width="3.2"/>
<polyline clip-path="url(#clip592)" style="stroke:#090621; stroke-linecap:butt; stroke-linejoin:round; stroke-width:4; stroke-opacity:1; fill:none" points="
  625.486,1317.12 620.629,1313.62 610.742,1306.5 605.448,1302.69 595.999,1295.88 590.267,1291.75 581.255,1285.26 575.086,1280.82 566.512,1274.65 559.905,1269.89 
  551.768,1264.03 544.724,1258.95 537.024,1253.41 529.543,1248.02 522.281,1242.79 514.362,1237.09 507.537,1232.17 499.181,1226.16 492.793,1221.56 484,1215.22 
  478.05,1210.94 468.819,1204.29 463.306,1200.32 453.638,1193.36 448.562,1189.7 438.457,1182.42 
  "/>
<polyline clip-path="url(#clip592)" style="stroke:#1f0c47; stroke-linecap:butt; stroke-linejoin:round; stroke-width:4; stroke-opacity:1; fill:none" points="
  438.457,1047.73 443.924,1051.67 453.638,1058.67 458.667,1062.29 468.819,1069.6 473.411,1072.9 484,1080.53 488.155,1083.52 499.181,1091.46 502.898,1094.14 
  514.362,1102.4 517.642,1104.76 529.543,1113.33 532.386,1115.38 544.724,1124.26 547.129,1125.99 559.905,1135.2 561.873,1136.61 575.086,1146.13 576.616,1147.23 
  590.267,1157.06 591.36,1157.85 605.448,1167.99 606.104,1168.47 620.629,1178.93 620.847,1179.08 635.591,1189.7 635.81,1189.86 650.335,1200.32 650.991,1200.79 
  665.078,1210.94 666.172,1211.73 679.822,1221.56 681.353,1222.66 694.566,1232.17 696.533,1233.59 709.309,1242.79 711.714,1244.52 724.053,1253.41 726.895,1255.46 
  738.797,1264.03 742.076,1266.39 753.54,1274.65 757.257,1277.32 768.284,1285.26 772.438,1288.26 783.027,1295.88 787.619,1299.19 797.771,1306.5 802.8,1310.12 
  812.515,1317.12 
  "/>
<polyline clip-path="url(#clip592)" style="stroke:#3b0964; stroke-linecap:butt; stroke-linejoin:round; stroke-width:4; stroke-opacity:1; fill:none" points="
  999.543,1317.12 984.971,1306.62 984.8,1306.5 970.056,1295.88 969.79,1295.69 955.312,1285.26 954.609,1284.76 940.569,1274.65 939.428,1273.82 925.825,1264.03 
  924.248,1262.89 911.081,1253.41 909.067,1251.96 896.338,1242.79 893.886,1241.03 881.594,1232.17 878.705,1230.09 866.851,1221.56 863.524,1219.16 852.107,1210.94 
  848.343,1208.23 837.363,1200.32 833.162,1197.29 822.62,1189.7 817.981,1186.36 807.876,1179.08 802.8,1175.43 793.132,1168.47 787.619,1164.5 778.389,1157.85 
  772.438,1153.56 763.645,1147.23 757.257,1142.63 748.901,1136.61 742.076,1131.7 734.158,1125.99 726.895,1120.76 719.414,1115.38 711.714,1109.83 704.671,1104.76 
  696.533,1098.9 689.927,1094.14 681.353,1087.97 675.183,1083.52 666.172,1077.03 660.44,1072.9 650.991,1066.1 645.696,1062.29 635.81,1055.17 630.952,1051.67 
  620.629,1044.23 616.209,1041.05 605.448,1033.3 601.465,1030.43 590.267,1022.37 586.721,1019.82 575.086,1011.44 571.978,1009.2 559.905,1000.5 557.234,998.579 
  544.724,989.57 542.491,987.961 529.543,978.637 527.747,977.344 514.362,967.704 513.003,966.726 499.181,956.771 498.26,956.108 484,945.839 483.516,945.49 
  468.819,934.906 468.772,934.872 454.029,924.254 453.638,923.973 439.285,913.636 438.457,913.04 
  "/>
<polyline clip-path="url(#clip592)" style="stroke:#550f6d; stroke-linecap:butt; stroke-linejoin:round; stroke-width:4; stroke-opacity:1; fill:none" points="
  438.457,778.348 449.39,786.221 453.638,789.281 464.134,796.839 468.819,800.213 478.877,807.457 484,811.146 493.621,818.075 499.181,822.079 508.365,828.693 
  514.362,833.012 523.108,839.311 529.543,843.945 537.852,849.928 544.724,854.878 552.595,860.546 559.905,865.81 567.339,871.164 575.086,876.743 582.083,881.782 
  590.267,887.676 596.826,892.4 605.448,898.609 611.57,903.018 620.629,909.542 626.314,913.636 635.81,920.475 641.057,924.254 650.991,931.408 655.801,934.872 
  666.172,942.34 670.545,945.49 681.353,953.273 685.288,956.108 696.533,964.206 700.032,966.726 711.714,975.139 714.776,977.344 726.895,986.072 729.519,987.961 
  742.076,997.005 744.263,998.579 757.257,1007.94 759.006,1009.2 772.438,1018.87 773.75,1019.82 787.619,1029.8 788.494,1030.43 802.8,1040.74 803.237,1041.05 
  817.981,1051.67 817.981,1051.67 832.725,1062.29 833.162,1062.6 847.468,1072.9 848.343,1073.53 862.212,1083.52 863.524,1084.47 876.956,1094.14 878.705,1095.4 
  891.699,1104.76 893.886,1106.33 906.443,1115.38 909.067,1117.27 921.186,1125.99 924.248,1128.2 935.93,1136.61 939.428,1139.13 950.674,1147.23 954.609,1150.06 
  965.417,1157.85 969.79,1161 980.161,1168.47 984.971,1171.93 994.905,1179.08 1000.15,1182.86 1009.65,1189.7 1015.33,1193.8 1024.39,1200.32 1030.51,1204.73 
  1039.14,1210.94 1045.7,1215.66 1053.88,1221.56 1060.88,1226.59 1068.62,1232.17 1076.06,1237.53 1083.37,1242.79 1091.24,1248.46 1098.11,1253.41 1106.42,1259.39 
  1112.85,1264.03 1121.6,1270.33 1127.6,1274.65 1136.78,1281.26 1142.34,1285.26 1151.96,1292.19 1157.08,1295.88 1167.14,1303.12 1171.83,1306.5 1182.32,1314.06 
  1186.57,1317.12 
  "/>
<polyline clip-path="url(#clip592)" style="stroke:#6e186e; stroke-linecap:butt; stroke-linejoin:round; stroke-width:4; stroke-opacity:1; fill:none" points="
  1373.6,1317.12 1364.49,1310.56 1358.86,1306.5 1349.31,1299.63 1344.11,1295.88 1334.13,1288.69 1329.37,1285.26 1318.95,1277.76 1314.63,1274.65 1303.77,1266.83 
  1299.88,1264.03 1288.59,1255.9 1285.14,1253.41 1273.41,1244.96 1270.4,1242.79 1258.23,1234.03 1255.65,1232.17 1243.05,1223.1 1240.91,1221.56 1227.87,1212.16 
  1226.16,1210.94 1212.69,1201.23 1211.42,1200.32 1197.5,1190.3 1196.68,1189.7 1182.32,1179.37 1181.93,1179.08 1167.19,1168.47 1167.14,1168.43 1152.45,1157.85 
  1151.96,1157.5 1137.7,1147.23 1136.78,1146.57 1122.96,1136.61 1121.6,1135.63 1108.22,1125.99 1106.42,1124.7 1093.47,1115.38 1091.24,1113.77 1078.73,1104.76 
  1076.06,1102.84 1063.98,1094.14 1060.88,1091.9 1049.24,1083.52 1045.7,1080.97 1034.5,1072.9 1030.51,1070.04 1019.75,1062.29 1015.33,1059.1 1005.01,1051.67 
  1000.15,1048.17 990.266,1041.05 984.971,1037.24 975.522,1030.43 969.79,1026.31 960.779,1019.82 954.609,1015.37 946.035,1009.2 939.428,1004.44 931.291,998.579 
  924.248,993.507 916.548,987.961 909.067,982.574 901.804,977.344 893.886,971.641 887.06,966.726 878.705,960.708 872.317,956.108 863.524,949.775 857.573,945.49 
  848.343,938.842 842.83,934.872 833.162,927.909 828.086,924.254 817.981,916.977 813.342,913.636 802.8,906.044 798.599,903.018 787.619,895.111 783.855,892.4 
  772.438,884.178 769.111,881.782 757.257,873.245 754.368,871.164 742.076,862.312 739.624,860.546 726.895,851.38 724.88,849.928 711.714,840.447 710.137,839.311 
  696.533,829.514 695.393,828.693 681.353,818.581 680.65,818.075 666.172,807.648 665.906,807.457 651.162,796.839 650.991,796.715 636.419,786.221 635.81,785.782 
  621.675,775.603 620.629,774.85 606.931,764.985 605.448,763.917 592.188,754.367 590.267,752.984 577.444,743.749 575.086,742.051 562.7,733.131 559.905,731.118 
  547.957,722.513 544.724,720.185 533.213,711.896 529.543,709.252 518.47,701.278 514.362,698.32 503.726,690.66 499.181,687.387 488.982,680.042 484,676.454 
  474.239,669.424 468.819,665.521 459.495,658.806 453.638,654.588 444.751,648.188 438.457,643.655 
  "/>
<polyline clip-path="url(#clip592)" style="stroke:#88216a; stroke-linecap:butt; stroke-linejoin:round; stroke-width:4; stroke-opacity:1; fill:none" points="
  438.457,508.963 440.113,510.155 453.638,519.896 454.856,520.773 468.819,530.829 469.6,531.391 484,541.762 484.344,542.009 499.087,552.627 499.181,552.694 
  513.831,563.245 514.362,563.627 528.574,573.863 529.543,574.56 543.318,584.48 544.724,585.493 558.062,595.098 559.905,596.426 572.805,605.716 575.086,607.359 
  587.549,616.334 590.267,618.292 602.293,626.952 605.448,629.224 617.036,637.57 620.629,640.157 631.78,648.188 635.81,651.09 646.524,658.806 650.991,662.023 
  661.267,669.424 666.172,672.956 676.011,680.042 681.353,683.889 690.754,690.66 696.533,694.821 705.498,701.278 711.714,705.754 720.242,711.896 726.895,716.687 
  734.985,722.513 742.076,727.62 749.729,733.131 757.257,738.553 764.473,743.749 772.438,749.486 779.216,754.367 787.619,760.419 793.96,764.985 802.8,771.351 
  808.704,775.603 817.981,782.284 823.447,786.221 833.162,793.217 838.191,796.839 848.343,804.15 852.935,807.457 863.524,815.083 867.678,818.075 878.705,826.016 
  882.422,828.693 893.886,836.949 897.165,839.311 909.067,847.881 911.909,849.928 924.248,858.814 926.653,860.546 939.428,869.747 941.396,871.164 954.609,880.68 
  956.14,881.782 969.79,891.613 970.884,892.4 984.971,902.546 985.627,903.018 1000.15,913.479 1000.37,913.636 1015.11,924.254 1015.33,924.411 1029.86,934.872 
  1030.51,935.344 1044.6,945.49 1045.7,946.277 1059.35,956.108 1060.88,957.21 1074.09,966.726 1076.06,968.143 1088.83,977.344 1091.24,979.076 1103.58,987.961 
  1106.42,990.008 1118.32,998.579 1121.6,1000.94 1133.06,1009.2 1136.78,1011.87 1147.81,1019.82 1151.96,1022.81 1162.55,1030.43 1167.14,1033.74 1177.29,1041.05 
  1182.32,1044.67 1192.04,1051.67 1197.5,1055.61 1206.78,1062.29 1212.69,1066.54 1221.53,1072.9 1227.87,1077.47 1236.27,1083.52 1243.05,1088.4 1251.01,1094.14 
  1258.23,1099.34 1265.76,1104.76 1273.41,1110.27 1280.5,1115.38 1288.59,1121.2 1295.24,1125.99 1303.77,1132.14 1309.99,1136.61 1318.95,1143.07 1324.73,1147.23 
  1334.13,1154 1339.47,1157.85 1349.31,1164.93 1354.22,1168.47 1364.49,1175.87 1368.96,1179.08 1379.68,1186.8 1383.71,1189.7 1394.86,1197.73 1398.45,1200.32 
  1410.04,1208.67 1413.19,1210.94 1425.22,1219.6 1427.94,1221.56 1440.4,1230.53 1442.68,1232.17 1455.58,1241.46 1457.42,1242.79 1470.76,1252.4 1472.17,1253.41 
  1485.94,1263.33 1486.91,1264.03 1501.12,1274.26 1501.65,1274.65 1516.3,1285.2 1516.4,1285.26 1531.14,1295.88 1531.49,1296.13 1545.89,1306.5 1546.67,1307.06 
  1560.63,1317.12 
  "/>
<polyline clip-path="url(#clip592)" style="stroke:#a12b61; stroke-linecap:butt; stroke-linejoin:round; stroke-width:4; stroke-opacity:1; fill:none" points="
  1747.66,1317.12 1744.02,1314.5 1732.91,1306.5 1728.84,1303.56 1718.17,1295.88 1713.66,1292.63 1703.43,1285.26 1698.48,1281.7 1688.68,1274.65 1683.29,1270.76 
  1673.94,1264.03 1668.11,1259.83 1659.2,1253.41 1652.93,1248.9 1644.45,1242.79 1637.75,1237.97 1629.71,1232.17 1622.57,1227.03 1614.97,1221.56 1607.39,1216.1 
  1600.22,1210.94 1592.21,1205.17 1585.48,1200.32 1577.03,1194.23 1570.73,1189.7 1561.85,1183.3 1555.99,1179.08 1546.67,1172.37 1541.25,1168.47 1531.49,1161.44 
  1526.5,1157.85 1516.3,1150.5 1511.76,1147.23 1501.12,1139.57 1497.02,1136.61 1485.94,1128.64 1482.27,1125.99 1470.76,1117.7 1467.53,1115.38 1455.58,1106.77 
  1452.79,1104.76 1440.4,1095.84 1438.04,1094.14 1425.22,1084.91 1423.3,1083.52 1410.04,1073.97 1408.55,1072.9 1394.86,1063.04 1393.81,1062.29 1379.68,1052.11 
  1379.07,1051.67 1364.49,1041.17 1364.32,1041.05 1349.58,1030.43 1349.31,1030.24 1334.84,1019.82 1334.13,1019.31 1320.09,1009.2 1318.95,1008.38 1305.35,998.579 
  1303.77,997.443 1290.61,987.961 1288.59,986.51 1275.86,977.344 1273.41,975.578 1261.12,966.726 1258.23,964.645 1246.37,956.108 1243.05,953.712 1231.63,945.49 
  1227.87,942.779 1216.89,934.872 1212.69,931.846 1202.14,924.254 1197.5,920.913 1187.4,913.636 1182.32,909.98 1172.66,903.018 1167.14,899.048 1157.91,892.4 
  1151.96,888.115 1143.17,881.782 1136.78,877.182 1128.42,871.164 1121.6,866.249 1113.68,860.546 1106.42,855.316 1098.94,849.928 1091.24,844.383 1084.19,839.311 
  1076.06,833.45 1069.45,828.693 1060.88,822.518 1054.71,818.075 1045.7,811.585 1039.96,807.457 1030.51,800.652 1025.22,796.839 1015.33,789.719 1010.48,786.221 
  1000.15,778.786 995.732,775.603 984.971,767.853 980.989,764.985 969.79,756.92 966.245,754.367 954.609,745.988 951.501,743.749 939.428,735.055 936.758,733.131 
  924.248,724.122 922.014,722.513 909.067,713.189 907.27,711.896 893.886,702.256 892.527,701.278 878.705,691.323 877.783,690.66 863.524,680.391 863.039,680.042 
  848.343,669.458 848.296,669.424 833.552,658.806 833.162,658.525 818.809,648.188 817.981,647.592 804.065,637.57 802.8,636.659 789.321,626.952 787.619,625.726 
  774.578,616.334 772.438,614.793 759.834,605.716 757.257,603.861 745.09,595.098 742.076,592.928 730.347,584.48 726.895,581.995 715.603,573.863 711.714,571.062 
  700.859,563.245 696.533,560.129 686.116,552.627 681.353,549.196 671.372,542.009 666.172,538.263 656.629,531.391 650.991,527.331 641.885,520.773 635.81,516.398 
  627.141,510.155 620.629,505.465 612.398,499.537 605.448,494.532 597.654,488.919 590.267,483.599 582.91,478.301 575.086,472.666 568.167,467.683 559.905,461.734 
  553.423,457.065 544.724,450.801 538.679,446.447 529.543,439.868 523.936,435.83 514.362,428.935 509.192,425.212 499.181,418.002 494.449,414.594 484,407.069 
  479.705,403.976 468.819,396.136 464.961,393.358 453.638,385.204 450.218,382.74 438.457,374.271 
  "/>
<polyline clip-path="url(#clip592)" style="stroke:#ba3655; stroke-linecap:butt; stroke-linejoin:round; stroke-width:4; stroke-opacity:1; fill:none" points="
  460.323,255.325 468.819,261.444 475.066,265.943 484,272.377 489.81,276.561 499.181,283.31 504.553,287.179 514.362,294.243 519.297,297.797 529.543,305.175 
  534.041,308.415 544.724,316.108 548.784,319.032 559.905,327.041 563.528,329.65 575.086,337.974 578.272,340.268 590.267,348.907 593.015,350.886 605.448,359.84 
  607.759,361.504 620.629,370.773 622.503,372.122 635.81,381.705 637.246,382.74 650.991,392.638 651.99,393.358 666.172,403.571 666.733,403.976 681.353,414.504 
  681.477,414.594 696.221,425.212 696.533,425.437 710.964,435.83 711.714,436.37 725.708,446.447 726.895,447.303 740.452,457.065 742.076,458.235 755.195,467.683 
  757.257,469.168 769.939,478.301 772.438,480.101 784.683,488.919 787.619,491.034 799.426,499.537 802.8,501.967 814.17,510.155 817.981,512.9 828.914,520.773 
  833.162,523.833 843.657,531.391 848.343,534.765 858.401,542.009 863.524,545.698 873.144,552.627 878.705,556.631 887.888,563.245 893.886,567.564 902.632,573.863 
  909.067,578.497 917.375,584.48 924.248,589.43 932.119,595.098 939.428,600.362 946.863,605.716 954.609,611.295 961.606,616.334 969.79,622.228 976.35,626.952 
  984.971,633.161 991.094,637.57 1000.15,644.094 1005.84,648.188 1015.33,655.027 1020.58,658.806 1030.51,665.96 1035.32,669.424 1045.7,676.892 1050.07,680.042 
  1060.88,687.825 1064.81,690.66 1076.06,698.758 1079.56,701.278 1091.24,709.691 1094.3,711.896 1106.42,720.624 1109.04,722.513 1121.6,731.557 1123.79,733.131 
  1136.78,742.49 1138.53,743.749 1151.96,753.422 1153.27,754.367 1167.14,764.355 1168.02,764.985 1182.32,775.288 1182.76,775.603 1197.5,786.221 1197.5,786.221 
  1212.25,796.839 1212.69,797.154 1226.99,807.457 1227.87,808.087 1241.74,818.075 1243.05,819.02 1256.48,828.693 1258.23,829.952 1271.22,839.311 1273.41,840.885 
  1285.97,849.928 1288.59,851.818 1300.71,860.546 1303.77,862.751 1315.45,871.164 1318.95,873.684 1330.2,881.782 1334.13,884.617 1344.94,892.4 1349.31,895.549 
  1359.68,903.018 1364.49,906.482 1374.43,913.636 1379.68,917.415 1389.17,924.254 1394.86,928.348 1403.92,934.872 1410.04,939.281 1418.66,945.49 1425.22,950.214 
  1433.4,956.108 1440.4,961.147 1448.15,966.726 1455.58,972.079 1462.89,977.344 1470.76,983.012 1477.63,987.961 1485.94,993.945 1492.38,998.579 1501.12,1004.88 
  1507.12,1009.2 1516.3,1015.81 1521.86,1019.82 1531.49,1026.74 1536.61,1030.43 1546.67,1037.68 1551.35,1041.05 1561.85,1048.61 1566.1,1051.67 1577.03,1059.54 
  1580.84,1062.29 1592.21,1070.48 1595.58,1072.9 1607.39,1081.41 1610.33,1083.52 1622.57,1092.34 1625.07,1094.14 1637.75,1103.27 1639.81,1104.76 1652.93,1114.21 
  1654.56,1115.38 1668.11,1125.14 1669.3,1125.99 1683.29,1136.07 1684.04,1136.61 1698.48,1147.01 1698.79,1147.23 1713.53,1157.85 1713.66,1157.94 1728.28,1168.47 
  1728.84,1168.87 1743.02,1179.08 1744.02,1179.8 1757.76,1189.7 1759.2,1190.74 1772.51,1200.32 1774.38,1201.67 1787.25,1210.94 1789.56,1212.6 1801.99,1221.56 
  1804.74,1223.54 1816.74,1232.17 1819.92,1234.47 1831.48,1242.79 1835.1,1245.4 1846.22,1253.41 1850.28,1256.33 1860.97,1264.03 1865.47,1267.27 1875.71,1274.65 
  1880.65,1278.2 1890.46,1285.26 1895.83,1289.13 1905.2,1295.88 1911.01,1300.06 1919.94,1306.5 1926.19,1311 1934.69,1317.12 
  "/>
<polyline clip-path="url(#clip592)" style="stroke:#d04544; stroke-linecap:butt; stroke-linejoin:round; stroke-width:4; stroke-opacity:1; fill:none" points="
  1956.55,1198.17 1944.79,1189.7 1941.37,1187.24 1930.05,1179.08 1926.19,1176.31 1915.3,1168.47 1911.01,1165.37 1900.56,1157.85 1895.83,1154.44 1885.82,1147.23 
  1880.65,1143.51 1871.07,1136.61 1865.47,1132.57 1856.33,1125.99 1850.28,1121.64 1841.59,1115.38 1835.1,1110.71 1826.84,1104.76 1819.92,1099.78 1812.1,1094.14 
  1804.74,1088.84 1797.35,1083.52 1789.56,1077.91 1782.61,1072.9 1774.38,1066.98 1767.87,1062.29 1759.2,1056.04 1753.12,1051.67 1744.02,1045.11 1738.38,1041.05 
  1728.84,1034.18 1723.64,1030.43 1713.66,1023.25 1708.89,1019.82 1698.48,1012.31 1694.15,1009.2 1683.29,1001.38 1679.41,998.579 1668.11,990.447 1664.66,987.961 
  1652.93,979.514 1649.92,977.344 1637.75,968.581 1635.17,966.726 1622.57,957.648 1620.43,956.108 1607.39,946.716 1605.69,945.49 1592.21,935.783 1590.94,934.872 
  1577.03,924.85 1576.2,924.254 1561.85,913.917 1561.46,913.636 1546.71,903.018 1546.67,902.984 1531.97,892.4 1531.49,892.051 1517.23,881.782 1516.3,881.119 
  1502.48,871.164 1501.12,870.186 1487.74,860.546 1485.94,859.253 1472.99,849.928 1470.76,848.32 1458.25,839.311 1455.58,837.387 1443.51,828.693 1440.4,826.454 
  1428.76,818.075 1425.22,815.521 1414.02,807.457 1410.04,804.589 1399.28,796.839 1394.86,793.656 1384.53,786.221 1379.68,782.723 1369.79,775.603 1364.49,771.79 
  1355.05,764.985 1349.31,760.857 1340.3,754.367 1334.13,749.924 1325.56,743.749 1318.95,738.991 1310.81,733.131 1303.77,728.059 1296.07,722.513 1288.59,717.126 
  1281.33,711.896 1273.41,706.193 1266.58,701.278 1258.23,695.26 1251.84,690.66 1243.05,684.327 1237.1,680.042 1227.87,673.394 1222.35,669.424 1212.69,662.461 
  1207.61,658.806 1197.5,651.529 1192.87,648.188 1182.32,640.596 1178.12,637.57 1167.14,629.663 1163.38,626.952 1151.96,618.73 1148.63,616.334 1136.78,607.797 
  1133.89,605.716 1121.6,596.864 1119.15,595.098 1106.42,585.932 1104.4,584.48 1091.24,574.999 1089.66,573.863 1076.06,564.066 1074.92,563.245 1060.88,553.133 
  1060.17,552.627 1045.7,542.2 1045.43,542.009 1030.69,531.391 1030.51,531.267 1015.94,520.773 1015.33,520.334 1001.2,510.155 1000.15,509.402 986.455,499.537 
  984.971,498.469 971.711,488.919 969.79,487.536 956.968,478.301 954.609,476.603 942.224,467.683 939.428,465.67 927.48,457.065 924.248,454.737 912.737,446.447 
  909.067,443.804 897.993,435.83 893.886,432.872 883.249,425.212 878.705,421.939 868.506,414.594 863.524,411.006 853.762,403.976 848.343,400.073 839.018,393.358 
  833.162,389.14 824.275,382.74 817.981,378.207 809.531,372.122 802.8,367.274 794.788,361.504 787.619,356.342 780.044,350.886 772.438,345.409 765.3,340.268 
  757.257,334.476 750.557,329.65 742.076,323.543 735.813,319.032 726.895,312.61 721.069,308.415 711.714,301.677 706.326,297.797 696.533,290.745 691.582,287.179 
  681.353,279.812 676.838,276.561 666.172,268.879 662.095,265.943 650.991,257.946 647.351,255.325 
  "/>
<polyline clip-path="url(#clip592)" style="stroke:#e35832; stroke-linecap:butt; stroke-linejoin:round; stroke-width:4; stroke-opacity:1; fill:none" points="
  834.38,255.325 848.343,265.381 849.123,265.943 863.524,276.314 863.867,276.561 878.611,287.179 878.705,287.246 893.354,297.797 893.886,298.179 908.098,308.415 
  909.067,309.112 922.842,319.032 924.248,320.045 937.585,329.65 939.428,330.978 952.329,340.268 954.609,341.911 967.073,350.886 969.79,352.844 981.816,361.504 
  984.971,363.776 996.56,372.122 1000.15,374.709 1011.3,382.74 1015.33,385.642 1026.05,393.358 1030.51,396.575 1040.79,403.976 1045.7,407.508 1055.53,414.594 
  1060.88,418.441 1070.28,425.212 1076.06,429.373 1085.02,435.83 1091.24,440.306 1099.77,446.447 1106.42,451.239 1114.51,457.065 1121.6,462.172 1129.25,467.683 
  1136.78,473.105 1144,478.301 1151.96,484.038 1158.74,488.919 1167.14,494.971 1173.48,499.537 1182.32,505.903 1188.23,510.155 1197.5,516.836 1202.97,520.773 
  1212.69,527.769 1217.71,531.391 1227.87,538.702 1232.46,542.009 1243.05,549.635 1247.2,552.627 1258.23,560.568 1261.95,563.245 1273.41,571.501 1276.69,573.863 
  1288.59,582.433 1291.43,584.48 1303.77,593.366 1306.18,595.098 1318.95,604.299 1320.92,605.716 1334.13,615.232 1335.66,616.334 1349.31,626.165 1350.41,626.952 
  1364.49,637.098 1365.15,637.57 1379.68,648.031 1379.89,648.188 1394.64,658.806 1394.86,658.963 1409.38,669.424 1410.04,669.896 1424.13,680.042 1425.22,680.829 
  1438.87,690.66 1440.4,691.762 1453.61,701.278 1455.58,702.695 1468.36,711.896 1470.76,713.628 1483.1,722.513 1485.94,724.56 1497.84,733.131 1501.12,735.493 
  1512.59,743.749 1516.3,746.426 1527.33,754.367 1531.49,757.359 1542.07,764.985 1546.67,768.292 1556.82,775.603 1561.85,779.225 1571.56,786.221 1577.03,790.158 
  1586.31,796.839 1592.21,801.09 1601.05,807.457 1607.39,812.023 1615.79,818.075 1622.57,822.956 1630.54,828.693 1637.75,833.889 1645.28,839.311 1652.93,844.822 
  1660.02,849.928 1668.11,855.755 1674.77,860.546 1683.29,866.688 1689.51,871.164 1698.48,877.62 1704.25,881.782 1713.66,888.553 1719,892.4 1728.84,899.486 
  1733.74,903.018 1744.02,910.419 1748.49,913.636 1759.2,921.352 1763.23,924.254 1774.38,932.285 1777.97,934.872 1789.56,943.218 1792.72,945.49 1804.74,954.15 
  1807.46,956.108 1819.92,965.083 1822.2,966.726 1835.1,976.016 1836.95,977.344 1850.28,986.949 1851.69,987.961 1865.47,997.882 1866.43,998.579 1880.65,1008.81 
  1881.18,1009.2 1895.83,1019.75 1895.92,1019.82 1910.67,1030.43 1911.01,1030.68 1925.41,1041.05 1926.19,1041.61 1940.15,1051.67 1941.37,1052.55 1954.9,1062.29 
  1956.55,1063.48 
  "/>
<polyline clip-path="url(#clip592)" style="stroke:#f0701e; stroke-linecap:butt; stroke-linejoin:round; stroke-width:4; stroke-opacity:1; fill:none" points="
  1956.55,928.787 1950.26,924.254 1941.37,917.854 1935.51,913.636 1926.19,906.921 1920.77,903.018 1911.01,895.988 1906.03,892.4 1895.83,885.055 1891.28,881.782 
  1880.65,874.122 1876.54,871.164 1865.47,863.189 1861.8,860.546 1850.28,852.257 1847.05,849.928 1835.1,841.324 1832.31,839.311 1819.92,830.391 1817.56,828.693 
  1804.74,819.458 1802.82,818.075 1789.56,808.525 1788.08,807.457 1774.38,797.592 1773.33,796.839 1759.2,786.659 1758.59,786.221 1744.02,775.727 1743.85,775.603 
  1729.1,764.985 1728.84,764.794 1714.36,754.367 1713.66,753.861 1699.62,743.749 1698.48,742.928 1684.87,733.131 1683.29,731.995 1670.13,722.513 1668.11,721.062 
  1655.38,711.896 1652.93,710.13 1640.64,701.278 1637.75,699.197 1625.9,690.66 1622.57,688.264 1611.15,680.042 1607.39,677.331 1596.41,669.424 1592.21,666.398 
  1581.67,658.806 1577.03,655.465 1566.92,648.188 1561.85,644.532 1552.18,637.57 1546.67,633.6 1537.44,626.952 1531.49,622.667 1522.69,616.334 1516.3,611.734 
  1507.95,605.716 1501.12,600.801 1493.2,595.098 1485.94,589.868 1478.46,584.48 1470.76,578.935 1463.72,573.863 1455.58,568.002 1448.97,563.245 1440.4,557.07 
  1434.23,552.627 1425.22,546.137 1419.49,542.009 1410.04,535.204 1404.74,531.391 1394.86,524.271 1390,520.773 1379.68,513.338 1375.26,510.155 1364.49,502.405 
  1360.51,499.537 1349.31,491.472 1345.77,488.919 1334.13,480.54 1331.02,478.301 1318.95,469.607 1316.28,467.683 1303.77,458.674 1301.54,457.065 1288.59,447.741 
  1286.79,446.447 1273.41,436.808 1272.05,435.83 1258.23,425.875 1257.31,425.212 1243.05,414.943 1242.56,414.594 1227.87,404.01 1227.82,403.976 1213.08,393.358 
  1212.69,393.077 1198.33,382.74 1197.5,382.144 1183.59,372.122 1182.32,371.211 1168.84,361.504 1167.14,360.278 1154.1,350.886 1151.96,349.345 1139.36,340.268 
  1136.78,338.413 1124.61,329.65 1121.6,327.48 1109.87,319.032 1106.42,316.547 1095.13,308.415 1091.24,305.614 1080.38,297.797 1076.06,294.681 1065.64,287.179 
  1060.88,283.748 1050.9,276.561 1045.7,272.815 1036.15,265.943 1030.51,261.883 1021.41,255.325 
  "/>
<polyline clip-path="url(#clip592)" style="stroke:#f98c09; stroke-linecap:butt; stroke-linejoin:round; stroke-width:4; stroke-opacity:1; fill:none" points="
  1208.44,255.325 1212.69,258.384 1223.18,265.943 1227.87,269.317 1237.92,276.561 1243.05,280.25 1252.67,287.179 1258.23,291.183 1267.41,297.797 1273.41,302.116 
  1282.16,308.415 1288.59,313.049 1296.9,319.032 1303.77,323.982 1311.64,329.65 1318.95,334.914 1326.39,340.268 1334.13,345.847 1341.13,350.886 1349.31,356.78 
  1355.87,361.504 1364.49,367.713 1370.62,372.122 1379.68,378.646 1385.36,382.74 1394.86,389.579 1400.1,393.358 1410.04,400.512 1414.85,403.976 1425.22,411.444 
  1429.59,414.594 1440.4,422.377 1444.34,425.212 1455.58,433.31 1459.08,435.83 1470.76,444.243 1473.82,446.447 1485.94,455.176 1488.57,457.065 1501.12,466.109 
  1503.31,467.683 1516.3,477.042 1518.05,478.301 1531.49,487.974 1532.8,488.919 1546.67,498.907 1547.54,499.537 1561.85,509.84 1562.28,510.155 1577.03,520.773 
  1591.77,531.391 1592.21,531.706 1606.52,542.009 1607.39,542.639 1621.26,552.627 1622.57,553.571 1636,563.245 1637.75,564.504 1650.75,573.863 
  1652.93,575.437 1665.49,584.48 1668.11,586.37 1680.23,595.098 1683.29,597.303 1694.98,605.716 1698.48,608.236 1709.72,616.334 1713.66,619.169 1724.46,626.952 
  1728.84,630.101 1739.21,637.57 1744.02,641.034 1753.95,648.188 1759.2,651.967 1768.7,658.806 1774.38,662.9 1783.44,669.424 1789.56,673.833 1798.18,680.042 
  1804.74,684.766 1812.93,690.66 1819.92,695.699 1827.67,701.278 1835.1,706.631 1842.41,711.896 1850.28,717.564 1857.16,722.513 1865.47,728.497 1871.9,733.131 
  1880.65,739.43 1886.64,743.749 1895.83,750.363 1901.39,754.367 1911.01,761.296 1916.13,764.985 1926.19,772.229 1930.88,775.603 1941.37,783.161 1945.62,786.221 
  1956.55,794.094 
  "/>
<polyline clip-path="url(#clip592)" style="stroke:#fbaa0e; stroke-linecap:butt; stroke-linejoin:round; stroke-width:4; stroke-opacity:1; fill:none" points="
  1956.55,659.402 1955.72,658.806 1941.37,648.469 1940.98,648.188 1926.24,637.57 1926.19,637.536 1911.49,626.952 1911.01,626.603 1896.75,616.334 1895.83,615.671 
  1882.01,605.716 1880.65,604.738 1867.26,595.098 1865.47,593.805 1852.52,584.48 1850.28,582.872 1837.77,573.863 1835.1,571.939 1823.03,563.245 1819.92,561.006 
  1808.29,552.627 1804.74,550.073 1793.54,542.009 1789.56,539.141 1778.8,531.391 1774.38,528.208 1764.06,520.773 1759.2,517.275 1749.31,510.155 1744.02,506.342 
  1734.57,499.537 1728.84,495.409 1719.83,488.919 1713.66,484.476 1705.08,478.301 1698.48,473.543 1690.34,467.683 1683.29,462.611 1675.59,457.065 1668.11,451.678 
  1660.85,446.447 1652.93,440.745 1646.11,435.83 1637.75,429.812 1631.36,425.212 1622.57,418.879 1616.62,414.594 1607.39,407.946 1601.88,403.976 1592.21,397.013 
  1587.13,393.358 1577.03,386.081 1572.39,382.74 1561.85,375.148 1557.65,372.122 1546.67,364.215 1542.9,361.504 1531.49,353.282 1528.16,350.886 1516.3,342.349 
  1513.41,340.268 1501.12,331.416 1498.67,329.65 1485.94,320.484 1483.93,319.032 1470.76,309.551 1469.18,308.415 1455.58,298.618 1454.44,297.797 1440.4,287.685 
  1439.7,287.179 1425.22,276.752 1424.95,276.561 1410.21,265.943 1410.04,265.819 1395.47,255.325 
  "/>
<polyline clip-path="url(#clip592)" style="stroke:#f8c931; stroke-linecap:butt; stroke-linejoin:round; stroke-width:4; stroke-opacity:1; fill:none" points="
  1582.49,255.325 1592.21,262.321 1597.24,265.943 1607.39,273.254 1611.98,276.561 1622.57,284.187 1626.73,287.179 1637.75,295.12 1641.47,297.797 1652.93,306.053 
  1656.21,308.415 1668.11,316.985 1670.96,319.032 1683.29,327.918 1685.7,329.65 1698.48,338.851 1700.44,340.268 1713.66,349.784 1715.19,350.886 1728.84,360.717 
  1729.93,361.504 1744.02,371.65 1744.67,372.122 1759.2,382.583 1759.42,382.74 1774.16,393.358 1774.38,393.515 1788.91,403.976 1789.56,404.448 1803.65,414.594 
  1804.74,415.381 1818.39,425.212 1819.92,426.314 1833.14,435.83 1835.1,437.247 1847.88,446.447 1850.28,448.18 1862.62,457.065 1865.47,459.112 1877.37,467.683 
  1880.65,470.045 1892.11,478.301 1895.83,480.978 1906.85,488.919 1911.01,491.911 1921.6,499.537 1926.19,502.844 1936.34,510.155 1941.37,513.777 1951.09,520.773 
  1956.55,524.71 
  "/>
<polyline clip-path="url(#clip592)" style="stroke:#f1e864; stroke-linecap:butt; stroke-linejoin:round; stroke-width:4; stroke-opacity:1; fill:none" points="
  1956.55,390.017 1946.45,382.74 1941.37,379.084 1931.7,372.122 1926.19,368.152 1916.96,361.504 1911.01,357.219 1902.22,350.886 1895.83,346.286 1887.47,340.268 
  1880.65,335.353 1872.73,329.65 1865.47,324.42 1857.98,319.032 1850.28,313.487 1843.24,308.415 1835.1,302.554 1828.5,297.797 1819.92,291.622 1813.75,287.179 
  1804.74,280.689 1799.01,276.561 1789.56,269.756 1784.27,265.943 1774.38,258.823 1769.52,255.325 
  "/>
<defs>
  <clipPath id="clip593">
    <rect x="2160" y="121" width="73" height="1263"/>
  </clipPath>
</defs>
<polyline clip-path="url(#clip593)" style="stroke:#0a0723; stroke-linecap:butt; stroke-linejoin:round; stroke-width:4; stroke-opacity:1; fill:none" points="
  2160.76,1304.38 2232.76,1304.38 
  "/>
<polyline clip-path="url(#clip593)" style="stroke:#200c4a; stroke-linecap:butt; stroke-linejoin:round; stroke-width:4; stroke-opacity:1; fill:none" points="
  2160.76,1225.53 2232.76,1225.53 
  "/>
<polyline clip-path="url(#clip593)" style="stroke:#3c0965; stroke-linecap:butt; stroke-linejoin:round; stroke-width:4; stroke-opacity:1; fill:none" points="
  2160.76,1146.68 2232.76,1146.68 
  "/>
<polyline clip-path="url(#clip593)" style="stroke:#570f6d; stroke-linecap:butt; stroke-linejoin:round; stroke-width:4; stroke-opacity:1; fill:none" points="
  2160.76,1067.84 2232.76,1067.84 
  "/>
<polyline clip-path="url(#clip593)" style="stroke:#70196e; stroke-linecap:butt; stroke-linejoin:round; stroke-width:4; stroke-opacity:1; fill:none" points="
  2160.76,988.989 2232.76,988.989 
  "/>
<polyline clip-path="url(#clip593)" style="stroke:#892269; stroke-linecap:butt; stroke-linejoin:round; stroke-width:4; stroke-opacity:1; fill:none" points="
  2160.76,910.142 2232.76,910.142 
  "/>
<polyline clip-path="url(#clip593)" style="stroke:#a32b61; stroke-linecap:butt; stroke-linejoin:round; stroke-width:4; stroke-opacity:1; fill:none" points="
  2160.76,831.296 2232.76,831.296 
  "/>
<polyline clip-path="url(#clip593)" style="stroke:#bb3754; stroke-linecap:butt; stroke-linejoin:round; stroke-width:4; stroke-opacity:1; fill:none" points="
  2160.76,752.449 2232.76,752.449 
  "/>
<polyline clip-path="url(#clip593)" style="stroke:#d04544; stroke-linecap:butt; stroke-linejoin:round; stroke-width:4; stroke-opacity:1; fill:none" points="
  2160.76,673.602 2232.76,673.602 
  "/>
<polyline clip-path="url(#clip593)" style="stroke:#e35832; stroke-linecap:butt; stroke-linejoin:round; stroke-width:4; stroke-opacity:1; fill:none" points="
  2160.76,594.755 2232.76,594.755 
  "/>
<polyline clip-path="url(#clip593)" style="stroke:#f0701e; stroke-linecap:butt; stroke-linejoin:round; stroke-width:4; stroke-opacity:1; fill:none" points="
  2160.76,515.909 2232.76,515.909 
  "/>
<polyline clip-path="url(#clip593)" style="stroke:#f98c09; stroke-linecap:butt; stroke-linejoin:round; stroke-width:4; stroke-opacity:1; fill:none" points="
  2160.76,437.062 2232.76,437.062 
  "/>
<polyline clip-path="url(#clip593)" style="stroke:#fbaa0e; stroke-linecap:butt; stroke-linejoin:round; stroke-width:4; stroke-opacity:1; fill:none" points="
  2160.76,358.215 2232.76,358.215 
  "/>
<polyline clip-path="url(#clip593)" style="stroke:#f8c931; stroke-linecap:butt; stroke-linejoin:round; stroke-width:4; stroke-opacity:1; fill:none" points="
  2160.76,279.369 2232.76,279.369 
  "/>
<polyline clip-path="url(#clip593)" style="stroke:#f1e864; stroke-linecap:butt; stroke-linejoin:round; stroke-width:4; stroke-opacity:1; fill:none" points="
  2160.76,200.522 2232.76,200.522 
  "/>
<g clip-path="url(#clip590)">
<text style="fill:#000000; fill-opacity:1; font-family:Arial,Helvetica Neue,Helvetica,sans-serif; font-size:48px; text-anchor:start;" transform="rotate(0, 2268.76, 1337.26)" x="2268.76" y="1337.26">-</text>
</g>
<g clip-path="url(#clip590)">
<text style="fill:#000000; fill-opacity:1; font-family:Arial,Helvetica Neue,Helvetica,sans-serif; font-size:48px; text-anchor:start;" transform="rotate(0, 2296.87, 1337.26)" x="2296.87" y="1337.26">30</text>
</g>
<g clip-path="url(#clip590)">
<text style="fill:#000000; fill-opacity:1; font-family:Arial,Helvetica Neue,Helvetica,sans-serif; font-size:48px; text-anchor:start;" transform="rotate(0, 2268.76, 1165.51)" x="2268.76" y="1165.51">-</text>
</g>
<g clip-path="url(#clip590)">
<text style="fill:#000000; fill-opacity:1; font-family:Arial,Helvetica Neue,Helvetica,sans-serif; font-size:48px; text-anchor:start;" transform="rotate(0, 2296.87, 1165.51)" x="2296.87" y="1165.51">20</text>
</g>
<g clip-path="url(#clip590)">
<text style="fill:#000000; fill-opacity:1; font-family:Arial,Helvetica Neue,Helvetica,sans-serif; font-size:48px; text-anchor:start;" transform="rotate(0, 2268.76, 993.76)" x="2268.76" y="993.76">-</text>
</g>
<g clip-path="url(#clip590)">
<text style="fill:#000000; fill-opacity:1; font-family:Arial,Helvetica Neue,Helvetica,sans-serif; font-size:48px; text-anchor:start;" transform="rotate(0, 2296.87, 993.76)" x="2296.87" y="993.76">10</text>
</g>
<g clip-path="url(#clip590)">
<text style="fill:#000000; fill-opacity:1; font-family:Arial,Helvetica Neue,Helvetica,sans-serif; font-size:48px; text-anchor:start;" transform="rotate(0, 2268.76, 822.009)" x="2268.76" y="822.009">0</text>
</g>
<g clip-path="url(#clip590)">
<text style="fill:#000000; fill-opacity:1; font-family:Arial,Helvetica Neue,Helvetica,sans-serif; font-size:48px; text-anchor:start;" transform="rotate(0, 2268.76, 650.258)" x="2268.76" y="650.258">10</text>
</g>
<g clip-path="url(#clip590)">
<text style="fill:#000000; fill-opacity:1; font-family:Arial,Helvetica Neue,Helvetica,sans-serif; font-size:48px; text-anchor:start;" transform="rotate(0, 2268.76, 478.507)" x="2268.76" y="478.507">20</text>
</g>
<g clip-path="url(#clip590)">
<text style="fill:#000000; fill-opacity:1; font-family:Arial,Helvetica Neue,Helvetica,sans-serif; font-size:48px; text-anchor:start;" transform="rotate(0, 2268.76, 306.755)" x="2268.76" y="306.755">30</text>
</g>
<polyline clip-path="url(#clip590)" style="stroke:#000000; stroke-linecap:butt; stroke-linejoin:round; stroke-width:4; stroke-opacity:1; fill:none" points="
  2232.76,1383.22 2232.76,1323.61 2256.76,1323.61 2232.76,1323.61 2232.76,1151.86 2256.76,1151.86 2232.76,1151.86 2232.76,980.109 2256.76,980.109 2232.76,980.109 
  2232.76,808.358 2256.76,808.358 2232.76,808.358 2232.76,636.607 2256.76,636.607 2232.76,636.607 2232.76,464.855 2256.76,464.855 2232.76,464.855 2232.76,293.104 
  2256.76,293.104 2232.76,293.104 2232.76,121.675 
  "/>
<path clip-path="url(#clip590)" d="
M1797.9 314.626 L2051.83 314.626 L2051.83 163.727 L1797.9 163.727  Z
  " fill="#ffffff" fill-rule="evenodd" fill-opacity="1"/>
<polyline clip-path="url(#clip590)" style="stroke:#000000; stroke-linecap:butt; stroke-linejoin:round; stroke-width:4; stroke-opacity:1; fill:none" points="
  1797.9,314.626 2051.83,314.626 2051.83,163.727 1797.9,163.727 1797.9,314.626 
  "/>
<circle clip-path="url(#clip590)" cx="1879.14" cy="214.026" r="23" fill="#009af9" fill-rule="evenodd" fill-opacity="1" stroke="#000000" stroke-opacity="1" stroke-width="5.12"/>
<g clip-path="url(#clip590)">
<text style="fill:#000000; fill-opacity:1; font-family:Arial,Helvetica Neue,Helvetica,sans-serif; font-size:48px; text-anchor:start;" transform="rotate(0, 1960.38, 231.526)" x="1960.38" y="231.526">y1</text>
</g>
<circle clip-path="url(#clip590)" cx="1879.14" cy="264.326" r="23" fill="#e26f46" fill-rule="evenodd" fill-opacity="1" stroke="#000000" stroke-opacity="1" stroke-width="5.12"/>
<g clip-path="url(#clip590)">
<text style="fill:#000000; fill-opacity:1; font-family:Arial,Helvetica Neue,Helvetica,sans-serif; font-size:48px; text-anchor:start;" transform="rotate(0, 1960.38, 281.826)" x="1960.38" y="281.826">y2</text>
</g>
</svg>
