<?xml version="1.0" encoding="utf-8"?>
<svg xmlns="http://www.w3.org/2000/svg" xmlns:xlink="http://www.w3.org/1999/xlink" width="150" height="100" viewBox="0 0 600 400">
<defs>
  <clipPath id="clip790">
    <rect x="0" y="0" width="600" height="400"/>
  </clipPath>
</defs>
<path clip-path="url(#clip790)" d="
M0 400 L600 400 L600 0 L0 0  Z
  " fill="#ffffff" fill-rule="evenodd" fill-opacity="1"/>
<defs>
  <clipPath id="clip791">
    <rect x="120" y="0" width="421" height="400"/>
  </clipPath>
</defs>
<path clip-path="url(#clip790)" d="
M25.685 376.315 L588.189 376.315 L588.189 15.748 L25.685 15.748  Z
  " fill="#ffffff" fill-rule="evenodd" fill-opacity="1"/>
<defs>
  <clipPath id="clip792">
    <rect x="25" y="15" width="564" height="362"/>
  </clipPath>
</defs>
<polyline clip-path="url(#clip792)" style="stroke:#000000; stroke-width:0.5; stroke-opacity:0.1; fill:none" points="
  25.685,376.315 25.685,15.748 
  "/>
<polyline clip-path="url(#clip792)" style="stroke:#000000; stroke-width:0.5; stroke-opacity:0.1; fill:none" points="
  166.311,376.315 166.311,15.748 
  "/>
<polyline clip-path="url(#clip792)" style="stroke:#000000; stroke-width:0.5; stroke-opacity:0.1; fill:none" points="
  306.937,376.315 306.937,15.748 
  "/>
<polyline clip-path="url(#clip792)" style="stroke:#000000; stroke-width:0.5; stroke-opacity:0.1; fill:none" points="
  447.563,376.315 447.563,15.748 
  "/>
<polyline clip-path="url(#clip792)" style="stroke:#000000; stroke-width:0.5; stroke-opacity:0.1; fill:none" points="
  588.189,376.315 588.189,15.748 
  "/>
<polyline clip-path="url(#clip790)" style="stroke:#000000; stroke-width:1; stroke-opacity:1; fill:none" points="
  25.685,376.315 588.189,376.315 
  "/>
<polyline clip-path="url(#clip790)" style="stroke:#000000; stroke-width:1; stroke-opacity:1; fill:none" points="
  25.685,376.315 25.685,371.988 
  "/>
<polyline clip-path="url(#clip790)" style="stroke:#000000; stroke-width:1; stroke-opacity:1; fill:none" points="
  166.311,376.315 166.311,371.988 
  "/>
<polyline clip-path="url(#clip790)" style="stroke:#000000; stroke-width:1; stroke-opacity:1; fill:none" points="
  306.937,376.315 306.937,371.988 
  "/>
<polyline clip-path="url(#clip790)" style="stroke:#000000; stroke-width:1; stroke-opacity:1; fill:none" points="
  447.563,376.315 447.563,371.988 
  "/>
<polyline clip-path="url(#clip790)" style="stroke:#000000; stroke-width:1; stroke-opacity:1; fill:none" points="
  588.189,376.315 588.189,371.988 
  "/>
<g clip-path="url(#clip790)">
<text style="fill:#000000; fill-opacity:1; font-family:Arial,Helvetica Neue,Helvetica,sans-serif; font-size:12px; text-anchor:middle;" transform="rotate(0, 25.685, 391.915)" x="25.685" y="391.915">−10</text>
</g>
<g clip-path="url(#clip790)">
<text style="fill:#000000; fill-opacity:1; font-family:Arial,Helvetica Neue,Helvetica,sans-serif; font-size:12px; text-anchor:middle;" transform="rotate(0, 166.311, 391.915)" x="166.311" y="391.915">−5</text>
</g>
<g clip-path="url(#clip790)">
<text style="fill:#000000; fill-opacity:1; font-family:Arial,Helvetica Neue,Helvetica,sans-serif; font-size:12px; text-anchor:middle;" transform="rotate(0, 306.937, 391.915)" x="306.937" y="391.915">0</text>
</g>
<g clip-path="url(#clip790)">
<text style="fill:#000000; fill-opacity:1; font-family:Arial,Helvetica Neue,Helvetica,sans-serif; font-size:12px; text-anchor:middle;" transform="rotate(0, 447.563, 391.915)" x="447.563" y="391.915">5</text>
</g>
<g clip-path="url(#clip790)">
<text style="fill:#000000; fill-opacity:1; font-family:Arial,Helvetica Neue,Helvetica,sans-serif; font-size:12px; text-anchor:middle;" transform="rotate(0, 588.189, 391.915)" x="588.189" y="391.915">10</text>
</g>
<g clip-path="url(#clip790)">
<text style="fill:#000000; fill-opacity:1; font-family:Arial,Helvetica Neue,Helvetica,sans-serif; font-size:16px; text-anchor:middle;" transform="rotate(0, 306.937, 409.78)" x="306.937" y="409.78">x</text>
</g>
<polyline clip-path="url(#clip792)" style="stroke:#000000; stroke-width:0.5; stroke-opacity:0.1; fill:none" points="
  25.685,366.11 588.189,366.11 
  "/>
<polyline clip-path="url(#clip792)" style="stroke:#000000; stroke-width:0.5; stroke-opacity:0.1; fill:none" points="
  25.685,281.071 588.189,281.071 
  "/>
<polyline clip-path="url(#clip792)" style="stroke:#000000; stroke-width:0.5; stroke-opacity:0.1; fill:none" points="
  25.685,196.031 588.189,196.031 
  "/>
<polyline clip-path="url(#clip792)" style="stroke:#000000; stroke-width:0.5; stroke-opacity:0.1; fill:none" points="
  25.685,110.992 588.189,110.992 
  "/>
<polyline clip-path="url(#clip792)" style="stroke:#000000; stroke-width:0.5; stroke-opacity:0.1; fill:none" points="
  25.685,25.9528 588.189,25.9528 
  "/>
<polyline clip-path="url(#clip790)" style="stroke:#000000; stroke-width:1; stroke-opacity:1; fill:none" points="
  25.685,376.315 25.685,15.748 
  "/>
<polyline clip-path="url(#clip790)" style="stroke:#000000; stroke-width:1; stroke-opacity:1; fill:none" points="
  25.685,366.11 32.4351,366.11 
  "/>
<polyline clip-path="url(#clip790)" style="stroke:#000000; stroke-width:1; stroke-opacity:1; fill:none" points="
  25.685,281.071 32.4351,281.071 
  "/>
<polyline clip-path="url(#clip790)" style="stroke:#000000; stroke-width:1; stroke-opacity:1; fill:none" points="
  25.685,196.031 32.4351,196.031 
  "/>
<polyline clip-path="url(#clip790)" style="stroke:#000000; stroke-width:1; stroke-opacity:1; fill:none" points="
  25.685,110.992 32.4351,110.992 
  "/>
<polyline clip-path="url(#clip790)" style="stroke:#000000; stroke-width:1; stroke-opacity:1; fill:none" points="
  25.685,25.9528 32.4351,25.9528 
  "/>
<g clip-path="url(#clip790)">
<text style="fill:#000000; fill-opacity:1; font-family:Arial,Helvetica Neue,Helvetica,sans-serif; font-size:12px; text-anchor:end;" transform="rotate(0, 16.685, 370.61)" x="16.685" y="370.61">0.00</text>
</g>
<g clip-path="url(#clip790)">
<text style="fill:#000000; fill-opacity:1; font-family:Arial,Helvetica Neue,Helvetica,sans-serif; font-size:12px; text-anchor:end;" transform="rotate(0, 16.685, 285.571)" x="16.685" y="285.571">0.25</text>
</g>
<g clip-path="url(#clip790)">
<text style="fill:#000000; fill-opacity:1; font-family:Arial,Helvetica Neue,Helvetica,sans-serif; font-size:12px; text-anchor:end;" transform="rotate(0, 16.685, 200.531)" x="16.685" y="200.531">0.50</text>
</g>
<g clip-path="url(#clip790)">
<text style="fill:#000000; fill-opacity:1; font-family:Arial,Helvetica Neue,Helvetica,sans-serif; font-size:12px; text-anchor:end;" transform="rotate(0, 16.685, 115.492)" x="16.685" y="115.492">0.75</text>
</g>
<g clip-path="url(#clip790)">
<text style="fill:#000000; fill-opacity:1; font-family:Arial,Helvetica Neue,Helvetica,sans-serif; font-size:12px; text-anchor:end;" transform="rotate(0, 16.685, 30.4528)" x="16.685" y="30.4528">1.00</text>
</g>
<g clip-path="url(#clip790)">
<text style="fill:#000000; fill-opacity:1; font-family:Arial,Helvetica Neue,Helvetica,sans-serif; font-size:16px; text-anchor:middle;" transform="rotate(-90, -12.6225, 196.031)" x="-12.6225" y="196.031">P(Y=1|x)</text>
</g>
<g clip-path="url(#clip790)">
<text style="fill:#000000; fill-opacity:1; font-family:Arial,Helvetica Neue,Helvetica,sans-serif; font-size:21px; text-anchor:middle;" transform="rotate(0, 306.937, 18)" x="306.937" y="18">ロジスティック曲線</text>
</g>
<polyline clip-path="url(#clip792)" style="stroke:#009af9; stroke-width:1; stroke-opacity:1; fill:none" points="
  25.685,196.031 28.4976,196.031 31.3101,196.031 34.1226,196.031 36.9351,196.031 39.7476,196.031 42.5602,196.031 45.3727,196.031 48.1852,196.031 50.9977,196.031 
  53.8102,196.031 56.6228,196.031 59.4353,196.031 62.2478,196.031 65.0603,196.031 67.8728,196.031 70.6854,196.031 73.4979,196.031 76.3104,196.031 79.1229,196.031 
  81.9354,196.031 84.748,196.031 87.5605,196.031 90.373,196.031 93.1855,196.031 95.998,196.031 98.8106,196.031 101.623,196.031 104.436,196.031 107.248,196.031 
  110.061,196.031 112.873,196.031 115.686,196.031 118.498,196.031 121.311,196.031 124.123,196.031 126.936,196.031 129.748,196.031 132.561,196.031 135.373,196.031 
  138.186,196.031 140.998,196.031 143.811,196.031 146.623,196.031 149.436,196.031 152.248,196.031 155.061,196.031 157.873,196.031 160.686,196.031 163.499,196.031 
  166.311,196.031 169.124,196.031 171.936,196.031 174.749,196.031 177.561,196.031 180.374,196.031 183.186,196.031 185.999,196.031 188.811,196.031 191.624,196.031 
  194.436,196.031 197.249,196.031 200.061,196.031 202.874,196.031 205.686,196.031 208.499,196.031 211.311,196.031 214.124,196.031 216.936,196.031 219.749,196.031 
  222.561,196.031 225.374,196.031 228.186,196.031 230.999,196.031 233.811,196.031 236.624,196.031 239.437,196.031 242.249,196.031 245.062,196.031 247.874,196.031 
  250.687,196.031 253.499,196.031 256.312,196.031 259.124,196.031 261.937,196.031 264.749,196.031 267.562,196.031 270.374,196.031 273.187,196.031 275.999,196.031 
  278.812,196.031 281.624,196.031 284.437,196.031 287.249,196.031 290.062,196.031 292.874,196.031 295.687,196.031 298.499,196.031 301.312,196.031 304.124,196.031 
  306.937,196.031 309.75,196.031 312.562,196.031 315.375,196.031 318.187,196.031 321,196.031 323.812,196.031 326.625,196.031 329.437,196.031 332.25,196.031 
  335.062,196.031 337.875,196.031 340.687,196.031 343.5,196.031 346.312,196.031 349.125,196.031 351.937,196.031 354.75,196.031 357.562,196.031 360.375,196.031 
  363.187,196.031 366,196.031 368.812,196.031 371.625,196.031 374.437,196.031 377.25,196.031 380.063,196.031 382.875,196.031 385.688,196.031 388.5,196.031 
  391.313,196.031 394.125,196.031 396.938,196.031 399.75,196.031 402.563,196.031 405.375,196.031 408.188,196.031 411,196.031 413.813,196.031 416.625,196.031 
  419.438,196.031 422.25,196.031 425.063,196.031 427.875,196.031 430.688,196.031 433.5,196.031 436.313,196.031 439.125,196.031 441.938,196.031 444.75,196.031 
  447.563,196.031 450.376,196.031 453.188,196.031 456.001,196.031 458.813,196.031 461.626,196.031 464.438,196.031 467.251,196.031 470.063,196.031 472.876,196.031 
  475.688,196.031 478.501,196.031 481.313,196.031 484.126,196.031 486.938,196.031 489.751,196.031 492.563,196.031 495.376,196.031 498.188,196.031 501.001,196.031 
  503.813,196.031 506.626,196.031 509.438,196.031 512.251,196.031 515.063,196.031 517.876,196.031 520.689,196.031 523.501,196.031 526.314,196.031 529.126,196.031 
  531.939,196.031 534.751,196.031 537.564,196.031 540.376,196.031 543.189,196.031 546.001,196.031 548.814,196.031 551.626,196.031 554.439,196.031 557.251,196.031 
  560.064,196.031 562.876,196.031 565.689,196.031 568.501,196.031 571.314,196.031 574.126,196.031 576.939,196.031 579.751,196.031 582.564,196.031 585.376,196.031 
  588.189,196.031 
  "/>
<polyline clip-path="url(#clip792)" style="stroke:#e26f46; stroke-width:1; stroke-opacity:1; fill:none" points="
  25.685,325.562 28.4976,324.843 31.3101,324.112 34.1226,323.37 36.9351,322.617 39.7476,321.853 42.5602,321.077 45.3727,320.29 48.1852,319.491 50.9977,318.681 
  53.8102,317.859 56.6228,317.024 59.4353,316.178 62.2478,315.32 65.0603,314.45 67.8728,313.568 70.6854,312.673 73.4979,311.766 76.3104,310.847 79.1229,309.915 
  81.9354,308.97 84.748,308.013 87.5605,307.043 90.373,306.06 93.1855,305.065 95.998,304.057 98.8106,303.036 101.623,302.002 104.436,300.955 107.248,299.895 
  110.061,298.822 112.873,297.736 115.686,296.636 118.498,295.524 121.311,294.399 124.123,293.26 126.936,292.109 129.748,290.944 132.561,289.767 135.373,288.576 
  138.186,287.372 140.998,286.155 143.811,284.926 146.623,283.683 149.436,282.428 152.248,281.159 155.061,279.878 157.873,278.585 160.686,277.278 163.499,275.959 
  166.311,274.628 169.124,273.284 171.936,271.928 174.749,270.56 177.561,269.18 180.374,267.788 183.186,266.384 185.999,264.968 188.811,263.541 191.624,262.102 
  194.436,260.653 197.249,259.192 200.061,257.72 202.874,256.238 205.686,254.745 208.499,253.242 211.311,251.728 214.124,250.205 216.936,248.672 219.749,247.129 
  222.561,245.578 225.374,244.017 228.186,242.447 230.999,240.868 233.811,239.282 236.624,237.687 239.437,236.084 242.249,234.474 245.062,232.857 247.874,231.232 
  250.687,229.601 253.499,227.963 256.312,226.319 259.124,224.67 261.937,223.014 264.749,221.354 267.562,219.688 270.374,218.018 273.187,216.344 275.999,214.665 
  278.812,212.983 281.624,211.297 284.437,209.609 287.249,207.918 290.062,206.224 292.874,204.528 295.687,202.831 298.499,201.132 301.312,199.433 304.124,197.732 
  306.937,196.031 309.75,194.331 312.562,192.63 315.375,190.931 318.187,189.232 321,187.535 323.812,185.839 326.625,184.145 329.437,182.454 332.25,180.766 
  335.062,179.08 337.875,177.398 340.687,175.719 343.5,174.045 346.312,172.375 349.125,170.709 351.937,169.049 354.75,167.393 357.562,165.744 360.375,164.1 
  363.187,162.462 366,160.831 368.812,159.206 371.625,157.589 374.437,155.979 377.25,154.376 380.063,152.781 382.875,151.195 385.688,149.616 388.5,148.046 
  391.313,146.485 394.125,144.934 396.938,143.391 399.75,141.858 402.563,140.335 405.375,138.821 408.188,137.318 411,135.825 413.813,134.343 416.625,132.871 
  419.438,131.41 422.25,129.961 425.063,128.522 427.875,127.095 430.688,125.679 433.5,124.275 436.313,122.883 439.125,121.503 441.938,120.135 444.75,118.779 
  447.563,117.435 450.376,116.104 453.188,114.785 456.001,113.478 458.813,112.185 461.626,110.904 464.438,109.635 467.251,108.38 470.063,107.137 472.876,105.908 
  475.688,104.691 478.501,103.487 481.313,102.296 484.126,101.119 486.938,99.9541 489.751,98.8026 492.563,97.6642 495.376,96.5389 498.188,95.4266 501.001,94.3275 
  503.813,93.2414 506.626,92.1683 509.438,91.1083 512.251,90.0613 515.063,89.0273 517.876,88.0062 520.689,86.9979 523.501,86.0026 526.314,85.02 529.126,84.0501 
  531.939,83.093 534.751,82.1484 537.564,81.2165 540.376,80.297 543.189,79.39 546.001,78.4953 548.814,77.6129 551.626,76.7427 554.439,75.8846 557.251,75.0385 
  560.064,74.2045 562.876,73.3822 565.689,72.5718 568.501,71.773 571.314,70.9858 574.126,70.2101 576.939,69.4458 579.751,68.6928 582.564,67.951 585.376,67.2203 
  588.189,66.5005 
  "/>
<polyline clip-path="url(#clip792)" style="stroke:#3da44d; stroke-width:1; stroke-opacity:1; fill:none" points="
  25.685,363.834 28.4976,363.718 31.3101,363.596 34.1226,363.468 36.9351,363.334 39.7476,363.193 42.5602,363.044 45.3727,362.889 48.1852,362.725 50.9977,362.553 
  53.8102,362.373 56.6228,362.184 59.4353,361.985 62.2478,361.776 65.0603,361.557 67.8728,361.326 70.6854,361.085 73.4979,360.831 76.3104,360.565 79.1229,360.285 
  81.9354,359.992 84.748,359.684 87.5605,359.361 90.373,359.023 93.1855,358.667 95.998,358.294 98.8106,357.903 101.623,357.493 104.436,357.063 107.248,356.612 
  110.061,356.139 112.873,355.644 115.686,355.125 118.498,354.581 121.311,354.01 124.123,353.413 126.936,352.788 129.748,352.133 132.561,351.447 135.373,350.729 
  138.186,349.978 140.998,349.192 143.811,348.37 146.623,347.51 149.436,346.611 152.248,345.671 155.061,344.689 157.873,343.664 160.686,342.592 163.499,341.474 
  166.311,340.307 169.124,339.089 171.936,337.818 174.749,336.494 177.561,335.114 180.374,333.676 183.186,332.179 185.999,330.621 188.811,329 191.624,327.314 
  194.436,325.562 197.249,323.742 200.061,321.853 202.874,319.892 205.686,317.859 208.499,315.751 211.311,313.568 214.124,311.308 216.936,308.97 219.749,306.553 
  222.561,304.057 225.374,301.48 228.186,298.822 230.999,296.082 233.811,293.26 236.624,290.357 239.437,287.372 242.249,284.306 245.062,281.159 247.874,277.933 
  250.687,274.628 253.499,271.245 256.312,267.788 259.124,264.256 261.937,260.653 264.749,256.98 267.562,253.242 270.374,249.44 273.187,245.578 275.999,241.659 
  278.812,237.687 281.624,233.666 284.437,229.601 287.249,225.495 290.062,221.354 292.874,217.181 295.687,212.983 298.499,208.764 301.312,204.528 304.124,200.283 
  306.937,196.031 309.75,191.78 312.562,187.535 315.375,183.299 318.187,179.08 321,174.882 323.812,170.709 326.625,166.568 329.437,162.462 332.25,158.397 
  335.062,154.376 337.875,150.404 340.687,146.485 343.5,142.623 346.312,138.821 349.125,135.083 351.937,131.41 354.75,127.807 357.562,124.275 360.375,120.818 
  363.187,117.435 366,114.13 368.812,110.904 371.625,107.757 374.437,104.691 377.25,101.706 380.063,98.8026 382.875,95.9811 385.688,93.2414 388.5,90.5832 
  391.313,88.0062 394.125,85.5097 396.938,83.093 399.75,80.7552 402.563,78.4953 405.375,76.3121 408.188,74.2045 411,72.1709 413.813,70.2101 416.625,68.3205 
  419.438,66.5005 422.25,64.7485 425.063,63.0629 427.875,61.4418 430.688,59.8836 433.5,58.3866 436.313,56.9489 439.125,55.5688 441.938,54.2446 444.75,52.9744 
  447.563,51.7565 450.376,50.5892 453.188,49.4707 456.001,48.3994 458.813,47.3736 461.626,46.3917 464.438,45.452 467.251,44.553 470.063,43.6932 472.876,42.871 
  475.688,42.085 478.501,41.3338 481.313,40.616 484.126,39.9303 486.938,39.2753 489.751,38.6498 492.563,38.0526 495.376,37.4824 498.188,36.9383 501.001,36.419 
  503.813,35.9235 506.626,35.4508 509.438,34.9999 512.251,34.5699 515.063,34.1597 517.876,33.7687 520.689,33.3958 523.501,33.0404 526.314,32.7016 529.126,32.3787 
  531.939,32.0709 534.751,31.7776 537.564,31.4982 540.376,31.2319 543.189,30.9783 546.001,30.7366 548.814,30.5064 551.626,30.2872 554.439,30.0783 557.251,29.8794 
  560.064,29.69 562.876,29.5097 565.689,29.3379 568.501,29.1744 571.314,29.0187 574.126,28.8705 576.939,28.7293 579.751,28.595 582.564,28.467 585.376,28.3453 
  588.189,28.2294 
  "/>
<polyline clip-path="url(#clip792)" style="stroke:#c271d2; stroke-width:1; stroke-opacity:1; fill:none" points="
  25.685,366.095 28.4976,366.093 31.3101,366.091 34.1226,366.089 36.9351,366.087 39.7476,366.085 42.5602,366.082 45.3727,366.079 48.1852,366.076 50.9977,366.072 
  53.8102,366.068 56.6228,366.064 59.4353,366.059 62.2478,366.054 65.0603,366.048 67.8728,366.041 70.6854,366.034 73.4979,366.026 76.3104,366.017 79.1229,366.007 
  81.9354,365.996 84.748,365.984 87.5605,365.971 90.373,365.956 93.1855,365.94 95.998,365.922 98.8106,365.902 101.623,365.881 104.436,365.856 107.248,365.83 
  110.061,365.8 112.873,365.768 115.686,365.732 118.498,365.692 121.311,365.648 124.123,365.6 126.936,365.546 129.748,365.487 132.561,365.421 135.373,365.349 
  138.186,365.269 140.998,365.181 143.811,365.083 146.623,364.976 149.436,364.857 152.248,364.726 155.061,364.581 157.873,364.421 160.686,364.244 163.499,364.049 
  166.311,363.834 169.124,363.596 171.936,363.334 174.749,363.044 177.561,362.725 180.374,362.373 183.186,361.985 185.999,361.557 188.811,361.085 191.624,360.565 
  194.436,359.992 197.249,359.361 200.061,358.667 202.874,357.903 205.686,357.063 208.499,356.139 211.311,355.125 214.124,354.01 216.936,352.788 219.749,351.447 
  222.561,349.978 225.374,348.37 228.186,346.611 230.999,344.689 233.811,342.592 236.624,340.307 239.437,337.818 242.249,335.114 245.062,332.179 247.874,329 
  250.687,325.562 253.499,321.853 256.312,317.859 259.124,313.568 261.937,308.97 264.749,304.057 267.562,298.822 270.374,293.26 273.187,287.372 275.999,281.159 
  278.812,274.628 281.624,267.788 284.437,260.653 287.249,253.242 290.062,245.578 292.874,237.687 295.687,229.601 298.499,221.354 301.312,212.983 304.124,204.528 
  306.937,196.031 309.75,187.535 312.562,179.08 315.375,170.709 318.187,162.462 321,154.376 323.812,146.485 326.625,138.821 329.437,131.41 332.25,124.275 
  335.062,117.435 337.875,110.904 340.687,104.691 343.5,98.8026 346.312,93.2414 349.125,88.0062 351.937,83.093 354.75,78.4953 357.562,74.2045 360.375,70.2101 
  363.187,66.5005 366,63.0629 368.812,59.8836 371.625,56.9489 374.437,54.2446 377.25,51.7565 380.063,49.4707 382.875,47.3736 385.688,45.452 388.5,43.6932 
  391.313,42.085 394.125,40.616 396.938,39.2753 399.75,38.0526 402.563,36.9383 405.375,35.9235 408.188,34.9999 411,34.1597 413.813,33.3958 416.625,32.7016 
  419.438,32.0709 422.25,31.4982 425.063,30.9783 427.875,30.5064 430.688,30.0783 433.5,29.69 436.313,29.3379 439.125,29.0187 441.938,28.7293 444.75,28.467 
  447.563,28.2294 450.376,28.014 453.188,27.819 456.001,27.6423 458.813,27.4822 461.626,27.3372 464.438,27.206 467.251,27.0871 470.063,26.9795 472.876,26.8821 
  475.688,26.7938 478.501,26.714 481.313,26.6417 484.126,26.5762 486.938,26.517 489.751,26.4634 492.563,26.4149 495.376,26.3709 498.188,26.3312 501.001,26.2952 
  503.813,26.2627 506.626,26.2332 509.438,26.2065 512.251,26.1824 515.063,26.1606 517.876,26.1408 520.689,26.1229 523.501,26.1067 526.314,26.0921 529.126,26.0788 
  531.939,26.0668 534.751,26.056 537.564,26.0462 540.376,26.0373 543.189,26.0292 546.001,26.022 548.814,26.0154 551.626,26.0094 554.439,26.004 557.251,25.9991 
  560.064,25.9947 562.876,25.9907 565.689,25.9871 568.501,25.9839 571.314,25.9809 574.126,25.9782 576.939,25.9758 579.751,25.9736 582.564,25.9716 585.376,25.9698 
  588.189,25.9682 
  "/>
<polyline clip-path="url(#clip792)" style="stroke:#ac8d18; stroke-width:1; stroke-opacity:1; fill:none" points="
  25.685,366.11 28.4976,366.11 31.3101,366.11 34.1226,366.11 36.9351,366.11 39.7476,366.11 42.5602,366.11 45.3727,366.11 48.1852,366.11 50.9977,366.11 
  53.8102,366.11 56.6228,366.11 59.4353,366.11 62.2478,366.11 65.0603,366.11 67.8728,366.11 70.6854,366.11 73.4979,366.11 76.3104,366.11 79.1229,366.11 
  81.9354,366.11 84.748,366.11 87.5605,366.11 90.373,366.11 93.1855,366.11 95.998,366.11 98.8106,366.11 101.623,366.11 104.436,366.11 107.248,366.11 
  110.061,366.11 112.873,366.11 115.686,366.11 118.498,366.11 121.311,366.11 124.123,366.109 126.936,366.109 129.748,366.109 132.561,366.109 135.373,366.109 
  138.186,366.108 140.998,366.108 143.811,366.107 146.623,366.106 149.436,366.106 152.248,366.105 155.061,366.103 157.873,366.102 160.686,366.1 163.499,366.098 
  166.311,366.095 169.124,366.091 171.936,366.087 174.749,366.082 177.561,366.076 180.374,366.068 183.186,366.059 185.999,366.048 188.811,366.034 191.624,366.017 
  194.436,365.996 197.249,365.971 200.061,365.94 202.874,365.902 205.686,365.856 208.499,365.8 211.311,365.732 214.124,365.648 216.936,365.546 219.749,365.421 
  222.561,365.269 225.374,365.083 228.186,364.857 230.999,364.581 233.811,364.244 236.624,363.834 239.437,363.334 242.249,362.725 245.062,361.985 247.874,361.085 
  250.687,359.992 253.499,358.667 256.312,357.063 259.124,355.125 261.937,352.788 264.749,349.978 267.562,346.611 270.374,342.592 273.187,337.818 275.999,332.179 
  278.812,325.562 281.624,317.859 284.437,308.97 287.249,298.822 290.062,287.372 292.874,274.628 295.687,260.653 298.499,245.578 301.312,229.601 304.124,212.983 
  306.937,196.031 309.75,179.08 312.562,162.462 315.375,146.485 318.187,131.41 321,117.435 323.812,104.691 326.625,93.2414 329.437,83.093 332.25,74.2045 
  335.062,66.5005 337.875,59.8836 340.687,54.2446 343.5,49.4707 346.312,45.452 349.125,42.085 351.937,39.2753 354.75,36.9383 357.562,34.9999 360.375,33.3958 
  363.187,32.0709 366,30.9783 368.812,30.0783 371.625,29.3379 374.437,28.7293 377.25,28.2294 380.063,27.819 382.875,27.4822 385.688,27.206 388.5,26.9795 
  391.313,26.7938 394.125,26.6417 396.938,26.517 399.75,26.4149 402.563,26.3312 405.375,26.2627 408.188,26.2065 411,26.1606 413.813,26.1229 416.625,26.0921 
  419.438,26.0668 422.25,26.0462 425.063,26.0292 427.875,26.0154 430.688,26.004 433.5,25.9947 436.313,25.9871 439.125,25.9809 441.938,25.9758 444.75,25.9716 
  447.563,25.9682 450.376,25.9654 453.188,25.9631 456.001,25.9612 458.813,25.9597 461.626,25.9584 464.438,25.9574 467.251,25.9566 470.063,25.9559 472.876,25.9553 
  475.688,25.9548 478.501,25.9545 481.313,25.9542 484.126,25.9539 486.938,25.9537 489.751,25.9535 492.563,25.9534 495.376,25.9533 498.188,25.9532 501.001,25.9531 
  503.813,25.953 506.626,25.953 509.438,25.9529 512.251,25.9529 515.063,25.9529 517.876,25.9529 520.689,25.9528 523.501,25.9528 526.314,25.9528 529.126,25.9528 
  531.939,25.9528 534.751,25.9528 537.564,25.9528 540.376,25.9528 543.189,25.9528 546.001,25.9528 548.814,25.9528 551.626,25.9528 554.439,25.9528 557.251,25.9528 
  560.064,25.9528 562.876,25.9528 565.689,25.9528 568.501,25.9528 571.314,25.9528 574.126,25.9528 576.939,25.9528 579.751,25.9528 582.564,25.9528 585.376,25.9528 
  588.189,25.9528 
  "/>
<polyline clip-path="url(#clip792)" style="stroke:#00a9ad; stroke-width:1; stroke-opacity:1; fill:none" points="
  25.685,366.11 28.4976,366.11 31.3101,366.11 34.1226,366.11 36.9351,366.11 39.7476,366.11 42.5602,366.11 45.3727,366.11 48.1852,366.11 50.9977,366.11 
  53.8102,366.11 56.6228,366.11 59.4353,366.11 62.2478,366.11 65.0603,366.11 67.8728,366.11 70.6854,366.11 73.4979,366.11 76.3104,366.11 79.1229,366.11 
  81.9354,366.11 84.748,366.11 87.5605,366.11 90.373,366.11 93.1855,366.11 95.998,366.11 98.8106,366.11 101.623,366.11 104.436,366.11 107.248,366.11 
  110.061,366.11 112.873,366.11 115.686,366.11 118.498,366.11 121.311,366.11 124.123,366.11 126.936,366.11 129.748,366.11 132.561,366.11 135.373,366.11 
  138.186,366.11 140.998,366.11 143.811,366.11 146.623,366.11 149.436,366.11 152.248,366.11 155.061,366.11 157.873,366.11 160.686,366.11 163.499,366.11 
  166.311,366.11 169.124,366.11 171.936,366.11 174.749,366.11 177.561,366.11 180.374,366.11 183.186,366.11 185.999,366.11 188.811,366.11 191.624,366.11 
  194.436,366.11 197.249,366.11 200.061,366.11 202.874,366.11 205.686,366.11 208.499,366.11 211.311,366.11 214.124,366.11 216.936,366.11 219.749,366.11 
  222.561,366.11 225.374,366.11 228.186,366.11 230.999,366.11 233.811,366.11 236.624,366.11 239.437,366.11 242.249,366.11 245.062,366.11 247.874,366.11 
  250.687,366.11 253.499,366.11 256.312,366.11 259.124,366.11 261.937,366.11 264.749,366.11 267.562,366.11 270.374,366.109 273.187,366.108 275.999,366.105 
  278.812,366.095 281.624,366.068 284.437,365.996 287.249,365.8 290.062,365.269 292.874,363.834 295.687,359.992 298.499,349.978 301.312,325.562 304.124,274.628 
  306.937,196.031 309.75,117.435 312.562,66.5005 315.375,42.085 318.187,32.0709 321,28.2294 323.812,26.7938 326.625,26.2627 329.437,26.0668 332.25,25.9947 
  335.062,25.9682 337.875,25.9584 340.687,25.9548 343.5,25.9535 346.312,25.953 349.125,25.9529 351.937,25.9528 354.75,25.9528 357.562,25.9528 360.375,25.9528 
  363.187,25.9528 366,25.9528 368.812,25.9528 371.625,25.9528 374.437,25.9528 377.25,25.9528 380.063,25.9528 382.875,25.9528 385.688,25.9528 388.5,25.9528 
  391.313,25.9528 394.125,25.9528 396.938,25.9528 399.75,25.9528 402.563,25.9528 405.375,25.9528 408.188,25.9528 411,25.9528 413.813,25.9528 416.625,25.9528 
  419.438,25.9528 422.25,25.9528 425.063,25.9528 427.875,25.9528 430.688,25.9528 433.5,25.9528 436.313,25.9528 439.125,25.9528 441.938,25.9528 444.75,25.9528 
  447.563,25.9528 450.376,25.9528 453.188,25.9528 456.001,25.9528 458.813,25.9528 461.626,25.9528 464.438,25.9528 467.251,25.9528 470.063,25.9528 472.876,25.9528 
  475.688,25.9528 478.501,25.9528 481.313,25.9528 484.126,25.9528 486.938,25.9528 489.751,25.9528 492.563,25.9528 495.376,25.9528 498.188,25.9528 501.001,25.9528 
  503.813,25.9528 506.626,25.9528 509.438,25.9528 512.251,25.9528 515.063,25.9528 517.876,25.9528 520.689,25.9528 523.501,25.9528 526.314,25.9528 529.126,25.9528 
  531.939,25.9528 534.751,25.9528 537.564,25.9528 540.376,25.9528 543.189,25.9528 546.001,25.9528 548.814,25.9528 551.626,25.9528 554.439,25.9528 557.251,25.9528 
  560.064,25.9528 562.876,25.9528 565.689,25.9528 568.501,25.9528 571.314,25.9528 574.126,25.9528 576.939,25.9528 579.751,25.9528 582.564,25.9528 585.376,25.9528 
  588.189,25.9528 
  "/>
<path clip-path="url(#clip790)" d="
M44.4352 133.607 L130.353 133.607 L130.353 27.7669 L44.4352 27.7669  Z
  " fill="#ffffff" fill-rule="evenodd" fill-opacity="1"/>
<polyline clip-path="url(#clip790)" style="stroke:#000000; stroke-width:1; stroke-opacity:1; fill:none" points="
  44.4352,133.607 130.353,133.607 130.353,27.7669 44.4352,27.7669 44.4352,133.607 
  "/>
<polyline clip-path="url(#clip790)" style="stroke:#009af9; stroke-width:1; stroke-opacity:1; fill:none" points="
  50.6852,42.8869 88.1855,42.8869 
  "/>
<g clip-path="url(#clip790)">
<text style="fill:#000000; fill-opacity:1; font-family:Arial,Helvetica Neue,Helvetica,sans-serif; font-size:12px; text-anchor:start;" transform="rotate(0, 94.4355, 47.3869)" x="94.4355" y="47.3869">0.0</text>
</g>
<polyline clip-path="url(#clip790)" style="stroke:#e26f46; stroke-width:1; stroke-opacity:1; fill:none" points="
  50.6852,58.0069 88.1855,58.0069 
  "/>
<g clip-path="url(#clip790)">
<text style="fill:#000000; fill-opacity:1; font-family:Arial,Helvetica Neue,Helvetica,sans-serif; font-size:12px; text-anchor:start;" transform="rotate(0, 94.4355, 62.5069)" x="94.4355" y="62.5069">0.2</text>
</g>
<polyline clip-path="url(#clip790)" style="stroke:#3da44d; stroke-width:1; stroke-opacity:1; fill:none" points="
  50.6852,73.1269 88.1855,73.1269 
  "/>
<g clip-path="url(#clip790)">
<text style="fill:#000000; fill-opacity:1; font-family:Arial,Helvetica Neue,Helvetica,sans-serif; font-size:12px; text-anchor:start;" transform="rotate(0, 94.4355, 77.6269)" x="94.4355" y="77.6269">0.5</text>
</g>
<polyline clip-path="url(#clip790)" style="stroke:#c271d2; stroke-width:1; stroke-opacity:1; fill:none" points="
  50.6852,88.2469 88.1855,88.2469 
  "/>
<g clip-path="url(#clip790)">
<text style="fill:#000000; fill-opacity:1; font-family:Arial,Helvetica Neue,Helvetica,sans-serif; font-size:12px; text-anchor:start;" transform="rotate(0, 94.4355, 92.7469)" x="94.4355" y="92.7469">1.0</text>
</g>
<polyline clip-path="url(#clip790)" style="stroke:#ac8d18; stroke-width:1; stroke-opacity:1; fill:none" points="
  50.6852,103.367 88.1855,103.367 
  "/>
<g clip-path="url(#clip790)">
<text style="fill:#000000; fill-opacity:1; font-family:Arial,Helvetica Neue,Helvetica,sans-serif; font-size:12px; text-anchor:start;" transform="rotate(0, 94.4355, 107.867)" x="94.4355" y="107.867">2.0</text>
</g>
<polyline clip-path="url(#clip790)" style="stroke:#00a9ad; stroke-width:1; stroke-opacity:1; fill:none" points="
  50.6852,118.487 88.1855,118.487 
  "/>
<g clip-path="url(#clip790)">
<text style="fill:#000000; fill-opacity:1; font-family:Arial,Helvetica Neue,Helvetica,sans-serif; font-size:12px; text-anchor:start;" transform="rotate(0, 94.4355, 122.987)" x="94.4355" y="122.987">10.0</text>
</g>
</svg>
