<?xml version="1.0" encoding="utf-8"?>
<svg xmlns="http://www.w3.org/2000/svg" xmlns:xlink="http://www.w3.org/1999/xlink" width="600" height="400" viewBox="0 0 2400 1600">
<defs>
  <clipPath id="clip950">
    <rect x="0" y="0" width="2400" height="1600"/>
  </clipPath>
</defs>
<path clip-path="url(#clip950)" d="
M0 1600 L2400 1600 L2400 0 L0 0  Z
  " fill="#ffffff" fill-rule="evenodd" fill-opacity="1"/>
<defs>
  <clipPath id="clip951">
    <rect x="480" y="0" width="1681" height="1600"/>
  </clipPath>
</defs>
<path clip-path="url(#clip950)" d="
M102.74 1505.26 L2352.76 1505.26 L2352.76 62.9921 L102.74 62.9921  Z
  " fill="#ffffff" fill-rule="evenodd" fill-opacity="1"/>
<defs>
  <clipPath id="clip952">
    <rect x="102" y="62" width="2251" height="1443"/>
  </clipPath>
</defs>
<polyline clip-path="url(#clip952)" style="stroke:#000000; stroke-width:2; stroke-opacity:0.1; fill:none" points="
  162.166,1505.26 162.166,62.9921 
  "/>
<polyline clip-path="url(#clip952)" style="stroke:#000000; stroke-width:2; stroke-opacity:0.1; fill:none" points="
  693.894,1505.26 693.894,62.9921 
  "/>
<polyline clip-path="url(#clip952)" style="stroke:#000000; stroke-width:2; stroke-opacity:0.1; fill:none" points="
  1225.62,1505.26 1225.62,62.9921 
  "/>
<polyline clip-path="url(#clip952)" style="stroke:#000000; stroke-width:2; stroke-opacity:0.1; fill:none" points="
  1757.35,1505.26 1757.35,62.9921 
  "/>
<polyline clip-path="url(#clip952)" style="stroke:#000000; stroke-width:2; stroke-opacity:0.1; fill:none" points="
  2289.08,1505.26 2289.08,62.9921 
  "/>
<polyline clip-path="url(#clip950)" style="stroke:#000000; stroke-width:4; stroke-opacity:1; fill:none" points="
  102.74,1505.26 2352.76,1505.26 
  "/>
<polyline clip-path="url(#clip950)" style="stroke:#000000; stroke-width:4; stroke-opacity:1; fill:none" points="
  162.166,1505.26 162.166,1487.95 
  "/>
<polyline clip-path="url(#clip950)" style="stroke:#000000; stroke-width:4; stroke-opacity:1; fill:none" points="
  693.894,1505.26 693.894,1487.95 
  "/>
<polyline clip-path="url(#clip950)" style="stroke:#000000; stroke-width:4; stroke-opacity:1; fill:none" points="
  1225.62,1505.26 1225.62,1487.95 
  "/>
<polyline clip-path="url(#clip950)" style="stroke:#000000; stroke-width:4; stroke-opacity:1; fill:none" points="
  1757.35,1505.26 1757.35,1487.95 
  "/>
<polyline clip-path="url(#clip950)" style="stroke:#000000; stroke-width:4; stroke-opacity:1; fill:none" points="
  2289.08,1505.26 2289.08,1487.95 
  "/>
<g clip-path="url(#clip950)">
<text style="fill:#000000; fill-opacity:1; font-family:Arial,Helvetica Neue,Helvetica,sans-serif; font-size:48px; text-anchor:middle;" transform="rotate(0, 162.166, 1566.46)" x="162.166" y="1566.46">0</text>
</g>
<g clip-path="url(#clip950)">
<text style="fill:#000000; fill-opacity:1; font-family:Arial,Helvetica Neue,Helvetica,sans-serif; font-size:48px; text-anchor:middle;" transform="rotate(0, 693.894, 1566.46)" x="693.894" y="1566.46">250</text>
</g>
<g clip-path="url(#clip950)">
<text style="fill:#000000; fill-opacity:1; font-family:Arial,Helvetica Neue,Helvetica,sans-serif; font-size:48px; text-anchor:middle;" transform="rotate(0, 1225.62, 1566.46)" x="1225.62" y="1566.46">500</text>
</g>
<g clip-path="url(#clip950)">
<text style="fill:#000000; fill-opacity:1; font-family:Arial,Helvetica Neue,Helvetica,sans-serif; font-size:48px; text-anchor:middle;" transform="rotate(0, 1757.35, 1566.46)" x="1757.35" y="1566.46">750</text>
</g>
<g clip-path="url(#clip950)">
<text style="fill:#000000; fill-opacity:1; font-family:Arial,Helvetica Neue,Helvetica,sans-serif; font-size:48px; text-anchor:middle;" transform="rotate(0, 2289.08, 1566.46)" x="2289.08" y="1566.46">1000</text>
</g>
<g clip-path="url(#clip950)">
<text style="fill:#000000; fill-opacity:1; font-family:Arial,Helvetica Neue,Helvetica,sans-serif; font-size:66px; text-anchor:middle;" transform="rotate(0, 1227.75, 1639.12)" x="1227.75" y="1639.12">k</text>
</g>
<polyline clip-path="url(#clip952)" style="stroke:#000000; stroke-width:2; stroke-opacity:0.1; fill:none" points="
  102.74,1505.26 2352.76,1505.26 
  "/>
<polyline clip-path="url(#clip952)" style="stroke:#000000; stroke-width:2; stroke-opacity:0.1; fill:none" points="
  102.74,1216.81 2352.76,1216.81 
  "/>
<polyline clip-path="url(#clip952)" style="stroke:#000000; stroke-width:2; stroke-opacity:0.1; fill:none" points="
  102.74,928.353 2352.76,928.353 
  "/>
<polyline clip-path="url(#clip952)" style="stroke:#000000; stroke-width:2; stroke-opacity:0.1; fill:none" points="
  102.74,639.899 2352.76,639.899 
  "/>
<polyline clip-path="url(#clip952)" style="stroke:#000000; stroke-width:2; stroke-opacity:0.1; fill:none" points="
  102.74,351.446 2352.76,351.446 
  "/>
<polyline clip-path="url(#clip952)" style="stroke:#000000; stroke-width:2; stroke-opacity:0.1; fill:none" points="
  102.74,62.9921 2352.76,62.9921 
  "/>
<polyline clip-path="url(#clip950)" style="stroke:#000000; stroke-width:4; stroke-opacity:1; fill:none" points="
  102.74,1505.26 102.74,62.9921 
  "/>
<polyline clip-path="url(#clip950)" style="stroke:#000000; stroke-width:4; stroke-opacity:1; fill:none" points="
  102.74,1505.26 129.74,1505.26 
  "/>
<polyline clip-path="url(#clip950)" style="stroke:#000000; stroke-width:4; stroke-opacity:1; fill:none" points="
  102.74,1216.81 129.74,1216.81 
  "/>
<polyline clip-path="url(#clip950)" style="stroke:#000000; stroke-width:4; stroke-opacity:1; fill:none" points="
  102.74,928.353 129.74,928.353 
  "/>
<polyline clip-path="url(#clip950)" style="stroke:#000000; stroke-width:4; stroke-opacity:1; fill:none" points="
  102.74,639.899 129.74,639.899 
  "/>
<polyline clip-path="url(#clip950)" style="stroke:#000000; stroke-width:4; stroke-opacity:1; fill:none" points="
  102.74,351.446 129.74,351.446 
  "/>
<polyline clip-path="url(#clip950)" style="stroke:#000000; stroke-width:4; stroke-opacity:1; fill:none" points="
  102.74,62.9921 129.74,62.9921 
  "/>
<g clip-path="url(#clip950)">
<text style="fill:#000000; fill-opacity:1; font-family:Arial,Helvetica Neue,Helvetica,sans-serif; font-size:48px; text-anchor:end;" transform="rotate(0, 66.7402, 1522.76)" x="66.7402" y="1522.76">0.0</text>
</g>
<g clip-path="url(#clip950)">
<text style="fill:#000000; fill-opacity:1; font-family:Arial,Helvetica Neue,Helvetica,sans-serif; font-size:48px; text-anchor:end;" transform="rotate(0, 66.7402, 1234.31)" x="66.7402" y="1234.31">0.1</text>
</g>
<g clip-path="url(#clip950)">
<text style="fill:#000000; fill-opacity:1; font-family:Arial,Helvetica Neue,Helvetica,sans-serif; font-size:48px; text-anchor:end;" transform="rotate(0, 66.7402, 945.853)" x="66.7402" y="945.853">0.2</text>
</g>
<g clip-path="url(#clip950)">
<text style="fill:#000000; fill-opacity:1; font-family:Arial,Helvetica Neue,Helvetica,sans-serif; font-size:48px; text-anchor:end;" transform="rotate(0, 66.7402, 657.399)" x="66.7402" y="657.399">0.3</text>
</g>
<g clip-path="url(#clip950)">
<text style="fill:#000000; fill-opacity:1; font-family:Arial,Helvetica Neue,Helvetica,sans-serif; font-size:48px; text-anchor:end;" transform="rotate(0, 66.7402, 368.946)" x="66.7402" y="368.946">0.4</text>
</g>
<g clip-path="url(#clip950)">
<text style="fill:#000000; fill-opacity:1; font-family:Arial,Helvetica Neue,Helvetica,sans-serif; font-size:48px; text-anchor:end;" transform="rotate(0, 66.7402, 80.4921)" x="66.7402" y="80.4921">0.5</text>
</g>
<g clip-path="url(#clip950)">
<text style="fill:#000000; fill-opacity:1; font-family:Arial,Helvetica Neue,Helvetica,sans-serif; font-size:66px; text-anchor:middle;" transform="rotate(-90, -23.7278, 784.126)" x="-23.7278" y="784.126">実行時間</text>
</g>
<g clip-path="url(#clip950)">
<text style="fill:#000000; fill-opacity:1; font-family:Arial,Helvetica Neue,Helvetica,sans-serif; font-size:84px; text-anchor:middle;" transform="rotate(0, 1227.75, 73.2)" x="1227.75" y="73.2">cv_fastとcv_linearの比較</text>
</g>
<polyline clip-path="url(#clip952)" style="stroke:#009af9; stroke-width:4; stroke-opacity:1; fill:none" points="
  166.42,1504.5 170.674,1503.93 172.801,1503.41 179.181,1500.84 183.435,1502.4 204.704,1498.22 215.339,1491.71 247.242,1483.96 268.512,1479.44 374.857,1444.92 
  428.03,1472.88 587.548,1453.63 693.894,1435.2 1225.62,963.588 2289.08,-21.4346 
  "/>
<polyline clip-path="url(#clip952)" style="stroke:#e26f46; stroke-width:4; stroke-opacity:1; fill:none" points="
  166.42,1446.86 170.674,1465.27 172.801,1469.92 179.181,1475.23 183.435,1432.04 204.704,1492.13 215.339,1479.78 247.242,1480.41 268.512,1481.07 374.857,1478.69 
  428.03,1493.37 587.548,1495.1 693.894,1469 1225.62,1490.88 2289.08,1493.49 
  "/>
<path clip-path="url(#clip950)" d="
M177.741 292.508 L620.325 292.508 L620.325 111.068 L177.741 111.068  Z
  " fill="#ffffff" fill-rule="evenodd" fill-opacity="1"/>
<polyline clip-path="url(#clip950)" style="stroke:#000000; stroke-width:4; stroke-opacity:1; fill:none" points="
  177.741,292.508 620.325,292.508 620.325,111.068 177.741,111.068 177.741,292.508 
  "/>
<polyline clip-path="url(#clip950)" style="stroke:#009af9; stroke-width:4; stroke-opacity:1; fill:none" points="
  202.741,171.548 352.742,171.548 
  "/>
<g clip-path="url(#clip950)">
<text style="fill:#000000; fill-opacity:1; font-family:Arial,Helvetica Neue,Helvetica,sans-serif; font-size:48px; text-anchor:start;" transform="rotate(0, 377.742, 189.048)" x="377.742" y="189.048">cv_linear</text>
</g>
<polyline clip-path="url(#clip950)" style="stroke:#e26f46; stroke-width:4; stroke-opacity:1; fill:none" points="
  202.741,232.028 352.742,232.028 
  "/>
<g clip-path="url(#clip950)">
<text style="fill:#000000; fill-opacity:1; font-family:Arial,Helvetica Neue,Helvetica,sans-serif; font-size:48px; text-anchor:start;" transform="rotate(0, 377.742, 249.528)" x="377.742" y="249.528">cv_fast</text>
</g>
</svg>
