<?xml version="1.0" encoding="utf-8"?>
<svg xmlns="http://www.w3.org/2000/svg" xmlns:xlink="http://www.w3.org/1999/xlink" width="600" height="400" viewBox="0 0 2400 1600">
<defs>
  <clipPath id="clip450">
    <rect x="0" y="0" width="2400" height="1600"/>
  </clipPath>
</defs>
<path clip-path="url(#clip450)" d="
M0 1600 L2400 1600 L2400 0 L0 0  Z
  " fill="#ffffff" fill-rule="evenodd" fill-opacity="1"/>
<defs>
  <clipPath id="clip451">
    <rect x="480" y="0" width="1681" height="1600"/>
  </clipPath>
</defs>
<path clip-path="url(#clip450)" d="
M206.992 1401.01 L2352.76 1401.01 L2352.76 62.9921 L206.992 62.9921  Z
  " fill="#ffffff" fill-rule="evenodd" fill-opacity="1"/>
<defs>
  <clipPath id="clip452">
    <rect x="206" y="62" width="2147" height="1339"/>
  </clipPath>
</defs>
<polyline clip-path="url(#clip452)" style="stroke:#000000; stroke-width:2; stroke-opacity:0.1; fill:none" points="
  492.644,1401.01 492.644,62.9921 
  "/>
<polyline clip-path="url(#clip452)" style="stroke:#000000; stroke-width:2; stroke-opacity:0.1; fill:none" points="
  942.49,1401.01 942.49,62.9921 
  "/>
<polyline clip-path="url(#clip452)" style="stroke:#000000; stroke-width:2; stroke-opacity:0.1; fill:none" points="
  1392.34,1401.01 1392.34,62.9921 
  "/>
<polyline clip-path="url(#clip452)" style="stroke:#000000; stroke-width:2; stroke-opacity:0.1; fill:none" points="
  1842.18,1401.01 1842.18,62.9921 
  "/>
<polyline clip-path="url(#clip452)" style="stroke:#000000; stroke-width:2; stroke-opacity:0.1; fill:none" points="
  2292.03,1401.01 2292.03,62.9921 
  "/>
<polyline clip-path="url(#clip450)" style="stroke:#000000; stroke-width:4; stroke-opacity:1; fill:none" points="
  206.992,1401.01 2352.76,1401.01 
  "/>
<polyline clip-path="url(#clip450)" style="stroke:#000000; stroke-width:4; stroke-opacity:1; fill:none" points="
  492.644,1401.01 492.644,1384.95 
  "/>
<polyline clip-path="url(#clip450)" style="stroke:#000000; stroke-width:4; stroke-opacity:1; fill:none" points="
  942.49,1401.01 942.49,1384.95 
  "/>
<polyline clip-path="url(#clip450)" style="stroke:#000000; stroke-width:4; stroke-opacity:1; fill:none" points="
  1392.34,1401.01 1392.34,1384.95 
  "/>
<polyline clip-path="url(#clip450)" style="stroke:#000000; stroke-width:4; stroke-opacity:1; fill:none" points="
  1842.18,1401.01 1842.18,1384.95 
  "/>
<polyline clip-path="url(#clip450)" style="stroke:#000000; stroke-width:4; stroke-opacity:1; fill:none" points="
  2292.03,1401.01 2292.03,1384.95 
  "/>
<g clip-path="url(#clip450)">
<text style="fill:#000000; fill-opacity:1; font-family:Arial,Helvetica Neue,Helvetica,sans-serif; font-size:48px; text-anchor:middle;" transform="rotate(0, 492.644, 1462.21)" x="492.644" y="1462.21">2</text>
</g>
<g clip-path="url(#clip450)">
<text style="fill:#000000; fill-opacity:1; font-family:Arial,Helvetica Neue,Helvetica,sans-serif; font-size:48px; text-anchor:middle;" transform="rotate(0, 942.49, 1462.21)" x="942.49" y="1462.21">4</text>
</g>
<g clip-path="url(#clip450)">
<text style="fill:#000000; fill-opacity:1; font-family:Arial,Helvetica Neue,Helvetica,sans-serif; font-size:48px; text-anchor:middle;" transform="rotate(0, 1392.34, 1462.21)" x="1392.34" y="1462.21">6</text>
</g>
<g clip-path="url(#clip450)">
<text style="fill:#000000; fill-opacity:1; font-family:Arial,Helvetica Neue,Helvetica,sans-serif; font-size:48px; text-anchor:middle;" transform="rotate(0, 1842.18, 1462.21)" x="1842.18" y="1462.21">8</text>
</g>
<g clip-path="url(#clip450)">
<text style="fill:#000000; fill-opacity:1; font-family:Arial,Helvetica Neue,Helvetica,sans-serif; font-size:48px; text-anchor:middle;" transform="rotate(0, 2292.03, 1462.21)" x="2292.03" y="1462.21">10</text>
</g>
<g clip-path="url(#clip450)">
<text style="fill:#000000; fill-opacity:1; font-family:Arial,Helvetica Neue,Helvetica,sans-serif; font-size:66px; text-anchor:middle;" transform="rotate(0, 1279.87, 1534.87)" x="1279.87" y="1534.87">K</text>
</g>
<polyline clip-path="url(#clip452)" style="stroke:#000000; stroke-width:2; stroke-opacity:0.1; fill:none" points="
  206.992,1206.98 2352.76,1206.98 
  "/>
<polyline clip-path="url(#clip452)" style="stroke:#000000; stroke-width:2; stroke-opacity:0.1; fill:none" points="
  206.992,1011.78 2352.76,1011.78 
  "/>
<polyline clip-path="url(#clip452)" style="stroke:#000000; stroke-width:2; stroke-opacity:0.1; fill:none" points="
  206.992,816.586 2352.76,816.586 
  "/>
<polyline clip-path="url(#clip452)" style="stroke:#000000; stroke-width:2; stroke-opacity:0.1; fill:none" points="
  206.992,621.388 2352.76,621.388 
  "/>
<polyline clip-path="url(#clip452)" style="stroke:#000000; stroke-width:2; stroke-opacity:0.1; fill:none" points="
  206.992,426.19 2352.76,426.19 
  "/>
<polyline clip-path="url(#clip452)" style="stroke:#000000; stroke-width:2; stroke-opacity:0.1; fill:none" points="
  206.992,230.992 2352.76,230.992 
  "/>
<polyline clip-path="url(#clip450)" style="stroke:#000000; stroke-width:4; stroke-opacity:1; fill:none" points="
  206.992,1401.01 206.992,62.9921 
  "/>
<polyline clip-path="url(#clip450)" style="stroke:#000000; stroke-width:4; stroke-opacity:1; fill:none" points="
  206.992,1206.98 232.741,1206.98 
  "/>
<polyline clip-path="url(#clip450)" style="stroke:#000000; stroke-width:4; stroke-opacity:1; fill:none" points="
  206.992,1011.78 232.741,1011.78 
  "/>
<polyline clip-path="url(#clip450)" style="stroke:#000000; stroke-width:4; stroke-opacity:1; fill:none" points="
  206.992,816.586 232.741,816.586 
  "/>
<polyline clip-path="url(#clip450)" style="stroke:#000000; stroke-width:4; stroke-opacity:1; fill:none" points="
  206.992,621.388 232.741,621.388 
  "/>
<polyline clip-path="url(#clip450)" style="stroke:#000000; stroke-width:4; stroke-opacity:1; fill:none" points="
  206.992,426.19 232.741,426.19 
  "/>
<polyline clip-path="url(#clip450)" style="stroke:#000000; stroke-width:4; stroke-opacity:1; fill:none" points="
  206.992,230.992 232.741,230.992 
  "/>
<g clip-path="url(#clip450)">
<text style="fill:#000000; fill-opacity:1; font-family:Arial,Helvetica Neue,Helvetica,sans-serif; font-size:48px; text-anchor:end;" transform="rotate(0, 170.992, 1224.48)" x="170.992" y="1224.48">0.1</text>
</g>
<g clip-path="url(#clip450)">
<text style="fill:#000000; fill-opacity:1; font-family:Arial,Helvetica Neue,Helvetica,sans-serif; font-size:48px; text-anchor:end;" transform="rotate(0, 170.992, 1029.28)" x="170.992" y="1029.28">0.2</text>
</g>
<g clip-path="url(#clip450)">
<text style="fill:#000000; fill-opacity:1; font-family:Arial,Helvetica Neue,Helvetica,sans-serif; font-size:48px; text-anchor:end;" transform="rotate(0, 170.992, 834.086)" x="170.992" y="834.086">0.3</text>
</g>
<g clip-path="url(#clip450)">
<text style="fill:#000000; fill-opacity:1; font-family:Arial,Helvetica Neue,Helvetica,sans-serif; font-size:48px; text-anchor:end;" transform="rotate(0, 170.992, 638.888)" x="170.992" y="638.888">0.4</text>
</g>
<g clip-path="url(#clip450)">
<text style="fill:#000000; fill-opacity:1; font-family:Arial,Helvetica Neue,Helvetica,sans-serif; font-size:48px; text-anchor:end;" transform="rotate(0, 170.992, 443.69)" x="170.992" y="443.69">0.5</text>
</g>
<g clip-path="url(#clip450)">
<text style="fill:#000000; fill-opacity:1; font-family:Arial,Helvetica Neue,Helvetica,sans-serif; font-size:48px; text-anchor:end;" transform="rotate(0, 170.992, 248.492)" x="170.992" y="248.492">0.6</text>
</g>
<g clip-path="url(#clip450)">
<text style="fill:#000000; fill-opacity:1; font-family:Arial,Helvetica Neue,Helvetica,sans-serif; font-size:66px; text-anchor:middle;" transform="rotate(-90, 80.5242, 732)" x="80.5242" y="732">誤り率</text>
</g>
<g clip-path="url(#clip450)">
<text style="fill:#000000; fill-opacity:1; font-family:Arial,Helvetica Neue,Helvetica,sans-serif; font-size:84px; text-anchor:middle;" transform="rotate(0, 1279.87, 73.2)" x="1279.87" y="73.2">CVによる誤り率の評価</text>
</g>
<polyline clip-path="url(#clip452)" style="stroke:#009af9; stroke-width:4; stroke-opacity:1; fill:none" points="
  267.721,100.86 492.644,712.48 717.567,1324.1 942.49,1311.09 1167.41,1337.11 1392.34,1298.07 1617.26,1363.14 1842.18,1311.09 2067.1,1350.13 2292.03,1337.11 
  
  "/>
</svg>
