<?xml version="1.0" encoding="utf-8"?>
<svg xmlns="http://www.w3.org/2000/svg" xmlns:xlink="http://www.w3.org/1999/xlink" width="600" height="400" viewBox="0 0 2400 1600">
<defs>
  <clipPath id="clip610">
    <rect x="0" y="0" width="2400" height="1600"/>
  </clipPath>
</defs>
<path clip-path="url(#clip610)" d="
M0 1600 L2400 1600 L2400 0 L0 0  Z
  " fill="#ffffff" fill-rule="evenodd" fill-opacity="1"/>
<defs>
  <clipPath id="clip611">
    <rect x="480" y="0" width="1681" height="1600"/>
  </clipPath>
</defs>
<path clip-path="url(#clip610)" d="
M102.74 1505.26 L2352.76 1505.26 L2352.76 62.9921 L102.74 62.9921  Z
  " fill="#ffffff" fill-rule="evenodd" fill-opacity="1"/>
<defs>
  <clipPath id="clip612">
    <rect x="102" y="62" width="2251" height="1443"/>
  </clipPath>
</defs>
<polyline clip-path="url(#clip612)" style="stroke:#000000; stroke-width:2; stroke-opacity:0.1; fill:none" points="
  123.1,1505.26 123.1,62.9921 
  "/>
<polyline clip-path="url(#clip612)" style="stroke:#000000; stroke-width:2; stroke-opacity:0.1; fill:none" points="
  664.594,1505.26 664.594,62.9921 
  "/>
<polyline clip-path="url(#clip612)" style="stroke:#000000; stroke-width:2; stroke-opacity:0.1; fill:none" points="
  1206.09,1505.26 1206.09,62.9921 
  "/>
<polyline clip-path="url(#clip612)" style="stroke:#000000; stroke-width:2; stroke-opacity:0.1; fill:none" points="
  1747.58,1505.26 1747.58,62.9921 
  "/>
<polyline clip-path="url(#clip612)" style="stroke:#000000; stroke-width:2; stroke-opacity:0.1; fill:none" points="
  2289.08,1505.26 2289.08,62.9921 
  "/>
<polyline clip-path="url(#clip610)" style="stroke:#000000; stroke-width:4; stroke-opacity:1; fill:none" points="
  102.74,1505.26 2352.76,1505.26 
  "/>
<polyline clip-path="url(#clip610)" style="stroke:#000000; stroke-width:4; stroke-opacity:1; fill:none" points="
  123.1,1505.26 123.1,1487.95 
  "/>
<polyline clip-path="url(#clip610)" style="stroke:#000000; stroke-width:4; stroke-opacity:1; fill:none" points="
  664.594,1505.26 664.594,1487.95 
  "/>
<polyline clip-path="url(#clip610)" style="stroke:#000000; stroke-width:4; stroke-opacity:1; fill:none" points="
  1206.09,1505.26 1206.09,1487.95 
  "/>
<polyline clip-path="url(#clip610)" style="stroke:#000000; stroke-width:4; stroke-opacity:1; fill:none" points="
  1747.58,1505.26 1747.58,1487.95 
  "/>
<polyline clip-path="url(#clip610)" style="stroke:#000000; stroke-width:4; stroke-opacity:1; fill:none" points="
  2289.08,1505.26 2289.08,1487.95 
  "/>
<g clip-path="url(#clip610)">
<text style="fill:#000000; fill-opacity:1; font-family:Arial,Helvetica Neue,Helvetica,sans-serif; font-size:48px; text-anchor:middle;" transform="rotate(0, 123.1, 1566.46)" x="123.1" y="1566.46">0</text>
</g>
<g clip-path="url(#clip610)">
<text style="fill:#000000; fill-opacity:1; font-family:Arial,Helvetica Neue,Helvetica,sans-serif; font-size:48px; text-anchor:middle;" transform="rotate(0, 664.594, 1566.46)" x="664.594" y="1566.46">25</text>
</g>
<g clip-path="url(#clip610)">
<text style="fill:#000000; fill-opacity:1; font-family:Arial,Helvetica Neue,Helvetica,sans-serif; font-size:48px; text-anchor:middle;" transform="rotate(0, 1206.09, 1566.46)" x="1206.09" y="1566.46">50</text>
</g>
<g clip-path="url(#clip610)">
<text style="fill:#000000; fill-opacity:1; font-family:Arial,Helvetica Neue,Helvetica,sans-serif; font-size:48px; text-anchor:middle;" transform="rotate(0, 1747.58, 1566.46)" x="1747.58" y="1566.46">75</text>
</g>
<g clip-path="url(#clip610)">
<text style="fill:#000000; fill-opacity:1; font-family:Arial,Helvetica Neue,Helvetica,sans-serif; font-size:48px; text-anchor:middle;" transform="rotate(0, 2289.08, 1566.46)" x="2289.08" y="1566.46">100</text>
</g>
<g clip-path="url(#clip610)">
<text style="fill:#000000; fill-opacity:1; font-family:Arial,Helvetica Neue,Helvetica,sans-serif; font-size:66px; text-anchor:middle;" transform="rotate(0, 1227.75, 1639.12)" x="1227.75" y="1639.12">k</text>
</g>
<polyline clip-path="url(#clip612)" style="stroke:#000000; stroke-width:2; stroke-opacity:0.1; fill:none" points="
  102.74,1264.88 2352.76,1264.88 
  "/>
<polyline clip-path="url(#clip612)" style="stroke:#000000; stroke-width:2; stroke-opacity:0.1; fill:none" points="
  102.74,964.409 2352.76,964.409 
  "/>
<polyline clip-path="url(#clip612)" style="stroke:#000000; stroke-width:2; stroke-opacity:0.1; fill:none" points="
  102.74,663.937 2352.76,663.937 
  "/>
<polyline clip-path="url(#clip612)" style="stroke:#000000; stroke-width:2; stroke-opacity:0.1; fill:none" points="
  102.74,363.465 2352.76,363.465 
  "/>
<polyline clip-path="url(#clip612)" style="stroke:#000000; stroke-width:2; stroke-opacity:0.1; fill:none" points="
  102.74,62.9921 2352.76,62.9921 
  "/>
<polyline clip-path="url(#clip610)" style="stroke:#000000; stroke-width:4; stroke-opacity:1; fill:none" points="
  102.74,1505.26 102.74,62.9921 
  "/>
<polyline clip-path="url(#clip610)" style="stroke:#000000; stroke-width:4; stroke-opacity:1; fill:none" points="
  102.74,1264.88 129.74,1264.88 
  "/>
<polyline clip-path="url(#clip610)" style="stroke:#000000; stroke-width:4; stroke-opacity:1; fill:none" points="
  102.74,964.409 129.74,964.409 
  "/>
<polyline clip-path="url(#clip610)" style="stroke:#000000; stroke-width:4; stroke-opacity:1; fill:none" points="
  102.74,663.937 129.74,663.937 
  "/>
<polyline clip-path="url(#clip610)" style="stroke:#000000; stroke-width:4; stroke-opacity:1; fill:none" points="
  102.74,363.465 129.74,363.465 
  "/>
<polyline clip-path="url(#clip610)" style="stroke:#000000; stroke-width:4; stroke-opacity:1; fill:none" points="
  102.74,62.9921 129.74,62.9921 
  "/>
<g clip-path="url(#clip610)">
<text style="fill:#000000; fill-opacity:1; font-family:Arial,Helvetica Neue,Helvetica,sans-serif; font-size:48px; text-anchor:end;" transform="rotate(0, 66.7402, 1282.38)" x="66.7402" y="1282.38">0.50</text>
</g>
<g clip-path="url(#clip610)">
<text style="fill:#000000; fill-opacity:1; font-family:Arial,Helvetica Neue,Helvetica,sans-serif; font-size:48px; text-anchor:end;" transform="rotate(0, 66.7402, 981.909)" x="66.7402" y="981.909">0.75</text>
</g>
<g clip-path="url(#clip610)">
<text style="fill:#000000; fill-opacity:1; font-family:Arial,Helvetica Neue,Helvetica,sans-serif; font-size:48px; text-anchor:end;" transform="rotate(0, 66.7402, 681.437)" x="66.7402" y="681.437">1.00</text>
</g>
<g clip-path="url(#clip610)">
<text style="fill:#000000; fill-opacity:1; font-family:Arial,Helvetica Neue,Helvetica,sans-serif; font-size:48px; text-anchor:end;" transform="rotate(0, 66.7402, 380.965)" x="66.7402" y="380.965">1.25</text>
</g>
<g clip-path="url(#clip610)">
<text style="fill:#000000; fill-opacity:1; font-family:Arial,Helvetica Neue,Helvetica,sans-serif; font-size:48px; text-anchor:end;" transform="rotate(0, 66.7402, 80.4921)" x="66.7402" y="80.4921">1.50</text>
</g>
<g clip-path="url(#clip610)">
<text style="fill:#000000; fill-opacity:1; font-family:Arial,Helvetica Neue,Helvetica,sans-serif; font-size:66px; text-anchor:middle;" transform="rotate(-90, -50.4901, 784.126)" x="-50.4901" y="784.126">CVの値</text>
</g>
<g clip-path="url(#clip610)">
<text style="fill:#000000; fill-opacity:1; font-family:Arial,Helvetica Neue,Helvetica,sans-serif; font-size:84px; text-anchor:middle;" transform="rotate(0, 1227.75, 73.2)" x="1227.75" y="73.2">k-foldのkとCVの値の関係</text>
</g>
<polyline clip-path="url(#clip612)" style="stroke:#009af9; stroke-width:4; stroke-opacity:1; fill:none" points="
  166.42,943.276 209.739,1038.43 231.399,1009.51 339.698,1025.09 556.296,1018.06 664.594,1013.75 1206.09,1013.81 2289.08,1004.12 
  "/>
<polyline clip-path="url(#clip612)" style="stroke:#e26f46; stroke-width:4; stroke-opacity:1; fill:none" points="
  166.42,127.377 209.739,164.179 231.399,152.764 339.698,155.015 556.296,146.723 664.594,154.961 1206.09,144.509 2289.08,137.483 
  "/>
<polyline clip-path="url(#clip612)" style="stroke:#3da44d; stroke-width:4; stroke-opacity:1; fill:none" points="
  166.42,738.895 209.739,753.614 231.399,772.625 339.698,780.28 556.296,765.802 664.594,768.362 1206.09,780.474 2289.08,779.867 
  "/>
<polyline clip-path="url(#clip612)" style="stroke:#c271d2; stroke-width:4; stroke-opacity:1; fill:none" points="
  166.42,849.78 209.739,786.206 231.399,810.433 339.698,775.911 556.296,792.313 664.594,787.66 1206.09,796.26 2289.08,800.18 
  "/>
<polyline clip-path="url(#clip612)" style="stroke:#ac8d18; stroke-width:4; stroke-opacity:1; fill:none" points="
  166.42,505.716 209.739,611.695 231.399,538.739 339.698,578.186 556.296,579.767 664.594,568.533 1206.09,564.582 2289.08,560.254 
  "/>
<polyline clip-path="url(#clip612)" style="stroke:#00a9ad; stroke-width:4; stroke-opacity:1; fill:none" points="
  166.42,310.082 209.739,414.849 231.399,449.007 339.698,400.266 556.296,403.318 664.594,378.791 1206.09,390.707 2289.08,390.347 
  "/>
<polyline clip-path="url(#clip612)" style="stroke:#ed5d92; stroke-width:4; stroke-opacity:1; fill:none" points="
  166.42,536.411 209.739,510.83 231.399,533.03 339.698,534.407 556.296,588.532 664.594,567.558 1206.09,577.696 2289.08,593.351 
  "/>
<polyline clip-path="url(#clip612)" style="stroke:#c68125; stroke-width:4; stroke-opacity:1; fill:none" points="
  166.42,166.675 209.739,383.837 231.399,429.885 339.698,447.861 556.296,482.143 664.594,492.977 1206.09,502.356 2289.08,487.193 
  "/>
<polyline clip-path="url(#clip612)" style="stroke:#00a98d; stroke-width:4; stroke-opacity:1; fill:none" points="
  166.42,557.684 209.739,548.061 231.399,562.332 339.698,530.435 556.296,517.49 664.594,525.173 1206.09,521.829 2289.08,519.574 
  "/>
<polyline clip-path="url(#clip612)" style="stroke:#8e971d; stroke-width:4; stroke-opacity:1; fill:none" points="
  166.42,600.048 209.739,625.05 231.399,579.642 339.698,570.351 556.296,563.184 664.594,560.914 1206.09,553.262 2289.08,545.5 
  "/>
</svg>
