<?xml version="1.0" encoding="utf-8"?>
<svg xmlns="http://www.w3.org/2000/svg" xmlns:xlink="http://www.w3.org/1999/xlink" width="600" height="400" viewBox="0 0 2400 1600">
<defs>
  <clipPath id="clip040">
    <rect x="0" y="0" width="2400" height="1600"/>
  </clipPath>
</defs>
<path clip-path="url(#clip040)" d="
M0 1600 L2400 1600 L2400 0 L0 0  Z
  " fill="#ffffff" fill-rule="evenodd" fill-opacity="1"/>
<defs>
  <clipPath id="clip041">
    <rect x="480" y="0" width="1681" height="1600"/>
  </clipPath>
</defs>
<path clip-path="url(#clip040)" d="
M320.006 1321.37 L2352.76 1321.37 L2352.76 121.675 L320.006 121.675  Z
  " fill="#ffffff" fill-rule="evenodd" fill-opacity="1"/>
<defs>
  <clipPath id="clip042">
    <rect x="320" y="121" width="2034" height="1201"/>
  </clipPath>
</defs>
<polyline clip-path="url(#clip042)" style="stroke:#000000; stroke-linecap:butt; stroke-linejoin:round; stroke-width:2; stroke-opacity:0.1; fill:none" points="
  373.694,1321.37 373.694,121.675 
  "/>
<polyline clip-path="url(#clip042)" style="stroke:#000000; stroke-linecap:butt; stroke-linejoin:round; stroke-width:2; stroke-opacity:0.1; fill:none" points="
  854.077,1321.37 854.077,121.675 
  "/>
<polyline clip-path="url(#clip042)" style="stroke:#000000; stroke-linecap:butt; stroke-linejoin:round; stroke-width:2; stroke-opacity:0.1; fill:none" points="
  1334.46,1321.37 1334.46,121.675 
  "/>
<polyline clip-path="url(#clip042)" style="stroke:#000000; stroke-linecap:butt; stroke-linejoin:round; stroke-width:2; stroke-opacity:0.1; fill:none" points="
  1814.84,1321.37 1814.84,121.675 
  "/>
<polyline clip-path="url(#clip042)" style="stroke:#000000; stroke-linecap:butt; stroke-linejoin:round; stroke-width:2; stroke-opacity:0.1; fill:none" points="
  2295.23,1321.37 2295.23,121.675 
  "/>
<polyline clip-path="url(#clip040)" style="stroke:#000000; stroke-linecap:butt; stroke-linejoin:round; stroke-width:4; stroke-opacity:1; fill:none" points="
  320.006,1321.37 2352.76,1321.37 
  "/>
<polyline clip-path="url(#clip040)" style="stroke:#000000; stroke-linecap:butt; stroke-linejoin:round; stroke-width:4; stroke-opacity:1; fill:none" points="
  373.694,1321.37 373.694,1302.47 
  "/>
<polyline clip-path="url(#clip040)" style="stroke:#000000; stroke-linecap:butt; stroke-linejoin:round; stroke-width:4; stroke-opacity:1; fill:none" points="
  854.077,1321.37 854.077,1302.47 
  "/>
<polyline clip-path="url(#clip040)" style="stroke:#000000; stroke-linecap:butt; stroke-linejoin:round; stroke-width:4; stroke-opacity:1; fill:none" points="
  1334.46,1321.37 1334.46,1302.47 
  "/>
<polyline clip-path="url(#clip040)" style="stroke:#000000; stroke-linecap:butt; stroke-linejoin:round; stroke-width:4; stroke-opacity:1; fill:none" points="
  1814.84,1321.37 1814.84,1302.47 
  "/>
<polyline clip-path="url(#clip040)" style="stroke:#000000; stroke-linecap:butt; stroke-linejoin:round; stroke-width:4; stroke-opacity:1; fill:none" points="
  2295.23,1321.37 2295.23,1302.47 
  "/>
<g clip-path="url(#clip040)">
<text style="fill:#000000; fill-opacity:1; font-family:Arial,Helvetica Neue,Helvetica,sans-serif; font-size:48px; text-anchor:middle;" transform="rotate(0, 373.694, 1382.57)" x="373.694" y="1382.57">0</text>
</g>
<g clip-path="url(#clip040)">
<text style="fill:#000000; fill-opacity:1; font-family:Arial,Helvetica Neue,Helvetica,sans-serif; font-size:48px; text-anchor:middle;" transform="rotate(0, 854.077, 1382.57)" x="854.077" y="1382.57">250</text>
</g>
<g clip-path="url(#clip040)">
<text style="fill:#000000; fill-opacity:1; font-family:Arial,Helvetica Neue,Helvetica,sans-serif; font-size:48px; text-anchor:middle;" transform="rotate(0, 1334.46, 1382.57)" x="1334.46" y="1382.57">500</text>
</g>
<g clip-path="url(#clip040)">
<text style="fill:#000000; fill-opacity:1; font-family:Arial,Helvetica Neue,Helvetica,sans-serif; font-size:48px; text-anchor:middle;" transform="rotate(0, 1814.84, 1382.57)" x="1814.84" y="1382.57">750</text>
</g>
<g clip-path="url(#clip040)">
<text style="fill:#000000; fill-opacity:1; font-family:Arial,Helvetica Neue,Helvetica,sans-serif; font-size:48px; text-anchor:middle;" transform="rotate(0, 2295.23, 1382.57)" x="2295.23" y="1382.57">1000</text>
</g>
<g clip-path="url(#clip040)">
<text style="fill:#000000; fill-opacity:1; font-family:Arial,Helvetica Neue,Helvetica,sans-serif; font-size:66px; text-anchor:middle;" transform="rotate(0, 1336.38, 1467.23)" x="1336.38" y="1467.23">k</text>
</g>
<polyline clip-path="url(#clip042)" style="stroke:#000000; stroke-linecap:butt; stroke-linejoin:round; stroke-width:2; stroke-opacity:0.1; fill:none" points="
  320.006,1321.37 2352.76,1321.37 
  "/>
<polyline clip-path="url(#clip042)" style="stroke:#000000; stroke-linecap:butt; stroke-linejoin:round; stroke-width:2; stroke-opacity:0.1; fill:none" points="
  320.006,1081.43 2352.76,1081.43 
  "/>
<polyline clip-path="url(#clip042)" style="stroke:#000000; stroke-linecap:butt; stroke-linejoin:round; stroke-width:2; stroke-opacity:0.1; fill:none" points="
  320.006,841.49 2352.76,841.49 
  "/>
<polyline clip-path="url(#clip042)" style="stroke:#000000; stroke-linecap:butt; stroke-linejoin:round; stroke-width:2; stroke-opacity:0.1; fill:none" points="
  320.006,601.552 2352.76,601.552 
  "/>
<polyline clip-path="url(#clip042)" style="stroke:#000000; stroke-linecap:butt; stroke-linejoin:round; stroke-width:2; stroke-opacity:0.1; fill:none" points="
  320.006,361.613 2352.76,361.613 
  "/>
<polyline clip-path="url(#clip042)" style="stroke:#000000; stroke-linecap:butt; stroke-linejoin:round; stroke-width:2; stroke-opacity:0.1; fill:none" points="
  320.006,121.675 2352.76,121.675 
  "/>
<polyline clip-path="url(#clip040)" style="stroke:#000000; stroke-linecap:butt; stroke-linejoin:round; stroke-width:4; stroke-opacity:1; fill:none" points="
  320.006,1321.37 320.006,121.675 
  "/>
<polyline clip-path="url(#clip040)" style="stroke:#000000; stroke-linecap:butt; stroke-linejoin:round; stroke-width:4; stroke-opacity:1; fill:none" points="
  320.006,1321.37 338.904,1321.37 
  "/>
<polyline clip-path="url(#clip040)" style="stroke:#000000; stroke-linecap:butt; stroke-linejoin:round; stroke-width:4; stroke-opacity:1; fill:none" points="
  320.006,1081.43 338.904,1081.43 
  "/>
<polyline clip-path="url(#clip040)" style="stroke:#000000; stroke-linecap:butt; stroke-linejoin:round; stroke-width:4; stroke-opacity:1; fill:none" points="
  320.006,841.49 338.904,841.49 
  "/>
<polyline clip-path="url(#clip040)" style="stroke:#000000; stroke-linecap:butt; stroke-linejoin:round; stroke-width:4; stroke-opacity:1; fill:none" points="
  320.006,601.552 338.904,601.552 
  "/>
<polyline clip-path="url(#clip040)" style="stroke:#000000; stroke-linecap:butt; stroke-linejoin:round; stroke-width:4; stroke-opacity:1; fill:none" points="
  320.006,361.613 338.904,361.613 
  "/>
<polyline clip-path="url(#clip040)" style="stroke:#000000; stroke-linecap:butt; stroke-linejoin:round; stroke-width:4; stroke-opacity:1; fill:none" points="
  320.006,121.675 338.904,121.675 
  "/>
<g clip-path="url(#clip040)">
<text style="fill:#000000; fill-opacity:1; font-family:Arial,Helvetica Neue,Helvetica,sans-serif; font-size:48px; text-anchor:end;" transform="rotate(0, 284.006, 1338.87)" x="284.006" y="1338.87">0.0</text>
</g>
<g clip-path="url(#clip040)">
<text style="fill:#000000; fill-opacity:1; font-family:Arial,Helvetica Neue,Helvetica,sans-serif; font-size:48px; text-anchor:end;" transform="rotate(0, 284.006, 1098.93)" x="284.006" y="1098.93">0.1</text>
</g>
<g clip-path="url(#clip040)">
<text style="fill:#000000; fill-opacity:1; font-family:Arial,Helvetica Neue,Helvetica,sans-serif; font-size:48px; text-anchor:end;" transform="rotate(0, 284.006, 858.99)" x="284.006" y="858.99">0.2</text>
</g>
<g clip-path="url(#clip040)">
<text style="fill:#000000; fill-opacity:1; font-family:Arial,Helvetica Neue,Helvetica,sans-serif; font-size:48px; text-anchor:end;" transform="rotate(0, 284.006, 619.052)" x="284.006" y="619.052">0.3</text>
</g>
<g clip-path="url(#clip040)">
<text style="fill:#000000; fill-opacity:1; font-family:Arial,Helvetica Neue,Helvetica,sans-serif; font-size:48px; text-anchor:end;" transform="rotate(0, 284.006, 379.113)" x="284.006" y="379.113">0.4</text>
</g>
<g clip-path="url(#clip040)">
<text style="fill:#000000; fill-opacity:1; font-family:Arial,Helvetica Neue,Helvetica,sans-serif; font-size:48px; text-anchor:end;" transform="rotate(0, 284.006, 139.175)" x="284.006" y="139.175">0.5</text>
</g>
<g clip-path="url(#clip040)">
<text style="fill:#000000; fill-opacity:1; font-family:Arial,Helvetica Neue,Helvetica,sans-serif; font-size:66px; text-anchor:middle;" transform="rotate(-90, 169.538, 721.521)" x="169.538" y="721.521">実行時間</text>
</g>
<g clip-path="url(#clip040)">
<text style="fill:#000000; fill-opacity:1; font-family:Arial,Helvetica Neue,Helvetica,sans-serif; font-size:84px; text-anchor:middle;" transform="rotate(0, 1336.38, 73.2)" x="1336.38" y="73.2">cv_fastとcv_linearの比較</text>
</g>
<polyline clip-path="url(#clip042)" style="stroke:#009af9; stroke-linecap:butt; stroke-linejoin:round; stroke-width:4; stroke-opacity:1; fill:none" points="
  377.537,1320.81 381.38,1320.43 383.301,1320.3 389.066,1319.73 392.909,1318.56 412.124,1317.7 421.732,1316.94 450.555,1314.46 469.77,1312.73 565.847,1278.1 
  613.885,1300.1 758,1271.7 854.077,1278.24 1334.46,1223.19 2295.23,1123.25 
  "/>
<polyline clip-path="url(#clip042)" style="stroke:#e26f46; stroke-linecap:butt; stroke-linejoin:round; stroke-width:4; stroke-opacity:1; fill:none" points="
  377.537,1191.66 381.38,1294.8 383.301,1296.87 389.066,1300.41 392.909,1301.11 412.124,1276.55 421.732,1311.42 450.555,1311.41 469.77,1311.5 565.847,1305.52 
  613.885,1312.08 758,1312.66 854.077,1312.32 1334.46,1312.35 2295.23,1312.22 
  "/>
<path clip-path="url(#clip040)" d="
M387.764 312.564 L806.208 312.564 L806.208 161.665 L387.764 161.665  Z
  " fill="#ffffff" fill-rule="evenodd" fill-opacity="1"/>
<polyline clip-path="url(#clip040)" style="stroke:#000000; stroke-linecap:butt; stroke-linejoin:round; stroke-width:4; stroke-opacity:1; fill:none" points="
  387.764,312.564 806.208,312.564 806.208,161.665 387.764,161.665 387.764,312.564 
  "/>
<polyline clip-path="url(#clip040)" style="stroke:#009af9; stroke-linecap:butt; stroke-linejoin:round; stroke-width:4; stroke-opacity:1; fill:none" points="
  410.35,211.965 545.867,211.965 
  "/>
<g clip-path="url(#clip040)">
<text style="fill:#000000; fill-opacity:1; font-family:Arial,Helvetica Neue,Helvetica,sans-serif; font-size:48px; text-anchor:start;" transform="rotate(0, 568.453, 229.465)" x="568.453" y="229.465">cv_linear</text>
</g>
<polyline clip-path="url(#clip040)" style="stroke:#e26f46; stroke-linecap:butt; stroke-linejoin:round; stroke-width:4; stroke-opacity:1; fill:none" points="
  410.35,262.264 545.867,262.264 
  "/>
<g clip-path="url(#clip040)">
<text style="fill:#000000; fill-opacity:1; font-family:Arial,Helvetica Neue,Helvetica,sans-serif; font-size:48px; text-anchor:start;" transform="rotate(0, 568.453, 279.764)" x="568.453" y="279.764">cv_fast</text>
</g>
</svg>
