<?xml version="1.0" encoding="utf-8"?>
<svg xmlns="http://www.w3.org/2000/svg" xmlns:xlink="http://www.w3.org/1999/xlink" width="500" height="500" viewBox="0 0 2000 2000">
<defs>
  <clipPath id="clip350">
    <rect x="0" y="0" width="2000" height="2000"/>
  </clipPath>
</defs>
<path clip-path="url(#clip350)" d="
M0 2000 L2000 2000 L2000 0 L0 0  Z
  " fill="#ffffff" fill-rule="evenodd" fill-opacity="1"/>
<defs>
  <clipPath id="clip351">
    <rect x="400" y="200" width="1401" height="1401"/>
  </clipPath>
</defs>
<path clip-path="url(#clip350)" d="
M325.679 1677.55 L1952.76 1677.55 L1952.76 47.2441 L325.679 47.2441  Z
  " fill="#ffffff" fill-rule="evenodd" fill-opacity="1"/>
<defs>
  <clipPath id="clip352">
    <rect x="325" y="47" width="1628" height="1631"/>
  </clipPath>
</defs>
<polyline clip-path="url(#clip352)" style="stroke:#000000; stroke-linecap:butt; stroke-linejoin:round; stroke-width:2; stroke-opacity:0.1; fill:none" points="
  325.679,1677.55 325.679,47.2441 
  "/>
<polyline clip-path="url(#clip352)" style="stroke:#000000; stroke-linecap:butt; stroke-linejoin:round; stroke-width:2; stroke-opacity:0.1; fill:none" points="
  732.448,1677.55 732.448,47.2441 
  "/>
<polyline clip-path="url(#clip352)" style="stroke:#000000; stroke-linecap:butt; stroke-linejoin:round; stroke-width:2; stroke-opacity:0.1; fill:none" points="
  1139.22,1677.55 1139.22,47.2441 
  "/>
<polyline clip-path="url(#clip352)" style="stroke:#000000; stroke-linecap:butt; stroke-linejoin:round; stroke-width:2; stroke-opacity:0.1; fill:none" points="
  1545.99,1677.55 1545.99,47.2441 
  "/>
<polyline clip-path="url(#clip352)" style="stroke:#000000; stroke-linecap:butt; stroke-linejoin:round; stroke-width:2; stroke-opacity:0.1; fill:none" points="
  1952.76,1677.55 1952.76,47.2441 
  "/>
<polyline clip-path="url(#clip350)" style="stroke:#000000; stroke-linecap:butt; stroke-linejoin:round; stroke-width:4; stroke-opacity:1; fill:none" points="
  325.679,1677.55 1952.76,1677.55 
  "/>
<polyline clip-path="url(#clip350)" style="stroke:#000000; stroke-linecap:butt; stroke-linejoin:round; stroke-width:4; stroke-opacity:1; fill:none" points="
  325.679,1677.55 325.679,1658.65 
  "/>
<polyline clip-path="url(#clip350)" style="stroke:#000000; stroke-linecap:butt; stroke-linejoin:round; stroke-width:4; stroke-opacity:1; fill:none" points="
  732.448,1677.55 732.448,1658.65 
  "/>
<polyline clip-path="url(#clip350)" style="stroke:#000000; stroke-linecap:butt; stroke-linejoin:round; stroke-width:4; stroke-opacity:1; fill:none" points="
  1139.22,1677.55 1139.22,1658.65 
  "/>
<polyline clip-path="url(#clip350)" style="stroke:#000000; stroke-linecap:butt; stroke-linejoin:round; stroke-width:4; stroke-opacity:1; fill:none" points="
  1545.99,1677.55 1545.99,1658.65 
  "/>
<polyline clip-path="url(#clip350)" style="stroke:#000000; stroke-linecap:butt; stroke-linejoin:round; stroke-width:4; stroke-opacity:1; fill:none" points="
  1952.76,1677.55 1952.76,1658.65 
  "/>
<g clip-path="url(#clip350)">
<text style="fill:#000000; fill-opacity:1; font-family:Arial,Helvetica Neue,Helvetica,sans-serif; font-size:48px; text-anchor:middle;" transform="rotate(0, 325.679, 1735.55)" x="325.679" y="1735.55">0</text>
</g>
<g clip-path="url(#clip350)">
<text style="fill:#000000; fill-opacity:1; font-family:Arial,Helvetica Neue,Helvetica,sans-serif; font-size:48px; text-anchor:middle;" transform="rotate(0, 732.448, 1735.55)" x="732.448" y="1735.55">50</text>
</g>
<g clip-path="url(#clip350)">
<text style="fill:#000000; fill-opacity:1; font-family:Arial,Helvetica Neue,Helvetica,sans-serif; font-size:48px; text-anchor:middle;" transform="rotate(0, 1139.22, 1735.55)" x="1139.22" y="1735.55">100</text>
</g>
<g clip-path="url(#clip350)">
<text style="fill:#000000; fill-opacity:1; font-family:Arial,Helvetica Neue,Helvetica,sans-serif; font-size:48px; text-anchor:middle;" transform="rotate(0, 1545.99, 1735.55)" x="1545.99" y="1735.55">150</text>
</g>
<g clip-path="url(#clip350)">
<text style="fill:#000000; fill-opacity:1; font-family:Arial,Helvetica Neue,Helvetica,sans-serif; font-size:48px; text-anchor:middle;" transform="rotate(0, 1952.76, 1735.55)" x="1952.76" y="1735.55">200</text>
</g>
<g clip-path="url(#clip350)">
<text style="fill:#000000; fill-opacity:1; font-family:Arial,Helvetica Neue,Helvetica,sans-serif; font-size:66px; text-anchor:middle;" transform="rotate(0, 1139.22, 1817.41)" x="1139.22" y="1817.41">λ</text>
</g>
<polyline clip-path="url(#clip352)" style="stroke:#000000; stroke-linecap:butt; stroke-linejoin:round; stroke-width:2; stroke-opacity:0.1; fill:none" points="
  325.679,1496.4 1952.76,1496.4 
  "/>
<polyline clip-path="url(#clip352)" style="stroke:#000000; stroke-linecap:butt; stroke-linejoin:round; stroke-width:2; stroke-opacity:0.1; fill:none" points="
  325.679,1134.11 1952.76,1134.11 
  "/>
<polyline clip-path="url(#clip352)" style="stroke:#000000; stroke-linecap:butt; stroke-linejoin:round; stroke-width:2; stroke-opacity:0.1; fill:none" points="
  325.679,771.823 1952.76,771.823 
  "/>
<polyline clip-path="url(#clip352)" style="stroke:#000000; stroke-linecap:butt; stroke-linejoin:round; stroke-width:2; stroke-opacity:0.1; fill:none" points="
  325.679,409.533 1952.76,409.533 
  "/>
<polyline clip-path="url(#clip352)" style="stroke:#000000; stroke-linecap:butt; stroke-linejoin:round; stroke-width:2; stroke-opacity:0.1; fill:none" points="
  325.679,47.2441 1952.76,47.2441 
  "/>
<polyline clip-path="url(#clip350)" style="stroke:#000000; stroke-linecap:butt; stroke-linejoin:round; stroke-width:4; stroke-opacity:1; fill:none" points="
  325.679,1677.55 325.679,47.2441 
  "/>
<polyline clip-path="url(#clip350)" style="stroke:#000000; stroke-linecap:butt; stroke-linejoin:round; stroke-width:4; stroke-opacity:1; fill:none" points="
  325.679,1496.4 344.577,1496.4 
  "/>
<polyline clip-path="url(#clip350)" style="stroke:#000000; stroke-linecap:butt; stroke-linejoin:round; stroke-width:4; stroke-opacity:1; fill:none" points="
  325.679,1134.11 344.577,1134.11 
  "/>
<polyline clip-path="url(#clip350)" style="stroke:#000000; stroke-linecap:butt; stroke-linejoin:round; stroke-width:4; stroke-opacity:1; fill:none" points="
  325.679,771.823 344.577,771.823 
  "/>
<polyline clip-path="url(#clip350)" style="stroke:#000000; stroke-linecap:butt; stroke-linejoin:round; stroke-width:4; stroke-opacity:1; fill:none" points="
  325.679,409.533 344.577,409.533 
  "/>
<polyline clip-path="url(#clip350)" style="stroke:#000000; stroke-linecap:butt; stroke-linejoin:round; stroke-width:4; stroke-opacity:1; fill:none" points="
  325.679,47.2441 344.577,47.2441 
  "/>
<g clip-path="url(#clip350)">
<text style="fill:#000000; fill-opacity:1; font-family:Arial,Helvetica Neue,Helvetica,sans-serif; font-size:48px; text-anchor:end;" transform="rotate(0, 295.679, 1513.9)" x="295.679" y="1513.9">−5</text>
</g>
<g clip-path="url(#clip350)">
<text style="fill:#000000; fill-opacity:1; font-family:Arial,Helvetica Neue,Helvetica,sans-serif; font-size:48px; text-anchor:end;" transform="rotate(0, 295.679, 1151.61)" x="295.679" y="1151.61">0</text>
</g>
<g clip-path="url(#clip350)">
<text style="fill:#000000; fill-opacity:1; font-family:Arial,Helvetica Neue,Helvetica,sans-serif; font-size:48px; text-anchor:end;" transform="rotate(0, 295.679, 789.323)" x="295.679" y="789.323">5</text>
</g>
<g clip-path="url(#clip350)">
<text style="fill:#000000; fill-opacity:1; font-family:Arial,Helvetica Neue,Helvetica,sans-serif; font-size:48px; text-anchor:end;" transform="rotate(0, 295.679, 427.033)" x="295.679" y="427.033">10</text>
</g>
<g clip-path="url(#clip350)">
<text style="fill:#000000; fill-opacity:1; font-family:Arial,Helvetica Neue,Helvetica,sans-serif; font-size:48px; text-anchor:end;" transform="rotate(0, 295.679, 64.7441)" x="295.679" y="64.7441">15</text>
</g>
<g clip-path="url(#clip350)">
<text style="fill:#000000; fill-opacity:1; font-family:Arial,Helvetica Neue,Helvetica,sans-serif; font-size:66px; text-anchor:middle;" transform="rotate(-90, 200.592, 862.395)" x="200.592" y="862.395">β</text>
</g>
<polyline clip-path="url(#clip352)" style="stroke:#009af9; stroke-linecap:butt; stroke-linejoin:round; stroke-width:4; stroke-opacity:1; fill:none" points="
  325.679,311.474 329.747,315.199 333.814,318.925 337.882,322.651 341.95,326.377 346.017,330.103 350.085,333.829 354.153,337.554 358.22,341.28 362.288,345.006 
  366.356,348.732 370.424,352.458 374.491,356.184 378.559,359.909 382.627,363.635 386.694,366.944 390.762,369.289 394.83,371.634 398.897,373.98 402.965,376.325 
  407.033,378.67 411.1,381.015 415.168,383.36 419.236,385.706 423.304,388.234 427.371,391.115 431.439,393.997 435.507,396.879 439.574,399.761 443.642,402.642 
  447.71,405.524 451.777,408.406 455.845,411.288 459.913,414.169 463.98,417.051 468.048,419.933 472.116,422.815 476.184,425.696 480.251,428.578 484.319,431.46 
  488.387,434.342 492.454,437.223 496.522,440.105 500.59,442.987 504.657,445.869 508.725,448.751 512.793,451.632 516.86,454.514 520.928,457.396 524.996,460.278 
  529.064,463.159 533.131,466.041 537.199,468.923 541.267,471.805 545.334,474.686 549.402,477.568 553.47,480.45 557.537,483.332 561.605,486.213 565.673,489.095 
  569.74,491.977 573.808,494.859 577.876,497.741 581.944,500.622 586.011,503.504 590.079,506.386 594.147,509.268 598.214,512.149 602.282,515.031 606.35,517.913 
  610.417,520.795 614.485,523.676 618.553,526.558 622.62,529.44 626.688,532.322 630.756,535.203 634.824,538.085 638.891,540.967 642.959,543.849 647.027,546.73 
  651.094,549.612 655.162,552.494 659.23,555.376 663.297,558.258 667.365,561.139 671.433,564.021 675.5,566.903 679.568,569.785 683.636,572.666 687.704,575.548 
  691.771,578.43 695.839,581.312 699.907,584.193 703.974,587.075 708.042,589.957 712.11,592.839 716.177,595.72 720.245,598.602 724.313,601.484 728.38,604.366 
  732.448,607.247 736.516,610.129 740.584,613.011 744.651,615.24 748.719,617.305 752.787,619.371 756.854,621.436 760.922,623.502 764.99,625.567 769.057,627.633 
  773.125,629.698 777.193,631.764 781.26,633.829 785.328,635.894 789.396,637.96 793.464,640.025 797.531,642.091 801.599,644.156 805.667,646.222 809.734,648.287 
  813.802,650.352 817.87,652.418 821.937,654.483 826.005,656.549 830.073,658.614 834.14,660.68 838.208,662.745 842.276,664.811 846.344,666.876 850.411,668.941 
  854.479,671.007 858.547,673.072 862.614,675.138 866.682,677.498 870.75,680.12 874.817,682.741 878.885,685.362 882.953,687.984 887.02,690.605 891.088,693.227 
  895.156,695.848 899.224,698.47 903.291,701.091 907.359,703.712 911.427,706.334 915.494,708.955 919.562,711.577 923.63,714.198 927.697,716.819 931.765,719.441 
  935.833,722.062 939.9,724.684 943.968,727.305 948.036,729.927 952.104,732.548 956.171,735.169 960.239,737.791 964.307,740.412 968.374,743.034 972.442,745.655 
  976.51,748.276 980.577,750.898 984.645,753.519 988.713,756.141 992.78,758.762 996.848,761.384 1000.92,764.005 1004.98,766.626 1009.05,769.248 1013.12,771.869 
  1017.19,774.491 1021.25,777.112 1025.32,779.733 1029.39,782.355 1033.46,784.976 1037.53,787.598 1041.59,790.219 1045.66,792.841 1049.73,795.462 1053.8,798.083 
  1057.86,800.705 1061.93,803.326 1066,805.948 1070.07,808.569 1074.13,811.19 1078.2,813.812 1082.27,816.433 1086.34,819.055 1090.41,821.676 1094.47,824.298 
  1098.54,826.919 1102.61,829.54 1106.68,832.162 1110.74,834.783 1114.81,837.405 1118.88,840.026 1122.95,842.647 1127.01,845.269 1131.08,847.89 1135.15,850.512 
  1139.22,853.133 1143.29,855.755 1147.35,858.376 1151.42,860.997 1155.49,863.619 1159.56,866.24 1163.62,868.862 1167.69,871.483 1171.76,874.104 1175.83,876.726 
  1179.89,879.347 1183.96,881.969 1188.03,884.59 1192.1,887.212 1196.17,889.833 1200.23,892.454 1204.3,895.076 1208.37,897.697 1212.44,900.319 1216.5,902.94 
  1220.57,905.561 1224.64,908.183 1228.71,910.804 1232.77,913.426 1236.84,916.047 1240.91,918.669 1244.98,921.29 1249.05,923.911 1253.11,926.533 1257.18,929.154 
  1261.25,931.776 1265.32,934.397 1269.38,937.018 1273.45,939.64 1277.52,942.261 1281.59,944.883 1285.65,947.504 1289.72,950.126 1293.79,952.747 1297.86,955.368 
  1301.93,957.99 1305.99,960.611 1310.06,963.233 1314.13,965.854 1318.2,968.475 1322.26,971.097 1326.33,973.718 1330.4,976.34 1334.47,978.961 1338.53,981.583 
  1342.6,984.204 1346.67,986.825 1350.74,989.447 1354.81,992.068 1358.87,994.69 1362.94,997.311 1367.01,999.932 1371.08,1002.55 1375.14,1005.18 1379.21,1007.8 
  1383.28,1010.42 1387.35,1013.04 1391.41,1015.66 1395.48,1018.28 1399.55,1020.9 1403.62,1023.53 1407.69,1026.15 1411.75,1028.77 1415.82,1031.39 1419.89,1034.01 
  1423.96,1036.63 1428.02,1039.25 1432.09,1041.88 1436.16,1044.5 1440.23,1047.12 1444.29,1049.74 1448.36,1052.36 1452.43,1054.98 1456.5,1057.6 1460.57,1060.23 
  1464.63,1062.85 1468.7,1065.47 1472.77,1068.09 1476.84,1070.71 1480.9,1073.33 1484.97,1075.95 1489.04,1078.57 1493.11,1081.2 1497.17,1083.82 1501.24,1086.44 
  1505.31,1089.06 1509.38,1091.68 1513.45,1094.3 1517.51,1096.92 1521.58,1099.55 1525.65,1102.17 1529.72,1104.79 1533.78,1107.41 1537.85,1110.03 1541.92,1112.65 
  1545.99,1115.27 1550.05,1117.9 1554.12,1120.52 1558.19,1123.14 1562.26,1125.76 1566.33,1128.38 1570.39,1131 1574.46,1133.62 1578.53,1134.11 1582.6,1134.11 
  1586.66,1134.11 1590.73,1134.11 1594.8,1134.11 1598.87,1134.11 1602.93,1134.11 1607,1134.11 1611.07,1134.11 1615.14,1134.11 1619.21,1134.11 1623.27,1134.11 
  1627.34,1134.11 1631.41,1134.11 1635.48,1134.11 1639.54,1134.11 1643.61,1134.11 1647.68,1134.11 1651.75,1134.11 1655.81,1134.11 1659.88,1134.11 1663.95,1134.11 
  1668.02,1134.11 1672.09,1134.11 1676.15,1134.11 1680.22,1134.11 1684.29,1134.11 1688.36,1134.11 1692.42,1134.11 1696.49,1134.11 1700.56,1134.11 1704.63,1134.11 
  1708.69,1134.11 1712.76,1134.11 1716.83,1134.11 1720.9,1134.11 1724.97,1134.11 1729.03,1134.11 1733.1,1134.11 1737.17,1134.11 1741.24,1134.11 1745.3,1134.11 
  1749.37,1134.11 1753.44,1134.11 1757.51,1134.11 1761.57,1134.11 1765.64,1134.11 1769.71,1134.11 1773.78,1134.11 1777.85,1134.11 1781.91,1134.11 1785.98,1134.11 
  1790.05,1134.11 1794.12,1134.11 1798.18,1134.11 1802.25,1134.11 1806.32,1134.11 1810.39,1134.11 1814.45,1134.11 1818.52,1134.11 1822.59,1134.11 1826.66,1134.11 
  1830.73,1134.11 1834.79,1134.11 1838.86,1134.11 1842.93,1134.11 1847,1134.11 1851.06,1134.11 1855.13,1134.11 1859.2,1134.11 1863.27,1134.11 1867.33,1134.11 
  1871.4,1134.11 1875.47,1134.11 1879.54,1134.11 1883.61,1134.11 1887.67,1134.11 1891.74,1134.11 1895.81,1134.11 1899.88,1134.11 1903.94,1134.11 1908.01,1134.11 
  1912.08,1134.11 1916.15,1134.11 1920.21,1134.11 1924.28,1134.11 1928.35,1134.11 1932.42,1134.11 1936.49,1134.11 1940.55,1134.11 1944.62,1134.11 1948.69,1134.11 
  1952.76,1134.11 
  "/>
<polyline clip-path="url(#clip352)" style="stroke:#e26f46; stroke-linecap:butt; stroke-linejoin:round; stroke-width:4; stroke-opacity:1; fill:none" points="
  325.679,1570.48 329.747,1563.53 333.814,1556.58 337.882,1549.63 341.95,1542.68 346.017,1535.74 350.085,1528.79 354.153,1521.84 358.22,1514.89 362.288,1507.94 
  366.356,1501 370.424,1494.05 374.491,1487.1 378.559,1480.15 382.627,1473.2 386.694,1465.97 390.762,1458.09 394.83,1450.2 398.897,1442.31 402.965,1434.43 
  407.033,1426.54 411.1,1418.65 415.168,1410.77 419.236,1402.88 423.304,1396.35 427.371,1392.45 431.439,1388.55 435.507,1384.64 439.574,1380.74 443.642,1376.84 
  447.71,1372.93 451.777,1369.03 455.845,1365.13 459.913,1361.22 463.98,1357.32 468.048,1353.42 472.116,1349.51 476.184,1345.61 480.251,1341.71 484.319,1337.8 
  488.387,1333.9 492.454,1330 496.522,1326.09 500.59,1322.19 504.657,1318.29 508.725,1314.38 512.793,1310.48 516.86,1306.58 520.928,1302.67 524.996,1298.77 
  529.064,1294.87 533.131,1290.96 537.199,1287.06 541.267,1283.16 545.334,1279.25 549.402,1275.35 553.47,1271.45 557.537,1267.55 561.605,1263.64 565.673,1259.74 
  569.74,1255.84 573.808,1251.93 577.876,1248.03 581.944,1244.13 586.011,1240.22 590.079,1236.32 594.147,1232.42 598.214,1228.51 602.282,1224.61 606.35,1220.71 
  610.417,1216.8 614.485,1212.9 618.553,1209 622.62,1205.09 626.688,1201.19 630.756,1197.29 634.824,1193.38 638.891,1189.48 642.959,1185.58 647.027,1181.67 
  651.094,1177.77 655.162,1173.87 659.23,1169.96 663.297,1166.06 667.365,1162.16 671.433,1158.25 675.5,1154.35 679.568,1150.45 683.636,1146.54 687.704,1142.64 
  691.771,1138.74 695.839,1134.84 699.907,1134.11 703.974,1134.11 708.042,1134.11 712.11,1134.11 716.177,1134.11 720.245,1134.11 724.313,1134.11 728.38,1134.11 
  732.448,1134.11 736.516,1134.11 740.584,1134.11 744.651,1134.11 748.719,1134.11 752.787,1134.11 756.854,1134.11 760.922,1134.11 764.99,1134.11 769.057,1134.11 
  773.125,1134.11 777.193,1134.11 781.26,1134.11 785.328,1134.11 789.396,1134.11 793.464,1134.11 797.531,1134.11 801.599,1134.11 805.667,1134.11 809.734,1134.11 
  813.802,1134.11 817.87,1134.11 821.937,1134.11 826.005,1134.11 830.073,1134.11 834.14,1134.11 838.208,1134.11 842.276,1134.11 846.344,1134.11 850.411,1134.11 
  854.479,1134.11 858.547,1134.11 862.614,1134.11 866.682,1134.11 870.75,1134.11 874.817,1134.11 878.885,1134.11 882.953,1134.11 887.02,1134.11 891.088,1134.11 
  895.156,1134.11 899.224,1134.11 903.291,1134.11 907.359,1134.11 911.427,1134.11 915.494,1134.11 919.562,1134.11 923.63,1134.11 927.697,1134.11 931.765,1134.11 
  935.833,1134.11 939.9,1134.11 943.968,1134.11 948.036,1134.11 952.104,1134.11 956.171,1134.11 960.239,1134.11 964.307,1134.11 968.374,1134.11 972.442,1134.11 
  976.51,1134.11 980.577,1134.11 984.645,1134.11 988.713,1134.11 992.78,1134.11 996.848,1134.11 1000.92,1134.11 1004.98,1134.11 1009.05,1134.11 1013.12,1134.11 
  1017.19,1134.11 1021.25,1134.11 1025.32,1134.11 1029.39,1134.11 1033.46,1134.11 1037.53,1134.11 1041.59,1134.11 1045.66,1134.11 1049.73,1134.11 1053.8,1134.11 
  1057.86,1134.11 1061.93,1134.11 1066,1134.11 1070.07,1134.11 1074.13,1134.11 1078.2,1134.11 1082.27,1134.11 1086.34,1134.11 1090.41,1134.11 1094.47,1134.11 
  1098.54,1134.11 1102.61,1134.11 1106.68,1134.11 1110.74,1134.11 1114.81,1134.11 1118.88,1134.11 1122.95,1134.11 1127.01,1134.11 1131.08,1134.11 1135.15,1134.11 
  1139.22,1134.11 1143.29,1134.11 1147.35,1134.11 1151.42,1134.11 1155.49,1134.11 1159.56,1134.11 1163.62,1134.11 1167.69,1134.11 1171.76,1134.11 1175.83,1134.11 
  1179.89,1134.11 1183.96,1134.11 1188.03,1134.11 1192.1,1134.11 1196.17,1134.11 1200.23,1134.11 1204.3,1134.11 1208.37,1134.11 1212.44,1134.11 1216.5,1134.11 
  1220.57,1134.11 1224.64,1134.11 1228.71,1134.11 1232.77,1134.11 1236.84,1134.11 1240.91,1134.11 1244.98,1134.11 1249.05,1134.11 1253.11,1134.11 1257.18,1134.11 
  1261.25,1134.11 1265.32,1134.11 1269.38,1134.11 1273.45,1134.11 1277.52,1134.11 1281.59,1134.11 1285.65,1134.11 1289.72,1134.11 1293.79,1134.11 1297.86,1134.11 
  1301.93,1134.11 1305.99,1134.11 1310.06,1134.11 1314.13,1134.11 1318.2,1134.11 1322.26,1134.11 1326.33,1134.11 1330.4,1134.11 1334.47,1134.11 1338.53,1134.11 
  1342.6,1134.11 1346.67,1134.11 1350.74,1134.11 1354.81,1134.11 1358.87,1134.11 1362.94,1134.11 1367.01,1134.11 1371.08,1134.11 1375.14,1134.11 1379.21,1134.11 
  1383.28,1134.11 1387.35,1134.11 1391.41,1134.11 1395.48,1134.11 1399.55,1134.11 1403.62,1134.11 1407.69,1134.11 1411.75,1134.11 1415.82,1134.11 1419.89,1134.11 
  1423.96,1134.11 1428.02,1134.11 1432.09,1134.11 1436.16,1134.11 1440.23,1134.11 1444.29,1134.11 1448.36,1134.11 1452.43,1134.11 1456.5,1134.11 1460.57,1134.11 
  1464.63,1134.11 1468.7,1134.11 1472.77,1134.11 1476.84,1134.11 1480.9,1134.11 1484.97,1134.11 1489.04,1134.11 1493.11,1134.11 1497.17,1134.11 1501.24,1134.11 
  1505.31,1134.11 1509.38,1134.11 1513.45,1134.11 1517.51,1134.11 1521.58,1134.11 1525.65,1134.11 1529.72,1134.11 1533.78,1134.11 1537.85,1134.11 1541.92,1134.11 
  1545.99,1134.11 1550.05,1134.11 1554.12,1134.11 1558.19,1134.11 1562.26,1134.11 1566.33,1134.11 1570.39,1134.11 1574.46,1134.11 1578.53,1134.11 1582.6,1134.11 
  1586.66,1134.11 1590.73,1134.11 1594.8,1134.11 1598.87,1134.11 1602.93,1134.11 1607,1134.11 1611.07,1134.11 1615.14,1134.11 1619.21,1134.11 1623.27,1134.11 
  1627.34,1134.11 1631.41,1134.11 1635.48,1134.11 1639.54,1134.11 1643.61,1134.11 1647.68,1134.11 1651.75,1134.11 1655.81,1134.11 1659.88,1134.11 1663.95,1134.11 
  1668.02,1134.11 1672.09,1134.11 1676.15,1134.11 1680.22,1134.11 1684.29,1134.11 1688.36,1134.11 1692.42,1134.11 1696.49,1134.11 1700.56,1134.11 1704.63,1134.11 
  1708.69,1134.11 1712.76,1134.11 1716.83,1134.11 1720.9,1134.11 1724.97,1134.11 1729.03,1134.11 1733.1,1134.11 1737.17,1134.11 1741.24,1134.11 1745.3,1134.11 
  1749.37,1134.11 1753.44,1134.11 1757.51,1134.11 1761.57,1134.11 1765.64,1134.11 1769.71,1134.11 1773.78,1134.11 1777.85,1134.11 1781.91,1134.11 1785.98,1134.11 
  1790.05,1134.11 1794.12,1134.11 1798.18,1134.11 1802.25,1134.11 1806.32,1134.11 1810.39,1134.11 1814.45,1134.11 1818.52,1134.11 1822.59,1134.11 1826.66,1134.11 
  1830.73,1134.11 1834.79,1134.11 1838.86,1134.11 1842.93,1134.11 1847,1134.11 1851.06,1134.11 1855.13,1134.11 1859.2,1134.11 1863.27,1134.11 1867.33,1134.11 
  1871.4,1134.11 1875.47,1134.11 1879.54,1134.11 1883.61,1134.11 1887.67,1134.11 1891.74,1134.11 1895.81,1134.11 1899.88,1134.11 1903.94,1134.11 1908.01,1134.11 
  1912.08,1134.11 1916.15,1134.11 1920.21,1134.11 1924.28,1134.11 1928.35,1134.11 1932.42,1134.11 1936.49,1134.11 1940.55,1134.11 1944.62,1134.11 1948.69,1134.11 
  1952.76,1134.11 
  "/>
<polyline clip-path="url(#clip352)" style="stroke:#3da44d; stroke-linecap:butt; stroke-linejoin:round; stroke-width:4; stroke-opacity:1; fill:none" points="
  325.679,808.782 329.747,814.197 333.814,819.613 337.882,825.028 341.95,830.444 346.017,835.86 350.085,841.275 354.153,846.691 358.22,852.107 362.288,857.522 
  366.356,862.938 370.424,868.354 374.491,873.769 378.559,879.185 382.627,884.601 386.694,889.161 390.762,891.747 394.83,894.333 398.897,896.919 402.965,899.504 
  407.033,902.09 411.1,904.676 415.168,907.261 419.236,909.847 423.304,911.755 427.371,912.352 431.439,912.949 435.507,913.545 439.574,914.142 443.642,914.739 
  447.71,915.335 451.777,915.932 455.845,916.528 459.913,917.125 463.98,917.722 468.048,918.318 472.116,918.915 476.184,919.512 480.251,920.108 484.319,920.705 
  488.387,921.302 492.454,921.898 496.522,922.495 500.59,923.091 504.657,923.688 508.725,924.285 512.793,924.881 516.86,925.478 520.928,926.075 524.996,926.671 
  529.064,927.268 533.131,927.864 537.199,928.461 541.267,929.058 545.334,929.654 549.402,930.251 553.47,930.848 557.537,931.444 561.605,932.041 565.673,932.638 
  569.74,933.234 573.808,933.831 577.876,934.427 581.944,935.024 586.011,935.621 590.079,936.217 594.147,936.814 598.214,937.411 602.282,938.007 606.35,938.604 
  610.417,939.201 614.485,939.797 618.553,940.394 622.62,940.99 626.688,941.587 630.756,942.184 634.824,942.78 638.891,943.377 642.959,943.974 647.027,944.57 
  651.094,945.167 655.162,945.764 659.23,946.36 663.297,946.957 667.365,947.553 671.433,948.15 675.5,948.747 679.568,949.343 683.636,949.94 687.704,950.537 
  691.771,951.133 695.839,951.73 699.907,955.096 703.974,959.092 708.042,963.088 712.11,967.084 716.177,971.079 720.245,975.075 724.313,979.071 728.38,983.067 
  732.448,987.063 736.516,991.059 740.584,995.054 744.651,999.507 748.719,1004.08 752.787,1008.64 756.854,1013.21 760.922,1017.78 764.99,1022.35 769.057,1026.91 
  773.125,1031.48 777.193,1036.05 781.26,1040.62 785.328,1045.18 789.396,1049.75 793.464,1054.32 797.531,1058.89 801.599,1063.45 805.667,1068.02 809.734,1072.59 
  813.802,1077.16 817.87,1081.72 821.937,1086.29 826.005,1090.86 830.073,1095.43 834.14,1100 838.208,1104.56 842.276,1109.13 846.344,1113.7 850.411,1118.27 
  854.479,1122.83 858.547,1127.4 862.614,1131.97 866.682,1134.11 870.75,1134.11 874.817,1134.11 878.885,1134.11 882.953,1134.11 887.02,1134.11 891.088,1134.11 
  895.156,1134.11 899.224,1134.11 903.291,1134.11 907.359,1134.11 911.427,1134.11 915.494,1134.11 919.562,1134.11 923.63,1134.11 927.697,1134.11 931.765,1134.11 
  935.833,1134.11 939.9,1134.11 943.968,1134.11 948.036,1134.11 952.104,1134.11 956.171,1134.11 960.239,1134.11 964.307,1134.11 968.374,1134.11 972.442,1134.11 
  976.51,1134.11 980.577,1134.11 984.645,1134.11 988.713,1134.11 992.78,1134.11 996.848,1134.11 1000.92,1134.11 1004.98,1134.11 1009.05,1134.11 1013.12,1134.11 
  1017.19,1134.11 1021.25,1134.11 1025.32,1134.11 1029.39,1134.11 1033.46,1134.11 1037.53,1134.11 1041.59,1134.11 1045.66,1134.11 1049.73,1134.11 1053.8,1134.11 
  1057.86,1134.11 1061.93,1134.11 1066,1134.11 1070.07,1134.11 1074.13,1134.11 1078.2,1134.11 1082.27,1134.11 1086.34,1134.11 1090.41,1134.11 1094.47,1134.11 
  1098.54,1134.11 1102.61,1134.11 1106.68,1134.11 1110.74,1134.11 1114.81,1134.11 1118.88,1134.11 1122.95,1134.11 1127.01,1134.11 1131.08,1134.11 1135.15,1134.11 
  1139.22,1134.11 1143.29,1134.11 1147.35,1134.11 1151.42,1134.11 1155.49,1134.11 1159.56,1134.11 1163.62,1134.11 1167.69,1134.11 1171.76,1134.11 1175.83,1134.11 
  1179.89,1134.11 1183.96,1134.11 1188.03,1134.11 1192.1,1134.11 1196.17,1134.11 1200.23,1134.11 1204.3,1134.11 1208.37,1134.11 1212.44,1134.11 1216.5,1134.11 
  1220.57,1134.11 1224.64,1134.11 1228.71,1134.11 1232.77,1134.11 1236.84,1134.11 1240.91,1134.11 1244.98,1134.11 1249.05,1134.11 1253.11,1134.11 1257.18,1134.11 
  1261.25,1134.11 1265.32,1134.11 1269.38,1134.11 1273.45,1134.11 1277.52,1134.11 1281.59,1134.11 1285.65,1134.11 1289.72,1134.11 1293.79,1134.11 1297.86,1134.11 
  1301.93,1134.11 1305.99,1134.11 1310.06,1134.11 1314.13,1134.11 1318.2,1134.11 1322.26,1134.11 1326.33,1134.11 1330.4,1134.11 1334.47,1134.11 1338.53,1134.11 
  1342.6,1134.11 1346.67,1134.11 1350.74,1134.11 1354.81,1134.11 1358.87,1134.11 1362.94,1134.11 1367.01,1134.11 1371.08,1134.11 1375.14,1134.11 1379.21,1134.11 
  1383.28,1134.11 1387.35,1134.11 1391.41,1134.11 1395.48,1134.11 1399.55,1134.11 1403.62,1134.11 1407.69,1134.11 1411.75,1134.11 1415.82,1134.11 1419.89,1134.11 
  1423.96,1134.11 1428.02,1134.11 1432.09,1134.11 1436.16,1134.11 1440.23,1134.11 1444.29,1134.11 1448.36,1134.11 1452.43,1134.11 1456.5,1134.11 1460.57,1134.11 
  1464.63,1134.11 1468.7,1134.11 1472.77,1134.11 1476.84,1134.11 1480.9,1134.11 1484.97,1134.11 1489.04,1134.11 1493.11,1134.11 1497.17,1134.11 1501.24,1134.11 
  1505.31,1134.11 1509.38,1134.11 1513.45,1134.11 1517.51,1134.11 1521.58,1134.11 1525.65,1134.11 1529.72,1134.11 1533.78,1134.11 1537.85,1134.11 1541.92,1134.11 
  1545.99,1134.11 1550.05,1134.11 1554.12,1134.11 1558.19,1134.11 1562.26,1134.11 1566.33,1134.11 1570.39,1134.11 1574.46,1134.11 1578.53,1134.11 1582.6,1134.11 
  1586.66,1134.11 1590.73,1134.11 1594.8,1134.11 1598.87,1134.11 1602.93,1134.11 1607,1134.11 1611.07,1134.11 1615.14,1134.11 1619.21,1134.11 1623.27,1134.11 
  1627.34,1134.11 1631.41,1134.11 1635.48,1134.11 1639.54,1134.11 1643.61,1134.11 1647.68,1134.11 1651.75,1134.11 1655.81,1134.11 1659.88,1134.11 1663.95,1134.11 
  1668.02,1134.11 1672.09,1134.11 1676.15,1134.11 1680.22,1134.11 1684.29,1134.11 1688.36,1134.11 1692.42,1134.11 1696.49,1134.11 1700.56,1134.11 1704.63,1134.11 
  1708.69,1134.11 1712.76,1134.11 1716.83,1134.11 1720.9,1134.11 1724.97,1134.11 1729.03,1134.11 1733.1,1134.11 1737.17,1134.11 1741.24,1134.11 1745.3,1134.11 
  1749.37,1134.11 1753.44,1134.11 1757.51,1134.11 1761.57,1134.11 1765.64,1134.11 1769.71,1134.11 1773.78,1134.11 1777.85,1134.11 1781.91,1134.11 1785.98,1134.11 
  1790.05,1134.11 1794.12,1134.11 1798.18,1134.11 1802.25,1134.11 1806.32,1134.11 1810.39,1134.11 1814.45,1134.11 1818.52,1134.11 1822.59,1134.11 1826.66,1134.11 
  1830.73,1134.11 1834.79,1134.11 1838.86,1134.11 1842.93,1134.11 1847,1134.11 1851.06,1134.11 1855.13,1134.11 1859.2,1134.11 1863.27,1134.11 1867.33,1134.11 
  1871.4,1134.11 1875.47,1134.11 1879.54,1134.11 1883.61,1134.11 1887.67,1134.11 1891.74,1134.11 1895.81,1134.11 1899.88,1134.11 1903.94,1134.11 1908.01,1134.11 
  1912.08,1134.11 1916.15,1134.11 1920.21,1134.11 1924.28,1134.11 1928.35,1134.11 1932.42,1134.11 1936.49,1134.11 1940.55,1134.11 1944.62,1134.11 1948.69,1134.11 
  1952.76,1134.11 
  "/>
<polyline clip-path="url(#clip352)" style="stroke:#c271d2; stroke-linecap:butt; stroke-linejoin:round; stroke-width:4; stroke-opacity:1; fill:none" points="
  325.679,1076.22 329.747,1080.69 333.814,1085.16 337.882,1089.62 341.95,1094.09 346.017,1098.56 350.085,1103.03 354.153,1107.5 358.22,1111.96 362.288,1116.43 
  366.356,1120.9 370.424,1125.37 374.491,1129.84 378.559,1134.11 382.627,1134.11 386.694,1134.11 390.762,1134.11 394.83,1134.11 398.897,1134.11 402.965,1134.11 
  407.033,1134.11 411.1,1134.11 415.168,1134.11 419.236,1134.11 423.304,1134.11 427.371,1134.11 431.439,1134.11 435.507,1134.11 439.574,1134.11 443.642,1134.11 
  447.71,1134.11 451.777,1134.11 455.845,1134.11 459.913,1134.11 463.98,1134.11 468.048,1134.11 472.116,1134.11 476.184,1134.11 480.251,1134.11 484.319,1134.11 
  488.387,1134.11 492.454,1134.11 496.522,1134.11 500.59,1134.11 504.657,1134.11 508.725,1134.11 512.793,1134.11 516.86,1134.11 520.928,1134.11 524.996,1134.11 
  529.064,1134.11 533.131,1134.11 537.199,1134.11 541.267,1134.11 545.334,1134.11 549.402,1134.11 553.47,1134.11 557.537,1134.11 561.605,1134.11 565.673,1134.11 
  569.74,1134.11 573.808,1134.11 577.876,1134.11 581.944,1134.11 586.011,1134.11 590.079,1134.11 594.147,1134.11 598.214,1134.11 602.282,1134.11 606.35,1134.11 
  610.417,1134.11 614.485,1134.11 618.553,1134.11 622.62,1134.11 626.688,1134.11 630.756,1134.11 634.824,1134.11 638.891,1134.11 642.959,1134.11 647.027,1134.11 
  651.094,1134.11 655.162,1134.11 659.23,1134.11 663.297,1134.11 667.365,1134.11 671.433,1134.11 675.5,1134.11 679.568,1134.11 683.636,1134.11 687.704,1134.11 
  691.771,1134.11 695.839,1134.11 699.907,1134.11 703.974,1134.11 708.042,1134.11 712.11,1134.11 716.177,1134.11 720.245,1134.11 724.313,1134.11 728.38,1134.11 
  732.448,1134.11 736.516,1134.11 740.584,1134.11 744.651,1134.11 748.719,1134.11 752.787,1134.11 756.854,1134.11 760.922,1134.11 764.99,1134.11 769.057,1134.11 
  773.125,1134.11 777.193,1134.11 781.26,1134.11 785.328,1134.11 789.396,1134.11 793.464,1134.11 797.531,1134.11 801.599,1134.11 805.667,1134.11 809.734,1134.11 
  813.802,1134.11 817.87,1134.11 821.937,1134.11 826.005,1134.11 830.073,1134.11 834.14,1134.11 838.208,1134.11 842.276,1134.11 846.344,1134.11 850.411,1134.11 
  854.479,1134.11 858.547,1134.11 862.614,1134.11 866.682,1134.11 870.75,1134.11 874.817,1134.11 878.885,1134.11 882.953,1134.11 887.02,1134.11 891.088,1134.11 
  895.156,1134.11 899.224,1134.11 903.291,1134.11 907.359,1134.11 911.427,1134.11 915.494,1134.11 919.562,1134.11 923.63,1134.11 927.697,1134.11 931.765,1134.11 
  935.833,1134.11 939.9,1134.11 943.968,1134.11 948.036,1134.11 952.104,1134.11 956.171,1134.11 960.239,1134.11 964.307,1134.11 968.374,1134.11 972.442,1134.11 
  976.51,1134.11 980.577,1134.11 984.645,1134.11 988.713,1134.11 992.78,1134.11 996.848,1134.11 1000.92,1134.11 1004.98,1134.11 1009.05,1134.11 1013.12,1134.11 
  1017.19,1134.11 1021.25,1134.11 1025.32,1134.11 1029.39,1134.11 1033.46,1134.11 1037.53,1134.11 1041.59,1134.11 1045.66,1134.11 1049.73,1134.11 1053.8,1134.11 
  1057.86,1134.11 1061.93,1134.11 1066,1134.11 1070.07,1134.11 1074.13,1134.11 1078.2,1134.11 1082.27,1134.11 1086.34,1134.11 1090.41,1134.11 1094.47,1134.11 
  1098.54,1134.11 1102.61,1134.11 1106.68,1134.11 1110.74,1134.11 1114.81,1134.11 1118.88,1134.11 1122.95,1134.11 1127.01,1134.11 1131.08,1134.11 1135.15,1134.11 
  1139.22,1134.11 1143.29,1134.11 1147.35,1134.11 1151.42,1134.11 1155.49,1134.11 1159.56,1134.11 1163.62,1134.11 1167.69,1134.11 1171.76,1134.11 1175.83,1134.11 
  1179.89,1134.11 1183.96,1134.11 1188.03,1134.11 1192.1,1134.11 1196.17,1134.11 1200.23,1134.11 1204.3,1134.11 1208.37,1134.11 1212.44,1134.11 1216.5,1134.11 
  1220.57,1134.11 1224.64,1134.11 1228.71,1134.11 1232.77,1134.11 1236.84,1134.11 1240.91,1134.11 1244.98,1134.11 1249.05,1134.11 1253.11,1134.11 1257.18,1134.11 
  1261.25,1134.11 1265.32,1134.11 1269.38,1134.11 1273.45,1134.11 1277.52,1134.11 1281.59,1134.11 1285.65,1134.11 1289.72,1134.11 1293.79,1134.11 1297.86,1134.11 
  1301.93,1134.11 1305.99,1134.11 1310.06,1134.11 1314.13,1134.11 1318.2,1134.11 1322.26,1134.11 1326.33,1134.11 1330.4,1134.11 1334.47,1134.11 1338.53,1134.11 
  1342.6,1134.11 1346.67,1134.11 1350.74,1134.11 1354.81,1134.11 1358.87,1134.11 1362.94,1134.11 1367.01,1134.11 1371.08,1134.11 1375.14,1134.11 1379.21,1134.11 
  1383.28,1134.11 1387.35,1134.11 1391.41,1134.11 1395.48,1134.11 1399.55,1134.11 1403.62,1134.11 1407.69,1134.11 1411.75,1134.11 1415.82,1134.11 1419.89,1134.11 
  1423.96,1134.11 1428.02,1134.11 1432.09,1134.11 1436.16,1134.11 1440.23,1134.11 1444.29,1134.11 1448.36,1134.11 1452.43,1134.11 1456.5,1134.11 1460.57,1134.11 
  1464.63,1134.11 1468.7,1134.11 1472.77,1134.11 1476.84,1134.11 1480.9,1134.11 1484.97,1134.11 1489.04,1134.11 1493.11,1134.11 1497.17,1134.11 1501.24,1134.11 
  1505.31,1134.11 1509.38,1134.11 1513.45,1134.11 1517.51,1134.11 1521.58,1134.11 1525.65,1134.11 1529.72,1134.11 1533.78,1134.11 1537.85,1134.11 1541.92,1134.11 
  1545.99,1134.11 1550.05,1134.11 1554.12,1134.11 1558.19,1134.11 1562.26,1134.11 1566.33,1134.11 1570.39,1134.11 1574.46,1134.11 1578.53,1134.11 1582.6,1134.11 
  1586.66,1134.11 1590.73,1134.11 1594.8,1134.11 1598.87,1134.11 1602.93,1134.11 1607,1134.11 1611.07,1134.11 1615.14,1134.11 1619.21,1134.11 1623.27,1134.11 
  1627.34,1134.11 1631.41,1134.11 1635.48,1134.11 1639.54,1134.11 1643.61,1134.11 1647.68,1134.11 1651.75,1134.11 1655.81,1134.11 1659.88,1134.11 1663.95,1134.11 
  1668.02,1134.11 1672.09,1134.11 1676.15,1134.11 1680.22,1134.11 1684.29,1134.11 1688.36,1134.11 1692.42,1134.11 1696.49,1134.11 1700.56,1134.11 1704.63,1134.11 
  1708.69,1134.11 1712.76,1134.11 1716.83,1134.11 1720.9,1134.11 1724.97,1134.11 1729.03,1134.11 1733.1,1134.11 1737.17,1134.11 1741.24,1134.11 1745.3,1134.11 
  1749.37,1134.11 1753.44,1134.11 1757.51,1134.11 1761.57,1134.11 1765.64,1134.11 1769.71,1134.11 1773.78,1134.11 1777.85,1134.11 1781.91,1134.11 1785.98,1134.11 
  1790.05,1134.11 1794.12,1134.11 1798.18,1134.11 1802.25,1134.11 1806.32,1134.11 1810.39,1134.11 1814.45,1134.11 1818.52,1134.11 1822.59,1134.11 1826.66,1134.11 
  1830.73,1134.11 1834.79,1134.11 1838.86,1134.11 1842.93,1134.11 1847,1134.11 1851.06,1134.11 1855.13,1134.11 1859.2,1134.11 1863.27,1134.11 1867.33,1134.11 
  1871.4,1134.11 1875.47,1134.11 1879.54,1134.11 1883.61,1134.11 1887.67,1134.11 1891.74,1134.11 1895.81,1134.11 1899.88,1134.11 1903.94,1134.11 1908.01,1134.11 
  1912.08,1134.11 1916.15,1134.11 1920.21,1134.11 1924.28,1134.11 1928.35,1134.11 1932.42,1134.11 1936.49,1134.11 1940.55,1134.11 1944.62,1134.11 1948.69,1134.11 
  1952.76,1134.11 
  "/>
<polyline clip-path="url(#clip352)" style="stroke:#ac8d18; stroke-linecap:butt; stroke-linejoin:round; stroke-width:4; stroke-opacity:1; fill:none" points="
  325.679,851.632 329.747,862.15 333.814,872.668 337.882,883.187 341.95,893.705 346.017,904.223 350.085,914.742 354.153,925.26 358.22,935.778 362.288,946.297 
  366.356,956.815 370.424,967.333 374.491,977.852 378.559,988.688 382.627,1006.64 386.694,1024.59 390.762,1042.54 394.83,1060.49 398.897,1078.44 402.965,1096.39 
  407.033,1114.34 411.1,1132.29 415.168,1134.11 419.236,1134.11 423.304,1134.11 427.371,1134.11 431.439,1134.11 435.507,1134.11 439.574,1134.11 443.642,1134.11 
  447.71,1134.11 451.777,1134.11 455.845,1134.11 459.913,1134.11 463.98,1134.11 468.048,1134.11 472.116,1134.11 476.184,1134.11 480.251,1134.11 484.319,1134.11 
  488.387,1134.11 492.454,1134.11 496.522,1134.11 500.59,1134.11 504.657,1134.11 508.725,1134.11 512.793,1134.11 516.86,1134.11 520.928,1134.11 524.996,1134.11 
  529.064,1134.11 533.131,1134.11 537.199,1134.11 541.267,1134.11 545.334,1134.11 549.402,1134.11 553.47,1134.11 557.537,1134.11 561.605,1134.11 565.673,1134.11 
  569.74,1134.11 573.808,1134.11 577.876,1134.11 581.944,1134.11 586.011,1134.11 590.079,1134.11 594.147,1134.11 598.214,1134.11 602.282,1134.11 606.35,1134.11 
  610.417,1134.11 614.485,1134.11 618.553,1134.11 622.62,1134.11 626.688,1134.11 630.756,1134.11 634.824,1134.11 638.891,1134.11 642.959,1134.11 647.027,1134.11 
  651.094,1134.11 655.162,1134.11 659.23,1134.11 663.297,1134.11 667.365,1134.11 671.433,1134.11 675.5,1134.11 679.568,1134.11 683.636,1134.11 687.704,1134.11 
  691.771,1134.11 695.839,1134.11 699.907,1134.11 703.974,1134.11 708.042,1134.11 712.11,1134.11 716.177,1134.11 720.245,1134.11 724.313,1134.11 728.38,1134.11 
  732.448,1134.11 736.516,1134.11 740.584,1134.11 744.651,1134.11 748.719,1134.11 752.787,1134.11 756.854,1134.11 760.922,1134.11 764.99,1134.11 769.057,1134.11 
  773.125,1134.11 777.193,1134.11 781.26,1134.11 785.328,1134.11 789.396,1134.11 793.464,1134.11 797.531,1134.11 801.599,1134.11 805.667,1134.11 809.734,1134.11 
  813.802,1134.11 817.87,1134.11 821.937,1134.11 826.005,1134.11 830.073,1134.11 834.14,1134.11 838.208,1134.11 842.276,1134.11 846.344,1134.11 850.411,1134.11 
  854.479,1134.11 858.547,1134.11 862.614,1134.11 866.682,1134.11 870.75,1134.11 874.817,1134.11 878.885,1134.11 882.953,1134.11 887.02,1134.11 891.088,1134.11 
  895.156,1134.11 899.224,1134.11 903.291,1134.11 907.359,1134.11 911.427,1134.11 915.494,1134.11 919.562,1134.11 923.63,1134.11 927.697,1134.11 931.765,1134.11 
  935.833,1134.11 939.9,1134.11 943.968,1134.11 948.036,1134.11 952.104,1134.11 956.171,1134.11 960.239,1134.11 964.307,1134.11 968.374,1134.11 972.442,1134.11 
  976.51,1134.11 980.577,1134.11 984.645,1134.11 988.713,1134.11 992.78,1134.11 996.848,1134.11 1000.92,1134.11 1004.98,1134.11 1009.05,1134.11 1013.12,1134.11 
  1017.19,1134.11 1021.25,1134.11 1025.32,1134.11 1029.39,1134.11 1033.46,1134.11 1037.53,1134.11 1041.59,1134.11 1045.66,1134.11 1049.73,1134.11 1053.8,1134.11 
  1057.86,1134.11 1061.93,1134.11 1066,1134.11 1070.07,1134.11 1074.13,1134.11 1078.2,1134.11 1082.27,1134.11 1086.34,1134.11 1090.41,1134.11 1094.47,1134.11 
  1098.54,1134.11 1102.61,1134.11 1106.68,1134.11 1110.74,1134.11 1114.81,1134.11 1118.88,1134.11 1122.95,1134.11 1127.01,1134.11 1131.08,1134.11 1135.15,1134.11 
  1139.22,1134.11 1143.29,1134.11 1147.35,1134.11 1151.42,1134.11 1155.49,1134.11 1159.56,1134.11 1163.62,1134.11 1167.69,1134.11 1171.76,1134.11 1175.83,1134.11 
  1179.89,1134.11 1183.96,1134.11 1188.03,1134.11 1192.1,1134.11 1196.17,1134.11 1200.23,1134.11 1204.3,1134.11 1208.37,1134.11 1212.44,1134.11 1216.5,1134.11 
  1220.57,1134.11 1224.64,1134.11 1228.71,1134.11 1232.77,1134.11 1236.84,1134.11 1240.91,1134.11 1244.98,1134.11 1249.05,1134.11 1253.11,1134.11 1257.18,1134.11 
  1261.25,1134.11 1265.32,1134.11 1269.38,1134.11 1273.45,1134.11 1277.52,1134.11 1281.59,1134.11 1285.65,1134.11 1289.72,1134.11 1293.79,1134.11 1297.86,1134.11 
  1301.93,1134.11 1305.99,1134.11 1310.06,1134.11 1314.13,1134.11 1318.2,1134.11 1322.26,1134.11 1326.33,1134.11 1330.4,1134.11 1334.47,1134.11 1338.53,1134.11 
  1342.6,1134.11 1346.67,1134.11 1350.74,1134.11 1354.81,1134.11 1358.87,1134.11 1362.94,1134.11 1367.01,1134.11 1371.08,1134.11 1375.14,1134.11 1379.21,1134.11 
  1383.28,1134.11 1387.35,1134.11 1391.41,1134.11 1395.48,1134.11 1399.55,1134.11 1403.62,1134.11 1407.69,1134.11 1411.75,1134.11 1415.82,1134.11 1419.89,1134.11 
  1423.96,1134.11 1428.02,1134.11 1432.09,1134.11 1436.16,1134.11 1440.23,1134.11 1444.29,1134.11 1448.36,1134.11 1452.43,1134.11 1456.5,1134.11 1460.57,1134.11 
  1464.63,1134.11 1468.7,1134.11 1472.77,1134.11 1476.84,1134.11 1480.9,1134.11 1484.97,1134.11 1489.04,1134.11 1493.11,1134.11 1497.17,1134.11 1501.24,1134.11 
  1505.31,1134.11 1509.38,1134.11 1513.45,1134.11 1517.51,1134.11 1521.58,1134.11 1525.65,1134.11 1529.72,1134.11 1533.78,1134.11 1537.85,1134.11 1541.92,1134.11 
  1545.99,1134.11 1550.05,1134.11 1554.12,1134.11 1558.19,1134.11 1562.26,1134.11 1566.33,1134.11 1570.39,1134.11 1574.46,1134.11 1578.53,1134.11 1582.6,1134.11 
  1586.66,1134.11 1590.73,1134.11 1594.8,1134.11 1598.87,1134.11 1602.93,1134.11 1607,1134.11 1611.07,1134.11 1615.14,1134.11 1619.21,1134.11 1623.27,1134.11 
  1627.34,1134.11 1631.41,1134.11 1635.48,1134.11 1639.54,1134.11 1643.61,1134.11 1647.68,1134.11 1651.75,1134.11 1655.81,1134.11 1659.88,1134.11 1663.95,1134.11 
  1668.02,1134.11 1672.09,1134.11 1676.15,1134.11 1680.22,1134.11 1684.29,1134.11 1688.36,1134.11 1692.42,1134.11 1696.49,1134.11 1700.56,1134.11 1704.63,1134.11 
  1708.69,1134.11 1712.76,1134.11 1716.83,1134.11 1720.9,1134.11 1724.97,1134.11 1729.03,1134.11 1733.1,1134.11 1737.17,1134.11 1741.24,1134.11 1745.3,1134.11 
  1749.37,1134.11 1753.44,1134.11 1757.51,1134.11 1761.57,1134.11 1765.64,1134.11 1769.71,1134.11 1773.78,1134.11 1777.85,1134.11 1781.91,1134.11 1785.98,1134.11 
  1790.05,1134.11 1794.12,1134.11 1798.18,1134.11 1802.25,1134.11 1806.32,1134.11 1810.39,1134.11 1814.45,1134.11 1818.52,1134.11 1822.59,1134.11 1826.66,1134.11 
  1830.73,1134.11 1834.79,1134.11 1838.86,1134.11 1842.93,1134.11 1847,1134.11 1851.06,1134.11 1855.13,1134.11 1859.2,1134.11 1863.27,1134.11 1867.33,1134.11 
  1871.4,1134.11 1875.47,1134.11 1879.54,1134.11 1883.61,1134.11 1887.67,1134.11 1891.74,1134.11 1895.81,1134.11 1899.88,1134.11 1903.94,1134.11 1908.01,1134.11 
  1912.08,1134.11 1916.15,1134.11 1920.21,1134.11 1924.28,1134.11 1928.35,1134.11 1932.42,1134.11 1936.49,1134.11 1940.55,1134.11 1944.62,1134.11 1948.69,1134.11 
  1952.76,1134.11 
  "/>
<path clip-path="url(#clip350)" d="
M847.958 403.386 L1898.52 403.386 L1898.52 101.587 L847.958 101.587  Z
  " fill="#ffffff" fill-rule="evenodd" fill-opacity="1"/>
<polyline clip-path="url(#clip350)" style="stroke:#000000; stroke-linecap:butt; stroke-linejoin:round; stroke-width:4; stroke-opacity:1; fill:none" points="
  847.958,403.386 1898.52,403.386 1898.52,101.587 847.958,101.587 847.958,403.386 
  "/>
<polyline clip-path="url(#clip350)" style="stroke:#009af9; stroke-linecap:butt; stroke-linejoin:round; stroke-width:4; stroke-opacity:1; fill:none" points="
  866.036,151.887 974.508,151.887 
  "/>
<g clip-path="url(#clip350)">
<text style="fill:#000000; fill-opacity:1; font-family:Arial,Helvetica Neue,Helvetica,sans-serif; font-size:48px; text-anchor:start;" transform="rotate(0, 992.587, 169.387)" x="992.587" y="169.387">警察への年間資金                                                 </text>
</g>
<polyline clip-path="url(#clip350)" style="stroke:#e26f46; stroke-linecap:butt; stroke-linejoin:round; stroke-width:4; stroke-opacity:1; fill:none" points="
  866.036,202.187 974.508,202.187 
  "/>
<g clip-path="url(#clip350)">
<text style="fill:#000000; fill-opacity:1; font-family:Arial,Helvetica Neue,Helvetica,sans-serif; font-size:48px; text-anchor:start;" transform="rotate(0, 992.587, 219.687)" x="992.587" y="219.687">25歳以上で高校を卒業した人の割合</text>
</g>
<polyline clip-path="url(#clip350)" style="stroke:#3da44d; stroke-linecap:butt; stroke-linejoin:round; stroke-width:4; stroke-opacity:1; fill:none" points="
  866.036,252.487 974.508,252.487 
  "/>
<g clip-path="url(#clip350)">
<text style="fill:#000000; fill-opacity:1; font-family:Arial,Helvetica Neue,Helvetica,sans-serif; font-size:48px; text-anchor:start;" transform="rotate(0, 992.587, 269.987)" x="992.587" y="269.987">16-19歳で高校に通っていない人の割合</text>
</g>
<polyline clip-path="url(#clip350)" style="stroke:#c271d2; stroke-linecap:butt; stroke-linejoin:round; stroke-width:4; stroke-opacity:1; fill:none" points="
  866.036,302.786 974.508,302.786 
  "/>
<g clip-path="url(#clip350)">
<text style="fill:#000000; fill-opacity:1; font-family:Arial,Helvetica Neue,Helvetica,sans-serif; font-size:48px; text-anchor:start;" transform="rotate(0, 992.587, 320.286)" x="992.587" y="320.286">18-24歳で大学生の割合</text>
</g>
<polyline clip-path="url(#clip350)" style="stroke:#ac8d18; stroke-linecap:butt; stroke-linejoin:round; stroke-width:4; stroke-opacity:1; fill:none" points="
  866.036,353.086 974.508,353.086 
  "/>
<g clip-path="url(#clip350)">
<text style="fill:#000000; fill-opacity:1; font-family:Arial,Helvetica Neue,Helvetica,sans-serif; font-size:48px; text-anchor:start;" transform="rotate(0, 992.587, 370.586)" x="992.587" y="370.586">25歳以上で４年制大学を卒業した人の割合</text>
</g>
</svg>
