<?xml version="1.0" encoding="utf-8"?>
<svg xmlns="http://www.w3.org/2000/svg" xmlns:xlink="http://www.w3.org/1999/xlink" width="500" height="200" viewBox="0 0 2000 800">
<defs>
  <clipPath id="clip510">
    <rect x="0" y="0" width="2000" height="800"/>
  </clipPath>
</defs>
<path clip-path="url(#clip510)" d="
M0 800 L2000 800 L2000 0 L0 0  Z
  " fill="#ffffff" fill-rule="evenodd" fill-opacity="1"/>
<defs>
  <clipPath id="clip511">
    <rect x="400" y="0" width="1401" height="800"/>
  </clipPath>
</defs>
<path clip-path="url(#clip510)" d="
M280.912 604.636 L952.756 604.636 L952.756 98.2019 L280.912 98.2019  Z
  " fill="#ffffff" fill-rule="evenodd" fill-opacity="1"/>
<defs>
  <clipPath id="clip512">
    <rect x="280" y="98" width="673" height="507"/>
  </clipPath>
</defs>
<polyline clip-path="url(#clip512)" style="stroke:#000000; stroke-linecap:butt; stroke-linejoin:round; stroke-width:2; stroke-opacity:0.1; fill:none" points="
  299.927,604.636 299.927,98.2019 
  "/>
<polyline clip-path="url(#clip512)" style="stroke:#000000; stroke-linecap:butt; stroke-linejoin:round; stroke-width:2; stroke-opacity:0.1; fill:none" points="
  458.38,604.636 458.38,98.2019 
  "/>
<polyline clip-path="url(#clip512)" style="stroke:#000000; stroke-linecap:butt; stroke-linejoin:round; stroke-width:2; stroke-opacity:0.1; fill:none" points="
  616.834,604.636 616.834,98.2019 
  "/>
<polyline clip-path="url(#clip512)" style="stroke:#000000; stroke-linecap:butt; stroke-linejoin:round; stroke-width:2; stroke-opacity:0.1; fill:none" points="
  775.288,604.636 775.288,98.2019 
  "/>
<polyline clip-path="url(#clip512)" style="stroke:#000000; stroke-linecap:butt; stroke-linejoin:round; stroke-width:2; stroke-opacity:0.1; fill:none" points="
  933.741,604.636 933.741,98.2019 
  "/>
<polyline clip-path="url(#clip510)" style="stroke:#000000; stroke-linecap:butt; stroke-linejoin:round; stroke-width:4; stroke-opacity:1; fill:none" points="
  280.912,604.636 952.756,604.636 
  "/>
<polyline clip-path="url(#clip510)" style="stroke:#000000; stroke-linecap:butt; stroke-linejoin:round; stroke-width:4; stroke-opacity:1; fill:none" points="
  299.927,604.636 299.927,585.738 
  "/>
<polyline clip-path="url(#clip510)" style="stroke:#000000; stroke-linecap:butt; stroke-linejoin:round; stroke-width:4; stroke-opacity:1; fill:none" points="
  458.38,604.636 458.38,585.738 
  "/>
<polyline clip-path="url(#clip510)" style="stroke:#000000; stroke-linecap:butt; stroke-linejoin:round; stroke-width:4; stroke-opacity:1; fill:none" points="
  616.834,604.636 616.834,585.738 
  "/>
<polyline clip-path="url(#clip510)" style="stroke:#000000; stroke-linecap:butt; stroke-linejoin:round; stroke-width:4; stroke-opacity:1; fill:none" points="
  775.288,604.636 775.288,585.738 
  "/>
<polyline clip-path="url(#clip510)" style="stroke:#000000; stroke-linecap:butt; stroke-linejoin:round; stroke-width:4; stroke-opacity:1; fill:none" points="
  933.741,604.636 933.741,585.738 
  "/>
<g clip-path="url(#clip510)">
<text style="fill:#000000; fill-opacity:1; font-family:Arial,Helvetica Neue,Helvetica,sans-serif; font-size:48px; text-anchor:middle;" transform="rotate(0, 299.927, 662.636)" x="299.927" y="662.636">−2</text>
</g>
<g clip-path="url(#clip510)">
<text style="fill:#000000; fill-opacity:1; font-family:Arial,Helvetica Neue,Helvetica,sans-serif; font-size:48px; text-anchor:middle;" transform="rotate(0, 458.38, 662.636)" x="458.38" y="662.636">−1</text>
</g>
<g clip-path="url(#clip510)">
<text style="fill:#000000; fill-opacity:1; font-family:Arial,Helvetica Neue,Helvetica,sans-serif; font-size:48px; text-anchor:middle;" transform="rotate(0, 616.834, 662.636)" x="616.834" y="662.636">0</text>
</g>
<g clip-path="url(#clip510)">
<text style="fill:#000000; fill-opacity:1; font-family:Arial,Helvetica Neue,Helvetica,sans-serif; font-size:48px; text-anchor:middle;" transform="rotate(0, 775.288, 662.636)" x="775.288" y="662.636">1</text>
</g>
<g clip-path="url(#clip510)">
<text style="fill:#000000; fill-opacity:1; font-family:Arial,Helvetica Neue,Helvetica,sans-serif; font-size:48px; text-anchor:middle;" transform="rotate(0, 933.741, 662.636)" x="933.741" y="662.636">2</text>
</g>
<polyline clip-path="url(#clip512)" style="stroke:#000000; stroke-linecap:butt; stroke-linejoin:round; stroke-width:2; stroke-opacity:0.1; fill:none" points="
  280.912,553.552 952.756,553.552 
  "/>
<polyline clip-path="url(#clip512)" style="stroke:#000000; stroke-linecap:butt; stroke-linejoin:round; stroke-width:2; stroke-opacity:0.1; fill:none" points="
  280.912,461.673 952.756,461.673 
  "/>
<polyline clip-path="url(#clip512)" style="stroke:#000000; stroke-linecap:butt; stroke-linejoin:round; stroke-width:2; stroke-opacity:0.1; fill:none" points="
  280.912,369.795 952.756,369.795 
  "/>
<polyline clip-path="url(#clip512)" style="stroke:#000000; stroke-linecap:butt; stroke-linejoin:round; stroke-width:2; stroke-opacity:0.1; fill:none" points="
  280.912,277.916 952.756,277.916 
  "/>
<polyline clip-path="url(#clip512)" style="stroke:#000000; stroke-linecap:butt; stroke-linejoin:round; stroke-width:2; stroke-opacity:0.1; fill:none" points="
  280.912,186.038 952.756,186.038 
  "/>
<polyline clip-path="url(#clip510)" style="stroke:#000000; stroke-linecap:butt; stroke-linejoin:round; stroke-width:4; stroke-opacity:1; fill:none" points="
  280.912,604.636 280.912,98.2019 
  "/>
<polyline clip-path="url(#clip510)" style="stroke:#000000; stroke-linecap:butt; stroke-linejoin:round; stroke-width:4; stroke-opacity:1; fill:none" points="
  280.912,553.552 299.81,553.552 
  "/>
<polyline clip-path="url(#clip510)" style="stroke:#000000; stroke-linecap:butt; stroke-linejoin:round; stroke-width:4; stroke-opacity:1; fill:none" points="
  280.912,461.673 299.81,461.673 
  "/>
<polyline clip-path="url(#clip510)" style="stroke:#000000; stroke-linecap:butt; stroke-linejoin:round; stroke-width:4; stroke-opacity:1; fill:none" points="
  280.912,369.795 299.81,369.795 
  "/>
<polyline clip-path="url(#clip510)" style="stroke:#000000; stroke-linecap:butt; stroke-linejoin:round; stroke-width:4; stroke-opacity:1; fill:none" points="
  280.912,277.916 299.81,277.916 
  "/>
<polyline clip-path="url(#clip510)" style="stroke:#000000; stroke-linecap:butt; stroke-linejoin:round; stroke-width:4; stroke-opacity:1; fill:none" points="
  280.912,186.038 299.81,186.038 
  "/>
<g clip-path="url(#clip510)">
<text style="fill:#000000; fill-opacity:1; font-family:Arial,Helvetica Neue,Helvetica,sans-serif; font-size:48px; text-anchor:end;" transform="rotate(0, 250.912, 571.052)" x="250.912" y="571.052">0.0</text>
</g>
<g clip-path="url(#clip510)">
<text style="fill:#000000; fill-opacity:1; font-family:Arial,Helvetica Neue,Helvetica,sans-serif; font-size:48px; text-anchor:end;" transform="rotate(0, 250.912, 479.173)" x="250.912" y="479.173">2.5</text>
</g>
<g clip-path="url(#clip510)">
<text style="fill:#000000; fill-opacity:1; font-family:Arial,Helvetica Neue,Helvetica,sans-serif; font-size:48px; text-anchor:end;" transform="rotate(0, 250.912, 387.295)" x="250.912" y="387.295">5.0</text>
</g>
<g clip-path="url(#clip510)">
<text style="fill:#000000; fill-opacity:1; font-family:Arial,Helvetica Neue,Helvetica,sans-serif; font-size:48px; text-anchor:end;" transform="rotate(0, 250.912, 295.416)" x="250.912" y="295.416">7.5</text>
</g>
<g clip-path="url(#clip510)">
<text style="fill:#000000; fill-opacity:1; font-family:Arial,Helvetica Neue,Helvetica,sans-serif; font-size:48px; text-anchor:end;" transform="rotate(0, 250.912, 203.538)" x="250.912" y="203.538">10.0</text>
</g>
<g clip-path="url(#clip510)">
<text style="fill:#000000; fill-opacity:1; font-family:Arial,Helvetica Neue,Helvetica,sans-serif; font-size:84px; text-anchor:middle;" transform="rotate(0, 616.834, 73.2)" x="616.834" y="73.2">y=x^2-3x+|x|</text>
</g>
<polyline clip-path="url(#clip512)" style="stroke:#009af9; stroke-linecap:butt; stroke-linejoin:round; stroke-width:4; stroke-opacity:1; fill:none" points="
  299.927,112.535 307.849,127.144 315.772,141.569 323.695,155.81 331.617,169.867 339.54,183.741 347.463,197.431 355.386,210.937 363.308,224.259 371.231,237.398 
  379.154,250.353 387.076,263.124 394.999,275.711 402.922,288.115 410.844,300.335 418.767,312.371 426.69,324.223 434.612,335.892 442.535,347.376 450.458,358.677 
  458.38,369.795 466.303,380.728 474.226,391.478 482.148,402.044 490.071,412.426 497.994,422.625 505.917,432.64 513.839,442.471 521.762,452.118 529.685,461.581 
  537.607,470.861 545.53,479.957 553.453,488.869 561.375,497.598 569.298,506.142 577.221,514.503 585.143,522.68 593.066,530.674 600.989,538.484 608.911,546.109 
  616.834,553.552 624.757,557.135 632.679,560.534 640.602,563.75 648.525,566.782 656.448,569.63 664.37,572.295 672.293,574.776 680.216,577.072 688.138,579.186 
  696.061,581.115 703.984,582.861 711.906,584.423 719.829,585.801 727.752,586.995 735.674,588.006 743.597,588.833 751.52,589.476 759.442,589.935 767.365,590.211 
  775.288,590.303 783.21,590.211 791.133,589.935 799.056,589.476 806.979,588.833 814.901,588.006 822.824,586.995 830.747,585.801 838.669,584.423 846.592,582.861 
  854.515,581.115 862.437,579.186 870.36,577.072 878.283,574.776 886.205,572.295 894.128,569.63 902.051,566.782 909.973,563.75 917.896,560.534 925.819,557.135 
  933.741,553.552 
  "/>
<circle clip-path="url(#clip512)" cx="775.288" cy="590.303" r="14" fill="#ff0000" fill-rule="evenodd" fill-opacity="1" stroke="#000000" stroke-opacity="1" stroke-width="1.6"/>
<path clip-path="url(#clip510)" d="
M1280.91 604.636 L1952.76 604.636 L1952.76 98.2019 L1280.91 98.2019  Z
  " fill="#ffffff" fill-rule="evenodd" fill-opacity="1"/>
<defs>
  <clipPath id="clip513">
    <rect x="1280" y="98" width="673" height="507"/>
  </clipPath>
</defs>
<polyline clip-path="url(#clip513)" style="stroke:#000000; stroke-linecap:butt; stroke-linejoin:round; stroke-width:2; stroke-opacity:0.1; fill:none" points="
  1299.93,604.636 1299.93,98.2019 
  "/>
<polyline clip-path="url(#clip513)" style="stroke:#000000; stroke-linecap:butt; stroke-linejoin:round; stroke-width:2; stroke-opacity:0.1; fill:none" points="
  1458.38,604.636 1458.38,98.2019 
  "/>
<polyline clip-path="url(#clip513)" style="stroke:#000000; stroke-linecap:butt; stroke-linejoin:round; stroke-width:2; stroke-opacity:0.1; fill:none" points="
  1616.83,604.636 1616.83,98.2019 
  "/>
<polyline clip-path="url(#clip513)" style="stroke:#000000; stroke-linecap:butt; stroke-linejoin:round; stroke-width:2; stroke-opacity:0.1; fill:none" points="
  1775.29,604.636 1775.29,98.2019 
  "/>
<polyline clip-path="url(#clip513)" style="stroke:#000000; stroke-linecap:butt; stroke-linejoin:round; stroke-width:2; stroke-opacity:0.1; fill:none" points="
  1933.74,604.636 1933.74,98.2019 
  "/>
<polyline clip-path="url(#clip510)" style="stroke:#000000; stroke-linecap:butt; stroke-linejoin:round; stroke-width:4; stroke-opacity:1; fill:none" points="
  1280.91,604.636 1952.76,604.636 
  "/>
<polyline clip-path="url(#clip510)" style="stroke:#000000; stroke-linecap:butt; stroke-linejoin:round; stroke-width:4; stroke-opacity:1; fill:none" points="
  1299.93,604.636 1299.93,585.738 
  "/>
<polyline clip-path="url(#clip510)" style="stroke:#000000; stroke-linecap:butt; stroke-linejoin:round; stroke-width:4; stroke-opacity:1; fill:none" points="
  1458.38,604.636 1458.38,585.738 
  "/>
<polyline clip-path="url(#clip510)" style="stroke:#000000; stroke-linecap:butt; stroke-linejoin:round; stroke-width:4; stroke-opacity:1; fill:none" points="
  1616.83,604.636 1616.83,585.738 
  "/>
<polyline clip-path="url(#clip510)" style="stroke:#000000; stroke-linecap:butt; stroke-linejoin:round; stroke-width:4; stroke-opacity:1; fill:none" points="
  1775.29,604.636 1775.29,585.738 
  "/>
<polyline clip-path="url(#clip510)" style="stroke:#000000; stroke-linecap:butt; stroke-linejoin:round; stroke-width:4; stroke-opacity:1; fill:none" points="
  1933.74,604.636 1933.74,585.738 
  "/>
<g clip-path="url(#clip510)">
<text style="fill:#000000; fill-opacity:1; font-family:Arial,Helvetica Neue,Helvetica,sans-serif; font-size:48px; text-anchor:middle;" transform="rotate(0, 1299.93, 662.636)" x="1299.93" y="662.636">−2</text>
</g>
<g clip-path="url(#clip510)">
<text style="fill:#000000; fill-opacity:1; font-family:Arial,Helvetica Neue,Helvetica,sans-serif; font-size:48px; text-anchor:middle;" transform="rotate(0, 1458.38, 662.636)" x="1458.38" y="662.636">−1</text>
</g>
<g clip-path="url(#clip510)">
<text style="fill:#000000; fill-opacity:1; font-family:Arial,Helvetica Neue,Helvetica,sans-serif; font-size:48px; text-anchor:middle;" transform="rotate(0, 1616.83, 662.636)" x="1616.83" y="662.636">0</text>
</g>
<g clip-path="url(#clip510)">
<text style="fill:#000000; fill-opacity:1; font-family:Arial,Helvetica Neue,Helvetica,sans-serif; font-size:48px; text-anchor:middle;" transform="rotate(0, 1775.29, 662.636)" x="1775.29" y="662.636">1</text>
</g>
<g clip-path="url(#clip510)">
<text style="fill:#000000; fill-opacity:1; font-family:Arial,Helvetica Neue,Helvetica,sans-serif; font-size:48px; text-anchor:middle;" transform="rotate(0, 1933.74, 662.636)" x="1933.74" y="662.636">2</text>
</g>
<polyline clip-path="url(#clip513)" style="stroke:#000000; stroke-linecap:butt; stroke-linejoin:round; stroke-width:2; stroke-opacity:0.1; fill:none" points="
  1280.91,590.303 1952.76,590.303 
  "/>
<polyline clip-path="url(#clip513)" style="stroke:#000000; stroke-linecap:butt; stroke-linejoin:round; stroke-width:2; stroke-opacity:0.1; fill:none" points="
  1280.91,470.861 1952.76,470.861 
  "/>
<polyline clip-path="url(#clip513)" style="stroke:#000000; stroke-linecap:butt; stroke-linejoin:round; stroke-width:2; stroke-opacity:0.1; fill:none" points="
  1280.91,351.419 1952.76,351.419 
  "/>
<polyline clip-path="url(#clip513)" style="stroke:#000000; stroke-linecap:butt; stroke-linejoin:round; stroke-width:2; stroke-opacity:0.1; fill:none" points="
  1280.91,231.977 1952.76,231.977 
  "/>
<polyline clip-path="url(#clip513)" style="stroke:#000000; stroke-linecap:butt; stroke-linejoin:round; stroke-width:2; stroke-opacity:0.1; fill:none" points="
  1280.91,112.535 1952.76,112.535 
  "/>
<polyline clip-path="url(#clip510)" style="stroke:#000000; stroke-linecap:butt; stroke-linejoin:round; stroke-width:4; stroke-opacity:1; fill:none" points="
  1280.91,604.636 1280.91,98.2019 
  "/>
<polyline clip-path="url(#clip510)" style="stroke:#000000; stroke-linecap:butt; stroke-linejoin:round; stroke-width:4; stroke-opacity:1; fill:none" points="
  1280.91,590.303 1299.81,590.303 
  "/>
<polyline clip-path="url(#clip510)" style="stroke:#000000; stroke-linecap:butt; stroke-linejoin:round; stroke-width:4; stroke-opacity:1; fill:none" points="
  1280.91,470.861 1299.81,470.861 
  "/>
<polyline clip-path="url(#clip510)" style="stroke:#000000; stroke-linecap:butt; stroke-linejoin:round; stroke-width:4; stroke-opacity:1; fill:none" points="
  1280.91,351.419 1299.81,351.419 
  "/>
<polyline clip-path="url(#clip510)" style="stroke:#000000; stroke-linecap:butt; stroke-linejoin:round; stroke-width:4; stroke-opacity:1; fill:none" points="
  1280.91,231.977 1299.81,231.977 
  "/>
<polyline clip-path="url(#clip510)" style="stroke:#000000; stroke-linecap:butt; stroke-linejoin:round; stroke-width:4; stroke-opacity:1; fill:none" points="
  1280.91,112.535 1299.81,112.535 
  "/>
<g clip-path="url(#clip510)">
<text style="fill:#000000; fill-opacity:1; font-family:Arial,Helvetica Neue,Helvetica,sans-serif; font-size:48px; text-anchor:end;" transform="rotate(0, 1250.91, 607.803)" x="1250.91" y="607.803">0.0</text>
</g>
<g clip-path="url(#clip510)">
<text style="fill:#000000; fill-opacity:1; font-family:Arial,Helvetica Neue,Helvetica,sans-serif; font-size:48px; text-anchor:end;" transform="rotate(0, 1250.91, 488.361)" x="1250.91" y="488.361">2.5</text>
</g>
<g clip-path="url(#clip510)">
<text style="fill:#000000; fill-opacity:1; font-family:Arial,Helvetica Neue,Helvetica,sans-serif; font-size:48px; text-anchor:end;" transform="rotate(0, 1250.91, 368.919)" x="1250.91" y="368.919">5.0</text>
</g>
<g clip-path="url(#clip510)">
<text style="fill:#000000; fill-opacity:1; font-family:Arial,Helvetica Neue,Helvetica,sans-serif; font-size:48px; text-anchor:end;" transform="rotate(0, 1250.91, 249.477)" x="1250.91" y="249.477">7.5</text>
</g>
<g clip-path="url(#clip510)">
<text style="fill:#000000; fill-opacity:1; font-family:Arial,Helvetica Neue,Helvetica,sans-serif; font-size:48px; text-anchor:end;" transform="rotate(0, 1250.91, 130.035)" x="1250.91" y="130.035">10.0</text>
</g>
<g clip-path="url(#clip510)">
<text style="fill:#000000; fill-opacity:1; font-family:Arial,Helvetica Neue,Helvetica,sans-serif; font-size:84px; text-anchor:middle;" transform="rotate(0, 1616.83, 73.2)" x="1616.83" y="73.2">y=x^2+x+2|x|</text>
</g>
<polyline clip-path="url(#clip513)" style="stroke:#009af9; stroke-linecap:butt; stroke-linejoin:round; stroke-width:4; stroke-opacity:1; fill:none" points="
  1299.93,303.642 1307.85,315.467 1315.77,327.053 1323.69,338.4 1331.62,349.508 1339.54,360.377 1347.46,371.007 1355.39,381.399 1363.31,391.551 1371.23,401.465 
  1379.15,411.14 1387.08,420.576 1395,429.773 1402.92,438.731 1410.84,447.45 1418.77,455.931 1426.69,464.172 1434.61,472.175 1442.54,479.939 1450.46,487.463 
  1458.38,494.749 1466.3,501.796 1474.23,508.605 1482.15,515.174 1490.07,521.504 1497.99,527.596 1505.92,533.449 1513.84,539.062 1521.76,544.437 1529.68,549.573 
  1537.61,554.47 1545.53,559.129 1553.45,563.548 1561.38,567.728 1569.3,571.67 1577.22,575.373 1585.14,578.837 1593.07,582.061 1600.99,585.048 1608.91,587.795 
  1616.83,590.303 1624.76,583.017 1632.68,575.492 1640.6,567.728 1648.52,559.726 1656.45,551.484 1664.37,543.004 1672.29,534.285 1680.22,525.327 1688.14,516.129 
  1696.06,506.694 1703.98,497.019 1711.91,487.105 1719.83,476.953 1727.75,466.561 1735.67,455.931 1743.6,445.062 1751.52,433.953 1759.44,422.606 1767.37,411.021 
  1775.29,399.196 1783.21,387.132 1791.13,374.83 1799.06,362.288 1806.98,349.508 1814.9,336.489 1822.82,323.231 1830.75,309.734 1838.67,295.998 1846.59,282.023 
  1854.51,267.81 1862.44,253.357 1870.36,238.666 1878.28,223.735 1886.21,208.566 1894.13,193.158 1902.05,177.511 1909.97,161.626 1917.9,145.501 1925.82,129.137 
  1933.74,112.535 
  "/>
<circle clip-path="url(#clip513)" cx="1616.83" cy="590.303" r="14" fill="#ff0000" fill-rule="evenodd" fill-opacity="1" stroke="#000000" stroke-opacity="1" stroke-width="1.6"/>
</svg>
