<?xml version="1.0" encoding="utf-8"?>
<svg xmlns="http://www.w3.org/2000/svg" xmlns:xlink="http://www.w3.org/1999/xlink" width="500" height="500" viewBox="0 0 2000 2000">
<defs>
  <clipPath id="clip530">
    <rect x="0" y="0" width="2000" height="2000"/>
  </clipPath>
</defs>
<path clip-path="url(#clip530)" d="
M0 2000 L2000 2000 L2000 0 L0 0  Z
  " fill="#ffffff" fill-rule="evenodd" fill-opacity="1"/>
<defs>
  <clipPath id="clip531">
    <rect x="400" y="200" width="1401" height="1401"/>
  </clipPath>
</defs>
<path clip-path="url(#clip530)" d="
M98.7402 1901.26 L1952.76 1901.26 L1952.76 47.2441 L98.7402 47.2441  Z
  " fill="#ffffff" fill-rule="evenodd" fill-opacity="1"/>
<defs>
  <clipPath id="clip532">
    <rect x="98" y="47" width="1855" height="1855"/>
  </clipPath>
</defs>
<polyline clip-path="url(#clip532)" style="stroke:#000000; stroke-width:2; stroke-opacity:0.1; fill:none" points="
  98.7402,1901.26 98.7402,47.2441 
  "/>
<polyline clip-path="url(#clip532)" style="stroke:#000000; stroke-width:2; stroke-opacity:0.1; fill:none" points="
  469.543,1901.26 469.543,47.2441 
  "/>
<polyline clip-path="url(#clip532)" style="stroke:#000000; stroke-width:2; stroke-opacity:0.1; fill:none" points="
  840.346,1901.26 840.346,47.2441 
  "/>
<polyline clip-path="url(#clip532)" style="stroke:#000000; stroke-width:2; stroke-opacity:0.1; fill:none" points="
  1211.15,1901.26 1211.15,47.2441 
  "/>
<polyline clip-path="url(#clip532)" style="stroke:#000000; stroke-width:2; stroke-opacity:0.1; fill:none" points="
  1581.95,1901.26 1581.95,47.2441 
  "/>
<polyline clip-path="url(#clip532)" style="stroke:#000000; stroke-width:2; stroke-opacity:0.1; fill:none" points="
  1952.76,1901.26 1952.76,47.2441 
  "/>
<polyline clip-path="url(#clip530)" style="stroke:#000000; stroke-width:4; stroke-opacity:1; fill:none" points="
  98.7402,1901.26 1952.76,1901.26 
  "/>
<polyline clip-path="url(#clip530)" style="stroke:#000000; stroke-width:4; stroke-opacity:1; fill:none" points="
  98.7402,1901.26 98.7402,1879.01 
  "/>
<polyline clip-path="url(#clip530)" style="stroke:#000000; stroke-width:4; stroke-opacity:1; fill:none" points="
  469.543,1901.26 469.543,1879.01 
  "/>
<polyline clip-path="url(#clip530)" style="stroke:#000000; stroke-width:4; stroke-opacity:1; fill:none" points="
  840.346,1901.26 840.346,1879.01 
  "/>
<polyline clip-path="url(#clip530)" style="stroke:#000000; stroke-width:4; stroke-opacity:1; fill:none" points="
  1211.15,1901.26 1211.15,1879.01 
  "/>
<polyline clip-path="url(#clip530)" style="stroke:#000000; stroke-width:4; stroke-opacity:1; fill:none" points="
  1581.95,1901.26 1581.95,1879.01 
  "/>
<polyline clip-path="url(#clip530)" style="stroke:#000000; stroke-width:4; stroke-opacity:1; fill:none" points="
  1952.76,1901.26 1952.76,1879.01 
  "/>
<g clip-path="url(#clip530)">
<text style="fill:#000000; fill-opacity:1; font-family:Arial,Helvetica Neue,Helvetica,sans-serif; font-size:48px; text-anchor:middle;" transform="rotate(0, 98.7402, 1959.26)" x="98.7402" y="1959.26">0</text>
</g>
<g clip-path="url(#clip530)">
<text style="fill:#000000; fill-opacity:1; font-family:Arial,Helvetica Neue,Helvetica,sans-serif; font-size:48px; text-anchor:middle;" transform="rotate(0, 469.543, 1959.26)" x="469.543" y="1959.26">10</text>
</g>
<g clip-path="url(#clip530)">
<text style="fill:#000000; fill-opacity:1; font-family:Arial,Helvetica Neue,Helvetica,sans-serif; font-size:48px; text-anchor:middle;" transform="rotate(0, 840.346, 1959.26)" x="840.346" y="1959.26">20</text>
</g>
<g clip-path="url(#clip530)">
<text style="fill:#000000; fill-opacity:1; font-family:Arial,Helvetica Neue,Helvetica,sans-serif; font-size:48px; text-anchor:middle;" transform="rotate(0, 1211.15, 1959.26)" x="1211.15" y="1959.26">30</text>
</g>
<g clip-path="url(#clip530)">
<text style="fill:#000000; fill-opacity:1; font-family:Arial,Helvetica Neue,Helvetica,sans-serif; font-size:48px; text-anchor:middle;" transform="rotate(0, 1581.95, 1959.26)" x="1581.95" y="1959.26">40</text>
</g>
<g clip-path="url(#clip530)">
<text style="fill:#000000; fill-opacity:1; font-family:Arial,Helvetica Neue,Helvetica,sans-serif; font-size:48px; text-anchor:middle;" transform="rotate(0, 1952.76, 1959.26)" x="1952.76" y="1959.26">50</text>
</g>
<g clip-path="url(#clip530)">
<text style="fill:#000000; fill-opacity:1; font-family:Arial,Helvetica Neue,Helvetica,sans-serif; font-size:66px; text-anchor:middle;" transform="rotate(0, 1025.75, 2031.12)" x="1025.75" y="2031.12">λ</text>
</g>
<polyline clip-path="url(#clip532)" style="stroke:#000000; stroke-width:2; stroke-opacity:0.1; fill:none" points="
  98.7402,1695.26 1952.76,1695.26 
  "/>
<polyline clip-path="url(#clip532)" style="stroke:#000000; stroke-width:2; stroke-opacity:0.1; fill:none" points="
  98.7402,1283.25 1952.76,1283.25 
  "/>
<polyline clip-path="url(#clip532)" style="stroke:#000000; stroke-width:2; stroke-opacity:0.1; fill:none" points="
  98.7402,871.251 1952.76,871.251 
  "/>
<polyline clip-path="url(#clip532)" style="stroke:#000000; stroke-width:2; stroke-opacity:0.1; fill:none" points="
  98.7402,459.248 1952.76,459.248 
  "/>
<polyline clip-path="url(#clip532)" style="stroke:#000000; stroke-width:2; stroke-opacity:0.1; fill:none" points="
  98.7402,47.2441 1952.76,47.2441 
  "/>
<polyline clip-path="url(#clip530)" style="stroke:#000000; stroke-width:4; stroke-opacity:1; fill:none" points="
  98.7402,1901.26 98.7402,47.2441 
  "/>
<polyline clip-path="url(#clip530)" style="stroke:#000000; stroke-width:4; stroke-opacity:1; fill:none" points="
  98.7402,1695.26 120.988,1695.26 
  "/>
<polyline clip-path="url(#clip530)" style="stroke:#000000; stroke-width:4; stroke-opacity:1; fill:none" points="
  98.7402,1283.25 120.988,1283.25 
  "/>
<polyline clip-path="url(#clip530)" style="stroke:#000000; stroke-width:4; stroke-opacity:1; fill:none" points="
  98.7402,871.251 120.988,871.251 
  "/>
<polyline clip-path="url(#clip530)" style="stroke:#000000; stroke-width:4; stroke-opacity:1; fill:none" points="
  98.7402,459.248 120.988,459.248 
  "/>
<polyline clip-path="url(#clip530)" style="stroke:#000000; stroke-width:4; stroke-opacity:1; fill:none" points="
  98.7402,47.2441 120.988,47.2441 
  "/>
<g clip-path="url(#clip530)">
<text style="fill:#000000; fill-opacity:1; font-family:Arial,Helvetica Neue,Helvetica,sans-serif; font-size:48px; text-anchor:end;" transform="rotate(0, 68.7402, 1712.76)" x="68.7402" y="1712.76">−5</text>
</g>
<g clip-path="url(#clip530)">
<text style="fill:#000000; fill-opacity:1; font-family:Arial,Helvetica Neue,Helvetica,sans-serif; font-size:48px; text-anchor:end;" transform="rotate(0, 68.7402, 1300.75)" x="68.7402" y="1300.75">0</text>
</g>
<g clip-path="url(#clip530)">
<text style="fill:#000000; fill-opacity:1; font-family:Arial,Helvetica Neue,Helvetica,sans-serif; font-size:48px; text-anchor:end;" transform="rotate(0, 68.7402, 888.751)" x="68.7402" y="888.751">5</text>
</g>
<g clip-path="url(#clip530)">
<text style="fill:#000000; fill-opacity:1; font-family:Arial,Helvetica Neue,Helvetica,sans-serif; font-size:48px; text-anchor:end;" transform="rotate(0, 68.7402, 476.748)" x="68.7402" y="476.748">10</text>
</g>
<g clip-path="url(#clip530)">
<text style="fill:#000000; fill-opacity:1; font-family:Arial,Helvetica Neue,Helvetica,sans-serif; font-size:48px; text-anchor:end;" transform="rotate(0, 68.7402, 64.7441)" x="68.7402" y="64.7441">15</text>
</g>
<g clip-path="url(#clip530)">
<text style="fill:#000000; fill-opacity:1; font-family:Arial,Helvetica Neue,Helvetica,sans-serif; font-size:66px; text-anchor:middle;" transform="rotate(-90, -6.34664, 974.252)" x="-6.34664" y="974.252">β</text>
</g>
<polyline clip-path="url(#clip532)" style="stroke:#009af9; stroke-width:4; stroke-opacity:1; fill:none" points="
  98.7402,378.44 117.28,-6695.25 135.82,-4691.39 154.361,-3516.29 172.901,-2735.35 191.441,-2176.25 209.981,-1755.29 228.521,-1426.5 247.061,-1162.4 265.602,-945.505 
  284.142,-764.133 302.682,-610.185 321.222,-477.856 339.762,-362.875 358.302,-262.033 376.843,-172.864 395.383,-93.4498 413.923,-22.268 432.463,41.9004 451.003,100.045 
  469.543,152.978 488.083,201.37 506.624,245.783 525.164,286.688 543.704,324.486 562.244,359.519 580.784,392.079 599.324,422.419 617.865,450.76 636.405,477.292 
  654.945,502.184 673.485,525.584 692.025,547.621 710.565,568.411 729.106,588.058 747.646,606.654 766.186,624.279 784.726,641.01 803.266,656.911 821.806,672.043 
  840.346,686.462 858.887,700.215 877.427,713.348 895.967,725.903 914.507,737.916 933.047,749.422 951.587,760.452 970.128,771.036 988.668,781.199 1007.21,790.967 
  1025.75,800.361 1044.29,809.404 1062.83,818.115 1081.37,826.51 1099.91,834.608 1118.45,842.424 1136.99,849.972 1155.53,857.266 1174.07,864.318 1192.61,871.141 
  1211.15,877.744 1229.69,884.14 1248.23,890.337 1266.77,896.344 1285.31,902.17 1303.85,907.824 1322.39,913.312 1340.93,918.642 1359.47,923.82 1378.01,928.853 
  1396.55,933.748 1415.09,938.509 1433.63,943.142 1452.17,947.652 1470.71,952.044 1489.25,956.323 1507.79,960.492 1526.33,964.556 1544.87,968.52 1563.41,972.386 
  1581.95,976.158 1600.49,979.839 1619.03,983.434 1637.57,986.944 1656.11,990.373 1674.65,993.723 1693.19,996.998 1711.73,1000.2 1730.27,1003.33 1748.81,1006.39 
  1767.35,1009.39 1785.89,1012.32 1804.43,1015.19 1822.97,1018 1841.51,1020.75 1860.06,1023.44 1878.6,1026.08 1897.14,1028.67 1915.68,1031.21 1934.22,1033.69 
  1952.76,1036.13 
  "/>
<polyline clip-path="url(#clip532)" style="stroke:#e26f46; stroke-width:4; stroke-opacity:1; fill:none" points="
  98.7402,1784.95 117.28,3450.83 135.82,2744.49 154.361,2407.98 172.901,2208.28 191.441,2074.29 209.981,1977.17 228.521,1902.99 247.061,1844.14 265.602,1796.14 
  284.142,1756.12 302.682,1722.17 321.222,1692.96 339.762,1667.54 358.302,1645.18 376.843,1625.35 395.383,1607.64 413.923,1591.71 432.463,1577.31 451.003,1564.22 
  469.543,1552.26 488.083,1541.29 506.624,1531.2 525.164,1521.88 543.704,1513.24 562.244,1505.21 580.784,1497.73 599.324,1490.74 617.865,1484.2 636.405,1478.06 
  654.945,1472.29 673.485,1466.85 692.025,1461.72 710.565,1456.87 729.106,1452.28 747.646,1447.92 766.186,1443.79 784.726,1439.86 803.266,1436.12 821.806,1432.55 
  840.346,1429.15 858.887,1425.9 877.427,1422.79 895.967,1419.82 914.507,1416.97 933.047,1414.23 951.587,1411.61 970.128,1409.09 988.668,1406.67 1007.21,1404.34 
  1025.75,1402.09 1044.29,1399.93 1062.83,1397.84 1081.37,1395.83 1099.91,1393.89 1118.45,1392.02 1136.99,1390.2 1155.53,1388.45 1174.07,1386.75 1192.61,1385.11 
  1211.15,1383.52 1229.69,1381.98 1248.23,1380.48 1266.77,1379.03 1285.31,1377.62 1303.85,1376.25 1322.39,1374.93 1340.93,1373.64 1359.47,1372.38 1378.01,1371.16 
  1396.55,1369.97 1415.09,1368.82 1433.63,1367.69 1452.17,1366.6 1470.71,1365.53 1489.25,1364.49 1507.79,1363.47 1526.33,1362.48 1544.87,1361.52 1563.41,1360.58 
  1581.95,1359.66 1600.49,1358.76 1619.03,1357.88 1637.57,1357.02 1656.11,1356.19 1674.65,1355.37 1693.19,1354.57 1711.73,1353.79 1730.27,1353.02 1748.81,1352.27 
  1767.35,1351.54 1785.89,1350.82 1804.43,1350.12 1822.97,1349.43 1841.51,1348.75 1860.06,1348.09 1878.6,1347.44 1897.14,1346.81 1915.68,1346.19 1934.22,1345.58 
  1952.76,1344.98 
  "/>
<polyline clip-path="url(#clip532)" style="stroke:#3da44d; stroke-width:4; stroke-opacity:1; fill:none" points="
  98.7402,831.674 117.28,-1720.47 135.82,-1262.76 154.361,-901.825 172.901,-627.096 191.441,-413.212 209.981,-242.42 228.521,-102.985 247.061,12.989 265.602,110.969 
  284.142,194.849 302.682,267.477 321.222,330.981 339.762,386.983 358.302,436.742 376.843,481.25 395.383,521.298 413.923,557.526 432.463,590.457 451.003,620.523 
  469.543,648.082 488.083,673.436 506.624,696.84 525.164,718.511 543.704,738.635 562.244,757.371 580.784,774.86 599.324,791.222 617.865,806.561 636.405,820.973 
  654.945,834.537 673.485,847.327 692.025,859.408 710.565,870.836 729.106,881.664 747.646,891.937 766.186,901.698 784.726,910.983 803.266,919.826 821.806,928.259 
  840.346,936.309 858.887,944.002 877.427,951.36 895.967,958.407 914.507,965.16 933.047,971.637 951.587,977.857 970.128,983.832 988.668,989.578 1007.21,995.108 
  1025.75,1000.43 1044.29,1005.56 1062.83,1010.51 1081.37,1015.29 1099.91,1019.9 1118.45,1024.36 1136.99,1028.66 1155.53,1032.83 1174.07,1036.86 1192.61,1040.76 
  1211.15,1044.54 1229.69,1048.21 1248.23,1051.77 1266.77,1055.21 1285.31,1058.56 1303.85,1061.81 1322.39,1064.97 1340.93,1068.04 1359.47,1071.02 1378.01,1073.93 
  1396.55,1076.75 1415.09,1079.5 1433.63,1082.18 1452.17,1084.78 1470.71,1087.32 1489.25,1089.8 1507.79,1092.21 1526.33,1094.57 1544.87,1096.87 1563.41,1099.11 
  1581.95,1101.3 1600.49,1103.43 1619.03,1105.52 1637.57,1107.56 1656.11,1109.56 1674.65,1111.5 1693.19,1113.41 1711.73,1115.27 1730.27,1117.1 1748.81,1118.88 
  1767.35,1120.63 1785.89,1122.34 1804.43,1124.01 1822.97,1125.65 1841.51,1127.26 1860.06,1128.83 1878.6,1130.37 1897.14,1131.88 1915.68,1133.37 1934.22,1134.82 
  1952.76,1136.24 
  "/>
<polyline clip-path="url(#clip532)" style="stroke:#c271d2; stroke-width:4; stroke-opacity:1; fill:none" points="
  98.7402,1252.19 117.28,1515.08 135.82,1821.34 154.361,1906.25 172.901,1917.3 191.441,1901.22 209.981,1875.23 228.521,1846.31 247.061,1817.43 265.602,1789.86 
  284.142,1764.07 302.682,1740.19 321.222,1718.18 339.762,1697.93 358.302,1679.29 376.843,1662.12 395.383,1646.27 413.923,1631.63 432.463,1618.06 451.003,1605.46 
  469.543,1593.74 488.083,1582.82 506.624,1572.62 525.164,1563.07 543.704,1554.12 562.244,1545.71 580.784,1537.79 599.324,1530.33 617.865,1523.29 636.405,1516.64 
  654.945,1510.34 673.485,1504.36 692.025,1498.69 710.565,1493.3 729.106,1488.17 747.646,1483.28 766.186,1478.62 784.726,1474.16 803.266,1469.91 821.806,1465.84 
  840.346,1461.94 858.887,1458.2 877.427,1454.62 895.967,1451.18 914.507,1447.87 933.047,1444.69 951.587,1441.63 970.128,1438.68 988.668,1435.84 1007.21,1433.1 
  1025.75,1430.46 1044.29,1427.91 1062.83,1425.45 1081.37,1423.07 1099.91,1420.76 1118.45,1418.53 1136.99,1416.37 1155.53,1414.28 1174.07,1412.26 1192.61,1410.29 
  1211.15,1408.39 1229.69,1406.54 1248.23,1404.74 1266.77,1403 1285.31,1401.3 1303.85,1399.65 1322.39,1398.05 1340.93,1396.49 1359.47,1394.97 1378.01,1393.49 
  1396.55,1392.06 1415.09,1390.65 1433.63,1389.29 1452.17,1387.95 1470.71,1386.65 1489.25,1385.39 1507.79,1384.15 1526.33,1382.94 1544.87,1381.76 1563.41,1380.61 
  1581.95,1379.49 1600.49,1378.39 1619.03,1377.32 1637.57,1376.26 1656.11,1375.24 1674.65,1374.23 1693.19,1373.25 1711.73,1372.29 1730.27,1371.35 1748.81,1370.42 
  1767.35,1369.52 1785.89,1368.64 1804.43,1367.77 1822.97,1366.92 1841.51,1366.09 1860.06,1365.27 1878.6,1364.47 1897.14,1363.69 1915.68,1362.92 1934.22,1362.16 
  1952.76,1361.42 
  "/>
<polyline clip-path="url(#clip532)" style="stroke:#ac8d18; stroke-width:4; stroke-opacity:1; fill:none" points="
  98.7402,830.012 117.28,271.935 135.82,668.691 154.361,878.798 172.901,1003.7 191.441,1083.6 209.981,1137.46 228.521,1175.25 247.061,1202.6 265.602,1222.9 
  284.142,1238.28 302.682,1250.13 321.222,1259.39 339.762,1266.72 358.302,1272.58 376.843,1277.31 395.383,1281.14 413.923,1284.28 432.463,1286.86 451.003,1288.99 
  469.543,1290.75 488.083,1292.21 506.624,1293.42 525.164,1294.43 543.704,1295.27 562.244,1295.97 580.784,1296.54 599.324,1297.02 617.865,1297.41 636.405,1297.73 
  654.945,1297.98 673.485,1298.18 692.025,1298.34 710.565,1298.45 729.106,1298.54 747.646,1298.59 766.186,1298.62 784.726,1298.63 803.266,1298.62 821.806,1298.59 
  840.346,1298.55 858.887,1298.5 877.427,1298.44 895.967,1298.37 914.507,1298.29 933.047,1298.2 951.587,1298.11 970.128,1298.02 988.668,1297.92 1007.21,1297.82 
  1025.75,1297.71 1044.29,1297.61 1062.83,1297.5 1081.37,1297.39 1099.91,1297.28 1118.45,1297.17 1136.99,1297.05 1155.53,1296.94 1174.07,1296.83 1192.61,1296.72 
  1211.15,1296.61 1229.69,1296.49 1248.23,1296.38 1266.77,1296.27 1285.31,1296.16 1303.85,1296.06 1322.39,1295.95 1340.93,1295.84 1359.47,1295.73 1378.01,1295.63 
  1396.55,1295.53 1415.09,1295.42 1433.63,1295.32 1452.17,1295.22 1470.71,1295.12 1489.25,1295.02 1507.79,1294.93 1526.33,1294.83 1544.87,1294.74 1563.41,1294.64 
  1581.95,1294.55 1600.49,1294.46 1619.03,1294.37 1637.57,1294.28 1656.11,1294.19 1674.65,1294.11 1693.19,1294.02 1711.73,1293.94 1730.27,1293.85 1748.81,1293.77 
  1767.35,1293.69 1785.89,1293.61 1804.43,1293.53 1822.97,1293.45 1841.51,1293.37 1860.06,1293.3 1878.6,1293.22 1897.14,1293.15 1915.68,1293.08 1934.22,1293 
  1952.76,1292.93 
  "/>
<path clip-path="url(#clip530)" d="
M801.796 471.925 L1890.96 471.925 L1890.96 109.045 L801.796 109.045  Z
  " fill="#ffffff" fill-rule="evenodd" fill-opacity="1"/>
<polyline clip-path="url(#clip530)" style="stroke:#000000; stroke-width:4; stroke-opacity:1; fill:none" points="
  801.796,471.925 1890.96,471.925 1890.96,109.045 801.796,109.045 801.796,471.925 
  "/>
<polyline clip-path="url(#clip530)" style="stroke:#009af9; stroke-width:4; stroke-opacity:1; fill:none" points="
  822.397,169.525 945.998,169.525 
  "/>
<g clip-path="url(#clip530)">
<text style="fill:#000000; fill-opacity:1; font-family:Arial,Helvetica Neue,Helvetica,sans-serif; font-size:48px; text-anchor:start;" transform="rotate(0, 966.598, 187.025)" x="966.598" y="187.025"> 警察への年間資金                                                 </text>
</g>
<polyline clip-path="url(#clip530)" style="stroke:#e26f46; stroke-width:4; stroke-opacity:1; fill:none" points="
  822.397,230.005 945.998,230.005 
  "/>
<g clip-path="url(#clip530)">
<text style="fill:#000000; fill-opacity:1; font-family:Arial,Helvetica Neue,Helvetica,sans-serif; font-size:48px; text-anchor:start;" transform="rotate(0, 966.598, 247.505)" x="966.598" y="247.505">25歳以上で高校を卒業した人の割合</text>
</g>
<polyline clip-path="url(#clip530)" style="stroke:#3da44d; stroke-width:4; stroke-opacity:1; fill:none" points="
  822.397,290.485 945.998,290.485 
  "/>
<g clip-path="url(#clip530)">
<text style="fill:#000000; fill-opacity:1; font-family:Arial,Helvetica Neue,Helvetica,sans-serif; font-size:48px; text-anchor:start;" transform="rotate(0, 966.598, 307.985)" x="966.598" y="307.985">16-19歳で高校に通っていない人の割合</text>
</g>
<polyline clip-path="url(#clip530)" style="stroke:#c271d2; stroke-width:4; stroke-opacity:1; fill:none" points="
  822.397,350.965 945.998,350.965 
  "/>
<g clip-path="url(#clip530)">
<text style="fill:#000000; fill-opacity:1; font-family:Arial,Helvetica Neue,Helvetica,sans-serif; font-size:48px; text-anchor:start;" transform="rotate(0, 966.598, 368.465)" x="966.598" y="368.465"> 18-24歳で大学生の割合</text>
</g>
<polyline clip-path="url(#clip530)" style="stroke:#ac8d18; stroke-width:4; stroke-opacity:1; fill:none" points="
  822.397,411.445 945.998,411.445 
  "/>
<g clip-path="url(#clip530)">
<text style="fill:#000000; fill-opacity:1; font-family:Arial,Helvetica Neue,Helvetica,sans-serif; font-size:48px; text-anchor:start;" transform="rotate(0, 966.598, 428.945)" x="966.598" y="428.945">25歳以上で４年制大学を卒業した人の割合</text>
</g>
</svg>
