<?xml version="1.0" encoding="utf-8"?>
<svg xmlns="http://www.w3.org/2000/svg" xmlns:xlink="http://www.w3.org/1999/xlink" width="600" height="400" viewBox="0 0 2400 1600">
<defs>
  <clipPath id="clip110">
    <rect x="0" y="0" width="2400" height="1600"/>
  </clipPath>
</defs>
<path clip-path="url(#clip110)" d="
M0 1600 L2400 1600 L2400 0 L0 0  Z
  " fill="#ffffff" fill-rule="evenodd" fill-opacity="1"/>
<defs>
  <clipPath id="clip111">
    <rect x="480" y="0" width="1681" height="1600"/>
  </clipPath>
</defs>
<path clip-path="url(#clip110)" d="
M450.148 1321.37 L2352.76 1321.37 L2352.76 47.2441 L450.148 47.2441  Z
  " fill="#ffffff" fill-rule="evenodd" fill-opacity="1"/>
<defs>
  <clipPath id="clip112">
    <rect x="450" y="47" width="1904" height="1275"/>
  </clipPath>
</defs>
<polyline clip-path="url(#clip112)" style="stroke:#000000; stroke-linecap:butt; stroke-linejoin:round; stroke-width:2; stroke-opacity:0.1; fill:none" points="
  476.789,1321.37 476.789,47.2441 
  "/>
<polyline clip-path="url(#clip112)" style="stroke:#000000; stroke-linecap:butt; stroke-linejoin:round; stroke-width:2; stroke-opacity:0.1; fill:none" points="
  778.245,1321.37 778.245,47.2441 
  "/>
<polyline clip-path="url(#clip112)" style="stroke:#000000; stroke-linecap:butt; stroke-linejoin:round; stroke-width:2; stroke-opacity:0.1; fill:none" points="
  1079.7,1321.37 1079.7,47.2441 
  "/>
<polyline clip-path="url(#clip112)" style="stroke:#000000; stroke-linecap:butt; stroke-linejoin:round; stroke-width:2; stroke-opacity:0.1; fill:none" points="
  1381.16,1321.37 1381.16,47.2441 
  "/>
<polyline clip-path="url(#clip112)" style="stroke:#000000; stroke-linecap:butt; stroke-linejoin:round; stroke-width:2; stroke-opacity:0.1; fill:none" points="
  1682.61,1321.37 1682.61,47.2441 
  "/>
<polyline clip-path="url(#clip112)" style="stroke:#000000; stroke-linecap:butt; stroke-linejoin:round; stroke-width:2; stroke-opacity:0.1; fill:none" points="
  1984.07,1321.37 1984.07,47.2441 
  "/>
<polyline clip-path="url(#clip112)" style="stroke:#000000; stroke-linecap:butt; stroke-linejoin:round; stroke-width:2; stroke-opacity:0.1; fill:none" points="
  2285.52,1321.37 2285.52,47.2441 
  "/>
<polyline clip-path="url(#clip110)" style="stroke:#000000; stroke-linecap:butt; stroke-linejoin:round; stroke-width:4; stroke-opacity:1; fill:none" points="
  450.148,1321.37 2352.76,1321.37 
  "/>
<polyline clip-path="url(#clip110)" style="stroke:#000000; stroke-linecap:butt; stroke-linejoin:round; stroke-width:4; stroke-opacity:1; fill:none" points="
  476.789,1321.37 476.789,1302.47 
  "/>
<polyline clip-path="url(#clip110)" style="stroke:#000000; stroke-linecap:butt; stroke-linejoin:round; stroke-width:4; stroke-opacity:1; fill:none" points="
  778.245,1321.37 778.245,1302.47 
  "/>
<polyline clip-path="url(#clip110)" style="stroke:#000000; stroke-linecap:butt; stroke-linejoin:round; stroke-width:4; stroke-opacity:1; fill:none" points="
  1079.7,1321.37 1079.7,1302.47 
  "/>
<polyline clip-path="url(#clip110)" style="stroke:#000000; stroke-linecap:butt; stroke-linejoin:round; stroke-width:4; stroke-opacity:1; fill:none" points="
  1381.16,1321.37 1381.16,1302.47 
  "/>
<polyline clip-path="url(#clip110)" style="stroke:#000000; stroke-linecap:butt; stroke-linejoin:round; stroke-width:4; stroke-opacity:1; fill:none" points="
  1682.61,1321.37 1682.61,1302.47 
  "/>
<polyline clip-path="url(#clip110)" style="stroke:#000000; stroke-linecap:butt; stroke-linejoin:round; stroke-width:4; stroke-opacity:1; fill:none" points="
  1984.07,1321.37 1984.07,1302.47 
  "/>
<polyline clip-path="url(#clip110)" style="stroke:#000000; stroke-linecap:butt; stroke-linejoin:round; stroke-width:4; stroke-opacity:1; fill:none" points="
  2285.52,1321.37 2285.52,1302.47 
  "/>
<g clip-path="url(#clip110)">
<text style="fill:#000000; fill-opacity:1; font-family:Arial,Helvetica Neue,Helvetica,sans-serif; font-size:48px; text-anchor:middle;" transform="rotate(0, 476.789, 1382.57)" x="476.789" y="1382.57">−1</text>
</g>
<g clip-path="url(#clip110)">
<text style="fill:#000000; fill-opacity:1; font-family:Arial,Helvetica Neue,Helvetica,sans-serif; font-size:48px; text-anchor:middle;" transform="rotate(0, 778.245, 1382.57)" x="778.245" y="1382.57">0</text>
</g>
<g clip-path="url(#clip110)">
<text style="fill:#000000; fill-opacity:1; font-family:Arial,Helvetica Neue,Helvetica,sans-serif; font-size:48px; text-anchor:middle;" transform="rotate(0, 1079.7, 1382.57)" x="1079.7" y="1382.57">1</text>
</g>
<g clip-path="url(#clip110)">
<text style="fill:#000000; fill-opacity:1; font-family:Arial,Helvetica Neue,Helvetica,sans-serif; font-size:48px; text-anchor:middle;" transform="rotate(0, 1381.16, 1382.57)" x="1381.16" y="1382.57">2</text>
</g>
<g clip-path="url(#clip110)">
<text style="fill:#000000; fill-opacity:1; font-family:Arial,Helvetica Neue,Helvetica,sans-serif; font-size:48px; text-anchor:middle;" transform="rotate(0, 1682.61, 1382.57)" x="1682.61" y="1382.57">3</text>
</g>
<g clip-path="url(#clip110)">
<text style="fill:#000000; fill-opacity:1; font-family:Arial,Helvetica Neue,Helvetica,sans-serif; font-size:48px; text-anchor:middle;" transform="rotate(0, 1984.07, 1382.57)" x="1984.07" y="1382.57">4</text>
</g>
<g clip-path="url(#clip110)">
<text style="fill:#000000; fill-opacity:1; font-family:Arial,Helvetica Neue,Helvetica,sans-serif; font-size:48px; text-anchor:middle;" transform="rotate(0, 2285.52, 1382.57)" x="2285.52" y="1382.57">5</text>
</g>
<g clip-path="url(#clip110)">
<text style="fill:#000000; fill-opacity:1; font-family:Arial,Helvetica Neue,Helvetica,sans-serif; font-size:66px; text-anchor:middle;" transform="rotate(0, 1401.45, 1467.23)" x="1401.45" y="1467.23">log λ</text>
</g>
<polyline clip-path="url(#clip112)" style="stroke:#000000; stroke-linecap:butt; stroke-linejoin:round; stroke-width:2; stroke-opacity:0.1; fill:none" points="
  450.148,1139.8 2352.76,1139.8 
  "/>
<polyline clip-path="url(#clip112)" style="stroke:#000000; stroke-linecap:butt; stroke-linejoin:round; stroke-width:2; stroke-opacity:0.1; fill:none" points="
  450.148,929.276 2352.76,929.276 
  "/>
<polyline clip-path="url(#clip112)" style="stroke:#000000; stroke-linecap:butt; stroke-linejoin:round; stroke-width:2; stroke-opacity:0.1; fill:none" points="
  450.148,718.75 2352.76,718.75 
  "/>
<polyline clip-path="url(#clip112)" style="stroke:#000000; stroke-linecap:butt; stroke-linejoin:round; stroke-width:2; stroke-opacity:0.1; fill:none" points="
  450.148,508.225 2352.76,508.225 
  "/>
<polyline clip-path="url(#clip112)" style="stroke:#000000; stroke-linecap:butt; stroke-linejoin:round; stroke-width:2; stroke-opacity:0.1; fill:none" points="
  450.148,297.699 2352.76,297.699 
  "/>
<polyline clip-path="url(#clip112)" style="stroke:#000000; stroke-linecap:butt; stroke-linejoin:round; stroke-width:2; stroke-opacity:0.1; fill:none" points="
  450.148,87.1736 2352.76,87.1736 
  "/>
<polyline clip-path="url(#clip110)" style="stroke:#000000; stroke-linecap:butt; stroke-linejoin:round; stroke-width:4; stroke-opacity:1; fill:none" points="
  450.148,1321.37 450.148,47.2441 
  "/>
<polyline clip-path="url(#clip110)" style="stroke:#000000; stroke-linecap:butt; stroke-linejoin:round; stroke-width:4; stroke-opacity:1; fill:none" points="
  450.148,1139.8 469.045,1139.8 
  "/>
<polyline clip-path="url(#clip110)" style="stroke:#000000; stroke-linecap:butt; stroke-linejoin:round; stroke-width:4; stroke-opacity:1; fill:none" points="
  450.148,929.276 469.045,929.276 
  "/>
<polyline clip-path="url(#clip110)" style="stroke:#000000; stroke-linecap:butt; stroke-linejoin:round; stroke-width:4; stroke-opacity:1; fill:none" points="
  450.148,718.75 469.045,718.75 
  "/>
<polyline clip-path="url(#clip110)" style="stroke:#000000; stroke-linecap:butt; stroke-linejoin:round; stroke-width:4; stroke-opacity:1; fill:none" points="
  450.148,508.225 469.045,508.225 
  "/>
<polyline clip-path="url(#clip110)" style="stroke:#000000; stroke-linecap:butt; stroke-linejoin:round; stroke-width:4; stroke-opacity:1; fill:none" points="
  450.148,297.699 469.045,297.699 
  "/>
<polyline clip-path="url(#clip110)" style="stroke:#000000; stroke-linecap:butt; stroke-linejoin:round; stroke-width:4; stroke-opacity:1; fill:none" points="
  450.148,87.1736 469.045,87.1736 
  "/>
<g clip-path="url(#clip110)">
<text style="fill:#000000; fill-opacity:1; font-family:Arial,Helvetica Neue,Helvetica,sans-serif; font-size:48px; text-anchor:start;" transform="rotate(0, 217.1, 1163.53)" x="217.1" y="1163.53">6.00×10</text>
</g>
<g clip-path="url(#clip110)">
<text style="fill:#000000; fill-opacity:1; font-family:Arial,Helvetica Neue,Helvetica,sans-serif; font-size:38px; text-anchor:start;" transform="rotate(0, 392.403, 1136.12)" x="392.403" y="1136.12">4</text>
</g>
<g clip-path="url(#clip110)">
<text style="fill:#000000; fill-opacity:1; font-family:Arial,Helvetica Neue,Helvetica,sans-serif; font-size:48px; text-anchor:start;" transform="rotate(0, 217.1, 953.003)" x="217.1" y="953.003">7.00×10</text>
</g>
<g clip-path="url(#clip110)">
<text style="fill:#000000; fill-opacity:1; font-family:Arial,Helvetica Neue,Helvetica,sans-serif; font-size:38px; text-anchor:start;" transform="rotate(0, 392.403, 925.593)" x="392.403" y="925.593">4</text>
</g>
<g clip-path="url(#clip110)">
<text style="fill:#000000; fill-opacity:1; font-family:Arial,Helvetica Neue,Helvetica,sans-serif; font-size:48px; text-anchor:start;" transform="rotate(0, 217.1, 742.478)" x="217.1" y="742.478">8.00×10</text>
</g>
<g clip-path="url(#clip110)">
<text style="fill:#000000; fill-opacity:1; font-family:Arial,Helvetica Neue,Helvetica,sans-serif; font-size:38px; text-anchor:start;" transform="rotate(0, 392.403, 715.067)" x="392.403" y="715.067">4</text>
</g>
<g clip-path="url(#clip110)">
<text style="fill:#000000; fill-opacity:1; font-family:Arial,Helvetica Neue,Helvetica,sans-serif; font-size:48px; text-anchor:start;" transform="rotate(0, 217.1, 531.952)" x="217.1" y="531.952">9.00×10</text>
</g>
<g clip-path="url(#clip110)">
<text style="fill:#000000; fill-opacity:1; font-family:Arial,Helvetica Neue,Helvetica,sans-serif; font-size:38px; text-anchor:start;" transform="rotate(0, 392.403, 504.542)" x="392.403" y="504.542">4</text>
</g>
<g clip-path="url(#clip110)">
<text style="fill:#000000; fill-opacity:1; font-family:Arial,Helvetica Neue,Helvetica,sans-serif; font-size:48px; text-anchor:start;" transform="rotate(0, 217.1, 321.427)" x="217.1" y="321.427">1.00×10</text>
</g>
<g clip-path="url(#clip110)">
<text style="fill:#000000; fill-opacity:1; font-family:Arial,Helvetica Neue,Helvetica,sans-serif; font-size:38px; text-anchor:start;" transform="rotate(0, 392.403, 294.016)" x="392.403" y="294.016">5</text>
</g>
<g clip-path="url(#clip110)">
<text style="fill:#000000; fill-opacity:1; font-family:Arial,Helvetica Neue,Helvetica,sans-serif; font-size:48px; text-anchor:start;" transform="rotate(0, 217.1, 110.901)" x="217.1" y="110.901">1.10×10</text>
</g>
<g clip-path="url(#clip110)">
<text style="fill:#000000; fill-opacity:1; font-family:Arial,Helvetica Neue,Helvetica,sans-serif; font-size:38px; text-anchor:start;" transform="rotate(0, 392.403, 83.4908)" x="392.403" y="83.4908">5</text>
</g>
<g clip-path="url(#clip110)">
<text style="fill:#000000; fill-opacity:1; font-family:Arial,Helvetica Neue,Helvetica,sans-serif; font-size:66px; text-anchor:middle;" transform="rotate(-90, 169.538, 684.305)" x="169.538" y="684.305">mean squared error</text>
</g>
<path clip-path="url(#clip112)" d="
M2298.91 1070.98 L2270.86 1083.72 L2242.82 1122.72 L2214.77 1154.11 L2186.73 1178.95 L2158.68 1200.72 L2130.64 1223.08 L2102.59 1239.99 L2074.54 1252.32 L2046.5 1261.6 
  L2018.45 1268.98 L1990.41 1276.05 L1962.36 1281.18 L1934.32 1283.8 L1906.27 1284.68 L1878.23 1285.08 L1850.18 1285.31 L1822.13 1284.76 L1794.09 1283.89 L1766.04 1283.99 
  L1738 1284.37 L1709.95 1284.59 L1681.91 1284.5 L1653.86 1284.19 L1625.82 1282.94 L1597.77 1280.05 L1569.72 1277.59 L1541.68 1275.21 L1513.63 1272.45 L1485.59 1269.36 
  L1457.54 1266.32 L1429.5 1263.66 L1401.45 1261.38 L1373.41 1259.36 L1345.36 1257.71 L1317.32 1256.29 L1289.27 1254.74 L1261.22 1253.3 L1233.18 1251.89 L1205.13 1250.53 
  L1177.09 1249.32 L1149.04 1248.11 L1121 1247.02 L1092.95 1245.96 L1064.91 1244.98 L1036.86 1244.09 L1008.81 1243.27 L980.769 1242.5 L952.723 1241.66 L924.678 1240.76 
  L896.632 1239.93 L868.587 1239.2 L840.541 1238.5 L812.496 1237.86 L784.45 1237.28 L756.405 1236.75 L728.359 1236.26 L700.314 1235.88 L672.268 1235.45 L644.223 1235.06 
  L616.177 1234.67 L588.132 1234.3 L560.086 1233.95 L532.04 1233.65 L503.995 1233.34 L503.995 577.759 L532.04 578.179 L560.086 578.581 L588.132 579.034 L616.177 579.521 
  L644.223 580.034 L672.268 580.572 L700.314 581.115 L728.359 581.704 L756.405 582.428 L784.45 583.209 L812.496 584.013 L840.541 584.937 L868.587 585.946 L896.632 586.989 
  L924.678 588.174 L952.723 589.47 L980.769 590.837 L1008.81 592.152 L1036.86 593.586 L1064.91 595.122 L1092.95 596.779 L1121 598.557 L1149.04 600.375 L1177.09 602.397 
  L1205.13 604.492 L1233.18 606.785 L1261.22 609.113 L1289.27 611.538 L1317.32 614.053 L1345.36 615.888 L1373.41 616.903 L1401.45 618.202 L1429.5 619.644 L1457.54 621.303 
  L1485.59 623.205 L1513.63 625.122 L1541.68 626.396 L1569.72 626.605 L1597.77 626.439 L1625.82 626.295 L1653.86 624.868 L1681.91 622.218 L1709.95 618.722 L1738 614.172 
  L1766.04 608.794 L1794.09 603.53 L1822.13 597.373 L1850.18 589.318 L1878.23 578.778 L1906.27 566.849 L1934.32 552.624 L1962.36 534.308 L1990.41 510.288 L2018.45 482.238 
  L2046.5 449.73 L2074.54 411.335 L2102.59 365.36 L2130.64 309.454 L2158.68 241.717 L2186.73 203.586 L2214.77 176.998 L2242.82 142.144 L2270.86 96.6325 L2298.91 83.3042 
   Z
  " fill="#009af9" fill-rule="evenodd" fill-opacity="0.5"/>
<polyline clip-path="url(#clip112)" style="stroke:#009af9; stroke-linecap:butt; stroke-linejoin:round; stroke-width:4; stroke-opacity:1; fill:none" points="
  2298.91,577.144 2270.86,590.179 2242.82,632.433 2214.77,665.555 2186.73,691.27 2158.68,721.219 2130.64,766.265 2102.59,802.676 2074.54,831.827 2046.5,855.663 
  2018.45,875.61 1990.41,893.167 1962.36,907.745 1934.32,918.212 1906.27,925.764 1878.23,931.927 1850.18,937.312 1822.13,941.066 1794.09,943.71 1766.04,946.392 
  1738,949.269 1709.95,951.654 1681.91,953.359 1653.86,954.531 1625.82,954.616 1597.77,953.242 1569.72,952.099 1541.68,950.804 1513.63,948.788 1485.59,946.282 
  1457.54,943.809 1429.5,941.651 1401.45,939.791 1373.41,938.13 1345.36,936.797 1317.32,935.173 1289.27,933.141 1261.22,931.206 1233.18,929.339 1205.13,927.509 
  1177.09,925.859 1149.04,924.244 1121,922.789 1092.95,921.369 1064.91,920.052 1036.86,918.84 1008.81,917.709 980.769,916.671 952.723,915.566 924.678,914.468 
  896.632,913.459 868.587,912.571 840.541,911.717 812.496,910.937 784.45,910.247 756.405,909.587 728.359,908.982 700.314,908.497 672.268,908.011 644.223,907.547 
  616.177,907.094 588.132,906.665 560.086,906.265 532.04,905.915 503.995,905.549 
  "/>
</svg>
