<?xml version="1.0" encoding="utf-8"?>
<svg xmlns="http://www.w3.org/2000/svg" xmlns:xlink="http://www.w3.org/1999/xlink" width="500" height="500" viewBox="0 0 2000 2000">
<defs>
  <clipPath id="clip480">
    <rect x="0" y="0" width="2000" height="2000"/>
  </clipPath>
</defs>
<path clip-path="url(#clip480)" d="
M0 2000 L2000 2000 L2000 0 L0 0  Z
  " fill="#ffffff" fill-rule="evenodd" fill-opacity="1"/>
<defs>
  <clipPath id="clip481">
    <rect x="400" y="200" width="1401" height="1401"/>
  </clipPath>
</defs>
<path clip-path="url(#clip480)" d="
M325.679 1677.55 L1952.76 1677.55 L1952.76 47.2441 L325.679 47.2441  Z
  " fill="#ffffff" fill-rule="evenodd" fill-opacity="1"/>
<defs>
  <clipPath id="clip482">
    <rect x="325" y="47" width="1628" height="1631"/>
  </clipPath>
</defs>
<polyline clip-path="url(#clip482)" style="stroke:#000000; stroke-linecap:butt; stroke-linejoin:round; stroke-width:2; stroke-opacity:0.1; fill:none" points="
  325.679,1677.55 325.679,47.2441 
  "/>
<polyline clip-path="url(#clip482)" style="stroke:#000000; stroke-linecap:butt; stroke-linejoin:round; stroke-width:2; stroke-opacity:0.1; fill:none" points="
  651.094,1677.55 651.094,47.2441 
  "/>
<polyline clip-path="url(#clip482)" style="stroke:#000000; stroke-linecap:butt; stroke-linejoin:round; stroke-width:2; stroke-opacity:0.1; fill:none" points="
  976.51,1677.55 976.51,47.2441 
  "/>
<polyline clip-path="url(#clip482)" style="stroke:#000000; stroke-linecap:butt; stroke-linejoin:round; stroke-width:2; stroke-opacity:0.1; fill:none" points="
  1301.93,1677.55 1301.93,47.2441 
  "/>
<polyline clip-path="url(#clip482)" style="stroke:#000000; stroke-linecap:butt; stroke-linejoin:round; stroke-width:2; stroke-opacity:0.1; fill:none" points="
  1627.34,1677.55 1627.34,47.2441 
  "/>
<polyline clip-path="url(#clip482)" style="stroke:#000000; stroke-linecap:butt; stroke-linejoin:round; stroke-width:2; stroke-opacity:0.1; fill:none" points="
  1952.76,1677.55 1952.76,47.2441 
  "/>
<polyline clip-path="url(#clip480)" style="stroke:#000000; stroke-linecap:butt; stroke-linejoin:round; stroke-width:4; stroke-opacity:1; fill:none" points="
  325.679,1677.55 1952.76,1677.55 
  "/>
<polyline clip-path="url(#clip480)" style="stroke:#000000; stroke-linecap:butt; stroke-linejoin:round; stroke-width:4; stroke-opacity:1; fill:none" points="
  325.679,1677.55 325.679,1658.65 
  "/>
<polyline clip-path="url(#clip480)" style="stroke:#000000; stroke-linecap:butt; stroke-linejoin:round; stroke-width:4; stroke-opacity:1; fill:none" points="
  651.094,1677.55 651.094,1658.65 
  "/>
<polyline clip-path="url(#clip480)" style="stroke:#000000; stroke-linecap:butt; stroke-linejoin:round; stroke-width:4; stroke-opacity:1; fill:none" points="
  976.51,1677.55 976.51,1658.65 
  "/>
<polyline clip-path="url(#clip480)" style="stroke:#000000; stroke-linecap:butt; stroke-linejoin:round; stroke-width:4; stroke-opacity:1; fill:none" points="
  1301.93,1677.55 1301.93,1658.65 
  "/>
<polyline clip-path="url(#clip480)" style="stroke:#000000; stroke-linecap:butt; stroke-linejoin:round; stroke-width:4; stroke-opacity:1; fill:none" points="
  1627.34,1677.55 1627.34,1658.65 
  "/>
<polyline clip-path="url(#clip480)" style="stroke:#000000; stroke-linecap:butt; stroke-linejoin:round; stroke-width:4; stroke-opacity:1; fill:none" points="
  1952.76,1677.55 1952.76,1658.65 
  "/>
<g clip-path="url(#clip480)">
<text style="fill:#000000; fill-opacity:1; font-family:Arial,Helvetica Neue,Helvetica,sans-serif; font-size:48px; text-anchor:middle;" transform="rotate(0, 325.679, 1735.55)" x="325.679" y="1735.55">0</text>
</g>
<g clip-path="url(#clip480)">
<text style="fill:#000000; fill-opacity:1; font-family:Arial,Helvetica Neue,Helvetica,sans-serif; font-size:48px; text-anchor:middle;" transform="rotate(0, 651.094, 1735.55)" x="651.094" y="1735.55">10</text>
</g>
<g clip-path="url(#clip480)">
<text style="fill:#000000; fill-opacity:1; font-family:Arial,Helvetica Neue,Helvetica,sans-serif; font-size:48px; text-anchor:middle;" transform="rotate(0, 976.51, 1735.55)" x="976.51" y="1735.55">20</text>
</g>
<g clip-path="url(#clip480)">
<text style="fill:#000000; fill-opacity:1; font-family:Arial,Helvetica Neue,Helvetica,sans-serif; font-size:48px; text-anchor:middle;" transform="rotate(0, 1301.93, 1735.55)" x="1301.93" y="1735.55">30</text>
</g>
<g clip-path="url(#clip480)">
<text style="fill:#000000; fill-opacity:1; font-family:Arial,Helvetica Neue,Helvetica,sans-serif; font-size:48px; text-anchor:middle;" transform="rotate(0, 1627.34, 1735.55)" x="1627.34" y="1735.55">40</text>
</g>
<g clip-path="url(#clip480)">
<text style="fill:#000000; fill-opacity:1; font-family:Arial,Helvetica Neue,Helvetica,sans-serif; font-size:48px; text-anchor:middle;" transform="rotate(0, 1952.76, 1735.55)" x="1952.76" y="1735.55">50</text>
</g>
<g clip-path="url(#clip480)">
<text style="fill:#000000; fill-opacity:1; font-family:Arial,Helvetica Neue,Helvetica,sans-serif; font-size:66px; text-anchor:middle;" transform="rotate(0, 1139.22, 1817.41)" x="1139.22" y="1817.41">λ</text>
</g>
<polyline clip-path="url(#clip482)" style="stroke:#000000; stroke-linecap:butt; stroke-linejoin:round; stroke-width:2; stroke-opacity:0.1; fill:none" points="
  325.679,1496.4 1952.76,1496.4 
  "/>
<polyline clip-path="url(#clip482)" style="stroke:#000000; stroke-linecap:butt; stroke-linejoin:round; stroke-width:2; stroke-opacity:0.1; fill:none" points="
  325.679,1134.11 1952.76,1134.11 
  "/>
<polyline clip-path="url(#clip482)" style="stroke:#000000; stroke-linecap:butt; stroke-linejoin:round; stroke-width:2; stroke-opacity:0.1; fill:none" points="
  325.679,771.823 1952.76,771.823 
  "/>
<polyline clip-path="url(#clip482)" style="stroke:#000000; stroke-linecap:butt; stroke-linejoin:round; stroke-width:2; stroke-opacity:0.1; fill:none" points="
  325.679,409.533 1952.76,409.533 
  "/>
<polyline clip-path="url(#clip482)" style="stroke:#000000; stroke-linecap:butt; stroke-linejoin:round; stroke-width:2; stroke-opacity:0.1; fill:none" points="
  325.679,47.2441 1952.76,47.2441 
  "/>
<polyline clip-path="url(#clip480)" style="stroke:#000000; stroke-linecap:butt; stroke-linejoin:round; stroke-width:4; stroke-opacity:1; fill:none" points="
  325.679,1677.55 325.679,47.2441 
  "/>
<polyline clip-path="url(#clip480)" style="stroke:#000000; stroke-linecap:butt; stroke-linejoin:round; stroke-width:4; stroke-opacity:1; fill:none" points="
  325.679,1496.4 344.577,1496.4 
  "/>
<polyline clip-path="url(#clip480)" style="stroke:#000000; stroke-linecap:butt; stroke-linejoin:round; stroke-width:4; stroke-opacity:1; fill:none" points="
  325.679,1134.11 344.577,1134.11 
  "/>
<polyline clip-path="url(#clip480)" style="stroke:#000000; stroke-linecap:butt; stroke-linejoin:round; stroke-width:4; stroke-opacity:1; fill:none" points="
  325.679,771.823 344.577,771.823 
  "/>
<polyline clip-path="url(#clip480)" style="stroke:#000000; stroke-linecap:butt; stroke-linejoin:round; stroke-width:4; stroke-opacity:1; fill:none" points="
  325.679,409.533 344.577,409.533 
  "/>
<polyline clip-path="url(#clip480)" style="stroke:#000000; stroke-linecap:butt; stroke-linejoin:round; stroke-width:4; stroke-opacity:1; fill:none" points="
  325.679,47.2441 344.577,47.2441 
  "/>
<g clip-path="url(#clip480)">
<text style="fill:#000000; fill-opacity:1; font-family:Arial,Helvetica Neue,Helvetica,sans-serif; font-size:48px; text-anchor:end;" transform="rotate(0, 295.679, 1513.9)" x="295.679" y="1513.9">−5</text>
</g>
<g clip-path="url(#clip480)">
<text style="fill:#000000; fill-opacity:1; font-family:Arial,Helvetica Neue,Helvetica,sans-serif; font-size:48px; text-anchor:end;" transform="rotate(0, 295.679, 1151.61)" x="295.679" y="1151.61">0</text>
</g>
<g clip-path="url(#clip480)">
<text style="fill:#000000; fill-opacity:1; font-family:Arial,Helvetica Neue,Helvetica,sans-serif; font-size:48px; text-anchor:end;" transform="rotate(0, 295.679, 789.323)" x="295.679" y="789.323">5</text>
</g>
<g clip-path="url(#clip480)">
<text style="fill:#000000; fill-opacity:1; font-family:Arial,Helvetica Neue,Helvetica,sans-serif; font-size:48px; text-anchor:end;" transform="rotate(0, 295.679, 427.033)" x="295.679" y="427.033">10</text>
</g>
<g clip-path="url(#clip480)">
<text style="fill:#000000; fill-opacity:1; font-family:Arial,Helvetica Neue,Helvetica,sans-serif; font-size:48px; text-anchor:end;" transform="rotate(0, 295.679, 64.7441)" x="295.679" y="64.7441">15</text>
</g>
<g clip-path="url(#clip480)">
<text style="fill:#000000; fill-opacity:1; font-family:Arial,Helvetica Neue,Helvetica,sans-serif; font-size:66px; text-anchor:middle;" transform="rotate(-90, 200.592, 862.395)" x="200.592" y="862.395">β</text>
</g>
<polyline clip-path="url(#clip482)" style="stroke:#009af9; stroke-linecap:butt; stroke-linejoin:round; stroke-width:4; stroke-opacity:1; fill:none" points="
  325.679,338.476 341.95,626.471 358.22,753.969 374.491,828.736 390.762,878.424 407.033,913.997 423.304,940.781 439.574,961.701 455.845,978.505 472.116,992.305 
  488.387,1003.84 504.657,1013.64 520.928,1022.06 537.199,1029.38 553.47,1035.79 569.74,1041.46 586.011,1046.52 602.282,1051.05 618.553,1055.13 634.824,1058.83 
  651.094,1062.2 667.365,1065.28 683.636,1068.1 699.907,1070.7 716.177,1073.11 732.448,1075.34 748.719,1077.41 764.99,1079.34 781.26,1081.14 797.531,1082.83 
  813.802,1084.42 830.073,1085.9 846.344,1087.31 862.614,1088.63 878.885,1089.88 895.156,1091.06 911.427,1092.18 927.697,1093.25 943.968,1094.26 960.239,1095.22 
  976.51,1096.14 992.78,1097.02 1009.05,1097.85 1025.32,1098.65 1041.59,1099.41 1057.86,1100.15 1074.13,1100.85 1090.41,1101.52 1106.68,1102.17 1122.95,1102.79 
  1139.22,1103.39 1155.49,1103.96 1171.76,1104.52 1188.03,1105.05 1204.3,1105.57 1220.57,1106.06 1236.84,1106.54 1253.11,1107.01 1269.38,1107.46 1285.65,1107.89 
  1301.93,1108.31 1318.2,1108.72 1334.47,1109.11 1350.74,1109.49 1367.01,1109.87 1383.28,1110.22 1399.55,1110.57 1415.82,1110.91 1432.09,1111.24 1448.36,1111.56 
  1464.63,1111.87 1480.9,1112.18 1497.17,1112.47 1513.45,1112.76 1529.72,1113.04 1545.99,1113.31 1562.26,1113.58 1578.53,1113.83 1594.8,1114.09 1611.07,1114.33 
  1627.34,1114.57 1643.61,1114.81 1659.88,1115.04 1676.15,1115.26 1692.42,1115.48 1708.69,1115.69 1724.97,1115.9 1741.24,1116.1 1757.51,1116.3 1773.78,1116.5 
  1790.05,1116.69 1806.32,1116.87 1822.59,1117.06 1838.86,1117.23 1855.13,1117.41 1871.4,1117.58 1887.67,1117.75 1903.94,1117.91 1920.21,1118.08 1936.49,1118.23 
  1952.76,1118.39 
  "/>
<polyline clip-path="url(#clip482)" style="stroke:#e26f46; stroke-linecap:butt; stroke-linejoin:round; stroke-width:4; stroke-opacity:1; fill:none" points="
  325.679,1575.27 341.95,1325.38 358.22,1263.05 374.491,1233.36 390.762,1215.74 407.033,1203.91 423.304,1195.34 439.574,1188.8 455.845,1183.61 472.116,1179.37 
  488.387,1175.84 504.657,1172.84 520.928,1170.26 537.199,1168.02 553.47,1166.05 569.74,1164.3 586.011,1162.74 602.282,1161.33 618.553,1160.06 634.824,1158.9 
  651.094,1157.85 667.365,1156.88 683.636,1155.99 699.907,1155.17 716.177,1154.41 732.448,1153.7 748.719,1153.04 764.99,1152.42 781.26,1151.84 797.531,1151.3 
  813.802,1150.79 830.073,1150.31 846.344,1149.86 862.614,1149.43 878.885,1149.03 895.156,1148.64 911.427,1148.28 927.697,1147.93 943.968,1147.6 960.239,1147.29 
  976.51,1146.99 992.78,1146.7 1009.05,1146.42 1025.32,1146.16 1041.59,1145.91 1057.86,1145.67 1074.13,1145.44 1090.41,1145.22 1106.68,1145 1122.95,1144.8 
  1139.22,1144.6 1155.49,1144.41 1171.76,1144.22 1188.03,1144.05 1204.3,1143.87 1220.57,1143.71 1236.84,1143.55 1253.11,1143.39 1269.38,1143.24 1285.65,1143.1 
  1301.93,1142.96 1318.2,1142.82 1334.47,1142.69 1350.74,1142.56 1367.01,1142.44 1383.28,1142.32 1399.55,1142.2 1415.82,1142.09 1432.09,1141.98 1448.36,1141.87 
  1464.63,1141.76 1480.9,1141.66 1497.17,1141.56 1513.45,1141.47 1529.72,1141.37 1545.99,1141.28 1562.26,1141.19 1578.53,1141.1 1594.8,1141.02 1611.07,1140.93 
  1627.34,1140.85 1643.61,1140.77 1659.88,1140.7 1676.15,1140.62 1692.42,1140.55 1708.69,1140.48 1724.97,1140.4 1741.24,1140.34 1757.51,1140.27 1773.78,1140.2 
  1790.05,1140.14 1806.32,1140.07 1822.59,1140.01 1838.86,1139.95 1855.13,1139.89 1871.4,1139.83 1887.67,1139.78 1903.94,1139.72 1920.21,1139.67 1936.49,1139.61 
  1952.76,1139.56 
  "/>
<polyline clip-path="url(#clip482)" style="stroke:#3da44d; stroke-linecap:butt; stroke-linejoin:round; stroke-width:4; stroke-opacity:1; fill:none" points="
  325.679,737.021 341.95,695.635 358.22,762.451 374.491,815.139 390.762,855.243 407.033,886.466 423.304,911.397 439.574,931.752 455.845,948.681 472.116,962.984 
  488.387,975.229 504.657,985.831 520.928,995.101 537.199,1003.28 553.47,1010.54 569.74,1017.04 586.011,1022.88 602.282,1028.17 618.553,1032.98 634.824,1037.37 
  651.094,1041.39 667.365,1045.09 683.636,1048.51 699.907,1051.67 716.177,1054.61 732.448,1057.34 748.719,1059.9 764.99,1062.29 781.26,1064.53 797.531,1066.63 
  813.802,1068.61 830.073,1070.48 846.344,1072.24 862.614,1073.91 878.885,1075.49 895.156,1076.99 911.427,1078.41 927.697,1079.77 943.968,1081.06 960.239,1082.29 
  976.51,1083.47 992.78,1084.59 1009.05,1085.66 1025.32,1086.69 1041.59,1087.68 1057.86,1088.62 1074.13,1089.53 1090.41,1090.4 1106.68,1091.24 1122.95,1092.05 
  1139.22,1092.83 1155.49,1093.58 1171.76,1094.3 1188.03,1095 1204.3,1095.67 1220.57,1096.32 1236.84,1096.95 1253.11,1097.56 1269.38,1098.14 1285.65,1098.71 
  1301.93,1099.27 1318.2,1099.8 1334.47,1100.32 1350.74,1100.82 1367.01,1101.31 1383.28,1101.79 1399.55,1102.25 1415.82,1102.7 1432.09,1103.13 1448.36,1103.55 
  1464.63,1103.97 1480.9,1104.37 1497.17,1104.76 1513.45,1105.14 1529.72,1105.51 1545.99,1105.87 1562.26,1106.22 1578.53,1106.57 1594.8,1106.9 1611.07,1107.23 
  1627.34,1107.55 1643.61,1107.86 1659.88,1108.17 1676.15,1108.46 1692.42,1108.76 1708.69,1109.04 1724.97,1109.32 1741.24,1109.59 1757.51,1109.86 1773.78,1110.12 
  1790.05,1110.37 1806.32,1110.62 1822.59,1110.87 1838.86,1111.11 1855.13,1111.34 1871.4,1111.57 1887.67,1111.79 1903.94,1112.02 1920.21,1112.23 1936.49,1112.44 
  1952.76,1112.65 
  "/>
<polyline clip-path="url(#clip482)" style="stroke:#c271d2; stroke-linecap:butt; stroke-linejoin:round; stroke-width:4; stroke-opacity:1; fill:none" points="
  325.679,1106.79 341.95,1147.88 358.22,1166.08 374.491,1171.12 390.762,1171.78 407.033,1170.83 423.304,1169.28 439.574,1167.56 455.845,1165.85 472.116,1164.21 
  488.387,1162.68 504.657,1161.26 520.928,1159.95 537.199,1158.75 553.47,1157.64 569.74,1156.62 586.011,1155.68 602.282,1154.81 618.553,1154 634.824,1153.25 
  651.094,1152.56 667.365,1151.91 683.636,1151.3 699.907,1150.74 716.177,1150.2 732.448,1149.7 748.719,1149.23 764.99,1148.79 781.26,1148.37 797.531,1147.98 
  813.802,1147.6 830.073,1147.25 846.344,1146.91 862.614,1146.59 878.885,1146.29 895.156,1146 911.427,1145.72 927.697,1145.45 943.968,1145.2 960.239,1144.96 
  976.51,1144.73 992.78,1144.51 1009.05,1144.29 1025.32,1144.09 1041.59,1143.89 1057.86,1143.7 1074.13,1143.52 1090.41,1143.35 1106.68,1143.18 1122.95,1143.01 
  1139.22,1142.86 1155.49,1142.71 1171.76,1142.56 1188.03,1142.42 1204.3,1142.28 1220.57,1142.15 1236.84,1142.02 1253.11,1141.9 1269.38,1141.78 1285.65,1141.66 
  1301.93,1141.55 1318.2,1141.44 1334.47,1141.33 1350.74,1141.23 1367.01,1141.13 1383.28,1141.03 1399.55,1140.93 1415.82,1140.84 1432.09,1140.75 1448.36,1140.66 
  1464.63,1140.58 1480.9,1140.49 1497.17,1140.41 1513.45,1140.33 1529.72,1140.26 1545.99,1140.18 1562.26,1140.11 1578.53,1140.03 1594.8,1139.96 1611.07,1139.9 
  1627.34,1139.83 1643.61,1139.76 1659.88,1139.7 1676.15,1139.64 1692.42,1139.58 1708.69,1139.52 1724.97,1139.46 1741.24,1139.4 1757.51,1139.35 1773.78,1139.29 
  1790.05,1139.24 1806.32,1139.18 1822.59,1139.13 1838.86,1139.08 1855.13,1139.03 1871.4,1138.98 1887.67,1138.94 1903.94,1138.89 1920.21,1138.84 1936.49,1138.8 
  1952.76,1138.76 
  "/>
<polyline clip-path="url(#clip482)" style="stroke:#ac8d18; stroke-linecap:butt; stroke-linejoin:round; stroke-width:4; stroke-opacity:1; fill:none" points="
  325.679,735.56 341.95,961.685 358.22,1029.33 374.491,1065.15 390.762,1086.45 407.033,1100.07 423.304,1109.25 439.574,1115.7 455.845,1120.36 472.116,1123.82 
  488.387,1126.44 504.657,1128.46 520.928,1130.04 537.199,1131.29 553.47,1132.29 569.74,1133.1 586.011,1133.75 602.282,1134.29 618.553,1134.73 634.824,1135.09 
  651.094,1135.39 667.365,1135.64 683.636,1135.85 699.907,1136.02 716.177,1136.16 732.448,1136.28 748.719,1136.38 764.99,1136.46 781.26,1136.53 797.531,1136.58 
  813.802,1136.62 830.073,1136.66 846.344,1136.68 862.614,1136.7 878.885,1136.72 895.156,1136.73 911.427,1136.73 927.697,1136.73 943.968,1136.73 960.239,1136.73 
  976.51,1136.72 992.78,1136.71 1009.05,1136.7 1025.32,1136.69 1041.59,1136.68 1057.86,1136.66 1074.13,1136.65 1090.41,1136.63 1106.68,1136.61 1122.95,1136.6 
  1139.22,1136.58 1155.49,1136.56 1171.76,1136.54 1188.03,1136.52 1204.3,1136.5 1220.57,1136.48 1236.84,1136.46 1253.11,1136.45 1269.38,1136.43 1285.65,1136.41 
  1301.93,1136.39 1318.2,1136.37 1334.47,1136.35 1350.74,1136.33 1367.01,1136.31 1383.28,1136.29 1399.55,1136.28 1415.82,1136.26 1432.09,1136.24 1448.36,1136.22 
  1464.63,1136.2 1480.9,1136.19 1497.17,1136.17 1513.45,1136.15 1529.72,1136.14 1545.99,1136.12 1562.26,1136.1 1578.53,1136.09 1594.8,1136.07 1611.07,1136.05 
  1627.34,1136.04 1643.61,1136.02 1659.88,1136.01 1676.15,1135.99 1692.42,1135.98 1708.69,1135.96 1724.97,1135.95 1741.24,1135.93 1757.51,1135.92 1773.78,1135.9 
  1790.05,1135.89 1806.32,1135.88 1822.59,1135.86 1838.86,1135.85 1855.13,1135.84 1871.4,1135.82 1887.67,1135.81 1903.94,1135.8 1920.21,1135.79 1936.49,1135.77 
  1952.76,1135.76 
  "/>
<path clip-path="url(#clip480)" d="
M847.958 403.386 L1898.52 403.386 L1898.52 101.587 L847.958 101.587  Z
  " fill="#ffffff" fill-rule="evenodd" fill-opacity="1"/>
<polyline clip-path="url(#clip480)" style="stroke:#000000; stroke-linecap:butt; stroke-linejoin:round; stroke-width:4; stroke-opacity:1; fill:none" points="
  847.958,403.386 1898.52,403.386 1898.52,101.587 847.958,101.587 847.958,403.386 
  "/>
<polyline clip-path="url(#clip480)" style="stroke:#009af9; stroke-linecap:butt; stroke-linejoin:round; stroke-width:4; stroke-opacity:1; fill:none" points="
  866.036,151.887 974.508,151.887 
  "/>
<g clip-path="url(#clip480)">
<text style="fill:#000000; fill-opacity:1; font-family:Arial,Helvetica Neue,Helvetica,sans-serif; font-size:48px; text-anchor:start;" transform="rotate(0, 992.587, 169.387)" x="992.587" y="169.387">警察への年間資金                                                 </text>
</g>
<polyline clip-path="url(#clip480)" style="stroke:#e26f46; stroke-linecap:butt; stroke-linejoin:round; stroke-width:4; stroke-opacity:1; fill:none" points="
  866.036,202.187 974.508,202.187 
  "/>
<g clip-path="url(#clip480)">
<text style="fill:#000000; fill-opacity:1; font-family:Arial,Helvetica Neue,Helvetica,sans-serif; font-size:48px; text-anchor:start;" transform="rotate(0, 992.587, 219.687)" x="992.587" y="219.687">25歳以上で高校を卒業した人の割合</text>
</g>
<polyline clip-path="url(#clip480)" style="stroke:#3da44d; stroke-linecap:butt; stroke-linejoin:round; stroke-width:4; stroke-opacity:1; fill:none" points="
  866.036,252.487 974.508,252.487 
  "/>
<g clip-path="url(#clip480)">
<text style="fill:#000000; fill-opacity:1; font-family:Arial,Helvetica Neue,Helvetica,sans-serif; font-size:48px; text-anchor:start;" transform="rotate(0, 992.587, 269.987)" x="992.587" y="269.987">16-19歳で高校に通っていない人の割合</text>
</g>
<polyline clip-path="url(#clip480)" style="stroke:#c271d2; stroke-linecap:butt; stroke-linejoin:round; stroke-width:4; stroke-opacity:1; fill:none" points="
  866.036,302.786 974.508,302.786 
  "/>
<g clip-path="url(#clip480)">
<text style="fill:#000000; fill-opacity:1; font-family:Arial,Helvetica Neue,Helvetica,sans-serif; font-size:48px; text-anchor:start;" transform="rotate(0, 992.587, 320.286)" x="992.587" y="320.286">18-24歳で大学生の割合</text>
</g>
<polyline clip-path="url(#clip480)" style="stroke:#ac8d18; stroke-linecap:butt; stroke-linejoin:round; stroke-width:4; stroke-opacity:1; fill:none" points="
  866.036,353.086 974.508,353.086 
  "/>
<g clip-path="url(#clip480)">
<text style="fill:#000000; fill-opacity:1; font-family:Arial,Helvetica Neue,Helvetica,sans-serif; font-size:48px; text-anchor:start;" transform="rotate(0, 992.587, 370.586)" x="992.587" y="370.586">25歳以上で４年制大学を卒業した人の割合</text>
</g>
</svg>
