<?xml version="1.0" encoding="utf-8"?>
<svg xmlns="http://www.w3.org/2000/svg" xmlns:xlink="http://www.w3.org/1999/xlink" width="500" height="500" viewBox="0 0 2000 2000">
<defs>
  <clipPath id="clip810">
    <rect x="0" y="0" width="2000" height="2000"/>
  </clipPath>
</defs>
<path clip-path="url(#clip810)" d="
M0 2000 L2000 2000 L2000 0 L0 0  Z
  " fill="#ffffff" fill-rule="evenodd" fill-opacity="1"/>
<defs>
  <clipPath id="clip811">
    <rect x="400" y="200" width="1401" height="1401"/>
  </clipPath>
</defs>
<path clip-path="url(#clip810)" d="
M98.7402 1901.26 L1952.76 1901.26 L1952.76 47.2441 L98.7402 47.2441  Z
  " fill="#ffffff" fill-rule="evenodd" fill-opacity="1"/>
<defs>
  <clipPath id="clip812">
    <rect x="98" y="47" width="1855" height="1855"/>
  </clipPath>
</defs>
<polyline clip-path="url(#clip812)" style="stroke:#000000; stroke-width:2; stroke-opacity:0.1; fill:none" points="
  98.7402,1901.26 98.7402,47.2441 
  "/>
<polyline clip-path="url(#clip812)" style="stroke:#000000; stroke-width:2; stroke-opacity:0.1; fill:none" points="
  469.543,1901.26 469.543,47.2441 
  "/>
<polyline clip-path="url(#clip812)" style="stroke:#000000; stroke-width:2; stroke-opacity:0.1; fill:none" points="
  840.346,1901.26 840.346,47.2441 
  "/>
<polyline clip-path="url(#clip812)" style="stroke:#000000; stroke-width:2; stroke-opacity:0.1; fill:none" points="
  1211.15,1901.26 1211.15,47.2441 
  "/>
<polyline clip-path="url(#clip812)" style="stroke:#000000; stroke-width:2; stroke-opacity:0.1; fill:none" points="
  1581.95,1901.26 1581.95,47.2441 
  "/>
<polyline clip-path="url(#clip812)" style="stroke:#000000; stroke-width:2; stroke-opacity:0.1; fill:none" points="
  1952.76,1901.26 1952.76,47.2441 
  "/>
<polyline clip-path="url(#clip810)" style="stroke:#000000; stroke-width:4; stroke-opacity:1; fill:none" points="
  98.7402,1901.26 1952.76,1901.26 
  "/>
<polyline clip-path="url(#clip810)" style="stroke:#000000; stroke-width:4; stroke-opacity:1; fill:none" points="
  98.7402,1901.26 98.7402,1879.01 
  "/>
<polyline clip-path="url(#clip810)" style="stroke:#000000; stroke-width:4; stroke-opacity:1; fill:none" points="
  469.543,1901.26 469.543,1879.01 
  "/>
<polyline clip-path="url(#clip810)" style="stroke:#000000; stroke-width:4; stroke-opacity:1; fill:none" points="
  840.346,1901.26 840.346,1879.01 
  "/>
<polyline clip-path="url(#clip810)" style="stroke:#000000; stroke-width:4; stroke-opacity:1; fill:none" points="
  1211.15,1901.26 1211.15,1879.01 
  "/>
<polyline clip-path="url(#clip810)" style="stroke:#000000; stroke-width:4; stroke-opacity:1; fill:none" points="
  1581.95,1901.26 1581.95,1879.01 
  "/>
<polyline clip-path="url(#clip810)" style="stroke:#000000; stroke-width:4; stroke-opacity:1; fill:none" points="
  1952.76,1901.26 1952.76,1879.01 
  "/>
<g clip-path="url(#clip810)">
<text style="fill:#000000; fill-opacity:1; font-family:Arial,Helvetica Neue,Helvetica,sans-serif; font-size:48px; text-anchor:middle;" transform="rotate(0, 98.7402, 1959.26)" x="98.7402" y="1959.26">0</text>
</g>
<g clip-path="url(#clip810)">
<text style="fill:#000000; fill-opacity:1; font-family:Arial,Helvetica Neue,Helvetica,sans-serif; font-size:48px; text-anchor:middle;" transform="rotate(0, 469.543, 1959.26)" x="469.543" y="1959.26">10</text>
</g>
<g clip-path="url(#clip810)">
<text style="fill:#000000; fill-opacity:1; font-family:Arial,Helvetica Neue,Helvetica,sans-serif; font-size:48px; text-anchor:middle;" transform="rotate(0, 840.346, 1959.26)" x="840.346" y="1959.26">20</text>
</g>
<g clip-path="url(#clip810)">
<text style="fill:#000000; fill-opacity:1; font-family:Arial,Helvetica Neue,Helvetica,sans-serif; font-size:48px; text-anchor:middle;" transform="rotate(0, 1211.15, 1959.26)" x="1211.15" y="1959.26">30</text>
</g>
<g clip-path="url(#clip810)">
<text style="fill:#000000; fill-opacity:1; font-family:Arial,Helvetica Neue,Helvetica,sans-serif; font-size:48px; text-anchor:middle;" transform="rotate(0, 1581.95, 1959.26)" x="1581.95" y="1959.26">40</text>
</g>
<g clip-path="url(#clip810)">
<text style="fill:#000000; fill-opacity:1; font-family:Arial,Helvetica Neue,Helvetica,sans-serif; font-size:48px; text-anchor:middle;" transform="rotate(0, 1952.76, 1959.26)" x="1952.76" y="1959.26">50</text>
</g>
<g clip-path="url(#clip810)">
<text style="fill:#000000; fill-opacity:1; font-family:Arial,Helvetica Neue,Helvetica,sans-serif; font-size:66px; text-anchor:middle;" transform="rotate(0, 1025.75, 2031.12)" x="1025.75" y="2031.12">λ</text>
</g>
<polyline clip-path="url(#clip812)" style="stroke:#000000; stroke-width:2; stroke-opacity:0.1; fill:none" points="
  98.7402,1695.26 1952.76,1695.26 
  "/>
<polyline clip-path="url(#clip812)" style="stroke:#000000; stroke-width:2; stroke-opacity:0.1; fill:none" points="
  98.7402,1283.25 1952.76,1283.25 
  "/>
<polyline clip-path="url(#clip812)" style="stroke:#000000; stroke-width:2; stroke-opacity:0.1; fill:none" points="
  98.7402,871.251 1952.76,871.251 
  "/>
<polyline clip-path="url(#clip812)" style="stroke:#000000; stroke-width:2; stroke-opacity:0.1; fill:none" points="
  98.7402,459.248 1952.76,459.248 
  "/>
<polyline clip-path="url(#clip812)" style="stroke:#000000; stroke-width:2; stroke-opacity:0.1; fill:none" points="
  98.7402,47.2441 1952.76,47.2441 
  "/>
<polyline clip-path="url(#clip810)" style="stroke:#000000; stroke-width:4; stroke-opacity:1; fill:none" points="
  98.7402,1901.26 98.7402,47.2441 
  "/>
<polyline clip-path="url(#clip810)" style="stroke:#000000; stroke-width:4; stroke-opacity:1; fill:none" points="
  98.7402,1695.26 120.988,1695.26 
  "/>
<polyline clip-path="url(#clip810)" style="stroke:#000000; stroke-width:4; stroke-opacity:1; fill:none" points="
  98.7402,1283.25 120.988,1283.25 
  "/>
<polyline clip-path="url(#clip810)" style="stroke:#000000; stroke-width:4; stroke-opacity:1; fill:none" points="
  98.7402,871.251 120.988,871.251 
  "/>
<polyline clip-path="url(#clip810)" style="stroke:#000000; stroke-width:4; stroke-opacity:1; fill:none" points="
  98.7402,459.248 120.988,459.248 
  "/>
<polyline clip-path="url(#clip810)" style="stroke:#000000; stroke-width:4; stroke-opacity:1; fill:none" points="
  98.7402,47.2441 120.988,47.2441 
  "/>
<g clip-path="url(#clip810)">
<text style="fill:#000000; fill-opacity:1; font-family:Arial,Helvetica Neue,Helvetica,sans-serif; font-size:48px; text-anchor:end;" transform="rotate(0, 68.7402, 1712.76)" x="68.7402" y="1712.76">−5</text>
</g>
<g clip-path="url(#clip810)">
<text style="fill:#000000; fill-opacity:1; font-family:Arial,Helvetica Neue,Helvetica,sans-serif; font-size:48px; text-anchor:end;" transform="rotate(0, 68.7402, 1300.75)" x="68.7402" y="1300.75">0</text>
</g>
<g clip-path="url(#clip810)">
<text style="fill:#000000; fill-opacity:1; font-family:Arial,Helvetica Neue,Helvetica,sans-serif; font-size:48px; text-anchor:end;" transform="rotate(0, 68.7402, 888.751)" x="68.7402" y="888.751">5</text>
</g>
<g clip-path="url(#clip810)">
<text style="fill:#000000; fill-opacity:1; font-family:Arial,Helvetica Neue,Helvetica,sans-serif; font-size:48px; text-anchor:end;" transform="rotate(0, 68.7402, 476.748)" x="68.7402" y="476.748">10</text>
</g>
<g clip-path="url(#clip810)">
<text style="fill:#000000; fill-opacity:1; font-family:Arial,Helvetica Neue,Helvetica,sans-serif; font-size:48px; text-anchor:end;" transform="rotate(0, 68.7402, 64.7441)" x="68.7402" y="64.7441">15</text>
</g>
<g clip-path="url(#clip810)">
<text style="fill:#000000; fill-opacity:1; font-family:Arial,Helvetica Neue,Helvetica,sans-serif; font-size:66px; text-anchor:middle;" transform="rotate(-90, -6.34664, 974.252)" x="-6.34664" y="974.252">β</text>
</g>
<polyline clip-path="url(#clip812)" style="stroke:#009af9; stroke-width:4; stroke-opacity:1; fill:none" points="
  98.7402,378.44 117.28,705.954 135.82,850.947 154.361,935.974 172.901,992.48 191.441,1032.94 209.981,1063.39 228.521,1087.18 247.061,1106.29 265.602,1121.99 
  284.142,1135.11 302.682,1146.25 321.222,1155.83 339.762,1164.15 358.302,1171.44 376.843,1177.89 395.383,1183.64 413.923,1188.79 432.463,1193.43 451.003,1197.64 
  469.543,1201.47 488.083,1204.97 506.624,1208.19 525.164,1211.15 543.704,1213.88 562.244,1216.42 580.784,1218.77 599.324,1220.97 617.865,1223.02 636.405,1224.94 
  654.945,1226.74 673.485,1228.43 692.025,1230.03 710.565,1231.53 729.106,1232.95 747.646,1234.3 766.186,1235.57 784.726,1236.78 803.266,1237.93 821.806,1239.03 
  840.346,1240.07 858.887,1241.07 877.427,1242.02 895.967,1242.93 914.507,1243.8 933.047,1244.63 951.587,1245.43 970.128,1246.19 988.668,1246.93 1007.21,1247.63 
  1025.75,1248.31 1044.29,1248.97 1062.83,1249.6 1081.37,1250.21 1099.91,1250.79 1118.45,1251.36 1136.99,1251.9 1155.53,1252.43 1174.07,1252.94 1192.61,1253.44 
  1211.15,1253.91 1229.69,1254.38 1248.23,1254.82 1266.77,1255.26 1285.31,1255.68 1303.85,1256.09 1322.39,1256.49 1340.93,1256.87 1359.47,1257.25 1378.01,1257.61 
  1396.55,1257.97 1415.09,1258.31 1433.63,1258.65 1452.17,1258.97 1470.71,1259.29 1489.25,1259.6 1507.79,1259.9 1526.33,1260.19 1544.87,1260.48 1563.41,1260.76 
  1581.95,1261.03 1600.49,1261.3 1619.03,1261.56 1637.57,1261.81 1656.11,1262.06 1674.65,1262.3 1693.19,1262.54 1711.73,1262.77 1730.27,1263 1748.81,1263.22 
  1767.35,1263.44 1785.89,1263.65 1804.43,1263.86 1822.97,1264.06 1841.51,1264.26 1860.06,1264.46 1878.6,1264.65 1897.14,1264.83 1915.68,1265.02 1934.22,1265.2 
  1952.76,1265.37 
  "/>
<polyline clip-path="url(#clip812)" style="stroke:#e26f46; stroke-width:4; stroke-opacity:1; fill:none" points="
  98.7402,1784.95 117.28,1500.77 135.82,1429.89 154.361,1396.12 172.901,1376.08 191.441,1362.63 209.981,1352.89 228.521,1345.44 247.061,1339.54 265.602,1334.72 
  284.142,1330.71 302.682,1327.3 321.222,1324.37 339.762,1321.82 358.302,1319.57 376.843,1317.58 395.383,1315.81 413.923,1314.21 432.463,1312.76 451.003,1311.45 
  469.543,1310.25 488.083,1309.15 506.624,1308.14 525.164,1307.2 543.704,1306.33 562.244,1305.53 580.784,1304.78 599.324,1304.08 617.865,1303.42 636.405,1302.8 
  654.945,1302.22 673.485,1301.68 692.025,1301.16 710.565,1300.68 729.106,1300.22 747.646,1299.78 766.186,1299.36 784.726,1298.97 803.266,1298.59 821.806,1298.24 
  840.346,1297.89 858.887,1297.57 877.427,1297.26 895.967,1296.96 914.507,1296.67 933.047,1296.4 951.587,1296.13 970.128,1295.88 988.668,1295.64 1007.21,1295.4 
  1025.75,1295.18 1044.29,1294.96 1062.83,1294.75 1081.37,1294.55 1099.91,1294.36 1118.45,1294.17 1136.99,1293.99 1155.53,1293.81 1174.07,1293.64 1192.61,1293.48 
  1211.15,1293.32 1229.69,1293.16 1248.23,1293.01 1266.77,1292.87 1285.31,1292.72 1303.85,1292.59 1322.39,1292.45 1340.93,1292.32 1359.47,1292.2 1378.01,1292.08 
  1396.55,1291.96 1415.09,1291.84 1433.63,1291.73 1452.17,1291.62 1470.71,1291.51 1489.25,1291.41 1507.79,1291.3 1526.33,1291.21 1544.87,1291.11 1563.41,1291.01 
  1581.95,1290.92 1600.49,1290.83 1619.03,1290.74 1637.57,1290.66 1656.11,1290.57 1674.65,1290.49 1693.19,1290.41 1711.73,1290.33 1730.27,1290.26 1748.81,1290.18 
  1767.35,1290.11 1785.89,1290.03 1804.43,1289.96 1822.97,1289.89 1841.51,1289.83 1860.06,1289.76 1878.6,1289.7 1897.14,1289.63 1915.68,1289.57 1934.22,1289.51 
  1952.76,1289.45 
  "/>
<polyline clip-path="url(#clip812)" style="stroke:#3da44d; stroke-width:4; stroke-opacity:1; fill:none" points="
  98.7402,831.674 117.28,784.609 135.82,860.594 154.361,920.511 172.901,966.119 191.441,1001.63 209.981,1029.98 228.521,1053.13 247.061,1072.38 265.602,1088.64 
  284.142,1102.57 302.682,1114.63 321.222,1125.17 339.762,1134.47 358.302,1142.73 376.843,1150.11 395.383,1156.76 413.923,1162.78 432.463,1168.24 451.003,1173.24 
  469.543,1177.81 488.083,1182.02 506.624,1185.9 525.164,1189.5 543.704,1192.84 562.244,1195.95 580.784,1198.86 599.324,1201.57 617.865,1204.12 636.405,1206.51 
  654.945,1208.76 673.485,1210.89 692.025,1212.89 710.565,1214.79 729.106,1216.59 747.646,1218.29 766.186,1219.91 784.726,1221.45 803.266,1222.92 821.806,1224.32 
  840.346,1225.66 858.887,1226.94 877.427,1228.16 895.967,1229.33 914.507,1230.45 933.047,1231.52 951.587,1232.56 970.128,1233.55 988.668,1234.5 1007.21,1235.42 
  1025.75,1236.3 1044.29,1237.16 1062.83,1237.98 1081.37,1238.77 1099.91,1239.54 1118.45,1240.27 1136.99,1240.99 1155.53,1241.68 1174.07,1242.35 1192.61,1243 
  1211.15,1243.63 1229.69,1244.24 1248.23,1244.83 1266.77,1245.4 1285.31,1245.95 1303.85,1246.49 1322.39,1247.02 1340.93,1247.53 1359.47,1248.02 1378.01,1248.5 
  1396.55,1248.97 1415.09,1249.43 1433.63,1249.87 1452.17,1250.31 1470.71,1250.73 1489.25,1251.14 1507.79,1251.54 1526.33,1251.93 1544.87,1252.31 1563.41,1252.68 
  1581.95,1253.05 1600.49,1253.4 1619.03,1253.75 1637.57,1254.09 1656.11,1254.42 1674.65,1254.74 1693.19,1255.06 1711.73,1255.37 1730.27,1255.67 1748.81,1255.97 
  1767.35,1256.26 1785.89,1256.54 1804.43,1256.82 1822.97,1257.09 1841.51,1257.36 1860.06,1257.62 1878.6,1257.87 1897.14,1258.13 1915.68,1258.37 1934.22,1258.61 
  1952.76,1258.85 
  "/>
<polyline clip-path="url(#clip812)" style="stroke:#c271d2; stroke-width:4; stroke-opacity:1; fill:none" points="
  98.7402,1252.19 117.28,1298.92 135.82,1319.61 154.361,1325.35 172.901,1326.09 191.441,1325.01 209.981,1323.25 228.521,1321.3 247.061,1319.34 265.602,1317.48 
  284.142,1315.74 302.682,1314.13 321.222,1312.64 339.762,1311.27 358.302,1310.01 376.843,1308.85 395.383,1307.78 413.923,1306.79 432.463,1305.87 451.003,1305.02 
  469.543,1304.23 488.083,1303.49 506.624,1302.8 525.164,1302.16 543.704,1301.55 562.244,1300.99 580.784,1300.45 599.324,1299.95 617.865,1299.47 636.405,1299.02 
  654.945,1298.6 673.485,1298.19 692.025,1297.81 710.565,1297.45 729.106,1297.1 747.646,1296.77 766.186,1296.45 784.726,1296.15 803.266,1295.87 821.806,1295.59 
  840.346,1295.33 858.887,1295.07 877.427,1294.83 895.967,1294.6 914.507,1294.38 933.047,1294.16 951.587,1293.95 970.128,1293.76 988.668,1293.56 1007.21,1293.38 
  1025.75,1293.2 1044.29,1293.03 1062.83,1292.86 1081.37,1292.7 1099.91,1292.54 1118.45,1292.39 1136.99,1292.25 1155.53,1292.11 1174.07,1291.97 1192.61,1291.84 
  1211.15,1291.71 1229.69,1291.58 1248.23,1291.46 1266.77,1291.34 1285.31,1291.23 1303.85,1291.12 1322.39,1291.01 1340.93,1290.91 1359.47,1290.8 1378.01,1290.7 
  1396.55,1290.61 1415.09,1290.51 1433.63,1290.42 1452.17,1290.33 1470.71,1290.24 1489.25,1290.15 1507.79,1290.07 1526.33,1289.99 1544.87,1289.91 1563.41,1289.83 
  1581.95,1289.76 1600.49,1289.68 1619.03,1289.61 1637.57,1289.54 1656.11,1289.47 1674.65,1289.4 1693.19,1289.33 1711.73,1289.27 1730.27,1289.21 1748.81,1289.14 
  1767.35,1289.08 1785.89,1289.02 1804.43,1288.96 1822.97,1288.91 1841.51,1288.85 1860.06,1288.8 1878.6,1288.74 1897.14,1288.69 1915.68,1288.64 1934.22,1288.59 
  1952.76,1288.54 
  "/>
<polyline clip-path="url(#clip812)" style="stroke:#ac8d18; stroke-width:4; stroke-opacity:1; fill:none" points="
  98.7402,830.012 117.28,1087.17 135.82,1164.09 154.361,1204.83 172.901,1229.05 191.441,1244.54 209.981,1254.99 228.521,1262.31 247.061,1267.62 265.602,1271.55 
  284.142,1274.53 302.682,1276.83 321.222,1278.63 339.762,1280.05 358.302,1281.19 376.843,1282.1 395.383,1282.85 413.923,1283.45 432.463,1283.95 451.003,1284.37 
  469.543,1284.71 488.083,1284.99 506.624,1285.23 525.164,1285.42 543.704,1285.58 562.244,1285.72 580.784,1285.83 599.324,1285.92 617.865,1286 636.405,1286.06 
  654.945,1286.11 673.485,1286.15 692.025,1286.18 710.565,1286.2 729.106,1286.22 747.646,1286.23 766.186,1286.23 784.726,1286.24 803.266,1286.23 821.806,1286.23 
  840.346,1286.22 858.887,1286.21 877.427,1286.2 895.967,1286.18 914.507,1286.17 933.047,1286.15 951.587,1286.14 970.128,1286.12 988.668,1286.1 1007.21,1286.08 
  1025.75,1286.06 1044.29,1286.04 1062.83,1286.02 1081.37,1286 1099.91,1285.97 1118.45,1285.95 1136.99,1285.93 1155.53,1285.91 1174.07,1285.89 1192.61,1285.87 
  1211.15,1285.84 1229.69,1285.82 1248.23,1285.8 1266.77,1285.78 1285.31,1285.76 1303.85,1285.74 1322.39,1285.72 1340.93,1285.69 1359.47,1285.67 1378.01,1285.65 
  1396.55,1285.63 1415.09,1285.61 1433.63,1285.59 1452.17,1285.57 1470.71,1285.56 1489.25,1285.54 1507.79,1285.52 1526.33,1285.5 1544.87,1285.48 1563.41,1285.46 
  1581.95,1285.44 1600.49,1285.43 1619.03,1285.41 1637.57,1285.39 1656.11,1285.38 1674.65,1285.36 1693.19,1285.34 1711.73,1285.33 1730.27,1285.31 1748.81,1285.29 
  1767.35,1285.28 1785.89,1285.26 1804.43,1285.25 1822.97,1285.23 1841.51,1285.22 1860.06,1285.2 1878.6,1285.19 1897.14,1285.17 1915.68,1285.16 1934.22,1285.15 
  1952.76,1285.13 
  "/>
<path clip-path="url(#clip810)" d="
M815.178 471.925 L1890.96 471.925 L1890.96 109.045 L815.178 109.045  Z
  " fill="#ffffff" fill-rule="evenodd" fill-opacity="1"/>
<polyline clip-path="url(#clip810)" style="stroke:#000000; stroke-width:4; stroke-opacity:1; fill:none" points="
  815.178,471.925 1890.96,471.925 1890.96,109.045 815.178,109.045 815.178,471.925 
  "/>
<polyline clip-path="url(#clip810)" style="stroke:#009af9; stroke-width:4; stroke-opacity:1; fill:none" points="
  835.778,169.525 959.379,169.525 
  "/>
<g clip-path="url(#clip810)">
<text style="fill:#000000; fill-opacity:1; font-family:Arial,Helvetica Neue,Helvetica,sans-serif; font-size:48px; text-anchor:start;" transform="rotate(0, 979.979, 187.025)" x="979.979" y="187.025">警察への年間資金                                                 </text>
</g>
<polyline clip-path="url(#clip810)" style="stroke:#e26f46; stroke-width:4; stroke-opacity:1; fill:none" points="
  835.778,230.005 959.379,230.005 
  "/>
<g clip-path="url(#clip810)">
<text style="fill:#000000; fill-opacity:1; font-family:Arial,Helvetica Neue,Helvetica,sans-serif; font-size:48px; text-anchor:start;" transform="rotate(0, 979.979, 247.505)" x="979.979" y="247.505">25歳以上で高校を卒業した人の割合</text>
</g>
<polyline clip-path="url(#clip810)" style="stroke:#3da44d; stroke-width:4; stroke-opacity:1; fill:none" points="
  835.778,290.485 959.379,290.485 
  "/>
<g clip-path="url(#clip810)">
<text style="fill:#000000; fill-opacity:1; font-family:Arial,Helvetica Neue,Helvetica,sans-serif; font-size:48px; text-anchor:start;" transform="rotate(0, 979.979, 307.985)" x="979.979" y="307.985">16-19歳で高校に通っていない人の割合</text>
</g>
<polyline clip-path="url(#clip810)" style="stroke:#c271d2; stroke-width:4; stroke-opacity:1; fill:none" points="
  835.778,350.965 959.379,350.965 
  "/>
<g clip-path="url(#clip810)">
<text style="fill:#000000; fill-opacity:1; font-family:Arial,Helvetica Neue,Helvetica,sans-serif; font-size:48px; text-anchor:start;" transform="rotate(0, 979.979, 368.465)" x="979.979" y="368.465">18-24歳で大学生の割合</text>
</g>
<polyline clip-path="url(#clip810)" style="stroke:#ac8d18; stroke-width:4; stroke-opacity:1; fill:none" points="
  835.778,411.445 959.379,411.445 
  "/>
<g clip-path="url(#clip810)">
<text style="fill:#000000; fill-opacity:1; font-family:Arial,Helvetica Neue,Helvetica,sans-serif; font-size:48px; text-anchor:start;" transform="rotate(0, 979.979, 428.945)" x="979.979" y="428.945">25歳以上で４年制大学を卒業した人の割合</text>
</g>
</svg>
