<?xml version="1.0" encoding="utf-8"?>
<svg xmlns="http://www.w3.org/2000/svg" xmlns:xlink="http://www.w3.org/1999/xlink" width="500" height="500" viewBox="0 0 2000 2000">
<defs>
  <clipPath id="clip040">
    <rect x="0" y="0" width="2000" height="2000"/>
  </clipPath>
</defs>
<path clip-path="url(#clip040)" d="
M0 2000 L2000 2000 L2000 0 L0 0  Z
  " fill="#ffffff" fill-rule="evenodd" fill-opacity="1"/>
<defs>
  <clipPath id="clip041">
    <rect x="400" y="200" width="1401" height="1401"/>
  </clipPath>
</defs>
<path clip-path="url(#clip040)" d="
M202.992 1797.01 L1952.76 1797.01 L1952.76 47.2441 L202.992 47.2441  Z
  " fill="#ffffff" fill-rule="evenodd" fill-opacity="1"/>
<defs>
  <clipPath id="clip042">
    <rect x="202" y="47" width="1751" height="1751"/>
  </clipPath>
</defs>
<polyline clip-path="url(#clip042)" style="stroke:#000000; stroke-width:2; stroke-opacity:0.1; fill:none" points="
  202.992,1797.01 202.992,47.2441 
  "/>
<polyline clip-path="url(#clip042)" style="stroke:#000000; stroke-width:2; stroke-opacity:0.1; fill:none" points="
  640.433,1797.01 640.433,47.2441 
  "/>
<polyline clip-path="url(#clip042)" style="stroke:#000000; stroke-width:2; stroke-opacity:0.1; fill:none" points="
  1077.87,1797.01 1077.87,47.2441 
  "/>
<polyline clip-path="url(#clip042)" style="stroke:#000000; stroke-width:2; stroke-opacity:0.1; fill:none" points="
  1515.31,1797.01 1515.31,47.2441 
  "/>
<polyline clip-path="url(#clip042)" style="stroke:#000000; stroke-width:2; stroke-opacity:0.1; fill:none" points="
  1952.76,1797.01 1952.76,47.2441 
  "/>
<polyline clip-path="url(#clip040)" style="stroke:#000000; stroke-width:4; stroke-opacity:1; fill:none" points="
  202.992,1797.01 1952.76,1797.01 
  "/>
<polyline clip-path="url(#clip040)" style="stroke:#000000; stroke-width:4; stroke-opacity:1; fill:none" points="
  202.992,1797.01 202.992,1776.01 
  "/>
<polyline clip-path="url(#clip040)" style="stroke:#000000; stroke-width:4; stroke-opacity:1; fill:none" points="
  640.433,1797.01 640.433,1776.01 
  "/>
<polyline clip-path="url(#clip040)" style="stroke:#000000; stroke-width:4; stroke-opacity:1; fill:none" points="
  1077.87,1797.01 1077.87,1776.01 
  "/>
<polyline clip-path="url(#clip040)" style="stroke:#000000; stroke-width:4; stroke-opacity:1; fill:none" points="
  1515.31,1797.01 1515.31,1776.01 
  "/>
<polyline clip-path="url(#clip040)" style="stroke:#000000; stroke-width:4; stroke-opacity:1; fill:none" points="
  1952.76,1797.01 1952.76,1776.01 
  "/>
<g clip-path="url(#clip040)">
<text style="fill:#000000; fill-opacity:1; font-family:Arial,Helvetica Neue,Helvetica,sans-serif; font-size:48px; text-anchor:middle;" transform="rotate(0, 202.992, 1855.01)" x="202.992" y="1855.01">0</text>
</g>
<g clip-path="url(#clip040)">
<text style="fill:#000000; fill-opacity:1; font-family:Arial,Helvetica Neue,Helvetica,sans-serif; font-size:48px; text-anchor:middle;" transform="rotate(0, 640.433, 1855.01)" x="640.433" y="1855.01">50</text>
</g>
<g clip-path="url(#clip040)">
<text style="fill:#000000; fill-opacity:1; font-family:Arial,Helvetica Neue,Helvetica,sans-serif; font-size:48px; text-anchor:middle;" transform="rotate(0, 1077.87, 1855.01)" x="1077.87" y="1855.01">100</text>
</g>
<g clip-path="url(#clip040)">
<text style="fill:#000000; fill-opacity:1; font-family:Arial,Helvetica Neue,Helvetica,sans-serif; font-size:48px; text-anchor:middle;" transform="rotate(0, 1515.31, 1855.01)" x="1515.31" y="1855.01">150</text>
</g>
<g clip-path="url(#clip040)">
<text style="fill:#000000; fill-opacity:1; font-family:Arial,Helvetica Neue,Helvetica,sans-serif; font-size:48px; text-anchor:middle;" transform="rotate(0, 1952.76, 1855.01)" x="1952.76" y="1855.01">200</text>
</g>
<g clip-path="url(#clip040)">
<text style="fill:#000000; fill-opacity:1; font-family:Arial,Helvetica Neue,Helvetica,sans-serif; font-size:66px; text-anchor:middle;" transform="rotate(0, 1077.87, 1926.87)" x="1077.87" y="1926.87">λ</text>
</g>
<polyline clip-path="url(#clip042)" style="stroke:#000000; stroke-width:2; stroke-opacity:0.1; fill:none" points="
  202.992,1602.59 1952.76,1602.59 
  "/>
<polyline clip-path="url(#clip042)" style="stroke:#000000; stroke-width:2; stroke-opacity:0.1; fill:none" points="
  202.992,1213.75 1952.76,1213.75 
  "/>
<polyline clip-path="url(#clip042)" style="stroke:#000000; stroke-width:2; stroke-opacity:0.1; fill:none" points="
  202.992,824.917 1952.76,824.917 
  "/>
<polyline clip-path="url(#clip042)" style="stroke:#000000; stroke-width:2; stroke-opacity:0.1; fill:none" points="
  202.992,436.08 1952.76,436.08 
  "/>
<polyline clip-path="url(#clip042)" style="stroke:#000000; stroke-width:2; stroke-opacity:0.1; fill:none" points="
  202.992,47.2441 1952.76,47.2441 
  "/>
<polyline clip-path="url(#clip040)" style="stroke:#000000; stroke-width:4; stroke-opacity:1; fill:none" points="
  202.992,1797.01 202.992,47.2441 
  "/>
<polyline clip-path="url(#clip040)" style="stroke:#000000; stroke-width:4; stroke-opacity:1; fill:none" points="
  202.992,1602.59 223.989,1602.59 
  "/>
<polyline clip-path="url(#clip040)" style="stroke:#000000; stroke-width:4; stroke-opacity:1; fill:none" points="
  202.992,1213.75 223.989,1213.75 
  "/>
<polyline clip-path="url(#clip040)" style="stroke:#000000; stroke-width:4; stroke-opacity:1; fill:none" points="
  202.992,824.917 223.989,824.917 
  "/>
<polyline clip-path="url(#clip040)" style="stroke:#000000; stroke-width:4; stroke-opacity:1; fill:none" points="
  202.992,436.08 223.989,436.08 
  "/>
<polyline clip-path="url(#clip040)" style="stroke:#000000; stroke-width:4; stroke-opacity:1; fill:none" points="
  202.992,47.2441 223.989,47.2441 
  "/>
<g clip-path="url(#clip040)">
<text style="fill:#000000; fill-opacity:1; font-family:Arial,Helvetica Neue,Helvetica,sans-serif; font-size:48px; text-anchor:end;" transform="rotate(0, 172.992, 1620.09)" x="172.992" y="1620.09">−5</text>
</g>
<g clip-path="url(#clip040)">
<text style="fill:#000000; fill-opacity:1; font-family:Arial,Helvetica Neue,Helvetica,sans-serif; font-size:48px; text-anchor:end;" transform="rotate(0, 172.992, 1231.25)" x="172.992" y="1231.25">0</text>
</g>
<g clip-path="url(#clip040)">
<text style="fill:#000000; fill-opacity:1; font-family:Arial,Helvetica Neue,Helvetica,sans-serif; font-size:48px; text-anchor:end;" transform="rotate(0, 172.992, 842.417)" x="172.992" y="842.417">5</text>
</g>
<g clip-path="url(#clip040)">
<text style="fill:#000000; fill-opacity:1; font-family:Arial,Helvetica Neue,Helvetica,sans-serif; font-size:48px; text-anchor:end;" transform="rotate(0, 172.992, 453.58)" x="172.992" y="453.58">10</text>
</g>
<g clip-path="url(#clip040)">
<text style="fill:#000000; fill-opacity:1; font-family:Arial,Helvetica Neue,Helvetica,sans-serif; font-size:48px; text-anchor:end;" transform="rotate(0, 172.992, 64.7441)" x="172.992" y="64.7441">15</text>
</g>
<g clip-path="url(#clip040)">
<text style="fill:#000000; fill-opacity:1; font-family:Arial,Helvetica Neue,Helvetica,sans-serif; font-size:66px; text-anchor:middle;" transform="rotate(-90, 97.9053, 922.126)" x="97.9053" y="922.126">β</text>
</g>
<polyline clip-path="url(#clip042)" style="stroke:#009af9; stroke-width:4; stroke-opacity:1; fill:none" points="
  202.992,330.835 207.367,334.834 211.741,338.833 216.115,342.832 220.49,346.831 224.864,350.83 229.239,354.828 233.613,358.827 237.987,362.826 242.362,366.825 
  246.736,370.824 251.111,374.823 255.485,378.821 259.859,382.82 264.234,386.819 268.608,390.37 272.983,392.887 277.357,395.404 281.731,397.921 286.106,400.439 
  290.48,402.956 294.855,405.473 299.229,407.99 303.604,410.507 307.978,413.22 312.352,416.313 316.727,419.406 321.101,422.499 325.476,425.592 329.85,428.684 
  334.224,431.777 338.599,434.87 342.973,437.963 347.348,441.056 351.722,444.149 356.096,447.242 360.471,450.335 364.845,453.428 369.22,456.521 373.594,459.614 
  377.969,462.707 382.343,465.8 386.717,468.893 391.092,471.985 395.466,475.078 399.841,478.171 404.215,481.264 408.589,484.357 412.964,487.45 417.338,490.543 
  421.713,493.636 426.087,496.729 430.461,499.822 434.836,502.915 439.21,506.008 443.585,509.101 447.959,512.193 452.333,515.286 456.708,518.379 461.082,521.472 
  465.457,524.565 469.831,527.658 474.206,530.751 478.58,533.844 482.954,536.937 487.329,540.03 491.703,543.123 496.078,546.216 500.452,549.309 504.826,552.402 
  509.201,555.494 513.575,558.587 517.95,561.68 522.324,564.773 526.698,567.866 531.073,570.959 535.447,574.052 539.822,577.145 544.196,580.238 548.57,583.331 
  552.945,586.424 557.319,589.517 561.694,592.61 566.068,595.702 570.443,598.795 574.817,601.888 579.191,604.981 583.566,608.074 587.94,611.167 592.315,614.26 
  596.689,617.353 601.063,620.446 605.438,623.539 609.812,626.632 614.187,629.725 618.561,632.818 622.935,635.911 627.31,639.003 631.684,642.096 636.059,645.189 
  640.433,648.282 644.807,651.375 649.182,654.468 653.556,656.86 657.931,659.077 662.305,661.294 666.68,663.511 671.054,665.728 675.428,667.944 679.803,670.161 
  684.177,672.378 688.552,674.595 692.926,676.811 697.3,679.028 701.675,681.245 706.049,683.462 710.424,685.679 714.798,687.895 719.172,690.112 723.547,692.329 
  727.921,694.546 732.296,696.763 736.67,698.979 741.044,701.196 745.419,703.413 749.793,705.63 754.168,707.846 758.542,710.063 762.917,712.28 767.291,714.497 
  771.665,716.714 776.04,718.93 780.414,721.147 784.789,723.681 789.163,726.494 793.537,729.308 797.912,732.121 802.286,734.935 806.661,737.748 811.035,740.562 
  815.409,743.375 819.784,746.189 824.158,749.002 828.533,751.816 832.907,754.629 837.281,757.443 841.656,760.256 846.03,763.07 850.405,765.883 854.779,768.697 
  859.154,771.51 863.528,774.324 867.902,777.137 872.277,779.951 876.651,782.764 881.026,785.578 885.4,788.391 889.774,791.205 894.149,794.018 898.523,796.832 
  902.898,799.645 907.272,802.459 911.646,805.272 916.021,808.086 920.395,810.899 924.77,813.713 929.144,816.526 933.519,819.34 937.893,822.153 942.267,824.967 
  946.642,827.78 951.016,830.594 955.391,833.407 959.765,836.221 964.139,839.034 968.514,841.848 972.888,844.661 977.263,847.475 981.637,850.288 986.011,853.102 
  990.386,855.915 994.76,858.729 999.135,861.542 1003.51,864.356 1007.88,867.169 1012.26,869.983 1016.63,872.796 1021.01,875.61 1025.38,878.423 1029.76,881.237 
  1034.13,884.05 1038.5,886.864 1042.88,889.677 1047.25,892.491 1051.63,895.304 1056,898.118 1060.38,900.931 1064.75,903.745 1069.13,906.558 1073.5,909.372 
  1077.87,912.185 1082.25,914.999 1086.62,917.812 1091,920.626 1095.37,923.439 1099.75,926.253 1104.12,929.066 1108.49,931.88 1112.87,934.693 1117.24,937.507 
  1121.62,940.32 1125.99,943.134 1130.37,945.947 1134.74,948.761 1139.12,951.574 1143.49,954.388 1147.86,957.201 1152.24,960.015 1156.61,962.828 1160.99,965.642 
  1165.36,968.455 1169.74,971.269 1174.11,974.082 1178.49,976.896 1182.86,979.709 1187.23,982.523 1191.61,985.336 1195.98,988.15 1200.36,990.963 1204.73,993.777 
  1209.11,996.59 1213.48,999.404 1217.86,1002.22 1222.23,1005.03 1226.6,1007.84 1230.98,1010.66 1235.35,1013.47 1239.73,1016.29 1244.1,1019.1 1248.48,1021.91 
  1252.85,1024.73 1257.22,1027.54 1261.6,1030.35 1265.97,1033.17 1270.35,1035.98 1274.72,1038.79 1279.1,1041.61 1283.47,1044.42 1287.85,1047.23 1292.22,1050.05 
  1296.59,1052.86 1300.97,1055.67 1305.34,1058.49 1309.72,1061.3 1314.09,1064.11 1318.47,1066.93 1322.84,1069.74 1327.22,1072.56 1331.59,1075.37 1335.96,1078.18 
  1340.34,1081 1344.71,1083.81 1349.09,1086.62 1353.46,1089.44 1357.84,1092.25 1362.21,1095.06 1366.59,1097.88 1370.96,1100.69 1375.33,1103.5 1379.71,1106.32 
  1384.08,1109.13 1388.46,1111.94 1392.83,1114.76 1397.21,1117.57 1401.58,1120.38 1405.95,1123.2 1410.33,1126.01 1414.7,1128.83 1419.08,1131.64 1423.45,1134.45 
  1427.83,1137.27 1432.2,1140.08 1436.58,1142.89 1440.95,1145.71 1445.32,1148.52 1449.7,1151.33 1454.07,1154.15 1458.45,1156.96 1462.82,1159.77 1467.2,1162.59 
  1471.57,1165.4 1475.95,1168.21 1480.32,1171.03 1484.69,1173.84 1489.07,1176.65 1493.44,1179.47 1497.82,1182.28 1502.19,1185.1 1506.57,1187.91 1510.94,1190.72 
  1515.31,1193.54 1519.69,1196.35 1524.06,1199.16 1528.44,1201.98 1532.81,1204.79 1537.19,1207.6 1541.56,1210.42 1545.94,1213.23 1550.31,1213.75 1554.68,1213.75 
  1559.06,1213.75 1563.43,1213.75 1567.81,1213.75 1572.18,1213.75 1576.56,1213.75 1580.93,1213.75 1585.31,1213.75 1589.68,1213.75 1594.05,1213.75 1598.43,1213.75 
  1602.8,1213.75 1607.18,1213.75 1611.55,1213.75 1615.93,1213.75 1620.3,1213.75 1624.68,1213.75 1629.05,1213.75 1633.42,1213.75 1637.8,1213.75 1642.17,1213.75 
  1646.55,1213.75 1650.92,1213.75 1655.3,1213.75 1659.67,1213.75 1664.04,1213.75 1668.42,1213.75 1672.79,1213.75 1677.17,1213.75 1681.54,1213.75 1685.92,1213.75 
  1690.29,1213.75 1694.67,1213.75 1699.04,1213.75 1703.41,1213.75 1707.79,1213.75 1712.16,1213.75 1716.54,1213.75 1720.91,1213.75 1725.29,1213.75 1729.66,1213.75 
  1734.04,1213.75 1738.41,1213.75 1742.78,1213.75 1747.16,1213.75 1751.53,1213.75 1755.91,1213.75 1760.28,1213.75 1764.66,1213.75 1769.03,1213.75 1773.41,1213.75 
  1777.78,1213.75 1782.15,1213.75 1786.53,1213.75 1790.9,1213.75 1795.28,1213.75 1799.65,1213.75 1804.03,1213.75 1808.4,1213.75 1812.77,1213.75 1817.15,1213.75 
  1821.52,1213.75 1825.9,1213.75 1830.27,1213.75 1834.65,1213.75 1839.02,1213.75 1843.4,1213.75 1847.77,1213.75 1852.14,1213.75 1856.52,1213.75 1860.89,1213.75 
  1865.27,1213.75 1869.64,1213.75 1874.02,1213.75 1878.39,1213.75 1882.77,1213.75 1887.14,1213.75 1891.51,1213.75 1895.89,1213.75 1900.26,1213.75 1904.64,1213.75 
  1909.01,1213.75 1913.39,1213.75 1917.76,1213.75 1922.14,1213.75 1926.51,1213.75 1930.88,1213.75 1935.26,1213.75 1939.63,1213.75 1944.01,1213.75 1948.38,1213.75 
  1952.76,1213.75 
  "/>
<polyline clip-path="url(#clip042)" style="stroke:#e26f46; stroke-width:4; stroke-opacity:1; fill:none" points="
  202.992,1682.09 207.367,1674.64 211.741,1667.18 216.115,1659.72 220.49,1652.26 224.864,1644.81 229.239,1637.35 233.613,1629.89 237.987,1622.44 242.362,1614.98 
  246.736,1607.52 251.111,1600.06 255.485,1592.61 259.859,1585.15 264.234,1577.69 268.608,1569.93 272.983,1561.47 277.357,1553 281.731,1544.54 286.106,1536.07 
  290.48,1527.61 294.855,1519.15 299.229,1510.68 303.604,1502.22 307.978,1495.21 312.352,1491.02 316.727,1486.83 321.101,1482.64 325.476,1478.45 329.85,1474.26 
  334.224,1470.07 338.599,1465.88 342.973,1461.7 347.348,1457.51 351.722,1453.32 356.096,1449.13 360.471,1444.94 364.845,1440.75 369.22,1436.56 373.594,1432.37 
  377.969,1428.18 382.343,1423.99 386.717,1419.8 391.092,1415.61 395.466,1411.42 399.841,1407.23 404.215,1403.05 408.589,1398.86 412.964,1394.67 417.338,1390.48 
  421.713,1386.29 426.087,1382.1 430.461,1377.91 434.836,1373.72 439.21,1369.53 443.585,1365.34 447.959,1361.15 452.333,1356.96 456.708,1352.77 461.082,1348.59 
  465.457,1344.4 469.831,1340.21 474.206,1336.02 478.58,1331.83 482.954,1327.64 487.329,1323.45 491.703,1319.26 496.078,1315.07 500.452,1310.88 504.826,1306.69 
  509.201,1302.5 513.575,1298.31 517.95,1294.13 522.324,1289.94 526.698,1285.75 531.073,1281.56 535.447,1277.37 539.822,1273.18 544.196,1268.99 548.57,1264.8 
  552.945,1260.61 557.319,1256.42 561.694,1252.23 566.068,1248.04 570.443,1243.85 574.817,1239.66 579.191,1235.48 583.566,1231.29 587.94,1227.1 592.315,1222.91 
  596.689,1218.72 601.063,1214.53 605.438,1213.75 609.812,1213.75 614.187,1213.75 618.561,1213.75 622.935,1213.75 627.31,1213.75 631.684,1213.75 636.059,1213.75 
  640.433,1213.75 644.807,1213.75 649.182,1213.75 653.556,1213.75 657.931,1213.75 662.305,1213.75 666.68,1213.75 671.054,1213.75 675.428,1213.75 679.803,1213.75 
  684.177,1213.75 688.552,1213.75 692.926,1213.75 697.3,1213.75 701.675,1213.75 706.049,1213.75 710.424,1213.75 714.798,1213.75 719.172,1213.75 723.547,1213.75 
  727.921,1213.75 732.296,1213.75 736.67,1213.75 741.044,1213.75 745.419,1213.75 749.793,1213.75 754.168,1213.75 758.542,1213.75 762.917,1213.75 767.291,1213.75 
  771.665,1213.75 776.04,1213.75 780.414,1213.75 784.789,1213.75 789.163,1213.75 793.537,1213.75 797.912,1213.75 802.286,1213.75 806.661,1213.75 811.035,1213.75 
  815.409,1213.75 819.784,1213.75 824.158,1213.75 828.533,1213.75 832.907,1213.75 837.281,1213.75 841.656,1213.75 846.03,1213.75 850.405,1213.75 854.779,1213.75 
  859.154,1213.75 863.528,1213.75 867.902,1213.75 872.277,1213.75 876.651,1213.75 881.026,1213.75 885.4,1213.75 889.774,1213.75 894.149,1213.75 898.523,1213.75 
  902.898,1213.75 907.272,1213.75 911.646,1213.75 916.021,1213.75 920.395,1213.75 924.77,1213.75 929.144,1213.75 933.519,1213.75 937.893,1213.75 942.267,1213.75 
  946.642,1213.75 951.016,1213.75 955.391,1213.75 959.765,1213.75 964.139,1213.75 968.514,1213.75 972.888,1213.75 977.263,1213.75 981.637,1213.75 986.011,1213.75 
  990.386,1213.75 994.76,1213.75 999.135,1213.75 1003.51,1213.75 1007.88,1213.75 1012.26,1213.75 1016.63,1213.75 1021.01,1213.75 1025.38,1213.75 1029.76,1213.75 
  1034.13,1213.75 1038.5,1213.75 1042.88,1213.75 1047.25,1213.75 1051.63,1213.75 1056,1213.75 1060.38,1213.75 1064.75,1213.75 1069.13,1213.75 1073.5,1213.75 
  1077.87,1213.75 1082.25,1213.75 1086.62,1213.75 1091,1213.75 1095.37,1213.75 1099.75,1213.75 1104.12,1213.75 1108.49,1213.75 1112.87,1213.75 1117.24,1213.75 
  1121.62,1213.75 1125.99,1213.75 1130.37,1213.75 1134.74,1213.75 1139.12,1213.75 1143.49,1213.75 1147.86,1213.75 1152.24,1213.75 1156.61,1213.75 1160.99,1213.75 
  1165.36,1213.75 1169.74,1213.75 1174.11,1213.75 1178.49,1213.75 1182.86,1213.75 1187.23,1213.75 1191.61,1213.75 1195.98,1213.75 1200.36,1213.75 1204.73,1213.75 
  1209.11,1213.75 1213.48,1213.75 1217.86,1213.75 1222.23,1213.75 1226.6,1213.75 1230.98,1213.75 1235.35,1213.75 1239.73,1213.75 1244.1,1213.75 1248.48,1213.75 
  1252.85,1213.75 1257.22,1213.75 1261.6,1213.75 1265.97,1213.75 1270.35,1213.75 1274.72,1213.75 1279.1,1213.75 1283.47,1213.75 1287.85,1213.75 1292.22,1213.75 
  1296.59,1213.75 1300.97,1213.75 1305.34,1213.75 1309.72,1213.75 1314.09,1213.75 1318.47,1213.75 1322.84,1213.75 1327.22,1213.75 1331.59,1213.75 1335.96,1213.75 
  1340.34,1213.75 1344.71,1213.75 1349.09,1213.75 1353.46,1213.75 1357.84,1213.75 1362.21,1213.75 1366.59,1213.75 1370.96,1213.75 1375.33,1213.75 1379.71,1213.75 
  1384.08,1213.75 1388.46,1213.75 1392.83,1213.75 1397.21,1213.75 1401.58,1213.75 1405.95,1213.75 1410.33,1213.75 1414.7,1213.75 1419.08,1213.75 1423.45,1213.75 
  1427.83,1213.75 1432.2,1213.75 1436.58,1213.75 1440.95,1213.75 1445.32,1213.75 1449.7,1213.75 1454.07,1213.75 1458.45,1213.75 1462.82,1213.75 1467.2,1213.75 
  1471.57,1213.75 1475.95,1213.75 1480.32,1213.75 1484.69,1213.75 1489.07,1213.75 1493.44,1213.75 1497.82,1213.75 1502.19,1213.75 1506.57,1213.75 1510.94,1213.75 
  1515.31,1213.75 1519.69,1213.75 1524.06,1213.75 1528.44,1213.75 1532.81,1213.75 1537.19,1213.75 1541.56,1213.75 1545.94,1213.75 1550.31,1213.75 1554.68,1213.75 
  1559.06,1213.75 1563.43,1213.75 1567.81,1213.75 1572.18,1213.75 1576.56,1213.75 1580.93,1213.75 1585.31,1213.75 1589.68,1213.75 1594.05,1213.75 1598.43,1213.75 
  1602.8,1213.75 1607.18,1213.75 1611.55,1213.75 1615.93,1213.75 1620.3,1213.75 1624.68,1213.75 1629.05,1213.75 1633.42,1213.75 1637.8,1213.75 1642.17,1213.75 
  1646.55,1213.75 1650.92,1213.75 1655.3,1213.75 1659.67,1213.75 1664.04,1213.75 1668.42,1213.75 1672.79,1213.75 1677.17,1213.75 1681.54,1213.75 1685.92,1213.75 
  1690.29,1213.75 1694.67,1213.75 1699.04,1213.75 1703.41,1213.75 1707.79,1213.75 1712.16,1213.75 1716.54,1213.75 1720.91,1213.75 1725.29,1213.75 1729.66,1213.75 
  1734.04,1213.75 1738.41,1213.75 1742.78,1213.75 1747.16,1213.75 1751.53,1213.75 1755.91,1213.75 1760.28,1213.75 1764.66,1213.75 1769.03,1213.75 1773.41,1213.75 
  1777.78,1213.75 1782.15,1213.75 1786.53,1213.75 1790.9,1213.75 1795.28,1213.75 1799.65,1213.75 1804.03,1213.75 1808.4,1213.75 1812.77,1213.75 1817.15,1213.75 
  1821.52,1213.75 1825.9,1213.75 1830.27,1213.75 1834.65,1213.75 1839.02,1213.75 1843.4,1213.75 1847.77,1213.75 1852.14,1213.75 1856.52,1213.75 1860.89,1213.75 
  1865.27,1213.75 1869.64,1213.75 1874.02,1213.75 1878.39,1213.75 1882.77,1213.75 1887.14,1213.75 1891.51,1213.75 1895.89,1213.75 1900.26,1213.75 1904.64,1213.75 
  1909.01,1213.75 1913.39,1213.75 1917.76,1213.75 1922.14,1213.75 1926.51,1213.75 1930.88,1213.75 1935.26,1213.75 1939.63,1213.75 1944.01,1213.75 1948.38,1213.75 
  1952.76,1213.75 
  "/>
<polyline clip-path="url(#clip042)" style="stroke:#3da44d; stroke-width:4; stroke-opacity:1; fill:none" points="
  202.992,864.584 207.367,870.396 211.741,876.209 216.115,882.021 220.49,887.834 224.864,893.646 229.239,899.459 233.613,905.271 237.987,911.084 242.362,916.896 
  246.736,922.709 251.111,928.521 255.485,934.334 259.859,940.146 264.234,945.959 268.608,950.854 272.983,953.629 277.357,956.404 281.731,959.179 286.106,961.954 
  290.48,964.73 294.855,967.505 299.229,970.28 303.604,973.055 307.978,975.103 312.352,975.744 316.727,976.384 321.101,977.024 325.476,977.665 329.85,978.305 
  334.224,978.945 338.599,979.586 342.973,980.226 347.348,980.866 351.722,981.507 356.096,982.147 360.471,982.787 364.845,983.428 369.22,984.068 373.594,984.708 
  377.969,985.349 382.343,985.989 386.717,986.63 391.092,987.27 395.466,987.91 399.841,988.551 404.215,989.191 408.589,989.831 412.964,990.472 417.338,991.112 
  421.713,991.752 426.087,992.393 430.461,993.033 434.836,993.673 439.21,994.314 443.585,994.954 447.959,995.595 452.333,996.235 456.708,996.875 461.082,997.516 
  465.457,998.156 469.831,998.796 474.206,999.437 478.58,1000.08 482.954,1000.72 487.329,1001.36 491.703,1002 496.078,1002.64 500.452,1003.28 504.826,1003.92 
  509.201,1004.56 513.575,1005.2 517.95,1005.84 522.324,1006.48 526.698,1007.12 531.073,1007.76 535.447,1008.4 539.822,1009.04 544.196,1009.68 548.57,1010.32 
  552.945,1010.96 557.319,1011.6 561.694,1012.24 566.068,1012.88 570.443,1013.52 574.817,1014.16 579.191,1014.81 583.566,1015.45 587.94,1016.09 592.315,1016.73 
  596.689,1017.37 601.063,1018.01 605.438,1021.62 609.812,1025.91 614.187,1030.2 618.561,1034.49 622.935,1038.77 627.31,1043.06 631.684,1047.35 636.059,1051.64 
  640.433,1055.93 644.807,1060.22 649.182,1064.51 653.556,1069.29 657.931,1074.19 662.305,1079.09 666.68,1083.99 671.054,1088.89 675.428,1093.8 679.803,1098.7 
  684.177,1103.6 688.552,1108.5 692.926,1113.41 697.3,1118.31 701.675,1123.21 706.049,1128.11 710.424,1133.02 714.798,1137.92 719.172,1142.82 723.547,1147.72 
  727.921,1152.62 732.296,1157.53 736.67,1162.43 741.044,1167.33 745.419,1172.23 749.793,1177.14 754.168,1182.04 758.542,1186.94 762.917,1191.84 767.291,1196.75 
  771.665,1201.65 776.04,1206.55 780.414,1211.45 784.789,1213.75 789.163,1213.75 793.537,1213.75 797.912,1213.75 802.286,1213.75 806.661,1213.75 811.035,1213.75 
  815.409,1213.75 819.784,1213.75 824.158,1213.75 828.533,1213.75 832.907,1213.75 837.281,1213.75 841.656,1213.75 846.03,1213.75 850.405,1213.75 854.779,1213.75 
  859.154,1213.75 863.528,1213.75 867.902,1213.75 872.277,1213.75 876.651,1213.75 881.026,1213.75 885.4,1213.75 889.774,1213.75 894.149,1213.75 898.523,1213.75 
  902.898,1213.75 907.272,1213.75 911.646,1213.75 916.021,1213.75 920.395,1213.75 924.77,1213.75 929.144,1213.75 933.519,1213.75 937.893,1213.75 942.267,1213.75 
  946.642,1213.75 951.016,1213.75 955.391,1213.75 959.765,1213.75 964.139,1213.75 968.514,1213.75 972.888,1213.75 977.263,1213.75 981.637,1213.75 986.011,1213.75 
  990.386,1213.75 994.76,1213.75 999.135,1213.75 1003.51,1213.75 1007.88,1213.75 1012.26,1213.75 1016.63,1213.75 1021.01,1213.75 1025.38,1213.75 1029.76,1213.75 
  1034.13,1213.75 1038.5,1213.75 1042.88,1213.75 1047.25,1213.75 1051.63,1213.75 1056,1213.75 1060.38,1213.75 1064.75,1213.75 1069.13,1213.75 1073.5,1213.75 
  1077.87,1213.75 1082.25,1213.75 1086.62,1213.75 1091,1213.75 1095.37,1213.75 1099.75,1213.75 1104.12,1213.75 1108.49,1213.75 1112.87,1213.75 1117.24,1213.75 
  1121.62,1213.75 1125.99,1213.75 1130.37,1213.75 1134.74,1213.75 1139.12,1213.75 1143.49,1213.75 1147.86,1213.75 1152.24,1213.75 1156.61,1213.75 1160.99,1213.75 
  1165.36,1213.75 1169.74,1213.75 1174.11,1213.75 1178.49,1213.75 1182.86,1213.75 1187.23,1213.75 1191.61,1213.75 1195.98,1213.75 1200.36,1213.75 1204.73,1213.75 
  1209.11,1213.75 1213.48,1213.75 1217.86,1213.75 1222.23,1213.75 1226.6,1213.75 1230.98,1213.75 1235.35,1213.75 1239.73,1213.75 1244.1,1213.75 1248.48,1213.75 
  1252.85,1213.75 1257.22,1213.75 1261.6,1213.75 1265.97,1213.75 1270.35,1213.75 1274.72,1213.75 1279.1,1213.75 1283.47,1213.75 1287.85,1213.75 1292.22,1213.75 
  1296.59,1213.75 1300.97,1213.75 1305.34,1213.75 1309.72,1213.75 1314.09,1213.75 1318.47,1213.75 1322.84,1213.75 1327.22,1213.75 1331.59,1213.75 1335.96,1213.75 
  1340.34,1213.75 1344.71,1213.75 1349.09,1213.75 1353.46,1213.75 1357.84,1213.75 1362.21,1213.75 1366.59,1213.75 1370.96,1213.75 1375.33,1213.75 1379.71,1213.75 
  1384.08,1213.75 1388.46,1213.75 1392.83,1213.75 1397.21,1213.75 1401.58,1213.75 1405.95,1213.75 1410.33,1213.75 1414.7,1213.75 1419.08,1213.75 1423.45,1213.75 
  1427.83,1213.75 1432.2,1213.75 1436.58,1213.75 1440.95,1213.75 1445.32,1213.75 1449.7,1213.75 1454.07,1213.75 1458.45,1213.75 1462.82,1213.75 1467.2,1213.75 
  1471.57,1213.75 1475.95,1213.75 1480.32,1213.75 1484.69,1213.75 1489.07,1213.75 1493.44,1213.75 1497.82,1213.75 1502.19,1213.75 1506.57,1213.75 1510.94,1213.75 
  1515.31,1213.75 1519.69,1213.75 1524.06,1213.75 1528.44,1213.75 1532.81,1213.75 1537.19,1213.75 1541.56,1213.75 1545.94,1213.75 1550.31,1213.75 1554.68,1213.75 
  1559.06,1213.75 1563.43,1213.75 1567.81,1213.75 1572.18,1213.75 1576.56,1213.75 1580.93,1213.75 1585.31,1213.75 1589.68,1213.75 1594.05,1213.75 1598.43,1213.75 
  1602.8,1213.75 1607.18,1213.75 1611.55,1213.75 1615.93,1213.75 1620.3,1213.75 1624.68,1213.75 1629.05,1213.75 1633.42,1213.75 1637.8,1213.75 1642.17,1213.75 
  1646.55,1213.75 1650.92,1213.75 1655.3,1213.75 1659.67,1213.75 1664.04,1213.75 1668.42,1213.75 1672.79,1213.75 1677.17,1213.75 1681.54,1213.75 1685.92,1213.75 
  1690.29,1213.75 1694.67,1213.75 1699.04,1213.75 1703.41,1213.75 1707.79,1213.75 1712.16,1213.75 1716.54,1213.75 1720.91,1213.75 1725.29,1213.75 1729.66,1213.75 
  1734.04,1213.75 1738.41,1213.75 1742.78,1213.75 1747.16,1213.75 1751.53,1213.75 1755.91,1213.75 1760.28,1213.75 1764.66,1213.75 1769.03,1213.75 1773.41,1213.75 
  1777.78,1213.75 1782.15,1213.75 1786.53,1213.75 1790.9,1213.75 1795.28,1213.75 1799.65,1213.75 1804.03,1213.75 1808.4,1213.75 1812.77,1213.75 1817.15,1213.75 
  1821.52,1213.75 1825.9,1213.75 1830.27,1213.75 1834.65,1213.75 1839.02,1213.75 1843.4,1213.75 1847.77,1213.75 1852.14,1213.75 1856.52,1213.75 1860.89,1213.75 
  1865.27,1213.75 1869.64,1213.75 1874.02,1213.75 1878.39,1213.75 1882.77,1213.75 1887.14,1213.75 1891.51,1213.75 1895.89,1213.75 1900.26,1213.75 1904.64,1213.75 
  1909.01,1213.75 1913.39,1213.75 1917.76,1213.75 1922.14,1213.75 1926.51,1213.75 1930.88,1213.75 1935.26,1213.75 1939.63,1213.75 1944.01,1213.75 1948.38,1213.75 
  1952.76,1213.75 
  "/>
<polyline clip-path="url(#clip042)" style="stroke:#c271d2; stroke-width:4; stroke-opacity:1; fill:none" points="
  202.992,1151.62 207.367,1156.42 211.741,1161.21 216.115,1166.01 220.49,1170.8 224.864,1175.6 229.239,1180.39 233.613,1185.19 237.987,1189.98 242.362,1194.78 
  246.736,1199.57 251.111,1204.37 255.485,1209.16 259.859,1213.75 264.234,1213.75 268.608,1213.75 272.983,1213.75 277.357,1213.75 281.731,1213.75 286.106,1213.75 
  290.48,1213.75 294.855,1213.75 299.229,1213.75 303.604,1213.75 307.978,1213.75 312.352,1213.75 316.727,1213.75 321.101,1213.75 325.476,1213.75 329.85,1213.75 
  334.224,1213.75 338.599,1213.75 342.973,1213.75 347.348,1213.75 351.722,1213.75 356.096,1213.75 360.471,1213.75 364.845,1213.75 369.22,1213.75 373.594,1213.75 
  377.969,1213.75 382.343,1213.75 386.717,1213.75 391.092,1213.75 395.466,1213.75 399.841,1213.75 404.215,1213.75 408.589,1213.75 412.964,1213.75 417.338,1213.75 
  421.713,1213.75 426.087,1213.75 430.461,1213.75 434.836,1213.75 439.21,1213.75 443.585,1213.75 447.959,1213.75 452.333,1213.75 456.708,1213.75 461.082,1213.75 
  465.457,1213.75 469.831,1213.75 474.206,1213.75 478.58,1213.75 482.954,1213.75 487.329,1213.75 491.703,1213.75 496.078,1213.75 500.452,1213.75 504.826,1213.75 
  509.201,1213.75 513.575,1213.75 517.95,1213.75 522.324,1213.75 526.698,1213.75 531.073,1213.75 535.447,1213.75 539.822,1213.75 544.196,1213.75 548.57,1213.75 
  552.945,1213.75 557.319,1213.75 561.694,1213.75 566.068,1213.75 570.443,1213.75 574.817,1213.75 579.191,1213.75 583.566,1213.75 587.94,1213.75 592.315,1213.75 
  596.689,1213.75 601.063,1213.75 605.438,1213.75 609.812,1213.75 614.187,1213.75 618.561,1213.75 622.935,1213.75 627.31,1213.75 631.684,1213.75 636.059,1213.75 
  640.433,1213.75 644.807,1213.75 649.182,1213.75 653.556,1213.75 657.931,1213.75 662.305,1213.75 666.68,1213.75 671.054,1213.75 675.428,1213.75 679.803,1213.75 
  684.177,1213.75 688.552,1213.75 692.926,1213.75 697.3,1213.75 701.675,1213.75 706.049,1213.75 710.424,1213.75 714.798,1213.75 719.172,1213.75 723.547,1213.75 
  727.921,1213.75 732.296,1213.75 736.67,1213.75 741.044,1213.75 745.419,1213.75 749.793,1213.75 754.168,1213.75 758.542,1213.75 762.917,1213.75 767.291,1213.75 
  771.665,1213.75 776.04,1213.75 780.414,1213.75 784.789,1213.75 789.163,1213.75 793.537,1213.75 797.912,1213.75 802.286,1213.75 806.661,1213.75 811.035,1213.75 
  815.409,1213.75 819.784,1213.75 824.158,1213.75 828.533,1213.75 832.907,1213.75 837.281,1213.75 841.656,1213.75 846.03,1213.75 850.405,1213.75 854.779,1213.75 
  859.154,1213.75 863.528,1213.75 867.902,1213.75 872.277,1213.75 876.651,1213.75 881.026,1213.75 885.4,1213.75 889.774,1213.75 894.149,1213.75 898.523,1213.75 
  902.898,1213.75 907.272,1213.75 911.646,1213.75 916.021,1213.75 920.395,1213.75 924.77,1213.75 929.144,1213.75 933.519,1213.75 937.893,1213.75 942.267,1213.75 
  946.642,1213.75 951.016,1213.75 955.391,1213.75 959.765,1213.75 964.139,1213.75 968.514,1213.75 972.888,1213.75 977.263,1213.75 981.637,1213.75 986.011,1213.75 
  990.386,1213.75 994.76,1213.75 999.135,1213.75 1003.51,1213.75 1007.88,1213.75 1012.26,1213.75 1016.63,1213.75 1021.01,1213.75 1025.38,1213.75 1029.76,1213.75 
  1034.13,1213.75 1038.5,1213.75 1042.88,1213.75 1047.25,1213.75 1051.63,1213.75 1056,1213.75 1060.38,1213.75 1064.75,1213.75 1069.13,1213.75 1073.5,1213.75 
  1077.87,1213.75 1082.25,1213.75 1086.62,1213.75 1091,1213.75 1095.37,1213.75 1099.75,1213.75 1104.12,1213.75 1108.49,1213.75 1112.87,1213.75 1117.24,1213.75 
  1121.62,1213.75 1125.99,1213.75 1130.37,1213.75 1134.74,1213.75 1139.12,1213.75 1143.49,1213.75 1147.86,1213.75 1152.24,1213.75 1156.61,1213.75 1160.99,1213.75 
  1165.36,1213.75 1169.74,1213.75 1174.11,1213.75 1178.49,1213.75 1182.86,1213.75 1187.23,1213.75 1191.61,1213.75 1195.98,1213.75 1200.36,1213.75 1204.73,1213.75 
  1209.11,1213.75 1213.48,1213.75 1217.86,1213.75 1222.23,1213.75 1226.6,1213.75 1230.98,1213.75 1235.35,1213.75 1239.73,1213.75 1244.1,1213.75 1248.48,1213.75 
  1252.85,1213.75 1257.22,1213.75 1261.6,1213.75 1265.97,1213.75 1270.35,1213.75 1274.72,1213.75 1279.1,1213.75 1283.47,1213.75 1287.85,1213.75 1292.22,1213.75 
  1296.59,1213.75 1300.97,1213.75 1305.34,1213.75 1309.72,1213.75 1314.09,1213.75 1318.47,1213.75 1322.84,1213.75 1327.22,1213.75 1331.59,1213.75 1335.96,1213.75 
  1340.34,1213.75 1344.71,1213.75 1349.09,1213.75 1353.46,1213.75 1357.84,1213.75 1362.21,1213.75 1366.59,1213.75 1370.96,1213.75 1375.33,1213.75 1379.71,1213.75 
  1384.08,1213.75 1388.46,1213.75 1392.83,1213.75 1397.21,1213.75 1401.58,1213.75 1405.95,1213.75 1410.33,1213.75 1414.7,1213.75 1419.08,1213.75 1423.45,1213.75 
  1427.83,1213.75 1432.2,1213.75 1436.58,1213.75 1440.95,1213.75 1445.32,1213.75 1449.7,1213.75 1454.07,1213.75 1458.45,1213.75 1462.82,1213.75 1467.2,1213.75 
  1471.57,1213.75 1475.95,1213.75 1480.32,1213.75 1484.69,1213.75 1489.07,1213.75 1493.44,1213.75 1497.82,1213.75 1502.19,1213.75 1506.57,1213.75 1510.94,1213.75 
  1515.31,1213.75 1519.69,1213.75 1524.06,1213.75 1528.44,1213.75 1532.81,1213.75 1537.19,1213.75 1541.56,1213.75 1545.94,1213.75 1550.31,1213.75 1554.68,1213.75 
  1559.06,1213.75 1563.43,1213.75 1567.81,1213.75 1572.18,1213.75 1576.56,1213.75 1580.93,1213.75 1585.31,1213.75 1589.68,1213.75 1594.05,1213.75 1598.43,1213.75 
  1602.8,1213.75 1607.18,1213.75 1611.55,1213.75 1615.93,1213.75 1620.3,1213.75 1624.68,1213.75 1629.05,1213.75 1633.42,1213.75 1637.8,1213.75 1642.17,1213.75 
  1646.55,1213.75 1650.92,1213.75 1655.3,1213.75 1659.67,1213.75 1664.04,1213.75 1668.42,1213.75 1672.79,1213.75 1677.17,1213.75 1681.54,1213.75 1685.92,1213.75 
  1690.29,1213.75 1694.67,1213.75 1699.04,1213.75 1703.41,1213.75 1707.79,1213.75 1712.16,1213.75 1716.54,1213.75 1720.91,1213.75 1725.29,1213.75 1729.66,1213.75 
  1734.04,1213.75 1738.41,1213.75 1742.78,1213.75 1747.16,1213.75 1751.53,1213.75 1755.91,1213.75 1760.28,1213.75 1764.66,1213.75 1769.03,1213.75 1773.41,1213.75 
  1777.78,1213.75 1782.15,1213.75 1786.53,1213.75 1790.9,1213.75 1795.28,1213.75 1799.65,1213.75 1804.03,1213.75 1808.4,1213.75 1812.77,1213.75 1817.15,1213.75 
  1821.52,1213.75 1825.9,1213.75 1830.27,1213.75 1834.65,1213.75 1839.02,1213.75 1843.4,1213.75 1847.77,1213.75 1852.14,1213.75 1856.52,1213.75 1860.89,1213.75 
  1865.27,1213.75 1869.64,1213.75 1874.02,1213.75 1878.39,1213.75 1882.77,1213.75 1887.14,1213.75 1891.51,1213.75 1895.89,1213.75 1900.26,1213.75 1904.64,1213.75 
  1909.01,1213.75 1913.39,1213.75 1917.76,1213.75 1922.14,1213.75 1926.51,1213.75 1930.88,1213.75 1935.26,1213.75 1939.63,1213.75 1944.01,1213.75 1948.38,1213.75 
  1952.76,1213.75 
  "/>
<polyline clip-path="url(#clip042)" style="stroke:#ac8d18; stroke-width:4; stroke-opacity:1; fill:none" points="
  202.992,910.574 207.367,921.863 211.741,933.152 216.115,944.441 220.49,955.73 224.864,967.019 229.239,978.308 233.613,989.597 237.987,1000.89 242.362,1012.18 
  246.736,1023.46 251.111,1034.75 255.485,1046.04 259.859,1057.67 264.234,1076.94 268.608,1096.21 272.983,1115.47 277.357,1134.74 281.731,1154 286.106,1173.27 
  290.48,1192.53 294.855,1211.8 299.229,1213.75 303.604,1213.75 307.978,1213.75 312.352,1213.75 316.727,1213.75 321.101,1213.75 325.476,1213.75 329.85,1213.75 
  334.224,1213.75 338.599,1213.75 342.973,1213.75 347.348,1213.75 351.722,1213.75 356.096,1213.75 360.471,1213.75 364.845,1213.75 369.22,1213.75 373.594,1213.75 
  377.969,1213.75 382.343,1213.75 386.717,1213.75 391.092,1213.75 395.466,1213.75 399.841,1213.75 404.215,1213.75 408.589,1213.75 412.964,1213.75 417.338,1213.75 
  421.713,1213.75 426.087,1213.75 430.461,1213.75 434.836,1213.75 439.21,1213.75 443.585,1213.75 447.959,1213.75 452.333,1213.75 456.708,1213.75 461.082,1213.75 
  465.457,1213.75 469.831,1213.75 474.206,1213.75 478.58,1213.75 482.954,1213.75 487.329,1213.75 491.703,1213.75 496.078,1213.75 500.452,1213.75 504.826,1213.75 
  509.201,1213.75 513.575,1213.75 517.95,1213.75 522.324,1213.75 526.698,1213.75 531.073,1213.75 535.447,1213.75 539.822,1213.75 544.196,1213.75 548.57,1213.75 
  552.945,1213.75 557.319,1213.75 561.694,1213.75 566.068,1213.75 570.443,1213.75 574.817,1213.75 579.191,1213.75 583.566,1213.75 587.94,1213.75 592.315,1213.75 
  596.689,1213.75 601.063,1213.75 605.438,1213.75 609.812,1213.75 614.187,1213.75 618.561,1213.75 622.935,1213.75 627.31,1213.75 631.684,1213.75 636.059,1213.75 
  640.433,1213.75 644.807,1213.75 649.182,1213.75 653.556,1213.75 657.931,1213.75 662.305,1213.75 666.68,1213.75 671.054,1213.75 675.428,1213.75 679.803,1213.75 
  684.177,1213.75 688.552,1213.75 692.926,1213.75 697.3,1213.75 701.675,1213.75 706.049,1213.75 710.424,1213.75 714.798,1213.75 719.172,1213.75 723.547,1213.75 
  727.921,1213.75 732.296,1213.75 736.67,1213.75 741.044,1213.75 745.419,1213.75 749.793,1213.75 754.168,1213.75 758.542,1213.75 762.917,1213.75 767.291,1213.75 
  771.665,1213.75 776.04,1213.75 780.414,1213.75 784.789,1213.75 789.163,1213.75 793.537,1213.75 797.912,1213.75 802.286,1213.75 806.661,1213.75 811.035,1213.75 
  815.409,1213.75 819.784,1213.75 824.158,1213.75 828.533,1213.75 832.907,1213.75 837.281,1213.75 841.656,1213.75 846.03,1213.75 850.405,1213.75 854.779,1213.75 
  859.154,1213.75 863.528,1213.75 867.902,1213.75 872.277,1213.75 876.651,1213.75 881.026,1213.75 885.4,1213.75 889.774,1213.75 894.149,1213.75 898.523,1213.75 
  902.898,1213.75 907.272,1213.75 911.646,1213.75 916.021,1213.75 920.395,1213.75 924.77,1213.75 929.144,1213.75 933.519,1213.75 937.893,1213.75 942.267,1213.75 
  946.642,1213.75 951.016,1213.75 955.391,1213.75 959.765,1213.75 964.139,1213.75 968.514,1213.75 972.888,1213.75 977.263,1213.75 981.637,1213.75 986.011,1213.75 
  990.386,1213.75 994.76,1213.75 999.135,1213.75 1003.51,1213.75 1007.88,1213.75 1012.26,1213.75 1016.63,1213.75 1021.01,1213.75 1025.38,1213.75 1029.76,1213.75 
  1034.13,1213.75 1038.5,1213.75 1042.88,1213.75 1047.25,1213.75 1051.63,1213.75 1056,1213.75 1060.38,1213.75 1064.75,1213.75 1069.13,1213.75 1073.5,1213.75 
  1077.87,1213.75 1082.25,1213.75 1086.62,1213.75 1091,1213.75 1095.37,1213.75 1099.75,1213.75 1104.12,1213.75 1108.49,1213.75 1112.87,1213.75 1117.24,1213.75 
  1121.62,1213.75 1125.99,1213.75 1130.37,1213.75 1134.74,1213.75 1139.12,1213.75 1143.49,1213.75 1147.86,1213.75 1152.24,1213.75 1156.61,1213.75 1160.99,1213.75 
  1165.36,1213.75 1169.74,1213.75 1174.11,1213.75 1178.49,1213.75 1182.86,1213.75 1187.23,1213.75 1191.61,1213.75 1195.98,1213.75 1200.36,1213.75 1204.73,1213.75 
  1209.11,1213.75 1213.48,1213.75 1217.86,1213.75 1222.23,1213.75 1226.6,1213.75 1230.98,1213.75 1235.35,1213.75 1239.73,1213.75 1244.1,1213.75 1248.48,1213.75 
  1252.85,1213.75 1257.22,1213.75 1261.6,1213.75 1265.97,1213.75 1270.35,1213.75 1274.72,1213.75 1279.1,1213.75 1283.47,1213.75 1287.85,1213.75 1292.22,1213.75 
  1296.59,1213.75 1300.97,1213.75 1305.34,1213.75 1309.72,1213.75 1314.09,1213.75 1318.47,1213.75 1322.84,1213.75 1327.22,1213.75 1331.59,1213.75 1335.96,1213.75 
  1340.34,1213.75 1344.71,1213.75 1349.09,1213.75 1353.46,1213.75 1357.84,1213.75 1362.21,1213.75 1366.59,1213.75 1370.96,1213.75 1375.33,1213.75 1379.71,1213.75 
  1384.08,1213.75 1388.46,1213.75 1392.83,1213.75 1397.21,1213.75 1401.58,1213.75 1405.95,1213.75 1410.33,1213.75 1414.7,1213.75 1419.08,1213.75 1423.45,1213.75 
  1427.83,1213.75 1432.2,1213.75 1436.58,1213.75 1440.95,1213.75 1445.32,1213.75 1449.7,1213.75 1454.07,1213.75 1458.45,1213.75 1462.82,1213.75 1467.2,1213.75 
  1471.57,1213.75 1475.95,1213.75 1480.32,1213.75 1484.69,1213.75 1489.07,1213.75 1493.44,1213.75 1497.82,1213.75 1502.19,1213.75 1506.57,1213.75 1510.94,1213.75 
  1515.31,1213.75 1519.69,1213.75 1524.06,1213.75 1528.44,1213.75 1532.81,1213.75 1537.19,1213.75 1541.56,1213.75 1545.94,1213.75 1550.31,1213.75 1554.68,1213.75 
  1559.06,1213.75 1563.43,1213.75 1567.81,1213.75 1572.18,1213.75 1576.56,1213.75 1580.93,1213.75 1585.31,1213.75 1589.68,1213.75 1594.05,1213.75 1598.43,1213.75 
  1602.8,1213.75 1607.18,1213.75 1611.55,1213.75 1615.93,1213.75 1620.3,1213.75 1624.68,1213.75 1629.05,1213.75 1633.42,1213.75 1637.8,1213.75 1642.17,1213.75 
  1646.55,1213.75 1650.92,1213.75 1655.3,1213.75 1659.67,1213.75 1664.04,1213.75 1668.42,1213.75 1672.79,1213.75 1677.17,1213.75 1681.54,1213.75 1685.92,1213.75 
  1690.29,1213.75 1694.67,1213.75 1699.04,1213.75 1703.41,1213.75 1707.79,1213.75 1712.16,1213.75 1716.54,1213.75 1720.91,1213.75 1725.29,1213.75 1729.66,1213.75 
  1734.04,1213.75 1738.41,1213.75 1742.78,1213.75 1747.16,1213.75 1751.53,1213.75 1755.91,1213.75 1760.28,1213.75 1764.66,1213.75 1769.03,1213.75 1773.41,1213.75 
  1777.78,1213.75 1782.15,1213.75 1786.53,1213.75 1790.9,1213.75 1795.28,1213.75 1799.65,1213.75 1804.03,1213.75 1808.4,1213.75 1812.77,1213.75 1817.15,1213.75 
  1821.52,1213.75 1825.9,1213.75 1830.27,1213.75 1834.65,1213.75 1839.02,1213.75 1843.4,1213.75 1847.77,1213.75 1852.14,1213.75 1856.52,1213.75 1860.89,1213.75 
  1865.27,1213.75 1869.64,1213.75 1874.02,1213.75 1878.39,1213.75 1882.77,1213.75 1887.14,1213.75 1891.51,1213.75 1895.89,1213.75 1900.26,1213.75 1904.64,1213.75 
  1909.01,1213.75 1913.39,1213.75 1917.76,1213.75 1922.14,1213.75 1926.51,1213.75 1930.88,1213.75 1935.26,1213.75 1939.63,1213.75 1944.01,1213.75 1948.38,1213.75 
  1952.76,1213.75 
  "/>
<path clip-path="url(#clip040)" d="
M830.236 468.45 L1894.43 468.45 L1894.43 105.57 L830.236 105.57  Z
  " fill="#ffffff" fill-rule="evenodd" fill-opacity="1"/>
<polyline clip-path="url(#clip040)" style="stroke:#000000; stroke-width:4; stroke-opacity:1; fill:none" points="
  830.236,468.45 1894.43,468.45 1894.43,105.57 830.236,105.57 830.236,468.45 
  "/>
<polyline clip-path="url(#clip040)" style="stroke:#009af9; stroke-width:4; stroke-opacity:1; fill:none" points="
  849.678,166.05 966.329,166.05 
  "/>
<g clip-path="url(#clip040)">
<text style="fill:#000000; fill-opacity:1; font-family:Arial,Helvetica Neue,Helvetica,sans-serif; font-size:48px; text-anchor:start;" transform="rotate(0, 985.771, 183.55)" x="985.771" y="183.55">警察への年間資金                                                 </text>
</g>
<polyline clip-path="url(#clip040)" style="stroke:#e26f46; stroke-width:4; stroke-opacity:1; fill:none" points="
  849.678,226.53 966.329,226.53 
  "/>
<g clip-path="url(#clip040)">
<text style="fill:#000000; fill-opacity:1; font-family:Arial,Helvetica Neue,Helvetica,sans-serif; font-size:48px; text-anchor:start;" transform="rotate(0, 985.771, 244.03)" x="985.771" y="244.03">25歳以上で高校を卒業した人の割合</text>
</g>
<polyline clip-path="url(#clip040)" style="stroke:#3da44d; stroke-width:4; stroke-opacity:1; fill:none" points="
  849.678,287.01 966.329,287.01 
  "/>
<g clip-path="url(#clip040)">
<text style="fill:#000000; fill-opacity:1; font-family:Arial,Helvetica Neue,Helvetica,sans-serif; font-size:48px; text-anchor:start;" transform="rotate(0, 985.771, 304.51)" x="985.771" y="304.51">16-19歳で高校に通っていない人の割合</text>
</g>
<polyline clip-path="url(#clip040)" style="stroke:#c271d2; stroke-width:4; stroke-opacity:1; fill:none" points="
  849.678,347.49 966.329,347.49 
  "/>
<g clip-path="url(#clip040)">
<text style="fill:#000000; fill-opacity:1; font-family:Arial,Helvetica Neue,Helvetica,sans-serif; font-size:48px; text-anchor:start;" transform="rotate(0, 985.771, 364.99)" x="985.771" y="364.99">18-24歳で大学生の割合</text>
</g>
<polyline clip-path="url(#clip040)" style="stroke:#ac8d18; stroke-width:4; stroke-opacity:1; fill:none" points="
  849.678,407.97 966.329,407.97 
  "/>
<g clip-path="url(#clip040)">
<text style="fill:#000000; fill-opacity:1; font-family:Arial,Helvetica Neue,Helvetica,sans-serif; font-size:48px; text-anchor:start;" transform="rotate(0, 985.771, 425.47)" x="985.771" y="425.47">25歳以上で４年制大学を卒業した人の割合</text>
</g>
</svg>
