<?xml version="1.0" encoding="utf-8"?>
<svg xmlns="http://www.w3.org/2000/svg" xmlns:xlink="http://www.w3.org/1999/xlink" width="500" height="500" viewBox="0 0 2000 2000">
<defs>
  <clipPath id="clip510">
    <rect x="0" y="0" width="2000" height="2000"/>
  </clipPath>
</defs>
<path clip-path="url(#clip510)" d="
M0 2000 L2000 2000 L2000 0 L0 0  Z
  " fill="#ffffff" fill-rule="evenodd" fill-opacity="1"/>
<defs>
  <clipPath id="clip511">
    <rect x="400" y="200" width="1401" height="1401"/>
  </clipPath>
</defs>
<path clip-path="url(#clip510)" d="
M202.992 1797.01 L1952.76 1797.01 L1952.76 47.2441 L202.992 47.2441  Z
  " fill="#ffffff" fill-rule="evenodd" fill-opacity="1"/>
<defs>
  <clipPath id="clip512">
    <rect x="202" y="47" width="1751" height="1751"/>
  </clipPath>
</defs>
<polyline clip-path="url(#clip512)" style="stroke:#000000; stroke-width:2; stroke-opacity:0.1; fill:none" points="
  202.992,1797.01 202.992,47.2441 
  "/>
<polyline clip-path="url(#clip512)" style="stroke:#000000; stroke-width:2; stroke-opacity:0.1; fill:none" points="
  552.945,1797.01 552.945,47.2441 
  "/>
<polyline clip-path="url(#clip512)" style="stroke:#000000; stroke-width:2; stroke-opacity:0.1; fill:none" points="
  902.898,1797.01 902.898,47.2441 
  "/>
<polyline clip-path="url(#clip512)" style="stroke:#000000; stroke-width:2; stroke-opacity:0.1; fill:none" points="
  1252.85,1797.01 1252.85,47.2441 
  "/>
<polyline clip-path="url(#clip512)" style="stroke:#000000; stroke-width:2; stroke-opacity:0.1; fill:none" points="
  1602.8,1797.01 1602.8,47.2441 
  "/>
<polyline clip-path="url(#clip512)" style="stroke:#000000; stroke-width:2; stroke-opacity:0.1; fill:none" points="
  1952.76,1797.01 1952.76,47.2441 
  "/>
<polyline clip-path="url(#clip510)" style="stroke:#000000; stroke-width:4; stroke-opacity:1; fill:none" points="
  202.992,1797.01 1952.76,1797.01 
  "/>
<polyline clip-path="url(#clip510)" style="stroke:#000000; stroke-width:4; stroke-opacity:1; fill:none" points="
  202.992,1797.01 202.992,1776.01 
  "/>
<polyline clip-path="url(#clip510)" style="stroke:#000000; stroke-width:4; stroke-opacity:1; fill:none" points="
  552.945,1797.01 552.945,1776.01 
  "/>
<polyline clip-path="url(#clip510)" style="stroke:#000000; stroke-width:4; stroke-opacity:1; fill:none" points="
  902.898,1797.01 902.898,1776.01 
  "/>
<polyline clip-path="url(#clip510)" style="stroke:#000000; stroke-width:4; stroke-opacity:1; fill:none" points="
  1252.85,1797.01 1252.85,1776.01 
  "/>
<polyline clip-path="url(#clip510)" style="stroke:#000000; stroke-width:4; stroke-opacity:1; fill:none" points="
  1602.8,1797.01 1602.8,1776.01 
  "/>
<polyline clip-path="url(#clip510)" style="stroke:#000000; stroke-width:4; stroke-opacity:1; fill:none" points="
  1952.76,1797.01 1952.76,1776.01 
  "/>
<g clip-path="url(#clip510)">
<text style="fill:#000000; fill-opacity:1; font-family:Arial,Helvetica Neue,Helvetica,sans-serif; font-size:48px; text-anchor:middle;" transform="rotate(0, 202.992, 1855.01)" x="202.992" y="1855.01">0</text>
</g>
<g clip-path="url(#clip510)">
<text style="fill:#000000; fill-opacity:1; font-family:Arial,Helvetica Neue,Helvetica,sans-serif; font-size:48px; text-anchor:middle;" transform="rotate(0, 552.945, 1855.01)" x="552.945" y="1855.01">10</text>
</g>
<g clip-path="url(#clip510)">
<text style="fill:#000000; fill-opacity:1; font-family:Arial,Helvetica Neue,Helvetica,sans-serif; font-size:48px; text-anchor:middle;" transform="rotate(0, 902.898, 1855.01)" x="902.898" y="1855.01">20</text>
</g>
<g clip-path="url(#clip510)">
<text style="fill:#000000; fill-opacity:1; font-family:Arial,Helvetica Neue,Helvetica,sans-serif; font-size:48px; text-anchor:middle;" transform="rotate(0, 1252.85, 1855.01)" x="1252.85" y="1855.01">30</text>
</g>
<g clip-path="url(#clip510)">
<text style="fill:#000000; fill-opacity:1; font-family:Arial,Helvetica Neue,Helvetica,sans-serif; font-size:48px; text-anchor:middle;" transform="rotate(0, 1602.8, 1855.01)" x="1602.8" y="1855.01">40</text>
</g>
<g clip-path="url(#clip510)">
<text style="fill:#000000; fill-opacity:1; font-family:Arial,Helvetica Neue,Helvetica,sans-serif; font-size:48px; text-anchor:middle;" transform="rotate(0, 1952.76, 1855.01)" x="1952.76" y="1855.01">50</text>
</g>
<g clip-path="url(#clip510)">
<text style="fill:#000000; fill-opacity:1; font-family:Arial,Helvetica Neue,Helvetica,sans-serif; font-size:66px; text-anchor:middle;" transform="rotate(0, 1077.87, 1926.87)" x="1077.87" y="1926.87">λ</text>
</g>
<polyline clip-path="url(#clip512)" style="stroke:#000000; stroke-width:2; stroke-opacity:0.1; fill:none" points="
  202.992,1602.59 1952.76,1602.59 
  "/>
<polyline clip-path="url(#clip512)" style="stroke:#000000; stroke-width:2; stroke-opacity:0.1; fill:none" points="
  202.992,1213.75 1952.76,1213.75 
  "/>
<polyline clip-path="url(#clip512)" style="stroke:#000000; stroke-width:2; stroke-opacity:0.1; fill:none" points="
  202.992,824.917 1952.76,824.917 
  "/>
<polyline clip-path="url(#clip512)" style="stroke:#000000; stroke-width:2; stroke-opacity:0.1; fill:none" points="
  202.992,436.08 1952.76,436.08 
  "/>
<polyline clip-path="url(#clip512)" style="stroke:#000000; stroke-width:2; stroke-opacity:0.1; fill:none" points="
  202.992,47.2441 1952.76,47.2441 
  "/>
<polyline clip-path="url(#clip510)" style="stroke:#000000; stroke-width:4; stroke-opacity:1; fill:none" points="
  202.992,1797.01 202.992,47.2441 
  "/>
<polyline clip-path="url(#clip510)" style="stroke:#000000; stroke-width:4; stroke-opacity:1; fill:none" points="
  202.992,1602.59 223.989,1602.59 
  "/>
<polyline clip-path="url(#clip510)" style="stroke:#000000; stroke-width:4; stroke-opacity:1; fill:none" points="
  202.992,1213.75 223.989,1213.75 
  "/>
<polyline clip-path="url(#clip510)" style="stroke:#000000; stroke-width:4; stroke-opacity:1; fill:none" points="
  202.992,824.917 223.989,824.917 
  "/>
<polyline clip-path="url(#clip510)" style="stroke:#000000; stroke-width:4; stroke-opacity:1; fill:none" points="
  202.992,436.08 223.989,436.08 
  "/>
<polyline clip-path="url(#clip510)" style="stroke:#000000; stroke-width:4; stroke-opacity:1; fill:none" points="
  202.992,47.2441 223.989,47.2441 
  "/>
<g clip-path="url(#clip510)">
<text style="fill:#000000; fill-opacity:1; font-family:Arial,Helvetica Neue,Helvetica,sans-serif; font-size:48px; text-anchor:end;" transform="rotate(0, 172.992, 1620.09)" x="172.992" y="1620.09">−5</text>
</g>
<g clip-path="url(#clip510)">
<text style="fill:#000000; fill-opacity:1; font-family:Arial,Helvetica Neue,Helvetica,sans-serif; font-size:48px; text-anchor:end;" transform="rotate(0, 172.992, 1231.25)" x="172.992" y="1231.25">0</text>
</g>
<g clip-path="url(#clip510)">
<text style="fill:#000000; fill-opacity:1; font-family:Arial,Helvetica Neue,Helvetica,sans-serif; font-size:48px; text-anchor:end;" transform="rotate(0, 172.992, 842.417)" x="172.992" y="842.417">5</text>
</g>
<g clip-path="url(#clip510)">
<text style="fill:#000000; fill-opacity:1; font-family:Arial,Helvetica Neue,Helvetica,sans-serif; font-size:48px; text-anchor:end;" transform="rotate(0, 172.992, 453.58)" x="172.992" y="453.58">10</text>
</g>
<g clip-path="url(#clip510)">
<text style="fill:#000000; fill-opacity:1; font-family:Arial,Helvetica Neue,Helvetica,sans-serif; font-size:48px; text-anchor:end;" transform="rotate(0, 172.992, 64.7441)" x="172.992" y="64.7441">15</text>
</g>
<g clip-path="url(#clip510)">
<text style="fill:#000000; fill-opacity:1; font-family:Arial,Helvetica Neue,Helvetica,sans-serif; font-size:66px; text-anchor:middle;" transform="rotate(-90, 97.9053, 922.126)" x="97.9053" y="922.126">β</text>
</g>
<polyline clip-path="url(#clip512)" style="stroke:#009af9; stroke-width:4; stroke-opacity:1; fill:none" points="
  202.992,359.816 220.49,668.915 237.987,805.755 255.485,886 272.983,939.329 290.48,977.51 307.978,1006.26 325.476,1028.71 342.973,1046.74 360.471,1061.56 
  377.969,1073.94 395.466,1084.45 412.964,1093.49 430.461,1101.34 447.959,1108.23 465.457,1114.32 482.954,1119.74 500.452,1124.6 517.95,1128.98 535.447,1132.95 
  552.945,1136.57 570.443,1139.87 587.94,1142.91 605.438,1145.7 622.935,1148.28 640.433,1150.67 657.931,1152.9 675.428,1154.97 692.926,1156.9 710.424,1158.72 
  727.921,1160.42 745.419,1162.01 762.917,1163.52 780.414,1164.94 797.912,1166.28 815.409,1167.55 832.907,1168.75 850.405,1169.9 867.902,1170.98 885.4,1172.01 
  902.898,1173 920.395,1173.94 937.893,1174.84 955.391,1175.69 972.888,1176.51 990.386,1177.3 1007.88,1178.05 1025.38,1178.77 1042.88,1179.47 1060.38,1180.14 
  1077.87,1180.78 1095.37,1181.39 1112.87,1181.99 1130.37,1182.56 1147.86,1183.12 1165.36,1183.65 1182.86,1184.17 1200.36,1184.66 1217.86,1185.14 1235.35,1185.61 
  1252.85,1186.06 1270.35,1186.5 1287.85,1186.92 1305.34,1187.33 1322.84,1187.73 1340.34,1188.12 1357.84,1188.49 1375.33,1188.85 1392.83,1189.21 1410.33,1189.55 
  1427.83,1189.89 1445.32,1190.21 1462.82,1190.53 1480.32,1190.84 1497.82,1191.14 1515.31,1191.43 1532.81,1191.71 1550.31,1191.99 1567.81,1192.26 1585.31,1192.52 
  1602.8,1192.78 1620.3,1193.03 1637.8,1193.28 1655.3,1193.52 1672.79,1193.75 1690.29,1193.98 1707.79,1194.21 1725.29,1194.42 1742.78,1194.64 1760.28,1194.85 
  1777.78,1195.05 1795.28,1195.25 1812.77,1195.45 1830.27,1195.64 1847.77,1195.83 1865.27,1196.01 1882.77,1196.19 1900.26,1196.37 1917.76,1196.54 1935.26,1196.71 
  1952.76,1196.88 
  "/>
<polyline clip-path="url(#clip512)" style="stroke:#e26f46; stroke-width:4; stroke-opacity:1; fill:none" points="
  202.992,1687.24 220.49,1419.04 237.987,1352.14 255.485,1320.27 272.983,1301.36 290.48,1288.67 307.978,1279.47 325.476,1272.45 342.973,1266.87 360.471,1262.33 
  377.969,1258.54 395.466,1255.32 412.964,1252.56 430.461,1250.15 447.959,1248.03 465.457,1246.15 482.954,1244.47 500.452,1242.97 517.95,1241.6 535.447,1240.36 
  552.945,1239.23 570.443,1238.19 587.94,1237.24 605.438,1236.35 622.935,1235.53 640.433,1234.77 657.931,1234.07 675.428,1233.4 692.926,1232.78 710.424,1232.2 
  727.921,1231.66 745.419,1231.14 762.917,1230.65 780.414,1230.2 797.912,1229.76 815.409,1229.35 832.907,1228.96 850.405,1228.58 867.902,1228.23 885.4,1227.89 
  902.898,1227.57 920.395,1227.26 937.893,1226.97 955.391,1226.69 972.888,1226.42 990.386,1226.16 1007.88,1225.91 1025.38,1225.67 1042.88,1225.44 1060.38,1225.22 
  1077.87,1225.01 1095.37,1224.8 1112.87,1224.61 1130.37,1224.42 1147.86,1224.23 1165.36,1224.05 1182.86,1223.88 1200.36,1223.72 1217.86,1223.56 1235.35,1223.4 
  1252.85,1223.25 1270.35,1223.1 1287.85,1222.96 1305.34,1222.82 1322.84,1222.69 1340.34,1222.56 1357.84,1222.44 1375.33,1222.31 1392.83,1222.19 1410.33,1222.08 
  1427.83,1221.97 1445.32,1221.86 1462.82,1221.75 1480.32,1221.65 1497.82,1221.55 1515.31,1221.45 1532.81,1221.35 1550.31,1221.26 1567.81,1221.17 1585.31,1221.08 
  1602.8,1220.99 1620.3,1220.9 1637.8,1220.82 1655.3,1220.74 1672.79,1220.66 1690.29,1220.58 1707.79,1220.51 1725.29,1220.43 1742.78,1220.36 1760.28,1220.29 
  1777.78,1220.22 1795.28,1220.15 1812.77,1220.09 1830.27,1220.02 1847.77,1219.96 1865.27,1219.89 1882.77,1219.83 1900.26,1219.77 1917.76,1219.71 1935.26,1219.66 
  1952.76,1219.6 
  "/>
<polyline clip-path="url(#clip512)" style="stroke:#3da44d; stroke-width:4; stroke-opacity:1; fill:none" points="
  202.992,787.565 220.49,743.147 237.987,814.859 255.485,871.407 272.983,914.45 290.48,947.96 307.978,974.719 325.476,996.565 342.973,1014.74 360.471,1030.09 
  377.969,1043.23 395.466,1054.61 412.964,1064.56 430.461,1073.33 447.959,1081.13 465.457,1088.1 482.954,1094.37 500.452,1100.05 517.95,1105.21 535.447,1109.92 
  552.945,1114.24 570.443,1118.21 587.94,1121.88 605.438,1125.27 622.935,1128.43 640.433,1131.36 657.931,1134.1 675.428,1136.66 692.926,1139.07 710.424,1141.33 
  727.921,1143.45 745.419,1145.45 762.917,1147.35 780.414,1149.14 797.912,1150.83 815.409,1152.44 832.907,1153.97 850.405,1155.43 867.902,1156.81 885.4,1158.13 
  902.898,1159.4 920.395,1160.6 937.893,1161.75 955.391,1162.86 972.888,1163.92 990.386,1164.93 1007.88,1165.91 1025.38,1166.84 1042.88,1167.74 1060.38,1168.61 
  1077.87,1169.44 1095.37,1170.25 1112.87,1171.02 1130.37,1171.77 1147.86,1172.49 1165.36,1173.19 1182.86,1173.87 1200.36,1174.52 1217.86,1175.15 1235.35,1175.76 
  1252.85,1176.35 1270.35,1176.93 1287.85,1177.48 1305.34,1178.03 1322.84,1178.55 1340.34,1179.06 1357.84,1179.55 1375.33,1180.03 1392.83,1180.5 1410.33,1180.96 
  1427.83,1181.4 1445.32,1181.83 1462.82,1182.25 1480.32,1182.66 1497.82,1183.06 1515.31,1183.44 1532.81,1183.82 1550.31,1184.19 1567.81,1184.55 1585.31,1184.9 
  1602.8,1185.25 1620.3,1185.58 1637.8,1185.91 1655.3,1186.23 1672.79,1186.54 1690.29,1186.84 1707.79,1187.14 1725.29,1187.43 1742.78,1187.72 1760.28,1188 
  1777.78,1188.27 1795.28,1188.54 1812.77,1188.8 1830.27,1189.06 1847.77,1189.31 1865.27,1189.56 1882.77,1189.8 1900.26,1190.04 1917.76,1190.27 1935.26,1190.5 
  1952.76,1190.72 
  "/>
<polyline clip-path="url(#clip512)" style="stroke:#c271d2; stroke-width:4; stroke-opacity:1; fill:none" points="
  202.992,1184.43 220.49,1228.54 237.987,1248.06 255.485,1253.48 272.983,1254.18 290.48,1253.16 307.978,1251.5 325.476,1249.66 342.973,1247.81 360.471,1246.06 
  377.969,1244.41 395.466,1242.89 412.964,1241.49 430.461,1240.19 447.959,1239.01 465.457,1237.91 482.954,1236.9 500.452,1235.97 517.95,1235.1 535.447,1234.3 
  552.945,1233.55 570.443,1232.85 587.94,1232.2 605.438,1231.6 622.935,1231.02 640.433,1230.49 657.931,1229.98 675.428,1229.51 692.926,1229.06 710.424,1228.63 
  727.921,1228.23 745.419,1227.85 762.917,1227.49 780.414,1227.15 797.912,1226.82 815.409,1226.51 832.907,1226.21 850.405,1225.93 867.902,1225.65 885.4,1225.4 
  902.898,1225.15 920.395,1224.91 937.893,1224.68 955.391,1224.46 972.888,1224.25 990.386,1224.05 1007.88,1223.85 1025.38,1223.66 1042.88,1223.48 1060.38,1223.31 
  1077.87,1223.14 1095.37,1222.98 1112.87,1222.82 1130.37,1222.67 1147.86,1222.52 1165.36,1222.38 1182.86,1222.24 1200.36,1222.11 1217.86,1221.98 1235.35,1221.85 
  1252.85,1221.73 1270.35,1221.61 1287.85,1221.5 1305.34,1221.39 1322.84,1221.28 1340.34,1221.18 1357.84,1221.07 1375.33,1220.97 1392.83,1220.88 1410.33,1220.78 
  1427.83,1220.69 1445.32,1220.6 1462.82,1220.51 1480.32,1220.43 1497.82,1220.35 1515.31,1220.27 1532.81,1220.19 1550.31,1220.11 1567.81,1220.03 1585.31,1219.96 
  1602.8,1219.89 1620.3,1219.82 1637.8,1219.75 1655.3,1219.68 1672.79,1219.62 1690.29,1219.55 1707.79,1219.49 1725.29,1219.43 1742.78,1219.37 1760.28,1219.31 
  1777.78,1219.25 1795.28,1219.2 1812.77,1219.14 1830.27,1219.09 1847.77,1219.04 1865.27,1218.98 1882.77,1218.93 1900.26,1218.88 1917.76,1218.83 1935.26,1218.78 
  1952.76,1218.74 
  "/>
<polyline clip-path="url(#clip512)" style="stroke:#ac8d18; stroke-width:4; stroke-opacity:1; fill:none" points="
  202.992,785.997 220.49,1028.69 237.987,1101.29 255.485,1139.74 272.983,1162.6 290.48,1177.22 307.978,1187.07 325.476,1193.99 342.973,1198.99 360.471,1202.71 
  377.969,1205.52 395.466,1207.69 412.964,1209.39 430.461,1210.73 447.959,1211.8 465.457,1212.66 482.954,1213.37 500.452,1213.94 517.95,1214.41 535.447,1214.8 
  552.945,1215.12 570.443,1215.39 587.94,1215.61 605.438,1215.8 622.935,1215.95 640.433,1216.08 657.931,1216.19 675.428,1216.27 692.926,1216.34 710.424,1216.4 
  727.921,1216.45 745.419,1216.48 762.917,1216.51 780.414,1216.53 797.912,1216.55 815.409,1216.56 832.907,1216.57 850.405,1216.57 867.902,1216.56 885.4,1216.56 
  902.898,1216.55 920.395,1216.54 937.893,1216.53 955.391,1216.52 972.888,1216.5 990.386,1216.49 1007.88,1216.47 1025.38,1216.45 1042.88,1216.44 1060.38,1216.42 
  1077.87,1216.4 1095.37,1216.38 1112.87,1216.36 1130.37,1216.34 1147.86,1216.32 1165.36,1216.3 1182.86,1216.28 1200.36,1216.26 1217.86,1216.24 1235.35,1216.22 
  1252.85,1216.2 1270.35,1216.18 1287.85,1216.16 1305.34,1216.14 1322.84,1216.12 1340.34,1216.1 1357.84,1216.08 1375.33,1216.06 1392.83,1216.04 1410.33,1216.02 
  1427.83,1216 1445.32,1215.98 1462.82,1215.96 1480.32,1215.94 1497.82,1215.92 1515.31,1215.91 1532.81,1215.89 1550.31,1215.87 1567.81,1215.85 1585.31,1215.84 
  1602.8,1215.82 1620.3,1215.8 1637.8,1215.79 1655.3,1215.77 1672.79,1215.75 1690.29,1215.74 1707.79,1215.72 1725.29,1215.71 1742.78,1215.69 1760.28,1215.68 
  1777.78,1215.66 1795.28,1215.65 1812.77,1215.63 1830.27,1215.62 1847.77,1215.61 1865.27,1215.59 1882.77,1215.58 1900.26,1215.56 1917.76,1215.55 1935.26,1215.54 
  1952.76,1215.52 
  "/>
<path clip-path="url(#clip510)" d="
M830.236 468.45 L1894.43 468.45 L1894.43 105.57 L830.236 105.57  Z
  " fill="#ffffff" fill-rule="evenodd" fill-opacity="1"/>
<polyline clip-path="url(#clip510)" style="stroke:#000000; stroke-width:4; stroke-opacity:1; fill:none" points="
  830.236,468.45 1894.43,468.45 1894.43,105.57 830.236,105.57 830.236,468.45 
  "/>
<polyline clip-path="url(#clip510)" style="stroke:#009af9; stroke-width:4; stroke-opacity:1; fill:none" points="
  849.678,166.05 966.329,166.05 
  "/>
<g clip-path="url(#clip510)">
<text style="fill:#000000; fill-opacity:1; font-family:Arial,Helvetica Neue,Helvetica,sans-serif; font-size:48px; text-anchor:start;" transform="rotate(0, 985.771, 183.55)" x="985.771" y="183.55">警察への年間資金                                                 </text>
</g>
<polyline clip-path="url(#clip510)" style="stroke:#e26f46; stroke-width:4; stroke-opacity:1; fill:none" points="
  849.678,226.53 966.329,226.53 
  "/>
<g clip-path="url(#clip510)">
<text style="fill:#000000; fill-opacity:1; font-family:Arial,Helvetica Neue,Helvetica,sans-serif; font-size:48px; text-anchor:start;" transform="rotate(0, 985.771, 244.03)" x="985.771" y="244.03">25歳以上で高校を卒業した人の割合</text>
</g>
<polyline clip-path="url(#clip510)" style="stroke:#3da44d; stroke-width:4; stroke-opacity:1; fill:none" points="
  849.678,287.01 966.329,287.01 
  "/>
<g clip-path="url(#clip510)">
<text style="fill:#000000; fill-opacity:1; font-family:Arial,Helvetica Neue,Helvetica,sans-serif; font-size:48px; text-anchor:start;" transform="rotate(0, 985.771, 304.51)" x="985.771" y="304.51">16-19歳で高校に通っていない人の割合</text>
</g>
<polyline clip-path="url(#clip510)" style="stroke:#c271d2; stroke-width:4; stroke-opacity:1; fill:none" points="
  849.678,347.49 966.329,347.49 
  "/>
<g clip-path="url(#clip510)">
<text style="fill:#000000; fill-opacity:1; font-family:Arial,Helvetica Neue,Helvetica,sans-serif; font-size:48px; text-anchor:start;" transform="rotate(0, 985.771, 364.99)" x="985.771" y="364.99">18-24歳で大学生の割合</text>
</g>
<polyline clip-path="url(#clip510)" style="stroke:#ac8d18; stroke-width:4; stroke-opacity:1; fill:none" points="
  849.678,407.97 966.329,407.97 
  "/>
<g clip-path="url(#clip510)">
<text style="fill:#000000; fill-opacity:1; font-family:Arial,Helvetica Neue,Helvetica,sans-serif; font-size:48px; text-anchor:start;" transform="rotate(0, 985.771, 425.47)" x="985.771" y="425.47">25歳以上で４年制大学を卒業した人の割合</text>
</g>
</svg>
