<?xml version="1.0" encoding="utf-8"?>
<svg xmlns="http://www.w3.org/2000/svg" xmlns:xlink="http://www.w3.org/1999/xlink" width="500" height="500" viewBox="0 0 2000 2000">
<defs>
  <clipPath id="clip240">
    <rect x="0" y="0" width="2000" height="2000"/>
  </clipPath>
</defs>
<path clip-path="url(#clip240)" d="
M0 2000 L2000 2000 L2000 0 L0 0  Z
  " fill="#ffffff" fill-rule="evenodd" fill-opacity="1"/>
<defs>
  <clipPath id="clip241">
    <rect x="400" y="200" width="1401" height="1401"/>
  </clipPath>
</defs>
<path clip-path="url(#clip240)" d="
M98.7402 1901.26 L1952.76 1901.26 L1952.76 47.2441 L98.7402 47.2441  Z
  " fill="#ffffff" fill-rule="evenodd" fill-opacity="1"/>
<defs>
  <clipPath id="clip242">
    <rect x="98" y="47" width="1855" height="1855"/>
  </clipPath>
</defs>
<polyline clip-path="url(#clip242)" style="stroke:#000000; stroke-width:2; stroke-opacity:0.1; fill:none" points="
  98.7402,1901.26 98.7402,47.2441 
  "/>
<polyline clip-path="url(#clip242)" style="stroke:#000000; stroke-width:2; stroke-opacity:0.1; fill:none" points="
  562.244,1901.26 562.244,47.2441 
  "/>
<polyline clip-path="url(#clip242)" style="stroke:#000000; stroke-width:2; stroke-opacity:0.1; fill:none" points="
  1025.75,1901.26 1025.75,47.2441 
  "/>
<polyline clip-path="url(#clip242)" style="stroke:#000000; stroke-width:2; stroke-opacity:0.1; fill:none" points="
  1489.25,1901.26 1489.25,47.2441 
  "/>
<polyline clip-path="url(#clip242)" style="stroke:#000000; stroke-width:2; stroke-opacity:0.1; fill:none" points="
  1952.76,1901.26 1952.76,47.2441 
  "/>
<polyline clip-path="url(#clip240)" style="stroke:#000000; stroke-width:4; stroke-opacity:1; fill:none" points="
  98.7402,1901.26 1952.76,1901.26 
  "/>
<polyline clip-path="url(#clip240)" style="stroke:#000000; stroke-width:4; stroke-opacity:1; fill:none" points="
  98.7402,1901.26 98.7402,1879.01 
  "/>
<polyline clip-path="url(#clip240)" style="stroke:#000000; stroke-width:4; stroke-opacity:1; fill:none" points="
  562.244,1901.26 562.244,1879.01 
  "/>
<polyline clip-path="url(#clip240)" style="stroke:#000000; stroke-width:4; stroke-opacity:1; fill:none" points="
  1025.75,1901.26 1025.75,1879.01 
  "/>
<polyline clip-path="url(#clip240)" style="stroke:#000000; stroke-width:4; stroke-opacity:1; fill:none" points="
  1489.25,1901.26 1489.25,1879.01 
  "/>
<polyline clip-path="url(#clip240)" style="stroke:#000000; stroke-width:4; stroke-opacity:1; fill:none" points="
  1952.76,1901.26 1952.76,1879.01 
  "/>
<g clip-path="url(#clip240)">
<text style="fill:#000000; fill-opacity:1; font-family:Arial,Helvetica Neue,Helvetica,sans-serif; font-size:48px; text-anchor:middle;" transform="rotate(0, 98.7402, 1959.26)" x="98.7402" y="1959.26">0</text>
</g>
<g clip-path="url(#clip240)">
<text style="fill:#000000; fill-opacity:1; font-family:Arial,Helvetica Neue,Helvetica,sans-serif; font-size:48px; text-anchor:middle;" transform="rotate(0, 562.244, 1959.26)" x="562.244" y="1959.26">50</text>
</g>
<g clip-path="url(#clip240)">
<text style="fill:#000000; fill-opacity:1; font-family:Arial,Helvetica Neue,Helvetica,sans-serif; font-size:48px; text-anchor:middle;" transform="rotate(0, 1025.75, 1959.26)" x="1025.75" y="1959.26">100</text>
</g>
<g clip-path="url(#clip240)">
<text style="fill:#000000; fill-opacity:1; font-family:Arial,Helvetica Neue,Helvetica,sans-serif; font-size:48px; text-anchor:middle;" transform="rotate(0, 1489.25, 1959.26)" x="1489.25" y="1959.26">150</text>
</g>
<g clip-path="url(#clip240)">
<text style="fill:#000000; fill-opacity:1; font-family:Arial,Helvetica Neue,Helvetica,sans-serif; font-size:48px; text-anchor:middle;" transform="rotate(0, 1952.76, 1959.26)" x="1952.76" y="1959.26">200</text>
</g>
<g clip-path="url(#clip240)">
<text style="fill:#000000; fill-opacity:1; font-family:Arial,Helvetica Neue,Helvetica,sans-serif; font-size:66px; text-anchor:middle;" transform="rotate(0, 1025.75, 2031.12)" x="1025.75" y="2031.12">λ</text>
</g>
<polyline clip-path="url(#clip242)" style="stroke:#000000; stroke-width:2; stroke-opacity:0.1; fill:none" points="
  98.7402,1695.26 1952.76,1695.26 
  "/>
<polyline clip-path="url(#clip242)" style="stroke:#000000; stroke-width:2; stroke-opacity:0.1; fill:none" points="
  98.7402,1283.25 1952.76,1283.25 
  "/>
<polyline clip-path="url(#clip242)" style="stroke:#000000; stroke-width:2; stroke-opacity:0.1; fill:none" points="
  98.7402,871.251 1952.76,871.251 
  "/>
<polyline clip-path="url(#clip242)" style="stroke:#000000; stroke-width:2; stroke-opacity:0.1; fill:none" points="
  98.7402,459.248 1952.76,459.248 
  "/>
<polyline clip-path="url(#clip242)" style="stroke:#000000; stroke-width:2; stroke-opacity:0.1; fill:none" points="
  98.7402,47.2441 1952.76,47.2441 
  "/>
<polyline clip-path="url(#clip240)" style="stroke:#000000; stroke-width:4; stroke-opacity:1; fill:none" points="
  98.7402,1901.26 98.7402,47.2441 
  "/>
<polyline clip-path="url(#clip240)" style="stroke:#000000; stroke-width:4; stroke-opacity:1; fill:none" points="
  98.7402,1695.26 120.988,1695.26 
  "/>
<polyline clip-path="url(#clip240)" style="stroke:#000000; stroke-width:4; stroke-opacity:1; fill:none" points="
  98.7402,1283.25 120.988,1283.25 
  "/>
<polyline clip-path="url(#clip240)" style="stroke:#000000; stroke-width:4; stroke-opacity:1; fill:none" points="
  98.7402,871.251 120.988,871.251 
  "/>
<polyline clip-path="url(#clip240)" style="stroke:#000000; stroke-width:4; stroke-opacity:1; fill:none" points="
  98.7402,459.248 120.988,459.248 
  "/>
<polyline clip-path="url(#clip240)" style="stroke:#000000; stroke-width:4; stroke-opacity:1; fill:none" points="
  98.7402,47.2441 120.988,47.2441 
  "/>
<g clip-path="url(#clip240)">
<text style="fill:#000000; fill-opacity:1; font-family:Arial,Helvetica Neue,Helvetica,sans-serif; font-size:48px; text-anchor:end;" transform="rotate(0, 68.7402, 1712.76)" x="68.7402" y="1712.76">−5</text>
</g>
<g clip-path="url(#clip240)">
<text style="fill:#000000; fill-opacity:1; font-family:Arial,Helvetica Neue,Helvetica,sans-serif; font-size:48px; text-anchor:end;" transform="rotate(0, 68.7402, 1300.75)" x="68.7402" y="1300.75">0</text>
</g>
<g clip-path="url(#clip240)">
<text style="fill:#000000; fill-opacity:1; font-family:Arial,Helvetica Neue,Helvetica,sans-serif; font-size:48px; text-anchor:end;" transform="rotate(0, 68.7402, 888.751)" x="68.7402" y="888.751">5</text>
</g>
<g clip-path="url(#clip240)">
<text style="fill:#000000; fill-opacity:1; font-family:Arial,Helvetica Neue,Helvetica,sans-serif; font-size:48px; text-anchor:end;" transform="rotate(0, 68.7402, 476.748)" x="68.7402" y="476.748">10</text>
</g>
<g clip-path="url(#clip240)">
<text style="fill:#000000; fill-opacity:1; font-family:Arial,Helvetica Neue,Helvetica,sans-serif; font-size:48px; text-anchor:end;" transform="rotate(0, 68.7402, 64.7441)" x="68.7402" y="64.7441">15</text>
</g>
<g clip-path="url(#clip240)">
<text style="fill:#000000; fill-opacity:1; font-family:Arial,Helvetica Neue,Helvetica,sans-serif; font-size:66px; text-anchor:middle;" transform="rotate(-90, -6.34664, 974.252)" x="-6.34664" y="974.252">β</text>
</g>
<polyline clip-path="url(#clip242)" style="stroke:#009af9; stroke-width:4; stroke-opacity:1; fill:none" points="
  98.7402,347.732 103.375,351.969 108.01,356.206 112.645,360.443 117.28,364.68 121.915,368.917 126.55,373.154 131.185,377.392 135.82,381.629 140.456,385.866 
  145.091,390.103 149.726,394.34 154.361,398.577 158.996,402.814 163.631,407.051 168.266,410.814 172.901,413.481 177.536,416.148 182.171,418.815 186.806,421.482 
  191.441,424.149 196.076,426.816 200.711,429.483 205.346,432.15 209.981,435.025 214.616,438.302 219.251,441.579 223.886,444.857 228.521,448.134 233.156,451.411 
  237.791,454.688 242.426,457.965 247.061,461.243 251.696,464.52 256.331,467.797 260.967,471.074 265.602,474.351 270.237,477.629 274.872,480.906 279.507,484.183 
  284.142,487.46 288.777,490.737 293.412,494.015 298.047,497.292 302.682,500.569 307.317,503.846 311.952,507.123 316.587,510.401 321.222,513.678 325.857,516.955 
  330.492,520.232 335.127,523.509 339.762,526.787 344.397,530.064 349.032,533.341 353.667,536.618 358.302,539.895 362.937,543.173 367.572,546.45 372.207,549.727 
  376.843,553.004 381.478,556.281 386.113,559.559 390.748,562.836 395.383,566.113 400.018,569.39 404.653,572.667 409.288,575.945 413.923,579.222 418.558,582.499 
  423.193,585.776 427.828,589.054 432.463,592.331 437.098,595.608 441.733,598.885 446.368,602.162 451.003,605.44 455.638,608.717 460.273,611.994 464.908,615.271 
  469.543,618.548 474.178,621.826 478.813,625.103 483.448,628.38 488.083,631.657 492.719,634.934 497.354,638.212 501.989,641.489 506.624,644.766 511.259,648.043 
  515.894,651.32 520.529,654.598 525.164,657.875 529.799,661.152 534.434,664.429 539.069,667.706 543.704,670.984 548.339,674.261 552.974,677.538 557.609,680.815 
  562.244,684.092 566.879,687.37 571.514,690.647 576.149,693.182 580.784,695.531 585.419,697.879 590.054,700.228 594.689,702.577 599.324,704.926 603.959,707.275 
  608.594,709.624 613.23,711.973 617.865,714.321 622.5,716.67 627.135,719.019 631.77,721.368 636.405,723.717 641.04,726.066 645.675,728.415 650.31,730.764 
  654.945,733.112 659.58,735.461 664.215,737.81 668.85,740.159 673.485,742.508 678.12,744.857 682.755,747.206 687.39,749.554 692.025,751.903 696.66,754.252 
  701.295,756.601 705.93,758.95 710.565,761.299 715.2,763.983 719.835,766.964 724.47,769.945 729.106,772.927 733.741,775.908 738.376,778.889 743.011,781.87 
  747.646,784.851 752.281,787.832 756.916,790.813 761.551,793.794 766.186,796.776 770.821,799.757 775.456,802.738 780.091,805.719 784.726,808.7 789.361,811.681 
  793.996,814.662 798.631,817.644 803.266,820.625 807.901,823.606 812.536,826.587 817.171,829.568 821.806,832.549 826.441,835.53 831.076,838.512 835.711,841.493 
  840.346,844.474 844.981,847.455 849.617,850.436 854.252,853.417 858.887,856.398 863.522,859.379 868.157,862.361 872.792,865.342 877.427,868.323 882.062,871.304 
  886.697,874.285 891.332,877.266 895.967,880.247 900.602,883.229 905.237,886.21 909.872,889.191 914.507,892.172 919.142,895.153 923.777,898.134 928.412,901.115 
  933.047,904.096 937.682,907.078 942.317,910.059 946.952,913.04 951.587,916.021 956.222,919.002 960.857,921.983 965.493,924.964 970.128,927.946 974.763,930.927 
  979.398,933.908 984.033,936.889 988.668,939.87 993.303,942.851 997.938,945.832 1002.57,948.813 1007.21,951.795 1011.84,954.776 1016.48,957.757 1021.11,960.738 
  1025.75,963.719 1030.38,966.7 1035.02,969.681 1039.65,972.663 1044.29,975.644 1048.92,978.625 1053.56,981.606 1058.19,984.587 1062.83,987.568 1067.46,990.549 
  1072.1,993.53 1076.73,996.512 1081.37,999.493 1086,1002.47 1090.64,1005.45 1095.27,1008.44 1099.91,1011.42 1104.54,1014.4 1109.18,1017.38 1113.81,1020.36 
  1118.45,1023.34 1123.08,1026.32 1127.72,1029.3 1132.35,1032.29 1136.99,1035.27 1141.62,1038.25 1146.26,1041.23 1150.89,1044.21 1155.53,1047.19 1160.16,1050.17 
  1164.8,1053.15 1169.43,1056.13 1174.07,1059.12 1178.7,1062.1 1183.34,1065.08 1187.97,1068.06 1192.61,1071.04 1197.24,1074.02 1201.88,1077 1206.51,1079.98 
  1211.15,1082.96 1215.78,1085.95 1220.42,1088.93 1225.05,1091.91 1229.69,1094.89 1234.32,1097.87 1238.96,1100.85 1243.59,1103.83 1248.23,1106.81 1252.86,1109.79 
  1257.5,1112.78 1262.14,1115.76 1266.77,1118.74 1271.41,1121.72 1276.04,1124.7 1280.68,1127.68 1285.31,1130.66 1289.95,1133.64 1294.58,1136.62 1299.22,1139.61 
  1303.85,1142.59 1308.49,1145.57 1313.12,1148.55 1317.76,1151.53 1322.39,1154.51 1327.03,1157.49 1331.66,1160.47 1336.3,1163.46 1340.93,1166.44 1345.57,1169.42 
  1350.2,1172.4 1354.84,1175.38 1359.47,1178.36 1364.11,1181.34 1368.74,1184.32 1373.38,1187.3 1378.01,1190.29 1382.65,1193.27 1387.28,1196.25 1391.92,1199.23 
  1396.55,1202.21 1401.19,1205.19 1405.82,1208.17 1410.46,1211.15 1415.09,1214.13 1419.73,1217.12 1424.36,1220.1 1429,1223.08 1433.63,1226.06 1438.27,1229.04 
  1442.9,1232.02 1447.54,1235 1452.17,1237.98 1456.81,1240.96 1461.44,1243.95 1466.08,1246.93 1470.71,1249.91 1475.35,1252.89 1479.98,1255.87 1484.62,1258.85 
  1489.25,1261.83 1493.89,1264.81 1498.52,1267.79 1503.16,1270.78 1507.79,1273.76 1512.43,1276.74 1517.06,1279.72 1521.7,1282.7 1526.33,1283.25 1530.97,1283.25 
  1535.6,1283.25 1540.24,1283.25 1544.87,1283.25 1549.51,1283.25 1554.14,1283.25 1558.78,1283.25 1563.41,1283.25 1568.05,1283.25 1572.68,1283.25 1577.32,1283.25 
  1581.95,1283.25 1586.59,1283.25 1591.22,1283.25 1595.86,1283.25 1600.49,1283.25 1605.13,1283.25 1609.76,1283.25 1614.4,1283.25 1619.03,1283.25 1623.67,1283.25 
  1628.3,1283.25 1632.94,1283.25 1637.57,1283.25 1642.21,1283.25 1646.84,1283.25 1651.48,1283.25 1656.11,1283.25 1660.75,1283.25 1665.38,1283.25 1670.02,1283.25 
  1674.65,1283.25 1679.29,1283.25 1683.92,1283.25 1688.56,1283.25 1693.19,1283.25 1697.83,1283.25 1702.46,1283.25 1707.1,1283.25 1711.73,1283.25 1716.37,1283.25 
  1721,1283.25 1725.64,1283.25 1730.27,1283.25 1734.91,1283.25 1739.54,1283.25 1744.18,1283.25 1748.81,1283.25 1753.45,1283.25 1758.08,1283.25 1762.72,1283.25 
  1767.35,1283.25 1771.99,1283.25 1776.62,1283.25 1781.26,1283.25 1785.89,1283.25 1790.53,1283.25 1795.16,1283.25 1799.8,1283.25 1804.43,1283.25 1809.07,1283.25 
  1813.7,1283.25 1818.34,1283.25 1822.97,1283.25 1827.61,1283.25 1832.24,1283.25 1836.88,1283.25 1841.51,1283.25 1846.15,1283.25 1850.79,1283.25 1855.42,1283.25 
  1860.06,1283.25 1864.69,1283.25 1869.33,1283.25 1873.96,1283.25 1878.6,1283.25 1883.23,1283.25 1887.87,1283.25 1892.5,1283.25 1897.14,1283.25 1901.77,1283.25 
  1906.41,1283.25 1911.04,1283.25 1915.68,1283.25 1920.31,1283.25 1924.95,1283.25 1929.58,1283.25 1934.22,1283.25 1938.85,1283.25 1943.49,1283.25 1948.12,1283.25 
  1952.76,1283.25 
  "/>
<polyline clip-path="url(#clip242)" style="stroke:#e26f46; stroke-width:4; stroke-opacity:1; fill:none" points="
  98.7402,1779.5 103.375,1771.6 108.01,1763.7 112.645,1755.79 117.28,1747.89 121.915,1739.99 126.55,1732.09 131.185,1724.19 135.82,1716.29 140.456,1708.38 
  145.091,1700.48 149.726,1692.58 154.361,1684.68 158.996,1676.78 163.631,1668.88 168.266,1660.65 172.901,1651.68 177.536,1642.72 182.171,1633.75 186.806,1624.78 
  191.441,1615.81 196.076,1606.84 200.711,1597.87 205.346,1588.91 209.981,1581.48 214.616,1577.04 219.251,1572.6 223.886,1568.16 228.521,1563.72 233.156,1559.29 
  237.791,1554.85 242.426,1550.41 247.061,1545.97 251.696,1541.53 256.331,1537.09 260.967,1532.65 265.602,1528.21 270.237,1523.77 274.872,1519.34 279.507,1514.9 
  284.142,1510.46 288.777,1506.02 293.412,1501.58 298.047,1497.14 302.682,1492.7 307.317,1488.26 311.952,1483.83 316.587,1479.39 321.222,1474.95 325.857,1470.51 
  330.492,1466.07 335.127,1461.63 339.762,1457.19 344.397,1452.75 349.032,1448.31 353.667,1443.88 358.302,1439.44 362.937,1435 367.572,1430.56 372.207,1426.12 
  376.843,1421.68 381.478,1417.24 386.113,1412.8 390.748,1408.36 395.383,1403.93 400.018,1399.49 404.653,1395.05 409.288,1390.61 413.923,1386.17 418.558,1381.73 
  423.193,1377.29 427.828,1372.85 432.463,1368.42 437.098,1363.98 441.733,1359.54 446.368,1355.1 451.003,1350.66 455.638,1346.22 460.273,1341.78 464.908,1337.34 
  469.543,1332.9 474.178,1328.47 478.813,1324.03 483.448,1319.59 488.083,1315.15 492.719,1310.71 497.354,1306.27 501.989,1301.83 506.624,1297.39 511.259,1292.95 
  515.894,1288.52 520.529,1284.08 525.164,1283.25 529.799,1283.25 534.434,1283.25 539.069,1283.25 543.704,1283.25 548.339,1283.25 552.974,1283.25 557.609,1283.25 
  562.244,1283.25 566.879,1283.25 571.514,1283.25 576.149,1283.25 580.784,1283.25 585.419,1283.25 590.054,1283.25 594.689,1283.25 599.324,1283.25 603.959,1283.25 
  608.594,1283.25 613.23,1283.25 617.865,1283.25 622.5,1283.25 627.135,1283.25 631.77,1283.25 636.405,1283.25 641.04,1283.25 645.675,1283.25 650.31,1283.25 
  654.945,1283.25 659.58,1283.25 664.215,1283.25 668.85,1283.25 673.485,1283.25 678.12,1283.25 682.755,1283.25 687.39,1283.25 692.025,1283.25 696.66,1283.25 
  701.295,1283.25 705.93,1283.25 710.565,1283.25 715.2,1283.25 719.835,1283.25 724.47,1283.25 729.106,1283.25 733.741,1283.25 738.376,1283.25 743.011,1283.25 
  747.646,1283.25 752.281,1283.25 756.916,1283.25 761.551,1283.25 766.186,1283.25 770.821,1283.25 775.456,1283.25 780.091,1283.25 784.726,1283.25 789.361,1283.25 
  793.996,1283.25 798.631,1283.25 803.266,1283.25 807.901,1283.25 812.536,1283.25 817.171,1283.25 821.806,1283.25 826.441,1283.25 831.076,1283.25 835.711,1283.25 
  840.346,1283.25 844.981,1283.25 849.617,1283.25 854.252,1283.25 858.887,1283.25 863.522,1283.25 868.157,1283.25 872.792,1283.25 877.427,1283.25 882.062,1283.25 
  886.697,1283.25 891.332,1283.25 895.967,1283.25 900.602,1283.25 905.237,1283.25 909.872,1283.25 914.507,1283.25 919.142,1283.25 923.777,1283.25 928.412,1283.25 
  933.047,1283.25 937.682,1283.25 942.317,1283.25 946.952,1283.25 951.587,1283.25 956.222,1283.25 960.857,1283.25 965.493,1283.25 970.128,1283.25 974.763,1283.25 
  979.398,1283.25 984.033,1283.25 988.668,1283.25 993.303,1283.25 997.938,1283.25 1002.57,1283.25 1007.21,1283.25 1011.84,1283.25 1016.48,1283.25 1021.11,1283.25 
  1025.75,1283.25 1030.38,1283.25 1035.02,1283.25 1039.65,1283.25 1044.29,1283.25 1048.92,1283.25 1053.56,1283.25 1058.19,1283.25 1062.83,1283.25 1067.46,1283.25 
  1072.1,1283.25 1076.73,1283.25 1081.37,1283.25 1086,1283.25 1090.64,1283.25 1095.27,1283.25 1099.91,1283.25 1104.54,1283.25 1109.18,1283.25 1113.81,1283.25 
  1118.45,1283.25 1123.08,1283.25 1127.72,1283.25 1132.35,1283.25 1136.99,1283.25 1141.62,1283.25 1146.26,1283.25 1150.89,1283.25 1155.53,1283.25 1160.16,1283.25 
  1164.8,1283.25 1169.43,1283.25 1174.07,1283.25 1178.7,1283.25 1183.34,1283.25 1187.97,1283.25 1192.61,1283.25 1197.24,1283.25 1201.88,1283.25 1206.51,1283.25 
  1211.15,1283.25 1215.78,1283.25 1220.42,1283.25 1225.05,1283.25 1229.69,1283.25 1234.32,1283.25 1238.96,1283.25 1243.59,1283.25 1248.23,1283.25 1252.86,1283.25 
  1257.5,1283.25 1262.14,1283.25 1266.77,1283.25 1271.41,1283.25 1276.04,1283.25 1280.68,1283.25 1285.31,1283.25 1289.95,1283.25 1294.58,1283.25 1299.22,1283.25 
  1303.85,1283.25 1308.49,1283.25 1313.12,1283.25 1317.76,1283.25 1322.39,1283.25 1327.03,1283.25 1331.66,1283.25 1336.3,1283.25 1340.93,1283.25 1345.57,1283.25 
  1350.2,1283.25 1354.84,1283.25 1359.47,1283.25 1364.11,1283.25 1368.74,1283.25 1373.38,1283.25 1378.01,1283.25 1382.65,1283.25 1387.28,1283.25 1391.92,1283.25 
  1396.55,1283.25 1401.19,1283.25 1405.82,1283.25 1410.46,1283.25 1415.09,1283.25 1419.73,1283.25 1424.36,1283.25 1429,1283.25 1433.63,1283.25 1438.27,1283.25 
  1442.9,1283.25 1447.54,1283.25 1452.17,1283.25 1456.81,1283.25 1461.44,1283.25 1466.08,1283.25 1470.71,1283.25 1475.35,1283.25 1479.98,1283.25 1484.62,1283.25 
  1489.25,1283.25 1493.89,1283.25 1498.52,1283.25 1503.16,1283.25 1507.79,1283.25 1512.43,1283.25 1517.06,1283.25 1521.7,1283.25 1526.33,1283.25 1530.97,1283.25 
  1535.6,1283.25 1540.24,1283.25 1544.87,1283.25 1549.51,1283.25 1554.14,1283.25 1558.78,1283.25 1563.41,1283.25 1568.05,1283.25 1572.68,1283.25 1577.32,1283.25 
  1581.95,1283.25 1586.59,1283.25 1591.22,1283.25 1595.86,1283.25 1600.49,1283.25 1605.13,1283.25 1609.76,1283.25 1614.4,1283.25 1619.03,1283.25 1623.67,1283.25 
  1628.3,1283.25 1632.94,1283.25 1637.57,1283.25 1642.21,1283.25 1646.84,1283.25 1651.48,1283.25 1656.11,1283.25 1660.75,1283.25 1665.38,1283.25 1670.02,1283.25 
  1674.65,1283.25 1679.29,1283.25 1683.92,1283.25 1688.56,1283.25 1693.19,1283.25 1697.83,1283.25 1702.46,1283.25 1707.1,1283.25 1711.73,1283.25 1716.37,1283.25 
  1721,1283.25 1725.64,1283.25 1730.27,1283.25 1734.91,1283.25 1739.54,1283.25 1744.18,1283.25 1748.81,1283.25 1753.45,1283.25 1758.08,1283.25 1762.72,1283.25 
  1767.35,1283.25 1771.99,1283.25 1776.62,1283.25 1781.26,1283.25 1785.89,1283.25 1790.53,1283.25 1795.16,1283.25 1799.8,1283.25 1804.43,1283.25 1809.07,1283.25 
  1813.7,1283.25 1818.34,1283.25 1822.97,1283.25 1827.61,1283.25 1832.24,1283.25 1836.88,1283.25 1841.51,1283.25 1846.15,1283.25 1850.79,1283.25 1855.42,1283.25 
  1860.06,1283.25 1864.69,1283.25 1869.33,1283.25 1873.96,1283.25 1878.6,1283.25 1883.23,1283.25 1887.87,1283.25 1892.5,1283.25 1897.14,1283.25 1901.77,1283.25 
  1906.41,1283.25 1911.04,1283.25 1915.68,1283.25 1920.31,1283.25 1924.95,1283.25 1929.58,1283.25 1934.22,1283.25 1938.85,1283.25 1943.49,1283.25 1948.12,1283.25 
  1952.76,1283.25 
  "/>
<polyline clip-path="url(#clip242)" style="stroke:#3da44d; stroke-width:4; stroke-opacity:1; fill:none" points="
  98.7402,913.281 103.375,919.44 108.01,925.599 112.645,931.758 117.28,937.917 121.915,944.075 126.55,950.234 131.185,956.393 135.82,962.552 140.456,968.711 
  145.091,974.869 149.726,981.028 154.361,987.187 158.996,993.346 163.631,999.505 168.266,1004.69 172.901,1007.63 177.536,1010.57 182.171,1013.51 186.806,1016.45 
  191.441,1019.39 196.076,1022.33 200.711,1025.28 205.346,1028.22 209.981,1030.39 214.616,1031.06 219.251,1031.74 223.886,1032.42 228.521,1033.1 233.156,1033.78 
  237.791,1034.46 242.426,1035.14 247.061,1035.81 251.696,1036.49 256.331,1037.17 260.967,1037.85 265.602,1038.53 270.237,1039.21 274.872,1039.88 279.507,1040.56 
  284.142,1041.24 288.777,1041.92 293.412,1042.6 298.047,1043.28 302.682,1043.96 307.317,1044.63 311.952,1045.31 316.587,1045.99 321.222,1046.67 325.857,1047.35 
  330.492,1048.03 335.127,1048.71 339.762,1049.38 344.397,1050.06 349.032,1050.74 353.667,1051.42 358.302,1052.1 362.937,1052.78 367.572,1053.45 372.207,1054.13 
  376.843,1054.81 381.478,1055.49 386.113,1056.17 390.748,1056.85 395.383,1057.53 400.018,1058.2 404.653,1058.88 409.288,1059.56 413.923,1060.24 418.558,1060.92 
  423.193,1061.6 427.828,1062.28 432.463,1062.95 437.098,1063.63 441.733,1064.31 446.368,1064.99 451.003,1065.67 455.638,1066.35 460.273,1067.02 464.908,1067.7 
  469.543,1068.38 474.178,1069.06 478.813,1069.74 483.448,1070.42 488.083,1071.1 492.719,1071.77 497.354,1072.45 501.989,1073.13 506.624,1073.81 511.259,1074.49 
  515.894,1075.17 520.529,1075.85 525.164,1079.67 529.799,1084.22 534.434,1088.76 539.069,1093.31 543.704,1097.85 548.339,1102.39 552.974,1106.94 557.609,1111.48 
  562.244,1116.03 566.879,1120.57 571.514,1125.12 576.149,1130.18 580.784,1135.37 585.419,1140.57 590.054,1145.76 594.689,1150.96 599.324,1156.15 603.959,1161.35 
  608.594,1166.54 613.23,1171.73 617.865,1176.93 622.5,1182.12 627.135,1187.32 631.77,1192.51 636.405,1197.71 641.04,1202.9 645.675,1208.1 650.31,1213.29 
  654.945,1218.48 659.58,1223.68 664.215,1228.87 668.85,1234.07 673.485,1239.26 678.12,1244.46 682.755,1249.65 687.39,1254.84 692.025,1260.04 696.66,1265.23 
  701.295,1270.43 705.93,1275.62 710.565,1280.82 715.2,1283.25 719.835,1283.25 724.47,1283.25 729.106,1283.25 733.741,1283.25 738.376,1283.25 743.011,1283.25 
  747.646,1283.25 752.281,1283.25 756.916,1283.25 761.551,1283.25 766.186,1283.25 770.821,1283.25 775.456,1283.25 780.091,1283.25 784.726,1283.25 789.361,1283.25 
  793.996,1283.25 798.631,1283.25 803.266,1283.25 807.901,1283.25 812.536,1283.25 817.171,1283.25 821.806,1283.25 826.441,1283.25 831.076,1283.25 835.711,1283.25 
  840.346,1283.25 844.981,1283.25 849.617,1283.25 854.252,1283.25 858.887,1283.25 863.522,1283.25 868.157,1283.25 872.792,1283.25 877.427,1283.25 882.062,1283.25 
  886.697,1283.25 891.332,1283.25 895.967,1283.25 900.602,1283.25 905.237,1283.25 909.872,1283.25 914.507,1283.25 919.142,1283.25 923.777,1283.25 928.412,1283.25 
  933.047,1283.25 937.682,1283.25 942.317,1283.25 946.952,1283.25 951.587,1283.25 956.222,1283.25 960.857,1283.25 965.493,1283.25 970.128,1283.25 974.763,1283.25 
  979.398,1283.25 984.033,1283.25 988.668,1283.25 993.303,1283.25 997.938,1283.25 1002.57,1283.25 1007.21,1283.25 1011.84,1283.25 1016.48,1283.25 1021.11,1283.25 
  1025.75,1283.25 1030.38,1283.25 1035.02,1283.25 1039.65,1283.25 1044.29,1283.25 1048.92,1283.25 1053.56,1283.25 1058.19,1283.25 1062.83,1283.25 1067.46,1283.25 
  1072.1,1283.25 1076.73,1283.25 1081.37,1283.25 1086,1283.25 1090.64,1283.25 1095.27,1283.25 1099.91,1283.25 1104.54,1283.25 1109.18,1283.25 1113.81,1283.25 
  1118.45,1283.25 1123.08,1283.25 1127.72,1283.25 1132.35,1283.25 1136.99,1283.25 1141.62,1283.25 1146.26,1283.25 1150.89,1283.25 1155.53,1283.25 1160.16,1283.25 
  1164.8,1283.25 1169.43,1283.25 1174.07,1283.25 1178.7,1283.25 1183.34,1283.25 1187.97,1283.25 1192.61,1283.25 1197.24,1283.25 1201.88,1283.25 1206.51,1283.25 
  1211.15,1283.25 1215.78,1283.25 1220.42,1283.25 1225.05,1283.25 1229.69,1283.25 1234.32,1283.25 1238.96,1283.25 1243.59,1283.25 1248.23,1283.25 1252.86,1283.25 
  1257.5,1283.25 1262.14,1283.25 1266.77,1283.25 1271.41,1283.25 1276.04,1283.25 1280.68,1283.25 1285.31,1283.25 1289.95,1283.25 1294.58,1283.25 1299.22,1283.25 
  1303.85,1283.25 1308.49,1283.25 1313.12,1283.25 1317.76,1283.25 1322.39,1283.25 1327.03,1283.25 1331.66,1283.25 1336.3,1283.25 1340.93,1283.25 1345.57,1283.25 
  1350.2,1283.25 1354.84,1283.25 1359.47,1283.25 1364.11,1283.25 1368.74,1283.25 1373.38,1283.25 1378.01,1283.25 1382.65,1283.25 1387.28,1283.25 1391.92,1283.25 
  1396.55,1283.25 1401.19,1283.25 1405.82,1283.25 1410.46,1283.25 1415.09,1283.25 1419.73,1283.25 1424.36,1283.25 1429,1283.25 1433.63,1283.25 1438.27,1283.25 
  1442.9,1283.25 1447.54,1283.25 1452.17,1283.25 1456.81,1283.25 1461.44,1283.25 1466.08,1283.25 1470.71,1283.25 1475.35,1283.25 1479.98,1283.25 1484.62,1283.25 
  1489.25,1283.25 1493.89,1283.25 1498.52,1283.25 1503.16,1283.25 1507.79,1283.25 1512.43,1283.25 1517.06,1283.25 1521.7,1283.25 1526.33,1283.25 1530.97,1283.25 
  1535.6,1283.25 1540.24,1283.25 1544.87,1283.25 1549.51,1283.25 1554.14,1283.25 1558.78,1283.25 1563.41,1283.25 1568.05,1283.25 1572.68,1283.25 1577.32,1283.25 
  1581.95,1283.25 1586.59,1283.25 1591.22,1283.25 1595.86,1283.25 1600.49,1283.25 1605.13,1283.25 1609.76,1283.25 1614.4,1283.25 1619.03,1283.25 1623.67,1283.25 
  1628.3,1283.25 1632.94,1283.25 1637.57,1283.25 1642.21,1283.25 1646.84,1283.25 1651.48,1283.25 1656.11,1283.25 1660.75,1283.25 1665.38,1283.25 1670.02,1283.25 
  1674.65,1283.25 1679.29,1283.25 1683.92,1283.25 1688.56,1283.25 1693.19,1283.25 1697.83,1283.25 1702.46,1283.25 1707.1,1283.25 1711.73,1283.25 1716.37,1283.25 
  1721,1283.25 1725.64,1283.25 1730.27,1283.25 1734.91,1283.25 1739.54,1283.25 1744.18,1283.25 1748.81,1283.25 1753.45,1283.25 1758.08,1283.25 1762.72,1283.25 
  1767.35,1283.25 1771.99,1283.25 1776.62,1283.25 1781.26,1283.25 1785.89,1283.25 1790.53,1283.25 1795.16,1283.25 1799.8,1283.25 1804.43,1283.25 1809.07,1283.25 
  1813.7,1283.25 1818.34,1283.25 1822.97,1283.25 1827.61,1283.25 1832.24,1283.25 1836.88,1283.25 1841.51,1283.25 1846.15,1283.25 1850.79,1283.25 1855.42,1283.25 
  1860.06,1283.25 1864.69,1283.25 1869.33,1283.25 1873.96,1283.25 1878.6,1283.25 1883.23,1283.25 1887.87,1283.25 1892.5,1283.25 1897.14,1283.25 1901.77,1283.25 
  1906.41,1283.25 1911.04,1283.25 1915.68,1283.25 1920.31,1283.25 1924.95,1283.25 1929.58,1283.25 1934.22,1283.25 1938.85,1283.25 1943.49,1283.25 1948.12,1283.25 
  1952.76,1283.25 
  "/>
<polyline clip-path="url(#clip242)" style="stroke:#c271d2; stroke-width:4; stroke-opacity:1; fill:none" points="
  98.7402,1217.42 103.375,1222.5 108.01,1227.58 112.645,1232.66 117.28,1237.74 121.915,1242.82 126.55,1247.91 131.185,1252.99 135.82,1258.07 140.456,1263.15 
  145.091,1268.23 149.726,1273.31 154.361,1278.39 158.996,1283.25 163.631,1283.25 168.266,1283.25 172.901,1283.25 177.536,1283.25 182.171,1283.25 186.806,1283.25 
  191.441,1283.25 196.076,1283.25 200.711,1283.25 205.346,1283.25 209.981,1283.25 214.616,1283.25 219.251,1283.25 223.886,1283.25 228.521,1283.25 233.156,1283.25 
  237.791,1283.25 242.426,1283.25 247.061,1283.25 251.696,1283.25 256.331,1283.25 260.967,1283.25 265.602,1283.25 270.237,1283.25 274.872,1283.25 279.507,1283.25 
  284.142,1283.25 288.777,1283.25 293.412,1283.25 298.047,1283.25 302.682,1283.25 307.317,1283.25 311.952,1283.25 316.587,1283.25 321.222,1283.25 325.857,1283.25 
  330.492,1283.25 335.127,1283.25 339.762,1283.25 344.397,1283.25 349.032,1283.25 353.667,1283.25 358.302,1283.25 362.937,1283.25 367.572,1283.25 372.207,1283.25 
  376.843,1283.25 381.478,1283.25 386.113,1283.25 390.748,1283.25 395.383,1283.25 400.018,1283.25 404.653,1283.25 409.288,1283.25 413.923,1283.25 418.558,1283.25 
  423.193,1283.25 427.828,1283.25 432.463,1283.25 437.098,1283.25 441.733,1283.25 446.368,1283.25 451.003,1283.25 455.638,1283.25 460.273,1283.25 464.908,1283.25 
  469.543,1283.25 474.178,1283.25 478.813,1283.25 483.448,1283.25 488.083,1283.25 492.719,1283.25 497.354,1283.25 501.989,1283.25 506.624,1283.25 511.259,1283.25 
  515.894,1283.25 520.529,1283.25 525.164,1283.25 529.799,1283.25 534.434,1283.25 539.069,1283.25 543.704,1283.25 548.339,1283.25 552.974,1283.25 557.609,1283.25 
  562.244,1283.25 566.879,1283.25 571.514,1283.25 576.149,1283.25 580.784,1283.25 585.419,1283.25 590.054,1283.25 594.689,1283.25 599.324,1283.25 603.959,1283.25 
  608.594,1283.25 613.23,1283.25 617.865,1283.25 622.5,1283.25 627.135,1283.25 631.77,1283.25 636.405,1283.25 641.04,1283.25 645.675,1283.25 650.31,1283.25 
  654.945,1283.25 659.58,1283.25 664.215,1283.25 668.85,1283.25 673.485,1283.25 678.12,1283.25 682.755,1283.25 687.39,1283.25 692.025,1283.25 696.66,1283.25 
  701.295,1283.25 705.93,1283.25 710.565,1283.25 715.2,1283.25 719.835,1283.25 724.47,1283.25 729.106,1283.25 733.741,1283.25 738.376,1283.25 743.011,1283.25 
  747.646,1283.25 752.281,1283.25 756.916,1283.25 761.551,1283.25 766.186,1283.25 770.821,1283.25 775.456,1283.25 780.091,1283.25 784.726,1283.25 789.361,1283.25 
  793.996,1283.25 798.631,1283.25 803.266,1283.25 807.901,1283.25 812.536,1283.25 817.171,1283.25 821.806,1283.25 826.441,1283.25 831.076,1283.25 835.711,1283.25 
  840.346,1283.25 844.981,1283.25 849.617,1283.25 854.252,1283.25 858.887,1283.25 863.522,1283.25 868.157,1283.25 872.792,1283.25 877.427,1283.25 882.062,1283.25 
  886.697,1283.25 891.332,1283.25 895.967,1283.25 900.602,1283.25 905.237,1283.25 909.872,1283.25 914.507,1283.25 919.142,1283.25 923.777,1283.25 928.412,1283.25 
  933.047,1283.25 937.682,1283.25 942.317,1283.25 946.952,1283.25 951.587,1283.25 956.222,1283.25 960.857,1283.25 965.493,1283.25 970.128,1283.25 974.763,1283.25 
  979.398,1283.25 984.033,1283.25 988.668,1283.25 993.303,1283.25 997.938,1283.25 1002.57,1283.25 1007.21,1283.25 1011.84,1283.25 1016.48,1283.25 1021.11,1283.25 
  1025.75,1283.25 1030.38,1283.25 1035.02,1283.25 1039.65,1283.25 1044.29,1283.25 1048.92,1283.25 1053.56,1283.25 1058.19,1283.25 1062.83,1283.25 1067.46,1283.25 
  1072.1,1283.25 1076.73,1283.25 1081.37,1283.25 1086,1283.25 1090.64,1283.25 1095.27,1283.25 1099.91,1283.25 1104.54,1283.25 1109.18,1283.25 1113.81,1283.25 
  1118.45,1283.25 1123.08,1283.25 1127.72,1283.25 1132.35,1283.25 1136.99,1283.25 1141.62,1283.25 1146.26,1283.25 1150.89,1283.25 1155.53,1283.25 1160.16,1283.25 
  1164.8,1283.25 1169.43,1283.25 1174.07,1283.25 1178.7,1283.25 1183.34,1283.25 1187.97,1283.25 1192.61,1283.25 1197.24,1283.25 1201.88,1283.25 1206.51,1283.25 
  1211.15,1283.25 1215.78,1283.25 1220.42,1283.25 1225.05,1283.25 1229.69,1283.25 1234.32,1283.25 1238.96,1283.25 1243.59,1283.25 1248.23,1283.25 1252.86,1283.25 
  1257.5,1283.25 1262.14,1283.25 1266.77,1283.25 1271.41,1283.25 1276.04,1283.25 1280.68,1283.25 1285.31,1283.25 1289.95,1283.25 1294.58,1283.25 1299.22,1283.25 
  1303.85,1283.25 1308.49,1283.25 1313.12,1283.25 1317.76,1283.25 1322.39,1283.25 1327.03,1283.25 1331.66,1283.25 1336.3,1283.25 1340.93,1283.25 1345.57,1283.25 
  1350.2,1283.25 1354.84,1283.25 1359.47,1283.25 1364.11,1283.25 1368.74,1283.25 1373.38,1283.25 1378.01,1283.25 1382.65,1283.25 1387.28,1283.25 1391.92,1283.25 
  1396.55,1283.25 1401.19,1283.25 1405.82,1283.25 1410.46,1283.25 1415.09,1283.25 1419.73,1283.25 1424.36,1283.25 1429,1283.25 1433.63,1283.25 1438.27,1283.25 
  1442.9,1283.25 1447.54,1283.25 1452.17,1283.25 1456.81,1283.25 1461.44,1283.25 1466.08,1283.25 1470.71,1283.25 1475.35,1283.25 1479.98,1283.25 1484.62,1283.25 
  1489.25,1283.25 1493.89,1283.25 1498.52,1283.25 1503.16,1283.25 1507.79,1283.25 1512.43,1283.25 1517.06,1283.25 1521.7,1283.25 1526.33,1283.25 1530.97,1283.25 
  1535.6,1283.25 1540.24,1283.25 1544.87,1283.25 1549.51,1283.25 1554.14,1283.25 1558.78,1283.25 1563.41,1283.25 1568.05,1283.25 1572.68,1283.25 1577.32,1283.25 
  1581.95,1283.25 1586.59,1283.25 1591.22,1283.25 1595.86,1283.25 1600.49,1283.25 1605.13,1283.25 1609.76,1283.25 1614.4,1283.25 1619.03,1283.25 1623.67,1283.25 
  1628.3,1283.25 1632.94,1283.25 1637.57,1283.25 1642.21,1283.25 1646.84,1283.25 1651.48,1283.25 1656.11,1283.25 1660.75,1283.25 1665.38,1283.25 1670.02,1283.25 
  1674.65,1283.25 1679.29,1283.25 1683.92,1283.25 1688.56,1283.25 1693.19,1283.25 1697.83,1283.25 1702.46,1283.25 1707.1,1283.25 1711.73,1283.25 1716.37,1283.25 
  1721,1283.25 1725.64,1283.25 1730.27,1283.25 1734.91,1283.25 1739.54,1283.25 1744.18,1283.25 1748.81,1283.25 1753.45,1283.25 1758.08,1283.25 1762.72,1283.25 
  1767.35,1283.25 1771.99,1283.25 1776.62,1283.25 1781.26,1283.25 1785.89,1283.25 1790.53,1283.25 1795.16,1283.25 1799.8,1283.25 1804.43,1283.25 1809.07,1283.25 
  1813.7,1283.25 1818.34,1283.25 1822.97,1283.25 1827.61,1283.25 1832.24,1283.25 1836.88,1283.25 1841.51,1283.25 1846.15,1283.25 1850.79,1283.25 1855.42,1283.25 
  1860.06,1283.25 1864.69,1283.25 1869.33,1283.25 1873.96,1283.25 1878.6,1283.25 1883.23,1283.25 1887.87,1283.25 1892.5,1283.25 1897.14,1283.25 1901.77,1283.25 
  1906.41,1283.25 1911.04,1283.25 1915.68,1283.25 1920.31,1283.25 1924.95,1283.25 1929.58,1283.25 1934.22,1283.25 1938.85,1283.25 1943.49,1283.25 1948.12,1283.25 
  1952.76,1283.25 
  "/>
<polyline clip-path="url(#clip242)" style="stroke:#ac8d18; stroke-width:4; stroke-opacity:1; fill:none" points="
  98.7402,962.012 103.375,973.973 108.01,985.935 112.645,997.897 117.28,1009.86 121.915,1021.82 126.55,1033.78 131.185,1045.74 135.82,1057.71 140.456,1069.67 
  145.091,1081.63 149.726,1093.59 154.361,1105.55 158.996,1117.87 163.631,1138.29 168.266,1158.71 172.901,1179.12 177.536,1199.53 182.171,1219.94 186.806,1240.36 
  191.441,1260.77 196.076,1281.18 200.711,1283.25 205.346,1283.25 209.981,1283.25 214.616,1283.25 219.251,1283.25 223.886,1283.25 228.521,1283.25 233.156,1283.25 
  237.791,1283.25 242.426,1283.25 247.061,1283.25 251.696,1283.25 256.331,1283.25 260.967,1283.25 265.602,1283.25 270.237,1283.25 274.872,1283.25 279.507,1283.25 
  284.142,1283.25 288.777,1283.25 293.412,1283.25 298.047,1283.25 302.682,1283.25 307.317,1283.25 311.952,1283.25 316.587,1283.25 321.222,1283.25 325.857,1283.25 
  330.492,1283.25 335.127,1283.25 339.762,1283.25 344.397,1283.25 349.032,1283.25 353.667,1283.25 358.302,1283.25 362.937,1283.25 367.572,1283.25 372.207,1283.25 
  376.843,1283.25 381.478,1283.25 386.113,1283.25 390.748,1283.25 395.383,1283.25 400.018,1283.25 404.653,1283.25 409.288,1283.25 413.923,1283.25 418.558,1283.25 
  423.193,1283.25 427.828,1283.25 432.463,1283.25 437.098,1283.25 441.733,1283.25 446.368,1283.25 451.003,1283.25 455.638,1283.25 460.273,1283.25 464.908,1283.25 
  469.543,1283.25 474.178,1283.25 478.813,1283.25 483.448,1283.25 488.083,1283.25 492.719,1283.25 497.354,1283.25 501.989,1283.25 506.624,1283.25 511.259,1283.25 
  515.894,1283.25 520.529,1283.25 525.164,1283.25 529.799,1283.25 534.434,1283.25 539.069,1283.25 543.704,1283.25 548.339,1283.25 552.974,1283.25 557.609,1283.25 
  562.244,1283.25 566.879,1283.25 571.514,1283.25 576.149,1283.25 580.784,1283.25 585.419,1283.25 590.054,1283.25 594.689,1283.25 599.324,1283.25 603.959,1283.25 
  608.594,1283.25 613.23,1283.25 617.865,1283.25 622.5,1283.25 627.135,1283.25 631.77,1283.25 636.405,1283.25 641.04,1283.25 645.675,1283.25 650.31,1283.25 
  654.945,1283.25 659.58,1283.25 664.215,1283.25 668.85,1283.25 673.485,1283.25 678.12,1283.25 682.755,1283.25 687.39,1283.25 692.025,1283.25 696.66,1283.25 
  701.295,1283.25 705.93,1283.25 710.565,1283.25 715.2,1283.25 719.835,1283.25 724.47,1283.25 729.106,1283.25 733.741,1283.25 738.376,1283.25 743.011,1283.25 
  747.646,1283.25 752.281,1283.25 756.916,1283.25 761.551,1283.25 766.186,1283.25 770.821,1283.25 775.456,1283.25 780.091,1283.25 784.726,1283.25 789.361,1283.25 
  793.996,1283.25 798.631,1283.25 803.266,1283.25 807.901,1283.25 812.536,1283.25 817.171,1283.25 821.806,1283.25 826.441,1283.25 831.076,1283.25 835.711,1283.25 
  840.346,1283.25 844.981,1283.25 849.617,1283.25 854.252,1283.25 858.887,1283.25 863.522,1283.25 868.157,1283.25 872.792,1283.25 877.427,1283.25 882.062,1283.25 
  886.697,1283.25 891.332,1283.25 895.967,1283.25 900.602,1283.25 905.237,1283.25 909.872,1283.25 914.507,1283.25 919.142,1283.25 923.777,1283.25 928.412,1283.25 
  933.047,1283.25 937.682,1283.25 942.317,1283.25 946.952,1283.25 951.587,1283.25 956.222,1283.25 960.857,1283.25 965.493,1283.25 970.128,1283.25 974.763,1283.25 
  979.398,1283.25 984.033,1283.25 988.668,1283.25 993.303,1283.25 997.938,1283.25 1002.57,1283.25 1007.21,1283.25 1011.84,1283.25 1016.48,1283.25 1021.11,1283.25 
  1025.75,1283.25 1030.38,1283.25 1035.02,1283.25 1039.65,1283.25 1044.29,1283.25 1048.92,1283.25 1053.56,1283.25 1058.19,1283.25 1062.83,1283.25 1067.46,1283.25 
  1072.1,1283.25 1076.73,1283.25 1081.37,1283.25 1086,1283.25 1090.64,1283.25 1095.27,1283.25 1099.91,1283.25 1104.54,1283.25 1109.18,1283.25 1113.81,1283.25 
  1118.45,1283.25 1123.08,1283.25 1127.72,1283.25 1132.35,1283.25 1136.99,1283.25 1141.62,1283.25 1146.26,1283.25 1150.89,1283.25 1155.53,1283.25 1160.16,1283.25 
  1164.8,1283.25 1169.43,1283.25 1174.07,1283.25 1178.7,1283.25 1183.34,1283.25 1187.97,1283.25 1192.61,1283.25 1197.24,1283.25 1201.88,1283.25 1206.51,1283.25 
  1211.15,1283.25 1215.78,1283.25 1220.42,1283.25 1225.05,1283.25 1229.69,1283.25 1234.32,1283.25 1238.96,1283.25 1243.59,1283.25 1248.23,1283.25 1252.86,1283.25 
  1257.5,1283.25 1262.14,1283.25 1266.77,1283.25 1271.41,1283.25 1276.04,1283.25 1280.68,1283.25 1285.31,1283.25 1289.95,1283.25 1294.58,1283.25 1299.22,1283.25 
  1303.85,1283.25 1308.49,1283.25 1313.12,1283.25 1317.76,1283.25 1322.39,1283.25 1327.03,1283.25 1331.66,1283.25 1336.3,1283.25 1340.93,1283.25 1345.57,1283.25 
  1350.2,1283.25 1354.84,1283.25 1359.47,1283.25 1364.11,1283.25 1368.74,1283.25 1373.38,1283.25 1378.01,1283.25 1382.65,1283.25 1387.28,1283.25 1391.92,1283.25 
  1396.55,1283.25 1401.19,1283.25 1405.82,1283.25 1410.46,1283.25 1415.09,1283.25 1419.73,1283.25 1424.36,1283.25 1429,1283.25 1433.63,1283.25 1438.27,1283.25 
  1442.9,1283.25 1447.54,1283.25 1452.17,1283.25 1456.81,1283.25 1461.44,1283.25 1466.08,1283.25 1470.71,1283.25 1475.35,1283.25 1479.98,1283.25 1484.62,1283.25 
  1489.25,1283.25 1493.89,1283.25 1498.52,1283.25 1503.16,1283.25 1507.79,1283.25 1512.43,1283.25 1517.06,1283.25 1521.7,1283.25 1526.33,1283.25 1530.97,1283.25 
  1535.6,1283.25 1540.24,1283.25 1544.87,1283.25 1549.51,1283.25 1554.14,1283.25 1558.78,1283.25 1563.41,1283.25 1568.05,1283.25 1572.68,1283.25 1577.32,1283.25 
  1581.95,1283.25 1586.59,1283.25 1591.22,1283.25 1595.86,1283.25 1600.49,1283.25 1605.13,1283.25 1609.76,1283.25 1614.4,1283.25 1619.03,1283.25 1623.67,1283.25 
  1628.3,1283.25 1632.94,1283.25 1637.57,1283.25 1642.21,1283.25 1646.84,1283.25 1651.48,1283.25 1656.11,1283.25 1660.75,1283.25 1665.38,1283.25 1670.02,1283.25 
  1674.65,1283.25 1679.29,1283.25 1683.92,1283.25 1688.56,1283.25 1693.19,1283.25 1697.83,1283.25 1702.46,1283.25 1707.1,1283.25 1711.73,1283.25 1716.37,1283.25 
  1721,1283.25 1725.64,1283.25 1730.27,1283.25 1734.91,1283.25 1739.54,1283.25 1744.18,1283.25 1748.81,1283.25 1753.45,1283.25 1758.08,1283.25 1762.72,1283.25 
  1767.35,1283.25 1771.99,1283.25 1776.62,1283.25 1781.26,1283.25 1785.89,1283.25 1790.53,1283.25 1795.16,1283.25 1799.8,1283.25 1804.43,1283.25 1809.07,1283.25 
  1813.7,1283.25 1818.34,1283.25 1822.97,1283.25 1827.61,1283.25 1832.24,1283.25 1836.88,1283.25 1841.51,1283.25 1846.15,1283.25 1850.79,1283.25 1855.42,1283.25 
  1860.06,1283.25 1864.69,1283.25 1869.33,1283.25 1873.96,1283.25 1878.6,1283.25 1883.23,1283.25 1887.87,1283.25 1892.5,1283.25 1897.14,1283.25 1901.77,1283.25 
  1906.41,1283.25 1911.04,1283.25 1915.68,1283.25 1920.31,1283.25 1924.95,1283.25 1929.58,1283.25 1934.22,1283.25 1938.85,1283.25 1943.49,1283.25 1948.12,1283.25 
  1952.76,1283.25 
  "/>
<path clip-path="url(#clip240)" d="
M815.178 471.925 L1890.96 471.925 L1890.96 109.045 L815.178 109.045  Z
  " fill="#ffffff" fill-rule="evenodd" fill-opacity="1"/>
<polyline clip-path="url(#clip240)" style="stroke:#000000; stroke-width:4; stroke-opacity:1; fill:none" points="
  815.178,471.925 1890.96,471.925 1890.96,109.045 815.178,109.045 815.178,471.925 
  "/>
<polyline clip-path="url(#clip240)" style="stroke:#009af9; stroke-width:4; stroke-opacity:1; fill:none" points="
  835.778,169.525 959.379,169.525 
  "/>
<g clip-path="url(#clip240)">
<text style="fill:#000000; fill-opacity:1; font-family:Arial,Helvetica Neue,Helvetica,sans-serif; font-size:48px; text-anchor:start;" transform="rotate(0, 979.979, 187.025)" x="979.979" y="187.025">警察への年間資金                                                 </text>
</g>
<polyline clip-path="url(#clip240)" style="stroke:#e26f46; stroke-width:4; stroke-opacity:1; fill:none" points="
  835.778,230.005 959.379,230.005 
  "/>
<g clip-path="url(#clip240)">
<text style="fill:#000000; fill-opacity:1; font-family:Arial,Helvetica Neue,Helvetica,sans-serif; font-size:48px; text-anchor:start;" transform="rotate(0, 979.979, 247.505)" x="979.979" y="247.505">25歳以上で高校を卒業した人の割合</text>
</g>
<polyline clip-path="url(#clip240)" style="stroke:#3da44d; stroke-width:4; stroke-opacity:1; fill:none" points="
  835.778,290.485 959.379,290.485 
  "/>
<g clip-path="url(#clip240)">
<text style="fill:#000000; fill-opacity:1; font-family:Arial,Helvetica Neue,Helvetica,sans-serif; font-size:48px; text-anchor:start;" transform="rotate(0, 979.979, 307.985)" x="979.979" y="307.985">16-19歳で高校に通っていない人の割合</text>
</g>
<polyline clip-path="url(#clip240)" style="stroke:#c271d2; stroke-width:4; stroke-opacity:1; fill:none" points="
  835.778,350.965 959.379,350.965 
  "/>
<g clip-path="url(#clip240)">
<text style="fill:#000000; fill-opacity:1; font-family:Arial,Helvetica Neue,Helvetica,sans-serif; font-size:48px; text-anchor:start;" transform="rotate(0, 979.979, 368.465)" x="979.979" y="368.465">18-24歳で大学生の割合</text>
</g>
<polyline clip-path="url(#clip240)" style="stroke:#ac8d18; stroke-width:4; stroke-opacity:1; fill:none" points="
  835.778,411.445 959.379,411.445 
  "/>
<g clip-path="url(#clip240)">
<text style="fill:#000000; fill-opacity:1; font-family:Arial,Helvetica Neue,Helvetica,sans-serif; font-size:48px; text-anchor:start;" transform="rotate(0, 979.979, 428.945)" x="979.979" y="428.945">25歳以上で４年制大学を卒業した人の割合</text>
</g>
</svg>
