<?xml version="1.0" encoding="utf-8"?>
<svg xmlns="http://www.w3.org/2000/svg" xmlns:xlink="http://www.w3.org/1999/xlink" width="600" height="400" viewBox="0 0 2400 1600">
<defs>
  <clipPath id="clip600">
    <rect x="0" y="0" width="2400" height="1600"/>
  </clipPath>
</defs>
<path clip-path="url(#clip600)" d="
M0 1600 L2400 1600 L2400 0 L0 0  Z
  " fill="#ffffff" fill-rule="evenodd" fill-opacity="1"/>
<defs>
  <clipPath id="clip601">
    <rect x="480" y="0" width="1681" height="1600"/>
  </clipPath>
</defs>
<path clip-path="url(#clip600)" d="
M206.992 1401.01 L2352.76 1401.01 L2352.76 47.2441 L206.992 47.2441  Z
  " fill="#ffffff" fill-rule="evenodd" fill-opacity="1"/>
<defs>
  <clipPath id="clip602">
    <rect x="206" y="47" width="2147" height="1355"/>
  </clipPath>
</defs>
<polyline clip-path="url(#clip602)" style="stroke:#000000; stroke-width:2; stroke-opacity:0.1; fill:none" points="
  237.039,1401.01 237.039,47.2441 
  "/>
<polyline clip-path="url(#clip602)" style="stroke:#000000; stroke-width:2; stroke-opacity:0.1; fill:none" points="
  577.02,1401.01 577.02,47.2441 
  "/>
<polyline clip-path="url(#clip602)" style="stroke:#000000; stroke-width:2; stroke-opacity:0.1; fill:none" points="
  917.002,1401.01 917.002,47.2441 
  "/>
<polyline clip-path="url(#clip602)" style="stroke:#000000; stroke-width:2; stroke-opacity:0.1; fill:none" points="
  1256.98,1401.01 1256.98,47.2441 
  "/>
<polyline clip-path="url(#clip602)" style="stroke:#000000; stroke-width:2; stroke-opacity:0.1; fill:none" points="
  1596.97,1401.01 1596.97,47.2441 
  "/>
<polyline clip-path="url(#clip602)" style="stroke:#000000; stroke-width:2; stroke-opacity:0.1; fill:none" points="
  1936.95,1401.01 1936.95,47.2441 
  "/>
<polyline clip-path="url(#clip602)" style="stroke:#000000; stroke-width:2; stroke-opacity:0.1; fill:none" points="
  2276.93,1401.01 2276.93,47.2441 
  "/>
<polyline clip-path="url(#clip600)" style="stroke:#000000; stroke-width:4; stroke-opacity:1; fill:none" points="
  206.992,1401.01 2352.76,1401.01 
  "/>
<polyline clip-path="url(#clip600)" style="stroke:#000000; stroke-width:4; stroke-opacity:1; fill:none" points="
  237.039,1401.01 237.039,1384.76 
  "/>
<polyline clip-path="url(#clip600)" style="stroke:#000000; stroke-width:4; stroke-opacity:1; fill:none" points="
  577.02,1401.01 577.02,1384.76 
  "/>
<polyline clip-path="url(#clip600)" style="stroke:#000000; stroke-width:4; stroke-opacity:1; fill:none" points="
  917.002,1401.01 917.002,1384.76 
  "/>
<polyline clip-path="url(#clip600)" style="stroke:#000000; stroke-width:4; stroke-opacity:1; fill:none" points="
  1256.98,1401.01 1256.98,1384.76 
  "/>
<polyline clip-path="url(#clip600)" style="stroke:#000000; stroke-width:4; stroke-opacity:1; fill:none" points="
  1596.97,1401.01 1596.97,1384.76 
  "/>
<polyline clip-path="url(#clip600)" style="stroke:#000000; stroke-width:4; stroke-opacity:1; fill:none" points="
  1936.95,1401.01 1936.95,1384.76 
  "/>
<polyline clip-path="url(#clip600)" style="stroke:#000000; stroke-width:4; stroke-opacity:1; fill:none" points="
  2276.93,1401.01 2276.93,1384.76 
  "/>
<g clip-path="url(#clip600)">
<text style="fill:#000000; fill-opacity:1; font-family:Arial,Helvetica Neue,Helvetica,sans-serif; font-size:48px; text-anchor:middle;" transform="rotate(0, 237.039, 1462.21)" x="237.039" y="1462.21">−1</text>
</g>
<g clip-path="url(#clip600)">
<text style="fill:#000000; fill-opacity:1; font-family:Arial,Helvetica Neue,Helvetica,sans-serif; font-size:48px; text-anchor:middle;" transform="rotate(0, 577.02, 1462.21)" x="577.02" y="1462.21">0</text>
</g>
<g clip-path="url(#clip600)">
<text style="fill:#000000; fill-opacity:1; font-family:Arial,Helvetica Neue,Helvetica,sans-serif; font-size:48px; text-anchor:middle;" transform="rotate(0, 917.002, 1462.21)" x="917.002" y="1462.21">1</text>
</g>
<g clip-path="url(#clip600)">
<text style="fill:#000000; fill-opacity:1; font-family:Arial,Helvetica Neue,Helvetica,sans-serif; font-size:48px; text-anchor:middle;" transform="rotate(0, 1256.98, 1462.21)" x="1256.98" y="1462.21">2</text>
</g>
<g clip-path="url(#clip600)">
<text style="fill:#000000; fill-opacity:1; font-family:Arial,Helvetica Neue,Helvetica,sans-serif; font-size:48px; text-anchor:middle;" transform="rotate(0, 1596.97, 1462.21)" x="1596.97" y="1462.21">3</text>
</g>
<g clip-path="url(#clip600)">
<text style="fill:#000000; fill-opacity:1; font-family:Arial,Helvetica Neue,Helvetica,sans-serif; font-size:48px; text-anchor:middle;" transform="rotate(0, 1936.95, 1462.21)" x="1936.95" y="1462.21">4</text>
</g>
<g clip-path="url(#clip600)">
<text style="fill:#000000; fill-opacity:1; font-family:Arial,Helvetica Neue,Helvetica,sans-serif; font-size:48px; text-anchor:middle;" transform="rotate(0, 2276.93, 1462.21)" x="2276.93" y="1462.21">5</text>
</g>
<g clip-path="url(#clip600)">
<text style="fill:#000000; fill-opacity:1; font-family:Arial,Helvetica Neue,Helvetica,sans-serif; font-size:66px; text-anchor:middle;" transform="rotate(0, 1279.87, 1534.87)" x="1279.87" y="1534.87">log λ</text>
</g>
<polyline clip-path="url(#clip602)" style="stroke:#000000; stroke-width:2; stroke-opacity:0.1; fill:none" points="
  206.992,1395.75 2352.76,1395.75 
  "/>
<polyline clip-path="url(#clip602)" style="stroke:#000000; stroke-width:2; stroke-opacity:0.1; fill:none" points="
  206.992,1173.52 2352.76,1173.52 
  "/>
<polyline clip-path="url(#clip602)" style="stroke:#000000; stroke-width:2; stroke-opacity:0.1; fill:none" points="
  206.992,951.302 2352.76,951.302 
  "/>
<polyline clip-path="url(#clip602)" style="stroke:#000000; stroke-width:2; stroke-opacity:0.1; fill:none" points="
  206.992,729.08 2352.76,729.08 
  "/>
<polyline clip-path="url(#clip602)" style="stroke:#000000; stroke-width:2; stroke-opacity:0.1; fill:none" points="
  206.992,506.857 2352.76,506.857 
  "/>
<polyline clip-path="url(#clip602)" style="stroke:#000000; stroke-width:2; stroke-opacity:0.1; fill:none" points="
  206.992,284.635 2352.76,284.635 
  "/>
<polyline clip-path="url(#clip602)" style="stroke:#000000; stroke-width:2; stroke-opacity:0.1; fill:none" points="
  206.992,62.4127 2352.76,62.4127 
  "/>
<polyline clip-path="url(#clip600)" style="stroke:#000000; stroke-width:4; stroke-opacity:1; fill:none" points="
  206.992,1401.01 206.992,47.2441 
  "/>
<polyline clip-path="url(#clip600)" style="stroke:#000000; stroke-width:4; stroke-opacity:1; fill:none" points="
  206.992,1395.75 232.741,1395.75 
  "/>
<polyline clip-path="url(#clip600)" style="stroke:#000000; stroke-width:4; stroke-opacity:1; fill:none" points="
  206.992,1173.52 232.741,1173.52 
  "/>
<polyline clip-path="url(#clip600)" style="stroke:#000000; stroke-width:4; stroke-opacity:1; fill:none" points="
  206.992,951.302 232.741,951.302 
  "/>
<polyline clip-path="url(#clip600)" style="stroke:#000000; stroke-width:4; stroke-opacity:1; fill:none" points="
  206.992,729.08 232.741,729.08 
  "/>
<polyline clip-path="url(#clip600)" style="stroke:#000000; stroke-width:4; stroke-opacity:1; fill:none" points="
  206.992,506.857 232.741,506.857 
  "/>
<polyline clip-path="url(#clip600)" style="stroke:#000000; stroke-width:4; stroke-opacity:1; fill:none" points="
  206.992,284.635 232.741,284.635 
  "/>
<polyline clip-path="url(#clip600)" style="stroke:#000000; stroke-width:4; stroke-opacity:1; fill:none" points="
  206.992,62.4127 232.741,62.4127 
  "/>
<g clip-path="url(#clip600)">
<text style="fill:#000000; fill-opacity:1; font-family:Arial,Helvetica Neue,Helvetica,sans-serif; font-size:48px; text-anchor:start;" transform="rotate(0, 0.707112, 1419.47)" x="0.707112" y="1419.47">5.0×10</text>
</g>
<g clip-path="url(#clip600)">
<text style="fill:#000000; fill-opacity:1; font-family:Arial,Helvetica Neue,Helvetica,sans-serif; font-size:38px; text-anchor:start;" transform="rotate(0, 149.248, 1392.06)" x="149.248" y="1392.06">4</text>
</g>
<g clip-path="url(#clip600)">
<text style="fill:#000000; fill-opacity:1; font-family:Arial,Helvetica Neue,Helvetica,sans-serif; font-size:48px; text-anchor:start;" transform="rotate(0, 0.707112, 1197.25)" x="0.707112" y="1197.25">6.0×10</text>
</g>
<g clip-path="url(#clip600)">
<text style="fill:#000000; fill-opacity:1; font-family:Arial,Helvetica Neue,Helvetica,sans-serif; font-size:38px; text-anchor:start;" transform="rotate(0, 149.248, 1169.84)" x="149.248" y="1169.84">4</text>
</g>
<g clip-path="url(#clip600)">
<text style="fill:#000000; fill-opacity:1; font-family:Arial,Helvetica Neue,Helvetica,sans-serif; font-size:48px; text-anchor:start;" transform="rotate(0, 0.707112, 975.03)" x="0.707112" y="975.03">7.0×10</text>
</g>
<g clip-path="url(#clip600)">
<text style="fill:#000000; fill-opacity:1; font-family:Arial,Helvetica Neue,Helvetica,sans-serif; font-size:38px; text-anchor:start;" transform="rotate(0, 149.248, 947.619)" x="149.248" y="947.619">4</text>
</g>
<g clip-path="url(#clip600)">
<text style="fill:#000000; fill-opacity:1; font-family:Arial,Helvetica Neue,Helvetica,sans-serif; font-size:48px; text-anchor:start;" transform="rotate(0, 0.707112, 752.807)" x="0.707112" y="752.807">8.0×10</text>
</g>
<g clip-path="url(#clip600)">
<text style="fill:#000000; fill-opacity:1; font-family:Arial,Helvetica Neue,Helvetica,sans-serif; font-size:38px; text-anchor:start;" transform="rotate(0, 149.248, 725.397)" x="149.248" y="725.397">4</text>
</g>
<g clip-path="url(#clip600)">
<text style="fill:#000000; fill-opacity:1; font-family:Arial,Helvetica Neue,Helvetica,sans-serif; font-size:48px; text-anchor:start;" transform="rotate(0, 0.707112, 530.585)" x="0.707112" y="530.585">9.0×10</text>
</g>
<g clip-path="url(#clip600)">
<text style="fill:#000000; fill-opacity:1; font-family:Arial,Helvetica Neue,Helvetica,sans-serif; font-size:38px; text-anchor:start;" transform="rotate(0, 149.248, 503.175)" x="149.248" y="503.175">4</text>
</g>
<g clip-path="url(#clip600)">
<text style="fill:#000000; fill-opacity:1; font-family:Arial,Helvetica Neue,Helvetica,sans-serif; font-size:48px; text-anchor:start;" transform="rotate(0, 0.707112, 308.363)" x="0.707112" y="308.363">1.0×10</text>
</g>
<g clip-path="url(#clip600)">
<text style="fill:#000000; fill-opacity:1; font-family:Arial,Helvetica Neue,Helvetica,sans-serif; font-size:38px; text-anchor:start;" transform="rotate(0, 149.248, 280.952)" x="149.248" y="280.952">5</text>
</g>
<g clip-path="url(#clip600)">
<text style="fill:#000000; fill-opacity:1; font-family:Arial,Helvetica Neue,Helvetica,sans-serif; font-size:48px; text-anchor:start;" transform="rotate(0, 0.707112, 86.1403)" x="0.707112" y="86.1403">1.1×10</text>
</g>
<g clip-path="url(#clip600)">
<text style="fill:#000000; fill-opacity:1; font-family:Arial,Helvetica Neue,Helvetica,sans-serif; font-size:38px; text-anchor:start;" transform="rotate(0, 149.248, 58.7299)" x="149.248" y="58.7299">5</text>
</g>
<g clip-path="url(#clip600)">
<text style="fill:#000000; fill-opacity:1; font-family:Arial,Helvetica Neue,Helvetica,sans-serif; font-size:66px; text-anchor:middle;" transform="rotate(-90, -22.855, 724.126)" x="-22.855" y="724.126">mean squared error</text>
</g>
<path clip-path="url(#clip602)" d="
M2292.03 1060.32 L2260.4 1086.87 L2228.77 1123.27 L2197.14 1155.65 L2165.51 1181.83 L2133.88 1209.78 L2102.25 1233.71 L2070.62 1253.8 L2038.99 1269.16 L2007.36 1280.98 
  L1975.73 1290.99 L1944.1 1302.09 L1912.47 1312.24 L1880.84 1320.87 L1849.21 1328.29 L1817.58 1335.4 L1785.95 1342.94 L1754.32 1350.06 L1722.69 1357.27 L1691.06 1361.76 
  L1659.43 1362.69 L1627.8 1362.04 L1596.17 1361.13 L1564.54 1360.82 L1532.91 1359.61 L1501.28 1357.86 L1469.65 1355.84 L1438.02 1353.7 L1406.39 1350.38 L1374.76 1346.71 
  L1343.13 1343.27 L1311.5 1339.97 L1279.87 1337 L1248.24 1334.7 L1216.61 1332.46 L1184.98 1330.34 L1153.35 1328.33 L1121.73 1326.35 L1090.1 1324.56 L1058.47 1322.8 
  L1026.84 1321.18 L995.206 1319.68 L963.576 1318.27 L931.947 1316.97 L900.317 1315.78 L868.687 1314.35 L837.057 1312.44 L805.427 1310.6 L773.798 1308.89 L742.168 1307.32 
  L710.538 1305.87 L678.908 1304.41 L647.279 1302.97 L615.649 1301.5 L584.019 1300.17 L552.389 1298.94 L520.759 1297.79 L489.13 1296.6 L457.5 1295.57 L425.87 1294.57 
  L394.24 1293.64 L362.611 1292.84 L330.981 1292.1 L299.351 1291.39 L267.721 1290.75 L267.721 397.236 L299.351 398.478 L330.981 399.827 L362.611 401.29 L394.24 402.81 
  L425.87 404.59 L457.5 406.523 L489.13 408.554 L520.759 410.905 L552.389 412.84 L584.019 414.925 L615.649 417.186 L647.279 419.692 L678.908 422.202 L710.538 424.809 
  L742.168 427.555 L773.798 430.543 L805.427 433.808 L837.057 437.348 L868.687 441.146 L900.317 444.852 L931.947 448.666 L963.576 452.81 L995.206 457.337 L1026.84 462.232 
  L1058.47 467.538 L1090.1 473.301 L1121.73 479.457 L1153.35 486.147 L1184.98 493.282 L1216.61 500.952 L1248.24 509.176 L1279.87 517.93 L1311.5 527.597 L1343.13 538.049 
  L1374.76 549.064 L1406.39 560.76 L1438.02 572.616 L1469.65 583.716 L1501.28 594.883 L1532.91 605.819 L1564.54 616.007 L1596.17 624.649 L1627.8 633.849 L1659.43 642.707 
  L1691.06 646.875 L1722.69 642.6 L1754.32 632.484 L1785.95 621.039 L1817.58 607.578 L1849.21 592.648 L1880.84 576.014 L1912.47 555.772 L1944.1 531.156 L1975.73 503.389 
  L2007.36 473.569 L2038.99 437.623 L2070.62 393.185 L2102.25 337.78 L2133.88 271.624 L2165.51 197.36 L2197.14 172.413 L2228.77 140.449 L2260.4 104.5 L2292.03 85.5582 
   Z
  " fill="#009af9" fill-rule="evenodd" fill-opacity="0.5"/>
<polyline clip-path="url(#clip602)" style="stroke:#009af9; stroke-width:4; stroke-opacity:1; fill:none" points="
  2292.03,572.941 2260.4,595.687 2228.77,631.859 2197.14,664.032 2165.51,689.592 2133.88,740.703 2102.25,785.743 2070.62,823.493 2038.99,853.393 2007.36,877.275 
  1975.73,897.189 1944.1,916.622 1912.47,934.008 1880.84,948.443 1849.21,960.471 1817.58,971.486 1785.95,981.99 1754.32,991.274 1722.69,999.936 1691.06,1004.32 
  1659.43,1002.7 1627.8,997.943 1596.17,992.889 1564.54,988.414 1532.91,982.715 1501.28,976.372 1469.65,969.777 1438.02,963.16 1406.39,955.568 1374.76,947.889 
  1343.13,940.66 1311.5,933.782 1279.87,927.463 1248.24,921.936 1216.61,916.707 1184.98,911.81 1153.35,907.236 1121.73,902.906 1090.1,898.93 1058.47,895.168 
  1026.84,891.706 995.206,888.51 963.576,885.539 931.947,882.819 900.317,880.318 868.687,877.749 837.057,874.892 805.427,872.205 773.798,869.715 742.168,867.438 
  710.538,865.338 678.908,863.305 647.279,861.33 615.649,859.345 584.019,857.545 552.389,855.889 520.759,854.348 489.13,852.579 457.5,851.045 425.87,849.577 
  394.24,848.226 362.611,847.065 330.981,845.961 299.351,844.935 267.721,843.994 
  "/>
</svg>
