<?xml version="1.0" encoding="utf-8"?>
<svg xmlns="http://www.w3.org/2000/svg" xmlns:xlink="http://www.w3.org/1999/xlink" width="600" height="400" viewBox="0 0 2400 1600">
<defs>
  <clipPath id="clip830">
    <rect x="0" y="0" width="2400" height="1600"/>
  </clipPath>
</defs>
<path clip-path="url(#clip830)" d="
M0 1600 L2400 1600 L2400 0 L0 0  Z
  " fill="#ffffff" fill-rule="evenodd" fill-opacity="1"/>
<defs>
  <clipPath id="clip831">
    <rect x="480" y="0" width="1681" height="1600"/>
  </clipPath>
</defs>
<path clip-path="url(#clip830)" d="
M206.992 1401.01 L2352.76 1401.01 L2352.76 47.2441 L206.992 47.2441  Z
  " fill="#ffffff" fill-rule="evenodd" fill-opacity="1"/>
<defs>
  <clipPath id="clip832">
    <rect x="206" y="47" width="2147" height="1355"/>
  </clipPath>
</defs>
<polyline clip-path="url(#clip832)" style="stroke:#000000; stroke-width:2; stroke-opacity:0.1; fill:none" points="
  267.721,1401.01 267.721,47.2441 
  "/>
<polyline clip-path="url(#clip832)" style="stroke:#000000; stroke-width:2; stroke-opacity:0.1; fill:none" points="
  773.798,1401.01 773.798,47.2441 
  "/>
<polyline clip-path="url(#clip832)" style="stroke:#000000; stroke-width:2; stroke-opacity:0.1; fill:none" points="
  1279.87,1401.01 1279.87,47.2441 
  "/>
<polyline clip-path="url(#clip832)" style="stroke:#000000; stroke-width:2; stroke-opacity:0.1; fill:none" points="
  1785.95,1401.01 1785.95,47.2441 
  "/>
<polyline clip-path="url(#clip832)" style="stroke:#000000; stroke-width:2; stroke-opacity:0.1; fill:none" points="
  2292.03,1401.01 2292.03,47.2441 
  "/>
<polyline clip-path="url(#clip830)" style="stroke:#000000; stroke-width:4; stroke-opacity:1; fill:none" points="
  206.992,1401.01 2352.76,1401.01 
  "/>
<polyline clip-path="url(#clip830)" style="stroke:#000000; stroke-width:4; stroke-opacity:1; fill:none" points="
  267.721,1401.01 267.721,1384.76 
  "/>
<polyline clip-path="url(#clip830)" style="stroke:#000000; stroke-width:4; stroke-opacity:1; fill:none" points="
  773.798,1401.01 773.798,1384.76 
  "/>
<polyline clip-path="url(#clip830)" style="stroke:#000000; stroke-width:4; stroke-opacity:1; fill:none" points="
  1279.87,1401.01 1279.87,1384.76 
  "/>
<polyline clip-path="url(#clip830)" style="stroke:#000000; stroke-width:4; stroke-opacity:1; fill:none" points="
  1785.95,1401.01 1785.95,1384.76 
  "/>
<polyline clip-path="url(#clip830)" style="stroke:#000000; stroke-width:4; stroke-opacity:1; fill:none" points="
  2292.03,1401.01 2292.03,1384.76 
  "/>
<g clip-path="url(#clip830)">
<text style="fill:#000000; fill-opacity:1; font-family:Arial,Helvetica Neue,Helvetica,sans-serif; font-size:48px; text-anchor:middle;" transform="rotate(0, 267.721, 1462.21)" x="267.721" y="1462.21">−10</text>
</g>
<g clip-path="url(#clip830)">
<text style="fill:#000000; fill-opacity:1; font-family:Arial,Helvetica Neue,Helvetica,sans-serif; font-size:48px; text-anchor:middle;" transform="rotate(0, 773.798, 1462.21)" x="773.798" y="1462.21">−5</text>
</g>
<g clip-path="url(#clip830)">
<text style="fill:#000000; fill-opacity:1; font-family:Arial,Helvetica Neue,Helvetica,sans-serif; font-size:48px; text-anchor:middle;" transform="rotate(0, 1279.87, 1462.21)" x="1279.87" y="1462.21">0</text>
</g>
<g clip-path="url(#clip830)">
<text style="fill:#000000; fill-opacity:1; font-family:Arial,Helvetica Neue,Helvetica,sans-serif; font-size:48px; text-anchor:middle;" transform="rotate(0, 1785.95, 1462.21)" x="1785.95" y="1462.21">5</text>
</g>
<g clip-path="url(#clip830)">
<text style="fill:#000000; fill-opacity:1; font-family:Arial,Helvetica Neue,Helvetica,sans-serif; font-size:48px; text-anchor:middle;" transform="rotate(0, 2292.03, 1462.21)" x="2292.03" y="1462.21">10</text>
</g>
<g clip-path="url(#clip830)">
<text style="fill:#000000; fill-opacity:1; font-family:Arial,Helvetica Neue,Helvetica,sans-serif; font-size:66px; text-anchor:middle;" transform="rotate(0, 1279.87, 1534.87)" x="1279.87" y="1534.87">x</text>
</g>
<polyline clip-path="url(#clip832)" style="stroke:#000000; stroke-width:2; stroke-opacity:0.1; fill:none" points="
  206.992,1271.57 2352.76,1271.57 
  "/>
<polyline clip-path="url(#clip832)" style="stroke:#000000; stroke-width:2; stroke-opacity:0.1; fill:none" points="
  206.992,1025.05 2352.76,1025.05 
  "/>
<polyline clip-path="url(#clip832)" style="stroke:#000000; stroke-width:2; stroke-opacity:0.1; fill:none" points="
  206.992,778.523 2352.76,778.523 
  "/>
<polyline clip-path="url(#clip832)" style="stroke:#000000; stroke-width:2; stroke-opacity:0.1; fill:none" points="
  206.992,531.999 2352.76,531.999 
  "/>
<polyline clip-path="url(#clip832)" style="stroke:#000000; stroke-width:2; stroke-opacity:0.1; fill:none" points="
  206.992,285.475 2352.76,285.475 
  "/>
<polyline clip-path="url(#clip830)" style="stroke:#000000; stroke-width:4; stroke-opacity:1; fill:none" points="
  206.992,1401.01 206.992,47.2441 
  "/>
<polyline clip-path="url(#clip830)" style="stroke:#000000; stroke-width:4; stroke-opacity:1; fill:none" points="
  206.992,1271.57 232.741,1271.57 
  "/>
<polyline clip-path="url(#clip830)" style="stroke:#000000; stroke-width:4; stroke-opacity:1; fill:none" points="
  206.992,1025.05 232.741,1025.05 
  "/>
<polyline clip-path="url(#clip830)" style="stroke:#000000; stroke-width:4; stroke-opacity:1; fill:none" points="
  206.992,778.523 232.741,778.523 
  "/>
<polyline clip-path="url(#clip830)" style="stroke:#000000; stroke-width:4; stroke-opacity:1; fill:none" points="
  206.992,531.999 232.741,531.999 
  "/>
<polyline clip-path="url(#clip830)" style="stroke:#000000; stroke-width:4; stroke-opacity:1; fill:none" points="
  206.992,285.475 232.741,285.475 
  "/>
<g clip-path="url(#clip830)">
<text style="fill:#000000; fill-opacity:1; font-family:Arial,Helvetica Neue,Helvetica,sans-serif; font-size:48px; text-anchor:end;" transform="rotate(0, 170.992, 1289.07)" x="170.992" y="1289.07">−10</text>
</g>
<g clip-path="url(#clip830)">
<text style="fill:#000000; fill-opacity:1; font-family:Arial,Helvetica Neue,Helvetica,sans-serif; font-size:48px; text-anchor:end;" transform="rotate(0, 170.992, 1042.55)" x="170.992" y="1042.55">−5</text>
</g>
<g clip-path="url(#clip830)">
<text style="fill:#000000; fill-opacity:1; font-family:Arial,Helvetica Neue,Helvetica,sans-serif; font-size:48px; text-anchor:end;" transform="rotate(0, 170.992, 796.023)" x="170.992" y="796.023">0</text>
</g>
<g clip-path="url(#clip830)">
<text style="fill:#000000; fill-opacity:1; font-family:Arial,Helvetica Neue,Helvetica,sans-serif; font-size:48px; text-anchor:end;" transform="rotate(0, 170.992, 549.499)" x="170.992" y="549.499">5</text>
</g>
<g clip-path="url(#clip830)">
<text style="fill:#000000; fill-opacity:1; font-family:Arial,Helvetica Neue,Helvetica,sans-serif; font-size:48px; text-anchor:end;" transform="rotate(0, 170.992, 302.975)" x="170.992" y="302.975">10</text>
</g>
<g clip-path="url(#clip830)">
<text style="fill:#000000; fill-opacity:1; font-family:Arial,Helvetica Neue,Helvetica,sans-serif; font-size:66px; text-anchor:middle;" transform="rotate(-90, 67.143, 724.126)" x="67.143" y="724.126">y</text>
</g>
<circle clip-path="url(#clip832)" cx="1400.35" cy="651.981" r="14" fill="#009af9" fill-rule="evenodd" fill-opacity="1" stroke="#000000" stroke-opacity="1" stroke-width="3.2"/>
<circle clip-path="url(#clip832)" cx="1487.18" cy="648.215" r="14" fill="#009af9" fill-rule="evenodd" fill-opacity="1" stroke="#000000" stroke-opacity="1" stroke-width="3.2"/>
<circle clip-path="url(#clip832)" cx="1395.53" cy="607.016" r="14" fill="#009af9" fill-rule="evenodd" fill-opacity="1" stroke="#000000" stroke-opacity="1" stroke-width="3.2"/>
<circle clip-path="url(#clip832)" cx="1326.37" cy="627.642" r="14" fill="#009af9" fill-rule="evenodd" fill-opacity="1" stroke="#000000" stroke-opacity="1" stroke-width="3.2"/>
<circle clip-path="url(#clip832)" cx="1239.72" cy="820.658" r="14" fill="#009af9" fill-rule="evenodd" fill-opacity="1" stroke="#000000" stroke-opacity="1" stroke-width="3.2"/>
<circle clip-path="url(#clip832)" cx="1212.59" cy="722.519" r="14" fill="#009af9" fill-rule="evenodd" fill-opacity="1" stroke="#000000" stroke-opacity="1" stroke-width="3.2"/>
<circle clip-path="url(#clip832)" cx="1379.16" cy="636.681" r="14" fill="#009af9" fill-rule="evenodd" fill-opacity="1" stroke="#000000" stroke-opacity="1" stroke-width="3.2"/>
<circle clip-path="url(#clip832)" cx="1272.23" cy="767.056" r="14" fill="#009af9" fill-rule="evenodd" fill-opacity="1" stroke="#000000" stroke-opacity="1" stroke-width="3.2"/>
<circle clip-path="url(#clip832)" cx="1307.59" cy="790.108" r="14" fill="#009af9" fill-rule="evenodd" fill-opacity="1" stroke="#000000" stroke-opacity="1" stroke-width="3.2"/>
<circle clip-path="url(#clip832)" cx="1260.22" cy="775.997" r="14" fill="#009af9" fill-rule="evenodd" fill-opacity="1" stroke="#000000" stroke-opacity="1" stroke-width="3.2"/>
<circle clip-path="url(#clip832)" cx="1245.52" cy="740.25" r="14" fill="#009af9" fill-rule="evenodd" fill-opacity="1" stroke="#000000" stroke-opacity="1" stroke-width="3.2"/>
<circle clip-path="url(#clip832)" cx="1194.46" cy="758.865" r="14" fill="#009af9" fill-rule="evenodd" fill-opacity="1" stroke="#000000" stroke-opacity="1" stroke-width="3.2"/>
<circle clip-path="url(#clip832)" cx="1189.9" cy="784.053" r="14" fill="#009af9" fill-rule="evenodd" fill-opacity="1" stroke="#000000" stroke-opacity="1" stroke-width="3.2"/>
<circle clip-path="url(#clip832)" cx="1312.99" cy="734.797" r="14" fill="#009af9" fill-rule="evenodd" fill-opacity="1" stroke="#000000" stroke-opacity="1" stroke-width="3.2"/>
<circle clip-path="url(#clip832)" cx="1339.83" cy="787.371" r="14" fill="#009af9" fill-rule="evenodd" fill-opacity="1" stroke="#000000" stroke-opacity="1" stroke-width="3.2"/>
<circle clip-path="url(#clip832)" cx="1317.12" cy="678.947" r="14" fill="#009af9" fill-rule="evenodd" fill-opacity="1" stroke="#000000" stroke-opacity="1" stroke-width="3.2"/>
<circle clip-path="url(#clip832)" cx="1251.42" cy="723.471" r="14" fill="#009af9" fill-rule="evenodd" fill-opacity="1" stroke="#000000" stroke-opacity="1" stroke-width="3.2"/>
<circle clip-path="url(#clip832)" cx="1205.49" cy="755.059" r="14" fill="#009af9" fill-rule="evenodd" fill-opacity="1" stroke="#000000" stroke-opacity="1" stroke-width="3.2"/>
<circle clip-path="url(#clip832)" cx="1207.26" cy="714.566" r="14" fill="#009af9" fill-rule="evenodd" fill-opacity="1" stroke="#000000" stroke-opacity="1" stroke-width="3.2"/>
<circle clip-path="url(#clip832)" cx="1201.43" cy="748.86" r="14" fill="#009af9" fill-rule="evenodd" fill-opacity="1" stroke="#000000" stroke-opacity="1" stroke-width="3.2"/>
<circle clip-path="url(#clip832)" cx="1180.73" cy="815.281" r="14" fill="#009af9" fill-rule="evenodd" fill-opacity="1" stroke="#000000" stroke-opacity="1" stroke-width="3.2"/>
<circle clip-path="url(#clip832)" cx="1306.23" cy="726.201" r="14" fill="#009af9" fill-rule="evenodd" fill-opacity="1" stroke="#000000" stroke-opacity="1" stroke-width="3.2"/>
<circle clip-path="url(#clip832)" cx="1232.46" cy="678.658" r="14" fill="#009af9" fill-rule="evenodd" fill-opacity="1" stroke="#000000" stroke-opacity="1" stroke-width="3.2"/>
<circle clip-path="url(#clip832)" cx="1190.71" cy="771.547" r="14" fill="#009af9" fill-rule="evenodd" fill-opacity="1" stroke="#000000" stroke-opacity="1" stroke-width="3.2"/>
<circle clip-path="url(#clip832)" cx="1307.98" cy="714.334" r="14" fill="#009af9" fill-rule="evenodd" fill-opacity="1" stroke="#000000" stroke-opacity="1" stroke-width="3.2"/>
<circle clip-path="url(#clip832)" cx="1434.12" cy="599.47" r="14" fill="#009af9" fill-rule="evenodd" fill-opacity="1" stroke="#000000" stroke-opacity="1" stroke-width="3.2"/>
<circle clip-path="url(#clip832)" cx="1099.94" cy="809.514" r="14" fill="#009af9" fill-rule="evenodd" fill-opacity="1" stroke="#000000" stroke-opacity="1" stroke-width="3.2"/>
<circle clip-path="url(#clip832)" cx="983.004" cy="790.532" r="14" fill="#009af9" fill-rule="evenodd" fill-opacity="1" stroke="#000000" stroke-opacity="1" stroke-width="3.2"/>
<circle clip-path="url(#clip832)" cx="1359.05" cy="716.382" r="14" fill="#009af9" fill-rule="evenodd" fill-opacity="1" stroke="#000000" stroke-opacity="1" stroke-width="3.2"/>
<circle clip-path="url(#clip832)" cx="1514.04" cy="584.306" r="14" fill="#009af9" fill-rule="evenodd" fill-opacity="1" stroke="#000000" stroke-opacity="1" stroke-width="3.2"/>
<circle clip-path="url(#clip832)" cx="1191.71" cy="852.093" r="14" fill="#009af9" fill-rule="evenodd" fill-opacity="1" stroke="#000000" stroke-opacity="1" stroke-width="3.2"/>
<circle clip-path="url(#clip832)" cx="1314.87" cy="679.405" r="14" fill="#009af9" fill-rule="evenodd" fill-opacity="1" stroke="#000000" stroke-opacity="1" stroke-width="3.2"/>
<circle clip-path="url(#clip832)" cx="1264.1" cy="660.428" r="14" fill="#009af9" fill-rule="evenodd" fill-opacity="1" stroke="#000000" stroke-opacity="1" stroke-width="3.2"/>
<circle clip-path="url(#clip832)" cx="1516.01" cy="683.926" r="14" fill="#009af9" fill-rule="evenodd" fill-opacity="1" stroke="#000000" stroke-opacity="1" stroke-width="3.2"/>
<circle clip-path="url(#clip832)" cx="1178.83" cy="776.888" r="14" fill="#009af9" fill-rule="evenodd" fill-opacity="1" stroke="#000000" stroke-opacity="1" stroke-width="3.2"/>
<circle clip-path="url(#clip832)" cx="1286.65" cy="746.081" r="14" fill="#009af9" fill-rule="evenodd" fill-opacity="1" stroke="#000000" stroke-opacity="1" stroke-width="3.2"/>
<circle clip-path="url(#clip832)" cx="1103.33" cy="773.182" r="14" fill="#009af9" fill-rule="evenodd" fill-opacity="1" stroke="#000000" stroke-opacity="1" stroke-width="3.2"/>
<circle clip-path="url(#clip832)" cx="1190.75" cy="743.619" r="14" fill="#009af9" fill-rule="evenodd" fill-opacity="1" stroke="#000000" stroke-opacity="1" stroke-width="3.2"/>
<circle clip-path="url(#clip832)" cx="1254.19" cy="693.665" r="14" fill="#009af9" fill-rule="evenodd" fill-opacity="1" stroke="#000000" stroke-opacity="1" stroke-width="3.2"/>
<circle clip-path="url(#clip832)" cx="1362.27" cy="703.769" r="14" fill="#009af9" fill-rule="evenodd" fill-opacity="1" stroke="#000000" stroke-opacity="1" stroke-width="3.2"/>
<circle clip-path="url(#clip832)" cx="1166.02" cy="743.661" r="14" fill="#009af9" fill-rule="evenodd" fill-opacity="1" stroke="#000000" stroke-opacity="1" stroke-width="3.2"/>
<circle clip-path="url(#clip832)" cx="1245.02" cy="730.48" r="14" fill="#009af9" fill-rule="evenodd" fill-opacity="1" stroke="#000000" stroke-opacity="1" stroke-width="3.2"/>
<circle clip-path="url(#clip832)" cx="1255.33" cy="756.05" r="14" fill="#009af9" fill-rule="evenodd" fill-opacity="1" stroke="#000000" stroke-opacity="1" stroke-width="3.2"/>
<circle clip-path="url(#clip832)" cx="1434.94" cy="719.543" r="14" fill="#009af9" fill-rule="evenodd" fill-opacity="1" stroke="#000000" stroke-opacity="1" stroke-width="3.2"/>
<circle clip-path="url(#clip832)" cx="1321.72" cy="708.799" r="14" fill="#009af9" fill-rule="evenodd" fill-opacity="1" stroke="#000000" stroke-opacity="1" stroke-width="3.2"/>
<circle clip-path="url(#clip832)" cx="1256.84" cy="634.625" r="14" fill="#009af9" fill-rule="evenodd" fill-opacity="1" stroke="#000000" stroke-opacity="1" stroke-width="3.2"/>
<circle clip-path="url(#clip832)" cx="1261.06" cy="737.966" r="14" fill="#009af9" fill-rule="evenodd" fill-opacity="1" stroke="#000000" stroke-opacity="1" stroke-width="3.2"/>
<circle clip-path="url(#clip832)" cx="1434.92" cy="541.955" r="14" fill="#009af9" fill-rule="evenodd" fill-opacity="1" stroke="#000000" stroke-opacity="1" stroke-width="3.2"/>
<circle clip-path="url(#clip832)" cx="961.728" cy="873.364" r="14" fill="#009af9" fill-rule="evenodd" fill-opacity="1" stroke="#000000" stroke-opacity="1" stroke-width="3.2"/>
<circle clip-path="url(#clip832)" cx="1134.12" cy="776.124" r="14" fill="#009af9" fill-rule="evenodd" fill-opacity="1" stroke="#000000" stroke-opacity="1" stroke-width="3.2"/>
<circle clip-path="url(#clip832)" cx="1302.01" cy="777.304" r="14" fill="#009af9" fill-rule="evenodd" fill-opacity="1" stroke="#000000" stroke-opacity="1" stroke-width="3.2"/>
<circle clip-path="url(#clip832)" cx="1258.89" cy="749.193" r="14" fill="#009af9" fill-rule="evenodd" fill-opacity="1" stroke="#000000" stroke-opacity="1" stroke-width="3.2"/>
<circle clip-path="url(#clip832)" cx="1410.71" cy="569.938" r="14" fill="#009af9" fill-rule="evenodd" fill-opacity="1" stroke="#000000" stroke-opacity="1" stroke-width="3.2"/>
<circle clip-path="url(#clip832)" cx="1398.26" cy="673.733" r="14" fill="#009af9" fill-rule="evenodd" fill-opacity="1" stroke="#000000" stroke-opacity="1" stroke-width="3.2"/>
<circle clip-path="url(#clip832)" cx="1282.99" cy="766.061" r="14" fill="#009af9" fill-rule="evenodd" fill-opacity="1" stroke="#000000" stroke-opacity="1" stroke-width="3.2"/>
<circle clip-path="url(#clip832)" cx="1164.47" cy="780.96" r="14" fill="#009af9" fill-rule="evenodd" fill-opacity="1" stroke="#000000" stroke-opacity="1" stroke-width="3.2"/>
<circle clip-path="url(#clip832)" cx="1323.87" cy="669.052" r="14" fill="#009af9" fill-rule="evenodd" fill-opacity="1" stroke="#000000" stroke-opacity="1" stroke-width="3.2"/>
<circle clip-path="url(#clip832)" cx="1248.06" cy="695.34" r="14" fill="#009af9" fill-rule="evenodd" fill-opacity="1" stroke="#000000" stroke-opacity="1" stroke-width="3.2"/>
<circle clip-path="url(#clip832)" cx="1224.32" cy="791.897" r="14" fill="#009af9" fill-rule="evenodd" fill-opacity="1" stroke="#000000" stroke-opacity="1" stroke-width="3.2"/>
<circle clip-path="url(#clip832)" cx="1215.52" cy="835.56" r="14" fill="#009af9" fill-rule="evenodd" fill-opacity="1" stroke="#000000" stroke-opacity="1" stroke-width="3.2"/>
<circle clip-path="url(#clip832)" cx="1347.26" cy="772.279" r="14" fill="#009af9" fill-rule="evenodd" fill-opacity="1" stroke="#000000" stroke-opacity="1" stroke-width="3.2"/>
<circle clip-path="url(#clip832)" cx="1186.73" cy="766.655" r="14" fill="#009af9" fill-rule="evenodd" fill-opacity="1" stroke="#000000" stroke-opacity="1" stroke-width="3.2"/>
<circle clip-path="url(#clip832)" cx="1265.06" cy="763.952" r="14" fill="#009af9" fill-rule="evenodd" fill-opacity="1" stroke="#000000" stroke-opacity="1" stroke-width="3.2"/>
<circle clip-path="url(#clip832)" cx="1267.49" cy="846.799" r="14" fill="#009af9" fill-rule="evenodd" fill-opacity="1" stroke="#000000" stroke-opacity="1" stroke-width="3.2"/>
<circle clip-path="url(#clip832)" cx="1365.07" cy="672.115" r="14" fill="#009af9" fill-rule="evenodd" fill-opacity="1" stroke="#000000" stroke-opacity="1" stroke-width="3.2"/>
<circle clip-path="url(#clip832)" cx="1228.97" cy="759.792" r="14" fill="#009af9" fill-rule="evenodd" fill-opacity="1" stroke="#000000" stroke-opacity="1" stroke-width="3.2"/>
<circle clip-path="url(#clip832)" cx="1383.65" cy="673.337" r="14" fill="#009af9" fill-rule="evenodd" fill-opacity="1" stroke="#000000" stroke-opacity="1" stroke-width="3.2"/>
<circle clip-path="url(#clip832)" cx="1172.72" cy="678.954" r="14" fill="#009af9" fill-rule="evenodd" fill-opacity="1" stroke="#000000" stroke-opacity="1" stroke-width="3.2"/>
<circle clip-path="url(#clip832)" cx="1297.94" cy="709.677" r="14" fill="#009af9" fill-rule="evenodd" fill-opacity="1" stroke="#000000" stroke-opacity="1" stroke-width="3.2"/>
<circle clip-path="url(#clip832)" cx="1560.6" cy="620.126" r="14" fill="#009af9" fill-rule="evenodd" fill-opacity="1" stroke="#000000" stroke-opacity="1" stroke-width="3.2"/>
<circle clip-path="url(#clip832)" cx="1175.27" cy="831.909" r="14" fill="#009af9" fill-rule="evenodd" fill-opacity="1" stroke="#000000" stroke-opacity="1" stroke-width="3.2"/>
<circle clip-path="url(#clip832)" cx="1249.06" cy="719.166" r="14" fill="#009af9" fill-rule="evenodd" fill-opacity="1" stroke="#000000" stroke-opacity="1" stroke-width="3.2"/>
<circle clip-path="url(#clip832)" cx="1365.8" cy="753.479" r="14" fill="#009af9" fill-rule="evenodd" fill-opacity="1" stroke="#000000" stroke-opacity="1" stroke-width="3.2"/>
<circle clip-path="url(#clip832)" cx="984.78" cy="855.96" r="14" fill="#009af9" fill-rule="evenodd" fill-opacity="1" stroke="#000000" stroke-opacity="1" stroke-width="3.2"/>
<circle clip-path="url(#clip832)" cx="1278.33" cy="783.311" r="14" fill="#009af9" fill-rule="evenodd" fill-opacity="1" stroke="#000000" stroke-opacity="1" stroke-width="3.2"/>
<circle clip-path="url(#clip832)" cx="1212.43" cy="750.401" r="14" fill="#009af9" fill-rule="evenodd" fill-opacity="1" stroke="#000000" stroke-opacity="1" stroke-width="3.2"/>
<circle clip-path="url(#clip832)" cx="1543.84" cy="573.849" r="14" fill="#009af9" fill-rule="evenodd" fill-opacity="1" stroke="#000000" stroke-opacity="1" stroke-width="3.2"/>
<circle clip-path="url(#clip832)" cx="1423.74" cy="714.052" r="14" fill="#009af9" fill-rule="evenodd" fill-opacity="1" stroke="#000000" stroke-opacity="1" stroke-width="3.2"/>
<circle clip-path="url(#clip832)" cx="1312.05" cy="720.456" r="14" fill="#009af9" fill-rule="evenodd" fill-opacity="1" stroke="#000000" stroke-opacity="1" stroke-width="3.2"/>
<circle clip-path="url(#clip832)" cx="1409.93" cy="575.897" r="14" fill="#009af9" fill-rule="evenodd" fill-opacity="1" stroke="#000000" stroke-opacity="1" stroke-width="3.2"/>
<circle clip-path="url(#clip832)" cx="1140.09" cy="775.997" r="14" fill="#009af9" fill-rule="evenodd" fill-opacity="1" stroke="#000000" stroke-opacity="1" stroke-width="3.2"/>
<circle clip-path="url(#clip832)" cx="1451.2" cy="699.167" r="14" fill="#009af9" fill-rule="evenodd" fill-opacity="1" stroke="#000000" stroke-opacity="1" stroke-width="3.2"/>
<circle clip-path="url(#clip832)" cx="1320.87" cy="644.673" r="14" fill="#009af9" fill-rule="evenodd" fill-opacity="1" stroke="#000000" stroke-opacity="1" stroke-width="3.2"/>
<circle clip-path="url(#clip832)" cx="1185.05" cy="798.222" r="14" fill="#009af9" fill-rule="evenodd" fill-opacity="1" stroke="#000000" stroke-opacity="1" stroke-width="3.2"/>
<circle clip-path="url(#clip832)" cx="1409.59" cy="672.337" r="14" fill="#009af9" fill-rule="evenodd" fill-opacity="1" stroke="#000000" stroke-opacity="1" stroke-width="3.2"/>
<circle clip-path="url(#clip832)" cx="1353.47" cy="724.127" r="14" fill="#009af9" fill-rule="evenodd" fill-opacity="1" stroke="#000000" stroke-opacity="1" stroke-width="3.2"/>
<circle clip-path="url(#clip832)" cx="1239.72" cy="712.61" r="14" fill="#009af9" fill-rule="evenodd" fill-opacity="1" stroke="#000000" stroke-opacity="1" stroke-width="3.2"/>
<circle clip-path="url(#clip832)" cx="1386.7" cy="700.444" r="14" fill="#009af9" fill-rule="evenodd" fill-opacity="1" stroke="#000000" stroke-opacity="1" stroke-width="3.2"/>
<circle clip-path="url(#clip832)" cx="1205.59" cy="819.449" r="14" fill="#009af9" fill-rule="evenodd" fill-opacity="1" stroke="#000000" stroke-opacity="1" stroke-width="3.2"/>
<circle clip-path="url(#clip832)" cx="1326.37" cy="661.615" r="14" fill="#009af9" fill-rule="evenodd" fill-opacity="1" stroke="#000000" stroke-opacity="1" stroke-width="3.2"/>
<circle clip-path="url(#clip832)" cx="1452.57" cy="644.411" r="14" fill="#009af9" fill-rule="evenodd" fill-opacity="1" stroke="#000000" stroke-opacity="1" stroke-width="3.2"/>
<circle clip-path="url(#clip832)" cx="1348.54" cy="582.569" r="14" fill="#009af9" fill-rule="evenodd" fill-opacity="1" stroke="#000000" stroke-opacity="1" stroke-width="3.2"/>
<circle clip-path="url(#clip832)" cx="1308.94" cy="668.96" r="14" fill="#009af9" fill-rule="evenodd" fill-opacity="1" stroke="#000000" stroke-opacity="1" stroke-width="3.2"/>
<circle clip-path="url(#clip832)" cx="1387.99" cy="577.645" r="14" fill="#009af9" fill-rule="evenodd" fill-opacity="1" stroke="#000000" stroke-opacity="1" stroke-width="3.2"/>
<circle clip-path="url(#clip832)" cx="1248.81" cy="763.05" r="14" fill="#009af9" fill-rule="evenodd" fill-opacity="1" stroke="#000000" stroke-opacity="1" stroke-width="3.2"/>
<circle clip-path="url(#clip832)" cx="1085.52" cy="813.715" r="14" fill="#009af9" fill-rule="evenodd" fill-opacity="1" stroke="#000000" stroke-opacity="1" stroke-width="3.2"/>
<circle clip-path="url(#clip832)" cx="1448.86" cy="660.509" r="14" fill="#009af9" fill-rule="evenodd" fill-opacity="1" stroke="#000000" stroke-opacity="1" stroke-width="3.2"/>
<circle clip-path="url(#clip832)" cx="1258.26" cy="680.786" r="14" fill="#009af9" fill-rule="evenodd" fill-opacity="1" stroke="#000000" stroke-opacity="1" stroke-width="3.2"/>
<circle clip-path="url(#clip832)" cx="1263.3" cy="801.214" r="14" fill="#009af9" fill-rule="evenodd" fill-opacity="1" stroke="#000000" stroke-opacity="1" stroke-width="3.2"/>
<circle clip-path="url(#clip832)" cx="1188.48" cy="745.376" r="14" fill="#009af9" fill-rule="evenodd" fill-opacity="1" stroke="#000000" stroke-opacity="1" stroke-width="3.2"/>
<path clip-path="url(#clip832)" d="
M267.721 1362.69 L277.843 1357.28 L287.964 1351.88 L298.086 1346.47 L308.207 1341.08 L318.329 1335.68 L328.45 1330.29 L338.572 1324.91 L348.694 1319.53 L358.815 1314.16 
  L368.937 1308.79 L379.058 1303.42 L389.18 1298.06 L399.301 1292.71 L409.423 1287.36 L419.544 1282.01 L429.666 1276.67 L439.787 1271.34 L449.909 1266.01 L460.03 1260.68 
  L470.152 1255.37 L480.273 1250.05 L490.395 1244.74 L500.516 1239.44 L510.638 1234.15 L520.759 1228.86 L530.881 1223.57 L541.003 1218.3 L551.124 1213.02 L561.246 1207.76 
  L571.367 1202.5 L581.489 1197.24 L591.61 1192 L601.732 1186.75 L611.853 1181.52 L621.975 1176.29 L632.096 1171.07 L642.218 1165.86 L652.339 1160.65 L662.461 1155.45 
  L672.582 1150.25 L682.704 1145.07 L692.825 1139.89 L702.947 1134.71 L713.068 1129.55 L723.19 1124.39 L733.312 1119.24 L743.433 1114.1 L753.555 1108.96 L763.676 1103.83 
  L773.798 1098.71 L783.919 1093.6 L794.041 1088.49 L804.162 1083.4 L814.284 1078.31 L824.405 1073.23 L834.527 1068.15 L844.648 1063.09 L854.77 1058.03 L864.891 1052.99 
  L875.013 1047.95 L885.134 1042.92 L895.256 1037.89 L905.378 1032.88 L915.499 1027.88 L925.621 1022.88 L935.742 1017.89 L945.864 1012.92 L955.985 1007.95 L966.107 1002.99 
  L976.228 998.036 L986.35 993.094 L996.471 988.162 L1006.59 983.239 L1016.71 978.325 L1026.84 973.421 L1036.96 968.526 L1047.08 963.641 L1057.2 958.766 L1067.32 953.9 
  L1077.44 949.044 L1087.56 944.197 L1097.69 939.361 L1107.81 934.534 L1117.93 929.717 L1128.05 924.91 L1138.17 920.113 L1148.29 915.326 L1158.42 910.548 L1168.54 905.781 
  L1178.66 901.024 L1188.78 896.277 L1198.9 891.541 L1209.02 886.814 L1219.14 882.097 L1229.27 877.391 L1239.39 872.695 L1249.51 868.009 L1259.63 863.333 L1269.75 858.668 
  L1279.87 854.012 L1290 849.367 L1300.12 844.732 L1310.24 840.108 L1320.36 835.493 L1330.48 830.889 L1340.6 826.295 L1350.72 821.711 L1360.85 817.138 L1370.97 812.574 
  L1381.09 808.021 L1391.21 803.478 L1401.33 798.944 L1411.45 794.421 L1421.58 789.908 L1431.7 785.405 L1441.82 780.912 L1451.94 776.429 L1462.06 771.955 L1472.18 767.492 
  L1482.3 763.038 L1492.43 758.595 L1502.55 754.16 L1512.67 749.736 L1522.79 745.321 L1532.91 740.916 L1543.03 736.52 L1553.16 732.134 L1563.28 727.757 L1573.4 723.39 
  L1583.52 719.032 L1593.64 714.683 L1603.76 710.343 L1613.88 706.013 L1624.01 701.691 L1634.13 697.379 L1644.25 693.075 L1654.37 688.781 L1664.49 684.495 L1674.61 680.218 
  L1684.74 675.949 L1694.86 671.689 L1704.98 667.438 L1715.1 663.195 L1725.22 658.96 L1735.34 654.734 L1745.46 650.516 L1755.59 646.306 L1765.71 642.104 L1775.83 637.91 
  L1785.95 633.725 L1796.07 629.546 L1806.19 625.376 L1816.31 621.213 L1826.44 617.058 L1836.56 612.911 L1846.68 608.771 L1856.8 604.638 L1866.92 600.513 L1877.04 596.395 
  L1887.17 592.284 L1897.29 588.18 L1907.41 584.083 L1917.53 579.993 L1927.65 575.909 L1937.77 571.833 L1947.89 567.763 L1958.02 563.7 L1968.14 559.643 L1978.26 555.593 
  L1988.38 551.549 L1998.5 547.512 L2008.62 543.48 L2018.75 539.455 L2028.87 535.436 L2038.99 531.423 L2049.11 527.416 L2059.23 523.415 L2069.35 519.419 L2079.47 515.429 
  L2089.6 511.445 L2099.72 507.467 L2109.84 503.493 L2119.96 499.526 L2130.08 495.564 L2140.2 491.607 L2150.33 487.655 L2160.45 483.708 L2170.57 479.767 L2180.69 475.831 
  L2190.81 471.899 L2200.93 467.973 L2211.05 464.051 L2221.18 460.134 L2231.3 456.222 L2241.42 452.314 L2251.54 448.411 L2261.66 444.513 L2271.78 440.619 L2281.91 436.73 
  L2292.03 432.844 L2292.03 85.5582 L2281.91 90.9659 L2271.78 96.3693 L2261.66 101.768 L2251.54 107.163 L2241.42 112.553 L2231.3 117.938 L2221.18 123.319 L2211.05 128.695 
  L2200.93 134.066 L2190.81 139.432 L2180.69 144.794 L2170.57 150.15 L2160.45 155.502 L2150.33 160.848 L2140.2 166.189 L2130.08 171.525 L2119.96 176.856 L2109.84 182.181 
  L2099.72 187.501 L2089.6 192.815 L2079.47 198.124 L2069.35 203.427 L2059.23 208.724 L2049.11 214.016 L2038.99 219.302 L2028.87 224.581 L2018.75 229.855 L2008.62 235.123 
  L1998.5 240.385 L1988.38 245.64 L1978.26 250.889 L1968.14 256.132 L1958.02 261.368 L1947.89 266.597 L1937.77 271.821 L1927.65 277.037 L1917.53 282.247 L1907.41 287.449 
  L1897.29 292.645 L1887.17 297.834 L1877.04 303.016 L1866.92 308.191 L1856.8 313.358 L1846.68 318.518 L1836.56 323.671 L1826.44 328.817 L1816.31 333.955 L1806.19 339.085 
  L1796.07 344.207 L1785.95 349.322 L1775.83 354.429 L1765.71 359.528 L1755.59 364.619 L1745.46 369.702 L1735.34 374.777 L1725.22 379.843 L1715.1 384.902 L1704.98 389.952 
  L1694.86 394.993 L1684.74 400.026 L1674.61 405.05 L1664.49 410.066 L1654.37 415.073 L1644.25 420.071 L1634.13 425.061 L1624.01 430.041 L1613.88 435.013 L1603.76 439.975 
  L1593.64 444.928 L1583.52 449.872 L1573.4 454.807 L1563.28 459.732 L1553.16 464.649 L1543.03 469.555 L1532.91 474.452 L1522.79 479.34 L1512.67 484.218 L1502.55 489.087 
  L1492.43 493.945 L1482.3 498.795 L1472.18 503.634 L1462.06 508.463 L1451.94 513.283 L1441.82 518.093 L1431.7 522.892 L1421.58 527.682 L1411.45 532.462 L1401.33 537.232 
  L1391.21 541.991 L1381.09 546.741 L1370.97 551.48 L1360.85 556.21 L1350.72 560.929 L1340.6 565.638 L1330.48 570.337 L1320.36 575.026 L1310.24 579.704 L1300.12 584.372 
  L1290 589.03 L1279.87 593.678 L1269.75 598.316 L1259.63 602.943 L1249.51 607.56 L1239.39 612.167 L1229.27 616.764 L1219.14 621.35 L1209.02 625.927 L1198.9 630.493 
  L1188.78 635.049 L1178.66 639.595 L1168.54 644.131 L1158.42 648.657 L1148.29 653.172 L1138.17 657.678 L1128.05 662.174 L1117.93 666.66 L1107.81 671.136 L1097.69 675.602 
  L1087.56 680.058 L1077.44 684.504 L1067.32 688.941 L1057.2 693.368 L1047.08 697.785 L1036.96 702.193 L1026.84 706.591 L1016.71 710.98 L1006.59 715.359 L996.471 719.729 
  L986.35 724.09 L976.228 728.441 L966.107 732.783 L955.985 737.116 L945.864 741.44 L935.742 745.755 L925.621 750.061 L915.499 754.358 L905.378 758.646 L895.256 762.925 
  L885.134 767.196 L875.013 771.458 L864.891 775.712 L854.77 779.957 L844.648 784.194 L834.527 788.423 L824.405 792.643 L814.284 796.855 L804.162 801.059 L794.041 805.255 
  L783.919 809.443 L773.798 813.623 L763.676 817.796 L753.555 821.96 L743.433 826.117 L733.312 830.267 L723.19 834.409 L713.068 838.543 L702.947 842.671 L692.825 846.791 
  L682.704 850.904 L672.582 855.01 L662.461 859.108 L652.339 863.2 L642.218 867.285 L632.096 871.364 L621.975 875.435 L611.853 879.5 L601.732 883.559 L591.61 887.61 
  L581.489 891.656 L571.367 895.695 L561.246 899.728 L551.124 903.755 L541.003 907.776 L530.881 911.79 L520.759 915.799 L510.638 919.802 L500.516 923.799 L490.395 927.79 
  L480.273 931.776 L470.152 935.756 L460.03 939.73 L449.909 943.699 L439.787 947.663 L429.666 951.621 L419.544 955.575 L409.423 959.523 L399.301 963.465 L389.18 967.403 
  L379.058 971.336 L368.937 975.264 L358.815 979.187 L348.694 983.105 L338.572 987.018 L328.45 990.927 L318.329 994.831 L308.207 998.731 L298.086 1002.63 L287.964 1006.52 
  L277.843 1010.4 L267.721 1014.28  Z
  " fill="#e26f46" fill-rule="evenodd" fill-opacity="0.5"/>
<polyline clip-path="url(#clip832)" style="stroke:#e26f46; stroke-width:4; stroke-opacity:1; fill:none" points="
  267.721,1188.49 277.843,1183.84 287.964,1179.2 298.086,1174.55 308.207,1169.9 318.329,1165.26 328.45,1160.61 338.572,1155.96 348.694,1151.32 358.815,1146.67 
  368.937,1142.02 379.058,1137.38 389.18,1132.73 399.301,1128.09 409.423,1123.44 419.544,1118.79 429.666,1114.15 439.787,1109.5 449.909,1104.85 460.03,1100.21 
  470.152,1095.56 480.273,1090.91 490.395,1086.27 500.516,1081.62 510.638,1076.97 520.759,1072.33 530.881,1067.68 541.003,1063.04 551.124,1058.39 561.246,1053.74 
  571.367,1049.1 581.489,1044.45 591.61,1039.8 601.732,1035.16 611.853,1030.51 621.975,1025.86 632.096,1021.22 642.218,1016.57 652.339,1011.92 662.461,1007.28 
  672.582,1002.63 682.704,997.985 692.825,993.339 702.947,988.692 713.068,984.046 723.19,979.399 733.312,974.753 743.433,970.107 753.555,965.46 763.676,960.814 
  773.798,956.167 783.919,951.521 794.041,946.874 804.162,942.228 814.284,937.582 824.405,932.935 834.527,928.289 844.648,923.642 854.77,918.996 864.891,914.349 
  875.013,909.703 885.134,905.056 895.256,900.41 905.378,895.764 915.499,891.117 925.621,886.471 935.742,881.824 945.864,877.178 955.985,872.531 966.107,867.885 
  976.228,863.238 986.35,858.592 996.471,853.946 1006.59,849.299 1016.71,844.653 1026.84,840.006 1036.96,835.36 1047.08,830.713 1057.2,826.067 1067.32,821.421 
  1077.44,816.774 1087.56,812.128 1097.69,807.481 1107.81,802.835 1117.93,798.188 1128.05,793.542 1138.17,788.895 1148.29,784.249 1158.42,779.603 1168.54,774.956 
  1178.66,770.31 1188.78,765.663 1198.9,761.017 1209.02,756.37 1219.14,751.724 1229.27,747.077 1239.39,742.431 1249.51,737.785 1259.63,733.138 1269.75,728.492 
  1279.87,723.845 1290,719.199 1300.12,714.552 1310.24,709.906 1320.36,705.26 1330.48,700.613 1340.6,695.967 1350.72,691.32 1360.85,686.674 1370.97,682.027 
  1381.09,677.381 1391.21,672.734 1401.33,668.088 1411.45,663.442 1421.58,658.795 1431.7,654.149 1441.82,649.502 1451.94,644.856 1462.06,640.209 1472.18,635.563 
  1482.3,630.916 1492.43,626.27 1502.55,621.624 1512.67,616.977 1522.79,612.331 1532.91,607.684 1543.03,603.038 1553.16,598.391 1563.28,593.745 1573.4,589.099 
  1583.52,584.452 1593.64,579.806 1603.76,575.159 1613.88,570.513 1624.01,565.866 1634.13,561.22 1644.25,556.573 1654.37,551.927 1664.49,547.281 1674.61,542.634 
  1684.74,537.988 1694.86,533.341 1704.98,528.695 1715.1,524.048 1725.22,519.402 1735.34,514.755 1745.46,510.109 1755.59,505.463 1765.71,500.816 1775.83,496.17 
  1785.95,491.523 1796.07,486.877 1806.19,482.23 1816.31,477.584 1826.44,472.938 1836.56,468.291 1846.68,463.645 1856.8,458.998 1866.92,454.352 1877.04,449.705 
  1887.17,445.059 1897.29,440.412 1907.41,435.766 1917.53,431.12 1927.65,426.473 1937.77,421.827 1947.89,417.18 1958.02,412.534 1968.14,407.887 1978.26,403.241 
  1988.38,398.594 1998.5,393.948 2008.62,389.302 2018.75,384.655 2028.87,380.009 2038.99,375.362 2049.11,370.716 2059.23,366.069 2069.35,361.423 2079.47,356.777 
  2089.6,352.13 2099.72,347.484 2109.84,342.837 2119.96,338.191 2130.08,333.544 2140.2,328.898 2150.33,324.251 2160.45,319.605 2170.57,314.959 2180.69,310.312 
  2190.81,305.666 2200.93,301.019 2211.05,296.373 2221.18,291.726 2231.3,287.08 2241.42,282.433 2251.54,277.787 2261.66,273.141 2271.78,268.494 2281.91,263.848 
  2292.03,259.201 
  "/>
<path clip-path="url(#clip832)" d="
M267.721 1304.99 L277.843 1299.19 L287.964 1293.4 L298.086 1287.61 L308.207 1281.82 L318.329 1276.02 L328.45 1270.23 L338.572 1264.44 L348.694 1258.65 L358.815 1252.86 
  L368.937 1247.07 L379.058 1241.28 L389.18 1235.48 L399.301 1229.69 L409.423 1223.9 L419.544 1218.11 L429.666 1212.32 L439.787 1206.53 L449.909 1200.74 L460.03 1194.95 
  L470.152 1189.17 L480.273 1183.38 L490.395 1177.59 L500.516 1171.8 L510.638 1166.01 L520.759 1160.23 L530.881 1154.44 L541.003 1148.65 L551.124 1142.86 L561.246 1137.08 
  L571.367 1131.29 L581.489 1125.51 L591.61 1119.72 L601.732 1113.94 L611.853 1108.15 L621.975 1102.37 L632.096 1096.59 L642.218 1090.8 L652.339 1085.02 L662.461 1079.24 
  L672.582 1073.46 L682.704 1067.68 L692.825 1061.9 L702.947 1056.12 L713.068 1050.34 L723.19 1044.57 L733.312 1038.79 L743.433 1033.01 L753.555 1027.24 L763.676 1021.47 
  L773.798 1015.69 L783.919 1009.92 L794.041 1004.15 L804.162 998.381 L814.284 992.613 L824.405 986.846 L834.527 981.08 L844.648 975.316 L854.77 969.554 L864.891 963.793 
  L875.013 958.035 L885.134 952.278 L895.256 946.523 L905.378 940.771 L915.499 935.021 L925.621 929.274 L935.742 923.529 L945.864 917.788 L955.985 912.05 L966.107 906.316 
  L976.228 900.585 L986.35 894.859 L996.471 889.138 L1006.59 883.421 L1016.71 877.71 L1026.84 872.006 L1036.96 866.308 L1047.08 860.618 L1057.2 854.936 L1067.32 849.264 
  L1077.44 843.601 L1087.56 837.951 L1097.69 832.313 L1107.81 826.69 L1117.93 821.084 L1128.05 815.496 L1138.17 809.929 L1148.29 804.386 L1158.42 798.871 L1168.54 793.387 
  L1178.66 787.938 L1188.78 782.53 L1198.9 777.169 L1209.02 771.861 L1219.14 766.613 L1229.27 761.433 L1239.39 756.328 L1249.51 751.306 L1259.63 746.375 L1269.75 741.539 
  L1279.87 736.804 L1290 732.171 L1300.12 727.641 L1310.24 723.209 L1320.36 718.873 L1330.48 714.624 L1340.6 710.457 L1350.72 706.363 L1360.85 702.335 L1370.97 698.365 
  L1381.09 694.446 L1391.21 690.573 L1401.33 686.738 L1411.45 682.938 L1421.58 679.168 L1431.7 675.425 L1441.82 671.705 L1451.94 668.005 L1462.06 664.323 L1472.18 660.657 
  L1482.3 657.006 L1492.43 653.367 L1502.55 649.739 L1512.67 646.121 L1522.79 642.512 L1532.91 638.912 L1543.03 635.318 L1553.16 631.732 L1563.28 628.151 L1573.4 624.576 
  L1583.52 621.006 L1593.64 617.44 L1603.76 613.879 L1613.88 610.322 L1624.01 606.768 L1634.13 603.217 L1644.25 599.669 L1654.37 596.124 L1664.49 592.582 L1674.61 589.042 
  L1684.74 585.505 L1694.86 581.969 L1704.98 578.435 L1715.1 574.903 L1725.22 571.373 L1735.34 567.845 L1745.46 564.318 L1755.59 560.792 L1765.71 557.268 L1775.83 553.745 
  L1785.95 550.223 L1796.07 546.702 L1806.19 543.182 L1816.31 539.663 L1826.44 536.146 L1836.56 532.629 L1846.68 529.113 L1856.8 525.597 L1866.92 522.083 L1877.04 518.569 
  L1887.17 515.056 L1897.29 511.543 L1907.41 508.031 L1917.53 504.52 L1927.65 501.009 L1937.77 497.499 L1947.89 493.989 L1958.02 490.48 L1968.14 486.971 L1978.26 483.463 
  L1988.38 479.955 L1998.5 476.448 L2008.62 472.941 L2018.75 469.434 L2028.87 465.928 L2038.99 462.422 L2049.11 458.916 L2059.23 455.411 L2069.35 451.906 L2079.47 448.401 
  L2089.6 444.897 L2099.72 441.393 L2109.84 437.889 L2119.96 434.386 L2130.08 430.882 L2140.2 427.379 L2150.33 423.876 L2160.45 420.374 L2170.57 416.871 L2180.69 413.369 
  L2190.81 409.867 L2200.93 406.366 L2211.05 402.864 L2221.18 399.363 L2231.3 395.861 L2241.42 392.36 L2251.54 388.859 L2261.66 385.359 L2271.78 381.858 L2281.91 378.358 
  L2292.03 374.858 L2292.03 143.545 L2281.91 149.338 L2271.78 155.13 L2261.66 160.922 L2251.54 166.715 L2241.42 172.507 L2231.3 178.298 L2221.18 184.09 L2211.05 189.882 
  L2200.93 195.673 L2190.81 201.464 L2180.69 207.255 L2170.57 213.046 L2160.45 218.836 L2150.33 224.626 L2140.2 230.416 L2130.08 236.206 L2119.96 241.996 L2109.84 247.785 
  L2099.72 253.574 L2089.6 259.363 L2079.47 265.152 L2069.35 270.94 L2059.23 276.728 L2049.11 282.515 L2038.99 288.303 L2028.87 294.09 L2018.75 299.876 L2008.62 305.662 
  L1998.5 311.448 L1988.38 317.234 L1978.26 323.019 L1968.14 328.803 L1958.02 334.588 L1947.89 340.371 L1937.77 346.154 L1927.65 351.937 L1917.53 357.719 L1907.41 363.501 
  L1897.29 369.282 L1887.17 375.062 L1877.04 380.842 L1866.92 386.621 L1856.8 392.399 L1846.68 398.177 L1836.56 403.954 L1826.44 409.729 L1816.31 415.504 L1806.19 421.279 
  L1796.07 427.052 L1785.95 432.824 L1775.83 438.595 L1765.71 444.365 L1755.59 450.133 L1745.46 455.9 L1735.34 461.666 L1725.22 467.43 L1715.1 473.193 L1704.98 478.954 
  L1694.86 484.714 L1684.74 490.471 L1674.61 496.226 L1664.49 501.979 L1654.37 507.73 L1644.25 513.478 L1634.13 519.223 L1624.01 524.965 L1613.88 530.704 L1603.76 536.439 
  L1593.64 542.171 L1583.52 547.898 L1573.4 553.621 L1563.28 559.339 L1553.16 565.051 L1543.03 570.757 L1532.91 576.457 L1522.79 582.149 L1512.67 587.833 L1502.55 593.508 
  L1492.43 599.173 L1482.3 604.827 L1472.18 610.468 L1462.06 616.096 L1451.94 621.707 L1441.82 627.3 L1431.7 632.873 L1421.58 638.422 L1411.45 643.945 L1401.33 649.438 
  L1391.21 654.896 L1381.09 660.315 L1370.97 665.689 L1360.85 671.012 L1350.72 676.277 L1340.6 681.476 L1330.48 686.602 L1320.36 691.646 L1310.24 696.603 L1300.12 701.464 
  L1290 706.226 L1279.87 710.886 L1269.75 715.444 L1259.63 719.901 L1249.51 724.263 L1239.39 728.534 L1229.27 732.722 L1219.14 736.834 L1209.02 740.879 L1198.9 744.864 
  L1188.78 748.796 L1178.66 752.681 L1168.54 756.526 L1158.42 760.334 L1148.29 764.112 L1138.17 767.862 L1128.05 771.588 L1117.93 775.293 L1107.81 778.979 L1097.69 782.649 
  L1087.56 786.304 L1077.44 789.947 L1067.32 793.577 L1057.2 797.198 L1047.08 800.809 L1036.96 804.411 L1026.84 808.007 L1016.71 811.595 L1006.59 815.177 L996.471 818.754 
  L986.35 822.325 L976.228 825.892 L966.107 829.454 L955.985 833.013 L945.864 836.568 L935.742 840.119 L925.621 843.668 L915.499 847.213 L905.378 850.756 L895.256 854.297 
  L885.134 857.835 L875.013 861.371 L864.891 864.905 L854.77 868.437 L844.648 871.968 L834.527 875.497 L824.405 879.024 L814.284 882.55 L804.162 886.075 L794.041 889.598 
  L783.919 893.121 L773.798 896.642 L763.676 900.162 L753.555 903.681 L743.433 907.199 L733.312 910.716 L723.19 914.233 L713.068 917.748 L702.947 921.263 L692.825 924.777 
  L682.704 928.29 L672.582 931.803 L662.461 935.315 L652.339 938.826 L642.218 942.337 L632.096 945.848 L621.975 949.357 L611.853 952.867 L601.732 956.376 L591.61 959.884 
  L581.489 963.392 L571.367 966.9 L561.246 970.407 L551.124 973.913 L541.003 977.42 L530.881 980.926 L520.759 984.431 L510.638 987.937 L500.516 991.442 L490.395 994.947 
  L480.273 998.451 L470.152 1001.96 L460.03 1005.46 L449.909 1008.96 L439.787 1012.47 L429.666 1015.97 L419.544 1019.47 L409.423 1022.97 L399.301 1026.48 L389.18 1029.98 
  L379.058 1033.48 L368.937 1036.98 L358.815 1040.48 L348.694 1043.99 L338.572 1047.49 L328.45 1050.99 L318.329 1054.49 L308.207 1057.99 L298.086 1061.49 L287.964 1064.99 
  L277.843 1068.49 L267.721 1071.99  Z
  " fill="#3da44d" fill-rule="evenodd" fill-opacity="0.5"/>
<polyline clip-path="url(#clip832)" style="stroke:#3da44d; stroke-width:4; stroke-opacity:1; fill:none" points="
  267.721,1188.49 277.843,1183.84 287.964,1179.2 298.086,1174.55 308.207,1169.9 318.329,1165.26 328.45,1160.61 338.572,1155.96 348.694,1151.32 358.815,1146.67 
  368.937,1142.02 379.058,1137.38 389.18,1132.73 399.301,1128.09 409.423,1123.44 419.544,1118.79 429.666,1114.15 439.787,1109.5 449.909,1104.85 460.03,1100.21 
  470.152,1095.56 480.273,1090.91 490.395,1086.27 500.516,1081.62 510.638,1076.97 520.759,1072.33 530.881,1067.68 541.003,1063.04 551.124,1058.39 561.246,1053.74 
  571.367,1049.1 581.489,1044.45 591.61,1039.8 601.732,1035.16 611.853,1030.51 621.975,1025.86 632.096,1021.22 642.218,1016.57 652.339,1011.92 662.461,1007.28 
  672.582,1002.63 682.704,997.985 692.825,993.339 702.947,988.692 713.068,984.046 723.19,979.399 733.312,974.753 743.433,970.107 753.555,965.46 763.676,960.814 
  773.798,956.167 783.919,951.521 794.041,946.874 804.162,942.228 814.284,937.582 824.405,932.935 834.527,928.289 844.648,923.642 854.77,918.996 864.891,914.349 
  875.013,909.703 885.134,905.056 895.256,900.41 905.378,895.764 915.499,891.117 925.621,886.471 935.742,881.824 945.864,877.178 955.985,872.531 966.107,867.885 
  976.228,863.238 986.35,858.592 996.471,853.946 1006.59,849.299 1016.71,844.653 1026.84,840.006 1036.96,835.36 1047.08,830.713 1057.2,826.067 1067.32,821.421 
  1077.44,816.774 1087.56,812.128 1097.69,807.481 1107.81,802.835 1117.93,798.188 1128.05,793.542 1138.17,788.895 1148.29,784.249 1158.42,779.603 1168.54,774.956 
  1178.66,770.31 1188.78,765.663 1198.9,761.017 1209.02,756.37 1219.14,751.724 1229.27,747.077 1239.39,742.431 1249.51,737.785 1259.63,733.138 1269.75,728.492 
  1279.87,723.845 1290,719.199 1300.12,714.552 1310.24,709.906 1320.36,705.26 1330.48,700.613 1340.6,695.967 1350.72,691.32 1360.85,686.674 1370.97,682.027 
  1381.09,677.381 1391.21,672.734 1401.33,668.088 1411.45,663.442 1421.58,658.795 1431.7,654.149 1441.82,649.502 1451.94,644.856 1462.06,640.209 1472.18,635.563 
  1482.3,630.916 1492.43,626.27 1502.55,621.624 1512.67,616.977 1522.79,612.331 1532.91,607.684 1543.03,603.038 1553.16,598.391 1563.28,593.745 1573.4,589.099 
  1583.52,584.452 1593.64,579.806 1603.76,575.159 1613.88,570.513 1624.01,565.866 1634.13,561.22 1644.25,556.573 1654.37,551.927 1664.49,547.281 1674.61,542.634 
  1684.74,537.988 1694.86,533.341 1704.98,528.695 1715.1,524.048 1725.22,519.402 1735.34,514.755 1745.46,510.109 1755.59,505.463 1765.71,500.816 1775.83,496.17 
  1785.95,491.523 1796.07,486.877 1806.19,482.23 1816.31,477.584 1826.44,472.938 1836.56,468.291 1846.68,463.645 1856.8,458.998 1866.92,454.352 1877.04,449.705 
  1887.17,445.059 1897.29,440.412 1907.41,435.766 1917.53,431.12 1927.65,426.473 1937.77,421.827 1947.89,417.18 1958.02,412.534 1968.14,407.887 1978.26,403.241 
  1988.38,398.594 1998.5,393.948 2008.62,389.302 2018.75,384.655 2028.87,380.009 2038.99,375.362 2049.11,370.716 2059.23,366.069 2069.35,361.423 2079.47,356.777 
  2089.6,352.13 2099.72,347.484 2109.84,342.837 2119.96,338.191 2130.08,333.544 2140.2,328.898 2150.33,324.251 2160.45,319.605 2170.57,314.959 2180.69,310.312 
  2190.81,305.666 2200.93,301.019 2211.05,296.373 2221.18,291.726 2231.3,287.08 2241.42,282.433 2251.54,277.787 2261.66,273.141 2271.78,268.494 2281.91,263.848 
  2292.03,259.201 
  "/>
<path clip-path="url(#clip830)" d="
M278.518 334.29 L677.51 334.29 L677.51 92.3696 L278.518 92.3696  Z
  " fill="#ffffff" fill-rule="evenodd" fill-opacity="1"/>
<polyline clip-path="url(#clip830)" style="stroke:#000000; stroke-width:4; stroke-opacity:1; fill:none" points="
  278.518,334.29 677.51,334.29 677.51,92.3696 278.518,92.3696 278.518,334.29 
  "/>
<circle clip-path="url(#clip830)" cx="373.885" cy="152.85" r="23" fill="#009af9" fill-rule="evenodd" fill-opacity="1" stroke="#000000" stroke-opacity="1" stroke-width="5.12"/>
<g clip-path="url(#clip830)">
<text style="fill:#000000; fill-opacity:1; font-family:Arial,Helvetica Neue,Helvetica,sans-serif; font-size:48px; text-anchor:start;" transform="rotate(0, 469.252, 170.35)" x="469.252" y="170.35">data     </text>
</g>
<polyline clip-path="url(#clip830)" style="stroke:#e26f46; stroke-width:4; stroke-opacity:1; fill:none" points="
  302.359,213.33 445.41,213.33 
  "/>
<g clip-path="url(#clip830)">
<text style="fill:#000000; fill-opacity:1; font-family:Arial,Helvetica Neue,Helvetica,sans-serif; font-size:48px; text-anchor:start;" transform="rotate(0, 469.252, 230.83)" x="469.252" y="230.83">予測区間</text>
</g>
<polyline clip-path="url(#clip830)" style="stroke:#3da44d; stroke-width:4; stroke-opacity:1; fill:none" points="
  302.359,273.81 445.41,273.81 
  "/>
<g clip-path="url(#clip830)">
<text style="fill:#000000; fill-opacity:1; font-family:Arial,Helvetica Neue,Helvetica,sans-serif; font-size:48px; text-anchor:start;" transform="rotate(0, 469.252, 291.31)" x="469.252" y="291.31">信頼区間</text>
</g>
</svg>
