<?xml version="1.0" encoding="utf-8"?>
<svg xmlns="http://www.w3.org/2000/svg" xmlns:xlink="http://www.w3.org/1999/xlink" width="150" height="100" viewBox="0 0 600 400">
<defs>
  <clipPath id="clip540">
    <rect x="0" y="0" width="600" height="400"/>
  </clipPath>
</defs>
<path clip-path="url(#clip540)" d="
M0 400 L600 400 L600 0 L0 0  Z
  " fill="#ffffff" fill-rule="evenodd" fill-opacity="1"/>
<defs>
  <clipPath id="clip541">
    <rect x="120" y="0" width="421" height="400"/>
  </clipPath>
</defs>
<path clip-path="url(#clip540)" d="
M21.748 380.252 L588.189 380.252 L588.189 15.748 L21.748 15.748  Z
  " fill="#ffffff" fill-rule="evenodd" fill-opacity="1"/>
<defs>
  <clipPath id="clip542">
    <rect x="21" y="15" width="567" height="366"/>
  </clipPath>
</defs>
<polyline clip-path="url(#clip542)" style="stroke:#000000; stroke-width:0.5; stroke-opacity:0.1; fill:none" points="
  21.748,380.252 21.748,15.748 
  "/>
<polyline clip-path="url(#clip542)" style="stroke:#000000; stroke-width:0.5; stroke-opacity:0.1; fill:none" points="
  163.358,380.252 163.358,15.748 
  "/>
<polyline clip-path="url(#clip542)" style="stroke:#000000; stroke-width:0.5; stroke-opacity:0.1; fill:none" points="
  304.969,380.252 304.969,15.748 
  "/>
<polyline clip-path="url(#clip542)" style="stroke:#000000; stroke-width:0.5; stroke-opacity:0.1; fill:none" points="
  446.579,380.252 446.579,15.748 
  "/>
<polyline clip-path="url(#clip542)" style="stroke:#000000; stroke-width:0.5; stroke-opacity:0.1; fill:none" points="
  588.189,380.252 588.189,15.748 
  "/>
<polyline clip-path="url(#clip540)" style="stroke:#000000; stroke-width:1; stroke-opacity:1; fill:none" points="
  21.748,380.252 588.189,380.252 
  "/>
<polyline clip-path="url(#clip540)" style="stroke:#000000; stroke-width:1; stroke-opacity:1; fill:none" points="
  21.748,380.252 21.748,375.878 
  "/>
<polyline clip-path="url(#clip540)" style="stroke:#000000; stroke-width:1; stroke-opacity:1; fill:none" points="
  163.358,380.252 163.358,375.878 
  "/>
<polyline clip-path="url(#clip540)" style="stroke:#000000; stroke-width:1; stroke-opacity:1; fill:none" points="
  304.969,380.252 304.969,375.878 
  "/>
<polyline clip-path="url(#clip540)" style="stroke:#000000; stroke-width:1; stroke-opacity:1; fill:none" points="
  446.579,380.252 446.579,375.878 
  "/>
<polyline clip-path="url(#clip540)" style="stroke:#000000; stroke-width:1; stroke-opacity:1; fill:none" points="
  588.189,380.252 588.189,375.878 
  "/>
<g clip-path="url(#clip540)">
<text style="fill:#000000; fill-opacity:1; font-family:Arial,Helvetica Neue,Helvetica,sans-serif; font-size:12px; text-anchor:middle;" transform="rotate(0, 21.748, 395.852)" x="21.748" y="395.852">0</text>
</g>
<g clip-path="url(#clip540)">
<text style="fill:#000000; fill-opacity:1; font-family:Arial,Helvetica Neue,Helvetica,sans-serif; font-size:12px; text-anchor:middle;" transform="rotate(0, 163.358, 395.852)" x="163.358" y="395.852">2</text>
</g>
<g clip-path="url(#clip540)">
<text style="fill:#000000; fill-opacity:1; font-family:Arial,Helvetica Neue,Helvetica,sans-serif; font-size:12px; text-anchor:middle;" transform="rotate(0, 304.969, 395.852)" x="304.969" y="395.852">4</text>
</g>
<g clip-path="url(#clip540)">
<text style="fill:#000000; fill-opacity:1; font-family:Arial,Helvetica Neue,Helvetica,sans-serif; font-size:12px; text-anchor:middle;" transform="rotate(0, 446.579, 395.852)" x="446.579" y="395.852">6</text>
</g>
<g clip-path="url(#clip540)">
<text style="fill:#000000; fill-opacity:1; font-family:Arial,Helvetica Neue,Helvetica,sans-serif; font-size:12px; text-anchor:middle;" transform="rotate(0, 588.189, 395.852)" x="588.189" y="395.852">8</text>
</g>
<polyline clip-path="url(#clip542)" style="stroke:#000000; stroke-width:0.5; stroke-opacity:0.1; fill:none" points="
  21.748,380.252 588.189,380.252 
  "/>
<polyline clip-path="url(#clip542)" style="stroke:#000000; stroke-width:0.5; stroke-opacity:0.1; fill:none" points="
  21.748,307.351 588.189,307.351 
  "/>
<polyline clip-path="url(#clip542)" style="stroke:#000000; stroke-width:0.5; stroke-opacity:0.1; fill:none" points="
  21.748,234.45 588.189,234.45 
  "/>
<polyline clip-path="url(#clip542)" style="stroke:#000000; stroke-width:0.5; stroke-opacity:0.1; fill:none" points="
  21.748,161.55 588.189,161.55 
  "/>
<polyline clip-path="url(#clip542)" style="stroke:#000000; stroke-width:0.5; stroke-opacity:0.1; fill:none" points="
  21.748,88.6488 588.189,88.6488 
  "/>
<polyline clip-path="url(#clip542)" style="stroke:#000000; stroke-width:0.5; stroke-opacity:0.1; fill:none" points="
  21.748,15.748 588.189,15.748 
  "/>
<polyline clip-path="url(#clip540)" style="stroke:#000000; stroke-width:1; stroke-opacity:1; fill:none" points="
  21.748,380.252 21.748,15.748 
  "/>
<polyline clip-path="url(#clip540)" style="stroke:#000000; stroke-width:1; stroke-opacity:1; fill:none" points="
  21.748,380.252 28.5453,380.252 
  "/>
<polyline clip-path="url(#clip540)" style="stroke:#000000; stroke-width:1; stroke-opacity:1; fill:none" points="
  21.748,307.351 28.5453,307.351 
  "/>
<polyline clip-path="url(#clip540)" style="stroke:#000000; stroke-width:1; stroke-opacity:1; fill:none" points="
  21.748,234.45 28.5453,234.45 
  "/>
<polyline clip-path="url(#clip540)" style="stroke:#000000; stroke-width:1; stroke-opacity:1; fill:none" points="
  21.748,161.55 28.5453,161.55 
  "/>
<polyline clip-path="url(#clip540)" style="stroke:#000000; stroke-width:1; stroke-opacity:1; fill:none" points="
  21.748,88.6488 28.5453,88.6488 
  "/>
<polyline clip-path="url(#clip540)" style="stroke:#000000; stroke-width:1; stroke-opacity:1; fill:none" points="
  21.748,15.748 28.5453,15.748 
  "/>
<g clip-path="url(#clip540)">
<text style="fill:#000000; fill-opacity:1; font-family:Arial,Helvetica Neue,Helvetica,sans-serif; font-size:12px; text-anchor:end;" transform="rotate(0, 12.748, 384.752)" x="12.748" y="384.752">0.0</text>
</g>
<g clip-path="url(#clip540)">
<text style="fill:#000000; fill-opacity:1; font-family:Arial,Helvetica Neue,Helvetica,sans-serif; font-size:12px; text-anchor:end;" transform="rotate(0, 12.748, 311.851)" x="12.748" y="311.851">0.2</text>
</g>
<g clip-path="url(#clip540)">
<text style="fill:#000000; fill-opacity:1; font-family:Arial,Helvetica Neue,Helvetica,sans-serif; font-size:12px; text-anchor:end;" transform="rotate(0, 12.748, 238.95)" x="12.748" y="238.95">0.4</text>
</g>
<g clip-path="url(#clip540)">
<text style="fill:#000000; fill-opacity:1; font-family:Arial,Helvetica Neue,Helvetica,sans-serif; font-size:12px; text-anchor:end;" transform="rotate(0, 12.748, 166.05)" x="12.748" y="166.05">0.6</text>
</g>
<g clip-path="url(#clip540)">
<text style="fill:#000000; fill-opacity:1; font-family:Arial,Helvetica Neue,Helvetica,sans-serif; font-size:12px; text-anchor:end;" transform="rotate(0, 12.748, 93.1488)" x="12.748" y="93.1488">0.8</text>
</g>
<g clip-path="url(#clip540)">
<text style="fill:#000000; fill-opacity:1; font-family:Arial,Helvetica Neue,Helvetica,sans-serif; font-size:12px; text-anchor:end;" transform="rotate(0, 12.748, 20.248)" x="12.748" y="20.248">1.0</text>
</g>
<g clip-path="url(#clip540)">
<text style="fill:#000000; fill-opacity:1; font-family:Arial,Helvetica Neue,Helvetica,sans-serif; font-size:21px; text-anchor:middle;" transform="rotate(0, 304.969, 18)" x="304.969" y="18">DOF of chi</text>
</g>
<polyline clip-path="url(#clip542)" style="stroke:#009af9; stroke-width:1; stroke-opacity:1; fill:none" points="
  28.8285,-57.167 35.9091,86.0349 42.9896,151.741 50.0701,192.007 57.1506,220.092 64.2311,241.177 71.3116,257.773 78.3921,271.271 85.4726,282.515 92.5531,292.053 
  99.6337,300.259 106.714,307.399 113.795,313.671 120.875,319.222 127.956,324.167 135.036,328.596 142.117,332.583 149.197,336.185 156.278,339.452 163.358,342.425 
  170.439,345.137 177.519,347.617 184.6,349.891 191.68,351.98 198.761,353.902 205.841,355.674 212.922,357.31 220.002,358.822 227.083,360.222 234.163,361.519 
  241.244,362.722 248.324,363.84 255.405,364.879 262.485,365.845 269.566,366.745 276.646,367.583 283.727,368.365 290.807,369.095 297.888,369.776 304.969,370.412 
  312.049,371.007 319.13,371.563 326.21,372.083 333.291,372.571 340.371,373.027 347.452,373.454 354.532,373.855 361.613,374.231 368.693,374.583 375.774,374.914 
  382.854,375.224 389.935,375.516 397.015,375.789 404.096,376.046 411.176,376.288 418.257,376.515 425.337,376.729 432.418,376.93 439.498,377.119 446.579,377.296 
  453.659,377.464 460.74,377.621 467.82,377.769 474.901,377.909 481.981,378.04 489.062,378.164 496.142,378.281 503.223,378.391 510.303,378.495 517.384,378.592 
  524.464,378.684 531.545,378.771 538.625,378.853 545.706,378.93 552.786,379.003 559.867,379.072 566.947,379.137 574.028,379.198 581.108,379.256 588.189,379.31 
  
  "/>
<polyline clip-path="url(#clip542)" style="stroke:#e26f46; stroke-width:1; stroke-opacity:1; fill:none" points="
  28.8285,206.889 35.9091,215.344 42.9896,223.386 50.0701,231.037 57.1506,238.314 64.2311,245.236 71.3116,251.821 78.3921,258.085 85.4726,264.043 92.5531,269.711 
  99.6337,275.102 106.714,280.23 113.795,285.108 120.875,289.748 127.956,294.162 135.036,298.361 142.117,302.355 149.197,306.154 156.278,309.768 163.358,313.205 
  170.439,316.475 177.519,319.586 184.6,322.544 191.68,325.359 198.761,328.036 205.841,330.583 212.922,333.005 220.002,335.309 227.083,337.501 234.163,339.586 
  241.244,341.569 248.324,343.456 255.405,345.25 262.485,346.958 269.566,348.581 276.646,350.126 283.727,351.595 290.807,352.993 297.888,354.322 304.969,355.587 
  312.049,356.79 319.13,357.934 326.21,359.023 333.291,360.058 340.371,361.043 347.452,361.98 354.532,362.871 361.613,363.718 368.693,364.525 375.774,365.292 
  382.854,366.021 389.935,366.715 397.015,367.376 404.096,368.004 411.176,368.601 418.257,369.169 425.337,369.71 432.418,370.224 439.498,370.713 446.579,371.178 
  453.659,371.621 460.74,372.042 467.82,372.442 474.901,372.823 481.981,373.185 489.062,373.53 496.142,373.858 503.223,374.17 510.303,374.466 517.384,374.748 
  524.464,375.017 531.545,375.272 538.625,375.515 545.706,375.746 552.786,375.966 559.867,376.175 566.947,376.374 574.028,376.563 581.108,376.743 588.189,376.914 
  
  "/>
<polyline clip-path="url(#clip542)" style="stroke:#3da44d; stroke-width:1; stroke-opacity:1; fill:none" points="
  28.8285,336.51 35.9091,321.409 42.9896,311.699 50.0701,304.954 57.1506,300.172 64.2311,296.807 71.3116,294.517 78.3921,293.067 85.4726,292.289 92.5531,292.053 
  99.6337,292.259 106.714,292.829 113.795,293.697 120.875,294.81 127.956,296.125 135.036,297.603 142.117,299.214 149.197,300.932 156.278,302.733 163.358,304.598 
  170.439,306.51 177.519,308.456 184.6,310.423 191.68,312.4 198.761,314.378 205.841,316.35 212.922,318.308 220.002,320.248 227.083,322.164 234.163,324.053 
  241.244,325.91 248.324,327.733 255.405,329.52 262.485,331.268 269.566,332.977 276.646,334.645 283.727,336.271 290.807,337.854 297.888,339.395 304.969,340.892 
  312.049,342.347 319.13,343.758 326.21,345.127 333.291,346.454 340.371,347.739 347.452,348.983 354.532,350.186 361.613,351.35 368.693,352.475 375.774,353.561 
  382.854,354.61 389.935,355.623 397.015,356.6 404.096,357.542 411.176,358.451 418.257,359.326 425.337,360.17 432.418,360.982 439.498,361.765 446.579,362.518 
  453.659,363.243 460.74,363.94 467.82,364.611 474.901,365.257 481.981,365.877 489.062,366.473 496.142,367.046 503.223,367.597 510.303,368.126 517.384,368.634 
  524.464,369.122 531.545,369.59 538.625,370.04 545.706,370.472 552.786,370.886 559.867,371.284 566.947,371.665 574.028,372.031 581.108,372.382 588.189,372.719 
  
  "/>
<polyline clip-path="url(#clip542)" style="stroke:#c271d2; stroke-width:1; stroke-opacity:1; fill:none" points="
  28.8285,371.584 35.9091,363.761 42.9896,356.722 50.0701,350.409 57.1506,344.767 64.2311,339.747 71.3116,335.301 78.3921,331.385 85.4726,327.958 92.5531,324.981 
  99.6337,322.419 106.714,320.239 113.795,318.408 120.875,316.899 127.956,315.685 135.036,314.739 142.117,314.039 149.197,313.564 156.278,313.292 163.358,313.205 
  170.439,313.286 177.519,313.519 184.6,313.888 191.68,314.38 198.761,314.982 205.841,315.682 212.922,316.468 220.002,317.332 227.083,318.263 234.163,319.253 
  241.244,320.294 248.324,321.378 255.405,322.5 262.485,323.651 269.566,324.828 276.646,326.025 283.727,327.237 290.807,328.46 297.888,329.689 304.969,330.922 
  312.049,332.154 319.13,333.384 326.21,334.609 333.291,335.825 340.371,337.031 347.452,338.226 354.532,339.406 361.613,340.572 368.693,341.72 375.774,342.852 
  382.854,343.964 389.935,345.057 397.015,346.13 404.096,347.181 411.176,348.212 418.257,349.22 425.337,350.207 432.418,351.171 439.498,352.112 446.579,353.031 
  453.659,353.927 460.74,354.8 467.82,355.651 474.901,356.479 481.981,357.285 489.062,358.069 496.142,358.831 503.223,359.572 510.303,360.291 517.384,360.99 
  524.464,361.667 531.545,362.325 538.625,362.962 545.706,363.58 552.786,364.179 559.867,364.759 566.947,365.321 574.028,365.864 581.108,366.391 588.189,366.9 
  
  "/>
<polyline clip-path="url(#clip542)" style="stroke:#ac8d18; stroke-width:1; stroke-opacity:1; fill:none" points="
  28.8285,378.794 35.9091,376.329 42.9896,373.397 50.0701,370.212 57.1506,366.905 64.2311,363.563 71.3116,360.247 78.3921,357.003 85.4726,353.863 92.5531,350.852 
  99.6337,347.988 106.714,345.283 113.795,342.745 120.875,340.379 127.956,338.188 135.036,336.173 142.117,334.331 149.197,332.66 156.278,331.156 163.358,329.816 
  170.439,328.633 177.519,327.602 184.6,326.716 191.68,325.97 198.761,325.357 205.841,324.87 212.922,324.503 220.002,324.248 227.083,324.101 234.163,324.053 
  241.244,324.098 248.324,324.232 255.405,324.447 262.485,324.737 269.566,325.098 276.646,325.523 283.727,326.008 290.807,326.548 297.888,327.137 304.969,327.772 
  312.049,328.448 319.13,329.161 326.21,329.906 333.291,330.682 340.371,331.483 347.452,332.306 354.532,333.149 361.613,334.009 368.693,334.883 375.774,335.767 
  382.854,336.661 389.935,337.562 397.015,338.467 404.096,339.374 411.176,340.283 418.257,341.191 425.337,342.096 432.418,342.997 439.498,343.894 446.579,344.784 
  453.659,345.667 460.74,346.541 467.82,347.407 474.901,348.262 481.981,349.106 489.062,349.939 496.142,350.759 503.223,351.567 510.303,352.362 517.384,353.143 
  524.464,353.911 531.545,354.664 538.625,355.403 545.706,356.128 552.786,356.838 559.867,357.533 566.947,358.213 574.028,358.878 581.108,359.528 588.189,360.163 
  
  "/>
<polyline clip-path="url(#clip542)" style="stroke:#00a9ad; stroke-width:1; stroke-opacity:1; fill:none" points="
  28.8285,380.035 35.9091,379.427 42.9896,378.487 50.0701,377.268 57.1506,375.816 64.2311,374.176 71.3116,372.386 78.3921,370.479 85.4726,368.486 92.5531,366.434 
  99.6337,364.348 106.714,362.248 113.795,360.153 120.875,358.079 127.956,356.039 135.036,354.047 142.117,352.112 149.197,350.242 156.278,348.446 163.358,346.729 
  170.439,345.095 177.519,343.549 184.6,342.093 191.68,340.729 198.761,339.458 205.841,338.281 212.922,337.198 220.002,336.208 227.083,335.31 234.163,334.503 
  241.244,333.784 248.324,333.153 255.405,332.606 262.485,332.142 269.566,331.756 276.646,331.448 283.727,331.213 290.807,331.049 297.888,330.953 304.969,330.922 
  312.049,330.952 319.13,331.041 326.21,331.185 333.291,331.382 340.371,331.629 347.452,331.922 354.532,332.258 361.613,332.635 368.693,333.051 375.774,333.501 
  382.854,333.985 389.935,334.499 397.015,335.04 404.096,335.607 411.176,336.197 418.257,336.808 425.337,337.437 432.418,338.084 439.498,338.745 446.579,339.42 
  453.659,340.106 460.74,340.801 467.82,341.505 474.901,342.216 481.981,342.931 489.062,343.651 496.142,344.373 503.223,345.096 510.303,345.82 517.384,346.543 
  524.464,347.264 531.545,347.983 538.625,348.698 545.706,349.409 552.786,350.115 559.867,350.815 566.947,351.509 574.028,352.196 581.108,352.876 588.189,353.547 
  
  "/>
<polyline clip-path="url(#clip542)" style="stroke:#ed5d92; stroke-width:1; stroke-opacity:1; fill:none" points="
  28.8285,380.223 35.9091,380.095 42.9896,379.841 50.0701,379.449 57.1506,378.917 64.2311,378.249 71.3116,377.451 78.3921,376.532 85.4726,375.502 92.5531,374.372 
  99.6337,373.154 106.714,371.859 113.795,370.5 120.875,369.088 127.956,367.633 135.036,366.147 142.117,364.639 149.197,363.119 156.278,361.596 163.358,360.078 
  170.439,358.572 177.519,357.086 184.6,355.626 191.68,354.197 198.761,352.804 205.841,351.453 212.922,350.147 220.002,348.89 227.083,347.684 234.163,346.532 
  241.244,345.437 248.324,344.399 255.405,343.42 262.485,342.502 269.566,341.644 276.646,340.847 283.727,340.112 290.807,339.437 297.888,338.823 304.969,338.268 
  312.049,337.773 319.13,337.335 326.21,336.955 333.291,336.63 340.371,336.36 347.452,336.142 354.532,335.975 361.613,335.859 368.693,335.79 375.774,335.767 
  382.854,335.789 389.935,335.854 397.015,335.959 404.096,336.104 411.176,336.286 418.257,336.503 425.337,336.754 432.418,337.037 439.498,337.349 446.579,337.691 
  453.659,338.058 460.74,338.451 467.82,338.867 474.901,339.304 481.981,339.762 489.062,340.238 496.142,340.732 503.223,341.241 510.303,341.764 517.384,342.3 
  524.464,342.848 531.545,343.406 538.625,343.973 545.706,344.548 552.786,345.131 559.867,345.719 566.947,346.312 574.028,346.909 581.108,347.508 588.189,348.11 
  
  "/>
<polyline clip-path="url(#clip542)" style="stroke:#c68125; stroke-width:1; stroke-opacity:1; fill:none" points="
  28.8285,380.248 35.9091,380.224 42.9896,380.164 50.0701,380.053 57.1506,379.882 64.2311,379.644 71.3116,379.334 78.3921,378.949 85.4726,378.487 92.5531,377.949 
  99.6337,377.336 106.714,376.651 113.795,375.897 120.875,375.078 127.956,374.199 135.036,373.264 142.117,372.279 149.197,371.249 156.278,370.18 163.358,369.078 
  170.439,367.947 177.519,366.794 184.6,365.624 191.68,364.443 198.761,363.255 205.841,362.065 212.922,360.878 220.002,359.698 227.083,358.53 234.163,357.377 
  241.244,356.244 248.324,355.133 255.405,354.047 262.485,352.989 269.566,351.963 276.646,350.969 283.727,350.011 290.807,349.09 297.888,348.208 304.969,347.365 
  312.049,346.564 319.13,345.804 326.21,345.088 333.291,344.414 340.371,343.784 347.452,343.199 354.532,342.657 361.613,342.159 368.693,341.704 375.774,341.293 
  382.854,340.925 389.935,340.599 397.015,340.315 404.096,340.071 411.176,339.868 418.257,339.704 425.337,339.578 432.418,339.489 439.498,339.437 446.579,339.42 
  453.659,339.437 460.74,339.486 467.82,339.568 474.901,339.68 481.981,339.821 489.062,339.99 496.142,340.187 503.223,340.409 510.303,340.655 517.384,340.925 
  524.464,341.216 531.545,341.529 538.625,341.861 545.706,342.212 552.786,342.581 559.867,342.965 566.947,343.365 574.028,343.779 581.108,344.207 588.189,344.646 
  
  "/>
<polyline clip-path="url(#clip542)" style="stroke:#00a98d; stroke-width:1; stroke-opacity:1; fill:none" points="
  28.8285,380.252 35.9091,380.247 42.9896,380.234 50.0701,380.206 57.1506,380.157 64.2311,380.08 71.3116,379.972 78.3921,379.827 85.4726,379.641 92.5531,379.412 
  99.6337,379.137 106.714,378.813 113.795,378.441 120.875,378.019 127.956,377.548 135.036,377.028 142.117,376.46 149.197,375.846 156.278,375.188 163.358,374.488 
  170.439,373.748 177.519,372.971 184.6,372.16 191.68,371.319 198.761,370.449 205.841,369.555 212.922,368.64 220.002,367.707 227.083,366.76 234.163,365.801 
  241.244,364.834 248.324,363.862 255.405,362.889 262.485,361.916 269.566,360.948 276.646,359.987 283.727,359.035 290.807,358.095 297.888,357.17 304.969,356.261 
  312.049,355.371 319.13,354.502 326.21,353.655 333.291,352.832 340.371,352.035 347.452,351.265 354.532,350.523 361.613,349.811 368.693,349.129 375.774,348.477 
  382.854,347.858 389.935,347.271 397.015,346.716 404.096,346.195 411.176,345.707 418.257,345.253 425.337,344.832 432.418,344.445 439.498,344.091 446.579,343.771 
  453.659,343.483 460.74,343.228 467.82,343.005 474.901,342.814 481.981,342.654 489.062,342.525 496.142,342.425 503.223,342.355 510.303,342.314 517.384,342.3 
  524.464,342.313 531.545,342.353 538.625,342.418 545.706,342.508 552.786,342.622 559.867,342.759 566.947,342.918 574.028,343.098 581.108,343.299 588.189,343.519 
  
  "/>
<polyline clip-path="url(#clip542)" style="stroke:#8e971d; stroke-width:1; stroke-opacity:1; fill:none" points="
  28.8285,380.252 35.9091,380.251 42.9896,380.249 50.0701,380.242 57.1506,380.229 64.2311,380.206 71.3116,380.172 78.3921,380.122 85.4726,380.053 92.5531,379.964 
  99.6337,379.851 106.714,379.712 113.795,379.544 120.875,379.347 127.956,379.117 135.036,378.854 142.117,378.558 149.197,378.226 156.278,377.86 163.358,377.458 
  170.439,377.022 177.519,376.551 184.6,376.047 191.68,375.509 198.761,374.94 205.841,374.341 212.922,373.713 220.002,373.058 227.083,372.378 234.163,371.674 
  241.244,370.949 248.324,370.204 255.405,369.442 262.485,368.665 269.566,367.875 276.646,367.075 283.727,366.266 290.807,365.45 297.888,364.63 304.969,363.809 
  312.049,362.987 319.13,362.167 326.21,361.351 333.291,360.541 340.371,359.739 347.452,358.946 354.532,358.165 361.613,357.396 368.693,356.642 375.774,355.903 
  382.854,355.181 389.935,354.478 397.015,353.794 404.096,353.13 411.176,352.488 418.257,351.868 425.337,351.272 432.418,350.699 439.498,350.151 446.579,349.628 
  453.659,349.13 460.74,348.659 467.82,348.213 474.901,347.794 481.981,347.402 489.062,347.036 496.142,346.697 503.223,346.385 510.303,346.1 517.384,345.841 
  524.464,345.608 531.545,345.401 538.625,345.221 545.706,345.065 552.786,344.935 559.867,344.83 566.947,344.749 574.028,344.691 581.108,344.657 588.189,344.646 
  
  "/>
<path clip-path="url(#clip540)" d="
M462.544 194.218 L569.308 194.218 L569.308 27.8982 L462.544 27.8982  Z
  " fill="#ffffff" fill-rule="evenodd" fill-opacity="1"/>
<polyline clip-path="url(#clip540)" style="stroke:#000000; stroke-width:1; stroke-opacity:1; fill:none" points="
  462.544,194.218 569.308,194.218 569.308,27.8982 462.544,27.8982 462.544,194.218 
  "/>
<polyline clip-path="url(#clip540)" style="stroke:#009af9; stroke-width:1; stroke-opacity:1; fill:none" points="
  468.838,43.0182 506.601,43.0182 
  "/>
<g clip-path="url(#clip540)">
<text style="fill:#000000; fill-opacity:1; font-family:Arial,Helvetica Neue,Helvetica,sans-serif; font-size:12px; text-anchor:start;" transform="rotate(0, 512.894, 47.5182)" x="512.894" y="47.5182">dof = 1</text>
</g>
<polyline clip-path="url(#clip540)" style="stroke:#e26f46; stroke-width:1; stroke-opacity:1; fill:none" points="
  468.838,58.1382 506.601,58.1382 
  "/>
<g clip-path="url(#clip540)">
<text style="fill:#000000; fill-opacity:1; font-family:Arial,Helvetica Neue,Helvetica,sans-serif; font-size:12px; text-anchor:start;" transform="rotate(0, 512.894, 62.6382)" x="512.894" y="62.6382">dof = 2</text>
</g>
<polyline clip-path="url(#clip540)" style="stroke:#3da44d; stroke-width:1; stroke-opacity:1; fill:none" points="
  468.838,73.2582 506.601,73.2582 
  "/>
<g clip-path="url(#clip540)">
<text style="fill:#000000; fill-opacity:1; font-family:Arial,Helvetica Neue,Helvetica,sans-serif; font-size:12px; text-anchor:start;" transform="rotate(0, 512.894, 77.7582)" x="512.894" y="77.7582">dof = 3</text>
</g>
<polyline clip-path="url(#clip540)" style="stroke:#c271d2; stroke-width:1; stroke-opacity:1; fill:none" points="
  468.838,88.3782 506.601,88.3782 
  "/>
<g clip-path="url(#clip540)">
<text style="fill:#000000; fill-opacity:1; font-family:Arial,Helvetica Neue,Helvetica,sans-serif; font-size:12px; text-anchor:start;" transform="rotate(0, 512.894, 92.8782)" x="512.894" y="92.8782">dof = 4</text>
</g>
<polyline clip-path="url(#clip540)" style="stroke:#ac8d18; stroke-width:1; stroke-opacity:1; fill:none" points="
  468.838,103.498 506.601,103.498 
  "/>
<g clip-path="url(#clip540)">
<text style="fill:#000000; fill-opacity:1; font-family:Arial,Helvetica Neue,Helvetica,sans-serif; font-size:12px; text-anchor:start;" transform="rotate(0, 512.894, 107.998)" x="512.894" y="107.998">dof = 5</text>
</g>
<polyline clip-path="url(#clip540)" style="stroke:#00a9ad; stroke-width:1; stroke-opacity:1; fill:none" points="
  468.838,118.618 506.601,118.618 
  "/>
<g clip-path="url(#clip540)">
<text style="fill:#000000; fill-opacity:1; font-family:Arial,Helvetica Neue,Helvetica,sans-serif; font-size:12px; text-anchor:start;" transform="rotate(0, 512.894, 123.118)" x="512.894" y="123.118">dof = 6</text>
</g>
<polyline clip-path="url(#clip540)" style="stroke:#ed5d92; stroke-width:1; stroke-opacity:1; fill:none" points="
  468.838,133.738 506.601,133.738 
  "/>
<g clip-path="url(#clip540)">
<text style="fill:#000000; fill-opacity:1; font-family:Arial,Helvetica Neue,Helvetica,sans-serif; font-size:12px; text-anchor:start;" transform="rotate(0, 512.894, 138.238)" x="512.894" y="138.238">dof = 7</text>
</g>
<polyline clip-path="url(#clip540)" style="stroke:#c68125; stroke-width:1; stroke-opacity:1; fill:none" points="
  468.838,148.858 506.601,148.858 
  "/>
<g clip-path="url(#clip540)">
<text style="fill:#000000; fill-opacity:1; font-family:Arial,Helvetica Neue,Helvetica,sans-serif; font-size:12px; text-anchor:start;" transform="rotate(0, 512.894, 153.358)" x="512.894" y="153.358">dof = 8</text>
</g>
<polyline clip-path="url(#clip540)" style="stroke:#00a98d; stroke-width:1; stroke-opacity:1; fill:none" points="
  468.838,163.978 506.601,163.978 
  "/>
<g clip-path="url(#clip540)">
<text style="fill:#000000; fill-opacity:1; font-family:Arial,Helvetica Neue,Helvetica,sans-serif; font-size:12px; text-anchor:start;" transform="rotate(0, 512.894, 168.478)" x="512.894" y="168.478">dof = 9</text>
</g>
<polyline clip-path="url(#clip540)" style="stroke:#8e971d; stroke-width:1; stroke-opacity:1; fill:none" points="
  468.838,179.098 506.601,179.098 
  "/>
<g clip-path="url(#clip540)">
<text style="fill:#000000; fill-opacity:1; font-family:Arial,Helvetica Neue,Helvetica,sans-serif; font-size:12px; text-anchor:start;" transform="rotate(0, 512.894, 183.598)" x="512.894" y="183.598">dof = 10</text>
</g>
</svg>
