<?xml version="1.0" encoding="utf-8"?>
<svg xmlns="http://www.w3.org/2000/svg" xmlns:xlink="http://www.w3.org/1999/xlink" width="600" height="400" viewBox="0 0 2400 1600">
<defs>
  <clipPath id="clip490">
    <rect x="0" y="0" width="2400" height="1600"/>
  </clipPath>
</defs>
<path clip-path="url(#clip490)" d="
M0 1600 L2400 1600 L2400 0 L0 0  Z
  " fill="#ffffff" fill-rule="evenodd" fill-opacity="1"/>
<defs>
  <clipPath id="clip491">
    <rect x="480" y="0" width="1681" height="1600"/>
  </clipPath>
</defs>
<path clip-path="url(#clip490)" d="
M86.9921 1505.26 L1152.76 1505.26 L1152.76 62.9921 L86.9921 62.9921  Z
  " fill="#ffffff" fill-rule="evenodd" fill-opacity="1"/>
<defs>
  <clipPath id="clip492">
    <rect x="86" y="62" width="1067" height="1443"/>
  </clipPath>
</defs>
<polyline clip-path="url(#clip492)" style="stroke:#000000; stroke-width:2; stroke-opacity:0.1; fill:none" points="
  86.9921,1505.26 86.9921,62.9921 
  "/>
<polyline clip-path="url(#clip492)" style="stroke:#000000; stroke-width:2; stroke-opacity:0.1; fill:none" points="
  264.619,1505.26 264.619,62.9921 
  "/>
<polyline clip-path="url(#clip492)" style="stroke:#000000; stroke-width:2; stroke-opacity:0.1; fill:none" points="
  442.247,1505.26 442.247,62.9921 
  "/>
<polyline clip-path="url(#clip492)" style="stroke:#000000; stroke-width:2; stroke-opacity:0.1; fill:none" points="
  619.874,1505.26 619.874,62.9921 
  "/>
<polyline clip-path="url(#clip492)" style="stroke:#000000; stroke-width:2; stroke-opacity:0.1; fill:none" points="
  797.501,1505.26 797.501,62.9921 
  "/>
<polyline clip-path="url(#clip492)" style="stroke:#000000; stroke-width:2; stroke-opacity:0.1; fill:none" points="
  975.129,1505.26 975.129,62.9921 
  "/>
<polyline clip-path="url(#clip492)" style="stroke:#000000; stroke-width:2; stroke-opacity:0.1; fill:none" points="
  1152.76,1505.26 1152.76,62.9921 
  "/>
<polyline clip-path="url(#clip490)" style="stroke:#000000; stroke-width:4; stroke-opacity:1; fill:none" points="
  86.9921,1505.26 1152.76,1505.26 
  "/>
<polyline clip-path="url(#clip490)" style="stroke:#000000; stroke-width:4; stroke-opacity:1; fill:none" points="
  86.9921,1505.26 86.9921,1487.95 
  "/>
<polyline clip-path="url(#clip490)" style="stroke:#000000; stroke-width:4; stroke-opacity:1; fill:none" points="
  264.619,1505.26 264.619,1487.95 
  "/>
<polyline clip-path="url(#clip490)" style="stroke:#000000; stroke-width:4; stroke-opacity:1; fill:none" points="
  442.247,1505.26 442.247,1487.95 
  "/>
<polyline clip-path="url(#clip490)" style="stroke:#000000; stroke-width:4; stroke-opacity:1; fill:none" points="
  619.874,1505.26 619.874,1487.95 
  "/>
<polyline clip-path="url(#clip490)" style="stroke:#000000; stroke-width:4; stroke-opacity:1; fill:none" points="
  797.501,1505.26 797.501,1487.95 
  "/>
<polyline clip-path="url(#clip490)" style="stroke:#000000; stroke-width:4; stroke-opacity:1; fill:none" points="
  975.129,1505.26 975.129,1487.95 
  "/>
<polyline clip-path="url(#clip490)" style="stroke:#000000; stroke-width:4; stroke-opacity:1; fill:none" points="
  1152.76,1505.26 1152.76,1487.95 
  "/>
<g clip-path="url(#clip490)">
<text style="fill:#000000; fill-opacity:1; font-family:Arial,Helvetica Neue,Helvetica,sans-serif; font-size:48px; text-anchor:middle;" transform="rotate(0, 86.9921, 1566.46)" x="86.9921" y="1566.46">−3</text>
</g>
<g clip-path="url(#clip490)">
<text style="fill:#000000; fill-opacity:1; font-family:Arial,Helvetica Neue,Helvetica,sans-serif; font-size:48px; text-anchor:middle;" transform="rotate(0, 264.619, 1566.46)" x="264.619" y="1566.46">−2</text>
</g>
<g clip-path="url(#clip490)">
<text style="fill:#000000; fill-opacity:1; font-family:Arial,Helvetica Neue,Helvetica,sans-serif; font-size:48px; text-anchor:middle;" transform="rotate(0, 442.247, 1566.46)" x="442.247" y="1566.46">−1</text>
</g>
<g clip-path="url(#clip490)">
<text style="fill:#000000; fill-opacity:1; font-family:Arial,Helvetica Neue,Helvetica,sans-serif; font-size:48px; text-anchor:middle;" transform="rotate(0, 619.874, 1566.46)" x="619.874" y="1566.46">0</text>
</g>
<g clip-path="url(#clip490)">
<text style="fill:#000000; fill-opacity:1; font-family:Arial,Helvetica Neue,Helvetica,sans-serif; font-size:48px; text-anchor:middle;" transform="rotate(0, 797.501, 1566.46)" x="797.501" y="1566.46">1</text>
</g>
<g clip-path="url(#clip490)">
<text style="fill:#000000; fill-opacity:1; font-family:Arial,Helvetica Neue,Helvetica,sans-serif; font-size:48px; text-anchor:middle;" transform="rotate(0, 975.129, 1566.46)" x="975.129" y="1566.46">2</text>
</g>
<g clip-path="url(#clip490)">
<text style="fill:#000000; fill-opacity:1; font-family:Arial,Helvetica Neue,Helvetica,sans-serif; font-size:48px; text-anchor:middle;" transform="rotate(0, 1152.76, 1566.46)" x="1152.76" y="1566.46">3</text>
</g>
<g clip-path="url(#clip490)">
<text style="fill:#000000; fill-opacity:1; font-family:Arial,Helvetica Neue,Helvetica,sans-serif; font-size:66px; text-anchor:middle;" transform="rotate(0, 619.874, 1639.12)" x="619.874" y="1639.12">tの値</text>
</g>
<polyline clip-path="url(#clip492)" style="stroke:#000000; stroke-width:2; stroke-opacity:0.1; fill:none" points="
  86.9921,1464.44 1152.76,1464.44 
  "/>
<polyline clip-path="url(#clip492)" style="stroke:#000000; stroke-width:2; stroke-opacity:0.1; fill:none" points="
  86.9921,1122.41 1152.76,1122.41 
  "/>
<polyline clip-path="url(#clip492)" style="stroke:#000000; stroke-width:2; stroke-opacity:0.1; fill:none" points="
  86.9921,780.37 1152.76,780.37 
  "/>
<polyline clip-path="url(#clip492)" style="stroke:#000000; stroke-width:2; stroke-opacity:0.1; fill:none" points="
  86.9921,438.334 1152.76,438.334 
  "/>
<polyline clip-path="url(#clip492)" style="stroke:#000000; stroke-width:2; stroke-opacity:0.1; fill:none" points="
  86.9921,96.2983 1152.76,96.2983 
  "/>
<polyline clip-path="url(#clip490)" style="stroke:#000000; stroke-width:4; stroke-opacity:1; fill:none" points="
  86.9921,1505.26 86.9921,62.9921 
  "/>
<polyline clip-path="url(#clip490)" style="stroke:#000000; stroke-width:4; stroke-opacity:1; fill:none" points="
  86.9921,1464.44 99.7813,1464.44 
  "/>
<polyline clip-path="url(#clip490)" style="stroke:#000000; stroke-width:4; stroke-opacity:1; fill:none" points="
  86.9921,1122.41 99.7813,1122.41 
  "/>
<polyline clip-path="url(#clip490)" style="stroke:#000000; stroke-width:4; stroke-opacity:1; fill:none" points="
  86.9921,780.37 99.7813,780.37 
  "/>
<polyline clip-path="url(#clip490)" style="stroke:#000000; stroke-width:4; stroke-opacity:1; fill:none" points="
  86.9921,438.334 99.7813,438.334 
  "/>
<polyline clip-path="url(#clip490)" style="stroke:#000000; stroke-width:4; stroke-opacity:1; fill:none" points="
  86.9921,96.2983 99.7813,96.2983 
  "/>
<g clip-path="url(#clip490)">
<text style="fill:#000000; fill-opacity:1; font-family:Arial,Helvetica Neue,Helvetica,sans-serif; font-size:48px; text-anchor:end;" transform="rotate(0, 50.9921, 1481.94)" x="50.9921" y="1481.94">0.0</text>
</g>
<g clip-path="url(#clip490)">
<text style="fill:#000000; fill-opacity:1; font-family:Arial,Helvetica Neue,Helvetica,sans-serif; font-size:48px; text-anchor:end;" transform="rotate(0, 50.9921, 1139.91)" x="50.9921" y="1139.91">0.1</text>
</g>
<g clip-path="url(#clip490)">
<text style="fill:#000000; fill-opacity:1; font-family:Arial,Helvetica Neue,Helvetica,sans-serif; font-size:48px; text-anchor:end;" transform="rotate(0, 50.9921, 797.87)" x="50.9921" y="797.87">0.2</text>
</g>
<g clip-path="url(#clip490)">
<text style="fill:#000000; fill-opacity:1; font-family:Arial,Helvetica Neue,Helvetica,sans-serif; font-size:48px; text-anchor:end;" transform="rotate(0, 50.9921, 455.834)" x="50.9921" y="455.834">0.3</text>
</g>
<g clip-path="url(#clip490)">
<text style="fill:#000000; fill-opacity:1; font-family:Arial,Helvetica Neue,Helvetica,sans-serif; font-size:48px; text-anchor:end;" transform="rotate(0, 50.9921, 113.798)" x="50.9921" y="113.798">0.4</text>
</g>
<g clip-path="url(#clip490)">
<text style="fill:#000000; fill-opacity:1; font-family:Arial,Helvetica Neue,Helvetica,sans-serif; font-size:84px; text-anchor:middle;" transform="rotate(0, 619.874, 73.2)" x="619.874" y="73.2">帰無仮説が成立する場合</text>
</g>
<path clip-path="url(#clip492)" d="
M-445.89 1457.6 L-445.89 1464.44 L-357.076 1464.44 L-357.076 1457.6 L-445.89 1457.6 L-445.89 1457.6  Z
  " fill="#009af9" fill-rule="evenodd" fill-opacity="1"/>
<polyline clip-path="url(#clip492)" style="stroke:#000000; stroke-width:4; stroke-opacity:1; fill:none" points="
  -445.89,1457.6 -445.89,1464.44 -357.076,1464.44 -357.076,1457.6 -445.89,1457.6 
  "/>
<path clip-path="url(#clip492)" d="
M-357.076 1464.44 L-357.076 1464.44 L-268.262 1464.44 L-268.262 1464.44 L-357.076 1464.44 L-357.076 1464.44  Z
  " fill="#009af9" fill-rule="evenodd" fill-opacity="1"/>
<polyline clip-path="url(#clip492)" style="stroke:#000000; stroke-width:4; stroke-opacity:1; fill:none" points="
  -357.076,1464.44 -357.076,1464.44 -268.262,1464.44 -357.076,1464.44 
  "/>
<path clip-path="url(#clip492)" d="
M-268.262 1464.44 L-268.262 1464.44 L-179.449 1464.44 L-179.449 1464.44 L-268.262 1464.44 L-268.262 1464.44  Z
  " fill="#009af9" fill-rule="evenodd" fill-opacity="1"/>
<polyline clip-path="url(#clip492)" style="stroke:#000000; stroke-width:4; stroke-opacity:1; fill:none" points="
  -268.262,1464.44 -268.262,1464.44 -179.449,1464.44 -268.262,1464.44 
  "/>
<path clip-path="url(#clip492)" d="
M-179.449 1450.76 L-179.449 1464.44 L-90.6352 1464.44 L-90.6352 1450.76 L-179.449 1450.76 L-179.449 1450.76  Z
  " fill="#009af9" fill-rule="evenodd" fill-opacity="1"/>
<polyline clip-path="url(#clip492)" style="stroke:#000000; stroke-width:4; stroke-opacity:1; fill:none" points="
  -179.449,1450.76 -179.449,1464.44 -90.6352,1464.44 -90.6352,1450.76 -179.449,1450.76 
  "/>
<path clip-path="url(#clip492)" d="
M-90.6352 1464.44 L-90.6352 1464.44 L-1.82152 1464.44 L-1.82152 1464.44 L-90.6352 1464.44 L-90.6352 1464.44  Z
  " fill="#009af9" fill-rule="evenodd" fill-opacity="1"/>
<polyline clip-path="url(#clip492)" style="stroke:#000000; stroke-width:4; stroke-opacity:1; fill:none" points="
  -90.6352,1464.44 -90.6352,1464.44 -1.82152,1464.44 -90.6352,1464.44 
  "/>
<path clip-path="url(#clip492)" d="
M-1.82152 1464.44 L-1.82152 1464.44 L86.9921 1464.44 L86.9921 1464.44 L-1.82152 1464.44 L-1.82152 1464.44  Z
  " fill="#009af9" fill-rule="evenodd" fill-opacity="1"/>
<polyline clip-path="url(#clip492)" style="stroke:#000000; stroke-width:4; stroke-opacity:1; fill:none" points="
  -1.82152,1464.44 -1.82152,1464.44 86.9921,1464.44 -1.82152,1464.44 
  "/>
<path clip-path="url(#clip492)" d="
M86.9921 1443.92 L86.9921 1464.44 L175.806 1464.44 L175.806 1443.92 L86.9921 1443.92 L86.9921 1443.92  Z
  " fill="#009af9" fill-rule="evenodd" fill-opacity="1"/>
<polyline clip-path="url(#clip492)" style="stroke:#000000; stroke-width:4; stroke-opacity:1; fill:none" points="
  86.9921,1443.92 86.9921,1464.44 175.806,1464.44 175.806,1443.92 86.9921,1443.92 
  "/>
<path clip-path="url(#clip492)" d="
M175.806 1334.47 L175.806 1464.44 L264.619 1464.44 L264.619 1334.47 L175.806 1334.47 L175.806 1334.47  Z
  " fill="#009af9" fill-rule="evenodd" fill-opacity="1"/>
<polyline clip-path="url(#clip492)" style="stroke:#000000; stroke-width:4; stroke-opacity:1; fill:none" points="
  175.806,1334.47 175.806,1464.44 264.619,1464.44 264.619,1334.47 175.806,1334.47 
  "/>
<path clip-path="url(#clip492)" d="
M264.619 1108.72 L264.619 1464.44 L353.433 1464.44 L353.433 1108.72 L264.619 1108.72 L264.619 1108.72  Z
  " fill="#009af9" fill-rule="evenodd" fill-opacity="1"/>
<polyline clip-path="url(#clip492)" style="stroke:#000000; stroke-width:4; stroke-opacity:1; fill:none" points="
  264.619,1108.72 264.619,1464.44 353.433,1464.44 353.433,1108.72 264.619,1108.72 
  "/>
<path clip-path="url(#clip492)" d="
M353.433 800.892 L353.433 1464.44 L442.247 1464.44 L442.247 800.892 L353.433 800.892 L353.433 800.892  Z
  " fill="#009af9" fill-rule="evenodd" fill-opacity="1"/>
<polyline clip-path="url(#clip492)" style="stroke:#000000; stroke-width:4; stroke-opacity:1; fill:none" points="
  353.433,800.892 353.433,1464.44 442.247,1464.44 442.247,800.892 353.433,800.892 
  "/>
<path clip-path="url(#clip492)" d="
M442.247 595.67 L442.247 1464.44 L531.06 1464.44 L531.06 595.67 L442.247 595.67 L442.247 595.67  Z
  " fill="#009af9" fill-rule="evenodd" fill-opacity="1"/>
<polyline clip-path="url(#clip492)" style="stroke:#000000; stroke-width:4; stroke-opacity:1; fill:none" points="
  442.247,595.67 442.247,1464.44 531.06,1464.44 531.06,595.67 442.247,595.67 
  "/>
<path clip-path="url(#clip492)" d="
M531.06 287.838 L531.06 1464.44 L619.874 1464.44 L619.874 287.838 L531.06 287.838 L531.06 287.838  Z
  " fill="#009af9" fill-rule="evenodd" fill-opacity="1"/>
<polyline clip-path="url(#clip492)" style="stroke:#000000; stroke-width:4; stroke-opacity:1; fill:none" points="
  531.06,287.838 531.06,1464.44 619.874,1464.44 619.874,287.838 531.06,287.838 
  "/>
<path clip-path="url(#clip492)" d="
M619.874 123.661 L619.874 1464.44 L708.688 1464.44 L708.688 123.661 L619.874 123.661 L619.874 123.661  Z
  " fill="#009af9" fill-rule="evenodd" fill-opacity="1"/>
<polyline clip-path="url(#clip492)" style="stroke:#000000; stroke-width:4; stroke-opacity:1; fill:none" points="
  619.874,123.661 619.874,1464.44 708.688,1464.44 708.688,123.661 619.874,123.661 
  "/>
<path clip-path="url(#clip492)" d="
M708.688 445.175 L708.688 1464.44 L797.501 1464.44 L797.501 445.175 L708.688 445.175 L708.688 445.175  Z
  " fill="#009af9" fill-rule="evenodd" fill-opacity="1"/>
<polyline clip-path="url(#clip492)" style="stroke:#000000; stroke-width:4; stroke-opacity:1; fill:none" points="
  708.688,445.175 708.688,1464.44 797.501,1464.44 797.501,445.175 708.688,445.175 
  "/>
<path clip-path="url(#clip492)" d="
M797.501 814.573 L797.501 1464.44 L886.315 1464.44 L886.315 814.573 L797.501 814.573 L797.501 814.573  Z
  " fill="#009af9" fill-rule="evenodd" fill-opacity="1"/>
<polyline clip-path="url(#clip492)" style="stroke:#000000; stroke-width:4; stroke-opacity:1; fill:none" points="
  797.501,814.573 797.501,1464.44 886.315,1464.44 886.315,814.573 797.501,814.573 
  "/>
<path clip-path="url(#clip492)" d="
M886.315 1136.09 L886.315 1464.44 L975.129 1464.44 L975.129 1136.09 L886.315 1136.09 L886.315 1136.09  Z
  " fill="#009af9" fill-rule="evenodd" fill-opacity="1"/>
<polyline clip-path="url(#clip492)" style="stroke:#000000; stroke-width:4; stroke-opacity:1; fill:none" points="
  886.315,1136.09 886.315,1464.44 975.129,1464.44 975.129,1136.09 886.315,1136.09 
  "/>
<path clip-path="url(#clip492)" d="
M975.129 1279.74 L975.129 1464.44 L1063.94 1464.44 L1063.94 1279.74 L975.129 1279.74 L975.129 1279.74  Z
  " fill="#009af9" fill-rule="evenodd" fill-opacity="1"/>
<polyline clip-path="url(#clip492)" style="stroke:#000000; stroke-width:4; stroke-opacity:1; fill:none" points="
  975.129,1279.74 975.129,1464.44 1063.94,1464.44 1063.94,1279.74 975.129,1279.74 
  "/>
<path clip-path="url(#clip492)" d="
M1063.94 1402.87 L1063.94 1464.44 L1152.76 1464.44 L1152.76 1402.87 L1063.94 1402.87 L1063.94 1402.87  Z
  " fill="#009af9" fill-rule="evenodd" fill-opacity="1"/>
<polyline clip-path="url(#clip492)" style="stroke:#000000; stroke-width:4; stroke-opacity:1; fill:none" points="
  1063.94,1402.87 1063.94,1464.44 1152.76,1464.44 1152.76,1402.87 1063.94,1402.87 
  "/>
<path clip-path="url(#clip492)" d="
M1152.76 1457.6 L1152.76 1464.44 L1241.57 1464.44 L1241.57 1457.6 L1152.76 1457.6 L1152.76 1457.6  Z
  " fill="#009af9" fill-rule="evenodd" fill-opacity="1"/>
<polyline clip-path="url(#clip492)" style="stroke:#000000; stroke-width:4; stroke-opacity:1; fill:none" points="
  1152.76,1457.6 1152.76,1464.44 1241.57,1464.44 1241.57,1457.6 1152.76,1457.6 
  "/>
<path clip-path="url(#clip492)" d="
M1241.57 1450.76 L1241.57 1464.44 L1330.38 1464.44 L1330.38 1450.76 L1241.57 1450.76 L1241.57 1450.76  Z
  " fill="#009af9" fill-rule="evenodd" fill-opacity="1"/>
<polyline clip-path="url(#clip492)" style="stroke:#000000; stroke-width:4; stroke-opacity:1; fill:none" points="
  1241.57,1450.76 1241.57,1464.44 1330.38,1464.44 1330.38,1450.76 1241.57,1450.76 
  "/>
<polyline clip-path="url(#clip492)" style="stroke:#e26f46; stroke-width:4; stroke-opacity:1; fill:none" points="
  -268.262,1464.42 -250.916,1464.41 -90.5199,1463.68 5.87136,1459.86 87.3689,1446.76 131.633,1429.98 175.898,1400.57 196.302,1381.01 216.706,1356.68 237.11,1326.83 
  257.514,1290.73 279.389,1244.35 301.265,1189.37 323.14,1125.4 345.015,1052.4 370.36,957.069 395.704,851.663 421.049,738.716 446.394,621.794 468.917,518.16 
  491.44,418.53 513.964,326.74 536.487,246.618 556.238,188.774 575.989,144.703 595.74,116.023 615.491,103.811 626.258,104.28 637.025,109.786 647.791,120.267 
  658.558,135.604 680.092,180.11 701.626,241.354 723.288,317.216 744.95,404.253 766.611,499.077 788.273,598.257 836.173,817.249 884.073,1013.65 906.86,1093.98 
  929.648,1164.63 952.436,1225.45 975.224,1276.77 998.917,1320.73 1022.61,1356.11 1046.31,1384.02 1070,1405.63 1109.89,1430.86 1149.78,1446.02 1247.18,1460.82 
  1338.75,1463.79 1485.44,1464.41 1508.01,1464.42 
  "/>
<path clip-path="url(#clip490)" d="
M1286.99 1505.26 L2352.76 1505.26 L2352.76 62.9921 L1286.99 62.9921  Z
  " fill="#ffffff" fill-rule="evenodd" fill-opacity="1"/>
<defs>
  <clipPath id="clip493">
    <rect x="1286" y="62" width="1067" height="1443"/>
  </clipPath>
</defs>
<polyline clip-path="url(#clip493)" style="stroke:#000000; stroke-width:2; stroke-opacity:0.1; fill:none" points="
  1286.99,1505.26 1286.99,62.9921 
  "/>
<polyline clip-path="url(#clip493)" style="stroke:#000000; stroke-width:2; stroke-opacity:0.1; fill:none" points="
  1464.62,1505.26 1464.62,62.9921 
  "/>
<polyline clip-path="url(#clip493)" style="stroke:#000000; stroke-width:2; stroke-opacity:0.1; fill:none" points="
  1642.25,1505.26 1642.25,62.9921 
  "/>
<polyline clip-path="url(#clip493)" style="stroke:#000000; stroke-width:2; stroke-opacity:0.1; fill:none" points="
  1819.87,1505.26 1819.87,62.9921 
  "/>
<polyline clip-path="url(#clip493)" style="stroke:#000000; stroke-width:2; stroke-opacity:0.1; fill:none" points="
  1997.5,1505.26 1997.5,62.9921 
  "/>
<polyline clip-path="url(#clip493)" style="stroke:#000000; stroke-width:2; stroke-opacity:0.1; fill:none" points="
  2175.13,1505.26 2175.13,62.9921 
  "/>
<polyline clip-path="url(#clip493)" style="stroke:#000000; stroke-width:2; stroke-opacity:0.1; fill:none" points="
  2352.76,1505.26 2352.76,62.9921 
  "/>
<polyline clip-path="url(#clip490)" style="stroke:#000000; stroke-width:4; stroke-opacity:1; fill:none" points="
  1286.99,1505.26 2352.76,1505.26 
  "/>
<polyline clip-path="url(#clip490)" style="stroke:#000000; stroke-width:4; stroke-opacity:1; fill:none" points="
  1286.99,1505.26 1286.99,1487.95 
  "/>
<polyline clip-path="url(#clip490)" style="stroke:#000000; stroke-width:4; stroke-opacity:1; fill:none" points="
  1464.62,1505.26 1464.62,1487.95 
  "/>
<polyline clip-path="url(#clip490)" style="stroke:#000000; stroke-width:4; stroke-opacity:1; fill:none" points="
  1642.25,1505.26 1642.25,1487.95 
  "/>
<polyline clip-path="url(#clip490)" style="stroke:#000000; stroke-width:4; stroke-opacity:1; fill:none" points="
  1819.87,1505.26 1819.87,1487.95 
  "/>
<polyline clip-path="url(#clip490)" style="stroke:#000000; stroke-width:4; stroke-opacity:1; fill:none" points="
  1997.5,1505.26 1997.5,1487.95 
  "/>
<polyline clip-path="url(#clip490)" style="stroke:#000000; stroke-width:4; stroke-opacity:1; fill:none" points="
  2175.13,1505.26 2175.13,1487.95 
  "/>
<polyline clip-path="url(#clip490)" style="stroke:#000000; stroke-width:4; stroke-opacity:1; fill:none" points="
  2352.76,1505.26 2352.76,1487.95 
  "/>
<g clip-path="url(#clip490)">
<text style="fill:#000000; fill-opacity:1; font-family:Arial,Helvetica Neue,Helvetica,sans-serif; font-size:48px; text-anchor:middle;" transform="rotate(0, 1286.99, 1566.46)" x="1286.99" y="1566.46">−3</text>
</g>
<g clip-path="url(#clip490)">
<text style="fill:#000000; fill-opacity:1; font-family:Arial,Helvetica Neue,Helvetica,sans-serif; font-size:48px; text-anchor:middle;" transform="rotate(0, 1464.62, 1566.46)" x="1464.62" y="1566.46">−2</text>
</g>
<g clip-path="url(#clip490)">
<text style="fill:#000000; fill-opacity:1; font-family:Arial,Helvetica Neue,Helvetica,sans-serif; font-size:48px; text-anchor:middle;" transform="rotate(0, 1642.25, 1566.46)" x="1642.25" y="1566.46">−1</text>
</g>
<g clip-path="url(#clip490)">
<text style="fill:#000000; fill-opacity:1; font-family:Arial,Helvetica Neue,Helvetica,sans-serif; font-size:48px; text-anchor:middle;" transform="rotate(0, 1819.87, 1566.46)" x="1819.87" y="1566.46">0</text>
</g>
<g clip-path="url(#clip490)">
<text style="fill:#000000; fill-opacity:1; font-family:Arial,Helvetica Neue,Helvetica,sans-serif; font-size:48px; text-anchor:middle;" transform="rotate(0, 1997.5, 1566.46)" x="1997.5" y="1566.46">1</text>
</g>
<g clip-path="url(#clip490)">
<text style="fill:#000000; fill-opacity:1; font-family:Arial,Helvetica Neue,Helvetica,sans-serif; font-size:48px; text-anchor:middle;" transform="rotate(0, 2175.13, 1566.46)" x="2175.13" y="1566.46">2</text>
</g>
<g clip-path="url(#clip490)">
<text style="fill:#000000; fill-opacity:1; font-family:Arial,Helvetica Neue,Helvetica,sans-serif; font-size:48px; text-anchor:middle;" transform="rotate(0, 2352.76, 1566.46)" x="2352.76" y="1566.46">3</text>
</g>
<g clip-path="url(#clip490)">
<text style="fill:#000000; fill-opacity:1; font-family:Arial,Helvetica Neue,Helvetica,sans-serif; font-size:66px; text-anchor:middle;" transform="rotate(0, 1819.87, 1639.12)" x="1819.87" y="1639.12">tの値</text>
</g>
<polyline clip-path="url(#clip493)" style="stroke:#000000; stroke-width:2; stroke-opacity:0.1; fill:none" points="
  1286.99,1464.44 2352.76,1464.44 
  "/>
<polyline clip-path="url(#clip493)" style="stroke:#000000; stroke-width:2; stroke-opacity:0.1; fill:none" points="
  1286.99,1122.41 2352.76,1122.41 
  "/>
<polyline clip-path="url(#clip493)" style="stroke:#000000; stroke-width:2; stroke-opacity:0.1; fill:none" points="
  1286.99,780.37 2352.76,780.37 
  "/>
<polyline clip-path="url(#clip493)" style="stroke:#000000; stroke-width:2; stroke-opacity:0.1; fill:none" points="
  1286.99,438.334 2352.76,438.334 
  "/>
<polyline clip-path="url(#clip493)" style="stroke:#000000; stroke-width:2; stroke-opacity:0.1; fill:none" points="
  1286.99,96.2983 2352.76,96.2983 
  "/>
<polyline clip-path="url(#clip490)" style="stroke:#000000; stroke-width:4; stroke-opacity:1; fill:none" points="
  1286.99,1505.26 1286.99,62.9921 
  "/>
<polyline clip-path="url(#clip490)" style="stroke:#000000; stroke-width:4; stroke-opacity:1; fill:none" points="
  1286.99,1464.44 1299.78,1464.44 
  "/>
<polyline clip-path="url(#clip490)" style="stroke:#000000; stroke-width:4; stroke-opacity:1; fill:none" points="
  1286.99,1122.41 1299.78,1122.41 
  "/>
<polyline clip-path="url(#clip490)" style="stroke:#000000; stroke-width:4; stroke-opacity:1; fill:none" points="
  1286.99,780.37 1299.78,780.37 
  "/>
<polyline clip-path="url(#clip490)" style="stroke:#000000; stroke-width:4; stroke-opacity:1; fill:none" points="
  1286.99,438.334 1299.78,438.334 
  "/>
<polyline clip-path="url(#clip490)" style="stroke:#000000; stroke-width:4; stroke-opacity:1; fill:none" points="
  1286.99,96.2983 1299.78,96.2983 
  "/>
<g clip-path="url(#clip490)">
<text style="fill:#000000; fill-opacity:1; font-family:Arial,Helvetica Neue,Helvetica,sans-serif; font-size:48px; text-anchor:end;" transform="rotate(0, 1250.99, 1481.94)" x="1250.99" y="1481.94">0.0</text>
</g>
<g clip-path="url(#clip490)">
<text style="fill:#000000; fill-opacity:1; font-family:Arial,Helvetica Neue,Helvetica,sans-serif; font-size:48px; text-anchor:end;" transform="rotate(0, 1250.99, 1139.91)" x="1250.99" y="1139.91">0.1</text>
</g>
<g clip-path="url(#clip490)">
<text style="fill:#000000; fill-opacity:1; font-family:Arial,Helvetica Neue,Helvetica,sans-serif; font-size:48px; text-anchor:end;" transform="rotate(0, 1250.99, 797.87)" x="1250.99" y="797.87">0.2</text>
</g>
<g clip-path="url(#clip490)">
<text style="fill:#000000; fill-opacity:1; font-family:Arial,Helvetica Neue,Helvetica,sans-serif; font-size:48px; text-anchor:end;" transform="rotate(0, 1250.99, 455.834)" x="1250.99" y="455.834">0.3</text>
</g>
<g clip-path="url(#clip490)">
<text style="fill:#000000; fill-opacity:1; font-family:Arial,Helvetica Neue,Helvetica,sans-serif; font-size:48px; text-anchor:end;" transform="rotate(0, 1250.99, 113.798)" x="1250.99" y="113.798">0.4</text>
</g>
<g clip-path="url(#clip490)">
<text style="fill:#000000; fill-opacity:1; font-family:Arial,Helvetica Neue,Helvetica,sans-serif; font-size:84px; text-anchor:middle;" transform="rotate(0, 1819.87, 73.2)" x="1819.87" y="73.2">帰無仮説が成立しない場合</text>
</g>
<path clip-path="url(#clip493)" d="
M1198.18 1457.6 L1198.18 1464.44 L1286.99 1464.44 L1286.99 1457.6 L1198.18 1457.6 L1198.18 1457.6  Z
  " fill="#009af9" fill-rule="evenodd" fill-opacity="1"/>
<polyline clip-path="url(#clip493)" style="stroke:#000000; stroke-width:4; stroke-opacity:1; fill:none" points="
  1198.18,1457.6 1198.18,1464.44 1286.99,1464.44 1286.99,1457.6 1198.18,1457.6 
  "/>
<path clip-path="url(#clip493)" d="
M1286.99 1464.44 L1286.99 1464.44 L1375.81 1464.44 L1375.81 1464.44 L1286.99 1464.44 L1286.99 1464.44  Z
  " fill="#009af9" fill-rule="evenodd" fill-opacity="1"/>
<polyline clip-path="url(#clip493)" style="stroke:#000000; stroke-width:4; stroke-opacity:1; fill:none" points="
  1286.99,1464.44 1286.99,1464.44 1375.81,1464.44 1286.99,1464.44 
  "/>
<path clip-path="url(#clip493)" d="
M1375.81 1443.92 L1375.81 1464.44 L1464.62 1464.44 L1464.62 1443.92 L1375.81 1443.92 L1375.81 1443.92  Z
  " fill="#009af9" fill-rule="evenodd" fill-opacity="1"/>
<polyline clip-path="url(#clip493)" style="stroke:#000000; stroke-width:4; stroke-opacity:1; fill:none" points="
  1375.81,1443.92 1375.81,1464.44 1464.62,1464.44 1464.62,1443.92 1375.81,1443.92 
  "/>
<path clip-path="url(#clip493)" d="
M1464.62 1443.92 L1464.62 1464.44 L1553.43 1464.44 L1553.43 1443.92 L1464.62 1443.92 L1464.62 1443.92  Z
  " fill="#009af9" fill-rule="evenodd" fill-opacity="1"/>
<polyline clip-path="url(#clip493)" style="stroke:#000000; stroke-width:4; stroke-opacity:1; fill:none" points="
  1464.62,1443.92 1464.62,1464.44 1553.43,1464.44 1553.43,1443.92 1464.62,1443.92 
  "/>
<path clip-path="url(#clip493)" d="
M1553.43 1389.19 L1553.43 1464.44 L1642.25 1464.44 L1642.25 1389.19 L1553.43 1389.19 L1553.43 1389.19  Z
  " fill="#009af9" fill-rule="evenodd" fill-opacity="1"/>
<polyline clip-path="url(#clip493)" style="stroke:#000000; stroke-width:4; stroke-opacity:1; fill:none" points="
  1553.43,1389.19 1553.43,1464.44 1642.25,1464.44 1642.25,1389.19 1553.43,1389.19 
  "/>
<path clip-path="url(#clip493)" d="
M1642.25 1177.13 L1642.25 1464.44 L1731.06 1464.44 L1731.06 1177.13 L1642.25 1177.13 L1642.25 1177.13  Z
  " fill="#009af9" fill-rule="evenodd" fill-opacity="1"/>
<polyline clip-path="url(#clip493)" style="stroke:#000000; stroke-width:4; stroke-opacity:1; fill:none" points="
  1642.25,1177.13 1642.25,1464.44 1731.06,1464.44 1731.06,1177.13 1642.25,1177.13 
  "/>
<path clip-path="url(#clip493)" d="
M1731.06 848.777 L1731.06 1464.44 L1819.87 1464.44 L1819.87 848.777 L1731.06 848.777 L1731.06 848.777  Z
  " fill="#009af9" fill-rule="evenodd" fill-opacity="1"/>
<polyline clip-path="url(#clip493)" style="stroke:#000000; stroke-width:4; stroke-opacity:1; fill:none" points="
  1731.06,848.777 1731.06,1464.44 1819.87,1464.44 1819.87,848.777 1731.06,848.777 
  "/>
<path clip-path="url(#clip493)" d="
M1819.87 499.9 L1819.87 1464.44 L1908.69 1464.44 L1908.69 499.9 L1819.87 499.9 L1819.87 499.9  Z
  " fill="#009af9" fill-rule="evenodd" fill-opacity="1"/>
<polyline clip-path="url(#clip493)" style="stroke:#000000; stroke-width:4; stroke-opacity:1; fill:none" points="
  1819.87,499.9 1819.87,1464.44 1908.69,1464.44 1908.69,499.9 1819.87,499.9 
  "/>
<path clip-path="url(#clip493)" d="
M1908.69 253.635 L1908.69 1464.44 L1997.5 1464.44 L1997.5 253.635 L1908.69 253.635 L1908.69 253.635  Z
  " fill="#009af9" fill-rule="evenodd" fill-opacity="1"/>
<polyline clip-path="url(#clip493)" style="stroke:#000000; stroke-width:4; stroke-opacity:1; fill:none" points="
  1908.69,253.635 1908.69,1464.44 1997.5,1464.44 1997.5,253.635 1908.69,253.635 
  "/>
<path clip-path="url(#clip493)" d="
M1997.5 116.82 L1997.5 1464.44 L2086.31 1464.44 L2086.31 116.82 L1997.5 116.82 L1997.5 116.82  Z
  " fill="#009af9" fill-rule="evenodd" fill-opacity="1"/>
<polyline clip-path="url(#clip493)" style="stroke:#000000; stroke-width:4; stroke-opacity:1; fill:none" points="
  1997.5,116.82 1997.5,1464.44 2086.31,1464.44 2086.31,116.82 1997.5,116.82 
  "/>
<path clip-path="url(#clip493)" d="
M2086.31 540.945 L2086.31 1464.44 L2175.13 1464.44 L2175.13 540.945 L2086.31 540.945 L2086.31 540.945  Z
  " fill="#009af9" fill-rule="evenodd" fill-opacity="1"/>
<polyline clip-path="url(#clip493)" style="stroke:#000000; stroke-width:4; stroke-opacity:1; fill:none" points="
  2086.31,540.945 2086.31,1464.44 2175.13,1464.44 2175.13,540.945 2086.31,540.945 
  "/>
<path clip-path="url(#clip493)" d="
M2175.13 759.847 L2175.13 1464.44 L2263.94 1464.44 L2263.94 759.847 L2175.13 759.847 L2175.13 759.847  Z
  " fill="#009af9" fill-rule="evenodd" fill-opacity="1"/>
<polyline clip-path="url(#clip493)" style="stroke:#000000; stroke-width:4; stroke-opacity:1; fill:none" points="
  2175.13,759.847 2175.13,1464.44 2263.94,1464.44 2263.94,759.847 2175.13,759.847 
  "/>
<path clip-path="url(#clip493)" d="
M2263.94 1122.41 L2263.94 1464.44 L2352.76 1464.44 L2352.76 1122.41 L2263.94 1122.41 L2263.94 1122.41  Z
  " fill="#009af9" fill-rule="evenodd" fill-opacity="1"/>
<polyline clip-path="url(#clip493)" style="stroke:#000000; stroke-width:4; stroke-opacity:1; fill:none" points="
  2263.94,1122.41 2263.94,1464.44 2352.76,1464.44 2352.76,1122.41 2263.94,1122.41 
  "/>
<path clip-path="url(#clip493)" d="
M2352.76 1266.06 L2352.76 1464.44 L2441.57 1464.44 L2441.57 1266.06 L2352.76 1266.06 L2352.76 1266.06  Z
  " fill="#009af9" fill-rule="evenodd" fill-opacity="1"/>
<polyline clip-path="url(#clip493)" style="stroke:#000000; stroke-width:4; stroke-opacity:1; fill:none" points="
  2352.76,1266.06 2352.76,1464.44 2441.57,1464.44 2441.57,1266.06 2352.76,1266.06 
  "/>
<path clip-path="url(#clip493)" d="
M2441.57 1396.03 L2441.57 1464.44 L2530.38 1464.44 L2530.38 1396.03 L2441.57 1396.03 L2441.57 1396.03  Z
  " fill="#009af9" fill-rule="evenodd" fill-opacity="1"/>
<polyline clip-path="url(#clip493)" style="stroke:#000000; stroke-width:4; stroke-opacity:1; fill:none" points="
  2441.57,1396.03 2441.57,1464.44 2530.38,1464.44 2530.38,1396.03 2441.57,1396.03 
  "/>
<path clip-path="url(#clip493)" d="
M2530.38 1423.4 L2530.38 1464.44 L2619.2 1464.44 L2619.2 1423.4 L2530.38 1423.4 L2530.38 1423.4  Z
  " fill="#009af9" fill-rule="evenodd" fill-opacity="1"/>
<polyline clip-path="url(#clip493)" style="stroke:#000000; stroke-width:4; stroke-opacity:1; fill:none" points="
  2530.38,1423.4 2530.38,1464.44 2619.2,1464.44 2619.2,1423.4 2530.38,1423.4 
  "/>
<path clip-path="url(#clip493)" d="
M2619.2 1450.76 L2619.2 1464.44 L2708.01 1464.44 L2708.01 1450.76 L2619.2 1450.76 L2619.2 1450.76  Z
  " fill="#009af9" fill-rule="evenodd" fill-opacity="1"/>
<polyline clip-path="url(#clip493)" style="stroke:#000000; stroke-width:4; stroke-opacity:1; fill:none" points="
  2619.2,1450.76 2619.2,1464.44 2708.01,1464.44 2708.01,1450.76 2619.2,1450.76 
  "/>
<polyline clip-path="url(#clip493)" style="stroke:#e26f46; stroke-width:4; stroke-opacity:1; fill:none" points="
  931.738,1464.42 949.084,1464.41 1109.48,1463.68 1205.87,1459.86 1287.37,1446.76 1331.63,1429.98 1375.9,1400.57 1396.3,1381.01 1416.71,1356.68 1437.11,1326.83 
  1457.51,1290.73 1479.39,1244.35 1501.26,1189.37 1523.14,1125.4 1545.02,1052.4 1570.36,957.069 1595.7,851.663 1621.05,738.716 1646.39,621.794 1668.92,518.16 
  1691.44,418.53 1713.96,326.74 1736.49,246.618 1756.24,188.774 1775.99,144.703 1795.74,116.023 1815.49,103.811 1826.26,104.28 1837.02,109.786 1847.79,120.267 
  1858.56,135.604 1880.09,180.11 1901.63,241.354 1923.29,317.216 1944.95,404.253 1966.61,499.077 1988.27,598.257 2036.17,817.249 2084.07,1013.65 2106.86,1093.98 
  2129.65,1164.63 2152.44,1225.45 2175.22,1276.77 2198.92,1320.73 2222.61,1356.11 2246.31,1384.02 2270,1405.63 2309.89,1430.86 2349.78,1446.02 2447.18,1460.82 
  2538.75,1463.79 2685.44,1464.41 2708.01,1464.42 
  "/>
</svg>
