<?xml version="1.0" encoding="utf-8"?>
<svg xmlns="http://www.w3.org/2000/svg" xmlns:xlink="http://www.w3.org/1999/xlink" width="150" height="100" viewBox="0 0 600 400">
<defs>
  <clipPath id="clip760">
    <rect x="0" y="0" width="600" height="400"/>
  </clipPath>
</defs>
<path clip-path="url(#clip760)" d="
M0 400 L600 400 L600 0 L0 0  Z
  " fill="#ffffff" fill-rule="evenodd" fill-opacity="1"/>
<defs>
  <clipPath id="clip761">
    <rect x="120" y="0" width="421" height="400"/>
  </clipPath>
</defs>
<path clip-path="url(#clip760)" d="
M21.748 380.252 L588.189 380.252 L588.189 11.811 L21.748 11.811  Z
  " fill="#ffffff" fill-rule="evenodd" fill-opacity="1"/>
<defs>
  <clipPath id="clip762">
    <rect x="21" y="11" width="567" height="369"/>
  </clipPath>
</defs>
<polyline clip-path="url(#clip762)" style="stroke:#000000; stroke-width:0.5; stroke-opacity:0.1; fill:none" points="
  91.2172,380.252 91.2172,11.811 
  "/>
<polyline clip-path="url(#clip762)" style="stroke:#000000; stroke-width:0.5; stroke-opacity:0.1; fill:none" points="
  198.093,380.252 198.093,11.811 
  "/>
<polyline clip-path="url(#clip762)" style="stroke:#000000; stroke-width:0.5; stroke-opacity:0.1; fill:none" points="
  304.969,380.252 304.969,11.811 
  "/>
<polyline clip-path="url(#clip762)" style="stroke:#000000; stroke-width:0.5; stroke-opacity:0.1; fill:none" points="
  411.844,380.252 411.844,11.811 
  "/>
<polyline clip-path="url(#clip762)" style="stroke:#000000; stroke-width:0.5; stroke-opacity:0.1; fill:none" points="
  518.72,380.252 518.72,11.811 
  "/>
<polyline clip-path="url(#clip760)" style="stroke:#000000; stroke-width:1; stroke-opacity:1; fill:none" points="
  21.748,380.252 588.189,380.252 
  "/>
<polyline clip-path="url(#clip760)" style="stroke:#000000; stroke-width:1; stroke-opacity:1; fill:none" points="
  91.2172,380.252 91.2172,375.831 
  "/>
<polyline clip-path="url(#clip760)" style="stroke:#000000; stroke-width:1; stroke-opacity:1; fill:none" points="
  198.093,380.252 198.093,375.831 
  "/>
<polyline clip-path="url(#clip760)" style="stroke:#000000; stroke-width:1; stroke-opacity:1; fill:none" points="
  304.969,380.252 304.969,375.831 
  "/>
<polyline clip-path="url(#clip760)" style="stroke:#000000; stroke-width:1; stroke-opacity:1; fill:none" points="
  411.844,380.252 411.844,375.831 
  "/>
<polyline clip-path="url(#clip760)" style="stroke:#000000; stroke-width:1; stroke-opacity:1; fill:none" points="
  518.72,380.252 518.72,375.831 
  "/>
<g clip-path="url(#clip760)">
<text style="fill:#000000; fill-opacity:1; font-family:Arial,Helvetica Neue,Helvetica,sans-serif; font-size:12px; text-anchor:middle;" transform="rotate(0, 91.2172, 395.852)" x="91.2172" y="395.852">−4</text>
</g>
<g clip-path="url(#clip760)">
<text style="fill:#000000; fill-opacity:1; font-family:Arial,Helvetica Neue,Helvetica,sans-serif; font-size:12px; text-anchor:middle;" transform="rotate(0, 198.093, 395.852)" x="198.093" y="395.852">−2</text>
</g>
<g clip-path="url(#clip760)">
<text style="fill:#000000; fill-opacity:1; font-family:Arial,Helvetica Neue,Helvetica,sans-serif; font-size:12px; text-anchor:middle;" transform="rotate(0, 304.969, 395.852)" x="304.969" y="395.852">0</text>
</g>
<g clip-path="url(#clip760)">
<text style="fill:#000000; fill-opacity:1; font-family:Arial,Helvetica Neue,Helvetica,sans-serif; font-size:12px; text-anchor:middle;" transform="rotate(0, 411.844, 395.852)" x="411.844" y="395.852">2</text>
</g>
<g clip-path="url(#clip760)">
<text style="fill:#000000; fill-opacity:1; font-family:Arial,Helvetica Neue,Helvetica,sans-serif; font-size:12px; text-anchor:middle;" transform="rotate(0, 518.72, 395.852)" x="518.72" y="395.852">4</text>
</g>
<polyline clip-path="url(#clip762)" style="stroke:#000000; stroke-width:0.5; stroke-opacity:0.1; fill:none" points="
  21.748,369.826 588.189,369.826 
  "/>
<polyline clip-path="url(#clip762)" style="stroke:#000000; stroke-width:0.5; stroke-opacity:0.1; fill:none" points="
  21.748,282.672 588.189,282.672 
  "/>
<polyline clip-path="url(#clip762)" style="stroke:#000000; stroke-width:0.5; stroke-opacity:0.1; fill:none" points="
  21.748,195.518 588.189,195.518 
  "/>
<polyline clip-path="url(#clip762)" style="stroke:#000000; stroke-width:0.5; stroke-opacity:0.1; fill:none" points="
  21.748,108.365 588.189,108.365 
  "/>
<polyline clip-path="url(#clip762)" style="stroke:#000000; stroke-width:0.5; stroke-opacity:0.1; fill:none" points="
  21.748,21.2109 588.189,21.2109 
  "/>
<polyline clip-path="url(#clip760)" style="stroke:#000000; stroke-width:1; stroke-opacity:1; fill:none" points="
  21.748,380.252 21.748,11.811 
  "/>
<polyline clip-path="url(#clip760)" style="stroke:#000000; stroke-width:1; stroke-opacity:1; fill:none" points="
  21.748,369.826 28.5453,369.826 
  "/>
<polyline clip-path="url(#clip760)" style="stroke:#000000; stroke-width:1; stroke-opacity:1; fill:none" points="
  21.748,282.672 28.5453,282.672 
  "/>
<polyline clip-path="url(#clip760)" style="stroke:#000000; stroke-width:1; stroke-opacity:1; fill:none" points="
  21.748,195.518 28.5453,195.518 
  "/>
<polyline clip-path="url(#clip760)" style="stroke:#000000; stroke-width:1; stroke-opacity:1; fill:none" points="
  21.748,108.365 28.5453,108.365 
  "/>
<polyline clip-path="url(#clip760)" style="stroke:#000000; stroke-width:1; stroke-opacity:1; fill:none" points="
  21.748,21.2109 28.5453,21.2109 
  "/>
<g clip-path="url(#clip760)">
<text style="fill:#000000; fill-opacity:1; font-family:Arial,Helvetica Neue,Helvetica,sans-serif; font-size:12px; text-anchor:end;" transform="rotate(0, 12.748, 374.326)" x="12.748" y="374.326">0.0</text>
</g>
<g clip-path="url(#clip760)">
<text style="fill:#000000; fill-opacity:1; font-family:Arial,Helvetica Neue,Helvetica,sans-serif; font-size:12px; text-anchor:end;" transform="rotate(0, 12.748, 287.172)" x="12.748" y="287.172">0.1</text>
</g>
<g clip-path="url(#clip760)">
<text style="fill:#000000; fill-opacity:1; font-family:Arial,Helvetica Neue,Helvetica,sans-serif; font-size:12px; text-anchor:end;" transform="rotate(0, 12.748, 200.018)" x="12.748" y="200.018">0.2</text>
</g>
<g clip-path="url(#clip760)">
<text style="fill:#000000; fill-opacity:1; font-family:Arial,Helvetica Neue,Helvetica,sans-serif; font-size:12px; text-anchor:end;" transform="rotate(0, 12.748, 112.865)" x="12.748" y="112.865">0.3</text>
</g>
<g clip-path="url(#clip760)">
<text style="fill:#000000; fill-opacity:1; font-family:Arial,Helvetica Neue,Helvetica,sans-serif; font-size:12px; text-anchor:end;" transform="rotate(0, 12.748, 25.7109)" x="12.748" y="25.7109">0.4</text>
</g>
<polyline clip-path="url(#clip762)" style="stroke:#009af9; stroke-width:1; stroke-opacity:1; fill:none" points="
  37.7794,369.824 42.998,369.824 91.2519,369.709 120.25,368.941 144.768,365.939 158.085,361.871 171.402,354.529 177.54,349.576 183.679,343.37 189.817,335.716 
  195.955,326.423 202.536,314.449 209.117,300.234 215.698,283.687 222.279,264.81 229.904,240.191 237.529,213.026 245.154,183.99 252.778,154.017 259.554,127.521 
  266.33,102.112 273.106,78.756 279.882,58.41 285.824,43.7446 291.766,32.584 297.708,25.3273 303.65,22.2386 306.889,22.3572 310.128,23.7497 313.367,26.4007 
  316.606,30.2813 323.085,41.5498 329.563,57.0747 336.08,76.3356 342.597,98.4759 349.113,122.649 355.63,147.993 370.04,204.171 384.451,254.798 391.306,275.559 
  398.162,293.834 405.017,309.566 411.873,322.821 419.001,334.149 426.129,343.224 433.257,350.341 440.385,355.806 452.386,362.087 464.387,365.765 493.69,369.145 
  521.236,369.729 565.366,369.823 572.158,369.824 
  "/>
<polyline clip-path="url(#clip762)" style="stroke:#e26f46; stroke-width:1; stroke-opacity:1; fill:none" stroke-dasharray="8, 5" points="
  37.7794,359.156 42.998,358.744 91.2519,353.502 120.25,348.401 144.768,342.048 158.085,337.399 171.402,331.547 183.679,324.73 195.955,316.079 202.536,310.476 
  209.117,304.045 215.698,296.642 222.279,288.098 229.904,276.519 237.529,262.826 245.154,246.688 252.778,227.84 259.554,208.746 266.33,187.649 273.106,165.166 
  279.882,142.504 285.824,123.963 291.766,108.366 294.737,102.217 297.708,97.4353 300.679,94.183 303.65,92.5757 306.889,92.7647 310.128,94.9692 313.367,99.0945 
  316.606,104.969 319.846,112.362 323.085,121.004 326.324,130.61 329.563,140.899 336.08,162.635 342.597,184.363 349.113,204.935 355.63,223.723 362.835,242.138 
  370.04,258.09 377.246,271.776 384.451,283.464 391.306,292.986 398.162,301.181 405.017,308.25 411.873,314.366 426.129,324.649 440.385,332.446 452.386,337.606 
  464.387,341.803 493.69,349.234 521.236,353.863 565.366,358.615 572.158,359.156 
  "/>
<polyline clip-path="url(#clip762)" style="stroke:#3da44d; stroke-width:1; stroke-opacity:1; fill:none" stroke-dasharray="8, 5" points="
  37.7794,363.614 42.998,363.264 91.2519,358.408 120.25,353.096 144.768,345.895 158.085,340.319 171.402,333.029 183.679,324.257 195.955,312.843 202.536,305.347 
  209.117,296.693 215.698,286.71 222.279,275.216 229.904,259.779 237.529,241.842 245.154,221.274 252.778,198.152 266.33,152.325 279.882,106.408 282.853,97.4214 
  285.824,89.1388 288.795,81.7099 291.766,75.2776 294.737,69.9728 297.708,65.9084 300.679,63.174 303.65,61.8315 306.889,61.9891 310.128,63.8328 313.367,67.3126 
  316.606,72.3358 319.846,78.7725 323.085,86.4637 326.324,95.2295 329.563,104.878 342.597,148.788 355.63,193.238 362.835,215.6 370.04,235.738 377.246,253.522 
  384.451,269.015 391.306,281.785 398.162,292.831 405.017,302.355 411.873,310.557 426.129,324.151 440.385,334.165 452.386,340.572 464.387,345.606 493.69,353.996 
  521.236,358.764 565.366,363.154 572.158,363.614 
  "/>
<polyline clip-path="url(#clip762)" style="stroke:#c271d2; stroke-width:1; stroke-opacity:1; fill:none" stroke-dasharray="8, 5" points="
  37.7794,366.148 42.998,365.881 91.2519,361.835 120.25,356.924 144.768,349.762 158.085,343.949 171.402,336.112 183.679,326.44 195.955,313.614 202.536,305.106 
  209.117,295.243 215.698,283.848 222.279,270.752 229.904,253.259 237.529,233.144 245.154,210.431 252.778,185.406 266.33,137.514 279.882,91.8333 282.853,83.157 
  285.824,75.2358 288.795,68.1916 291.766,62.1382 294.737,57.1777 297.708,53.3963 300.679,50.8617 303.65,49.62 306.889,49.7657 310.128,51.4717 313.367,54.7009 
  316.606,59.3838 319.846,65.422 323.085,72.6926 326.324,81.0537 329.563,90.35 342.597,133.914 355.63,180.161 362.835,204.238 370.04,226.361 377.246,246.212 
  384.451,263.707 391.306,278.232 398.162,290.835 405.017,301.7 411.873,311.024 426.129,326.322 440.385,337.347 452.386,344.217 464.387,349.466 493.69,357.783 
  521.236,362.149 565.366,365.795 572.158,366.148 
  "/>
<polyline clip-path="url(#clip762)" style="stroke:#ac8d18; stroke-width:1; stroke-opacity:1; fill:none" stroke-dasharray="8, 5" points="
  37.7794,367.516 42.998,367.312 91.2519,363.975 120.25,359.53 144.768,352.62 158.085,346.784 171.402,338.713 183.679,328.549 195.955,314.868 202.536,305.724 
  209.117,295.091 215.698,282.794 222.279,268.676 229.904,249.89 237.529,228.437 245.154,204.452 252.778,178.352 266.33,129.418 279.882,84.009 282.853,75.5223 
  285.824,67.8121 288.795,60.9858 291.766,55.1423 294.737,50.3691 297.708,46.74 300.679,44.3119 303.65,43.1237 306.889,43.263 310.128,44.8959 313.367,47.9911 
  316.606,52.4901 319.846,58.3096 323.085,65.3443 326.324,73.4715 329.563,82.5551 342.597,125.795 355.63,172.926 362.835,197.96 370.04,221.247 377.246,242.355 
  384.451,261.099 391.306,276.736 398.162,290.334 405.017,302.054 411.873,312.089 426.129,328.424 440.385,339.998 452.386,347.056 464.387,352.327 493.69,360.329 
  521.236,364.247 565.366,367.246 572.158,367.516 
  "/>
<polyline clip-path="url(#clip762)" style="stroke:#00a9ad; stroke-width:1; stroke-opacity:1; fill:none" stroke-dasharray="8, 5" points="
  37.7794,368.294 42.998,368.136 91.2519,365.357 120.25,361.332 144.768,354.713 158.085,348.93 171.402,340.761 183.679,330.297 195.955,316.046 202.536,306.464 
  209.117,295.295 215.698,282.368 222.279,267.539 229.904,247.861 237.529,225.501 245.154,200.672 252.778,173.88 259.554,149.112 266.33,124.326 273.106,100.594 
  279.882,79.1406 282.853,70.7803 285.824,63.2079 288.795,56.5215 291.766,50.8112 294.737,46.1561 297.708,42.6221 300.679,40.2603 303.65,39.1053 306.889,39.2407 
  310.128,40.8281 313.367,43.8399 316.606,48.2236 319.846,53.9048 323.085,60.7887 326.324,68.7641 329.563,77.7064 336.08,98.0806 342.597,120.692 349.113,144.44 
  355.63,168.342 362.835,193.985 370.04,218.038 377.246,239.992 384.451,259.593 391.306,276.002 398.162,290.294 405.017,302.612 411.873,313.137 419.001,322.399 
  426.129,330.168 433.257,336.661 440.385,342.071 452.386,349.203 464.387,354.426 493.69,362.072 521.236,365.593 565.366,368.085 572.158,368.294 
  "/>
<polyline clip-path="url(#clip762)" style="stroke:#ed5d92; stroke-width:1; stroke-opacity:1; fill:none" stroke-dasharray="8, 5" points="
  37.7794,368.762 42.998,368.637 91.2519,366.289 120.25,362.621 144.768,356.284 158.085,350.58 171.402,342.375 183.679,331.718 195.955,317.061 202.536,307.158 
  209.117,295.594 215.698,282.201 222.279,266.848 229.904,246.516 237.529,223.499 245.154,198.068 252.778,170.794 259.554,145.742 266.33,120.83 273.106,97.1268 
  279.882,75.8232 282.853,67.553 285.824,60.0773 288.795,53.4884 291.766,47.8702 294.737,43.2961 297.708,39.8273 300.679,37.5107 303.65,36.3784 306.889,36.5111 
  310.128,38.0676 313.367,41.0223 316.606,45.327 319.846,50.9129 323.085,57.6921 326.324,65.5611 329.563,74.4032 336.08,94.6248 342.597,117.192 349.113,141.035 
  355.63,165.179 362.835,191.244 370.04,215.84 377.246,238.404 384.451,258.63 391.306,275.608 398.162,290.413 405.017,303.171 411.873,314.058 419.001,323.609 
  426.129,331.586 433.257,338.214 440.385,343.699 452.386,350.851 464.387,356.003 493.69,363.311 521.236,366.497 565.366,368.596 572.158,368.762 
  "/>
<polyline clip-path="url(#clip762)" style="stroke:#c68125; stroke-width:1; stroke-opacity:1; fill:none" stroke-dasharray="8, 5" points="
  37.7794,369.057 42.998,368.957 91.2519,366.944 120.25,363.577 144.768,357.494 158.085,351.876 171.402,343.668 183.679,332.879 195.955,317.919 202.536,307.772 
  209.117,295.903 215.698,282.152 222.279,266.395 229.904,245.563 237.529,222.047 245.154,196.166 252.778,168.537 259.554,143.281 266.33,118.284 273.106,94.6076 
  279.882,73.4188 282.853,65.2159 285.824,57.812 288.795,51.2949 291.766,45.7441 294.737,41.2292 297.708,37.8077 300.679,35.5241 303.65,34.4081 306.889,34.5389 
  310.128,36.0729 313.367,38.9861 316.606,43.2333 319.846,48.7495 323.085,55.4519 326.324,63.2421 329.563,72.0095 336.08,92.1147 342.597,114.643 349.113,138.548 
  355.63,162.866 362.835,189.241 370.04,214.241 377.246,237.267 384.451,257.97 391.306,275.383 398.162,290.584 405.017,303.681 411.873,314.844 419.001,324.614 
  426.129,332.745 433.257,339.468 440.385,345 452.386,352.145 464.387,357.22 493.69,364.222 521.236,367.129 565.366,368.924 572.158,369.057 
  "/>
<polyline clip-path="url(#clip762)" style="stroke:#00a98d; stroke-width:1; stroke-opacity:1; fill:none" stroke-dasharray="8, 5" points="
  37.7794,369.253 42.998,369.17 91.2519,367.421 120.25,364.306 144.768,358.449 158.085,352.917 171.402,344.721 183.679,333.839 195.955,318.645 202.536,308.305 
  209.117,296.195 215.698,282.158 222.279,266.082 229.904,244.855 237.529,220.948 245.154,194.716 252.778,166.815 259.554,141.405 266.33,116.346 273.106,92.6951 
  279.882,71.5968 282.853,63.4461 285.824,56.0974 288.795,49.6353 291.766,44.136 294.737,39.6662 297.708,36.2808 300.679,34.0221 303.65,32.9186 306.889,33.0479 
  310.128,34.5649 313.367,37.4466 316.606,41.65 319.846,47.113 323.085,53.7565 326.324,61.4863 329.563,70.1957 336.08,90.2095 342.597,112.704 349.113,136.654 
  355.63,161.101 362.835,187.712 370.04,213.026 377.246,236.413 384.451,257.492 391.306,275.251 398.162,290.765 405.017,304.132 411.873,315.513 419.001,325.455 
  426.129,333.703 433.257,340.497 440.385,346.058 452.386,353.183 464.387,358.182 493.69,364.913 521.236,367.587 565.366,369.143 572.158,369.253 
  "/>
<polyline clip-path="url(#clip762)" style="stroke:#8e971d; stroke-width:1; stroke-opacity:1; fill:none" stroke-dasharray="8, 5" points="
  37.7794,369.386 42.998,369.318 91.2519,367.779 120.25,364.876 144.768,359.22 158.085,353.768 171.402,345.594 183.679,334.644 195.955,319.264 202.536,308.767 
  209.117,296.461 215.698,282.193 222.279,265.856 229.904,244.309 237.529,220.086 245.154,193.574 252.778,165.457 259.554,139.927 266.33,114.823 273.106,91.1938 
  279.882,70.1686 282.853,62.0595 285.824,54.7547 288.795,48.3361 291.766,42.8775 294.737,38.4432 297.708,35.0861 300.679,32.847 303.65,31.7533 306.889,31.8815 
  310.128,33.385 313.367,36.242 316.606,40.411 319.846,45.8321 323.085,52.4291 326.324,60.1108 329.563,68.7742 336.08,88.7142 342.597,111.179 349.113,135.162 
  355.63,159.71 362.835,186.509 370.04,212.073 377.246,235.749 384.451,257.132 391.306,275.172 398.162,290.942 405.017,304.528 411.873,316.086 419.001,326.165 
  426.129,334.507 433.257,341.352 440.385,346.932 452.386,354.032 464.387,358.958 493.69,365.451 521.236,367.929 565.366,369.295 572.158,369.386 
  "/>
<polyline clip-path="url(#clip762)" style="stroke:#00a8cb; stroke-width:1; stroke-opacity:1; fill:none" stroke-dasharray="8, 5" points="
  37.7794,369.481 42.998,369.423 91.2519,368.054 120.25,365.332 144.768,359.853 158.085,354.475 171.402,346.327 183.679,335.326 195.955,319.795 202.536,309.169 
  209.117,296.701 215.698,282.24 222.279,265.687 229.904,243.875 237.529,219.393 245.154,192.652 252.778,164.36 259.554,138.734 266.33,113.594 273.106,89.9841 
  279.882,69.0193 282.853,60.9441 285.824,53.675 288.795,47.2916 291.766,41.8659 294.737,37.4602 297.708,34.126 300.679,31.9027 303.65,30.8169 306.889,30.9442 
  310.128,32.4369 313.367,35.274 316.606,39.4151 319.846,44.8024 323.085,51.3617 326.324,59.0045 329.563,67.6303 336.08,87.5096 342.597,109.95 349.113,133.957 
  355.63,158.586 362.835,185.536 370.04,211.304 377.246,235.219 384.451,256.853 391.306,275.125 398.162,291.107 405.017,304.875 411.873,316.58 419.001,326.772 
  426.129,335.188 433.257,342.074 440.385,347.666 452.386,354.737 464.387,359.596 493.69,365.878 521.236,368.191 565.366,369.404 572.158,369.481 
  "/>
<path clip-path="url(#clip760)" d="
M469.572 205.532 L569.308 205.532 L569.308 24.0924 L469.572 24.0924  Z
  " fill="#ffffff" fill-rule="evenodd" fill-opacity="1"/>
<polyline clip-path="url(#clip760)" style="stroke:#000000; stroke-width:1; stroke-opacity:1; fill:none" points="
  469.572,205.532 569.308,205.532 569.308,24.0924 469.572,24.0924 469.572,205.532 
  "/>
<polyline clip-path="url(#clip760)" style="stroke:#009af9; stroke-width:1; stroke-opacity:1; fill:none" points="
  475.865,39.2124 513.628,39.2124 
  "/>
<g clip-path="url(#clip760)">
<text style="fill:#000000; fill-opacity:1; font-family:Arial,Helvetica Neue,Helvetica,sans-serif; font-size:12px; text-anchor:start;" transform="rotate(0, 519.922, 43.7124)" x="519.922" y="43.7124">正規分布</text>
</g>
<polyline clip-path="url(#clip760)" style="stroke:#e26f46; stroke-width:1; stroke-opacity:1; fill:none" stroke-dasharray="8, 5" points="
  475.865,54.3324 513.628,54.3324 
  "/>
<g clip-path="url(#clip760)">
<text style="fill:#000000; fill-opacity:1; font-family:Arial,Helvetica Neue,Helvetica,sans-serif; font-size:12px; text-anchor:start;" transform="rotate(0, 519.922, 58.8324)" x="519.922" y="58.8324">dof: 1</text>
</g>
<polyline clip-path="url(#clip760)" style="stroke:#3da44d; stroke-width:1; stroke-opacity:1; fill:none" stroke-dasharray="8, 5" points="
  475.865,69.4524 513.628,69.4524 
  "/>
<g clip-path="url(#clip760)">
<text style="fill:#000000; fill-opacity:1; font-family:Arial,Helvetica Neue,Helvetica,sans-serif; font-size:12px; text-anchor:start;" transform="rotate(0, 519.922, 73.9524)" x="519.922" y="73.9524">dof: 2</text>
</g>
<polyline clip-path="url(#clip760)" style="stroke:#c271d2; stroke-width:1; stroke-opacity:1; fill:none" stroke-dasharray="8, 5" points="
  475.865,84.5724 513.628,84.5724 
  "/>
<g clip-path="url(#clip760)">
<text style="fill:#000000; fill-opacity:1; font-family:Arial,Helvetica Neue,Helvetica,sans-serif; font-size:12px; text-anchor:start;" transform="rotate(0, 519.922, 89.0724)" x="519.922" y="89.0724">dof: 3</text>
</g>
<polyline clip-path="url(#clip760)" style="stroke:#ac8d18; stroke-width:1; stroke-opacity:1; fill:none" stroke-dasharray="8, 5" points="
  475.865,99.6924 513.628,99.6924 
  "/>
<g clip-path="url(#clip760)">
<text style="fill:#000000; fill-opacity:1; font-family:Arial,Helvetica Neue,Helvetica,sans-serif; font-size:12px; text-anchor:start;" transform="rotate(0, 519.922, 104.192)" x="519.922" y="104.192">dof: 4</text>
</g>
<polyline clip-path="url(#clip760)" style="stroke:#00a9ad; stroke-width:1; stroke-opacity:1; fill:none" stroke-dasharray="8, 5" points="
  475.865,114.812 513.628,114.812 
  "/>
<g clip-path="url(#clip760)">
<text style="fill:#000000; fill-opacity:1; font-family:Arial,Helvetica Neue,Helvetica,sans-serif; font-size:12px; text-anchor:start;" transform="rotate(0, 519.922, 119.312)" x="519.922" y="119.312">dof: 5</text>
</g>
<polyline clip-path="url(#clip760)" style="stroke:#ed5d92; stroke-width:1; stroke-opacity:1; fill:none" stroke-dasharray="8, 5" points="
  475.865,129.932 513.628,129.932 
  "/>
<g clip-path="url(#clip760)">
<text style="fill:#000000; fill-opacity:1; font-family:Arial,Helvetica Neue,Helvetica,sans-serif; font-size:12px; text-anchor:start;" transform="rotate(0, 519.922, 134.432)" x="519.922" y="134.432">dof: 6</text>
</g>
<polyline clip-path="url(#clip760)" style="stroke:#c68125; stroke-width:1; stroke-opacity:1; fill:none" stroke-dasharray="8, 5" points="
  475.865,145.052 513.628,145.052 
  "/>
<g clip-path="url(#clip760)">
<text style="fill:#000000; fill-opacity:1; font-family:Arial,Helvetica Neue,Helvetica,sans-serif; font-size:12px; text-anchor:start;" transform="rotate(0, 519.922, 149.552)" x="519.922" y="149.552">dof: 7</text>
</g>
<polyline clip-path="url(#clip760)" style="stroke:#00a98d; stroke-width:1; stroke-opacity:1; fill:none" stroke-dasharray="8, 5" points="
  475.865,160.172 513.628,160.172 
  "/>
<g clip-path="url(#clip760)">
<text style="fill:#000000; fill-opacity:1; font-family:Arial,Helvetica Neue,Helvetica,sans-serif; font-size:12px; text-anchor:start;" transform="rotate(0, 519.922, 164.672)" x="519.922" y="164.672">dof: 8</text>
</g>
<polyline clip-path="url(#clip760)" style="stroke:#8e971d; stroke-width:1; stroke-opacity:1; fill:none" stroke-dasharray="8, 5" points="
  475.865,175.292 513.628,175.292 
  "/>
<g clip-path="url(#clip760)">
<text style="fill:#000000; fill-opacity:1; font-family:Arial,Helvetica Neue,Helvetica,sans-serif; font-size:12px; text-anchor:start;" transform="rotate(0, 519.922, 179.792)" x="519.922" y="179.792">dof: 9</text>
</g>
<polyline clip-path="url(#clip760)" style="stroke:#00a8cb; stroke-width:1; stroke-opacity:1; fill:none" stroke-dasharray="8, 5" points="
  475.865,190.412 513.628,190.412 
  "/>
<g clip-path="url(#clip760)">
<text style="fill:#000000; fill-opacity:1; font-family:Arial,Helvetica Neue,Helvetica,sans-serif; font-size:12px; text-anchor:start;" transform="rotate(0, 519.922, 194.912)" x="519.922" y="194.912">dof: 10</text>
</g>
</svg>
