<?xml version="1.0" encoding="utf-8"?>
<svg xmlns="http://www.w3.org/2000/svg" xmlns:xlink="http://www.w3.org/1999/xlink" width="600" height="400" viewBox="0 0 2400 1600">
<defs>
  <clipPath id="clip570">
    <rect x="0" y="0" width="2400" height="1600"/>
  </clipPath>
</defs>
<path clip-path="url(#clip570)" d="
M0 1600 L2400 1600 L2400 0 L0 0  Z
  " fill="#ffffff" fill-rule="evenodd" fill-opacity="1"/>
<defs>
  <clipPath id="clip571">
    <rect x="480" y="0" width="1681" height="1600"/>
  </clipPath>
</defs>
<path clip-path="url(#clip570)" d="
M111.244 1496.76 L2352.76 1496.76 L2352.76 47.2441 L111.244 47.2441  Z
  " fill="#ffffff" fill-rule="evenodd" fill-opacity="1"/>
<defs>
  <clipPath id="clip572">
    <rect x="111" y="47" width="2243" height="1451"/>
  </clipPath>
</defs>
<polyline clip-path="url(#clip572)" style="stroke:#000000; stroke-width:2; stroke-opacity:0.1; fill:none" points="
  386.146,1496.76 386.146,47.2441 
  "/>
<polyline clip-path="url(#clip572)" style="stroke:#000000; stroke-width:2; stroke-opacity:0.1; fill:none" points="
  809.073,1496.76 809.073,47.2441 
  "/>
<polyline clip-path="url(#clip572)" style="stroke:#000000; stroke-width:2; stroke-opacity:0.1; fill:none" points="
  1232,1496.76 1232,47.2441 
  "/>
<polyline clip-path="url(#clip572)" style="stroke:#000000; stroke-width:2; stroke-opacity:0.1; fill:none" points="
  1654.93,1496.76 1654.93,47.2441 
  "/>
<polyline clip-path="url(#clip572)" style="stroke:#000000; stroke-width:2; stroke-opacity:0.1; fill:none" points="
  2077.85,1496.76 2077.85,47.2441 
  "/>
<polyline clip-path="url(#clip570)" style="stroke:#000000; stroke-width:4; stroke-opacity:1; fill:none" points="
  111.244,1496.76 2352.76,1496.76 
  "/>
<polyline clip-path="url(#clip570)" style="stroke:#000000; stroke-width:4; stroke-opacity:1; fill:none" points="
  386.146,1496.76 386.146,1479.36 
  "/>
<polyline clip-path="url(#clip570)" style="stroke:#000000; stroke-width:4; stroke-opacity:1; fill:none" points="
  809.073,1496.76 809.073,1479.36 
  "/>
<polyline clip-path="url(#clip570)" style="stroke:#000000; stroke-width:4; stroke-opacity:1; fill:none" points="
  1232,1496.76 1232,1479.36 
  "/>
<polyline clip-path="url(#clip570)" style="stroke:#000000; stroke-width:4; stroke-opacity:1; fill:none" points="
  1654.93,1496.76 1654.93,1479.36 
  "/>
<polyline clip-path="url(#clip570)" style="stroke:#000000; stroke-width:4; stroke-opacity:1; fill:none" points="
  2077.85,1496.76 2077.85,1479.36 
  "/>
<g clip-path="url(#clip570)">
<text style="fill:#000000; fill-opacity:1; font-family:Arial,Helvetica Neue,Helvetica,sans-serif; font-size:48px; text-anchor:middle;" transform="rotate(0, 386.146, 1557.96)" x="386.146" y="1557.96">−4</text>
</g>
<g clip-path="url(#clip570)">
<text style="fill:#000000; fill-opacity:1; font-family:Arial,Helvetica Neue,Helvetica,sans-serif; font-size:48px; text-anchor:middle;" transform="rotate(0, 809.073, 1557.96)" x="809.073" y="1557.96">−2</text>
</g>
<g clip-path="url(#clip570)">
<text style="fill:#000000; fill-opacity:1; font-family:Arial,Helvetica Neue,Helvetica,sans-serif; font-size:48px; text-anchor:middle;" transform="rotate(0, 1232, 1557.96)" x="1232" y="1557.96">0</text>
</g>
<g clip-path="url(#clip570)">
<text style="fill:#000000; fill-opacity:1; font-family:Arial,Helvetica Neue,Helvetica,sans-serif; font-size:48px; text-anchor:middle;" transform="rotate(0, 1654.93, 1557.96)" x="1654.93" y="1557.96">2</text>
</g>
<g clip-path="url(#clip570)">
<text style="fill:#000000; fill-opacity:1; font-family:Arial,Helvetica Neue,Helvetica,sans-serif; font-size:48px; text-anchor:middle;" transform="rotate(0, 2077.85, 1557.96)" x="2077.85" y="1557.96">4</text>
</g>
<polyline clip-path="url(#clip572)" style="stroke:#000000; stroke-width:2; stroke-opacity:0.1; fill:none" points="
  111.244,1455.74 2352.76,1455.74 
  "/>
<polyline clip-path="url(#clip572)" style="stroke:#000000; stroke-width:2; stroke-opacity:0.1; fill:none" points="
  111.244,1112.86 2352.76,1112.86 
  "/>
<polyline clip-path="url(#clip572)" style="stroke:#000000; stroke-width:2; stroke-opacity:0.1; fill:none" points="
  111.244,769.981 2352.76,769.981 
  "/>
<polyline clip-path="url(#clip572)" style="stroke:#000000; stroke-width:2; stroke-opacity:0.1; fill:none" points="
  111.244,427.103 2352.76,427.103 
  "/>
<polyline clip-path="url(#clip572)" style="stroke:#000000; stroke-width:2; stroke-opacity:0.1; fill:none" points="
  111.244,84.2249 2352.76,84.2249 
  "/>
<polyline clip-path="url(#clip570)" style="stroke:#000000; stroke-width:4; stroke-opacity:1; fill:none" points="
  111.244,1496.76 111.244,47.2441 
  "/>
<polyline clip-path="url(#clip570)" style="stroke:#000000; stroke-width:4; stroke-opacity:1; fill:none" points="
  111.244,1455.74 138.142,1455.74 
  "/>
<polyline clip-path="url(#clip570)" style="stroke:#000000; stroke-width:4; stroke-opacity:1; fill:none" points="
  111.244,1112.86 138.142,1112.86 
  "/>
<polyline clip-path="url(#clip570)" style="stroke:#000000; stroke-width:4; stroke-opacity:1; fill:none" points="
  111.244,769.981 138.142,769.981 
  "/>
<polyline clip-path="url(#clip570)" style="stroke:#000000; stroke-width:4; stroke-opacity:1; fill:none" points="
  111.244,427.103 138.142,427.103 
  "/>
<polyline clip-path="url(#clip570)" style="stroke:#000000; stroke-width:4; stroke-opacity:1; fill:none" points="
  111.244,84.2249 138.142,84.2249 
  "/>
<g clip-path="url(#clip570)">
<text style="fill:#000000; fill-opacity:1; font-family:Arial,Helvetica Neue,Helvetica,sans-serif; font-size:48px; text-anchor:end;" transform="rotate(0, 75.2441, 1473.24)" x="75.2441" y="1473.24">0.0</text>
</g>
<g clip-path="url(#clip570)">
<text style="fill:#000000; fill-opacity:1; font-family:Arial,Helvetica Neue,Helvetica,sans-serif; font-size:48px; text-anchor:end;" transform="rotate(0, 75.2441, 1130.36)" x="75.2441" y="1130.36">0.1</text>
</g>
<g clip-path="url(#clip570)">
<text style="fill:#000000; fill-opacity:1; font-family:Arial,Helvetica Neue,Helvetica,sans-serif; font-size:48px; text-anchor:end;" transform="rotate(0, 75.2441, 787.481)" x="75.2441" y="787.481">0.2</text>
</g>
<g clip-path="url(#clip570)">
<text style="fill:#000000; fill-opacity:1; font-family:Arial,Helvetica Neue,Helvetica,sans-serif; font-size:48px; text-anchor:end;" transform="rotate(0, 75.2441, 444.603)" x="75.2441" y="444.603">0.3</text>
</g>
<g clip-path="url(#clip570)">
<text style="fill:#000000; fill-opacity:1; font-family:Arial,Helvetica Neue,Helvetica,sans-serif; font-size:48px; text-anchor:end;" transform="rotate(0, 75.2441, 101.725)" x="75.2441" y="101.725">0.4</text>
</g>
<polyline clip-path="url(#clip572)" style="stroke:#009af9; stroke-width:4; stroke-opacity:1; fill:none" points="
  174.683,1455.73 195.334,1455.73 386.284,1455.28 501.036,1452.26 598.058,1440.44 650.755,1424.44 703.451,1395.56 727.742,1376.07 752.033,1351.66 776.324,1321.54 
  800.615,1284.98 826.657,1237.87 852.699,1181.95 878.741,1116.85 904.784,1042.59 934.956,945.731 965.129,838.859 995.301,724.628 1025.47,606.706 1052.29,502.468 
  1079.1,402.504 1105.91,310.617 1132.73,230.573 1156.24,172.876 1179.76,128.969 1203.27,100.419 1226.78,88.268 1239.6,88.7347 1252.42,94.2129 1265.24,104.642 
  1278.05,119.909 1303.69,164.242 1329.32,225.32 1355.11,301.095 1380.9,388.199 1406.69,483.302 1432.48,583.009 1489.5,804.02 1546.53,1003.2 1573.65,1084.87 
  1600.78,1156.77 1627.91,1218.66 1655.04,1270.81 1683.25,1315.38 1711.45,1351.08 1739.66,1379.08 1767.87,1400.58 1815.36,1425.29 1862.85,1439.76 1978.81,1453.06 
  2087.81,1455.36 2262.44,1455.73 2289.32,1455.73 
  "/>
<polyline clip-path="url(#clip572)" style="stroke:#e26f46; stroke-width:4; stroke-opacity:1; fill:none" stroke-dasharray="16, 10" points="
  174.683,1413.76 195.334,1412.14 386.284,1391.52 501.036,1371.45 598.058,1346.46 650.755,1328.16 703.451,1305.14 752.033,1278.32 800.615,1244.29 826.657,1222.24 
  852.699,1196.95 878.741,1167.82 904.784,1134.2 934.956,1088.65 965.129,1034.78 995.301,971.292 1025.47,897.14 1052.29,822.022 1079.1,739.023 1105.91,650.57 
  1132.73,561.415 1156.24,488.469 1179.76,427.11 1191.51,402.918 1203.27,384.105 1215.03,371.31 1226.78,364.987 1239.6,365.73 1252.42,374.403 1265.24,390.633 
  1278.05,413.744 1290.87,442.829 1303.69,476.829 1316.51,514.622 1329.32,555.1 1355.11,640.611 1380.9,726.095 1406.69,807.026 1432.48,880.944 1460.99,953.39 
  1489.5,1016.15 1518.01,1069.99 1546.53,1115.97 1573.65,1153.44 1600.78,1185.68 1627.91,1213.49 1655.04,1237.55 1711.45,1278 1767.87,1308.68 1815.36,1328.98 
  1862.85,1345.49 1978.81,1374.72 2087.81,1392.94 2262.44,1411.63 2289.32,1413.76 
  "/>
<polyline clip-path="url(#clip572)" style="stroke:#3da44d; stroke-width:4; stroke-opacity:1; fill:none" stroke-dasharray="16, 10" points="
  174.683,1431.3 195.334,1429.92 386.284,1410.82 501.036,1389.92 598.058,1361.59 650.755,1339.65 703.451,1310.97 752.033,1276.46 800.615,1231.56 826.657,1202.07 
  852.699,1168.02 878.741,1128.74 904.784,1083.53 934.956,1022.8 965.129,952.227 995.301,871.31 1025.47,780.344 1079.1,600.05 1132.73,419.407 1144.49,384.051 
  1156.24,351.465 1168,322.239 1179.76,296.933 1191.51,276.063 1203.27,260.073 1215.03,249.315 1226.78,244.034 1239.6,244.653 1252.42,251.907 1265.24,265.597 
  1278.05,285.359 1290.87,310.682 1303.69,340.941 1316.51,375.427 1329.32,413.387 1380.9,586.138 1432.48,761.011 1460.99,848.986 1489.5,928.213 1518.01,998.178 
  1546.53,1059.13 1573.65,1109.37 1600.78,1152.83 1627.91,1190.3 1655.04,1222.56 1711.45,1276.05 1767.87,1315.44 1815.36,1340.65 1862.85,1360.45 1978.81,1393.46 
  2087.81,1412.22 2262.44,1429.49 2289.32,1431.3 
  "/>
<polyline clip-path="url(#clip572)" style="stroke:#c271d2; stroke-width:4; stroke-opacity:1; fill:none" stroke-dasharray="16, 10" points="
  174.683,1441.27 195.334,1440.22 386.284,1424.3 501.036,1404.98 598.058,1376.8 650.755,1353.93 703.451,1323.1 752.033,1285.05 800.615,1234.59 826.657,1201.12 
  852.699,1162.32 878.741,1117.49 904.784,1065.96 934.956,997.141 965.129,918.005 995.301,828.65 1025.47,730.198 1079.1,541.782 1132.73,362.066 1144.49,327.932 
  1156.24,296.768 1168,269.055 1179.76,245.24 1191.51,225.725 1203.27,210.848 1215.03,200.876 1226.78,195.991 1239.6,196.564 1252.42,203.276 1265.24,215.98 
  1278.05,234.404 1290.87,258.159 1303.69,286.763 1316.51,319.657 1329.32,356.23 1380.9,527.619 1432.48,709.562 1460.99,804.286 1489.5,891.322 1518.01,969.42 
  1546.53,1038.25 1573.65,1095.39 1600.78,1144.97 1627.91,1187.72 1655.04,1224.4 1711.45,1284.59 1767.87,1327.96 1815.36,1354.99 1862.85,1375.64 1978.81,1408.36 
  2087.81,1425.53 2262.44,1439.88 2289.32,1441.27 
  "/>
<polyline clip-path="url(#clip572)" style="stroke:#ac8d18; stroke-width:4; stroke-opacity:1; fill:none" stroke-dasharray="16, 10" points="
  174.683,1446.65 195.334,1445.85 386.284,1432.72 501.036,1415.23 598.058,1388.05 650.755,1365.09 703.451,1333.34 752.033,1293.35 800.615,1239.52 826.657,1203.55 
  852.699,1161.72 878.741,1113.34 904.784,1057.8 934.956,983.888 965.129,899.491 995.301,805.129 1025.47,702.445 1079.1,509.932 1132.73,331.284 1144.49,297.895 
  1156.24,267.562 1168,240.706 1179.76,217.717 1191.51,198.939 1203.27,184.661 1215.03,175.108 1226.78,170.434 1239.6,170.982 1252.42,177.406 1265.24,189.583 
  1278.05,207.283 1290.87,230.178 1303.69,257.853 1316.51,289.827 1329.32,325.564 1380.9,495.677 1432.48,681.101 1460.99,779.588 1489.5,871.202 1518.01,954.243 
  1546.53,1027.99 1573.65,1089.51 1600.78,1143 1627.91,1189.11 1655.04,1228.59 1711.45,1292.86 1767.87,1338.39 1815.36,1366.16 1862.85,1386.89 1978.81,1418.37 
  2087.81,1433.79 2262.44,1445.59 2289.32,1446.65 
  "/>
<polyline clip-path="url(#clip572)" style="stroke:#00a9ad; stroke-width:4; stroke-opacity:1; fill:none" stroke-dasharray="16, 10" points="
  174.683,1449.71 195.334,1449.09 386.284,1438.16 501.036,1422.32 598.058,1396.28 650.755,1373.53 703.451,1341.39 752.033,1300.22 800.615,1244.16 826.657,1206.46 
  852.699,1162.52 878.741,1111.66 904.784,1053.32 934.956,975.907 965.129,887.939 995.301,790.256 1025.47,684.852 1052.29,587.41 1079.1,489.898 1105.91,396.532 
  1132.73,312.131 1144.49,279.24 1156.24,249.448 1168,223.143 1179.76,200.678 1191.51,182.364 1203.27,168.46 1215.03,159.168 1226.78,154.625 1239.6,155.157 
  1252.42,161.403 1265.24,173.251 1278.05,190.498 1290.87,212.849 1303.69,239.931 1316.51,271.307 1329.32,306.488 1355.11,386.644 1380.9,475.603 1406.69,569.031 
  1432.48,663.065 1460.99,763.949 1489.5,858.577 1518.01,944.949 1546.53,1022.06 1573.65,1086.62 1600.78,1142.85 1627.91,1191.3 1655.04,1232.72 1683.25,1269.15 
  1711.45,1299.72 1739.66,1325.26 1767.87,1346.54 1815.36,1374.6 1862.85,1395.15 1978.81,1425.23 2087.81,1439.09 2262.44,1448.89 2289.32,1449.71 
  "/>
<polyline clip-path="url(#clip572)" style="stroke:#ed5d92; stroke-width:4; stroke-opacity:1; fill:none" stroke-dasharray="16, 10" points="
  174.683,1451.55 195.334,1451.06 386.284,1441.82 501.036,1427.39 598.058,1402.46 650.755,1380.02 703.451,1347.74 752.033,1305.81 800.615,1248.15 826.657,1209.19 
  852.699,1163.7 878.741,1111.01 904.784,1050.6 934.956,970.616 965.129,880.061 995.301,780.011 1025.47,672.712 1052.29,574.153 1079.1,476.146 1105.91,382.891 
  1132.73,299.079 1144.49,266.543 1156.24,237.132 1168,211.21 1179.76,189.107 1191.51,171.112 1203.27,157.465 1215.03,148.351 1226.78,143.896 1239.6,144.419 
  1252.42,150.542 1265.24,162.166 1278.05,179.102 1290.87,201.078 1303.69,227.749 1316.51,258.706 1329.32,293.493 1355.11,373.048 1380.9,461.831 1406.69,555.633 
  1432.48,650.621 1460.99,753.166 1489.5,849.928 1518.01,938.702 1546.53,1018.28 1573.65,1085.07 1600.78,1143.31 1627.91,1193.51 1655.04,1236.34 1683.25,1273.91 
  1711.45,1305.3 1739.66,1331.37 1767.87,1352.95 1815.36,1381.09 1862.85,1401.36 1978.81,1430.11 2087.81,1442.64 2262.44,1450.9 2289.32,1451.55 
  "/>
<polyline clip-path="url(#clip572)" style="stroke:#c68125; stroke-width:4; stroke-opacity:1; fill:none" stroke-dasharray="16, 10" points="
  174.683,1452.71 195.334,1452.32 386.284,1444.4 501.036,1431.15 598.058,1407.22 650.755,1385.12 703.451,1352.83 752.033,1310.38 800.615,1251.53 826.657,1211.61 
  852.699,1164.91 878.741,1110.81 904.784,1048.82 934.956,966.867 965.129,874.351 995.301,772.529 1025.47,663.832 1052.29,564.47 1079.1,466.127 1105.91,372.981 
  1132.73,289.62 1144.49,257.348 1156.24,228.22 1168,202.58 1179.76,180.743 1191.51,162.98 1203.27,149.52 1215.03,140.535 1226.78,136.145 1239.6,136.66 
  1252.42,142.695 1265.24,154.156 1278.05,170.865 1290.87,192.567 1303.69,218.935 1316.51,249.583 1329.32,284.076 1355.11,363.173 1380.9,451.801 1406.69,545.851 
  1432.48,641.521 1460.99,745.283 1489.5,843.639 1518.01,934.227 1546.53,1015.68 1573.65,1084.18 1600.78,1143.99 1627.91,1195.51 1655.04,1239.43 1683.25,1277.87 
  1711.45,1309.85 1739.66,1336.31 1767.87,1358.07 1815.36,1386.18 1862.85,1406.14 1978.81,1433.69 2087.81,1445.13 2262.44,1452.19 2289.32,1452.71 
  "/>
<polyline clip-path="url(#clip572)" style="stroke:#00a98d; stroke-width:4; stroke-opacity:1; fill:none" stroke-dasharray="16, 10" points="
  174.683,1453.48 195.334,1453.16 386.284,1446.28 501.036,1434.02 598.058,1410.98 650.755,1389.21 703.451,1356.97 752.033,1314.16 800.615,1254.38 826.657,1213.7 
  852.699,1166.06 878.741,1110.84 904.784,1047.59 934.956,964.08 965.129,870.025 995.301,766.825 1025.47,657.056 1052.29,557.089 1079.1,458.504 1105.91,365.456 
  1132.73,282.452 1144.49,250.385 1156.24,221.474 1168,196.051 1179.76,174.416 1191.51,156.831 1203.27,143.512 1215.03,134.626 1226.78,130.285 1239.6,130.794 
  1252.42,136.762 1265.24,148.099 1278.05,164.636 1290.87,186.128 1303.69,212.265 1316.51,242.675 1329.32,276.94 1355.11,355.678 1380.9,444.173 1406.69,538.397 
  1432.48,634.578 1460.99,739.271 1489.5,838.86 1518.01,930.868 1546.53,1013.8 1573.65,1083.66 1600.78,1144.7 1627.91,1197.29 1655.04,1242.06 1683.25,1281.17 
  1711.45,1313.63 1739.66,1340.35 1767.87,1362.23 1815.36,1390.26 1862.85,1409.93 1978.81,1436.41 2087.81,1446.93 2262.44,1453.05 2289.32,1453.48 
  "/>
<polyline clip-path="url(#clip572)" style="stroke:#8e971d; stroke-width:4; stroke-opacity:1; fill:none" stroke-dasharray="16, 10" points="
  174.683,1454.01 195.334,1453.74 386.284,1447.68 501.036,1436.26 598.058,1414.01 650.755,1392.56 703.451,1360.4 752.033,1317.32 800.615,1256.82 826.657,1215.52 
  852.699,1167.11 878.741,1110.97 904.784,1046.7 934.956,961.931 965.129,866.636 995.301,762.334 1025.47,651.716 1052.29,551.277 1079.1,452.51 1105.91,359.55 
  1132.73,276.833 1144.49,244.931 1156.24,216.192 1168,190.94 1179.76,169.465 1191.51,152.02 1203.27,138.812 1215.03,130.003 1226.78,125.701 1239.6,126.205 
  1252.42,132.12 1265.24,143.36 1278.05,159.761 1290.87,181.089 1303.69,207.043 1316.51,237.264 1329.32,271.347 1355.11,349.795 1380.9,438.177 1406.69,532.529 
  1432.48,629.107 1460.99,734.535 1489.5,835.109 1518.01,928.257 1546.53,1012.38 1573.65,1083.35 1600.78,1145.39 1627.91,1198.84 1655.04,1244.32 1683.25,1283.97 
  1711.45,1316.79 1739.66,1343.72 1767.87,1365.67 1815.36,1393.6 1862.85,1412.98 1978.81,1438.52 2087.81,1448.27 2262.44,1453.65 2289.32,1454.01 
  "/>
<polyline clip-path="url(#clip572)" style="stroke:#00a8cb; stroke-width:4; stroke-opacity:1; fill:none" stroke-dasharray="16, 10" points="
  174.683,1454.38 195.334,1454.15 386.284,1448.77 501.036,1438.06 598.058,1416.5 650.755,1395.35 703.451,1363.29 752.033,1320.01 800.615,1258.91 826.657,1217.1 
  852.699,1168.05 878.741,1111.16 904.784,1046.04 934.956,960.225 965.129,863.91 995.301,758.706 1025.47,647.4 1052.29,546.582 1079.1,447.675 1105.91,354.791 
  1132.73,272.311 1144.49,240.542 1156.24,211.944 1168,186.831 1179.76,165.485 1191.51,148.153 1203.27,135.035 1215.03,126.288 1226.78,122.017 1239.6,122.517 
  1252.42,128.39 1265.24,139.551 1278.05,155.843 1290.87,177.038 1303.69,202.843 1316.51,232.911 1329.32,266.847 1355.11,345.056 1380.9,433.34 1406.69,527.789 
  1432.48,624.684 1460.99,730.708 1489.5,832.085 1518.01,926.171 1546.53,1011.28 1573.65,1083.17 1600.78,1146.04 1627.91,1200.21 1655.04,1246.26 1683.25,1286.36 
  1711.45,1319.47 1739.66,1346.56 1767.87,1368.56 1815.36,1396.38 1862.85,1415.49 1978.81,1440.21 2087.81,1449.31 2262.44,1454.08 2289.32,1454.38 
  "/>
<path clip-path="url(#clip570)" d="
M1881.79 821.321 L2278.04 821.321 L2278.04 95.5612 L1881.79 95.5612  Z
  " fill="#ffffff" fill-rule="evenodd" fill-opacity="1"/>
<polyline clip-path="url(#clip570)" style="stroke:#000000; stroke-width:4; stroke-opacity:1; fill:none" points="
  1881.79,821.321 2278.04,821.321 2278.04,95.5612 1881.79,95.5612 1881.79,821.321 
  "/>
<polyline clip-path="url(#clip570)" style="stroke:#009af9; stroke-width:4; stroke-opacity:1; fill:none" points="
  1906.69,156.041 2056.13,156.041 
  "/>
<g clip-path="url(#clip570)">
<text style="fill:#000000; fill-opacity:1; font-family:Arial,Helvetica Neue,Helvetica,sans-serif; font-size:48px; text-anchor:start;" transform="rotate(0, 2081.03, 173.541)" x="2081.03" y="173.541">正規分布</text>
</g>
<polyline clip-path="url(#clip570)" style="stroke:#e26f46; stroke-width:4; stroke-opacity:1; fill:none" stroke-dasharray="16, 10" points="
  1906.69,216.521 2056.13,216.521 
  "/>
<g clip-path="url(#clip570)">
<text style="fill:#000000; fill-opacity:1; font-family:Arial,Helvetica Neue,Helvetica,sans-serif; font-size:48px; text-anchor:start;" transform="rotate(0, 2081.03, 234.021)" x="2081.03" y="234.021">dof: 1</text>
</g>
<polyline clip-path="url(#clip570)" style="stroke:#3da44d; stroke-width:4; stroke-opacity:1; fill:none" stroke-dasharray="16, 10" points="
  1906.69,277.001 2056.13,277.001 
  "/>
<g clip-path="url(#clip570)">
<text style="fill:#000000; fill-opacity:1; font-family:Arial,Helvetica Neue,Helvetica,sans-serif; font-size:48px; text-anchor:start;" transform="rotate(0, 2081.03, 294.501)" x="2081.03" y="294.501">dof: 2</text>
</g>
<polyline clip-path="url(#clip570)" style="stroke:#c271d2; stroke-width:4; stroke-opacity:1; fill:none" stroke-dasharray="16, 10" points="
  1906.69,337.481 2056.13,337.481 
  "/>
<g clip-path="url(#clip570)">
<text style="fill:#000000; fill-opacity:1; font-family:Arial,Helvetica Neue,Helvetica,sans-serif; font-size:48px; text-anchor:start;" transform="rotate(0, 2081.03, 354.981)" x="2081.03" y="354.981">dof: 3</text>
</g>
<polyline clip-path="url(#clip570)" style="stroke:#ac8d18; stroke-width:4; stroke-opacity:1; fill:none" stroke-dasharray="16, 10" points="
  1906.69,397.961 2056.13,397.961 
  "/>
<g clip-path="url(#clip570)">
<text style="fill:#000000; fill-opacity:1; font-family:Arial,Helvetica Neue,Helvetica,sans-serif; font-size:48px; text-anchor:start;" transform="rotate(0, 2081.03, 415.461)" x="2081.03" y="415.461">dof: 4</text>
</g>
<polyline clip-path="url(#clip570)" style="stroke:#00a9ad; stroke-width:4; stroke-opacity:1; fill:none" stroke-dasharray="16, 10" points="
  1906.69,458.441 2056.13,458.441 
  "/>
<g clip-path="url(#clip570)">
<text style="fill:#000000; fill-opacity:1; font-family:Arial,Helvetica Neue,Helvetica,sans-serif; font-size:48px; text-anchor:start;" transform="rotate(0, 2081.03, 475.941)" x="2081.03" y="475.941">dof: 5</text>
</g>
<polyline clip-path="url(#clip570)" style="stroke:#ed5d92; stroke-width:4; stroke-opacity:1; fill:none" stroke-dasharray="16, 10" points="
  1906.69,518.921 2056.13,518.921 
  "/>
<g clip-path="url(#clip570)">
<text style="fill:#000000; fill-opacity:1; font-family:Arial,Helvetica Neue,Helvetica,sans-serif; font-size:48px; text-anchor:start;" transform="rotate(0, 2081.03, 536.421)" x="2081.03" y="536.421">dof: 6</text>
</g>
<polyline clip-path="url(#clip570)" style="stroke:#c68125; stroke-width:4; stroke-opacity:1; fill:none" stroke-dasharray="16, 10" points="
  1906.69,579.401 2056.13,579.401 
  "/>
<g clip-path="url(#clip570)">
<text style="fill:#000000; fill-opacity:1; font-family:Arial,Helvetica Neue,Helvetica,sans-serif; font-size:48px; text-anchor:start;" transform="rotate(0, 2081.03, 596.901)" x="2081.03" y="596.901">dof: 7</text>
</g>
<polyline clip-path="url(#clip570)" style="stroke:#00a98d; stroke-width:4; stroke-opacity:1; fill:none" stroke-dasharray="16, 10" points="
  1906.69,639.881 2056.13,639.881 
  "/>
<g clip-path="url(#clip570)">
<text style="fill:#000000; fill-opacity:1; font-family:Arial,Helvetica Neue,Helvetica,sans-serif; font-size:48px; text-anchor:start;" transform="rotate(0, 2081.03, 657.381)" x="2081.03" y="657.381">dof: 8</text>
</g>
<polyline clip-path="url(#clip570)" style="stroke:#8e971d; stroke-width:4; stroke-opacity:1; fill:none" stroke-dasharray="16, 10" points="
  1906.69,700.361 2056.13,700.361 
  "/>
<g clip-path="url(#clip570)">
<text style="fill:#000000; fill-opacity:1; font-family:Arial,Helvetica Neue,Helvetica,sans-serif; font-size:48px; text-anchor:start;" transform="rotate(0, 2081.03, 717.861)" x="2081.03" y="717.861">dof: 9</text>
</g>
<polyline clip-path="url(#clip570)" style="stroke:#00a8cb; stroke-width:4; stroke-opacity:1; fill:none" stroke-dasharray="16, 10" points="
  1906.69,760.841 2056.13,760.841 
  "/>
<g clip-path="url(#clip570)">
<text style="fill:#000000; fill-opacity:1; font-family:Arial,Helvetica Neue,Helvetica,sans-serif; font-size:48px; text-anchor:start;" transform="rotate(0, 2081.03, 778.341)" x="2081.03" y="778.341">dof: 10</text>
</g>
</svg>
