<?xml version="1.0" encoding="utf-8"?>
<svg xmlns="http://www.w3.org/2000/svg" xmlns:xlink="http://www.w3.org/1999/xlink" width="600" height="400" viewBox="0 0 2400 1600">
<defs>
  <clipPath id="clip540">
    <rect x="0" y="0" width="2400" height="1600"/>
  </clipPath>
</defs>
<path clip-path="url(#clip540)" d="
M0 1600 L2400 1600 L2400 0 L0 0  Z
  " fill="#ffffff" fill-rule="evenodd" fill-opacity="1"/>
<defs>
  <clipPath id="clip541">
    <rect x="480" y="0" width="1681" height="1600"/>
  </clipPath>
</defs>
<path clip-path="url(#clip540)" d="
M111.244 1496.76 L2352.76 1496.76 L2352.76 62.9921 L111.244 62.9921  Z
  " fill="#ffffff" fill-rule="evenodd" fill-opacity="1"/>
<defs>
  <clipPath id="clip542">
    <rect x="111" y="62" width="2243" height="1435"/>
  </clipPath>
</defs>
<polyline clip-path="url(#clip542)" style="stroke:#000000; stroke-width:2; stroke-opacity:0.1; fill:none" points="
  111.244,1496.76 111.244,62.9921 
  "/>
<polyline clip-path="url(#clip542)" style="stroke:#000000; stroke-width:2; stroke-opacity:0.1; fill:none" points="
  671.622,1496.76 671.622,62.9921 
  "/>
<polyline clip-path="url(#clip542)" style="stroke:#000000; stroke-width:2; stroke-opacity:0.1; fill:none" points="
  1232,1496.76 1232,62.9921 
  "/>
<polyline clip-path="url(#clip542)" style="stroke:#000000; stroke-width:2; stroke-opacity:0.1; fill:none" points="
  1792.38,1496.76 1792.38,62.9921 
  "/>
<polyline clip-path="url(#clip542)" style="stroke:#000000; stroke-width:2; stroke-opacity:0.1; fill:none" points="
  2352.76,1496.76 2352.76,62.9921 
  "/>
<polyline clip-path="url(#clip540)" style="stroke:#000000; stroke-width:4; stroke-opacity:1; fill:none" points="
  111.244,1496.76 2352.76,1496.76 
  "/>
<polyline clip-path="url(#clip540)" style="stroke:#000000; stroke-width:4; stroke-opacity:1; fill:none" points="
  111.244,1496.76 111.244,1479.55 
  "/>
<polyline clip-path="url(#clip540)" style="stroke:#000000; stroke-width:4; stroke-opacity:1; fill:none" points="
  671.622,1496.76 671.622,1479.55 
  "/>
<polyline clip-path="url(#clip540)" style="stroke:#000000; stroke-width:4; stroke-opacity:1; fill:none" points="
  1232,1496.76 1232,1479.55 
  "/>
<polyline clip-path="url(#clip540)" style="stroke:#000000; stroke-width:4; stroke-opacity:1; fill:none" points="
  1792.38,1496.76 1792.38,1479.55 
  "/>
<polyline clip-path="url(#clip540)" style="stroke:#000000; stroke-width:4; stroke-opacity:1; fill:none" points="
  2352.76,1496.76 2352.76,1479.55 
  "/>
<g clip-path="url(#clip540)">
<text style="fill:#000000; fill-opacity:1; font-family:Arial,Helvetica Neue,Helvetica,sans-serif; font-size:48px; text-anchor:middle;" transform="rotate(0, 111.244, 1557.96)" x="111.244" y="1557.96">0</text>
</g>
<g clip-path="url(#clip540)">
<text style="fill:#000000; fill-opacity:1; font-family:Arial,Helvetica Neue,Helvetica,sans-serif; font-size:48px; text-anchor:middle;" transform="rotate(0, 671.622, 1557.96)" x="671.622" y="1557.96">2</text>
</g>
<g clip-path="url(#clip540)">
<text style="fill:#000000; fill-opacity:1; font-family:Arial,Helvetica Neue,Helvetica,sans-serif; font-size:48px; text-anchor:middle;" transform="rotate(0, 1232, 1557.96)" x="1232" y="1557.96">4</text>
</g>
<g clip-path="url(#clip540)">
<text style="fill:#000000; fill-opacity:1; font-family:Arial,Helvetica Neue,Helvetica,sans-serif; font-size:48px; text-anchor:middle;" transform="rotate(0, 1792.38, 1557.96)" x="1792.38" y="1557.96">6</text>
</g>
<g clip-path="url(#clip540)">
<text style="fill:#000000; fill-opacity:1; font-family:Arial,Helvetica Neue,Helvetica,sans-serif; font-size:48px; text-anchor:middle;" transform="rotate(0, 2352.76, 1557.96)" x="2352.76" y="1557.96">8</text>
</g>
<polyline clip-path="url(#clip542)" style="stroke:#000000; stroke-width:2; stroke-opacity:0.1; fill:none" points="
  111.244,1496.76 2352.76,1496.76 
  "/>
<polyline clip-path="url(#clip542)" style="stroke:#000000; stroke-width:2; stroke-opacity:0.1; fill:none" points="
  111.244,1210 2352.76,1210 
  "/>
<polyline clip-path="url(#clip542)" style="stroke:#000000; stroke-width:2; stroke-opacity:0.1; fill:none" points="
  111.244,923.25 2352.76,923.25 
  "/>
<polyline clip-path="url(#clip542)" style="stroke:#000000; stroke-width:2; stroke-opacity:0.1; fill:none" points="
  111.244,636.498 2352.76,636.498 
  "/>
<polyline clip-path="url(#clip542)" style="stroke:#000000; stroke-width:2; stroke-opacity:0.1; fill:none" points="
  111.244,349.745 2352.76,349.745 
  "/>
<polyline clip-path="url(#clip542)" style="stroke:#000000; stroke-width:2; stroke-opacity:0.1; fill:none" points="
  111.244,62.9921 2352.76,62.9921 
  "/>
<polyline clip-path="url(#clip540)" style="stroke:#000000; stroke-width:4; stroke-opacity:1; fill:none" points="
  111.244,1496.76 111.244,62.9921 
  "/>
<polyline clip-path="url(#clip540)" style="stroke:#000000; stroke-width:4; stroke-opacity:1; fill:none" points="
  111.244,1496.76 138.142,1496.76 
  "/>
<polyline clip-path="url(#clip540)" style="stroke:#000000; stroke-width:4; stroke-opacity:1; fill:none" points="
  111.244,1210 138.142,1210 
  "/>
<polyline clip-path="url(#clip540)" style="stroke:#000000; stroke-width:4; stroke-opacity:1; fill:none" points="
  111.244,923.25 138.142,923.25 
  "/>
<polyline clip-path="url(#clip540)" style="stroke:#000000; stroke-width:4; stroke-opacity:1; fill:none" points="
  111.244,636.498 138.142,636.498 
  "/>
<polyline clip-path="url(#clip540)" style="stroke:#000000; stroke-width:4; stroke-opacity:1; fill:none" points="
  111.244,349.745 138.142,349.745 
  "/>
<polyline clip-path="url(#clip540)" style="stroke:#000000; stroke-width:4; stroke-opacity:1; fill:none" points="
  111.244,62.9921 138.142,62.9921 
  "/>
<g clip-path="url(#clip540)">
<text style="fill:#000000; fill-opacity:1; font-family:Arial,Helvetica Neue,Helvetica,sans-serif; font-size:48px; text-anchor:end;" transform="rotate(0, 75.2441, 1514.26)" x="75.2441" y="1514.26">0.0</text>
</g>
<g clip-path="url(#clip540)">
<text style="fill:#000000; fill-opacity:1; font-family:Arial,Helvetica Neue,Helvetica,sans-serif; font-size:48px; text-anchor:end;" transform="rotate(0, 75.2441, 1227.5)" x="75.2441" y="1227.5">0.2</text>
</g>
<g clip-path="url(#clip540)">
<text style="fill:#000000; fill-opacity:1; font-family:Arial,Helvetica Neue,Helvetica,sans-serif; font-size:48px; text-anchor:end;" transform="rotate(0, 75.2441, 940.75)" x="75.2441" y="940.75">0.4</text>
</g>
<g clip-path="url(#clip540)">
<text style="fill:#000000; fill-opacity:1; font-family:Arial,Helvetica Neue,Helvetica,sans-serif; font-size:48px; text-anchor:end;" transform="rotate(0, 75.2441, 653.998)" x="75.2441" y="653.998">0.6</text>
</g>
<g clip-path="url(#clip540)">
<text style="fill:#000000; fill-opacity:1; font-family:Arial,Helvetica Neue,Helvetica,sans-serif; font-size:48px; text-anchor:end;" transform="rotate(0, 75.2441, 367.245)" x="75.2441" y="367.245">0.8</text>
</g>
<g clip-path="url(#clip540)">
<text style="fill:#000000; fill-opacity:1; font-family:Arial,Helvetica Neue,Helvetica,sans-serif; font-size:48px; text-anchor:end;" transform="rotate(0, 75.2441, 80.4921)" x="75.2441" y="80.4921">1.0</text>
</g>
<g clip-path="url(#clip540)">
<text style="fill:#000000; fill-opacity:1; font-family:Arial,Helvetica Neue,Helvetica,sans-serif; font-size:84px; text-anchor:middle;" transform="rotate(0, 1232, 73.2)" x="1232" y="73.2">DOF of chi</text>
</g>
<polyline clip-path="url(#clip542)" style="stroke:#009af9; stroke-width:4; stroke-opacity:1; fill:none" points="
  139.263,-223.816 167.282,339.463 195.301,597.915 223.32,756.301 251.339,866.773 279.357,949.71 307.376,1014.99 335.395,1068.08 363.414,1112.31 391.433,1149.83 
  419.452,1182.1 447.471,1210.19 475.49,1234.86 503.509,1256.7 531.528,1276.15 559.546,1293.57 587.565,1309.25 615.584,1323.42 643.603,1336.27 671.622,1347.96 
  699.641,1358.63 727.66,1368.39 755.679,1377.33 783.698,1385.55 811.717,1393.11 839.735,1400.08 867.754,1406.51 895.773,1412.46 923.792,1417.97 951.811,1423.07 
  979.83,1427.8 1007.85,1432.2 1035.87,1436.29 1063.89,1440.09 1091.91,1443.63 1119.92,1446.92 1147.94,1450 1175.96,1452.87 1203.98,1455.55 1232,1458.05 
  1260.02,1460.39 1288.04,1462.58 1316.06,1464.63 1344.08,1466.54 1372.09,1468.34 1400.11,1470.02 1428.13,1471.59 1456.15,1473.07 1484.17,1474.46 1512.19,1475.76 
  1540.21,1476.98 1568.23,1478.13 1596.25,1479.2 1624.26,1480.21 1652.28,1481.16 1680.3,1482.06 1708.32,1482.9 1736.34,1483.69 1764.36,1484.43 1792.38,1485.13 
  1820.4,1485.79 1848.42,1486.41 1876.43,1486.99 1904.45,1487.54 1932.47,1488.06 1960.49,1488.54 1988.51,1489 2016.53,1489.44 2044.55,1489.84 2072.57,1490.23 
  2100.59,1490.59 2128.6,1490.93 2156.62,1491.25 2184.64,1491.56 2212.66,1491.84 2240.68,1492.11 2268.7,1492.37 2296.72,1492.61 2324.74,1492.84 2352.76,1493.05 
  
  "/>
<polyline clip-path="url(#clip542)" style="stroke:#e26f46; stroke-width:4; stroke-opacity:1; fill:none" points="
  139.263,814.837 167.282,848.094 195.301,879.73 223.32,909.823 251.339,938.448 279.357,965.677 307.376,991.578 335.395,1016.22 363.414,1039.65 391.433,1061.95 
  419.452,1083.15 447.471,1103.32 475.49,1122.51 503.509,1140.76 531.528,1158.12 559.546,1174.64 587.565,1190.35 615.584,1205.29 643.603,1219.51 671.622,1233.03 
  699.641,1245.89 727.66,1258.13 755.679,1269.76 783.698,1280.84 811.717,1291.37 839.735,1301.38 867.754,1310.91 895.773,1319.98 923.792,1328.6 951.811,1336.8 
  979.83,1344.6 1007.85,1352.02 1035.87,1359.08 1063.89,1365.79 1091.91,1372.18 1119.92,1378.26 1147.94,1384.04 1175.96,1389.53 1203.98,1394.76 1232,1399.74 
  1260.02,1404.47 1288.04,1408.97 1316.06,1413.25 1344.08,1417.32 1372.09,1421.2 1400.11,1424.88 1428.13,1428.39 1456.15,1431.72 1484.17,1434.89 1512.19,1437.91 
  1540.21,1440.78 1568.23,1443.51 1596.25,1446.11 1624.26,1448.58 1652.28,1450.93 1680.3,1453.16 1708.32,1455.29 1736.34,1457.31 1764.36,1459.23 1792.38,1461.06 
  1820.4,1462.81 1848.42,1464.46 1876.43,1466.04 1904.45,1467.53 1932.47,1468.96 1960.49,1470.32 1988.51,1471.6 2016.53,1472.83 2044.55,1474 2072.57,1475.11 
  2100.59,1476.16 2128.6,1477.17 2156.62,1478.12 2184.64,1479.03 2212.66,1479.9 2240.68,1480.72 2268.7,1481.5 2296.72,1482.24 2324.74,1482.95 2352.76,1483.63 
  
  "/>
<polyline clip-path="url(#clip542)" style="stroke:#3da44d; stroke-width:4; stroke-opacity:1; fill:none" points="
  139.263,1324.7 167.282,1265.3 195.301,1227.1 223.32,1200.57 251.339,1181.76 279.357,1168.53 307.376,1159.52 335.395,1153.82 363.414,1150.76 391.433,1149.83 
  419.452,1150.64 447.471,1152.88 475.49,1156.29 503.509,1160.67 531.528,1165.84 559.546,1171.66 587.565,1178 615.584,1184.75 643.603,1191.84 671.622,1199.17 
  699.641,1206.7 727.66,1214.35 755.679,1222.08 783.698,1229.86 811.717,1237.64 839.735,1245.4 867.754,1253.1 895.773,1260.73 923.792,1268.27 951.811,1275.7 
  979.83,1283 1007.85,1290.17 1035.87,1297.2 1063.89,1304.08 1091.91,1310.8 1119.92,1317.36 1147.94,1323.76 1175.96,1329.99 1203.98,1336.04 1232,1341.94 
  1260.02,1347.66 1288.04,1353.21 1316.06,1358.59 1344.08,1363.81 1372.09,1368.87 1400.11,1373.76 1428.13,1378.49 1456.15,1383.07 1484.17,1387.5 1512.19,1391.77 
  1540.21,1395.9 1568.23,1399.88 1596.25,1403.72 1624.26,1407.43 1652.28,1411 1680.3,1414.45 1708.32,1417.76 1736.34,1420.96 1764.36,1424.04 1792.38,1427 
  1820.4,1429.85 1848.42,1432.59 1876.43,1435.23 1904.45,1437.77 1932.47,1440.21 1960.49,1442.56 1988.51,1444.81 2016.53,1446.98 2044.55,1449.06 2072.57,1451.06 
  2100.59,1452.98 2128.6,1454.82 2156.62,1456.59 2184.64,1458.29 2212.66,1459.92 2240.68,1461.48 2268.7,1462.98 2296.72,1464.42 2324.74,1465.8 2352.76,1467.12 
  
  "/>
<polyline clip-path="url(#clip542)" style="stroke:#c271d2; stroke-width:4; stroke-opacity:1; fill:none" points="
  139.263,1462.66 167.282,1431.89 195.301,1404.2 223.32,1379.37 251.339,1357.18 279.357,1337.43 307.376,1319.94 335.395,1304.54 363.414,1291.06 391.433,1279.35 
  419.452,1269.27 447.471,1260.7 475.49,1253.5 503.509,1247.56 531.528,1242.78 559.546,1239.06 587.565,1236.31 615.584,1234.44 643.603,1233.37 671.622,1233.03 
  699.641,1233.35 727.66,1234.26 755.679,1235.72 783.698,1237.65 811.717,1240.02 839.735,1242.77 867.754,1245.87 895.773,1249.26 923.792,1252.93 951.811,1256.82 
  979.83,1260.91 1007.85,1265.18 1035.87,1269.59 1063.89,1274.12 1091.91,1278.75 1119.92,1283.46 1147.94,1288.22 1175.96,1293.03 1203.98,1297.87 1232,1302.72 
  1260.02,1307.57 1288.04,1312.4 1316.06,1317.22 1344.08,1322 1372.09,1326.75 1400.11,1331.45 1428.13,1336.09 1456.15,1340.67 1484.17,1345.19 1512.19,1349.64 
  1540.21,1354.02 1568.23,1358.32 1596.25,1362.54 1624.26,1366.67 1652.28,1370.73 1680.3,1374.69 1708.32,1378.57 1736.34,1382.36 1764.36,1386.07 1792.38,1389.68 
  1820.4,1393.21 1848.42,1396.64 1876.43,1399.99 1904.45,1403.25 1932.47,1406.42 1960.49,1409.5 1988.51,1412.5 2016.53,1415.41 2044.55,1418.24 2072.57,1420.99 
  2100.59,1423.65 2128.6,1426.24 2156.62,1428.75 2184.64,1431.18 2212.66,1433.53 2240.68,1435.81 2268.7,1438.02 2296.72,1440.16 2324.74,1442.23 2352.76,1444.24 
  
  "/>
<polyline clip-path="url(#clip542)" style="stroke:#ac8d18; stroke-width:4; stroke-opacity:1; fill:none" points="
  139.263,1491.02 167.282,1481.33 195.301,1469.79 223.32,1457.26 251.339,1444.26 279.357,1431.11 307.376,1418.07 335.395,1405.31 363.414,1392.96 391.433,1381.11 
  419.452,1369.85 447.471,1359.21 475.49,1349.22 503.509,1339.92 531.528,1331.3 559.546,1323.37 587.565,1316.13 615.584,1309.55 643.603,1303.64 671.622,1298.37 
  699.641,1293.71 727.66,1289.66 755.679,1286.17 783.698,1283.24 811.717,1280.83 839.735,1278.91 867.754,1277.47 895.773,1276.47 923.792,1275.89 951.811,1275.7 
  979.83,1275.88 1007.85,1276.4 1035.87,1277.25 1063.89,1278.39 1091.91,1279.81 1119.92,1281.48 1147.94,1283.39 1175.96,1285.51 1203.98,1287.83 1232,1290.33 
  1260.02,1292.99 1288.04,1295.79 1316.06,1298.72 1344.08,1301.77 1372.09,1304.92 1400.11,1308.16 1428.13,1311.48 1456.15,1314.86 1484.17,1318.3 1512.19,1321.78 
  1540.21,1325.29 1568.23,1328.83 1596.25,1332.39 1624.26,1335.96 1652.28,1339.54 1680.3,1343.11 1708.32,1346.67 1736.34,1350.22 1764.36,1353.74 1792.38,1357.24 
  1820.4,1360.72 1848.42,1364.16 1876.43,1367.56 1904.45,1370.92 1932.47,1374.24 1960.49,1377.52 1988.51,1380.75 2016.53,1383.92 2044.55,1387.05 2072.57,1390.13 
  2100.59,1393.14 2128.6,1396.11 2156.62,1399.02 2184.64,1401.87 2212.66,1404.66 2240.68,1407.39 2268.7,1410.07 2296.72,1412.68 2324.74,1415.24 2352.76,1417.74 
  
  "/>
<polyline clip-path="url(#clip542)" style="stroke:#00a9ad; stroke-width:4; stroke-opacity:1; fill:none" points="
  139.263,1495.9 167.282,1493.51 195.301,1489.81 223.32,1485.02 251.339,1479.31 279.357,1472.86 307.376,1465.81 335.395,1458.31 363.414,1450.47 391.433,1442.4 
  419.452,1434.2 447.471,1425.94 475.49,1417.7 503.509,1409.54 531.528,1401.52 559.546,1393.68 587.565,1386.07 615.584,1378.71 643.603,1371.65 671.622,1364.89 
  699.641,1358.47 727.66,1352.39 755.679,1346.66 783.698,1341.29 811.717,1336.29 839.735,1331.67 867.754,1327.4 895.773,1323.51 923.792,1319.98 951.811,1316.8 
  979.83,1313.98 1007.85,1311.49 1035.87,1309.34 1063.89,1307.52 1091.91,1306 1119.92,1304.79 1147.94,1303.86 1175.96,1303.22 1203.98,1302.84 1232,1302.72 
  1260.02,1302.84 1288.04,1303.19 1316.06,1303.75 1344.08,1304.53 1372.09,1305.5 1400.11,1306.65 1428.13,1307.97 1456.15,1309.46 1484.17,1311.09 1512.19,1312.86 
  1540.21,1314.77 1568.23,1316.79 1596.25,1318.92 1624.26,1321.15 1652.28,1323.47 1680.3,1325.87 1708.32,1328.35 1736.34,1330.89 1764.36,1333.49 1792.38,1336.14 
  1820.4,1338.84 1848.42,1341.58 1876.43,1344.35 1904.45,1347.14 1932.47,1349.96 1960.49,1352.79 1988.51,1355.63 2016.53,1358.47 2044.55,1361.32 2072.57,1364.16 
  2100.59,1367 2128.6,1369.83 2156.62,1372.64 2184.64,1375.44 2212.66,1378.21 2240.68,1380.97 2268.7,1383.7 2296.72,1386.4 2324.74,1389.07 2352.76,1391.71 
  
  "/>
<polyline clip-path="url(#clip542)" style="stroke:#ed5d92; stroke-width:4; stroke-opacity:1; fill:none" points="
  139.263,1496.64 167.282,1496.14 195.301,1495.14 223.32,1493.6 251.339,1491.51 279.357,1488.88 307.376,1485.74 335.395,1482.12 363.414,1478.07 391.433,1473.63 
  419.452,1468.84 447.471,1463.74 475.49,1458.4 503.509,1452.84 531.528,1447.12 559.546,1441.27 587.565,1435.34 615.584,1429.36 643.603,1423.37 671.622,1417.4 
  699.641,1411.48 727.66,1405.63 755.679,1399.89 783.698,1394.27 811.717,1388.79 839.735,1383.48 867.754,1378.34 895.773,1373.39 923.792,1368.65 951.811,1364.12 
  979.83,1359.81 1007.85,1355.73 1035.87,1351.88 1063.89,1348.27 1091.91,1344.89 1119.92,1341.76 1147.94,1338.87 1175.96,1336.21 1203.98,1333.79 1232,1331.61 
  1260.02,1329.67 1288.04,1327.94 1316.06,1326.45 1344.08,1325.17 1372.09,1324.11 1400.11,1323.25 1428.13,1322.6 1456.15,1322.14 1484.17,1321.87 1512.19,1321.78 
  1540.21,1321.86 1568.23,1322.12 1596.25,1322.53 1624.26,1323.1 1652.28,1323.82 1680.3,1324.67 1708.32,1325.66 1736.34,1326.77 1764.36,1328 1792.38,1329.34 
  1820.4,1330.79 1848.42,1332.33 1876.43,1333.97 1904.45,1335.69 1932.47,1337.49 1960.49,1339.36 1988.51,1341.3 2016.53,1343.31 2044.55,1345.36 2072.57,1347.47 
  2100.59,1349.63 2128.6,1351.82 2156.62,1354.05 2184.64,1356.32 2212.66,1358.61 2240.68,1360.92 2268.7,1363.25 2296.72,1365.6 2324.74,1367.96 2352.76,1370.33 
  
  "/>
<polyline clip-path="url(#clip542)" style="stroke:#c68125; stroke-width:4; stroke-opacity:1; fill:none" points="
  139.263,1496.74 167.282,1496.65 195.301,1496.41 223.32,1495.97 251.339,1495.3 279.357,1494.37 307.376,1493.15 335.395,1491.63 363.414,1489.81 391.433,1487.7 
  419.452,1485.29 447.471,1482.59 475.49,1479.63 503.509,1476.4 531.528,1472.95 559.546,1469.27 587.565,1465.39 615.584,1461.34 643.603,1457.14 671.622,1452.8 
  699.641,1448.35 727.66,1443.82 755.679,1439.22 783.698,1434.57 811.717,1429.9 839.735,1425.22 867.754,1420.55 895.773,1415.91 923.792,1411.31 951.811,1406.78 
  979.83,1402.32 1007.85,1397.95 1035.87,1393.68 1063.89,1389.52 1091.91,1385.48 1119.92,1381.57 1147.94,1377.81 1175.96,1374.18 1203.98,1370.71 1232,1367.4 
  1260.02,1364.24 1288.04,1361.26 1316.06,1358.44 1344.08,1355.79 1372.09,1353.31 1400.11,1351.01 1428.13,1348.88 1456.15,1346.92 1484.17,1345.13 1512.19,1343.51 
  1540.21,1342.06 1568.23,1340.78 1596.25,1339.66 1624.26,1338.71 1652.28,1337.91 1680.3,1337.26 1708.32,1336.77 1736.34,1336.42 1764.36,1336.21 1792.38,1336.14 
  1820.4,1336.21 1848.42,1336.41 1876.43,1336.73 1904.45,1337.17 1932.47,1337.72 1960.49,1338.39 1988.51,1339.16 2016.53,1340.03 2044.55,1341 2072.57,1342.06 
  2100.59,1343.21 2128.6,1344.44 2156.62,1345.75 2184.64,1347.13 2212.66,1348.58 2240.68,1350.09 2268.7,1351.66 2296.72,1353.29 2324.74,1354.97 2352.76,1356.7 
  
  "/>
<polyline clip-path="url(#clip542)" style="stroke:#00a98d; stroke-width:4; stroke-opacity:1; fill:none" points="
  139.263,1496.75 167.282,1496.74 195.301,1496.69 223.32,1496.58 251.339,1496.38 279.357,1496.08 307.376,1495.65 335.395,1495.08 363.414,1494.35 391.433,1493.45 
  419.452,1492.37 447.471,1491.1 475.49,1489.63 503.509,1487.97 531.528,1486.12 559.546,1484.07 587.565,1481.84 615.584,1479.43 643.603,1476.84 671.622,1474.08 
  699.641,1471.17 727.66,1468.12 755.679,1464.93 783.698,1461.62 811.717,1458.2 839.735,1454.68 867.754,1451.08 895.773,1447.41 923.792,1443.68 951.811,1439.91 
  979.83,1436.11 1007.85,1432.29 1035.87,1428.46 1063.89,1424.63 1091.91,1420.82 1119.92,1417.04 1147.94,1413.3 1175.96,1409.6 1203.98,1405.96 1232,1402.39 
  1260.02,1398.89 1288.04,1395.47 1316.06,1392.14 1344.08,1388.9 1372.09,1385.77 1400.11,1382.74 1428.13,1379.82 1456.15,1377.02 1484.17,1374.33 1512.19,1371.77 
  1540.21,1369.33 1568.23,1367.02 1596.25,1364.84 1624.26,1362.79 1652.28,1360.88 1680.3,1359.09 1708.32,1357.43 1736.34,1355.91 1764.36,1354.52 1792.38,1353.26 
  1820.4,1352.13 1848.42,1351.12 1876.43,1350.25 1904.45,1349.5 1932.47,1348.87 1960.49,1348.36 1988.51,1347.97 2016.53,1347.69 2044.55,1347.53 2072.57,1347.47 
  2100.59,1347.53 2128.6,1347.68 2156.62,1347.94 2184.64,1348.29 2212.66,1348.74 2240.68,1349.28 2268.7,1349.9 2296.72,1350.61 2324.74,1351.4 2352.76,1352.27 
  
  "/>
<polyline clip-path="url(#clip542)" style="stroke:#8e971d; stroke-width:4; stroke-opacity:1; fill:none" points="
  139.263,1496.76 167.282,1496.75 195.301,1496.74 223.32,1496.72 251.339,1496.67 279.357,1496.58 307.376,1496.44 335.395,1496.24 363.414,1495.97 391.433,1495.62 
  419.452,1495.18 447.471,1494.63 475.49,1493.97 503.509,1493.19 531.528,1492.29 559.546,1491.26 587.565,1490.09 615.584,1488.79 643.603,1487.35 671.622,1485.77 
  699.641,1484.05 727.66,1482.2 755.679,1480.21 783.698,1478.1 811.717,1475.86 839.735,1473.51 867.754,1471.04 895.773,1468.46 923.792,1465.78 951.811,1463.01 
  979.83,1460.16 1007.85,1457.23 1035.87,1454.24 1063.89,1451.18 1091.91,1448.07 1119.92,1444.92 1147.94,1441.74 1175.96,1438.53 1203.98,1435.31 1232,1432.08 
  1260.02,1428.84 1288.04,1425.62 1316.06,1422.41 1344.08,1419.22 1372.09,1416.07 1400.11,1412.95 1428.13,1409.88 1456.15,1406.85 1484.17,1403.89 1512.19,1400.98 
  1540.21,1398.14 1568.23,1395.37 1596.25,1392.68 1624.26,1390.07 1652.28,1387.55 1680.3,1385.11 1708.32,1382.76 1736.34,1380.51 1764.36,1378.35 1792.38,1376.3 
  1820.4,1374.34 1848.42,1372.48 1876.43,1370.73 1904.45,1369.08 1932.47,1367.54 1960.49,1366.1 1988.51,1364.77 2016.53,1363.54 2044.55,1362.42 2072.57,1361.4 
  2100.59,1360.48 2128.6,1359.67 2156.62,1358.96 2184.64,1358.35 2212.66,1357.84 2240.68,1357.42 2268.7,1357.1 2296.72,1356.88 2324.74,1356.75 2352.76,1356.7 
  
  "/>
<path clip-path="url(#clip540)" d="
M1853.68 776.064 L2278.04 776.064 L2278.04 110.784 L1853.68 110.784  Z
  " fill="#ffffff" fill-rule="evenodd" fill-opacity="1"/>
<polyline clip-path="url(#clip540)" style="stroke:#000000; stroke-width:4; stroke-opacity:1; fill:none" points="
  1853.68,776.064 2278.04,776.064 2278.04,110.784 1853.68,110.784 1853.68,776.064 
  "/>
<polyline clip-path="url(#clip540)" style="stroke:#009af9; stroke-width:4; stroke-opacity:1; fill:none" points="
  1878.58,171.264 2028.02,171.264 
  "/>
<g clip-path="url(#clip540)">
<text style="fill:#000000; fill-opacity:1; font-family:Arial,Helvetica Neue,Helvetica,sans-serif; font-size:48px; text-anchor:start;" transform="rotate(0, 2052.92, 188.764)" x="2052.92" y="188.764">dof = 1</text>
</g>
<polyline clip-path="url(#clip540)" style="stroke:#e26f46; stroke-width:4; stroke-opacity:1; fill:none" points="
  1878.58,231.744 2028.02,231.744 
  "/>
<g clip-path="url(#clip540)">
<text style="fill:#000000; fill-opacity:1; font-family:Arial,Helvetica Neue,Helvetica,sans-serif; font-size:48px; text-anchor:start;" transform="rotate(0, 2052.92, 249.244)" x="2052.92" y="249.244">dof = 2</text>
</g>
<polyline clip-path="url(#clip540)" style="stroke:#3da44d; stroke-width:4; stroke-opacity:1; fill:none" points="
  1878.58,292.224 2028.02,292.224 
  "/>
<g clip-path="url(#clip540)">
<text style="fill:#000000; fill-opacity:1; font-family:Arial,Helvetica Neue,Helvetica,sans-serif; font-size:48px; text-anchor:start;" transform="rotate(0, 2052.92, 309.724)" x="2052.92" y="309.724">dof = 3</text>
</g>
<polyline clip-path="url(#clip540)" style="stroke:#c271d2; stroke-width:4; stroke-opacity:1; fill:none" points="
  1878.58,352.704 2028.02,352.704 
  "/>
<g clip-path="url(#clip540)">
<text style="fill:#000000; fill-opacity:1; font-family:Arial,Helvetica Neue,Helvetica,sans-serif; font-size:48px; text-anchor:start;" transform="rotate(0, 2052.92, 370.204)" x="2052.92" y="370.204">dof = 4</text>
</g>
<polyline clip-path="url(#clip540)" style="stroke:#ac8d18; stroke-width:4; stroke-opacity:1; fill:none" points="
  1878.58,413.184 2028.02,413.184 
  "/>
<g clip-path="url(#clip540)">
<text style="fill:#000000; fill-opacity:1; font-family:Arial,Helvetica Neue,Helvetica,sans-serif; font-size:48px; text-anchor:start;" transform="rotate(0, 2052.92, 430.684)" x="2052.92" y="430.684">dof = 5</text>
</g>
<polyline clip-path="url(#clip540)" style="stroke:#00a9ad; stroke-width:4; stroke-opacity:1; fill:none" points="
  1878.58,473.664 2028.02,473.664 
  "/>
<g clip-path="url(#clip540)">
<text style="fill:#000000; fill-opacity:1; font-family:Arial,Helvetica Neue,Helvetica,sans-serif; font-size:48px; text-anchor:start;" transform="rotate(0, 2052.92, 491.164)" x="2052.92" y="491.164">dof = 6</text>
</g>
<polyline clip-path="url(#clip540)" style="stroke:#ed5d92; stroke-width:4; stroke-opacity:1; fill:none" points="
  1878.58,534.144 2028.02,534.144 
  "/>
<g clip-path="url(#clip540)">
<text style="fill:#000000; fill-opacity:1; font-family:Arial,Helvetica Neue,Helvetica,sans-serif; font-size:48px; text-anchor:start;" transform="rotate(0, 2052.92, 551.644)" x="2052.92" y="551.644">dof = 7</text>
</g>
<polyline clip-path="url(#clip540)" style="stroke:#c68125; stroke-width:4; stroke-opacity:1; fill:none" points="
  1878.58,594.624 2028.02,594.624 
  "/>
<g clip-path="url(#clip540)">
<text style="fill:#000000; fill-opacity:1; font-family:Arial,Helvetica Neue,Helvetica,sans-serif; font-size:48px; text-anchor:start;" transform="rotate(0, 2052.92, 612.124)" x="2052.92" y="612.124">dof = 8</text>
</g>
<polyline clip-path="url(#clip540)" style="stroke:#00a98d; stroke-width:4; stroke-opacity:1; fill:none" points="
  1878.58,655.104 2028.02,655.104 
  "/>
<g clip-path="url(#clip540)">
<text style="fill:#000000; fill-opacity:1; font-family:Arial,Helvetica Neue,Helvetica,sans-serif; font-size:48px; text-anchor:start;" transform="rotate(0, 2052.92, 672.604)" x="2052.92" y="672.604">dof = 9</text>
</g>
<polyline clip-path="url(#clip540)" style="stroke:#8e971d; stroke-width:4; stroke-opacity:1; fill:none" points="
  1878.58,715.584 2028.02,715.584 
  "/>
<g clip-path="url(#clip540)">
<text style="fill:#000000; fill-opacity:1; font-family:Arial,Helvetica Neue,Helvetica,sans-serif; font-size:48px; text-anchor:start;" transform="rotate(0, 2052.92, 733.084)" x="2052.92" y="733.084">dof = 10</text>
</g>
</svg>
