<?xml version="1.0" encoding="utf-8"?>
<svg xmlns="http://www.w3.org/2000/svg" xmlns:xlink="http://www.w3.org/1999/xlink" width="600" height="400" viewBox="0 0 2400 1600">
<defs>
  <clipPath id="clip290">
    <rect x="0" y="0" width="2400" height="1600"/>
  </clipPath>
</defs>
<path clip-path="url(#clip290)" d="
M0 1600 L2400 1600 L2400 0 L0 0  Z
  " fill="#ffffff" fill-rule="evenodd" fill-opacity="1"/>
<defs>
  <clipPath id="clip291">
    <rect x="480" y="0" width="1681" height="1600"/>
  </clipPath>
</defs>
<path clip-path="url(#clip290)" d="
M86.9921 1521.01 L2352.76 1521.01 L2352.76 47.2441 L86.9921 47.2441  Z
  " fill="#ffffff" fill-rule="evenodd" fill-opacity="1"/>
<defs>
  <clipPath id="clip292">
    <rect x="86" y="47" width="2267" height="1475"/>
  </clipPath>
</defs>
<polyline clip-path="url(#clip292)" style="stroke:#000000; stroke-width:2; stroke-opacity:0.1; fill:none" points="
  364.869,1521.01 364.869,47.2441 
  "/>
<polyline clip-path="url(#clip292)" style="stroke:#000000; stroke-width:2; stroke-opacity:0.1; fill:none" points="
  792.371,1521.01 792.371,47.2441 
  "/>
<polyline clip-path="url(#clip292)" style="stroke:#000000; stroke-width:2; stroke-opacity:0.1; fill:none" points="
  1219.87,1521.01 1219.87,47.2441 
  "/>
<polyline clip-path="url(#clip292)" style="stroke:#000000; stroke-width:2; stroke-opacity:0.1; fill:none" points="
  1647.38,1521.01 1647.38,47.2441 
  "/>
<polyline clip-path="url(#clip292)" style="stroke:#000000; stroke-width:2; stroke-opacity:0.1; fill:none" points="
  2074.88,1521.01 2074.88,47.2441 
  "/>
<polyline clip-path="url(#clip290)" style="stroke:#000000; stroke-width:4; stroke-opacity:1; fill:none" points="
  86.9921,1521.01 2352.76,1521.01 
  "/>
<polyline clip-path="url(#clip290)" style="stroke:#000000; stroke-width:4; stroke-opacity:1; fill:none" points="
  364.869,1521.01 364.869,1503.32 
  "/>
<polyline clip-path="url(#clip290)" style="stroke:#000000; stroke-width:4; stroke-opacity:1; fill:none" points="
  792.371,1521.01 792.371,1503.32 
  "/>
<polyline clip-path="url(#clip290)" style="stroke:#000000; stroke-width:4; stroke-opacity:1; fill:none" points="
  1219.87,1521.01 1219.87,1503.32 
  "/>
<polyline clip-path="url(#clip290)" style="stroke:#000000; stroke-width:4; stroke-opacity:1; fill:none" points="
  1647.38,1521.01 1647.38,1503.32 
  "/>
<polyline clip-path="url(#clip290)" style="stroke:#000000; stroke-width:4; stroke-opacity:1; fill:none" points="
  2074.88,1521.01 2074.88,1503.32 
  "/>
<g clip-path="url(#clip290)">
<text style="fill:#000000; fill-opacity:1; font-family:Arial,Helvetica Neue,Helvetica,sans-serif; font-size:48px; text-anchor:middle;" transform="rotate(0, 364.869, 1582.21)" x="364.869" y="1582.21">−4</text>
</g>
<g clip-path="url(#clip290)">
<text style="fill:#000000; fill-opacity:1; font-family:Arial,Helvetica Neue,Helvetica,sans-serif; font-size:48px; text-anchor:middle;" transform="rotate(0, 792.371, 1582.21)" x="792.371" y="1582.21">−2</text>
</g>
<g clip-path="url(#clip290)">
<text style="fill:#000000; fill-opacity:1; font-family:Arial,Helvetica Neue,Helvetica,sans-serif; font-size:48px; text-anchor:middle;" transform="rotate(0, 1219.87, 1582.21)" x="1219.87" y="1582.21">0</text>
</g>
<g clip-path="url(#clip290)">
<text style="fill:#000000; fill-opacity:1; font-family:Arial,Helvetica Neue,Helvetica,sans-serif; font-size:48px; text-anchor:middle;" transform="rotate(0, 1647.38, 1582.21)" x="1647.38" y="1582.21">2</text>
</g>
<g clip-path="url(#clip290)">
<text style="fill:#000000; fill-opacity:1; font-family:Arial,Helvetica Neue,Helvetica,sans-serif; font-size:48px; text-anchor:middle;" transform="rotate(0, 2074.88, 1582.21)" x="2074.88" y="1582.21">4</text>
</g>
<polyline clip-path="url(#clip292)" style="stroke:#000000; stroke-width:2; stroke-opacity:0.1; fill:none" points="
  86.9921,1479.3 2352.76,1479.3 
  "/>
<polyline clip-path="url(#clip292)" style="stroke:#000000; stroke-width:2; stroke-opacity:0.1; fill:none" points="
  86.9921,1130.69 2352.76,1130.69 
  "/>
<polyline clip-path="url(#clip292)" style="stroke:#000000; stroke-width:2; stroke-opacity:0.1; fill:none" points="
  86.9921,782.073 2352.76,782.073 
  "/>
<polyline clip-path="url(#clip292)" style="stroke:#000000; stroke-width:2; stroke-opacity:0.1; fill:none" points="
  86.9921,433.458 2352.76,433.458 
  "/>
<polyline clip-path="url(#clip292)" style="stroke:#000000; stroke-width:2; stroke-opacity:0.1; fill:none" points="
  86.9921,84.8436 2352.76,84.8436 
  "/>
<polyline clip-path="url(#clip290)" style="stroke:#000000; stroke-width:4; stroke-opacity:1; fill:none" points="
  86.9921,1521.01 86.9921,47.2441 
  "/>
<polyline clip-path="url(#clip290)" style="stroke:#000000; stroke-width:4; stroke-opacity:1; fill:none" points="
  86.9921,1479.3 114.181,1479.3 
  "/>
<polyline clip-path="url(#clip290)" style="stroke:#000000; stroke-width:4; stroke-opacity:1; fill:none" points="
  86.9921,1130.69 114.181,1130.69 
  "/>
<polyline clip-path="url(#clip290)" style="stroke:#000000; stroke-width:4; stroke-opacity:1; fill:none" points="
  86.9921,782.073 114.181,782.073 
  "/>
<polyline clip-path="url(#clip290)" style="stroke:#000000; stroke-width:4; stroke-opacity:1; fill:none" points="
  86.9921,433.458 114.181,433.458 
  "/>
<polyline clip-path="url(#clip290)" style="stroke:#000000; stroke-width:4; stroke-opacity:1; fill:none" points="
  86.9921,84.8436 114.181,84.8436 
  "/>
<g clip-path="url(#clip290)">
<text style="fill:#000000; fill-opacity:1; font-family:Arial,Helvetica Neue,Helvetica,sans-serif; font-size:48px; text-anchor:end;" transform="rotate(0, 50.9921, 1496.8)" x="50.9921" y="1496.8">0.0</text>
</g>
<g clip-path="url(#clip290)">
<text style="fill:#000000; fill-opacity:1; font-family:Arial,Helvetica Neue,Helvetica,sans-serif; font-size:48px; text-anchor:end;" transform="rotate(0, 50.9921, 1148.19)" x="50.9921" y="1148.19">0.1</text>
</g>
<g clip-path="url(#clip290)">
<text style="fill:#000000; fill-opacity:1; font-family:Arial,Helvetica Neue,Helvetica,sans-serif; font-size:48px; text-anchor:end;" transform="rotate(0, 50.9921, 799.573)" x="50.9921" y="799.573">0.2</text>
</g>
<g clip-path="url(#clip290)">
<text style="fill:#000000; fill-opacity:1; font-family:Arial,Helvetica Neue,Helvetica,sans-serif; font-size:48px; text-anchor:end;" transform="rotate(0, 50.9921, 450.958)" x="50.9921" y="450.958">0.3</text>
</g>
<g clip-path="url(#clip290)">
<text style="fill:#000000; fill-opacity:1; font-family:Arial,Helvetica Neue,Helvetica,sans-serif; font-size:48px; text-anchor:end;" transform="rotate(0, 50.9921, 102.344)" x="50.9921" y="102.344">0.4</text>
</g>
<polyline clip-path="url(#clip292)" style="stroke:#009af9; stroke-width:4; stroke-opacity:1; fill:none" points="
  151.118,1479.3 171.992,1479.29 365.008,1478.83 481.002,1475.77 579.074,1463.75 632.34,1447.49 685.607,1418.12 710.16,1398.3 734.714,1373.48 759.268,1342.86 
  783.821,1305.69 810.145,1257.79 836.469,1200.94 862.793,1134.75 889.117,1059.24 919.616,960.764 950.115,852.103 980.614,735.961 1011.11,616.066 1038.22,510.084 
  1065.32,408.448 1092.42,315.024 1119.53,233.64 1143.3,174.978 1167.06,130.336 1190.83,101.309 1214.6,88.9544 1227.56,89.4289 1240.51,94.9987 1253.47,105.603 
  1266.43,121.125 1292.34,166.199 1318.25,228.299 1344.32,305.342 1370.39,393.904 1396.45,490.598 1422.52,591.973 1480.16,816.682 1537.8,1019.19 1565.22,1102.23 
  1592.65,1175.33 1620.07,1238.26 1647.49,1291.28 1676,1336.6 1704.52,1372.9 1733.03,1401.36 1761.54,1423.22 1809.54,1448.35 1857.55,1463.06 1974.76,1476.58 
  2084.94,1478.92 2261.46,1479.29 2288.63,1479.3 
  "/>
<polyline clip-path="url(#clip292)" style="stroke:#e26f46; stroke-width:4; stroke-opacity:1; fill:none" stroke-dasharray="16, 10" points="
  151.118,1436.62 171.992,1434.97 365.008,1414.01 481.002,1393.61 579.074,1368.19 632.34,1349.6 685.607,1326.19 734.714,1298.92 783.821,1264.32 810.145,1241.9 
  836.469,1216.18 862.793,1186.57 889.117,1152.39 919.616,1106.08 950.115,1051.3 980.614,986.752 1011.11,911.36 1038.22,834.985 1065.32,750.597 1092.42,660.665 
  1119.53,570.018 1143.3,495.851 1167.06,433.465 1178.95,408.869 1190.83,389.741 1202.72,376.732 1214.6,370.303 1227.56,371.059 1240.51,379.877 1253.47,396.378 
  1266.43,419.876 1279.38,449.447 1292.34,484.016 1305.3,522.442 1318.25,563.597 1344.32,650.538 1370.39,737.453 1396.45,819.738 1422.52,894.892 1451.34,968.55 
  1480.16,1032.36 1508.98,1087.1 1537.8,1133.86 1565.22,1171.95 1592.65,1204.72 1620.07,1233 1647.49,1257.46 1704.52,1298.6 1761.54,1329.78 1809.54,1350.42 
  1857.55,1367.21 1974.76,1396.94 2084.94,1415.45 2261.46,1434.46 2288.63,1436.62 
  "/>
<polyline clip-path="url(#clip292)" style="stroke:#3da44d; stroke-width:4; stroke-opacity:1; fill:none" stroke-dasharray="16, 10" points="
  151.118,1454.45 171.992,1453.06 365.008,1433.63 481.002,1412.38 579.074,1383.58 632.34,1361.28 685.607,1332.12 734.714,1297.03 783.821,1251.37 810.145,1221.39 
  836.469,1186.77 862.793,1146.84 889.117,1100.87 919.616,1039.12 950.115,967.368 980.614,885.098 1011.11,792.609 1065.32,609.3 1119.53,425.634 1131.41,389.686 
  1143.3,356.555 1155.18,326.84 1167.06,301.111 1178.95,279.891 1190.83,263.634 1202.72,252.696 1214.6,247.326 1227.56,247.956 1240.51,255.331 1253.47,269.251 
  1266.43,289.343 1279.38,315.09 1292.34,345.855 1305.3,380.918 1318.25,419.513 1370.39,595.154 1422.52,772.953 1451.34,862.4 1480.16,942.952 1508.98,1014.09 
  1537.8,1076.06 1565.22,1127.14 1592.65,1171.32 1620.07,1209.42 1647.49,1242.23 1704.52,1296.61 1761.54,1336.66 1809.54,1362.29 1857.55,1382.43 1974.76,1415.98 
  2084.94,1435.06 2261.46,1452.62 2288.63,1454.45 
  "/>
<polyline clip-path="url(#clip292)" style="stroke:#c271d2; stroke-width:4; stroke-opacity:1; fill:none" stroke-dasharray="16, 10" points="
  151.118,1464.59 171.992,1463.52 365.008,1447.34 481.002,1427.7 579.074,1399.05 632.34,1375.8 685.607,1344.45 734.714,1305.76 783.821,1254.46 810.145,1220.42 
  836.469,1180.97 862.793,1135.39 889.117,1083.01 919.616,1013.03 950.115,932.574 980.614,841.724 1011.11,741.624 1065.32,550.056 1119.53,367.333 1131.41,332.628 
  1143.3,300.943 1155.18,272.766 1167.06,248.553 1178.95,228.711 1190.83,213.585 1202.72,203.447 1214.6,198.48 1227.56,199.063 1240.51,205.887 1253.47,218.803 
  1266.43,237.535 1279.38,261.688 1292.34,290.77 1305.3,324.215 1318.25,361.4 1370.39,535.657 1422.52,720.643 1451.34,816.952 1480.16,905.445 1508.98,984.849 
  1537.8,1054.83 1565.22,1112.93 1592.65,1163.34 1620.07,1206.8 1647.49,1244.1 1704.52,1305.29 1761.54,1349.39 1809.54,1376.87 1857.55,1397.86 1974.76,1431.13 
  2084.94,1448.59 2261.46,1463.18 2288.63,1464.59 
  "/>
<polyline clip-path="url(#clip292)" style="stroke:#ac8d18; stroke-width:4; stroke-opacity:1; fill:none" stroke-dasharray="16, 10" points="
  151.118,1470.07 171.992,1469.25 365.008,1455.9 481.002,1438.12 579.074,1410.48 632.34,1387.13 685.607,1354.85 734.714,1314.19 783.821,1259.47 810.145,1222.9 
  836.469,1180.36 862.793,1131.18 889.117,1074.7 919.616,999.559 950.115,913.75 980.614,817.809 1011.11,713.407 1065.32,517.673 1119.53,336.036 1131.41,302.089 
  1143.3,271.248 1155.18,243.943 1167.06,220.569 1178.95,201.477 1190.83,186.96 1202.72,177.248 1214.6,172.495 1227.56,173.052 1240.51,179.584 1253.47,191.964 
  1266.43,209.961 1279.38,233.238 1292.34,261.377 1305.3,293.886 1318.25,330.22 1370.39,503.18 1422.52,691.706 1451.34,791.841 1480.16,884.988 1508.98,969.418 
  1537.8,1044.39 1565.22,1106.94 1592.65,1161.34 1620.07,1208.22 1647.49,1248.36 1704.52,1313.7 1761.54,1359.99 1809.54,1388.22 1857.55,1409.31 1974.76,1441.31 
  2084.94,1456.99 2261.46,1468.99 2288.63,1470.07 
  "/>
<polyline clip-path="url(#clip292)" style="stroke:#00a9ad; stroke-width:4; stroke-opacity:1; fill:none" stroke-dasharray="16, 10" points="
  151.118,1473.18 171.992,1472.54 365.008,1461.43 481.002,1445.33 579.074,1418.85 632.34,1395.72 685.607,1363.04 734.714,1321.19 783.821,1264.19 810.145,1225.86 
  836.469,1181.18 862.793,1129.47 889.117,1070.16 919.616,991.445 950.115,902.005 980.614,802.687 1011.11,695.52 1038.22,596.447 1065.32,497.304 1092.42,402.376 
  1119.53,316.562 1131.41,283.121 1143.3,252.831 1155.18,226.086 1167.06,203.245 1178.95,184.624 1190.83,170.488 1202.72,161.041 1214.6,156.421 1227.56,156.963 
  1240.51,163.313 1253.47,175.359 1266.43,192.895 1279.38,215.619 1292.34,243.155 1305.3,275.056 1318.25,310.826 1344.32,392.322 1370.39,482.77 1396.45,577.761 
  1422.52,673.368 1451.34,775.94 1480.16,872.151 1508.98,959.969 1537.8,1038.37 1565.22,1104.01 1592.65,1161.18 1620.07,1210.45 1647.49,1252.55 1676,1289.6 
  1704.52,1320.67 1733.03,1346.64 1761.54,1368.28 1809.54,1396.81 1857.55,1417.7 1974.76,1448.29 2084.94,1462.37 2261.46,1472.34 2288.63,1473.18 
  "/>
<polyline clip-path="url(#clip292)" style="stroke:#ed5d92; stroke-width:4; stroke-opacity:1; fill:none" stroke-dasharray="16, 10" points="
  151.118,1475.05 171.992,1474.55 365.008,1465.16 481.002,1450.49 579.074,1425.13 632.34,1402.32 685.607,1369.5 734.714,1326.87 783.821,1268.24 810.145,1228.63 
  836.469,1182.38 862.793,1128.8 889.117,1067.39 919.616,986.065 950.115,893.995 980.614,792.272 1011.11,683.177 1038.22,582.969 1065.32,483.322 1092.42,388.507 
  1119.53,303.293 1131.41,270.212 1143.3,240.309 1155.18,213.954 1167.06,191.481 1178.95,173.185 1190.83,159.309 1202.72,150.043 1214.6,145.514 1227.56,146.045 
  1240.51,152.27 1253.47,164.089 1266.43,181.308 1279.38,203.652 1292.34,230.769 1305.3,262.244 1318.25,297.613 1344.32,378.499 1370.39,468.768 1396.45,564.139 
  1422.52,660.716 1451.34,764.977 1480.16,863.358 1508.98,953.618 1537.8,1034.52 1565.22,1102.43 1592.65,1161.65 1620.07,1212.68 1647.49,1256.23 1676,1294.43 
  1704.52,1326.34 1733.03,1352.86 1761.54,1374.8 1809.54,1403.4 1857.55,1424.01 1974.76,1453.24 2084.94,1465.99 2261.46,1474.38 2288.63,1475.05 
  "/>
<polyline clip-path="url(#clip292)" style="stroke:#c68125; stroke-width:4; stroke-opacity:1; fill:none" stroke-dasharray="16, 10" points="
  151.118,1476.23 171.992,1475.83 365.008,1467.78 481.002,1454.31 579.074,1429.98 632.34,1407.5 685.607,1374.67 734.714,1331.52 783.821,1271.68 810.145,1231.09 
  836.469,1183.61 862.793,1128.61 889.117,1065.58 919.616,982.253 950.115,888.19 980.614,784.664 1011.11,674.148 1038.22,573.124 1065.32,473.135 1092.42,378.43 
  1119.53,293.675 1131.41,260.864 1143.3,231.248 1155.18,205.179 1167.06,182.976 1178.95,164.917 1190.83,151.231 1202.72,142.096 1214.6,137.633 1227.56,138.156 
  1240.51,144.292 1253.47,155.945 1266.43,172.933 1279.38,194.998 1292.34,221.808 1305.3,252.969 1318.25,288.038 1344.32,368.459 1370.39,458.57 1396.45,554.193 
  1422.52,651.464 1451.34,756.962 1480.16,856.963 1508.98,949.067 1537.8,1031.88 1565.22,1101.53 1592.65,1162.33 1620.07,1214.72 1647.49,1259.37 1676,1298.45 
  1704.52,1330.98 1733.03,1357.87 1761.54,1380 1809.54,1408.58 1857.55,1428.88 1974.76,1456.89 2084.94,1468.52 2261.46,1475.7 2288.63,1476.23 
  "/>
<polyline clip-path="url(#clip292)" style="stroke:#00a98d; stroke-width:4; stroke-opacity:1; fill:none" stroke-dasharray="16, 10" points="
  151.118,1477.01 171.992,1476.68 365.008,1469.68 481.002,1457.22 579.074,1433.8 632.34,1411.67 685.607,1378.88 734.714,1335.36 783.821,1274.58 810.145,1233.22 
  836.469,1184.78 862.793,1128.63 889.117,1064.33 919.616,979.42 950.115,883.791 980.614,778.864 1011.11,667.259 1038.22,565.619 1065.32,465.385 1092.42,370.78 
  1119.53,286.387 1131.41,253.784 1143.3,224.39 1155.18,198.541 1167.06,176.544 1178.95,158.665 1190.83,145.123 1202.72,136.088 1214.6,131.674 1227.56,132.192 
  1240.51,138.26 1253.47,149.786 1266.43,166.6 1279.38,188.452 1292.34,215.026 1305.3,245.945 1318.25,280.783 1344.32,360.838 1370.39,450.814 1396.45,546.614 
  1422.52,644.405 1451.34,750.85 1480.16,852.105 1508.98,945.652 1537.8,1029.97 1565.22,1101 1592.65,1163.06 1620.07,1216.53 1647.49,1262.05 1676,1301.82 
  1704.52,1334.81 1733.03,1361.99 1761.54,1384.23 1809.54,1412.73 1857.55,1432.73 1974.76,1459.65 2084.94,1470.35 2261.46,1476.57 2288.63,1477.01 
  "/>
<polyline clip-path="url(#clip292)" style="stroke:#8e971d; stroke-width:4; stroke-opacity:1; fill:none" stroke-dasharray="16, 10" points="
  151.118,1477.54 171.992,1477.27 365.008,1471.11 481.002,1459.5 579.074,1436.88 632.34,1415.07 685.607,1382.37 734.714,1338.57 783.821,1277.05 810.145,1235.07 
  836.469,1185.85 862.793,1128.77 889.117,1063.42 919.616,977.234 950.115,880.345 980.614,774.298 1011.11,661.83 1038.22,559.71 1065.32,459.291 1092.42,364.775 
  1119.53,280.675 1131.41,248.238 1143.3,219.019 1155.18,193.344 1167.06,171.51 1178.95,153.773 1190.83,140.344 1202.72,131.388 1214.6,127.013 1227.56,127.526 
  1240.51,133.54 1253.47,144.968 1266.43,161.644 1279.38,183.328 1292.34,209.716 1305.3,240.443 1318.25,275.097 1344.32,354.857 1370.39,444.717 1396.45,540.648 
  1422.52,638.842 1451.34,746.034 1480.16,848.29 1508.98,942.998 1537.8,1028.53 1565.22,1100.69 1592.65,1163.77 1620.07,1218.11 1647.49,1264.34 1676,1304.66 
  1704.52,1338.03 1733.03,1365.41 1761.54,1387.73 1809.54,1416.13 1857.55,1435.83 1974.76,1461.8 2084.94,1471.72 2261.46,1477.18 2288.63,1477.54 
  "/>
<polyline clip-path="url(#clip292)" style="stroke:#00a8cb; stroke-width:4; stroke-opacity:1; fill:none" stroke-dasharray="16, 10" points="
  151.118,1477.92 171.992,1477.69 365.008,1472.21 481.002,1461.33 579.074,1439.41 632.34,1417.9 685.607,1385.31 734.714,1341.3 783.821,1279.18 810.145,1236.68 
  836.469,1186.8 862.793,1128.96 889.117,1062.75 919.616,975.5 950.115,877.573 980.614,770.609 1011.11,657.441 1038.22,554.936 1065.32,454.374 1092.42,359.936 
  1119.53,276.077 1131.41,243.776 1143.3,214.7 1155.18,189.166 1167.06,167.464 1178.95,149.841 1190.83,136.504 1202.72,127.611 1214.6,123.268 1227.56,123.777 
  1240.51,129.748 1253.47,141.096 1266.43,157.66 1279.38,179.209 1292.34,205.447 1305.3,236.018 1318.25,270.521 1344.32,350.038 1370.39,439.799 1396.45,535.829 
  1422.52,634.345 1451.34,742.143 1480.16,845.216 1508.98,940.877 1537.8,1027.41 1565.22,1100.5 1592.65,1164.43 1620.07,1219.5 1647.49,1266.32 1676,1307.09 
  1704.52,1340.75 1733.03,1368.3 1761.54,1390.66 1809.54,1418.95 1857.55,1438.39 1974.76,1463.51 2084.94,1472.76 2261.46,1477.62 2288.63,1477.92 
  "/>
<path clip-path="url(#clip290)" d="
M1878.29 822.13 L2277.23 822.13 L2277.23 96.3696 L1878.29 96.3696  Z
  " fill="#ffffff" fill-rule="evenodd" fill-opacity="1"/>
<polyline clip-path="url(#clip290)" style="stroke:#000000; stroke-width:4; stroke-opacity:1; fill:none" points="
  1878.29,822.13 2277.23,822.13 2277.23,96.3696 1878.29,96.3696 1878.29,822.13 
  "/>
<polyline clip-path="url(#clip290)" style="stroke:#009af9; stroke-width:4; stroke-opacity:1; fill:none" points="
  1903.46,156.85 2054.51,156.85 
  "/>
<g clip-path="url(#clip290)">
<text style="fill:#000000; fill-opacity:1; font-family:Arial,Helvetica Neue,Helvetica,sans-serif; font-size:48px; text-anchor:start;" transform="rotate(0, 2079.69, 174.35)" x="2079.69" y="174.35">正規分布</text>
</g>
<polyline clip-path="url(#clip290)" style="stroke:#e26f46; stroke-width:4; stroke-opacity:1; fill:none" stroke-dasharray="16, 10" points="
  1903.46,217.33 2054.51,217.33 
  "/>
<g clip-path="url(#clip290)">
<text style="fill:#000000; fill-opacity:1; font-family:Arial,Helvetica Neue,Helvetica,sans-serif; font-size:48px; text-anchor:start;" transform="rotate(0, 2079.69, 234.83)" x="2079.69" y="234.83">dof: 1</text>
</g>
<polyline clip-path="url(#clip290)" style="stroke:#3da44d; stroke-width:4; stroke-opacity:1; fill:none" stroke-dasharray="16, 10" points="
  1903.46,277.81 2054.51,277.81 
  "/>
<g clip-path="url(#clip290)">
<text style="fill:#000000; fill-opacity:1; font-family:Arial,Helvetica Neue,Helvetica,sans-serif; font-size:48px; text-anchor:start;" transform="rotate(0, 2079.69, 295.31)" x="2079.69" y="295.31">dof: 2</text>
</g>
<polyline clip-path="url(#clip290)" style="stroke:#c271d2; stroke-width:4; stroke-opacity:1; fill:none" stroke-dasharray="16, 10" points="
  1903.46,338.29 2054.51,338.29 
  "/>
<g clip-path="url(#clip290)">
<text style="fill:#000000; fill-opacity:1; font-family:Arial,Helvetica Neue,Helvetica,sans-serif; font-size:48px; text-anchor:start;" transform="rotate(0, 2079.69, 355.79)" x="2079.69" y="355.79">dof: 3</text>
</g>
<polyline clip-path="url(#clip290)" style="stroke:#ac8d18; stroke-width:4; stroke-opacity:1; fill:none" stroke-dasharray="16, 10" points="
  1903.46,398.77 2054.51,398.77 
  "/>
<g clip-path="url(#clip290)">
<text style="fill:#000000; fill-opacity:1; font-family:Arial,Helvetica Neue,Helvetica,sans-serif; font-size:48px; text-anchor:start;" transform="rotate(0, 2079.69, 416.27)" x="2079.69" y="416.27">dof: 4</text>
</g>
<polyline clip-path="url(#clip290)" style="stroke:#00a9ad; stroke-width:4; stroke-opacity:1; fill:none" stroke-dasharray="16, 10" points="
  1903.46,459.25 2054.51,459.25 
  "/>
<g clip-path="url(#clip290)">
<text style="fill:#000000; fill-opacity:1; font-family:Arial,Helvetica Neue,Helvetica,sans-serif; font-size:48px; text-anchor:start;" transform="rotate(0, 2079.69, 476.75)" x="2079.69" y="476.75">dof: 5</text>
</g>
<polyline clip-path="url(#clip290)" style="stroke:#ed5d92; stroke-width:4; stroke-opacity:1; fill:none" stroke-dasharray="16, 10" points="
  1903.46,519.73 2054.51,519.73 
  "/>
<g clip-path="url(#clip290)">
<text style="fill:#000000; fill-opacity:1; font-family:Arial,Helvetica Neue,Helvetica,sans-serif; font-size:48px; text-anchor:start;" transform="rotate(0, 2079.69, 537.23)" x="2079.69" y="537.23">dof: 6</text>
</g>
<polyline clip-path="url(#clip290)" style="stroke:#c68125; stroke-width:4; stroke-opacity:1; fill:none" stroke-dasharray="16, 10" points="
  1903.46,580.21 2054.51,580.21 
  "/>
<g clip-path="url(#clip290)">
<text style="fill:#000000; fill-opacity:1; font-family:Arial,Helvetica Neue,Helvetica,sans-serif; font-size:48px; text-anchor:start;" transform="rotate(0, 2079.69, 597.71)" x="2079.69" y="597.71">dof: 7</text>
</g>
<polyline clip-path="url(#clip290)" style="stroke:#00a98d; stroke-width:4; stroke-opacity:1; fill:none" stroke-dasharray="16, 10" points="
  1903.46,640.69 2054.51,640.69 
  "/>
<g clip-path="url(#clip290)">
<text style="fill:#000000; fill-opacity:1; font-family:Arial,Helvetica Neue,Helvetica,sans-serif; font-size:48px; text-anchor:start;" transform="rotate(0, 2079.69, 658.19)" x="2079.69" y="658.19">dof: 8</text>
</g>
<polyline clip-path="url(#clip290)" style="stroke:#8e971d; stroke-width:4; stroke-opacity:1; fill:none" stroke-dasharray="16, 10" points="
  1903.46,701.17 2054.51,701.17 
  "/>
<g clip-path="url(#clip290)">
<text style="fill:#000000; fill-opacity:1; font-family:Arial,Helvetica Neue,Helvetica,sans-serif; font-size:48px; text-anchor:start;" transform="rotate(0, 2079.69, 718.67)" x="2079.69" y="718.67">dof: 9</text>
</g>
<polyline clip-path="url(#clip290)" style="stroke:#00a8cb; stroke-width:4; stroke-opacity:1; fill:none" stroke-dasharray="16, 10" points="
  1903.46,761.65 2054.51,761.65 
  "/>
<g clip-path="url(#clip290)">
<text style="fill:#000000; fill-opacity:1; font-family:Arial,Helvetica Neue,Helvetica,sans-serif; font-size:48px; text-anchor:start;" transform="rotate(0, 2079.69, 779.15)" x="2079.69" y="779.15">dof: 10</text>
</g>
</svg>
