<?xml version="1.0" encoding="utf-8"?>
<svg xmlns="http://www.w3.org/2000/svg" xmlns:xlink="http://www.w3.org/1999/xlink" width="600" height="400" viewBox="0 0 2400 1600">
<defs>
  <clipPath id="clip660">
    <rect x="0" y="0" width="2400" height="1600"/>
  </clipPath>
</defs>
<path clip-path="url(#clip660)" d="
M0 1600 L2400 1600 L2400 0 L0 0  Z
  " fill="#ffffff" fill-rule="evenodd" fill-opacity="1"/>
<defs>
  <clipPath id="clip661">
    <rect x="480" y="0" width="1681" height="1600"/>
  </clipPath>
</defs>
<path clip-path="url(#clip660)" d="
M126.992 1481.01 L2352.76 1481.01 L2352.76 47.2441 L126.992 47.2441  Z
  " fill="#ffffff" fill-rule="evenodd" fill-opacity="1"/>
<defs>
  <clipPath id="clip662">
    <rect x="126" y="47" width="2227" height="1435"/>
  </clipPath>
</defs>
<polyline clip-path="url(#clip662)" style="stroke:#000000; stroke-width:2; stroke-opacity:0.1; fill:none" points="
  189.985,1481.01 189.985,47.2441 
  "/>
<polyline clip-path="url(#clip662)" style="stroke:#000000; stroke-width:2; stroke-opacity:0.1; fill:none" points="
  714.93,1481.01 714.93,47.2441 
  "/>
<polyline clip-path="url(#clip662)" style="stroke:#000000; stroke-width:2; stroke-opacity:0.1; fill:none" points="
  1239.87,1481.01 1239.87,47.2441 
  "/>
<polyline clip-path="url(#clip662)" style="stroke:#000000; stroke-width:2; stroke-opacity:0.1; fill:none" points="
  1764.82,1481.01 1764.82,47.2441 
  "/>
<polyline clip-path="url(#clip662)" style="stroke:#000000; stroke-width:2; stroke-opacity:0.1; fill:none" points="
  2289.76,1481.01 2289.76,47.2441 
  "/>
<polyline clip-path="url(#clip660)" style="stroke:#000000; stroke-width:4; stroke-opacity:1; fill:none" points="
  126.992,1481.01 2352.76,1481.01 
  "/>
<polyline clip-path="url(#clip660)" style="stroke:#000000; stroke-width:4; stroke-opacity:1; fill:none" points="
  189.985,1481.01 189.985,1463.8 
  "/>
<polyline clip-path="url(#clip660)" style="stroke:#000000; stroke-width:4; stroke-opacity:1; fill:none" points="
  714.93,1481.01 714.93,1463.8 
  "/>
<polyline clip-path="url(#clip660)" style="stroke:#000000; stroke-width:4; stroke-opacity:1; fill:none" points="
  1239.87,1481.01 1239.87,1463.8 
  "/>
<polyline clip-path="url(#clip660)" style="stroke:#000000; stroke-width:4; stroke-opacity:1; fill:none" points="
  1764.82,1481.01 1764.82,1463.8 
  "/>
<polyline clip-path="url(#clip660)" style="stroke:#000000; stroke-width:4; stroke-opacity:1; fill:none" points="
  2289.76,1481.01 2289.76,1463.8 
  "/>
<g clip-path="url(#clip660)">
<text style="fill:#000000; fill-opacity:1; font-family:Arial,Helvetica Neue,Helvetica,sans-serif; font-size:48px; text-anchor:middle;" transform="rotate(0, 189.985, 1542.21)" x="189.985" y="1542.21">−10</text>
</g>
<g clip-path="url(#clip660)">
<text style="fill:#000000; fill-opacity:1; font-family:Arial,Helvetica Neue,Helvetica,sans-serif; font-size:48px; text-anchor:middle;" transform="rotate(0, 714.93, 1542.21)" x="714.93" y="1542.21">−5</text>
</g>
<g clip-path="url(#clip660)">
<text style="fill:#000000; fill-opacity:1; font-family:Arial,Helvetica Neue,Helvetica,sans-serif; font-size:48px; text-anchor:middle;" transform="rotate(0, 1239.87, 1542.21)" x="1239.87" y="1542.21">0</text>
</g>
<g clip-path="url(#clip660)">
<text style="fill:#000000; fill-opacity:1; font-family:Arial,Helvetica Neue,Helvetica,sans-serif; font-size:48px; text-anchor:middle;" transform="rotate(0, 1764.82, 1542.21)" x="1764.82" y="1542.21">5</text>
</g>
<g clip-path="url(#clip660)">
<text style="fill:#000000; fill-opacity:1; font-family:Arial,Helvetica Neue,Helvetica,sans-serif; font-size:48px; text-anchor:middle;" transform="rotate(0, 2289.76, 1542.21)" x="2289.76" y="1542.21">10</text>
</g>
<g clip-path="url(#clip660)">
<text style="fill:#000000; fill-opacity:1; font-family:Arial,Helvetica Neue,Helvetica,sans-serif; font-size:66px; text-anchor:middle;" transform="rotate(0, 1239.87, 1614.87)" x="1239.87" y="1614.87">x</text>
</g>
<polyline clip-path="url(#clip662)" style="stroke:#000000; stroke-width:2; stroke-opacity:0.1; fill:none" points="
  126.992,1343.92 2352.76,1343.92 
  "/>
<polyline clip-path="url(#clip662)" style="stroke:#000000; stroke-width:2; stroke-opacity:0.1; fill:none" points="
  126.992,1082.83 2352.76,1082.83 
  "/>
<polyline clip-path="url(#clip662)" style="stroke:#000000; stroke-width:2; stroke-opacity:0.1; fill:none" points="
  126.992,821.738 2352.76,821.738 
  "/>
<polyline clip-path="url(#clip662)" style="stroke:#000000; stroke-width:2; stroke-opacity:0.1; fill:none" points="
  126.992,560.646 2352.76,560.646 
  "/>
<polyline clip-path="url(#clip662)" style="stroke:#000000; stroke-width:2; stroke-opacity:0.1; fill:none" points="
  126.992,299.553 2352.76,299.553 
  "/>
<polyline clip-path="url(#clip660)" style="stroke:#000000; stroke-width:4; stroke-opacity:1; fill:none" points="
  126.992,1481.01 126.992,47.2441 
  "/>
<polyline clip-path="url(#clip660)" style="stroke:#000000; stroke-width:4; stroke-opacity:1; fill:none" points="
  126.992,1343.92 153.701,1343.92 
  "/>
<polyline clip-path="url(#clip660)" style="stroke:#000000; stroke-width:4; stroke-opacity:1; fill:none" points="
  126.992,1082.83 153.701,1082.83 
  "/>
<polyline clip-path="url(#clip660)" style="stroke:#000000; stroke-width:4; stroke-opacity:1; fill:none" points="
  126.992,821.738 153.701,821.738 
  "/>
<polyline clip-path="url(#clip660)" style="stroke:#000000; stroke-width:4; stroke-opacity:1; fill:none" points="
  126.992,560.646 153.701,560.646 
  "/>
<polyline clip-path="url(#clip660)" style="stroke:#000000; stroke-width:4; stroke-opacity:1; fill:none" points="
  126.992,299.553 153.701,299.553 
  "/>
<g clip-path="url(#clip660)">
<text style="fill:#000000; fill-opacity:1; font-family:Arial,Helvetica Neue,Helvetica,sans-serif; font-size:48px; text-anchor:end;" transform="rotate(0, 90.9921, 1361.42)" x="90.9921" y="1361.42">−10</text>
</g>
<g clip-path="url(#clip660)">
<text style="fill:#000000; fill-opacity:1; font-family:Arial,Helvetica Neue,Helvetica,sans-serif; font-size:48px; text-anchor:end;" transform="rotate(0, 90.9921, 1100.33)" x="90.9921" y="1100.33">−5</text>
</g>
<g clip-path="url(#clip660)">
<text style="fill:#000000; fill-opacity:1; font-family:Arial,Helvetica Neue,Helvetica,sans-serif; font-size:48px; text-anchor:end;" transform="rotate(0, 90.9921, 839.238)" x="90.9921" y="839.238">0</text>
</g>
<g clip-path="url(#clip660)">
<text style="fill:#000000; fill-opacity:1; font-family:Arial,Helvetica Neue,Helvetica,sans-serif; font-size:48px; text-anchor:end;" transform="rotate(0, 90.9921, 578.146)" x="90.9921" y="578.146">5</text>
</g>
<g clip-path="url(#clip660)">
<text style="fill:#000000; fill-opacity:1; font-family:Arial,Helvetica Neue,Helvetica,sans-serif; font-size:48px; text-anchor:end;" transform="rotate(0, 90.9921, 317.053)" x="90.9921" y="317.053">10</text>
</g>
<g clip-path="url(#clip660)">
<text style="fill:#000000; fill-opacity:1; font-family:Arial,Helvetica Neue,Helvetica,sans-serif; font-size:66px; text-anchor:middle;" transform="rotate(-90, -12.857, 764.126)" x="-12.857" y="764.126">y</text>
</g>
<circle clip-path="url(#clip662)" cx="1364.84" cy="687.718" r="14" fill="#009af9" fill-rule="evenodd" fill-opacity="1" stroke="#000000" stroke-opacity="1" stroke-width="3.2"/>
<circle clip-path="url(#clip662)" cx="1454.91" cy="683.729" r="14" fill="#009af9" fill-rule="evenodd" fill-opacity="1" stroke="#000000" stroke-opacity="1" stroke-width="3.2"/>
<circle clip-path="url(#clip662)" cx="1359.84" cy="640.096" r="14" fill="#009af9" fill-rule="evenodd" fill-opacity="1" stroke="#000000" stroke-opacity="1" stroke-width="3.2"/>
<circle clip-path="url(#clip662)" cx="1288.11" cy="661.94" r="14" fill="#009af9" fill-rule="evenodd" fill-opacity="1" stroke="#000000" stroke-opacity="1" stroke-width="3.2"/>
<circle clip-path="url(#clip662)" cx="1198.23" cy="866.362" r="14" fill="#009af9" fill-rule="evenodd" fill-opacity="1" stroke="#000000" stroke-opacity="1" stroke-width="3.2"/>
<circle clip-path="url(#clip662)" cx="1170.09" cy="762.424" r="14" fill="#009af9" fill-rule="evenodd" fill-opacity="1" stroke="#000000" stroke-opacity="1" stroke-width="3.2"/>
<circle clip-path="url(#clip662)" cx="1342.86" cy="671.513" r="14" fill="#009af9" fill-rule="evenodd" fill-opacity="1" stroke="#000000" stroke-opacity="1" stroke-width="3.2"/>
<circle clip-path="url(#clip662)" cx="1231.95" cy="809.593" r="14" fill="#009af9" fill-rule="evenodd" fill-opacity="1" stroke="#000000" stroke-opacity="1" stroke-width="3.2"/>
<circle clip-path="url(#clip662)" cx="1268.62" cy="834.007" r="14" fill="#009af9" fill-rule="evenodd" fill-opacity="1" stroke="#000000" stroke-opacity="1" stroke-width="3.2"/>
<circle clip-path="url(#clip662)" cx="1219.48" cy="819.062" r="14" fill="#009af9" fill-rule="evenodd" fill-opacity="1" stroke="#000000" stroke-opacity="1" stroke-width="3.2"/>
<circle clip-path="url(#clip662)" cx="1204.24" cy="781.203" r="14" fill="#009af9" fill-rule="evenodd" fill-opacity="1" stroke="#000000" stroke-opacity="1" stroke-width="3.2"/>
<circle clip-path="url(#clip662)" cx="1151.28" cy="800.918" r="14" fill="#009af9" fill-rule="evenodd" fill-opacity="1" stroke="#000000" stroke-opacity="1" stroke-width="3.2"/>
<circle clip-path="url(#clip662)" cx="1146.55" cy="827.594" r="14" fill="#009af9" fill-rule="evenodd" fill-opacity="1" stroke="#000000" stroke-opacity="1" stroke-width="3.2"/>
<circle clip-path="url(#clip662)" cx="1274.23" cy="775.427" r="14" fill="#009af9" fill-rule="evenodd" fill-opacity="1" stroke="#000000" stroke-opacity="1" stroke-width="3.2"/>
<circle clip-path="url(#clip662)" cx="1302.07" cy="831.108" r="14" fill="#009af9" fill-rule="evenodd" fill-opacity="1" stroke="#000000" stroke-opacity="1" stroke-width="3.2"/>
<circle clip-path="url(#clip662)" cx="1278.51" cy="716.277" r="14" fill="#009af9" fill-rule="evenodd" fill-opacity="1" stroke="#000000" stroke-opacity="1" stroke-width="3.2"/>
<circle clip-path="url(#clip662)" cx="1210.36" cy="763.433" r="14" fill="#009af9" fill-rule="evenodd" fill-opacity="1" stroke="#000000" stroke-opacity="1" stroke-width="3.2"/>
<circle clip-path="url(#clip662)" cx="1162.72" cy="796.887" r="14" fill="#009af9" fill-rule="evenodd" fill-opacity="1" stroke="#000000" stroke-opacity="1" stroke-width="3.2"/>
<circle clip-path="url(#clip662)" cx="1164.55" cy="754.001" r="14" fill="#009af9" fill-rule="evenodd" fill-opacity="1" stroke="#000000" stroke-opacity="1" stroke-width="3.2"/>
<circle clip-path="url(#clip662)" cx="1158.5" cy="790.322" r="14" fill="#009af9" fill-rule="evenodd" fill-opacity="1" stroke="#000000" stroke-opacity="1" stroke-width="3.2"/>
<circle clip-path="url(#clip662)" cx="1137.03" cy="860.668" r="14" fill="#009af9" fill-rule="evenodd" fill-opacity="1" stroke="#000000" stroke-opacity="1" stroke-width="3.2"/>
<circle clip-path="url(#clip662)" cx="1267.21" cy="766.323" r="14" fill="#009af9" fill-rule="evenodd" fill-opacity="1" stroke="#000000" stroke-opacity="1" stroke-width="3.2"/>
<circle clip-path="url(#clip662)" cx="1190.69" cy="715.971" r="14" fill="#009af9" fill-rule="evenodd" fill-opacity="1" stroke="#000000" stroke-opacity="1" stroke-width="3.2"/>
<circle clip-path="url(#clip662)" cx="1147.39" cy="814.35" r="14" fill="#009af9" fill-rule="evenodd" fill-opacity="1" stroke="#000000" stroke-opacity="1" stroke-width="3.2"/>
<circle clip-path="url(#clip662)" cx="1269.03" cy="753.756" r="14" fill="#009af9" fill-rule="evenodd" fill-opacity="1" stroke="#000000" stroke-opacity="1" stroke-width="3.2"/>
<circle clip-path="url(#clip662)" cx="1399.87" cy="632.103" r="14" fill="#009af9" fill-rule="evenodd" fill-opacity="1" stroke="#000000" stroke-opacity="1" stroke-width="3.2"/>
<circle clip-path="url(#clip662)" cx="1053.23" cy="854.56" r="14" fill="#009af9" fill-rule="evenodd" fill-opacity="1" stroke="#000000" stroke-opacity="1" stroke-width="3.2"/>
<circle clip-path="url(#clip662)" cx="931.935" cy="834.456" r="14" fill="#009af9" fill-rule="evenodd" fill-opacity="1" stroke="#000000" stroke-opacity="1" stroke-width="3.2"/>
<circle clip-path="url(#clip662)" cx="1322" cy="755.924" r="14" fill="#009af9" fill-rule="evenodd" fill-opacity="1" stroke="#000000" stroke-opacity="1" stroke-width="3.2"/>
<circle clip-path="url(#clip662)" cx="1482.77" cy="616.043" r="14" fill="#009af9" fill-rule="evenodd" fill-opacity="1" stroke="#000000" stroke-opacity="1" stroke-width="3.2"/>
<circle clip-path="url(#clip662)" cx="1148.42" cy="899.655" r="14" fill="#009af9" fill-rule="evenodd" fill-opacity="1" stroke="#000000" stroke-opacity="1" stroke-width="3.2"/>
<circle clip-path="url(#clip662)" cx="1276.17" cy="716.762" r="14" fill="#009af9" fill-rule="evenodd" fill-opacity="1" stroke="#000000" stroke-opacity="1" stroke-width="3.2"/>
<circle clip-path="url(#clip662)" cx="1223.51" cy="696.664" r="14" fill="#009af9" fill-rule="evenodd" fill-opacity="1" stroke="#000000" stroke-opacity="1" stroke-width="3.2"/>
<circle clip-path="url(#clip662)" cx="1484.81" cy="721.55" r="14" fill="#009af9" fill-rule="evenodd" fill-opacity="1" stroke="#000000" stroke-opacity="1" stroke-width="3.2"/>
<circle clip-path="url(#clip662)" cx="1135.06" cy="820.006" r="14" fill="#009af9" fill-rule="evenodd" fill-opacity="1" stroke="#000000" stroke-opacity="1" stroke-width="3.2"/>
<circle clip-path="url(#clip662)" cx="1246.9" cy="787.379" r="14" fill="#009af9" fill-rule="evenodd" fill-opacity="1" stroke="#000000" stroke-opacity="1" stroke-width="3.2"/>
<circle clip-path="url(#clip662)" cx="1056.75" cy="816.081" r="14" fill="#009af9" fill-rule="evenodd" fill-opacity="1" stroke="#000000" stroke-opacity="1" stroke-width="3.2"/>
<circle clip-path="url(#clip662)" cx="1147.43" cy="784.771" r="14" fill="#009af9" fill-rule="evenodd" fill-opacity="1" stroke="#000000" stroke-opacity="1" stroke-width="3.2"/>
<circle clip-path="url(#clip662)" cx="1213.23" cy="731.865" r="14" fill="#009af9" fill-rule="evenodd" fill-opacity="1" stroke="#000000" stroke-opacity="1" stroke-width="3.2"/>
<circle clip-path="url(#clip662)" cx="1325.34" cy="742.566" r="14" fill="#009af9" fill-rule="evenodd" fill-opacity="1" stroke="#000000" stroke-opacity="1" stroke-width="3.2"/>
<circle clip-path="url(#clip662)" cx="1121.78" cy="784.816" r="14" fill="#009af9" fill-rule="evenodd" fill-opacity="1" stroke="#000000" stroke-opacity="1" stroke-width="3.2"/>
<circle clip-path="url(#clip662)" cx="1203.72" cy="770.855" r="14" fill="#009af9" fill-rule="evenodd" fill-opacity="1" stroke="#000000" stroke-opacity="1" stroke-width="3.2"/>
<circle clip-path="url(#clip662)" cx="1214.41" cy="797.937" r="14" fill="#009af9" fill-rule="evenodd" fill-opacity="1" stroke="#000000" stroke-opacity="1" stroke-width="3.2"/>
<circle clip-path="url(#clip662)" cx="1400.72" cy="759.272" r="14" fill="#009af9" fill-rule="evenodd" fill-opacity="1" stroke="#000000" stroke-opacity="1" stroke-width="3.2"/>
<circle clip-path="url(#clip662)" cx="1283.28" cy="747.893" r="14" fill="#009af9" fill-rule="evenodd" fill-opacity="1" stroke="#000000" stroke-opacity="1" stroke-width="3.2"/>
<circle clip-path="url(#clip662)" cx="1215.98" cy="669.336" r="14" fill="#009af9" fill-rule="evenodd" fill-opacity="1" stroke="#000000" stroke-opacity="1" stroke-width="3.2"/>
<circle clip-path="url(#clip662)" cx="1220.36" cy="778.784" r="14" fill="#009af9" fill-rule="evenodd" fill-opacity="1" stroke="#000000" stroke-opacity="1" stroke-width="3.2"/>
<circle clip-path="url(#clip662)" cx="1400.7" cy="571.19" r="14" fill="#009af9" fill-rule="evenodd" fill-opacity="1" stroke="#000000" stroke-opacity="1" stroke-width="3.2"/>
<circle clip-path="url(#clip662)" cx="909.866" cy="922.183" r="14" fill="#009af9" fill-rule="evenodd" fill-opacity="1" stroke="#000000" stroke-opacity="1" stroke-width="3.2"/>
<circle clip-path="url(#clip662)" cx="1088.68" cy="819.197" r="14" fill="#009af9" fill-rule="evenodd" fill-opacity="1" stroke="#000000" stroke-opacity="1" stroke-width="3.2"/>
<circle clip-path="url(#clip662)" cx="1262.84" cy="820.447" r="14" fill="#009af9" fill-rule="evenodd" fill-opacity="1" stroke="#000000" stroke-opacity="1" stroke-width="3.2"/>
<circle clip-path="url(#clip662)" cx="1218.11" cy="790.675" r="14" fill="#009af9" fill-rule="evenodd" fill-opacity="1" stroke="#000000" stroke-opacity="1" stroke-width="3.2"/>
<circle clip-path="url(#clip662)" cx="1375.59" cy="600.826" r="14" fill="#009af9" fill-rule="evenodd" fill-opacity="1" stroke="#000000" stroke-opacity="1" stroke-width="3.2"/>
<circle clip-path="url(#clip662)" cx="1362.68" cy="710.755" r="14" fill="#009af9" fill-rule="evenodd" fill-opacity="1" stroke="#000000" stroke-opacity="1" stroke-width="3.2"/>
<circle clip-path="url(#clip662)" cx="1243.1" cy="808.539" r="14" fill="#009af9" fill-rule="evenodd" fill-opacity="1" stroke="#000000" stroke-opacity="1" stroke-width="3.2"/>
<circle clip-path="url(#clip662)" cx="1120.17" cy="824.318" r="14" fill="#009af9" fill-rule="evenodd" fill-opacity="1" stroke="#000000" stroke-opacity="1" stroke-width="3.2"/>
<circle clip-path="url(#clip662)" cx="1285.51" cy="705.797" r="14" fill="#009af9" fill-rule="evenodd" fill-opacity="1" stroke="#000000" stroke-opacity="1" stroke-width="3.2"/>
<circle clip-path="url(#clip662)" cx="1206.87" cy="733.639" r="14" fill="#009af9" fill-rule="evenodd" fill-opacity="1" stroke="#000000" stroke-opacity="1" stroke-width="3.2"/>
<circle clip-path="url(#clip662)" cx="1182.25" cy="835.902" r="14" fill="#009af9" fill-rule="evenodd" fill-opacity="1" stroke="#000000" stroke-opacity="1" stroke-width="3.2"/>
<circle clip-path="url(#clip662)" cx="1173.12" cy="882.145" r="14" fill="#009af9" fill-rule="evenodd" fill-opacity="1" stroke="#000000" stroke-opacity="1" stroke-width="3.2"/>
<circle clip-path="url(#clip662)" cx="1309.77" cy="815.125" r="14" fill="#009af9" fill-rule="evenodd" fill-opacity="1" stroke="#000000" stroke-opacity="1" stroke-width="3.2"/>
<circle clip-path="url(#clip662)" cx="1143.26" cy="809.169" r="14" fill="#009af9" fill-rule="evenodd" fill-opacity="1" stroke="#000000" stroke-opacity="1" stroke-width="3.2"/>
<circle clip-path="url(#clip662)" cx="1224.51" cy="806.305" r="14" fill="#009af9" fill-rule="evenodd" fill-opacity="1" stroke="#000000" stroke-opacity="1" stroke-width="3.2"/>
<circle clip-path="url(#clip662)" cx="1227.03" cy="894.048" r="14" fill="#009af9" fill-rule="evenodd" fill-opacity="1" stroke="#000000" stroke-opacity="1" stroke-width="3.2"/>
<circle clip-path="url(#clip662)" cx="1328.24" cy="709.041" r="14" fill="#009af9" fill-rule="evenodd" fill-opacity="1" stroke="#000000" stroke-opacity="1" stroke-width="3.2"/>
<circle clip-path="url(#clip662)" cx="1187.08" cy="801.9" r="14" fill="#009af9" fill-rule="evenodd" fill-opacity="1" stroke="#000000" stroke-opacity="1" stroke-width="3.2"/>
<circle clip-path="url(#clip662)" cx="1347.52" cy="710.336" r="14" fill="#009af9" fill-rule="evenodd" fill-opacity="1" stroke="#000000" stroke-opacity="1" stroke-width="3.2"/>
<circle clip-path="url(#clip662)" cx="1128.73" cy="716.284" r="14" fill="#009af9" fill-rule="evenodd" fill-opacity="1" stroke="#000000" stroke-opacity="1" stroke-width="3.2"/>
<circle clip-path="url(#clip662)" cx="1258.61" cy="748.823" r="14" fill="#009af9" fill-rule="evenodd" fill-opacity="1" stroke="#000000" stroke-opacity="1" stroke-width="3.2"/>
<circle clip-path="url(#clip662)" cx="1531.07" cy="653.98" r="14" fill="#009af9" fill-rule="evenodd" fill-opacity="1" stroke="#000000" stroke-opacity="1" stroke-width="3.2"/>
<circle clip-path="url(#clip662)" cx="1131.38" cy="878.278" r="14" fill="#009af9" fill-rule="evenodd" fill-opacity="1" stroke="#000000" stroke-opacity="1" stroke-width="3.2"/>
<circle clip-path="url(#clip662)" cx="1207.91" cy="758.873" r="14" fill="#009af9" fill-rule="evenodd" fill-opacity="1" stroke="#000000" stroke-opacity="1" stroke-width="3.2"/>
<circle clip-path="url(#clip662)" cx="1329.01" cy="795.214" r="14" fill="#009af9" fill-rule="evenodd" fill-opacity="1" stroke="#000000" stroke-opacity="1" stroke-width="3.2"/>
<circle clip-path="url(#clip662)" cx="933.778" cy="903.75" r="14" fill="#009af9" fill-rule="evenodd" fill-opacity="1" stroke="#000000" stroke-opacity="1" stroke-width="3.2"/>
<circle clip-path="url(#clip662)" cx="1238.27" cy="826.808" r="14" fill="#009af9" fill-rule="evenodd" fill-opacity="1" stroke="#000000" stroke-opacity="1" stroke-width="3.2"/>
<circle clip-path="url(#clip662)" cx="1169.91" cy="791.954" r="14" fill="#009af9" fill-rule="evenodd" fill-opacity="1" stroke="#000000" stroke-opacity="1" stroke-width="3.2"/>
<circle clip-path="url(#clip662)" cx="1513.68" cy="604.969" r="14" fill="#009af9" fill-rule="evenodd" fill-opacity="1" stroke="#000000" stroke-opacity="1" stroke-width="3.2"/>
<circle clip-path="url(#clip662)" cx="1389.11" cy="753.457" r="14" fill="#009af9" fill-rule="evenodd" fill-opacity="1" stroke="#000000" stroke-opacity="1" stroke-width="3.2"/>
<circle clip-path="url(#clip662)" cx="1273.25" cy="760.239" r="14" fill="#009af9" fill-rule="evenodd" fill-opacity="1" stroke="#000000" stroke-opacity="1" stroke-width="3.2"/>
<circle clip-path="url(#clip662)" cx="1374.78" cy="607.138" r="14" fill="#009af9" fill-rule="evenodd" fill-opacity="1" stroke="#000000" stroke-opacity="1" stroke-width="3.2"/>
<circle clip-path="url(#clip662)" cx="1094.88" cy="819.062" r="14" fill="#009af9" fill-rule="evenodd" fill-opacity="1" stroke="#000000" stroke-opacity="1" stroke-width="3.2"/>
<circle clip-path="url(#clip662)" cx="1417.58" cy="737.692" r="14" fill="#009af9" fill-rule="evenodd" fill-opacity="1" stroke="#000000" stroke-opacity="1" stroke-width="3.2"/>
<circle clip-path="url(#clip662)" cx="1282.4" cy="679.978" r="14" fill="#009af9" fill-rule="evenodd" fill-opacity="1" stroke="#000000" stroke-opacity="1" stroke-width="3.2"/>
<circle clip-path="url(#clip662)" cx="1141.52" cy="842.601" r="14" fill="#009af9" fill-rule="evenodd" fill-opacity="1" stroke="#000000" stroke-opacity="1" stroke-width="3.2"/>
<circle clip-path="url(#clip662)" cx="1374.43" cy="709.276" r="14" fill="#009af9" fill-rule="evenodd" fill-opacity="1" stroke="#000000" stroke-opacity="1" stroke-width="3.2"/>
<circle clip-path="url(#clip662)" cx="1316.22" cy="764.127" r="14" fill="#009af9" fill-rule="evenodd" fill-opacity="1" stroke="#000000" stroke-opacity="1" stroke-width="3.2"/>
<circle clip-path="url(#clip662)" cx="1198.22" cy="751.929" r="14" fill="#009af9" fill-rule="evenodd" fill-opacity="1" stroke="#000000" stroke-opacity="1" stroke-width="3.2"/>
<circle clip-path="url(#clip662)" cx="1350.68" cy="739.044" r="14" fill="#009af9" fill-rule="evenodd" fill-opacity="1" stroke="#000000" stroke-opacity="1" stroke-width="3.2"/>
<circle clip-path="url(#clip662)" cx="1162.82" cy="865.082" r="14" fill="#009af9" fill-rule="evenodd" fill-opacity="1" stroke="#000000" stroke-opacity="1" stroke-width="3.2"/>
<circle clip-path="url(#clip662)" cx="1288.11" cy="697.92" r="14" fill="#009af9" fill-rule="evenodd" fill-opacity="1" stroke="#000000" stroke-opacity="1" stroke-width="3.2"/>
<circle clip-path="url(#clip662)" cx="1419" cy="679.7" r="14" fill="#009af9" fill-rule="evenodd" fill-opacity="1" stroke="#000000" stroke-opacity="1" stroke-width="3.2"/>
<circle clip-path="url(#clip662)" cx="1311.1" cy="614.204" r="14" fill="#009af9" fill-rule="evenodd" fill-opacity="1" stroke="#000000" stroke-opacity="1" stroke-width="3.2"/>
<circle clip-path="url(#clip662)" cx="1270.02" cy="705.7" r="14" fill="#009af9" fill-rule="evenodd" fill-opacity="1" stroke="#000000" stroke-opacity="1" stroke-width="3.2"/>
<circle clip-path="url(#clip662)" cx="1352.02" cy="608.989" r="14" fill="#009af9" fill-rule="evenodd" fill-opacity="1" stroke="#000000" stroke-opacity="1" stroke-width="3.2"/>
<circle clip-path="url(#clip662)" cx="1207.66" cy="805.35" r="14" fill="#009af9" fill-rule="evenodd" fill-opacity="1" stroke="#000000" stroke-opacity="1" stroke-width="3.2"/>
<circle clip-path="url(#clip662)" cx="1038.27" cy="859.009" r="14" fill="#009af9" fill-rule="evenodd" fill-opacity="1" stroke="#000000" stroke-opacity="1" stroke-width="3.2"/>
<circle clip-path="url(#clip662)" cx="1415.16" cy="696.749" r="14" fill="#009af9" fill-rule="evenodd" fill-opacity="1" stroke="#000000" stroke-opacity="1" stroke-width="3.2"/>
<circle clip-path="url(#clip662)" cx="1217.45" cy="718.225" r="14" fill="#009af9" fill-rule="evenodd" fill-opacity="1" stroke="#000000" stroke-opacity="1" stroke-width="3.2"/>
<circle clip-path="url(#clip662)" cx="1222.69" cy="845.77" r="14" fill="#009af9" fill-rule="evenodd" fill-opacity="1" stroke="#000000" stroke-opacity="1" stroke-width="3.2"/>
<circle clip-path="url(#clip662)" cx="1145.07" cy="786.632" r="14" fill="#009af9" fill-rule="evenodd" fill-opacity="1" stroke="#000000" stroke-opacity="1" stroke-width="3.2"/>
<path clip-path="url(#clip662)" d="
M189.985 1440.43 L200.484 1434.7 L210.983 1428.97 L221.482 1423.25 L231.981 1417.53 L242.48 1411.82 L252.979 1406.12 L263.478 1400.41 L273.977 1394.72 L284.475 1389.02 
  L294.974 1383.34 L305.473 1377.65 L315.972 1371.98 L326.471 1366.31 L336.97 1360.64 L347.469 1354.98 L357.968 1349.32 L368.466 1343.67 L378.965 1338.03 L389.464 1332.39 
  L399.963 1326.76 L410.462 1321.13 L420.961 1315.51 L431.46 1309.9 L441.959 1304.29 L452.458 1298.68 L462.956 1293.09 L473.455 1287.5 L483.954 1281.91 L494.453 1276.34 
  L504.952 1270.77 L515.451 1265.2 L525.95 1259.64 L536.449 1254.09 L546.948 1248.55 L557.446 1243.01 L567.945 1237.48 L578.444 1231.96 L588.943 1226.44 L599.442 1220.94 
  L609.941 1215.44 L620.44 1209.94 L630.939 1204.46 L641.438 1198.98 L651.936 1193.51 L662.435 1188.04 L672.934 1182.59 L683.433 1177.14 L693.932 1171.7 L704.431 1166.27 
  L714.93 1160.85 L725.429 1155.43 L735.927 1150.03 L746.426 1144.63 L756.925 1139.24 L767.424 1133.86 L777.923 1128.48 L788.422 1123.12 L798.921 1117.77 L809.42 1112.42 
  L819.919 1107.08 L830.417 1101.76 L840.916 1096.44 L851.415 1091.13 L861.914 1085.83 L872.413 1080.54 L882.912 1075.25 L893.411 1069.98 L903.91 1064.72 L914.409 1059.47 
  L924.907 1054.22 L935.406 1048.99 L945.905 1043.77 L956.404 1038.55 L966.903 1033.35 L977.402 1028.15 L987.901 1022.97 L998.4 1017.8 L1008.9 1012.63 L1019.4 1007.48 
  L1029.9 1002.34 L1040.4 997.202 L1050.89 992.08 L1061.39 986.968 L1071.89 981.866 L1082.39 976.775 L1092.89 971.694 L1103.39 966.624 L1113.89 961.565 L1124.39 956.516 
  L1134.89 951.478 L1145.38 946.451 L1155.88 941.434 L1166.38 936.428 L1176.88 931.433 L1187.38 926.448 L1197.88 921.475 L1208.38 916.512 L1218.88 911.56 L1229.38 906.618 
  L1239.87 901.688 L1250.37 896.768 L1260.87 891.86 L1271.37 886.962 L1281.87 882.075 L1292.37 877.198 L1302.87 872.333 L1313.37 867.478 L1323.87 862.634 L1334.36 857.801 
  L1344.86 852.979 L1355.36 848.167 L1365.86 843.366 L1376.36 838.575 L1386.86 833.795 L1397.36 829.026 L1407.86 824.268 L1418.36 819.52 L1428.85 814.782 L1439.35 810.055 
  L1449.85 805.338 L1460.35 800.631 L1470.85 795.935 L1481.35 791.249 L1491.85 786.574 L1502.35 781.908 L1512.85 777.253 L1523.34 772.607 L1533.84 767.972 L1544.34 763.347 
  L1554.84 758.731 L1565.34 754.125 L1575.84 749.529 L1586.34 744.943 L1596.84 740.366 L1607.34 735.798 L1617.83 731.241 L1628.33 726.692 L1638.83 722.153 L1649.33 717.623 
  L1659.83 713.102 L1670.33 708.591 L1680.83 704.088 L1691.33 699.594 L1701.82 695.11 L1712.32 690.633 L1722.82 686.166 L1733.32 681.707 L1743.82 677.257 L1754.32 672.816 
  L1764.82 668.382 L1775.32 663.957 L1785.82 659.54 L1796.31 655.132 L1806.81 650.731 L1817.31 646.339 L1827.81 641.954 L1838.31 637.577 L1848.81 633.208 L1859.31 628.846 
  L1869.81 624.492 L1880.31 620.146 L1890.8 615.807 L1901.3 611.475 L1911.8 607.15 L1922.3 602.833 L1932.8 598.523 L1943.3 594.22 L1953.8 589.923 L1964.3 585.634 
  L1974.8 581.351 L1985.29 577.075 L1995.79 572.805 L2006.29 568.542 L2016.79 564.285 L2027.29 560.035 L2037.79 555.791 L2048.29 551.554 L2058.79 547.322 L2069.29 543.096 
  L2079.78 538.877 L2090.28 534.663 L2100.78 530.455 L2111.28 526.253 L2121.78 522.057 L2132.28 517.866 L2142.78 513.681 L2153.28 509.501 L2163.78 505.327 L2174.27 501.158 
  L2184.77 496.994 L2195.27 492.835 L2205.77 488.682 L2216.27 484.533 L2226.77 480.39 L2237.27 476.252 L2247.77 472.118 L2258.27 467.989 L2268.76 463.865 L2279.26 459.746 
  L2289.76 455.631 L2289.76 87.8223 L2279.26 93.5496 L2268.76 99.2723 L2258.27 104.99 L2247.77 110.704 L2237.27 116.412 L2226.77 122.116 L2216.27 127.814 L2205.77 133.508 
  L2195.27 139.197 L2184.77 144.88 L2174.27 150.558 L2163.78 156.231 L2153.28 161.899 L2142.78 167.561 L2132.28 173.218 L2121.78 178.869 L2111.28 184.515 L2100.78 190.155 
  L2090.28 195.789 L2079.78 201.418 L2069.29 207.04 L2058.79 212.656 L2048.29 218.267 L2037.79 223.871 L2027.29 229.469 L2016.79 235.061 L2006.29 240.647 L1995.79 246.226 
  L1985.29 251.798 L1974.8 257.364 L1964.3 262.923 L1953.8 268.476 L1943.3 274.021 L1932.8 279.56 L1922.3 285.092 L1911.8 290.616 L1901.3 296.134 L1890.8 301.644 
  L1880.31 307.147 L1869.81 312.643 L1859.31 318.131 L1848.81 323.611 L1838.31 329.084 L1827.81 334.549 L1817.31 340.007 L1806.81 345.456 L1796.31 350.898 L1785.82 356.331 
  L1775.32 361.756 L1764.82 367.173 L1754.32 372.582 L1743.82 377.982 L1733.32 383.374 L1722.82 388.757 L1712.32 394.132 L1701.82 399.498 L1691.33 404.855 L1680.83 410.204 
  L1670.33 415.543 L1659.83 420.874 L1649.33 426.195 L1638.83 431.507 L1628.33 436.81 L1617.83 442.103 L1607.34 447.388 L1596.84 452.662 L1586.34 457.928 L1575.84 463.183 
  L1565.34 468.429 L1554.84 473.665 L1544.34 478.892 L1533.84 484.108 L1523.34 489.315 L1512.85 494.512 L1502.35 499.698 L1491.85 504.875 L1481.35 510.041 L1470.85 515.197 
  L1460.35 520.343 L1449.85 525.479 L1439.35 530.604 L1428.85 535.719 L1418.36 540.823 L1407.86 545.917 L1397.36 551.001 L1386.86 556.073 L1376.36 561.136 L1365.86 566.187 
  L1355.36 571.228 L1344.86 576.258 L1334.36 581.278 L1323.87 586.287 L1313.37 591.285 L1302.87 596.272 L1292.37 601.249 L1281.87 606.215 L1271.37 611.17 L1260.87 616.114 
  L1250.37 621.047 L1239.87 625.969 L1229.38 630.881 L1218.88 635.782 L1208.38 640.672 L1197.88 645.551 L1187.38 650.419 L1176.88 655.277 L1166.38 660.124 L1155.88 664.96 
  L1145.38 669.785 L1134.89 674.6 L1124.39 679.404 L1113.89 684.197 L1103.39 688.979 L1092.89 693.752 L1082.39 698.513 L1071.89 703.264 L1061.39 708.004 L1050.89 712.734 
  L1040.4 717.454 L1029.9 722.163 L1019.4 726.862 L1008.9 731.55 L998.4 736.229 L987.901 740.897 L977.402 745.555 L966.903 750.203 L956.404 754.841 L945.905 759.469 
  L935.406 764.088 L924.907 768.696 L914.409 773.295 L903.91 777.884 L893.411 782.463 L882.912 787.033 L872.413 791.593 L861.914 796.144 L851.415 800.686 L840.916 805.218 
  L830.417 809.741 L819.919 814.256 L809.42 818.761 L798.921 823.257 L788.422 827.744 L777.923 832.222 L767.424 836.692 L756.925 841.153 L746.426 845.605 L735.927 850.049 
  L725.429 854.485 L714.93 858.912 L704.431 863.331 L693.932 867.742 L683.433 872.144 L672.934 876.539 L662.435 880.926 L651.936 885.305 L641.438 889.676 L630.939 894.04 
  L620.44 898.396 L609.941 902.744 L599.442 907.085 L588.943 911.419 L578.444 915.745 L567.945 920.065 L557.446 924.377 L546.948 928.682 L536.449 932.98 L525.95 937.271 
  L515.451 941.556 L504.952 945.834 L494.453 950.105 L483.954 954.37 L473.455 958.628 L462.956 962.88 L452.458 967.126 L441.959 971.365 L431.46 975.598 L420.961 979.826 
  L410.462 984.047 L399.963 988.262 L389.464 992.471 L378.965 996.675 L368.466 1000.87 L357.968 1005.07 L347.469 1009.25 L336.97 1013.43 L326.471 1017.61 L315.972 1021.78 
  L305.473 1025.94 L294.974 1030.1 L284.475 1034.26 L273.977 1038.41 L263.478 1042.55 L252.979 1046.69 L242.48 1050.83 L231.981 1054.96 L221.482 1059.08 L210.983 1063.2 
  L200.484 1067.32 L189.985 1071.43  Z
  " fill="#e26f46" fill-rule="evenodd" fill-opacity="0.5"/>
<polyline clip-path="url(#clip662)" style="stroke:#e26f46; stroke-width:4; stroke-opacity:1; fill:none" points="
  189.985,1255.93 200.484,1251.01 210.983,1246.09 221.482,1241.17 231.981,1236.25 242.48,1231.33 252.979,1226.4 263.478,1221.48 273.977,1216.56 284.475,1211.64 
  294.974,1206.72 305.473,1201.8 315.972,1196.88 326.471,1191.96 336.97,1187.04 347.469,1182.12 357.968,1177.19 368.466,1172.27 378.965,1167.35 389.464,1162.43 
  399.963,1157.51 410.462,1152.59 420.961,1147.67 431.46,1142.75 441.959,1137.83 452.458,1132.91 462.956,1127.98 473.455,1123.06 483.954,1118.14 494.453,1113.22 
  504.952,1108.3 515.451,1103.38 525.95,1098.46 536.449,1093.54 546.948,1088.62 557.446,1083.69 567.945,1078.77 578.444,1073.85 588.943,1068.93 599.442,1064.01 
  609.941,1059.09 620.44,1054.17 630.939,1049.25 641.438,1044.33 651.936,1039.41 662.435,1034.48 672.934,1029.56 683.433,1024.64 693.932,1019.72 704.431,1014.8 
  714.93,1009.88 725.429,1004.96 735.927,1000.04 746.426,995.117 756.925,990.196 767.424,985.275 777.923,980.354 788.422,975.432 798.921,970.511 809.42,965.59 
  819.919,960.669 830.417,955.748 840.916,950.827 851.415,945.906 861.914,940.985 872.413,936.064 882.912,931.143 893.411,926.222 903.91,921.301 914.409,916.38 
  924.907,911.459 935.406,906.538 945.905,901.617 956.404,896.696 966.903,891.775 977.402,886.854 987.901,881.933 998.4,877.012 1008.9,872.091 1019.4,867.17 
  1029.9,862.249 1040.4,857.328 1050.89,852.407 1061.39,847.486 1071.89,842.565 1082.39,837.644 1092.89,832.723 1103.39,827.802 1113.89,822.881 1124.39,817.96 
  1134.89,813.039 1145.38,808.118 1155.88,803.197 1166.38,798.276 1176.88,793.355 1187.38,788.434 1197.88,783.513 1208.38,778.592 1218.88,773.671 1229.38,768.75 
  1239.87,763.829 1250.37,758.908 1260.87,753.987 1271.37,749.066 1281.87,744.145 1292.37,739.224 1302.87,734.303 1313.37,729.382 1323.87,724.461 1334.36,719.54 
  1344.86,714.618 1355.36,709.697 1365.86,704.776 1376.36,699.855 1386.86,694.934 1397.36,690.013 1407.86,685.092 1418.36,680.171 1428.85,675.25 1439.35,670.329 
  1449.85,665.408 1460.35,660.487 1470.85,655.566 1481.35,650.645 1491.85,645.724 1502.35,640.803 1512.85,635.882 1523.34,630.961 1533.84,626.04 1544.34,621.119 
  1554.84,616.198 1565.34,611.277 1575.84,606.356 1586.34,601.435 1596.84,596.514 1607.34,591.593 1617.83,586.672 1628.33,581.751 1638.83,576.83 1649.33,571.909 
  1659.83,566.988 1670.33,562.067 1680.83,557.146 1691.33,552.225 1701.82,547.304 1712.32,542.383 1722.82,537.462 1733.32,532.541 1743.82,527.62 1754.32,522.699 
  1764.82,517.778 1775.32,512.857 1785.82,507.936 1796.31,503.015 1806.81,498.094 1817.31,493.173 1827.81,488.252 1838.31,483.331 1848.81,478.41 1859.31,473.489 
  1869.81,468.568 1880.31,463.647 1890.8,458.726 1901.3,453.804 1911.8,448.883 1922.3,443.962 1932.8,439.041 1943.3,434.12 1953.8,429.199 1964.3,424.278 
  1974.8,419.357 1985.29,414.436 1995.79,409.515 2006.29,404.594 2016.79,399.673 2027.29,394.752 2037.79,389.831 2048.29,384.91 2058.79,379.989 2069.29,375.068 
  2079.78,370.147 2090.28,365.226 2100.78,360.305 2111.28,355.384 2121.78,350.463 2132.28,345.542 2142.78,340.621 2153.28,335.7 2163.78,330.779 2174.27,325.858 
  2184.77,320.937 2195.27,316.016 2205.77,311.095 2216.27,306.174 2226.77,301.253 2237.27,296.332 2247.77,291.411 2258.27,286.49 2268.76,281.569 2279.26,276.648 
  2289.76,271.727 
  "/>
<path clip-path="url(#clip662)" d="
M189.985 1379.31 L200.484 1373.18 L210.983 1367.04 L221.482 1360.91 L231.981 1354.77 L242.48 1348.64 L252.979 1342.5 L263.478 1336.37 L273.977 1330.24 L284.475 1324.1 
  L294.974 1317.97 L305.473 1311.84 L315.972 1305.7 L326.471 1299.57 L336.97 1293.44 L347.469 1287.31 L357.968 1281.17 L368.466 1275.04 L378.965 1268.91 L389.464 1262.78 
  L399.963 1256.65 L410.462 1250.52 L420.961 1244.39 L431.46 1238.26 L441.959 1232.13 L452.458 1226 L462.956 1219.87 L473.455 1213.74 L483.954 1207.61 L494.453 1201.48 
  L504.952 1195.35 L515.451 1189.23 L525.95 1183.1 L536.449 1176.97 L546.948 1170.85 L557.446 1164.72 L567.945 1158.6 L578.444 1152.47 L588.943 1146.35 L599.442 1140.23 
  L609.941 1134.1 L620.44 1127.98 L630.939 1121.86 L641.438 1115.74 L651.936 1109.62 L662.435 1103.5 L672.934 1097.38 L683.433 1091.27 L693.932 1085.15 L704.431 1079.04 
  L714.93 1072.92 L725.429 1066.81 L735.927 1060.7 L746.426 1054.59 L756.925 1048.48 L767.424 1042.37 L777.923 1036.26 L788.422 1030.16 L798.921 1024.06 L809.42 1017.96 
  L819.919 1011.86 L830.417 1005.76 L840.916 999.666 L851.415 993.573 L861.914 987.484 L872.413 981.397 L882.912 975.313 L893.411 969.232 L903.91 963.155 L914.409 957.082 
  L924.907 951.013 L935.406 944.948 L945.905 938.889 L956.404 932.835 L966.903 926.786 L977.402 920.745 L987.901 914.71 L998.4 908.684 L1008.9 902.666 L1019.4 896.659 
  L1029.9 890.662 L1040.4 884.677 L1050.89 878.706 L1061.39 872.751 L1071.89 866.813 L1082.39 860.895 L1092.89 854.999 L1103.39 849.129 L1113.89 843.288 L1124.39 837.479 
  L1134.89 831.709 L1145.38 825.982 L1155.88 820.304 L1166.38 814.682 L1176.88 809.124 L1187.38 803.638 L1197.88 798.231 L1208.38 792.913 L1218.88 787.69 L1229.38 782.568 
  L1239.87 777.553 L1250.37 772.647 L1260.87 767.848 L1271.37 763.155 L1281.87 758.562 L1292.37 754.063 L1302.87 749.649 L1313.37 745.314 L1323.87 741.048 L1334.36 736.843 
  L1344.86 732.692 L1355.36 728.59 L1365.86 724.529 L1376.36 720.504 L1386.86 716.511 L1397.36 712.547 L1407.86 708.607 L1418.36 704.688 L1428.85 700.789 L1439.35 696.907 
  L1449.85 693.039 L1460.35 689.185 L1470.85 685.343 L1481.35 681.511 L1491.85 677.689 L1502.35 673.876 L1512.85 670.07 L1523.34 666.272 L1533.84 662.48 L1544.34 658.693 
  L1554.84 654.912 L1565.34 651.136 L1575.84 647.364 L1586.34 643.596 L1596.84 639.832 L1607.34 636.072 L1617.83 632.315 L1628.33 628.56 L1638.83 624.809 L1649.33 621.059 
  L1659.83 617.313 L1670.33 613.568 L1680.83 609.826 L1691.33 606.085 L1701.82 602.347 L1712.32 598.609 L1722.82 594.874 L1733.32 591.14 L1743.82 587.407 L1754.32 583.676 
  L1764.82 579.946 L1775.32 576.217 L1785.82 572.489 L1796.31 568.763 L1806.81 565.037 L1817.31 561.312 L1827.81 557.588 L1838.31 553.865 L1848.81 550.143 L1859.31 546.421 
  L1869.81 542.701 L1880.31 538.981 L1890.8 535.261 L1901.3 531.542 L1911.8 527.824 L1922.3 524.106 L1932.8 520.389 L1943.3 516.673 L1953.8 512.957 L1964.3 509.241 
  L1974.8 505.526 L1985.29 501.811 L1995.79 498.097 L2006.29 494.383 L2016.79 490.67 L2027.29 486.957 L2037.79 483.244 L2048.29 479.531 L2058.79 475.819 L2069.29 472.108 
  L2079.78 468.396 L2090.28 464.685 L2100.78 460.974 L2111.28 457.264 L2121.78 453.553 L2132.28 449.843 L2142.78 446.133 L2153.28 442.424 L2163.78 438.714 L2174.27 435.005 
  L2184.77 431.296 L2195.27 427.588 L2205.77 423.879 L2216.27 420.171 L2226.77 416.463 L2237.27 412.755 L2247.77 409.047 L2258.27 405.339 L2268.76 401.632 L2279.26 397.925 
  L2289.76 394.218 L2289.76 149.236 L2279.26 155.371 L2268.76 161.506 L2258.27 167.64 L2247.77 173.775 L2237.27 179.909 L2226.77 186.043 L2216.27 192.177 L2205.77 198.311 
  L2195.27 204.444 L2184.77 210.578 L2174.27 216.711 L2163.78 222.844 L2153.28 228.976 L2142.78 235.109 L2132.28 241.241 L2121.78 247.373 L2111.28 253.505 L2100.78 259.636 
  L2090.28 265.767 L2079.78 271.898 L2069.29 278.029 L2058.79 284.159 L2048.29 290.289 L2037.79 296.419 L2027.29 302.548 L2016.79 308.677 L2006.29 314.805 L1995.79 320.934 
  L1985.29 327.061 L1974.8 333.189 L1964.3 339.316 L1953.8 345.442 L1943.3 351.568 L1932.8 357.693 L1922.3 363.818 L1911.8 369.943 L1901.3 376.067 L1890.8 382.19 
  L1880.31 388.312 L1869.81 394.434 L1859.31 400.556 L1848.81 406.676 L1838.31 412.796 L1827.81 418.915 L1817.31 425.033 L1806.81 431.15 L1796.31 437.267 L1785.82 443.382 
  L1775.32 449.496 L1764.82 455.609 L1754.32 461.721 L1743.82 467.832 L1733.32 473.942 L1722.82 480.05 L1712.32 486.156 L1701.82 492.261 L1691.33 498.364 L1680.83 504.466 
  L1670.33 510.566 L1659.83 516.663 L1649.33 522.758 L1638.83 528.851 L1628.33 534.942 L1617.83 541.029 L1607.34 547.114 L1596.84 553.196 L1586.34 559.274 L1575.84 565.348 
  L1565.34 571.418 L1554.84 577.484 L1544.34 583.545 L1533.84 589.601 L1523.34 595.651 L1512.85 601.694 L1502.35 607.73 L1491.85 613.759 L1481.35 619.779 L1470.85 625.79 
  L1460.35 631.789 L1449.85 637.777 L1439.35 643.752 L1428.85 649.712 L1418.36 655.654 L1407.86 661.578 L1397.36 667.48 L1386.86 673.357 L1376.36 679.207 L1365.86 685.024 
  L1355.36 690.805 L1344.86 696.545 L1334.36 702.236 L1323.87 707.874 L1313.37 713.449 L1302.87 718.956 L1292.37 724.384 L1281.87 729.727 L1271.37 734.976 L1260.87 740.125 
  L1250.37 745.168 L1239.87 750.104 L1229.38 754.931 L1218.88 759.652 L1208.38 764.271 L1197.88 768.794 L1187.38 773.23 L1176.88 777.585 L1166.38 781.869 L1155.88 786.09 
  L1145.38 790.254 L1134.89 794.369 L1124.39 798.44 L1113.89 802.474 L1103.39 806.475 L1092.89 810.447 L1082.39 814.393 L1071.89 818.317 L1061.39 822.221 L1050.89 826.108 
  L1040.4 829.979 L1029.9 833.836 L1019.4 837.682 L1008.9 841.516 L998.4 845.34 L987.901 849.156 L977.402 852.964 L966.903 856.764 L956.404 860.558 L945.905 864.346 
  L935.406 868.128 L924.907 871.906 L914.409 875.679 L903.91 879.447 L893.411 883.212 L882.912 886.974 L872.413 890.732 L861.914 894.487 L851.415 898.239 L840.916 901.989 
  L830.417 905.736 L819.919 909.481 L809.42 913.224 L798.921 916.965 L788.422 920.705 L777.923 924.442 L767.424 928.178 L756.925 931.912 L746.426 935.645 L735.927 939.377 
  L725.429 943.107 L714.93 946.837 L704.431 950.565 L693.932 954.292 L683.433 958.018 L672.934 961.743 L662.435 965.467 L651.936 969.19 L641.438 972.913 L630.939 976.634 
  L620.44 980.355 L609.941 984.075 L599.442 987.795 L588.943 991.514 L578.444 995.232 L567.945 998.95 L557.446 1002.67 L546.948 1006.38 L536.449 1010.1 L525.95 1013.82 
  L515.451 1017.53 L504.952 1021.25 L494.453 1024.96 L483.954 1028.67 L473.455 1032.39 L462.956 1036.1 L452.458 1039.81 L441.959 1043.53 L431.46 1047.24 L420.961 1050.95 
  L410.462 1054.66 L399.963 1058.37 L389.464 1062.08 L378.965 1065.79 L368.466 1069.51 L357.968 1073.22 L347.469 1076.93 L336.97 1080.64 L326.471 1084.34 L315.972 1088.05 
  L305.473 1091.76 L294.974 1095.47 L284.475 1099.18 L273.977 1102.89 L263.478 1106.6 L252.979 1110.3 L242.48 1114.01 L231.981 1117.72 L221.482 1121.43 L210.983 1125.13 
  L200.484 1128.84 L189.985 1132.55  Z
  " fill="#3da44d" fill-rule="evenodd" fill-opacity="0.5"/>
<polyline clip-path="url(#clip662)" style="stroke:#3da44d; stroke-width:4; stroke-opacity:1; fill:none" points="
  189.985,1255.93 200.484,1251.01 210.983,1246.09 221.482,1241.17 231.981,1236.25 242.48,1231.33 252.979,1226.4 263.478,1221.48 273.977,1216.56 284.475,1211.64 
  294.974,1206.72 305.473,1201.8 315.972,1196.88 326.471,1191.96 336.97,1187.04 347.469,1182.12 357.968,1177.19 368.466,1172.27 378.965,1167.35 389.464,1162.43 
  399.963,1157.51 410.462,1152.59 420.961,1147.67 431.46,1142.75 441.959,1137.83 452.458,1132.91 462.956,1127.98 473.455,1123.06 483.954,1118.14 494.453,1113.22 
  504.952,1108.3 515.451,1103.38 525.95,1098.46 536.449,1093.54 546.948,1088.62 557.446,1083.69 567.945,1078.77 578.444,1073.85 588.943,1068.93 599.442,1064.01 
  609.941,1059.09 620.44,1054.17 630.939,1049.25 641.438,1044.33 651.936,1039.41 662.435,1034.48 672.934,1029.56 683.433,1024.64 693.932,1019.72 704.431,1014.8 
  714.93,1009.88 725.429,1004.96 735.927,1000.04 746.426,995.117 756.925,990.196 767.424,985.275 777.923,980.354 788.422,975.432 798.921,970.511 809.42,965.59 
  819.919,960.669 830.417,955.748 840.916,950.827 851.415,945.906 861.914,940.985 872.413,936.064 882.912,931.143 893.411,926.222 903.91,921.301 914.409,916.38 
  924.907,911.459 935.406,906.538 945.905,901.617 956.404,896.696 966.903,891.775 977.402,886.854 987.901,881.933 998.4,877.012 1008.9,872.091 1019.4,867.17 
  1029.9,862.249 1040.4,857.328 1050.89,852.407 1061.39,847.486 1071.89,842.565 1082.39,837.644 1092.89,832.723 1103.39,827.802 1113.89,822.881 1124.39,817.96 
  1134.89,813.039 1145.38,808.118 1155.88,803.197 1166.38,798.276 1176.88,793.355 1187.38,788.434 1197.88,783.513 1208.38,778.592 1218.88,773.671 1229.38,768.75 
  1239.87,763.829 1250.37,758.908 1260.87,753.987 1271.37,749.066 1281.87,744.145 1292.37,739.224 1302.87,734.303 1313.37,729.382 1323.87,724.461 1334.36,719.54 
  1344.86,714.618 1355.36,709.697 1365.86,704.776 1376.36,699.855 1386.86,694.934 1397.36,690.013 1407.86,685.092 1418.36,680.171 1428.85,675.25 1439.35,670.329 
  1449.85,665.408 1460.35,660.487 1470.85,655.566 1481.35,650.645 1491.85,645.724 1502.35,640.803 1512.85,635.882 1523.34,630.961 1533.84,626.04 1544.34,621.119 
  1554.84,616.198 1565.34,611.277 1575.84,606.356 1586.34,601.435 1596.84,596.514 1607.34,591.593 1617.83,586.672 1628.33,581.751 1638.83,576.83 1649.33,571.909 
  1659.83,566.988 1670.33,562.067 1680.83,557.146 1691.33,552.225 1701.82,547.304 1712.32,542.383 1722.82,537.462 1733.32,532.541 1743.82,527.62 1754.32,522.699 
  1764.82,517.778 1775.32,512.857 1785.82,507.936 1796.31,503.015 1806.81,498.094 1817.31,493.173 1827.81,488.252 1838.31,483.331 1848.81,478.41 1859.31,473.489 
  1869.81,468.568 1880.31,463.647 1890.8,458.726 1901.3,453.804 1911.8,448.883 1922.3,443.962 1932.8,439.041 1943.3,434.12 1953.8,429.199 1964.3,424.278 
  1974.8,419.357 1985.29,414.436 1995.79,409.515 2006.29,404.594 2016.79,399.673 2027.29,394.752 2037.79,389.831 2048.29,384.91 2058.79,379.989 2069.29,375.068 
  2079.78,370.147 2090.28,365.226 2100.78,360.305 2111.28,355.384 2121.78,350.463 2132.28,345.542 2142.78,340.621 2153.28,335.7 2163.78,330.779 2174.27,325.858 
  2184.77,320.937 2195.27,316.016 2205.77,311.095 2216.27,306.174 2226.77,301.253 2237.27,296.332 2247.77,291.411 2258.27,286.49 2268.76,281.569 2279.26,276.648 
  2289.76,271.727 
  "/>
<path clip-path="url(#clip660)" d="
M201.184 336.956 L609.065 336.956 L609.065 95.0362 L201.184 95.0362  Z
  " fill="#ffffff" fill-rule="evenodd" fill-opacity="1"/>
<polyline clip-path="url(#clip660)" style="stroke:#000000; stroke-width:4; stroke-opacity:1; fill:none" points="
  201.184,336.956 609.065,336.956 609.065,95.0362 201.184,95.0362 201.184,336.956 
  "/>
<circle clip-path="url(#clip660)" cx="300.107" cy="155.516" r="23" fill="#009af9" fill-rule="evenodd" fill-opacity="1" stroke="#000000" stroke-opacity="1" stroke-width="5.12"/>
<g clip-path="url(#clip660)">
<text style="fill:#000000; fill-opacity:1; font-family:Arial,Helvetica Neue,Helvetica,sans-serif; font-size:48px; text-anchor:start;" transform="rotate(0, 399.03, 173.016)" x="399.03" y="173.016">data     </text>
</g>
<polyline clip-path="url(#clip660)" style="stroke:#e26f46; stroke-width:4; stroke-opacity:1; fill:none" points="
  225.915,215.996 374.299,215.996 
  "/>
<g clip-path="url(#clip660)">
<text style="fill:#000000; fill-opacity:1; font-family:Arial,Helvetica Neue,Helvetica,sans-serif; font-size:48px; text-anchor:start;" transform="rotate(0, 399.03, 233.496)" x="399.03" y="233.496">予測区間</text>
</g>
<polyline clip-path="url(#clip660)" style="stroke:#3da44d; stroke-width:4; stroke-opacity:1; fill:none" points="
  225.915,276.476 374.299,276.476 
  "/>
<g clip-path="url(#clip660)">
<text style="fill:#000000; fill-opacity:1; font-family:Arial,Helvetica Neue,Helvetica,sans-serif; font-size:48px; text-anchor:start;" transform="rotate(0, 399.03, 293.976)" x="399.03" y="293.976">信頼区間</text>
</g>
</svg>
