<?xml version="1.0" encoding="utf-8"?>
<svg xmlns="http://www.w3.org/2000/svg" xmlns:xlink="http://www.w3.org/1999/xlink" width="600" height="400" viewBox="0 0 2400 1600">
<defs>
  <clipPath id="clip330">
    <rect x="0" y="0" width="2400" height="1600"/>
  </clipPath>
</defs>
<path clip-path="url(#clip330)" d="
M0 1600 L2400 1600 L2400 0 L0 0  Z
  " fill="#ffffff" fill-rule="evenodd" fill-opacity="1"/>
<defs>
  <clipPath id="clip331">
    <rect x="480" y="0" width="1681" height="1600"/>
  </clipPath>
</defs>
<path clip-path="url(#clip330)" d="
M191.244 1401.01 L1152.76 1401.01 L1152.76 62.9921 L191.244 62.9921  Z
  " fill="#ffffff" fill-rule="evenodd" fill-opacity="1"/>
<defs>
  <clipPath id="clip332">
    <rect x="191" y="62" width="963" height="1339"/>
  </clipPath>
</defs>
<polyline clip-path="url(#clip332)" style="stroke:#000000; stroke-width:2; stroke-opacity:0.1; fill:none" points="
  191.244,1401.01 191.244,62.9921 
  "/>
<polyline clip-path="url(#clip332)" style="stroke:#000000; stroke-width:2; stroke-opacity:0.1; fill:none" points="
  351.496,1401.01 351.496,62.9921 
  "/>
<polyline clip-path="url(#clip332)" style="stroke:#000000; stroke-width:2; stroke-opacity:0.1; fill:none" points="
  511.748,1401.01 511.748,62.9921 
  "/>
<polyline clip-path="url(#clip332)" style="stroke:#000000; stroke-width:2; stroke-opacity:0.1; fill:none" points="
  672,1401.01 672,62.9921 
  "/>
<polyline clip-path="url(#clip332)" style="stroke:#000000; stroke-width:2; stroke-opacity:0.1; fill:none" points="
  832.252,1401.01 832.252,62.9921 
  "/>
<polyline clip-path="url(#clip332)" style="stroke:#000000; stroke-width:2; stroke-opacity:0.1; fill:none" points="
  992.504,1401.01 992.504,62.9921 
  "/>
<polyline clip-path="url(#clip332)" style="stroke:#000000; stroke-width:2; stroke-opacity:0.1; fill:none" points="
  1152.76,1401.01 1152.76,62.9921 
  "/>
<polyline clip-path="url(#clip330)" style="stroke:#000000; stroke-width:4; stroke-opacity:1; fill:none" points="
  191.244,1401.01 1152.76,1401.01 
  "/>
<polyline clip-path="url(#clip330)" style="stroke:#000000; stroke-width:4; stroke-opacity:1; fill:none" points="
  191.244,1401.01 191.244,1384.95 
  "/>
<polyline clip-path="url(#clip330)" style="stroke:#000000; stroke-width:4; stroke-opacity:1; fill:none" points="
  351.496,1401.01 351.496,1384.95 
  "/>
<polyline clip-path="url(#clip330)" style="stroke:#000000; stroke-width:4; stroke-opacity:1; fill:none" points="
  511.748,1401.01 511.748,1384.95 
  "/>
<polyline clip-path="url(#clip330)" style="stroke:#000000; stroke-width:4; stroke-opacity:1; fill:none" points="
  672,1401.01 672,1384.95 
  "/>
<polyline clip-path="url(#clip330)" style="stroke:#000000; stroke-width:4; stroke-opacity:1; fill:none" points="
  832.252,1401.01 832.252,1384.95 
  "/>
<polyline clip-path="url(#clip330)" style="stroke:#000000; stroke-width:4; stroke-opacity:1; fill:none" points="
  992.504,1401.01 992.504,1384.95 
  "/>
<polyline clip-path="url(#clip330)" style="stroke:#000000; stroke-width:4; stroke-opacity:1; fill:none" points="
  1152.76,1401.01 1152.76,1384.95 
  "/>
<g clip-path="url(#clip330)">
<text style="fill:#000000; fill-opacity:1; font-family:Arial,Helvetica Neue,Helvetica,sans-serif; font-size:48px; text-anchor:middle;" transform="rotate(0, 191.244, 1462.21)" x="191.244" y="1462.21">−3</text>
</g>
<g clip-path="url(#clip330)">
<text style="fill:#000000; fill-opacity:1; font-family:Arial,Helvetica Neue,Helvetica,sans-serif; font-size:48px; text-anchor:middle;" transform="rotate(0, 351.496, 1462.21)" x="351.496" y="1462.21">−2</text>
</g>
<g clip-path="url(#clip330)">
<text style="fill:#000000; fill-opacity:1; font-family:Arial,Helvetica Neue,Helvetica,sans-serif; font-size:48px; text-anchor:middle;" transform="rotate(0, 511.748, 1462.21)" x="511.748" y="1462.21">−1</text>
</g>
<g clip-path="url(#clip330)">
<text style="fill:#000000; fill-opacity:1; font-family:Arial,Helvetica Neue,Helvetica,sans-serif; font-size:48px; text-anchor:middle;" transform="rotate(0, 672, 1462.21)" x="672" y="1462.21">0</text>
</g>
<g clip-path="url(#clip330)">
<text style="fill:#000000; fill-opacity:1; font-family:Arial,Helvetica Neue,Helvetica,sans-serif; font-size:48px; text-anchor:middle;" transform="rotate(0, 832.252, 1462.21)" x="832.252" y="1462.21">1</text>
</g>
<g clip-path="url(#clip330)">
<text style="fill:#000000; fill-opacity:1; font-family:Arial,Helvetica Neue,Helvetica,sans-serif; font-size:48px; text-anchor:middle;" transform="rotate(0, 992.504, 1462.21)" x="992.504" y="1462.21">2</text>
</g>
<g clip-path="url(#clip330)">
<text style="fill:#000000; fill-opacity:1; font-family:Arial,Helvetica Neue,Helvetica,sans-serif; font-size:48px; text-anchor:middle;" transform="rotate(0, 1152.76, 1462.21)" x="1152.76" y="1462.21">3</text>
</g>
<g clip-path="url(#clip330)">
<text style="fill:#000000; fill-opacity:1; font-family:Arial,Helvetica Neue,Helvetica,sans-serif; font-size:66px; text-anchor:middle;" transform="rotate(0, 672, 1534.87)" x="672" y="1534.87">tの値</text>
</g>
<polyline clip-path="url(#clip332)" style="stroke:#000000; stroke-width:2; stroke-opacity:0.1; fill:none" points="
  191.244,1363.14 1152.76,1363.14 
  "/>
<polyline clip-path="url(#clip332)" style="stroke:#000000; stroke-width:2; stroke-opacity:0.1; fill:none" points="
  191.244,1045.83 1152.76,1045.83 
  "/>
<polyline clip-path="url(#clip332)" style="stroke:#000000; stroke-width:2; stroke-opacity:0.1; fill:none" points="
  191.244,728.515 1152.76,728.515 
  "/>
<polyline clip-path="url(#clip332)" style="stroke:#000000; stroke-width:2; stroke-opacity:0.1; fill:none" points="
  191.244,411.203 1152.76,411.203 
  "/>
<polyline clip-path="url(#clip332)" style="stroke:#000000; stroke-width:2; stroke-opacity:0.1; fill:none" points="
  191.244,93.8908 1152.76,93.8908 
  "/>
<polyline clip-path="url(#clip330)" style="stroke:#000000; stroke-width:4; stroke-opacity:1; fill:none" points="
  191.244,1401.01 191.244,62.9921 
  "/>
<polyline clip-path="url(#clip330)" style="stroke:#000000; stroke-width:4; stroke-opacity:1; fill:none" points="
  191.244,1363.14 202.782,1363.14 
  "/>
<polyline clip-path="url(#clip330)" style="stroke:#000000; stroke-width:4; stroke-opacity:1; fill:none" points="
  191.244,1045.83 202.782,1045.83 
  "/>
<polyline clip-path="url(#clip330)" style="stroke:#000000; stroke-width:4; stroke-opacity:1; fill:none" points="
  191.244,728.515 202.782,728.515 
  "/>
<polyline clip-path="url(#clip330)" style="stroke:#000000; stroke-width:4; stroke-opacity:1; fill:none" points="
  191.244,411.203 202.782,411.203 
  "/>
<polyline clip-path="url(#clip330)" style="stroke:#000000; stroke-width:4; stroke-opacity:1; fill:none" points="
  191.244,93.8908 202.782,93.8908 
  "/>
<g clip-path="url(#clip330)">
<text style="fill:#000000; fill-opacity:1; font-family:Arial,Helvetica Neue,Helvetica,sans-serif; font-size:48px; text-anchor:end;" transform="rotate(0, 155.244, 1380.64)" x="155.244" y="1380.64">0.0</text>
</g>
<g clip-path="url(#clip330)">
<text style="fill:#000000; fill-opacity:1; font-family:Arial,Helvetica Neue,Helvetica,sans-serif; font-size:48px; text-anchor:end;" transform="rotate(0, 155.244, 1063.33)" x="155.244" y="1063.33">0.1</text>
</g>
<g clip-path="url(#clip330)">
<text style="fill:#000000; fill-opacity:1; font-family:Arial,Helvetica Neue,Helvetica,sans-serif; font-size:48px; text-anchor:end;" transform="rotate(0, 155.244, 746.015)" x="155.244" y="746.015">0.2</text>
</g>
<g clip-path="url(#clip330)">
<text style="fill:#000000; fill-opacity:1; font-family:Arial,Helvetica Neue,Helvetica,sans-serif; font-size:48px; text-anchor:end;" transform="rotate(0, 155.244, 428.703)" x="155.244" y="428.703">0.3</text>
</g>
<g clip-path="url(#clip330)">
<text style="fill:#000000; fill-opacity:1; font-family:Arial,Helvetica Neue,Helvetica,sans-serif; font-size:48px; text-anchor:end;" transform="rotate(0, 155.244, 111.391)" x="155.244" y="111.391">0.4</text>
</g>
<g clip-path="url(#clip330)">
<text style="fill:#000000; fill-opacity:1; font-family:Arial,Helvetica Neue,Helvetica,sans-serif; font-size:84px; text-anchor:middle;" transform="rotate(0, 672, 73.2)" x="672" y="73.2">帰無仮説が成立する場合</text>
</g>
<path clip-path="url(#clip332)" d="
M-289.512 1356.79 L-289.512 1363.14 L-209.386 1363.14 L-209.386 1356.79 L-289.512 1356.79 L-289.512 1356.79  Z
  " fill="#009af9" fill-rule="evenodd" fill-opacity="1"/>
<polyline clip-path="url(#clip332)" style="stroke:#000000; stroke-width:4; stroke-opacity:1; fill:none" points="
  -289.512,1356.79 -289.512,1363.14 -209.386,1363.14 -209.386,1356.79 -289.512,1356.79 
  "/>
<path clip-path="url(#clip332)" d="
M-209.386 1363.14 L-209.386 1363.14 L-129.26 1363.14 L-129.26 1363.14 L-209.386 1363.14 L-209.386 1363.14  Z
  " fill="#009af9" fill-rule="evenodd" fill-opacity="1"/>
<polyline clip-path="url(#clip332)" style="stroke:#000000; stroke-width:4; stroke-opacity:1; fill:none" points="
  -209.386,1363.14 -209.386,1363.14 -129.26,1363.14 -209.386,1363.14 
  "/>
<path clip-path="url(#clip332)" d="
M-129.26 1363.14 L-129.26 1363.14 L-49.1339 1363.14 L-49.1339 1363.14 L-129.26 1363.14 L-129.26 1363.14  Z
  " fill="#009af9" fill-rule="evenodd" fill-opacity="1"/>
<polyline clip-path="url(#clip332)" style="stroke:#000000; stroke-width:4; stroke-opacity:1; fill:none" points="
  -129.26,1363.14 -129.26,1363.14 -49.1339,1363.14 -129.26,1363.14 
  "/>
<path clip-path="url(#clip332)" d="
M-49.1339 1350.45 L-49.1339 1363.14 L30.9921 1363.14 L30.9921 1350.45 L-49.1339 1350.45 L-49.1339 1350.45  Z
  " fill="#009af9" fill-rule="evenodd" fill-opacity="1"/>
<polyline clip-path="url(#clip332)" style="stroke:#000000; stroke-width:4; stroke-opacity:1; fill:none" points="
  -49.1339,1350.45 -49.1339,1363.14 30.9921,1363.14 30.9921,1350.45 -49.1339,1350.45 
  "/>
<path clip-path="url(#clip332)" d="
M30.9921 1363.14 L30.9921 1363.14 L111.118 1363.14 L111.118 1363.14 L30.9921 1363.14 L30.9921 1363.14  Z
  " fill="#009af9" fill-rule="evenodd" fill-opacity="1"/>
<polyline clip-path="url(#clip332)" style="stroke:#000000; stroke-width:4; stroke-opacity:1; fill:none" points="
  30.9921,1363.14 30.9921,1363.14 111.118,1363.14 30.9921,1363.14 
  "/>
<path clip-path="url(#clip332)" d="
M111.118 1363.14 L111.118 1363.14 L191.244 1363.14 L191.244 1363.14 L111.118 1363.14 L111.118 1363.14  Z
  " fill="#009af9" fill-rule="evenodd" fill-opacity="1"/>
<polyline clip-path="url(#clip332)" style="stroke:#000000; stroke-width:4; stroke-opacity:1; fill:none" points="
  111.118,1363.14 111.118,1363.14 191.244,1363.14 111.118,1363.14 
  "/>
<path clip-path="url(#clip332)" d="
M191.244 1344.1 L191.244 1363.14 L271.37 1363.14 L271.37 1344.1 L191.244 1344.1 L191.244 1344.1  Z
  " fill="#009af9" fill-rule="evenodd" fill-opacity="1"/>
<polyline clip-path="url(#clip332)" style="stroke:#000000; stroke-width:4; stroke-opacity:1; fill:none" points="
  191.244,1344.1 191.244,1363.14 271.37,1363.14 271.37,1344.1 191.244,1344.1 
  "/>
<path clip-path="url(#clip332)" d="
M271.37 1242.56 L271.37 1363.14 L351.496 1363.14 L351.496 1242.56 L271.37 1242.56 L271.37 1242.56  Z
  " fill="#009af9" fill-rule="evenodd" fill-opacity="1"/>
<polyline clip-path="url(#clip332)" style="stroke:#000000; stroke-width:4; stroke-opacity:1; fill:none" points="
  271.37,1242.56 271.37,1363.14 351.496,1363.14 351.496,1242.56 271.37,1242.56 
  "/>
<path clip-path="url(#clip332)" d="
M351.496 1033.13 L351.496 1363.14 L431.622 1363.14 L431.622 1033.13 L351.496 1033.13 L351.496 1033.13  Z
  " fill="#009af9" fill-rule="evenodd" fill-opacity="1"/>
<polyline clip-path="url(#clip332)" style="stroke:#000000; stroke-width:4; stroke-opacity:1; fill:none" points="
  351.496,1033.13 351.496,1363.14 431.622,1363.14 431.622,1033.13 351.496,1033.13 
  "/>
<path clip-path="url(#clip332)" d="
M431.622 747.554 L431.622 1363.14 L511.748 1363.14 L511.748 747.554 L431.622 747.554 L431.622 747.554  Z
  " fill="#009af9" fill-rule="evenodd" fill-opacity="1"/>
<polyline clip-path="url(#clip332)" style="stroke:#000000; stroke-width:4; stroke-opacity:1; fill:none" points="
  431.622,747.554 431.622,1363.14 511.748,1363.14 511.748,747.554 431.622,747.554 
  "/>
<path clip-path="url(#clip332)" d="
M511.748 557.167 L511.748 1363.14 L591.874 1363.14 L591.874 557.167 L511.748 557.167 L511.748 557.167  Z
  " fill="#009af9" fill-rule="evenodd" fill-opacity="1"/>
<polyline clip-path="url(#clip332)" style="stroke:#000000; stroke-width:4; stroke-opacity:1; fill:none" points="
  511.748,557.167 511.748,1363.14 591.874,1363.14 591.874,557.167 511.748,557.167 
  "/>
<path clip-path="url(#clip332)" d="
M591.874 271.586 L591.874 1363.14 L672 1363.14 L672 271.586 L591.874 271.586 L591.874 271.586  Z
  " fill="#009af9" fill-rule="evenodd" fill-opacity="1"/>
<polyline clip-path="url(#clip332)" style="stroke:#000000; stroke-width:4; stroke-opacity:1; fill:none" points="
  591.874,271.586 591.874,1363.14 672,1363.14 672,271.586 591.874,271.586 
  "/>
<path clip-path="url(#clip332)" d="
M672 119.276 L672 1363.14 L752.126 1363.14 L752.126 119.276 L672 119.276 L672 119.276  Z
  " fill="#009af9" fill-rule="evenodd" fill-opacity="1"/>
<polyline clip-path="url(#clip332)" style="stroke:#000000; stroke-width:4; stroke-opacity:1; fill:none" points="
  672,119.276 672,1363.14 752.126,1363.14 752.126,119.276 672,119.276 
  "/>
<path clip-path="url(#clip332)" d="
M752.126 417.549 L752.126 1363.14 L832.252 1363.14 L832.252 417.549 L752.126 417.549 L752.126 417.549  Z
  " fill="#009af9" fill-rule="evenodd" fill-opacity="1"/>
<polyline clip-path="url(#clip332)" style="stroke:#000000; stroke-width:4; stroke-opacity:1; fill:none" points="
  752.126,417.549 752.126,1363.14 832.252,1363.14 832.252,417.549 752.126,417.549 
  "/>
<path clip-path="url(#clip332)" d="
M832.252 760.246 L832.252 1363.14 L912.378 1363.14 L912.378 760.246 L832.252 760.246 L832.252 760.246  Z
  " fill="#009af9" fill-rule="evenodd" fill-opacity="1"/>
<polyline clip-path="url(#clip332)" style="stroke:#000000; stroke-width:4; stroke-opacity:1; fill:none" points="
  832.252,760.246 832.252,1363.14 912.378,1363.14 912.378,760.246 832.252,760.246 
  "/>
<path clip-path="url(#clip332)" d="
M912.378 1058.52 L912.378 1363.14 L992.504 1363.14 L992.504 1058.52 L912.378 1058.52 L912.378 1058.52  Z
  " fill="#009af9" fill-rule="evenodd" fill-opacity="1"/>
<polyline clip-path="url(#clip332)" style="stroke:#000000; stroke-width:4; stroke-opacity:1; fill:none" points="
  912.378,1058.52 912.378,1363.14 992.504,1363.14 992.504,1058.52 912.378,1058.52 
  "/>
<path clip-path="url(#clip332)" d="
M992.504 1191.79 L992.504 1363.14 L1072.63 1363.14 L1072.63 1191.79 L992.504 1191.79 L992.504 1191.79  Z
  " fill="#009af9" fill-rule="evenodd" fill-opacity="1"/>
<polyline clip-path="url(#clip332)" style="stroke:#000000; stroke-width:4; stroke-opacity:1; fill:none" points="
  992.504,1191.79 992.504,1363.14 1072.63,1363.14 1072.63,1191.79 992.504,1191.79 
  "/>
<path clip-path="url(#clip332)" d="
M1072.63 1306.02 L1072.63 1363.14 L1152.76 1363.14 L1152.76 1306.02 L1072.63 1306.02 L1072.63 1306.02  Z
  " fill="#009af9" fill-rule="evenodd" fill-opacity="1"/>
<polyline clip-path="url(#clip332)" style="stroke:#000000; stroke-width:4; stroke-opacity:1; fill:none" points="
  1072.63,1306.02 1072.63,1363.14 1152.76,1363.14 1152.76,1306.02 1072.63,1306.02 
  "/>
<path clip-path="url(#clip332)" d="
M1152.76 1356.79 L1152.76 1363.14 L1232.88 1363.14 L1232.88 1356.79 L1152.76 1356.79 L1152.76 1356.79  Z
  " fill="#009af9" fill-rule="evenodd" fill-opacity="1"/>
<polyline clip-path="url(#clip332)" style="stroke:#000000; stroke-width:4; stroke-opacity:1; fill:none" points="
  1152.76,1356.79 1152.76,1363.14 1232.88,1363.14 1232.88,1356.79 1152.76,1356.79 
  "/>
<path clip-path="url(#clip332)" d="
M1232.88 1350.45 L1232.88 1363.14 L1313.01 1363.14 L1313.01 1350.45 L1232.88 1350.45 L1232.88 1350.45  Z
  " fill="#009af9" fill-rule="evenodd" fill-opacity="1"/>
<polyline clip-path="url(#clip332)" style="stroke:#000000; stroke-width:4; stroke-opacity:1; fill:none" points="
  1232.88,1350.45 1232.88,1363.14 1313.01,1363.14 1313.01,1350.45 1232.88,1350.45 
  "/>
<polyline clip-path="url(#clip332)" style="stroke:#e26f46; stroke-width:4; stroke-opacity:1; fill:none" points="
  -129.26,1363.12 -113.61,1363.12 31.0962,1362.43 118.058,1358.89 191.584,1346.73 231.519,1331.17 271.453,1303.88 289.861,1285.74 308.27,1263.16 326.678,1235.47 
  345.086,1201.99 364.821,1158.95 384.557,1107.95 404.292,1048.61 424.028,980.882 446.893,892.442 469.759,794.655 492.624,689.872 515.489,581.402 535.81,485.259 
  556.13,392.83 576.45,307.676 596.77,233.345 614.589,179.682 632.408,138.796 650.227,112.19 668.046,100.86 677.759,101.296 687.473,106.404 697.187,116.127 
  706.9,130.355 726.328,171.645 745.755,228.462 765.298,298.84 784.841,379.586 804.384,467.555 823.927,559.567 867.141,762.728 910.355,944.933 930.914,1019.45 
  951.472,1085 972.031,1141.43 992.59,1189.03 1013.97,1229.82 1035.34,1262.63 1056.72,1288.53 1078.09,1308.58 1114.08,1331.98 1150.07,1346.05 1237.95,1359.78 
  1320.55,1362.54 1452.89,1363.11 1473.26,1363.12 
  "/>
<path clip-path="url(#clip330)" d="
M1391.24 1401.01 L2352.76 1401.01 L2352.76 62.9921 L1391.24 62.9921  Z
  " fill="#ffffff" fill-rule="evenodd" fill-opacity="1"/>
<defs>
  <clipPath id="clip333">
    <rect x="1391" y="62" width="963" height="1339"/>
  </clipPath>
</defs>
<polyline clip-path="url(#clip333)" style="stroke:#000000; stroke-width:2; stroke-opacity:0.1; fill:none" points="
  1391.24,1401.01 1391.24,62.9921 
  "/>
<polyline clip-path="url(#clip333)" style="stroke:#000000; stroke-width:2; stroke-opacity:0.1; fill:none" points="
  1551.5,1401.01 1551.5,62.9921 
  "/>
<polyline clip-path="url(#clip333)" style="stroke:#000000; stroke-width:2; stroke-opacity:0.1; fill:none" points="
  1711.75,1401.01 1711.75,62.9921 
  "/>
<polyline clip-path="url(#clip333)" style="stroke:#000000; stroke-width:2; stroke-opacity:0.1; fill:none" points="
  1872,1401.01 1872,62.9921 
  "/>
<polyline clip-path="url(#clip333)" style="stroke:#000000; stroke-width:2; stroke-opacity:0.1; fill:none" points="
  2032.25,1401.01 2032.25,62.9921 
  "/>
<polyline clip-path="url(#clip333)" style="stroke:#000000; stroke-width:2; stroke-opacity:0.1; fill:none" points="
  2192.5,1401.01 2192.5,62.9921 
  "/>
<polyline clip-path="url(#clip333)" style="stroke:#000000; stroke-width:2; stroke-opacity:0.1; fill:none" points="
  2352.76,1401.01 2352.76,62.9921 
  "/>
<polyline clip-path="url(#clip330)" style="stroke:#000000; stroke-width:4; stroke-opacity:1; fill:none" points="
  1391.24,1401.01 2352.76,1401.01 
  "/>
<polyline clip-path="url(#clip330)" style="stroke:#000000; stroke-width:4; stroke-opacity:1; fill:none" points="
  1391.24,1401.01 1391.24,1384.95 
  "/>
<polyline clip-path="url(#clip330)" style="stroke:#000000; stroke-width:4; stroke-opacity:1; fill:none" points="
  1551.5,1401.01 1551.5,1384.95 
  "/>
<polyline clip-path="url(#clip330)" style="stroke:#000000; stroke-width:4; stroke-opacity:1; fill:none" points="
  1711.75,1401.01 1711.75,1384.95 
  "/>
<polyline clip-path="url(#clip330)" style="stroke:#000000; stroke-width:4; stroke-opacity:1; fill:none" points="
  1872,1401.01 1872,1384.95 
  "/>
<polyline clip-path="url(#clip330)" style="stroke:#000000; stroke-width:4; stroke-opacity:1; fill:none" points="
  2032.25,1401.01 2032.25,1384.95 
  "/>
<polyline clip-path="url(#clip330)" style="stroke:#000000; stroke-width:4; stroke-opacity:1; fill:none" points="
  2192.5,1401.01 2192.5,1384.95 
  "/>
<polyline clip-path="url(#clip330)" style="stroke:#000000; stroke-width:4; stroke-opacity:1; fill:none" points="
  2352.76,1401.01 2352.76,1384.95 
  "/>
<g clip-path="url(#clip330)">
<text style="fill:#000000; fill-opacity:1; font-family:Arial,Helvetica Neue,Helvetica,sans-serif; font-size:48px; text-anchor:middle;" transform="rotate(0, 1391.24, 1462.21)" x="1391.24" y="1462.21">−3</text>
</g>
<g clip-path="url(#clip330)">
<text style="fill:#000000; fill-opacity:1; font-family:Arial,Helvetica Neue,Helvetica,sans-serif; font-size:48px; text-anchor:middle;" transform="rotate(0, 1551.5, 1462.21)" x="1551.5" y="1462.21">−2</text>
</g>
<g clip-path="url(#clip330)">
<text style="fill:#000000; fill-opacity:1; font-family:Arial,Helvetica Neue,Helvetica,sans-serif; font-size:48px; text-anchor:middle;" transform="rotate(0, 1711.75, 1462.21)" x="1711.75" y="1462.21">−1</text>
</g>
<g clip-path="url(#clip330)">
<text style="fill:#000000; fill-opacity:1; font-family:Arial,Helvetica Neue,Helvetica,sans-serif; font-size:48px; text-anchor:middle;" transform="rotate(0, 1872, 1462.21)" x="1872" y="1462.21">0</text>
</g>
<g clip-path="url(#clip330)">
<text style="fill:#000000; fill-opacity:1; font-family:Arial,Helvetica Neue,Helvetica,sans-serif; font-size:48px; text-anchor:middle;" transform="rotate(0, 2032.25, 1462.21)" x="2032.25" y="1462.21">1</text>
</g>
<g clip-path="url(#clip330)">
<text style="fill:#000000; fill-opacity:1; font-family:Arial,Helvetica Neue,Helvetica,sans-serif; font-size:48px; text-anchor:middle;" transform="rotate(0, 2192.5, 1462.21)" x="2192.5" y="1462.21">2</text>
</g>
<g clip-path="url(#clip330)">
<text style="fill:#000000; fill-opacity:1; font-family:Arial,Helvetica Neue,Helvetica,sans-serif; font-size:48px; text-anchor:middle;" transform="rotate(0, 2352.76, 1462.21)" x="2352.76" y="1462.21">3</text>
</g>
<g clip-path="url(#clip330)">
<text style="fill:#000000; fill-opacity:1; font-family:Arial,Helvetica Neue,Helvetica,sans-serif; font-size:66px; text-anchor:middle;" transform="rotate(0, 1872, 1534.87)" x="1872" y="1534.87">tの値</text>
</g>
<polyline clip-path="url(#clip333)" style="stroke:#000000; stroke-width:2; stroke-opacity:0.1; fill:none" points="
  1391.24,1363.14 2352.76,1363.14 
  "/>
<polyline clip-path="url(#clip333)" style="stroke:#000000; stroke-width:2; stroke-opacity:0.1; fill:none" points="
  1391.24,1045.83 2352.76,1045.83 
  "/>
<polyline clip-path="url(#clip333)" style="stroke:#000000; stroke-width:2; stroke-opacity:0.1; fill:none" points="
  1391.24,728.515 2352.76,728.515 
  "/>
<polyline clip-path="url(#clip333)" style="stroke:#000000; stroke-width:2; stroke-opacity:0.1; fill:none" points="
  1391.24,411.203 2352.76,411.203 
  "/>
<polyline clip-path="url(#clip333)" style="stroke:#000000; stroke-width:2; stroke-opacity:0.1; fill:none" points="
  1391.24,93.8908 2352.76,93.8908 
  "/>
<polyline clip-path="url(#clip330)" style="stroke:#000000; stroke-width:4; stroke-opacity:1; fill:none" points="
  1391.24,1401.01 1391.24,62.9921 
  "/>
<polyline clip-path="url(#clip330)" style="stroke:#000000; stroke-width:4; stroke-opacity:1; fill:none" points="
  1391.24,1363.14 1402.78,1363.14 
  "/>
<polyline clip-path="url(#clip330)" style="stroke:#000000; stroke-width:4; stroke-opacity:1; fill:none" points="
  1391.24,1045.83 1402.78,1045.83 
  "/>
<polyline clip-path="url(#clip330)" style="stroke:#000000; stroke-width:4; stroke-opacity:1; fill:none" points="
  1391.24,728.515 1402.78,728.515 
  "/>
<polyline clip-path="url(#clip330)" style="stroke:#000000; stroke-width:4; stroke-opacity:1; fill:none" points="
  1391.24,411.203 1402.78,411.203 
  "/>
<polyline clip-path="url(#clip330)" style="stroke:#000000; stroke-width:4; stroke-opacity:1; fill:none" points="
  1391.24,93.8908 1402.78,93.8908 
  "/>
<g clip-path="url(#clip330)">
<text style="fill:#000000; fill-opacity:1; font-family:Arial,Helvetica Neue,Helvetica,sans-serif; font-size:48px; text-anchor:end;" transform="rotate(0, 1355.24, 1380.64)" x="1355.24" y="1380.64">0.0</text>
</g>
<g clip-path="url(#clip330)">
<text style="fill:#000000; fill-opacity:1; font-family:Arial,Helvetica Neue,Helvetica,sans-serif; font-size:48px; text-anchor:end;" transform="rotate(0, 1355.24, 1063.33)" x="1355.24" y="1063.33">0.1</text>
</g>
<g clip-path="url(#clip330)">
<text style="fill:#000000; fill-opacity:1; font-family:Arial,Helvetica Neue,Helvetica,sans-serif; font-size:48px; text-anchor:end;" transform="rotate(0, 1355.24, 746.015)" x="1355.24" y="746.015">0.2</text>
</g>
<g clip-path="url(#clip330)">
<text style="fill:#000000; fill-opacity:1; font-family:Arial,Helvetica Neue,Helvetica,sans-serif; font-size:48px; text-anchor:end;" transform="rotate(0, 1355.24, 428.703)" x="1355.24" y="428.703">0.3</text>
</g>
<g clip-path="url(#clip330)">
<text style="fill:#000000; fill-opacity:1; font-family:Arial,Helvetica Neue,Helvetica,sans-serif; font-size:48px; text-anchor:end;" transform="rotate(0, 1355.24, 111.391)" x="1355.24" y="111.391">0.4</text>
</g>
<g clip-path="url(#clip330)">
<text style="fill:#000000; fill-opacity:1; font-family:Arial,Helvetica Neue,Helvetica,sans-serif; font-size:84px; text-anchor:middle;" transform="rotate(0, 1872, 73.2)" x="1872" y="73.2">帰無仮説が成立しない場合</text>
</g>
<path clip-path="url(#clip333)" d="
M1311.12 1356.79 L1311.12 1363.14 L1391.24 1363.14 L1391.24 1356.79 L1311.12 1356.79 L1311.12 1356.79  Z
  " fill="#009af9" fill-rule="evenodd" fill-opacity="1"/>
<polyline clip-path="url(#clip333)" style="stroke:#000000; stroke-width:4; stroke-opacity:1; fill:none" points="
  1311.12,1356.79 1311.12,1363.14 1391.24,1363.14 1391.24,1356.79 1311.12,1356.79 
  "/>
<path clip-path="url(#clip333)" d="
M1391.24 1363.14 L1391.24 1363.14 L1471.37 1363.14 L1471.37 1363.14 L1391.24 1363.14 L1391.24 1363.14  Z
  " fill="#009af9" fill-rule="evenodd" fill-opacity="1"/>
<polyline clip-path="url(#clip333)" style="stroke:#000000; stroke-width:4; stroke-opacity:1; fill:none" points="
  1391.24,1363.14 1391.24,1363.14 1471.37,1363.14 1391.24,1363.14 
  "/>
<path clip-path="url(#clip333)" d="
M1471.37 1344.1 L1471.37 1363.14 L1551.5 1363.14 L1551.5 1344.1 L1471.37 1344.1 L1471.37 1344.1  Z
  " fill="#009af9" fill-rule="evenodd" fill-opacity="1"/>
<polyline clip-path="url(#clip333)" style="stroke:#000000; stroke-width:4; stroke-opacity:1; fill:none" points="
  1471.37,1344.1 1471.37,1363.14 1551.5,1363.14 1551.5,1344.1 1471.37,1344.1 
  "/>
<path clip-path="url(#clip333)" d="
M1551.5 1344.1 L1551.5 1363.14 L1631.62 1363.14 L1631.62 1344.1 L1551.5 1344.1 L1551.5 1344.1  Z
  " fill="#009af9" fill-rule="evenodd" fill-opacity="1"/>
<polyline clip-path="url(#clip333)" style="stroke:#000000; stroke-width:4; stroke-opacity:1; fill:none" points="
  1551.5,1344.1 1551.5,1363.14 1631.62,1363.14 1631.62,1344.1 1551.5,1344.1 
  "/>
<path clip-path="url(#clip333)" d="
M1631.62 1293.33 L1631.62 1363.14 L1711.75 1363.14 L1711.75 1293.33 L1631.62 1293.33 L1631.62 1293.33  Z
  " fill="#009af9" fill-rule="evenodd" fill-opacity="1"/>
<polyline clip-path="url(#clip333)" style="stroke:#000000; stroke-width:4; stroke-opacity:1; fill:none" points="
  1631.62,1293.33 1631.62,1363.14 1711.75,1363.14 1711.75,1293.33 1631.62,1293.33 
  "/>
<path clip-path="url(#clip333)" d="
M1711.75 1096.6 L1711.75 1363.14 L1791.87 1363.14 L1791.87 1096.6 L1711.75 1096.6 L1711.75 1096.6  Z
  " fill="#009af9" fill-rule="evenodd" fill-opacity="1"/>
<polyline clip-path="url(#clip333)" style="stroke:#000000; stroke-width:4; stroke-opacity:1; fill:none" points="
  1711.75,1096.6 1711.75,1363.14 1791.87,1363.14 1791.87,1096.6 1711.75,1096.6 
  "/>
<path clip-path="url(#clip333)" d="
M1791.87 791.978 L1791.87 1363.14 L1872 1363.14 L1872 791.978 L1791.87 791.978 L1791.87 791.978  Z
  " fill="#009af9" fill-rule="evenodd" fill-opacity="1"/>
<polyline clip-path="url(#clip333)" style="stroke:#000000; stroke-width:4; stroke-opacity:1; fill:none" points="
  1791.87,791.978 1791.87,1363.14 1872,1363.14 1872,791.978 1791.87,791.978 
  "/>
<path clip-path="url(#clip333)" d="
M1872 468.319 L1872 1363.14 L1952.13 1363.14 L1952.13 468.319 L1872 468.319 L1872 468.319  Z
  " fill="#009af9" fill-rule="evenodd" fill-opacity="1"/>
<polyline clip-path="url(#clip333)" style="stroke:#000000; stroke-width:4; stroke-opacity:1; fill:none" points="
  1872,468.319 1872,1363.14 1952.13,1363.14 1952.13,468.319 1872,468.319 
  "/>
<path clip-path="url(#clip333)" d="
M1952.13 239.854 L1952.13 1363.14 L2032.25 1363.14 L2032.25 239.854 L1952.13 239.854 L1952.13 239.854  Z
  " fill="#009af9" fill-rule="evenodd" fill-opacity="1"/>
<polyline clip-path="url(#clip333)" style="stroke:#000000; stroke-width:4; stroke-opacity:1; fill:none" points="
  1952.13,239.854 1952.13,1363.14 2032.25,1363.14 2032.25,239.854 1952.13,239.854 
  "/>
<path clip-path="url(#clip333)" d="
M2032.25 112.93 L2032.25 1363.14 L2112.38 1363.14 L2112.38 112.93 L2032.25 112.93 L2032.25 112.93  Z
  " fill="#009af9" fill-rule="evenodd" fill-opacity="1"/>
<polyline clip-path="url(#clip333)" style="stroke:#000000; stroke-width:4; stroke-opacity:1; fill:none" points="
  2032.25,112.93 2032.25,1363.14 2112.38,1363.14 2112.38,112.93 2032.25,112.93 
  "/>
<path clip-path="url(#clip333)" d="
M2112.38 506.397 L2112.38 1363.14 L2192.5 1363.14 L2192.5 506.397 L2112.38 506.397 L2112.38 506.397  Z
  " fill="#009af9" fill-rule="evenodd" fill-opacity="1"/>
<polyline clip-path="url(#clip333)" style="stroke:#000000; stroke-width:4; stroke-opacity:1; fill:none" points="
  2112.38,506.397 2112.38,1363.14 2192.5,1363.14 2192.5,506.397 2112.38,506.397 
  "/>
<path clip-path="url(#clip333)" d="
M2192.5 709.476 L2192.5 1363.14 L2272.63 1363.14 L2272.63 709.476 L2192.5 709.476 L2192.5 709.476  Z
  " fill="#009af9" fill-rule="evenodd" fill-opacity="1"/>
<polyline clip-path="url(#clip333)" style="stroke:#000000; stroke-width:4; stroke-opacity:1; fill:none" points="
  2192.5,709.476 2192.5,1363.14 2272.63,1363.14 2272.63,709.476 2192.5,709.476 
  "/>
<path clip-path="url(#clip333)" d="
M2272.63 1045.83 L2272.63 1363.14 L2352.76 1363.14 L2352.76 1045.83 L2272.63 1045.83 L2272.63 1045.83  Z
  " fill="#009af9" fill-rule="evenodd" fill-opacity="1"/>
<polyline clip-path="url(#clip333)" style="stroke:#000000; stroke-width:4; stroke-opacity:1; fill:none" points="
  2272.63,1045.83 2272.63,1363.14 2352.76,1363.14 2352.76,1045.83 2272.63,1045.83 
  "/>
<path clip-path="url(#clip333)" d="
M2352.76 1179.1 L2352.76 1363.14 L2432.88 1363.14 L2432.88 1179.1 L2352.76 1179.1 L2352.76 1179.1  Z
  " fill="#009af9" fill-rule="evenodd" fill-opacity="1"/>
<polyline clip-path="url(#clip333)" style="stroke:#000000; stroke-width:4; stroke-opacity:1; fill:none" points="
  2352.76,1179.1 2352.76,1363.14 2432.88,1363.14 2432.88,1179.1 2352.76,1179.1 
  "/>
<path clip-path="url(#clip333)" d="
M2432.88 1299.68 L2432.88 1363.14 L2513.01 1363.14 L2513.01 1299.68 L2432.88 1299.68 L2432.88 1299.68  Z
  " fill="#009af9" fill-rule="evenodd" fill-opacity="1"/>
<polyline clip-path="url(#clip333)" style="stroke:#000000; stroke-width:4; stroke-opacity:1; fill:none" points="
  2432.88,1299.68 2432.88,1363.14 2513.01,1363.14 2513.01,1299.68 2432.88,1299.68 
  "/>
<path clip-path="url(#clip333)" d="
M2513.01 1325.06 L2513.01 1363.14 L2593.13 1363.14 L2593.13 1325.06 L2513.01 1325.06 L2513.01 1325.06  Z
  " fill="#009af9" fill-rule="evenodd" fill-opacity="1"/>
<polyline clip-path="url(#clip333)" style="stroke:#000000; stroke-width:4; stroke-opacity:1; fill:none" points="
  2513.01,1325.06 2513.01,1363.14 2593.13,1363.14 2593.13,1325.06 2513.01,1325.06 
  "/>
<path clip-path="url(#clip333)" d="
M2593.13 1350.45 L2593.13 1363.14 L2673.26 1363.14 L2673.26 1350.45 L2593.13 1350.45 L2593.13 1350.45  Z
  " fill="#009af9" fill-rule="evenodd" fill-opacity="1"/>
<polyline clip-path="url(#clip333)" style="stroke:#000000; stroke-width:4; stroke-opacity:1; fill:none" points="
  2593.13,1350.45 2593.13,1363.14 2673.26,1363.14 2673.26,1350.45 2593.13,1350.45 
  "/>
<polyline clip-path="url(#clip333)" style="stroke:#e26f46; stroke-width:4; stroke-opacity:1; fill:none" points="
  1070.74,1363.12 1086.39,1363.12 1231.1,1362.43 1318.06,1358.89 1391.58,1346.73 1431.52,1331.17 1471.45,1303.88 1489.86,1285.74 1508.27,1263.16 1526.68,1235.47 
  1545.09,1201.99 1564.82,1158.95 1584.56,1107.95 1604.29,1048.61 1624.03,980.882 1646.89,892.442 1669.76,794.655 1692.62,689.872 1715.49,581.402 1735.81,485.259 
  1756.13,392.83 1776.45,307.676 1796.77,233.345 1814.59,179.682 1832.41,138.796 1850.23,112.19 1868.05,100.86 1877.76,101.296 1887.47,106.404 1897.19,116.127 
  1906.9,130.355 1926.33,171.645 1945.76,228.462 1965.3,298.84 1984.84,379.586 2004.38,467.555 2023.93,559.567 2067.14,762.728 2110.36,944.933 2130.91,1019.45 
  2151.47,1085 2172.03,1141.43 2192.59,1189.03 2213.97,1229.82 2235.34,1262.63 2256.72,1288.53 2278.09,1308.58 2314.08,1331.98 2350.07,1346.05 2437.95,1359.78 
  2520.55,1362.54 2652.89,1363.11 2673.26,1363.12 
  "/>
</svg>
