<?xml version="1.0" encoding="utf-8"?>
<svg xmlns="http://www.w3.org/2000/svg" xmlns:xlink="http://www.w3.org/1999/xlink" width="600" height="400" viewBox="0 0 2400 1600">
<defs>
  <clipPath id="clip780">
    <rect x="0" y="0" width="2400" height="1600"/>
  </clipPath>
</defs>
<path clip-path="url(#clip780)" d="
M0 1600 L2400 1600 L2400 0 L0 0  Z
  " fill="#ffffff" fill-rule="evenodd" fill-opacity="1"/>
<defs>
  <clipPath id="clip781">
    <rect x="480" y="0" width="1681" height="1600"/>
  </clipPath>
</defs>
<path clip-path="url(#clip780)" d="
M258.15 1383.22 L2352.76 1383.22 L2352.76 121.675 L258.15 121.675  Z
  " fill="#ffffff" fill-rule="evenodd" fill-opacity="1"/>
<defs>
  <clipPath id="clip782">
    <rect x="258" y="121" width="2096" height="1263"/>
  </clipPath>
</defs>
<polyline clip-path="url(#clip782)" style="stroke:#000000; stroke-linecap:butt; stroke-linejoin:round; stroke-width:2; stroke-opacity:0.1; fill:none" points="
  258.15,1383.22 258.15,121.675 
  "/>
<polyline clip-path="url(#clip782)" style="stroke:#000000; stroke-linecap:butt; stroke-linejoin:round; stroke-width:2; stroke-opacity:0.1; fill:none" points="
  781.801,1383.22 781.801,121.675 
  "/>
<polyline clip-path="url(#clip782)" style="stroke:#000000; stroke-linecap:butt; stroke-linejoin:round; stroke-width:2; stroke-opacity:0.1; fill:none" points="
  1305.45,1383.22 1305.45,121.675 
  "/>
<polyline clip-path="url(#clip782)" style="stroke:#000000; stroke-linecap:butt; stroke-linejoin:round; stroke-width:2; stroke-opacity:0.1; fill:none" points="
  1829.1,1383.22 1829.1,121.675 
  "/>
<polyline clip-path="url(#clip782)" style="stroke:#000000; stroke-linecap:butt; stroke-linejoin:round; stroke-width:2; stroke-opacity:0.1; fill:none" points="
  2352.76,1383.22 2352.76,121.675 
  "/>
<polyline clip-path="url(#clip780)" style="stroke:#000000; stroke-linecap:butt; stroke-linejoin:round; stroke-width:4; stroke-opacity:1; fill:none" points="
  258.15,1383.22 2352.76,1383.22 
  "/>
<polyline clip-path="url(#clip780)" style="stroke:#000000; stroke-linecap:butt; stroke-linejoin:round; stroke-width:4; stroke-opacity:1; fill:none" points="
  258.15,1383.22 258.15,1364.33 
  "/>
<polyline clip-path="url(#clip780)" style="stroke:#000000; stroke-linecap:butt; stroke-linejoin:round; stroke-width:4; stroke-opacity:1; fill:none" points="
  781.801,1383.22 781.801,1364.33 
  "/>
<polyline clip-path="url(#clip780)" style="stroke:#000000; stroke-linecap:butt; stroke-linejoin:round; stroke-width:4; stroke-opacity:1; fill:none" points="
  1305.45,1383.22 1305.45,1364.33 
  "/>
<polyline clip-path="url(#clip780)" style="stroke:#000000; stroke-linecap:butt; stroke-linejoin:round; stroke-width:4; stroke-opacity:1; fill:none" points="
  1829.1,1383.22 1829.1,1364.33 
  "/>
<polyline clip-path="url(#clip780)" style="stroke:#000000; stroke-linecap:butt; stroke-linejoin:round; stroke-width:4; stroke-opacity:1; fill:none" points="
  2352.76,1383.22 2352.76,1364.33 
  "/>
<g clip-path="url(#clip780)">
<text style="fill:#000000; fill-opacity:1; font-family:Arial,Helvetica Neue,Helvetica,sans-serif; font-size:48px; text-anchor:middle;" transform="rotate(0, 258.15, 1444.42)" x="258.15" y="1444.42">0</text>
</g>
<g clip-path="url(#clip780)">
<text style="fill:#000000; fill-opacity:1; font-family:Arial,Helvetica Neue,Helvetica,sans-serif; font-size:48px; text-anchor:middle;" transform="rotate(0, 781.801, 1444.42)" x="781.801" y="1444.42">2</text>
</g>
<g clip-path="url(#clip780)">
<text style="fill:#000000; fill-opacity:1; font-family:Arial,Helvetica Neue,Helvetica,sans-serif; font-size:48px; text-anchor:middle;" transform="rotate(0, 1305.45, 1444.42)" x="1305.45" y="1444.42">4</text>
</g>
<g clip-path="url(#clip780)">
<text style="fill:#000000; fill-opacity:1; font-family:Arial,Helvetica Neue,Helvetica,sans-serif; font-size:48px; text-anchor:middle;" transform="rotate(0, 1829.1, 1444.42)" x="1829.1" y="1444.42">6</text>
</g>
<g clip-path="url(#clip780)">
<text style="fill:#000000; fill-opacity:1; font-family:Arial,Helvetica Neue,Helvetica,sans-serif; font-size:48px; text-anchor:middle;" transform="rotate(0, 2352.76, 1444.42)" x="2352.76" y="1444.42">8</text>
</g>
<polyline clip-path="url(#clip782)" style="stroke:#000000; stroke-linecap:butt; stroke-linejoin:round; stroke-width:2; stroke-opacity:0.1; fill:none" points="
  258.15,1383.22 2352.76,1383.22 
  "/>
<polyline clip-path="url(#clip782)" style="stroke:#000000; stroke-linecap:butt; stroke-linejoin:round; stroke-width:2; stroke-opacity:0.1; fill:none" points="
  258.15,1130.91 2352.76,1130.91 
  "/>
<polyline clip-path="url(#clip782)" style="stroke:#000000; stroke-linecap:butt; stroke-linejoin:round; stroke-width:2; stroke-opacity:0.1; fill:none" points="
  258.15,878.604 2352.76,878.604 
  "/>
<polyline clip-path="url(#clip782)" style="stroke:#000000; stroke-linecap:butt; stroke-linejoin:round; stroke-width:2; stroke-opacity:0.1; fill:none" points="
  258.15,626.294 2352.76,626.294 
  "/>
<polyline clip-path="url(#clip782)" style="stroke:#000000; stroke-linecap:butt; stroke-linejoin:round; stroke-width:2; stroke-opacity:0.1; fill:none" points="
  258.15,373.985 2352.76,373.985 
  "/>
<polyline clip-path="url(#clip782)" style="stroke:#000000; stroke-linecap:butt; stroke-linejoin:round; stroke-width:2; stroke-opacity:0.1; fill:none" points="
  258.15,121.675 2352.76,121.675 
  "/>
<polyline clip-path="url(#clip780)" style="stroke:#000000; stroke-linecap:butt; stroke-linejoin:round; stroke-width:4; stroke-opacity:1; fill:none" points="
  258.15,1383.22 258.15,121.675 
  "/>
<polyline clip-path="url(#clip780)" style="stroke:#000000; stroke-linecap:butt; stroke-linejoin:round; stroke-width:4; stroke-opacity:1; fill:none" points="
  258.15,1383.22 277.048,1383.22 
  "/>
<polyline clip-path="url(#clip780)" style="stroke:#000000; stroke-linecap:butt; stroke-linejoin:round; stroke-width:4; stroke-opacity:1; fill:none" points="
  258.15,1130.91 277.048,1130.91 
  "/>
<polyline clip-path="url(#clip780)" style="stroke:#000000; stroke-linecap:butt; stroke-linejoin:round; stroke-width:4; stroke-opacity:1; fill:none" points="
  258.15,878.604 277.048,878.604 
  "/>
<polyline clip-path="url(#clip780)" style="stroke:#000000; stroke-linecap:butt; stroke-linejoin:round; stroke-width:4; stroke-opacity:1; fill:none" points="
  258.15,626.294 277.048,626.294 
  "/>
<polyline clip-path="url(#clip780)" style="stroke:#000000; stroke-linecap:butt; stroke-linejoin:round; stroke-width:4; stroke-opacity:1; fill:none" points="
  258.15,373.985 277.048,373.985 
  "/>
<polyline clip-path="url(#clip780)" style="stroke:#000000; stroke-linecap:butt; stroke-linejoin:round; stroke-width:4; stroke-opacity:1; fill:none" points="
  258.15,121.675 277.048,121.675 
  "/>
<g clip-path="url(#clip780)">
<text style="fill:#000000; fill-opacity:1; font-family:Arial,Helvetica Neue,Helvetica,sans-serif; font-size:48px; text-anchor:end;" transform="rotate(0, 222.15, 1400.72)" x="222.15" y="1400.72">0.0</text>
</g>
<g clip-path="url(#clip780)">
<text style="fill:#000000; fill-opacity:1; font-family:Arial,Helvetica Neue,Helvetica,sans-serif; font-size:48px; text-anchor:end;" transform="rotate(0, 222.15, 1148.41)" x="222.15" y="1148.41">0.2</text>
</g>
<g clip-path="url(#clip780)">
<text style="fill:#000000; fill-opacity:1; font-family:Arial,Helvetica Neue,Helvetica,sans-serif; font-size:48px; text-anchor:end;" transform="rotate(0, 222.15, 896.104)" x="222.15" y="896.104">0.4</text>
</g>
<g clip-path="url(#clip780)">
<text style="fill:#000000; fill-opacity:1; font-family:Arial,Helvetica Neue,Helvetica,sans-serif; font-size:48px; text-anchor:end;" transform="rotate(0, 222.15, 643.794)" x="222.15" y="643.794">0.6</text>
</g>
<g clip-path="url(#clip780)">
<text style="fill:#000000; fill-opacity:1; font-family:Arial,Helvetica Neue,Helvetica,sans-serif; font-size:48px; text-anchor:end;" transform="rotate(0, 222.15, 391.485)" x="222.15" y="391.485">0.8</text>
</g>
<g clip-path="url(#clip780)">
<text style="fill:#000000; fill-opacity:1; font-family:Arial,Helvetica Neue,Helvetica,sans-serif; font-size:48px; text-anchor:end;" transform="rotate(0, 222.15, 139.175)" x="222.15" y="139.175">1.0</text>
</g>
<g clip-path="url(#clip780)">
<text style="fill:#000000; fill-opacity:1; font-family:Arial,Helvetica Neue,Helvetica,sans-serif; font-size:84px; text-anchor:middle;" transform="rotate(0, 1305.45, 73.2)" x="1305.45" y="73.2">DOF of chi</text>
</g>
<polyline clip-path="url(#clip782)" style="stroke:#009af9; stroke-linecap:butt; stroke-linejoin:round; stroke-width:4; stroke-opacity:1; fill:none" points="
  284.333,-130.684 310.515,364.938 336.698,592.346 362.88,731.707 389.063,828.91 415.245,901.885 441.428,959.325 467.611,1006.04 493.793,1044.96 519.976,1077.97 
  546.158,1106.37 572.341,1131.08 598.523,1152.79 624.706,1172 650.889,1189.11 677.071,1204.44 703.254,1218.24 729.436,1230.71 755.619,1242.02 781.801,1252.3 
  807.984,1261.69 834.167,1270.27 860.349,1278.14 886.532,1285.37 912.714,1292.03 938.897,1298.16 965.079,1303.82 991.262,1309.05 1017.44,1313.9 1043.63,1318.39 
  1069.81,1322.55 1095.99,1326.42 1122.17,1330.02 1148.36,1333.36 1174.54,1336.47 1200.72,1339.38 1226.91,1342.08 1253.09,1344.61 1279.27,1346.96 1305.45,1349.17 
  1331.64,1351.23 1357.82,1353.15 1384,1354.95 1410.18,1356.64 1436.37,1358.22 1462.55,1359.7 1488.73,1361.08 1514.91,1362.38 1541.1,1363.6 1567.28,1364.75 
  1593.46,1365.82 1619.64,1366.83 1645.83,1367.78 1672.01,1368.67 1698.19,1369.5 1724.37,1370.29 1750.56,1371.03 1776.74,1371.72 1802.92,1372.38 1829.1,1372.99 
  1855.29,1373.57 1881.47,1374.12 1907.65,1374.63 1933.83,1375.11 1960.02,1375.57 1986.2,1376 2012.38,1376.4 2038.57,1376.78 2064.75,1377.14 2090.93,1377.48 
  2117.11,1377.8 2143.3,1378.1 2169.48,1378.38 2195.66,1378.65 2221.84,1378.9 2248.03,1379.14 2274.21,1379.36 2300.39,1379.58 2326.57,1379.77 2352.76,1379.96 
  
  "/>
<polyline clip-path="url(#clip782)" style="stroke:#e26f46; stroke-linecap:butt; stroke-linejoin:round; stroke-width:4; stroke-opacity:1; fill:none" points="
  284.333,783.212 310.515,812.475 336.698,840.311 362.88,866.789 389.063,891.976 415.245,915.934 441.428,938.724 467.611,960.402 493.793,981.024 519.976,1000.64 
  546.158,1019.3 572.341,1037.05 598.523,1053.93 624.706,1069.99 650.889,1085.27 677.071,1099.8 703.254,1113.62 729.436,1126.77 755.619,1139.28 781.801,1151.17 
  807.984,1162.49 834.167,1173.26 860.349,1183.5 886.532,1193.24 912.714,1202.5 938.897,1211.32 965.079,1219.7 991.262,1227.68 1017.44,1235.26 1043.63,1242.48 
  1069.81,1249.34 1095.99,1255.87 1122.17,1262.08 1148.36,1267.99 1174.54,1273.61 1200.72,1278.96 1226.91,1284.04 1253.09,1288.88 1279.27,1293.48 1305.45,1297.86 
  1331.64,1302.02 1357.82,1305.98 1384,1309.75 1410.18,1313.33 1436.37,1316.74 1462.55,1319.98 1488.73,1323.07 1514.91,1326 1541.1,1328.79 1567.28,1331.45 
  1593.46,1333.97 1619.64,1336.37 1645.83,1338.66 1672.01,1340.83 1698.19,1342.9 1724.37,1344.87 1750.56,1346.74 1776.74,1348.52 1802.92,1350.21 1829.1,1351.82 
  1855.29,1353.35 1881.47,1354.81 1907.65,1356.19 1933.83,1357.51 1960.02,1358.77 1986.2,1359.96 2012.38,1361.09 2038.57,1362.17 2064.75,1363.2 2090.93,1364.18 
  2117.11,1365.1 2143.3,1365.99 2169.48,1366.83 2195.66,1367.63 2221.84,1368.39 2248.03,1369.11 2274.21,1369.8 2300.39,1370.45 2326.57,1371.08 2352.76,1371.67 
  
  "/>
<polyline clip-path="url(#clip782)" style="stroke:#3da44d; stroke-linecap:butt; stroke-linejoin:round; stroke-width:4; stroke-opacity:1; fill:none" points="
  284.333,1231.83 310.515,1179.57 336.698,1145.96 362.88,1122.62 389.063,1106.07 415.245,1094.42 441.428,1086.49 467.611,1081.48 493.793,1078.78 519.976,1077.97 
  546.158,1078.68 572.341,1080.65 598.523,1083.66 624.706,1087.51 650.889,1092.06 677.071,1097.18 703.254,1102.75 729.436,1108.7 755.619,1114.93 781.801,1121.38 
  807.984,1128 834.167,1134.74 860.349,1141.54 886.532,1148.39 912.714,1155.23 938.897,1162.06 965.079,1168.84 991.262,1175.55 1017.44,1182.18 1043.63,1188.72 
  1069.81,1195.14 1095.99,1201.45 1122.17,1207.64 1148.36,1213.69 1174.54,1219.6 1200.72,1225.38 1226.91,1231 1253.09,1236.48 1279.27,1241.82 1305.45,1247 
  1331.64,1252.03 1357.82,1256.92 1384,1261.66 1410.18,1266.25 1436.37,1270.7 1462.55,1275 1488.73,1279.17 1514.91,1283.19 1541.1,1287.09 1567.28,1290.85 
  1593.46,1294.48 1619.64,1297.98 1645.83,1301.36 1672.01,1304.62 1698.19,1307.77 1724.37,1310.8 1750.56,1313.72 1776.74,1316.53 1802.92,1319.24 1829.1,1321.85 
  1855.29,1324.35 1881.47,1326.77 1907.65,1329.09 1933.83,1331.32 1960.02,1333.47 1986.2,1335.53 2012.38,1337.52 2038.57,1339.42 2064.75,1341.25 2090.93,1343.01 
  2117.11,1344.7 2143.3,1346.32 2169.48,1347.88 2195.66,1349.37 2221.84,1350.81 2248.03,1352.18 2274.21,1353.5 2300.39,1354.77 2326.57,1355.99 2352.76,1357.15 
  
  "/>
<polyline clip-path="url(#clip782)" style="stroke:#c271d2; stroke-linecap:butt; stroke-linejoin:round; stroke-width:4; stroke-opacity:1; fill:none" points="
  284.333,1353.22 310.515,1326.15 336.698,1301.79 362.88,1279.94 389.063,1260.41 415.245,1243.04 441.428,1227.65 467.611,1214.09 493.793,1202.23 519.976,1191.93 
  546.158,1183.06 572.341,1175.52 598.523,1169.18 624.706,1163.96 650.889,1159.76 677.071,1156.48 703.254,1154.06 729.436,1152.41 755.619,1151.47 781.801,1151.17 
  807.984,1151.45 834.167,1152.26 860.349,1153.54 886.532,1155.24 912.714,1157.32 938.897,1159.75 965.079,1162.47 991.262,1165.46 1017.44,1168.68 1043.63,1172.11 
  1069.81,1175.71 1095.99,1179.46 1122.17,1183.34 1148.36,1187.33 1174.54,1191.4 1200.72,1195.54 1226.91,1199.74 1253.09,1203.97 1279.27,1208.22 1305.45,1212.49 
  1331.64,1216.76 1357.82,1221.01 1384,1225.25 1410.18,1229.46 1436.37,1233.64 1462.55,1237.77 1488.73,1241.86 1514.91,1245.89 1541.1,1249.87 1567.28,1253.78 
  1593.46,1257.63 1619.64,1261.41 1645.83,1265.13 1672.01,1268.77 1698.19,1272.33 1724.37,1275.82 1750.56,1279.24 1776.74,1282.57 1802.92,1285.83 1829.1,1289.01 
  1855.29,1292.11 1881.47,1295.13 1907.65,1298.08 1933.83,1300.95 1960.02,1303.74 1986.2,1306.45 2012.38,1309.09 2038.57,1311.65 2064.75,1314.14 2090.93,1316.56 
  2117.11,1318.9 2143.3,1321.18 2169.48,1323.38 2195.66,1325.52 2221.84,1327.59 2248.03,1329.6 2274.21,1331.55 2300.39,1333.43 2326.57,1335.25 2352.76,1337.01 
  
  "/>
<polyline clip-path="url(#clip782)" style="stroke:#ac8d18; stroke-linecap:butt; stroke-linejoin:round; stroke-width:4; stroke-opacity:1; fill:none" points="
  284.333,1378.18 310.515,1369.65 336.698,1359.5 362.88,1348.48 389.063,1337.03 415.245,1325.46 441.428,1313.99 467.611,1302.76 493.793,1291.89 519.976,1281.47 
  546.158,1271.56 572.341,1262.19 598.523,1253.41 624.706,1245.22 650.889,1237.64 677.071,1230.66 703.254,1224.29 729.436,1218.51 755.619,1213.3 781.801,1208.66 
  807.984,1204.57 834.167,1201 860.349,1197.94 886.532,1195.35 912.714,1193.23 938.897,1191.55 965.079,1190.27 991.262,1189.39 1017.44,1188.88 1043.63,1188.72 
  1069.81,1188.88 1095.99,1189.34 1122.17,1190.08 1148.36,1191.09 1174.54,1192.33 1200.72,1193.81 1226.91,1195.49 1253.09,1197.35 1279.27,1199.39 1305.45,1201.59 
  1331.64,1203.93 1357.82,1206.4 1384,1208.98 1410.18,1211.66 1436.37,1214.43 1462.55,1217.28 1488.73,1220.2 1514.91,1223.18 1541.1,1226.2 1567.28,1229.26 
  1593.46,1232.35 1619.64,1235.47 1645.83,1238.6 1672.01,1241.75 1698.19,1244.89 1724.37,1248.03 1750.56,1251.16 1776.74,1254.28 1802.92,1257.39 1829.1,1260.47 
  1855.29,1263.52 1881.47,1266.55 1907.65,1269.54 1933.83,1272.5 1960.02,1275.43 1986.2,1278.31 2012.38,1281.15 2038.57,1283.94 2064.75,1286.7 2090.93,1289.4 
  2117.11,1292.06 2143.3,1294.66 2169.48,1297.22 2195.66,1299.73 2221.84,1302.19 2248.03,1304.59 2274.21,1306.95 2300.39,1309.25 2326.57,1311.5 2352.76,1313.7 
  
  "/>
<polyline clip-path="url(#clip782)" style="stroke:#00a9ad; stroke-linecap:butt; stroke-linejoin:round; stroke-width:4; stroke-opacity:1; fill:none" points="
  284.333,1382.47 310.515,1380.37 336.698,1377.11 362.88,1372.89 389.063,1367.87 415.245,1362.19 441.428,1356 467.611,1349.4 493.793,1342.5 519.976,1335.4 
  546.158,1328.18 572.341,1320.91 598.523,1313.66 624.706,1306.48 650.889,1299.42 677.071,1292.53 703.254,1285.83 729.436,1279.36 755.619,1273.14 781.801,1267.2 
  807.984,1261.54 834.167,1256.19 860.349,1251.15 886.532,1246.43 912.714,1242.04 938.897,1237.96 965.079,1234.21 991.262,1230.79 1017.44,1227.68 1043.63,1224.89 
  1069.81,1222.4 1095.99,1220.21 1122.17,1218.32 1148.36,1216.71 1174.54,1215.38 1200.72,1214.31 1226.91,1213.5 1253.09,1212.93 1279.27,1212.6 1305.45,1212.49 
  1331.64,1212.6 1357.82,1212.9 1384,1213.4 1410.18,1214.08 1436.37,1214.94 1462.55,1215.95 1488.73,1217.12 1514.91,1218.42 1541.1,1219.86 1567.28,1221.42 
  1593.46,1223.09 1619.64,1224.87 1645.83,1226.74 1672.01,1228.71 1698.19,1230.75 1724.37,1232.86 1750.56,1235.04 1776.74,1237.28 1802.92,1239.57 1829.1,1241.9 
  1855.29,1244.28 1881.47,1246.68 1907.65,1249.12 1933.83,1251.58 1960.02,1254.06 1986.2,1256.55 2012.38,1259.04 2038.57,1261.55 2064.75,1264.05 2090.93,1266.56 
  2117.11,1269.05 2143.3,1271.54 2169.48,1274.01 2195.66,1276.48 2221.84,1278.92 2248.03,1281.34 2274.21,1283.74 2300.39,1286.12 2326.57,1288.47 2352.76,1290.8 
  
  "/>
<polyline clip-path="url(#clip782)" style="stroke:#ed5d92; stroke-linecap:butt; stroke-linejoin:round; stroke-width:4; stroke-opacity:1; fill:none" points="
  284.333,1383.12 310.515,1382.68 336.698,1381.8 362.88,1380.44 389.063,1378.6 415.245,1376.29 441.428,1373.53 467.611,1370.35 493.793,1366.78 519.976,1362.87 
  546.158,1358.66 572.341,1354.18 598.523,1349.47 624.706,1344.58 650.889,1339.55 677.071,1334.4 703.254,1329.19 729.436,1323.92 755.619,1318.65 781.801,1313.4 
  807.984,1308.19 834.167,1303.04 860.349,1297.99 886.532,1293.05 912.714,1288.23 938.897,1283.55 965.079,1279.03 991.262,1274.68 1017.44,1270.51 1043.63,1266.52 
  1069.81,1262.73 1095.99,1259.14 1122.17,1255.75 1148.36,1252.57 1174.54,1249.6 1200.72,1246.84 1226.91,1244.3 1253.09,1241.96 1279.27,1239.84 1305.45,1237.92 
  1331.64,1236.2 1357.82,1234.69 1384,1233.37 1410.18,1232.25 1436.37,1231.31 1462.55,1230.56 1488.73,1229.98 1514.91,1229.58 1541.1,1229.34 1567.28,1229.26 
  1593.46,1229.34 1619.64,1229.56 1645.83,1229.93 1672.01,1230.43 1698.19,1231.06 1724.37,1231.81 1750.56,1232.68 1776.74,1233.65 1802.92,1234.74 1829.1,1235.92 
  1855.29,1237.19 1881.47,1238.55 1907.65,1239.99 1933.83,1241.5 1960.02,1243.09 1986.2,1244.74 2012.38,1246.44 2038.57,1248.2 2064.75,1250.02 2090.93,1251.87 
  2117.11,1253.77 2143.3,1255.7 2169.48,1257.66 2195.66,1259.65 2221.84,1261.67 2248.03,1263.7 2274.21,1265.76 2300.39,1267.82 2326.57,1269.9 2352.76,1271.98 
  
  "/>
<polyline clip-path="url(#clip782)" style="stroke:#c68125; stroke-linecap:butt; stroke-linejoin:round; stroke-width:4; stroke-opacity:1; fill:none" points="
  284.333,1383.21 310.515,1383.13 336.698,1382.92 362.88,1382.53 389.063,1381.94 415.245,1381.12 441.428,1380.05 467.611,1378.71 493.793,1377.11 519.976,1375.25 
  546.158,1373.13 572.341,1370.76 598.523,1368.15 624.706,1365.32 650.889,1362.27 677.071,1359.04 703.254,1355.63 729.436,1352.06 755.619,1348.36 781.801,1344.55 
  807.984,1340.64 834.167,1336.65 860.349,1332.6 886.532,1328.51 912.714,1324.39 938.897,1320.28 965.079,1316.17 991.262,1312.09 1017.44,1308.04 1043.63,1304.05 
  1069.81,1300.13 1095.99,1296.28 1122.17,1292.53 1148.36,1288.87 1174.54,1285.31 1200.72,1281.88 1226.91,1278.56 1253.09,1275.37 1279.27,1272.32 1305.45,1269.4 
  1331.64,1266.63 1357.82,1264 1384,1261.52 1410.18,1259.19 1436.37,1257.01 1462.55,1254.98 1488.73,1253.11 1514.91,1251.38 1541.1,1249.81 1567.28,1248.39 
  1593.46,1247.11 1619.64,1245.98 1645.83,1245 1672.01,1244.16 1698.19,1243.45 1724.37,1242.89 1750.56,1242.45 1776.74,1242.14 1802.92,1241.96 1829.1,1241.9 
  1855.29,1241.96 1881.47,1242.13 1907.65,1242.42 1933.83,1242.8 1960.02,1243.29 1986.2,1243.88 2012.38,1244.56 2038.57,1245.32 2064.75,1246.18 2090.93,1247.11 
  2117.11,1248.12 2143.3,1249.2 2169.48,1250.35 2195.66,1251.57 2221.84,1252.84 2248.03,1254.17 2274.21,1255.56 2300.39,1256.99 2326.57,1258.47 2352.76,1259.99 
  
  "/>
<polyline clip-path="url(#clip782)" style="stroke:#00a98d; stroke-linecap:butt; stroke-linejoin:round; stroke-width:4; stroke-opacity:1; fill:none" points="
  284.333,1383.22 310.515,1383.21 336.698,1383.16 362.88,1383.06 389.063,1382.89 415.245,1382.63 441.428,1382.25 467.611,1381.75 493.793,1381.11 519.976,1380.32 
  546.158,1379.36 572.341,1378.24 598.523,1376.95 624.706,1375.49 650.889,1373.86 677.071,1372.06 703.254,1370.1 729.436,1367.97 755.619,1365.7 781.801,1363.27 
  807.984,1360.71 834.167,1358.02 860.349,1355.22 886.532,1352.3 912.714,1349.3 938.897,1346.2 965.079,1343.03 991.262,1339.81 1017.44,1336.53 1043.63,1333.21 
  1069.81,1329.86 1095.99,1326.5 1122.17,1323.13 1148.36,1319.76 1174.54,1316.41 1200.72,1313.08 1226.91,1309.79 1253.09,1306.54 1279.27,1303.34 1305.45,1300.19 
  1331.64,1297.11 1357.82,1294.1 1384,1291.17 1410.18,1288.32 1436.37,1285.57 1462.55,1282.9 1488.73,1280.33 1514.91,1277.87 1541.1,1275.5 1567.28,1273.25 
  1593.46,1271.11 1619.64,1269.07 1645.83,1267.16 1672.01,1265.35 1698.19,1263.66 1724.37,1262.09 1750.56,1260.63 1776.74,1259.3 1802.92,1258.07 1829.1,1256.96 
  1855.29,1255.97 1881.47,1255.08 1907.65,1254.31 1933.83,1253.65 1960.02,1253.1 1986.2,1252.65 2012.38,1252.3 2038.57,1252.06 2064.75,1251.92 2090.93,1251.87 
  2117.11,1251.92 2143.3,1252.05 2169.48,1252.28 2195.66,1252.59 2221.84,1252.99 2248.03,1253.46 2274.21,1254.01 2300.39,1254.63 2326.57,1255.33 2352.76,1256.09 
  
  "/>
<polyline clip-path="url(#clip782)" style="stroke:#8e971d; stroke-linecap:butt; stroke-linejoin:round; stroke-width:4; stroke-opacity:1; fill:none" points="
  284.333,1383.22 310.515,1383.22 336.698,1383.21 362.88,1383.19 389.063,1383.14 415.245,1383.07 441.428,1382.94 467.611,1382.77 493.793,1382.54 519.976,1382.23 
  546.158,1381.84 572.341,1381.35 598.523,1380.77 624.706,1380.09 650.889,1379.29 677.071,1378.39 703.254,1377.36 729.436,1376.21 755.619,1374.94 781.801,1373.55 
  807.984,1372.04 834.167,1370.41 860.349,1368.67 886.532,1366.81 912.714,1364.84 938.897,1362.77 965.079,1360.59 991.262,1358.32 1017.44,1355.97 1043.63,1353.53 
  1069.81,1351.02 1095.99,1348.45 1122.17,1345.81 1148.36,1343.12 1174.54,1340.39 1200.72,1337.62 1226.91,1334.82 1253.09,1331.99 1279.27,1329.16 1305.45,1326.31 
  1331.64,1323.47 1357.82,1320.63 1384,1317.81 1410.18,1315 1436.37,1312.23 1462.55,1309.48 1488.73,1306.78 1514.91,1304.12 1541.1,1301.51 1567.28,1298.95 
  1593.46,1296.45 1619.64,1294.02 1645.83,1291.65 1672.01,1289.35 1698.19,1287.13 1724.37,1284.99 1750.56,1282.92 1776.74,1280.94 1802.92,1279.04 1829.1,1277.23 
  1855.29,1275.51 1881.47,1273.88 1907.65,1272.34 1933.83,1270.89 1960.02,1269.53 1986.2,1268.26 2012.38,1267.09 2038.57,1266.01 2064.75,1265.02 2090.93,1264.12 
  2117.11,1263.32 2143.3,1262.6 2169.48,1261.98 2195.66,1261.44 2221.84,1260.99 2248.03,1260.63 2274.21,1260.35 2300.39,1260.15 2326.57,1260.03 2352.76,1259.99 
  
  "/>
<path clip-path="url(#clip780)" d="
M1874.9 717.024 L2282.94 717.024 L2282.94 163.727 L1874.9 163.727  Z
  " fill="#ffffff" fill-rule="evenodd" fill-opacity="1"/>
<polyline clip-path="url(#clip780)" style="stroke:#000000; stroke-linecap:butt; stroke-linejoin:round; stroke-width:4; stroke-opacity:1; fill:none" points="
  1874.9,717.024 2282.94,717.024 2282.94,163.727 1874.9,163.727 1874.9,717.024 
  "/>
<polyline clip-path="url(#clip780)" style="stroke:#009af9; stroke-linecap:butt; stroke-linejoin:round; stroke-width:4; stroke-opacity:1; fill:none" points="
  1898.17,214.026 2037.81,214.026 
  "/>
<g clip-path="url(#clip780)">
<text style="fill:#000000; fill-opacity:1; font-family:Arial,Helvetica Neue,Helvetica,sans-serif; font-size:48px; text-anchor:start;" transform="rotate(0, 2061.09, 231.526)" x="2061.09" y="231.526">dof = 1</text>
</g>
<polyline clip-path="url(#clip780)" style="stroke:#e26f46; stroke-linecap:butt; stroke-linejoin:round; stroke-width:4; stroke-opacity:1; fill:none" points="
  1898.17,264.326 2037.81,264.326 
  "/>
<g clip-path="url(#clip780)">
<text style="fill:#000000; fill-opacity:1; font-family:Arial,Helvetica Neue,Helvetica,sans-serif; font-size:48px; text-anchor:start;" transform="rotate(0, 2061.09, 281.826)" x="2061.09" y="281.826">dof = 2</text>
</g>
<polyline clip-path="url(#clip780)" style="stroke:#3da44d; stroke-linecap:butt; stroke-linejoin:round; stroke-width:4; stroke-opacity:1; fill:none" points="
  1898.17,314.626 2037.81,314.626 
  "/>
<g clip-path="url(#clip780)">
<text style="fill:#000000; fill-opacity:1; font-family:Arial,Helvetica Neue,Helvetica,sans-serif; font-size:48px; text-anchor:start;" transform="rotate(0, 2061.09, 332.126)" x="2061.09" y="332.126">dof = 3</text>
</g>
<polyline clip-path="url(#clip780)" style="stroke:#c271d2; stroke-linecap:butt; stroke-linejoin:round; stroke-width:4; stroke-opacity:1; fill:none" points="
  1898.17,364.926 2037.81,364.926 
  "/>
<g clip-path="url(#clip780)">
<text style="fill:#000000; fill-opacity:1; font-family:Arial,Helvetica Neue,Helvetica,sans-serif; font-size:48px; text-anchor:start;" transform="rotate(0, 2061.09, 382.426)" x="2061.09" y="382.426">dof = 4</text>
</g>
<polyline clip-path="url(#clip780)" style="stroke:#ac8d18; stroke-linecap:butt; stroke-linejoin:round; stroke-width:4; stroke-opacity:1; fill:none" points="
  1898.17,415.225 2037.81,415.225 
  "/>
<g clip-path="url(#clip780)">
<text style="fill:#000000; fill-opacity:1; font-family:Arial,Helvetica Neue,Helvetica,sans-serif; font-size:48px; text-anchor:start;" transform="rotate(0, 2061.09, 432.725)" x="2061.09" y="432.725">dof = 5</text>
</g>
<polyline clip-path="url(#clip780)" style="stroke:#00a9ad; stroke-linecap:butt; stroke-linejoin:round; stroke-width:4; stroke-opacity:1; fill:none" points="
  1898.17,465.525 2037.81,465.525 
  "/>
<g clip-path="url(#clip780)">
<text style="fill:#000000; fill-opacity:1; font-family:Arial,Helvetica Neue,Helvetica,sans-serif; font-size:48px; text-anchor:start;" transform="rotate(0, 2061.09, 483.025)" x="2061.09" y="483.025">dof = 6</text>
</g>
<polyline clip-path="url(#clip780)" style="stroke:#ed5d92; stroke-linecap:butt; stroke-linejoin:round; stroke-width:4; stroke-opacity:1; fill:none" points="
  1898.17,515.825 2037.81,515.825 
  "/>
<g clip-path="url(#clip780)">
<text style="fill:#000000; fill-opacity:1; font-family:Arial,Helvetica Neue,Helvetica,sans-serif; font-size:48px; text-anchor:start;" transform="rotate(0, 2061.09, 533.325)" x="2061.09" y="533.325">dof = 7</text>
</g>
<polyline clip-path="url(#clip780)" style="stroke:#c68125; stroke-linecap:butt; stroke-linejoin:round; stroke-width:4; stroke-opacity:1; fill:none" points="
  1898.17,566.124 2037.81,566.124 
  "/>
<g clip-path="url(#clip780)">
<text style="fill:#000000; fill-opacity:1; font-family:Arial,Helvetica Neue,Helvetica,sans-serif; font-size:48px; text-anchor:start;" transform="rotate(0, 2061.09, 583.624)" x="2061.09" y="583.624">dof = 8</text>
</g>
<polyline clip-path="url(#clip780)" style="stroke:#00a98d; stroke-linecap:butt; stroke-linejoin:round; stroke-width:4; stroke-opacity:1; fill:none" points="
  1898.17,616.424 2037.81,616.424 
  "/>
<g clip-path="url(#clip780)">
<text style="fill:#000000; fill-opacity:1; font-family:Arial,Helvetica Neue,Helvetica,sans-serif; font-size:48px; text-anchor:start;" transform="rotate(0, 2061.09, 633.924)" x="2061.09" y="633.924">dof = 9</text>
</g>
<polyline clip-path="url(#clip780)" style="stroke:#8e971d; stroke-linecap:butt; stroke-linejoin:round; stroke-width:4; stroke-opacity:1; fill:none" points="
  1898.17,666.724 2037.81,666.724 
  "/>
<g clip-path="url(#clip780)">
<text style="fill:#000000; fill-opacity:1; font-family:Arial,Helvetica Neue,Helvetica,sans-serif; font-size:48px; text-anchor:start;" transform="rotate(0, 2061.09, 684.224)" x="2061.09" y="684.224">dof = 10</text>
</g>
</svg>
