<?xml version="1.0" encoding="utf-8"?>
<svg xmlns="http://www.w3.org/2000/svg" xmlns:xlink="http://www.w3.org/1999/xlink" width="600" height="400" viewBox="0 0 2400 1600">
<defs>
  <clipPath id="clip360">
    <rect x="0" y="0" width="2400" height="1600"/>
  </clipPath>
</defs>
<path clip-path="url(#clip360)" d="
M0 1600 L2400 1600 L2400 0 L0 0  Z
  " fill="#ffffff" fill-rule="evenodd" fill-opacity="1"/>
<defs>
  <clipPath id="clip361">
    <rect x="480" y="0" width="1681" height="1600"/>
  </clipPath>
</defs>
<path clip-path="url(#clip360)" d="
M333.387 1321.37 L2352.76 1321.37 L2352.76 47.2441 L333.387 47.2441  Z
  " fill="#ffffff" fill-rule="evenodd" fill-opacity="1"/>
<defs>
  <clipPath id="clip362">
    <rect x="333" y="47" width="2020" height="1275"/>
  </clipPath>
</defs>
<polyline clip-path="url(#clip362)" style="stroke:#000000; stroke-linecap:butt; stroke-linejoin:round; stroke-width:2; stroke-opacity:0.1; fill:none" points="
  390.539,1321.37 390.539,47.2441 
  "/>
<polyline clip-path="url(#clip362)" style="stroke:#000000; stroke-linecap:butt; stroke-linejoin:round; stroke-width:2; stroke-opacity:0.1; fill:none" points="
  866.805,1321.37 866.805,47.2441 
  "/>
<polyline clip-path="url(#clip362)" style="stroke:#000000; stroke-linecap:butt; stroke-linejoin:round; stroke-width:2; stroke-opacity:0.1; fill:none" points="
  1343.07,1321.37 1343.07,47.2441 
  "/>
<polyline clip-path="url(#clip362)" style="stroke:#000000; stroke-linecap:butt; stroke-linejoin:round; stroke-width:2; stroke-opacity:0.1; fill:none" points="
  1819.34,1321.37 1819.34,47.2441 
  "/>
<polyline clip-path="url(#clip362)" style="stroke:#000000; stroke-linecap:butt; stroke-linejoin:round; stroke-width:2; stroke-opacity:0.1; fill:none" points="
  2295.6,1321.37 2295.6,47.2441 
  "/>
<polyline clip-path="url(#clip360)" style="stroke:#000000; stroke-linecap:butt; stroke-linejoin:round; stroke-width:4; stroke-opacity:1; fill:none" points="
  333.387,1321.37 2352.76,1321.37 
  "/>
<polyline clip-path="url(#clip360)" style="stroke:#000000; stroke-linecap:butt; stroke-linejoin:round; stroke-width:4; stroke-opacity:1; fill:none" points="
  390.539,1321.37 390.539,1302.47 
  "/>
<polyline clip-path="url(#clip360)" style="stroke:#000000; stroke-linecap:butt; stroke-linejoin:round; stroke-width:4; stroke-opacity:1; fill:none" points="
  866.805,1321.37 866.805,1302.47 
  "/>
<polyline clip-path="url(#clip360)" style="stroke:#000000; stroke-linecap:butt; stroke-linejoin:round; stroke-width:4; stroke-opacity:1; fill:none" points="
  1343.07,1321.37 1343.07,1302.47 
  "/>
<polyline clip-path="url(#clip360)" style="stroke:#000000; stroke-linecap:butt; stroke-linejoin:round; stroke-width:4; stroke-opacity:1; fill:none" points="
  1819.34,1321.37 1819.34,1302.47 
  "/>
<polyline clip-path="url(#clip360)" style="stroke:#000000; stroke-linecap:butt; stroke-linejoin:round; stroke-width:4; stroke-opacity:1; fill:none" points="
  2295.6,1321.37 2295.6,1302.47 
  "/>
<g clip-path="url(#clip360)">
<text style="fill:#000000; fill-opacity:1; font-family:Arial,Helvetica Neue,Helvetica,sans-serif; font-size:48px; text-anchor:middle;" transform="rotate(0, 390.539, 1382.57)" x="390.539" y="1382.57">−10</text>
</g>
<g clip-path="url(#clip360)">
<text style="fill:#000000; fill-opacity:1; font-family:Arial,Helvetica Neue,Helvetica,sans-serif; font-size:48px; text-anchor:middle;" transform="rotate(0, 866.805, 1382.57)" x="866.805" y="1382.57">−5</text>
</g>
<g clip-path="url(#clip360)">
<text style="fill:#000000; fill-opacity:1; font-family:Arial,Helvetica Neue,Helvetica,sans-serif; font-size:48px; text-anchor:middle;" transform="rotate(0, 1343.07, 1382.57)" x="1343.07" y="1382.57">0</text>
</g>
<g clip-path="url(#clip360)">
<text style="fill:#000000; fill-opacity:1; font-family:Arial,Helvetica Neue,Helvetica,sans-serif; font-size:48px; text-anchor:middle;" transform="rotate(0, 1819.34, 1382.57)" x="1819.34" y="1382.57">5</text>
</g>
<g clip-path="url(#clip360)">
<text style="fill:#000000; fill-opacity:1; font-family:Arial,Helvetica Neue,Helvetica,sans-serif; font-size:48px; text-anchor:middle;" transform="rotate(0, 2295.6, 1382.57)" x="2295.6" y="1382.57">10</text>
</g>
<g clip-path="url(#clip360)">
<text style="fill:#000000; fill-opacity:1; font-family:Arial,Helvetica Neue,Helvetica,sans-serif; font-size:66px; text-anchor:middle;" transform="rotate(0, 1343.07, 1467.23)" x="1343.07" y="1467.23">x</text>
</g>
<polyline clip-path="url(#clip362)" style="stroke:#000000; stroke-linecap:butt; stroke-linejoin:round; stroke-width:2; stroke-opacity:0.1; fill:none" points="
  333.387,1199.55 2352.76,1199.55 
  "/>
<polyline clip-path="url(#clip362)" style="stroke:#000000; stroke-linecap:butt; stroke-linejoin:round; stroke-width:2; stroke-opacity:0.1; fill:none" points="
  333.387,967.524 2352.76,967.524 
  "/>
<polyline clip-path="url(#clip362)" style="stroke:#000000; stroke-linecap:butt; stroke-linejoin:round; stroke-width:2; stroke-opacity:0.1; fill:none" points="
  333.387,735.503 2352.76,735.503 
  "/>
<polyline clip-path="url(#clip362)" style="stroke:#000000; stroke-linecap:butt; stroke-linejoin:round; stroke-width:2; stroke-opacity:0.1; fill:none" points="
  333.387,503.481 2352.76,503.481 
  "/>
<polyline clip-path="url(#clip362)" style="stroke:#000000; stroke-linecap:butt; stroke-linejoin:round; stroke-width:2; stroke-opacity:0.1; fill:none" points="
  333.387,271.46 2352.76,271.46 
  "/>
<polyline clip-path="url(#clip360)" style="stroke:#000000; stroke-linecap:butt; stroke-linejoin:round; stroke-width:4; stroke-opacity:1; fill:none" points="
  333.387,1321.37 333.387,47.2441 
  "/>
<polyline clip-path="url(#clip360)" style="stroke:#000000; stroke-linecap:butt; stroke-linejoin:round; stroke-width:4; stroke-opacity:1; fill:none" points="
  333.387,1199.55 352.285,1199.55 
  "/>
<polyline clip-path="url(#clip360)" style="stroke:#000000; stroke-linecap:butt; stroke-linejoin:round; stroke-width:4; stroke-opacity:1; fill:none" points="
  333.387,967.524 352.285,967.524 
  "/>
<polyline clip-path="url(#clip360)" style="stroke:#000000; stroke-linecap:butt; stroke-linejoin:round; stroke-width:4; stroke-opacity:1; fill:none" points="
  333.387,735.503 352.285,735.503 
  "/>
<polyline clip-path="url(#clip360)" style="stroke:#000000; stroke-linecap:butt; stroke-linejoin:round; stroke-width:4; stroke-opacity:1; fill:none" points="
  333.387,503.481 352.285,503.481 
  "/>
<polyline clip-path="url(#clip360)" style="stroke:#000000; stroke-linecap:butt; stroke-linejoin:round; stroke-width:4; stroke-opacity:1; fill:none" points="
  333.387,271.46 352.285,271.46 
  "/>
<g clip-path="url(#clip360)">
<text style="fill:#000000; fill-opacity:1; font-family:Arial,Helvetica Neue,Helvetica,sans-serif; font-size:48px; text-anchor:end;" transform="rotate(0, 297.387, 1217.05)" x="297.387" y="1217.05">−10</text>
</g>
<g clip-path="url(#clip360)">
<text style="fill:#000000; fill-opacity:1; font-family:Arial,Helvetica Neue,Helvetica,sans-serif; font-size:48px; text-anchor:end;" transform="rotate(0, 297.387, 985.024)" x="297.387" y="985.024">−5</text>
</g>
<g clip-path="url(#clip360)">
<text style="fill:#000000; fill-opacity:1; font-family:Arial,Helvetica Neue,Helvetica,sans-serif; font-size:48px; text-anchor:end;" transform="rotate(0, 297.387, 753.003)" x="297.387" y="753.003">0</text>
</g>
<g clip-path="url(#clip360)">
<text style="fill:#000000; fill-opacity:1; font-family:Arial,Helvetica Neue,Helvetica,sans-serif; font-size:48px; text-anchor:end;" transform="rotate(0, 297.387, 520.981)" x="297.387" y="520.981">5</text>
</g>
<g clip-path="url(#clip360)">
<text style="fill:#000000; fill-opacity:1; font-family:Arial,Helvetica Neue,Helvetica,sans-serif; font-size:48px; text-anchor:end;" transform="rotate(0, 297.387, 288.96)" x="297.387" y="288.96">10</text>
</g>
<g clip-path="url(#clip360)">
<text style="fill:#000000; fill-opacity:1; font-family:Arial,Helvetica Neue,Helvetica,sans-serif; font-size:66px; text-anchor:middle;" transform="rotate(-90, 169.538, 684.305)" x="169.538" y="684.305">y</text>
</g>
<circle clip-path="url(#clip362)" cx="1456.45" cy="616.405" r="14" fill="#009af9" fill-rule="evenodd" fill-opacity="1" stroke="#000000" stroke-opacity="1" stroke-width="3.2"/>
<circle clip-path="url(#clip362)" cx="1538.17" cy="612.86" r="14" fill="#009af9" fill-rule="evenodd" fill-opacity="1" stroke="#000000" stroke-opacity="1" stroke-width="3.2"/>
<circle clip-path="url(#clip362)" cx="1451.91" cy="574.085" r="14" fill="#009af9" fill-rule="evenodd" fill-opacity="1" stroke="#000000" stroke-opacity="1" stroke-width="3.2"/>
<circle clip-path="url(#clip362)" cx="1386.83" cy="593.497" r="14" fill="#009af9" fill-rule="evenodd" fill-opacity="1" stroke="#000000" stroke-opacity="1" stroke-width="3.2"/>
<circle clip-path="url(#clip362)" cx="1305.29" cy="775.158" r="14" fill="#009af9" fill-rule="evenodd" fill-opacity="1" stroke="#000000" stroke-opacity="1" stroke-width="3.2"/>
<circle clip-path="url(#clip362)" cx="1279.76" cy="682.793" r="14" fill="#009af9" fill-rule="evenodd" fill-opacity="1" stroke="#000000" stroke-opacity="1" stroke-width="3.2"/>
<circle clip-path="url(#clip362)" cx="1436.51" cy="602.005" r="14" fill="#009af9" fill-rule="evenodd" fill-opacity="1" stroke="#000000" stroke-opacity="1" stroke-width="3.2"/>
<circle clip-path="url(#clip362)" cx="1335.88" cy="724.71" r="14" fill="#009af9" fill-rule="evenodd" fill-opacity="1" stroke="#000000" stroke-opacity="1" stroke-width="3.2"/>
<circle clip-path="url(#clip362)" cx="1369.15" cy="746.405" r="14" fill="#009af9" fill-rule="evenodd" fill-opacity="1" stroke="#000000" stroke-opacity="1" stroke-width="3.2"/>
<circle clip-path="url(#clip362)" cx="1324.57" cy="733.125" r="14" fill="#009af9" fill-rule="evenodd" fill-opacity="1" stroke="#000000" stroke-opacity="1" stroke-width="3.2"/>
<circle clip-path="url(#clip362)" cx="1310.75" cy="699.481" r="14" fill="#009af9" fill-rule="evenodd" fill-opacity="1" stroke="#000000" stroke-opacity="1" stroke-width="3.2"/>
<circle clip-path="url(#clip362)" cx="1262.69" cy="717.001" r="14" fill="#009af9" fill-rule="evenodd" fill-opacity="1" stroke="#000000" stroke-opacity="1" stroke-width="3.2"/>
<circle clip-path="url(#clip362)" cx="1258.4" cy="740.707" r="14" fill="#009af9" fill-rule="evenodd" fill-opacity="1" stroke="#000000" stroke-opacity="1" stroke-width="3.2"/>
<circle clip-path="url(#clip362)" cx="1374.24" cy="694.348" r="14" fill="#009af9" fill-rule="evenodd" fill-opacity="1" stroke="#000000" stroke-opacity="1" stroke-width="3.2"/>
<circle clip-path="url(#clip362)" cx="1399.5" cy="743.83" r="14" fill="#009af9" fill-rule="evenodd" fill-opacity="1" stroke="#000000" stroke-opacity="1" stroke-width="3.2"/>
<circle clip-path="url(#clip362)" cx="1378.12" cy="641.784" r="14" fill="#009af9" fill-rule="evenodd" fill-opacity="1" stroke="#000000" stroke-opacity="1" stroke-width="3.2"/>
<circle clip-path="url(#clip362)" cx="1316.29" cy="683.689" r="14" fill="#009af9" fill-rule="evenodd" fill-opacity="1" stroke="#000000" stroke-opacity="1" stroke-width="3.2"/>
<circle clip-path="url(#clip362)" cx="1273.07" cy="713.418" r="14" fill="#009af9" fill-rule="evenodd" fill-opacity="1" stroke="#000000" stroke-opacity="1" stroke-width="3.2"/>
<circle clip-path="url(#clip362)" cx="1274.74" cy="675.308" r="14" fill="#009af9" fill-rule="evenodd" fill-opacity="1" stroke="#000000" stroke-opacity="1" stroke-width="3.2"/>
<circle clip-path="url(#clip362)" cx="1269.24" cy="707.584" r="14" fill="#009af9" fill-rule="evenodd" fill-opacity="1" stroke="#000000" stroke-opacity="1" stroke-width="3.2"/>
<circle clip-path="url(#clip362)" cx="1249.77" cy="770.098" r="14" fill="#009af9" fill-rule="evenodd" fill-opacity="1" stroke="#000000" stroke-opacity="1" stroke-width="3.2"/>
<circle clip-path="url(#clip362)" cx="1367.88" cy="686.258" r="14" fill="#009af9" fill-rule="evenodd" fill-opacity="1" stroke="#000000" stroke-opacity="1" stroke-width="3.2"/>
<circle clip-path="url(#clip362)" cx="1298.45" cy="641.512" r="14" fill="#009af9" fill-rule="evenodd" fill-opacity="1" stroke="#000000" stroke-opacity="1" stroke-width="3.2"/>
<circle clip-path="url(#clip362)" cx="1259.16" cy="728.937" r="14" fill="#009af9" fill-rule="evenodd" fill-opacity="1" stroke="#000000" stroke-opacity="1" stroke-width="3.2"/>
<circle clip-path="url(#clip362)" cx="1369.53" cy="675.09" r="14" fill="#009af9" fill-rule="evenodd" fill-opacity="1" stroke="#000000" stroke-opacity="1" stroke-width="3.2"/>
<circle clip-path="url(#clip362)" cx="1488.23" cy="566.983" r="14" fill="#009af9" fill-rule="evenodd" fill-opacity="1" stroke="#000000" stroke-opacity="1" stroke-width="3.2"/>
<circle clip-path="url(#clip362)" cx="1173.74" cy="764.67" r="14" fill="#009af9" fill-rule="evenodd" fill-opacity="1" stroke="#000000" stroke-opacity="1" stroke-width="3.2"/>
<circle clip-path="url(#clip362)" cx="1063.69" cy="746.805" r="14" fill="#009af9" fill-rule="evenodd" fill-opacity="1" stroke="#000000" stroke-opacity="1" stroke-width="3.2"/>
<circle clip-path="url(#clip362)" cx="1417.58" cy="677.017" r="14" fill="#009af9" fill-rule="evenodd" fill-opacity="1" stroke="#000000" stroke-opacity="1" stroke-width="3.2"/>
<circle clip-path="url(#clip362)" cx="1563.45" cy="552.711" r="14" fill="#009af9" fill-rule="evenodd" fill-opacity="1" stroke="#000000" stroke-opacity="1" stroke-width="3.2"/>
<circle clip-path="url(#clip362)" cx="1260.1" cy="804.744" r="14" fill="#009af9" fill-rule="evenodd" fill-opacity="1" stroke="#000000" stroke-opacity="1" stroke-width="3.2"/>
<circle clip-path="url(#clip362)" cx="1376" cy="642.215" r="14" fill="#009af9" fill-rule="evenodd" fill-opacity="1" stroke="#000000" stroke-opacity="1" stroke-width="3.2"/>
<circle clip-path="url(#clip362)" cx="1328.23" cy="624.355" r="14" fill="#009af9" fill-rule="evenodd" fill-opacity="1" stroke="#000000" stroke-opacity="1" stroke-width="3.2"/>
<circle clip-path="url(#clip362)" cx="1565.3" cy="646.47" r="14" fill="#009af9" fill-rule="evenodd" fill-opacity="1" stroke="#000000" stroke-opacity="1" stroke-width="3.2"/>
<circle clip-path="url(#clip362)" cx="1247.98" cy="733.963" r="14" fill="#009af9" fill-rule="evenodd" fill-opacity="1" stroke="#000000" stroke-opacity="1" stroke-width="3.2"/>
<circle clip-path="url(#clip362)" cx="1349.45" cy="704.969" r="14" fill="#009af9" fill-rule="evenodd" fill-opacity="1" stroke="#000000" stroke-opacity="1" stroke-width="3.2"/>
<circle clip-path="url(#clip362)" cx="1176.93" cy="730.476" r="14" fill="#009af9" fill-rule="evenodd" fill-opacity="1" stroke="#000000" stroke-opacity="1" stroke-width="3.2"/>
<circle clip-path="url(#clip362)" cx="1259.2" cy="702.652" r="14" fill="#009af9" fill-rule="evenodd" fill-opacity="1" stroke="#000000" stroke-opacity="1" stroke-width="3.2"/>
<circle clip-path="url(#clip362)" cx="1318.9" cy="655.637" r="14" fill="#009af9" fill-rule="evenodd" fill-opacity="1" stroke="#000000" stroke-opacity="1" stroke-width="3.2"/>
<circle clip-path="url(#clip362)" cx="1420.61" cy="665.146" r="14" fill="#009af9" fill-rule="evenodd" fill-opacity="1" stroke="#000000" stroke-opacity="1" stroke-width="3.2"/>
<circle clip-path="url(#clip362)" cx="1235.93" cy="702.691" r="14" fill="#009af9" fill-rule="evenodd" fill-opacity="1" stroke="#000000" stroke-opacity="1" stroke-width="3.2"/>
<circle clip-path="url(#clip362)" cx="1310.27" cy="690.286" r="14" fill="#009af9" fill-rule="evenodd" fill-opacity="1" stroke="#000000" stroke-opacity="1" stroke-width="3.2"/>
<circle clip-path="url(#clip362)" cx="1319.97" cy="714.351" r="14" fill="#009af9" fill-rule="evenodd" fill-opacity="1" stroke="#000000" stroke-opacity="1" stroke-width="3.2"/>
<circle clip-path="url(#clip362)" cx="1489" cy="679.992" r="14" fill="#009af9" fill-rule="evenodd" fill-opacity="1" stroke="#000000" stroke-opacity="1" stroke-width="3.2"/>
<circle clip-path="url(#clip362)" cx="1382.45" cy="669.88" r="14" fill="#009af9" fill-rule="evenodd" fill-opacity="1" stroke="#000000" stroke-opacity="1" stroke-width="3.2"/>
<circle clip-path="url(#clip362)" cx="1321.39" cy="600.07" r="14" fill="#009af9" fill-rule="evenodd" fill-opacity="1" stroke="#000000" stroke-opacity="1" stroke-width="3.2"/>
<circle clip-path="url(#clip362)" cx="1325.37" cy="697.331" r="14" fill="#009af9" fill-rule="evenodd" fill-opacity="1" stroke="#000000" stroke-opacity="1" stroke-width="3.2"/>
<circle clip-path="url(#clip362)" cx="1488.98" cy="512.852" r="14" fill="#009af9" fill-rule="evenodd" fill-opacity="1" stroke="#000000" stroke-opacity="1" stroke-width="3.2"/>
<circle clip-path="url(#clip362)" cx="1043.67" cy="824.764" r="14" fill="#009af9" fill-rule="evenodd" fill-opacity="1" stroke="#000000" stroke-opacity="1" stroke-width="3.2"/>
<circle clip-path="url(#clip362)" cx="1205.9" cy="733.244" r="14" fill="#009af9" fill-rule="evenodd" fill-opacity="1" stroke="#000000" stroke-opacity="1" stroke-width="3.2"/>
<circle clip-path="url(#clip362)" cx="1363.9" cy="734.355" r="14" fill="#009af9" fill-rule="evenodd" fill-opacity="1" stroke="#000000" stroke-opacity="1" stroke-width="3.2"/>
<circle clip-path="url(#clip362)" cx="1323.33" cy="707.898" r="14" fill="#009af9" fill-rule="evenodd" fill-opacity="1" stroke="#000000" stroke-opacity="1" stroke-width="3.2"/>
<circle clip-path="url(#clip362)" cx="1466.2" cy="539.188" r="14" fill="#009af9" fill-rule="evenodd" fill-opacity="1" stroke="#000000" stroke-opacity="1" stroke-width="3.2"/>
<circle clip-path="url(#clip362)" cx="1454.49" cy="636.877" r="14" fill="#009af9" fill-rule="evenodd" fill-opacity="1" stroke="#000000" stroke-opacity="1" stroke-width="3.2"/>
<circle clip-path="url(#clip362)" cx="1346" cy="723.774" r="14" fill="#009af9" fill-rule="evenodd" fill-opacity="1" stroke="#000000" stroke-opacity="1" stroke-width="3.2"/>
<circle clip-path="url(#clip362)" cx="1234.47" cy="737.796" r="14" fill="#009af9" fill-rule="evenodd" fill-opacity="1" stroke="#000000" stroke-opacity="1" stroke-width="3.2"/>
<circle clip-path="url(#clip362)" cx="1384.48" cy="632.471" r="14" fill="#009af9" fill-rule="evenodd" fill-opacity="1" stroke="#000000" stroke-opacity="1" stroke-width="3.2"/>
<circle clip-path="url(#clip362)" cx="1313.13" cy="657.213" r="14" fill="#009af9" fill-rule="evenodd" fill-opacity="1" stroke="#000000" stroke-opacity="1" stroke-width="3.2"/>
<circle clip-path="url(#clip362)" cx="1290.79" cy="748.089" r="14" fill="#009af9" fill-rule="evenodd" fill-opacity="1" stroke="#000000" stroke-opacity="1" stroke-width="3.2"/>
<circle clip-path="url(#clip362)" cx="1282.5" cy="789.184" r="14" fill="#009af9" fill-rule="evenodd" fill-opacity="1" stroke="#000000" stroke-opacity="1" stroke-width="3.2"/>
<circle clip-path="url(#clip362)" cx="1406.49" cy="729.626" r="14" fill="#009af9" fill-rule="evenodd" fill-opacity="1" stroke="#000000" stroke-opacity="1" stroke-width="3.2"/>
<circle clip-path="url(#clip362)" cx="1255.41" cy="724.333" r="14" fill="#009af9" fill-rule="evenodd" fill-opacity="1" stroke="#000000" stroke-opacity="1" stroke-width="3.2"/>
<circle clip-path="url(#clip362)" cx="1329.13" cy="721.788" r="14" fill="#009af9" fill-rule="evenodd" fill-opacity="1" stroke="#000000" stroke-opacity="1" stroke-width="3.2"/>
<circle clip-path="url(#clip362)" cx="1331.41" cy="799.762" r="14" fill="#009af9" fill-rule="evenodd" fill-opacity="1" stroke="#000000" stroke-opacity="1" stroke-width="3.2"/>
<circle clip-path="url(#clip362)" cx="1423.25" cy="635.354" r="14" fill="#009af9" fill-rule="evenodd" fill-opacity="1" stroke="#000000" stroke-opacity="1" stroke-width="3.2"/>
<circle clip-path="url(#clip362)" cx="1295.17" cy="717.873" r="14" fill="#009af9" fill-rule="evenodd" fill-opacity="1" stroke="#000000" stroke-opacity="1" stroke-width="3.2"/>
<circle clip-path="url(#clip362)" cx="1440.74" cy="636.504" r="14" fill="#009af9" fill-rule="evenodd" fill-opacity="1" stroke="#000000" stroke-opacity="1" stroke-width="3.2"/>
<circle clip-path="url(#clip362)" cx="1242.23" cy="641.791" r="14" fill="#009af9" fill-rule="evenodd" fill-opacity="1" stroke="#000000" stroke-opacity="1" stroke-width="3.2"/>
<circle clip-path="url(#clip362)" cx="1360.07" cy="670.706" r="14" fill="#009af9" fill-rule="evenodd" fill-opacity="1" stroke="#000000" stroke-opacity="1" stroke-width="3.2"/>
<circle clip-path="url(#clip362)" cx="1607.27" cy="586.424" r="14" fill="#009af9" fill-rule="evenodd" fill-opacity="1" stroke="#000000" stroke-opacity="1" stroke-width="3.2"/>
<circle clip-path="url(#clip362)" cx="1244.63" cy="785.748" r="14" fill="#009af9" fill-rule="evenodd" fill-opacity="1" stroke="#000000" stroke-opacity="1" stroke-width="3.2"/>
<circle clip-path="url(#clip362)" cx="1314.07" cy="679.637" r="14" fill="#009af9" fill-rule="evenodd" fill-opacity="1" stroke="#000000" stroke-opacity="1" stroke-width="3.2"/>
<circle clip-path="url(#clip362)" cx="1423.94" cy="711.932" r="14" fill="#009af9" fill-rule="evenodd" fill-opacity="1" stroke="#000000" stroke-opacity="1" stroke-width="3.2"/>
<circle clip-path="url(#clip362)" cx="1065.36" cy="808.383" r="14" fill="#009af9" fill-rule="evenodd" fill-opacity="1" stroke="#000000" stroke-opacity="1" stroke-width="3.2"/>
<circle clip-path="url(#clip362)" cx="1341.62" cy="740.008" r="14" fill="#009af9" fill-rule="evenodd" fill-opacity="1" stroke="#000000" stroke-opacity="1" stroke-width="3.2"/>
<circle clip-path="url(#clip362)" cx="1279.6" cy="709.035" r="14" fill="#009af9" fill-rule="evenodd" fill-opacity="1" stroke="#000000" stroke-opacity="1" stroke-width="3.2"/>
<circle clip-path="url(#clip362)" cx="1591.49" cy="542.869" r="14" fill="#009af9" fill-rule="evenodd" fill-opacity="1" stroke="#000000" stroke-opacity="1" stroke-width="3.2"/>
<circle clip-path="url(#clip362)" cx="1478.47" cy="674.824" r="14" fill="#009af9" fill-rule="evenodd" fill-opacity="1" stroke="#000000" stroke-opacity="1" stroke-width="3.2"/>
<circle clip-path="url(#clip362)" cx="1373.35" cy="680.851" r="14" fill="#009af9" fill-rule="evenodd" fill-opacity="1" stroke="#000000" stroke-opacity="1" stroke-width="3.2"/>
<circle clip-path="url(#clip362)" cx="1465.47" cy="544.797" r="14" fill="#009af9" fill-rule="evenodd" fill-opacity="1" stroke="#000000" stroke-opacity="1" stroke-width="3.2"/>
<circle clip-path="url(#clip362)" cx="1211.52" cy="733.125" r="14" fill="#009af9" fill-rule="evenodd" fill-opacity="1" stroke="#000000" stroke-opacity="1" stroke-width="3.2"/>
<circle clip-path="url(#clip362)" cx="1504.3" cy="660.815" r="14" fill="#009af9" fill-rule="evenodd" fill-opacity="1" stroke="#000000" stroke-opacity="1" stroke-width="3.2"/>
<circle clip-path="url(#clip362)" cx="1381.65" cy="609.527" r="14" fill="#009af9" fill-rule="evenodd" fill-opacity="1" stroke="#000000" stroke-opacity="1" stroke-width="3.2"/>
<circle clip-path="url(#clip362)" cx="1253.83" cy="754.043" r="14" fill="#009af9" fill-rule="evenodd" fill-opacity="1" stroke="#000000" stroke-opacity="1" stroke-width="3.2"/>
<circle clip-path="url(#clip362)" cx="1465.15" cy="635.563" r="14" fill="#009af9" fill-rule="evenodd" fill-opacity="1" stroke="#000000" stroke-opacity="1" stroke-width="3.2"/>
<circle clip-path="url(#clip362)" cx="1412.33" cy="684.306" r="14" fill="#009af9" fill-rule="evenodd" fill-opacity="1" stroke="#000000" stroke-opacity="1" stroke-width="3.2"/>
<circle clip-path="url(#clip362)" cx="1305.28" cy="673.467" r="14" fill="#009af9" fill-rule="evenodd" fill-opacity="1" stroke="#000000" stroke-opacity="1" stroke-width="3.2"/>
<circle clip-path="url(#clip362)" cx="1443.6" cy="662.016" r="14" fill="#009af9" fill-rule="evenodd" fill-opacity="1" stroke="#000000" stroke-opacity="1" stroke-width="3.2"/>
<circle clip-path="url(#clip362)" cx="1273.16" cy="774.02" r="14" fill="#009af9" fill-rule="evenodd" fill-opacity="1" stroke="#000000" stroke-opacity="1" stroke-width="3.2"/>
<circle clip-path="url(#clip362)" cx="1386.83" cy="625.471" r="14" fill="#009af9" fill-rule="evenodd" fill-opacity="1" stroke="#000000" stroke-opacity="1" stroke-width="3.2"/>
<circle clip-path="url(#clip362)" cx="1505.59" cy="609.28" r="14" fill="#009af9" fill-rule="evenodd" fill-opacity="1" stroke="#000000" stroke-opacity="1" stroke-width="3.2"/>
<circle clip-path="url(#clip362)" cx="1407.7" cy="551.076" r="14" fill="#009af9" fill-rule="evenodd" fill-opacity="1" stroke="#000000" stroke-opacity="1" stroke-width="3.2"/>
<circle clip-path="url(#clip362)" cx="1370.43" cy="632.385" r="14" fill="#009af9" fill-rule="evenodd" fill-opacity="1" stroke="#000000" stroke-opacity="1" stroke-width="3.2"/>
<circle clip-path="url(#clip362)" cx="1444.82" cy="546.442" r="14" fill="#009af9" fill-rule="evenodd" fill-opacity="1" stroke="#000000" stroke-opacity="1" stroke-width="3.2"/>
<circle clip-path="url(#clip362)" cx="1313.84" cy="720.94" r="14" fill="#009af9" fill-rule="evenodd" fill-opacity="1" stroke="#000000" stroke-opacity="1" stroke-width="3.2"/>
<circle clip-path="url(#clip362)" cx="1160.16" cy="768.624" r="14" fill="#009af9" fill-rule="evenodd" fill-opacity="1" stroke="#000000" stroke-opacity="1" stroke-width="3.2"/>
<circle clip-path="url(#clip362)" cx="1502.11" cy="624.431" r="14" fill="#009af9" fill-rule="evenodd" fill-opacity="1" stroke="#000000" stroke-opacity="1" stroke-width="3.2"/>
<circle clip-path="url(#clip362)" cx="1322.73" cy="643.515" r="14" fill="#009af9" fill-rule="evenodd" fill-opacity="1" stroke="#000000" stroke-opacity="1" stroke-width="3.2"/>
<circle clip-path="url(#clip362)" cx="1327.48" cy="756.859" r="14" fill="#009af9" fill-rule="evenodd" fill-opacity="1" stroke="#000000" stroke-opacity="1" stroke-width="3.2"/>
<circle clip-path="url(#clip362)" cx="1257.06" cy="704.305" r="14" fill="#009af9" fill-rule="evenodd" fill-opacity="1" stroke="#000000" stroke-opacity="1" stroke-width="3.2"/>
<path clip-path="url(#clip362)" d="
M390.539 1285.31 L400.064 1280.21 L409.59 1275.13 L419.115 1270.04 L428.64 1264.96 L438.166 1259.88 L447.691 1254.81 L457.216 1249.75 L466.742 1244.68 L476.267 1239.62 
  L485.792 1234.57 L495.318 1229.52 L504.843 1224.48 L514.368 1219.44 L523.894 1214.4 L533.419 1209.37 L542.944 1204.34 L552.47 1199.32 L561.995 1194.31 L571.52 1189.3 
  L581.046 1184.29 L590.571 1179.29 L600.096 1174.3 L609.622 1169.31 L619.147 1164.32 L628.672 1159.34 L638.198 1154.37 L647.723 1149.4 L657.248 1144.44 L666.774 1139.48 
  L676.299 1134.53 L685.824 1129.59 L695.35 1124.65 L704.875 1119.72 L714.4 1114.79 L723.926 1109.87 L733.451 1104.96 L742.976 1100.05 L752.501 1095.15 L762.027 1090.25 
  L771.552 1085.36 L781.077 1080.48 L790.603 1075.61 L800.128 1070.74 L809.653 1065.88 L819.179 1061.02 L828.704 1056.17 L838.229 1051.33 L847.755 1046.5 L857.28 1041.67 
  L866.805 1036.85 L876.331 1032.04 L885.856 1027.24 L895.381 1022.44 L904.907 1017.65 L914.432 1012.87 L923.957 1008.1 L933.483 1003.33 L943.008 998.57 L952.533 993.819 
  L962.059 989.076 L971.584 984.342 L981.109 979.615 L990.635 974.897 L1000.16 970.186 L1009.69 965.484 L1019.21 960.791 L1028.74 956.106 L1038.26 951.429 L1047.79 946.761 
  L1057.31 942.101 L1066.84 937.45 L1076.36 932.808 L1085.89 928.175 L1095.41 923.55 L1104.94 918.935 L1114.46 914.328 L1123.99 909.73 L1133.51 905.141 L1143.04 900.562 
  L1152.57 895.991 L1162.09 891.43 L1171.62 886.878 L1181.14 882.335 L1190.67 877.801 L1200.19 873.277 L1209.72 868.762 L1219.24 864.257 L1228.77 859.761 L1238.29 855.274 
  L1247.82 850.797 L1257.34 846.329 L1266.87 841.871 L1276.39 837.422 L1285.92 832.983 L1295.44 828.554 L1304.97 824.134 L1314.5 819.724 L1324.02 815.323 L1333.55 810.932 
  L1343.07 806.551 L1352.6 802.179 L1362.12 797.817 L1371.65 793.464 L1381.17 789.121 L1390.7 784.788 L1400.22 780.464 L1409.75 776.15 L1419.27 771.845 L1428.8 767.55 
  L1438.32 763.265 L1447.85 758.989 L1457.38 754.722 L1466.9 750.465 L1476.43 746.218 L1485.95 741.979 L1495.48 737.751 L1505 733.531 L1514.53 729.321 L1524.05 725.12 
  L1533.58 720.929 L1543.1 716.746 L1552.63 712.573 L1562.15 708.409 L1571.68 704.254 L1581.2 700.108 L1590.73 695.971 L1600.26 691.842 L1609.78 687.723 L1619.31 683.613 
  L1628.83 679.511 L1638.36 675.418 L1647.88 671.334 L1657.41 667.258 L1666.93 663.191 L1676.46 659.132 L1685.98 655.082 L1695.51 651.04 L1705.03 647.006 L1714.56 642.98 
  L1724.08 638.963 L1733.61 634.954 L1743.14 630.952 L1752.66 626.959 L1762.19 622.973 L1771.71 618.996 L1781.24 615.026 L1790.76 611.064 L1800.29 607.109 L1809.81 603.162 
  L1819.34 599.222 L1828.86 595.29 L1838.39 591.365 L1847.91 587.447 L1857.44 583.536 L1866.96 579.633 L1876.49 575.736 L1886.02 571.847 L1895.54 567.964 L1905.07 564.088 
  L1914.59 560.219 L1924.12 556.357 L1933.64 552.501 L1943.17 548.651 L1952.69 544.808 L1962.22 540.972 L1971.74 537.141 L1981.27 533.317 L1990.79 529.499 L2000.32 525.687 
  L2009.84 521.881 L2019.37 518.081 L2028.89 514.287 L2038.42 510.499 L2047.95 506.716 L2057.47 502.939 L2067 499.168 L2076.52 495.402 L2086.05 491.641 L2095.57 487.886 
  L2105.1 484.136 L2114.62 480.392 L2124.15 476.653 L2133.67 472.918 L2143.2 469.189 L2152.72 465.465 L2162.25 461.746 L2171.77 458.031 L2181.3 454.322 L2190.83 450.617 
  L2200.35 446.917 L2209.88 443.221 L2219.4 439.53 L2228.93 435.844 L2238.45 432.162 L2247.98 428.484 L2257.5 424.811 L2267.03 421.142 L2276.55 417.477 L2286.08 413.816 
  L2295.6 410.16 L2295.6 83.3042 L2286.08 88.3938 L2276.55 93.4793 L2267.03 98.5607 L2257.5 103.638 L2247.98 108.711 L2238.45 113.779 L2228.93 118.843 L2219.4 123.903 
  L2209.88 128.958 L2200.35 134.009 L2190.83 139.055 L2181.3 144.096 L2171.77 149.133 L2162.25 154.165 L2152.72 159.192 L2143.2 164.214 L2133.67 169.231 L2124.15 174.243 
  L2114.62 179.25 L2105.1 184.251 L2095.57 189.248 L2086.05 194.239 L2076.52 199.224 L2067 204.205 L2057.47 209.18 L2047.95 214.149 L2038.42 219.112 L2028.89 224.07 
  L2019.37 229.022 L2009.84 233.968 L2000.32 238.909 L1990.79 243.843 L1981.27 248.771 L1971.74 253.693 L1962.22 258.609 L1952.69 263.518 L1943.17 268.422 L1933.64 273.318 
  L1924.12 278.208 L1914.59 283.092 L1905.07 287.969 L1895.54 292.839 L1886.02 297.703 L1876.49 302.56 L1866.96 307.409 L1857.44 312.252 L1847.91 317.087 L1838.39 321.916 
  L1828.86 326.737 L1819.34 331.551 L1809.81 336.357 L1800.29 341.157 L1790.76 345.948 L1781.24 350.732 L1771.71 355.508 L1762.19 360.277 L1752.66 365.037 L1743.14 369.79 
  L1733.61 374.535 L1724.08 379.272 L1714.56 384.001 L1705.03 388.722 L1695.51 393.434 L1685.98 398.138 L1676.46 402.834 L1666.93 407.521 L1657.41 412.2 L1647.88 416.871 
  L1638.36 421.533 L1628.83 426.186 L1619.31 430.83 L1609.78 435.466 L1600.26 440.093 L1590.73 444.711 L1581.2 449.32 L1571.68 453.92 L1562.15 458.511 L1552.63 463.093 
  L1543.1 467.666 L1533.58 472.23 L1524.05 476.785 L1514.53 481.33 L1505 485.866 L1495.48 490.393 L1485.95 494.91 L1476.43 499.418 L1466.9 503.917 L1457.38 508.406 
  L1447.85 512.886 L1438.32 517.356 L1428.8 521.816 L1419.27 526.268 L1409.75 530.709 L1400.22 535.141 L1390.7 539.564 L1381.17 543.976 L1371.65 548.38 L1362.12 552.773 
  L1352.6 557.157 L1343.07 561.532 L1333.55 565.896 L1324.02 570.252 L1314.5 574.597 L1304.97 578.933 L1295.44 583.259 L1285.92 587.576 L1276.39 591.883 L1266.87 596.181 
  L1257.34 600.469 L1247.82 604.747 L1238.29 609.016 L1228.77 613.276 L1219.24 617.526 L1209.72 621.767 L1200.19 625.998 L1190.67 630.22 L1181.14 634.432 L1171.62 638.636 
  L1162.09 642.83 L1152.57 647.015 L1143.04 651.19 L1133.51 655.357 L1123.99 659.514 L1114.46 663.663 L1104.94 667.802 L1095.41 671.933 L1085.89 676.054 L1076.36 680.167 
  L1066.84 684.271 L1057.31 688.367 L1047.79 692.453 L1038.26 696.531 L1028.74 700.601 L1019.21 704.662 L1009.69 708.714 L1000.16 712.759 L990.635 716.795 L981.109 720.822 
  L971.584 724.842 L962.059 728.853 L952.533 732.857 L943.008 736.852 L933.483 740.84 L923.957 744.819 L914.432 748.791 L904.907 752.756 L895.381 756.712 L885.856 760.662 
  L876.331 764.603 L866.805 768.537 L857.28 772.464 L847.755 776.384 L838.229 780.297 L828.704 784.202 L819.179 788.1 L809.653 791.992 L800.128 795.876 L790.603 799.754 
  L781.077 803.625 L771.552 807.489 L762.027 811.347 L752.501 815.198 L742.976 819.043 L733.451 822.881 L723.926 826.713 L714.4 830.539 L704.875 834.359 L695.35 838.172 
  L685.824 841.98 L676.299 845.781 L666.774 849.577 L657.248 853.367 L647.723 857.151 L638.198 860.93 L628.672 864.702 L619.147 868.47 L609.622 872.232 L600.096 875.988 
  L590.571 879.739 L581.046 883.485 L571.52 887.226 L561.995 890.961 L552.47 894.692 L542.944 898.417 L533.419 902.138 L523.894 905.854 L514.368 909.564 L504.843 913.271 
  L495.318 916.972 L485.792 920.669 L476.267 924.361 L466.742 928.049 L457.216 931.732 L447.691 935.411 L438.166 939.085 L428.64 942.755 L419.115 946.421 L409.59 950.083 
  L400.064 953.741 L390.539 957.394  Z
  " fill="#e26f46" fill-rule="evenodd" fill-opacity="0.5"/>
<polyline clip-path="url(#clip362)" style="stroke:#e26f46; stroke-linecap:butt; stroke-linejoin:round; stroke-width:4; stroke-opacity:1; fill:none" points="
  390.539,1121.35 400.064,1116.98 409.59,1112.6 419.115,1108.23 428.64,1103.86 438.166,1099.48 447.691,1095.11 457.216,1090.74 466.742,1086.37 476.267,1081.99 
  485.792,1077.62 495.318,1073.25 504.843,1068.87 514.368,1064.5 523.894,1060.13 533.419,1055.75 542.944,1051.38 552.47,1047.01 561.995,1042.63 571.52,1038.26 
  581.046,1033.89 590.571,1029.52 600.096,1025.14 609.622,1020.77 619.147,1016.4 628.672,1012.02 638.198,1007.65 647.723,1003.28 657.248,998.904 666.774,994.531 
  676.299,990.158 685.824,985.785 695.35,981.411 704.875,977.038 714.4,972.665 723.926,968.292 733.451,963.919 742.976,959.546 752.501,955.173 762.027,950.8 
  771.552,946.427 781.077,942.054 790.603,937.681 800.128,933.307 809.653,928.934 819.179,924.561 828.704,920.188 838.229,915.815 847.755,911.442 857.28,907.069 
  866.805,902.696 876.331,898.323 885.856,893.95 895.381,889.577 904.907,885.203 914.432,880.83 923.957,876.457 933.483,872.084 943.008,867.711 952.533,863.338 
  962.059,858.965 971.584,854.592 981.109,850.219 990.635,845.846 1000.16,841.472 1009.69,837.099 1019.21,832.726 1028.74,828.353 1038.26,823.98 1047.79,819.607 
  1057.31,815.234 1066.84,810.861 1076.36,806.488 1085.89,802.115 1095.41,797.742 1104.94,793.368 1114.46,788.995 1123.99,784.622 1133.51,780.249 1143.04,775.876 
  1152.57,771.503 1162.09,767.13 1171.62,762.757 1181.14,758.384 1190.67,754.011 1200.19,749.638 1209.72,745.264 1219.24,740.891 1228.77,736.518 1238.29,732.145 
  1247.82,727.772 1257.34,723.399 1266.87,719.026 1276.39,714.653 1285.92,710.28 1295.44,705.907 1304.97,701.534 1314.5,697.16 1324.02,692.787 1333.55,688.414 
  1343.07,684.041 1352.6,679.668 1362.12,675.295 1371.65,670.922 1381.17,666.549 1390.7,662.176 1400.22,657.803 1409.75,653.43 1419.27,649.056 1428.8,644.683 
  1438.32,640.31 1447.85,635.937 1457.38,631.564 1466.9,627.191 1476.43,622.818 1485.95,618.445 1495.48,614.072 1505,609.699 1514.53,605.326 1524.05,600.952 
  1533.58,596.579 1543.1,592.206 1552.63,587.833 1562.15,583.46 1571.68,579.087 1581.2,574.714 1590.73,570.341 1600.26,565.968 1609.78,561.595 1619.31,557.221 
  1628.83,552.848 1638.36,548.475 1647.88,544.102 1657.41,539.729 1666.93,535.356 1676.46,530.983 1685.98,526.61 1695.51,522.237 1705.03,517.864 1714.56,513.491 
  1724.08,509.117 1733.61,504.744 1743.14,500.371 1752.66,495.998 1762.19,491.625 1771.71,487.252 1781.24,482.879 1790.76,478.506 1800.29,474.133 1809.81,469.76 
  1819.34,465.387 1828.86,461.013 1838.39,456.64 1847.91,452.267 1857.44,447.894 1866.96,443.521 1876.49,439.148 1886.02,434.775 1895.54,430.402 1905.07,426.029 
  1914.59,421.656 1924.12,417.283 1933.64,412.909 1943.17,408.536 1952.69,404.163 1962.22,399.79 1971.74,395.417 1981.27,391.044 1990.79,386.671 2000.32,382.298 
  2009.84,377.925 2019.37,373.552 2028.89,369.179 2038.42,364.805 2047.95,360.432 2057.47,356.059 2067,351.686 2076.52,347.313 2086.05,342.94 2095.57,338.567 
  2105.1,334.194 2114.62,329.821 2124.15,325.448 2133.67,321.075 2143.2,316.701 2152.72,312.328 2162.25,307.955 2171.77,303.582 2181.3,299.209 2190.83,294.836 
  2200.35,290.463 2209.88,286.09 2219.4,281.717 2228.93,277.344 2238.45,272.971 2247.98,268.597 2257.5,264.224 2267.03,259.851 2276.55,255.478 2286.08,251.105 
  2295.6,246.732 
  "/>
<path clip-path="url(#clip362)" d="
M390.539 1230.99 L400.064 1225.54 L409.59 1220.09 L419.115 1214.64 L428.64 1209.19 L438.166 1203.74 L447.691 1198.28 L457.216 1192.83 L466.742 1187.38 L476.267 1181.93 
  L485.792 1176.48 L495.318 1171.03 L504.843 1165.58 L514.368 1160.13 L523.894 1154.68 L533.419 1149.23 L542.944 1143.78 L552.47 1138.33 L561.995 1132.88 L571.52 1127.44 
  L581.046 1121.99 L590.571 1116.54 L600.096 1111.09 L609.622 1105.64 L619.147 1100.2 L628.672 1094.75 L638.198 1089.3 L647.723 1083.86 L657.248 1078.41 L666.774 1072.96 
  L676.299 1067.52 L685.824 1062.07 L695.35 1056.63 L704.875 1051.18 L714.4 1045.74 L723.926 1040.3 L733.451 1034.85 L742.976 1029.41 L752.501 1023.97 L762.027 1018.53 
  L771.552 1013.09 L781.077 1007.65 L790.603 1002.21 L800.128 996.77 L809.653 991.332 L819.179 985.894 L828.704 980.458 L838.229 975.022 L847.755 969.587 L857.28 964.153 
  L866.805 958.719 L876.331 953.287 L885.856 947.856 L895.381 942.426 L904.907 936.997 L914.432 931.569 L923.957 926.143 L933.483 920.718 L943.008 915.295 L952.533 909.873 
  L962.059 904.453 L971.584 899.035 L981.109 893.619 L990.635 888.205 L1000.16 882.794 L1009.69 877.384 L1019.21 871.978 L1028.74 866.574 L1038.26 861.174 L1047.79 855.777 
  L1057.31 850.384 L1066.84 844.994 L1076.36 839.609 L1085.89 834.229 L1095.41 828.855 L1104.94 823.486 L1114.46 818.123 L1123.99 812.768 L1133.51 807.42 L1143.04 802.081 
  L1152.57 796.752 L1162.09 791.434 L1171.62 786.128 L1181.14 780.836 L1190.67 775.559 L1200.19 770.3 L1209.72 765.06 L1219.24 759.844 L1228.77 754.653 L1238.29 749.491 
  L1247.82 744.363 L1257.34 739.274 L1266.87 734.228 L1276.39 729.232 L1285.92 724.293 L1295.44 719.418 L1304.97 714.613 L1314.5 709.887 L1324.02 705.245 L1333.55 700.694 
  L1343.07 696.238 L1352.6 691.878 L1362.12 687.613 L1371.65 683.443 L1381.17 679.361 L1390.7 675.363 L1400.22 671.441 L1409.75 667.588 L1419.27 663.797 L1428.8 660.06 
  L1438.32 656.372 L1447.85 652.726 L1457.38 649.117 L1466.9 645.541 L1476.43 641.992 L1485.95 638.469 L1495.48 634.968 L1505 631.486 L1514.53 628.021 L1524.05 624.571 
  L1533.58 621.134 L1543.1 617.709 L1552.63 614.294 L1562.15 610.889 L1571.68 607.493 L1581.2 604.104 L1590.73 600.722 L1600.26 597.347 L1609.78 593.977 L1619.31 590.612 
  L1628.83 587.252 L1638.36 583.896 L1647.88 580.544 L1657.41 577.196 L1666.93 573.851 L1676.46 570.509 L1685.98 567.17 L1695.51 563.834 L1705.03 560.5 L1714.56 557.168 
  L1724.08 553.839 L1733.61 550.511 L1743.14 547.186 L1752.66 543.862 L1762.19 540.539 L1771.71 537.218 L1781.24 533.899 L1790.76 530.58 L1800.29 527.263 L1809.81 523.948 
  L1819.34 520.633 L1828.86 517.319 L1838.39 514.006 L1847.91 510.695 L1857.44 507.384 L1866.96 504.074 L1876.49 500.764 L1886.02 497.456 L1895.54 494.148 L1905.07 490.841 
  L1914.59 487.534 L1924.12 484.229 L1933.64 480.923 L1943.17 477.619 L1952.69 474.314 L1962.22 471.011 L1971.74 467.707 L1981.27 464.405 L1990.79 461.102 L2000.32 457.8 
  L2009.84 454.499 L2019.37 451.198 L2028.89 447.897 L2038.42 444.597 L2047.95 441.297 L2057.47 437.997 L2067 434.698 L2076.52 431.399 L2086.05 428.1 L2095.57 424.802 
  L2105.1 421.503 L2114.62 418.205 L2124.15 414.908 L2133.67 411.61 L2143.2 408.313 L2152.72 405.016 L2162.25 401.719 L2171.77 398.423 L2181.3 395.126 L2190.83 391.83 
  L2200.35 388.534 L2209.88 385.239 L2219.4 381.943 L2228.93 378.648 L2238.45 375.352 L2247.98 372.057 L2257.5 368.762 L2267.03 365.468 L2276.55 362.173 L2286.08 358.879 
  L2295.6 355.584 L2295.6 137.88 L2286.08 143.332 L2276.55 148.783 L2267.03 154.235 L2257.5 159.686 L2247.98 165.137 L2238.45 170.589 L2228.93 176.04 L2219.4 181.49 
  L2209.88 186.941 L2200.35 192.391 L2190.83 197.842 L2181.3 203.292 L2171.77 208.741 L2162.25 214.191 L2152.72 219.641 L2143.2 225.09 L2133.67 230.539 L2124.15 235.987 
  L2114.62 241.436 L2105.1 246.884 L2095.57 252.332 L2086.05 257.78 L2076.52 263.227 L2067 268.674 L2057.47 274.121 L2047.95 279.568 L2038.42 285.014 L2028.89 290.46 
  L2019.37 295.905 L2009.84 301.35 L2000.32 306.795 L1990.79 312.239 L1981.27 317.683 L1971.74 323.127 L1962.22 328.57 L1952.69 334.012 L1943.17 339.454 L1933.64 344.896 
  L1924.12 350.336 L1914.59 355.777 L1905.07 361.216 L1895.54 366.656 L1886.02 372.094 L1876.49 377.532 L1866.96 382.968 L1857.44 388.405 L1847.91 393.84 L1838.39 399.274 
  L1828.86 404.708 L1819.34 410.14 L1809.81 415.572 L1800.29 421.002 L1790.76 426.431 L1781.24 431.859 L1771.71 437.286 L1762.19 442.711 L1752.66 448.135 L1743.14 453.557 
  L1733.61 458.977 L1724.08 464.396 L1714.56 469.813 L1705.03 475.227 L1695.51 480.639 L1685.98 486.049 L1676.46 491.457 L1666.93 496.861 L1657.41 502.262 L1647.88 507.66 
  L1638.36 513.055 L1628.83 518.445 L1619.31 523.831 L1609.78 529.212 L1600.26 534.589 L1590.73 539.959 L1581.2 545.324 L1571.68 550.681 L1562.15 556.031 L1552.63 561.372 
  L1543.1 566.704 L1533.58 572.025 L1524.05 577.334 L1514.53 582.63 L1505 587.911 L1495.48 593.175 L1485.95 598.42 L1476.43 603.643 L1466.9 608.841 L1457.38 614.011 
  L1447.85 619.148 L1438.32 624.249 L1428.8 629.307 L1419.27 634.316 L1409.75 639.271 L1400.22 644.164 L1390.7 648.989 L1381.17 653.736 L1371.65 658.401 L1362.12 662.977 
  L1352.6 667.459 L1343.07 671.845 L1333.55 676.134 L1324.02 680.329 L1314.5 684.434 L1304.97 688.454 L1295.44 692.396 L1285.92 696.266 L1276.39 700.073 L1266.87 703.824 
  L1257.34 707.524 L1247.82 711.181 L1238.29 714.799 L1228.77 718.384 L1219.24 721.939 L1209.72 725.468 L1200.19 728.975 L1190.67 732.462 L1181.14 735.932 L1171.62 739.386 
  L1162.09 742.826 L1152.57 746.254 L1143.04 749.671 L1133.51 753.078 L1123.99 756.477 L1114.46 759.868 L1104.94 763.251 L1095.41 766.629 L1085.89 770 L1076.36 773.366 
  L1066.84 776.727 L1057.31 780.084 L1047.79 783.437 L1038.26 786.786 L1028.74 790.132 L1019.21 793.475 L1009.69 796.814 L1000.16 800.151 L990.635 803.486 L981.109 806.818 
  L971.584 810.148 L962.059 813.476 L952.533 816.803 L943.008 820.127 L933.483 823.45 L923.957 826.771 L914.432 830.091 L904.907 833.41 L895.381 836.727 L885.856 840.043 
  L876.331 843.358 L866.805 846.672 L857.28 849.985 L847.755 853.297 L838.229 856.608 L828.704 859.919 L819.179 863.228 L809.653 866.537 L800.128 869.845 L790.603 873.152 
  L781.077 876.459 L771.552 879.765 L762.027 883.07 L752.501 886.375 L742.976 889.679 L733.451 892.983 L723.926 896.287 L714.4 899.589 L704.875 902.892 L695.35 906.194 
  L685.824 909.495 L676.299 912.797 L666.774 916.097 L657.248 919.398 L647.723 922.698 L638.198 925.998 L628.672 929.297 L619.147 932.596 L609.622 935.895 L600.096 939.194 
  L590.571 942.492 L581.046 945.79 L571.52 949.088 L561.995 952.385 L552.47 955.683 L542.944 958.98 L533.419 962.276 L523.894 965.573 L514.368 968.869 L504.843 972.166 
  L495.318 975.462 L485.792 978.757 L476.267 982.053 L466.742 985.348 L457.216 988.644 L447.691 991.939 L438.166 995.234 L428.64 998.529 L419.115 1001.82 L409.59 1005.12 
  L400.064 1008.41 L390.539 1011.71  Z
  " fill="#3da44d" fill-rule="evenodd" fill-opacity="0.5"/>
<polyline clip-path="url(#clip362)" style="stroke:#3da44d; stroke-linecap:butt; stroke-linejoin:round; stroke-width:4; stroke-opacity:1; fill:none" points="
  390.539,1121.35 400.064,1116.98 409.59,1112.6 419.115,1108.23 428.64,1103.86 438.166,1099.48 447.691,1095.11 457.216,1090.74 466.742,1086.37 476.267,1081.99 
  485.792,1077.62 495.318,1073.25 504.843,1068.87 514.368,1064.5 523.894,1060.13 533.419,1055.75 542.944,1051.38 552.47,1047.01 561.995,1042.63 571.52,1038.26 
  581.046,1033.89 590.571,1029.52 600.096,1025.14 609.622,1020.77 619.147,1016.4 628.672,1012.02 638.198,1007.65 647.723,1003.28 657.248,998.904 666.774,994.531 
  676.299,990.158 685.824,985.785 695.35,981.411 704.875,977.038 714.4,972.665 723.926,968.292 733.451,963.919 742.976,959.546 752.501,955.173 762.027,950.8 
  771.552,946.427 781.077,942.054 790.603,937.681 800.128,933.307 809.653,928.934 819.179,924.561 828.704,920.188 838.229,915.815 847.755,911.442 857.28,907.069 
  866.805,902.696 876.331,898.323 885.856,893.95 895.381,889.577 904.907,885.203 914.432,880.83 923.957,876.457 933.483,872.084 943.008,867.711 952.533,863.338 
  962.059,858.965 971.584,854.592 981.109,850.219 990.635,845.846 1000.16,841.472 1009.69,837.099 1019.21,832.726 1028.74,828.353 1038.26,823.98 1047.79,819.607 
  1057.31,815.234 1066.84,810.861 1076.36,806.488 1085.89,802.115 1095.41,797.742 1104.94,793.368 1114.46,788.995 1123.99,784.622 1133.51,780.249 1143.04,775.876 
  1152.57,771.503 1162.09,767.13 1171.62,762.757 1181.14,758.384 1190.67,754.011 1200.19,749.638 1209.72,745.264 1219.24,740.891 1228.77,736.518 1238.29,732.145 
  1247.82,727.772 1257.34,723.399 1266.87,719.026 1276.39,714.653 1285.92,710.28 1295.44,705.907 1304.97,701.534 1314.5,697.16 1324.02,692.787 1333.55,688.414 
  1343.07,684.041 1352.6,679.668 1362.12,675.295 1371.65,670.922 1381.17,666.549 1390.7,662.176 1400.22,657.803 1409.75,653.43 1419.27,649.056 1428.8,644.683 
  1438.32,640.31 1447.85,635.937 1457.38,631.564 1466.9,627.191 1476.43,622.818 1485.95,618.445 1495.48,614.072 1505,609.699 1514.53,605.326 1524.05,600.952 
  1533.58,596.579 1543.1,592.206 1552.63,587.833 1562.15,583.46 1571.68,579.087 1581.2,574.714 1590.73,570.341 1600.26,565.968 1609.78,561.595 1619.31,557.221 
  1628.83,552.848 1638.36,548.475 1647.88,544.102 1657.41,539.729 1666.93,535.356 1676.46,530.983 1685.98,526.61 1695.51,522.237 1705.03,517.864 1714.56,513.491 
  1724.08,509.117 1733.61,504.744 1743.14,500.371 1752.66,495.998 1762.19,491.625 1771.71,487.252 1781.24,482.879 1790.76,478.506 1800.29,474.133 1809.81,469.76 
  1819.34,465.387 1828.86,461.013 1838.39,456.64 1847.91,452.267 1857.44,447.894 1866.96,443.521 1876.49,439.148 1886.02,434.775 1895.54,430.402 1905.07,426.029 
  1914.59,421.656 1924.12,417.283 1933.64,412.909 1943.17,408.536 1952.69,404.163 1962.22,399.79 1971.74,395.417 1981.27,391.044 1990.79,386.671 2000.32,382.298 
  2009.84,377.925 2019.37,373.552 2028.89,369.179 2038.42,364.805 2047.95,360.432 2057.47,356.059 2067,351.686 2076.52,347.313 2086.05,342.94 2095.57,338.567 
  2105.1,334.194 2114.62,329.821 2124.15,325.448 2133.67,321.075 2143.2,316.701 2152.72,312.328 2162.25,307.955 2171.77,303.582 2181.3,299.209 2190.83,294.836 
  2200.35,290.463 2209.88,286.09 2219.4,281.717 2228.93,277.344 2238.45,272.971 2247.98,268.597 2257.5,264.224 2267.03,259.851 2276.55,255.478 2286.08,251.105 
  2295.6,246.732 
  "/>
<path clip-path="url(#clip360)" d="
M400.7 290.914 L785.648 290.914 L785.648 89.7148 L400.7 89.7148  Z
  " fill="#ffffff" fill-rule="evenodd" fill-opacity="1"/>
<polyline clip-path="url(#clip360)" style="stroke:#000000; stroke-linecap:butt; stroke-linejoin:round; stroke-width:4; stroke-opacity:1; fill:none" points="
  400.7,290.914 785.648,290.914 785.648,89.7148 400.7,89.7148 400.7,290.914 
  "/>
<circle clip-path="url(#clip360)" cx="490.449" cy="140.015" r="23" fill="#009af9" fill-rule="evenodd" fill-opacity="1" stroke="#000000" stroke-opacity="1" stroke-width="5.12"/>
<g clip-path="url(#clip360)">
<text style="fill:#000000; fill-opacity:1; font-family:Arial,Helvetica Neue,Helvetica,sans-serif; font-size:48px; text-anchor:start;" transform="rotate(0, 580.199, 157.515)" x="580.199" y="157.515">data     </text>
</g>
<polyline clip-path="url(#clip360)" style="stroke:#e26f46; stroke-linecap:butt; stroke-linejoin:round; stroke-width:4; stroke-opacity:1; fill:none" points="
  423.137,190.314 557.762,190.314 
  "/>
<g clip-path="url(#clip360)">
<text style="fill:#000000; fill-opacity:1; font-family:Arial,Helvetica Neue,Helvetica,sans-serif; font-size:48px; text-anchor:start;" transform="rotate(0, 580.199, 207.814)" x="580.199" y="207.814">予測区間</text>
</g>
<polyline clip-path="url(#clip360)" style="stroke:#3da44d; stroke-linecap:butt; stroke-linejoin:round; stroke-width:4; stroke-opacity:1; fill:none" points="
  423.137,240.614 557.762,240.614 
  "/>
<g clip-path="url(#clip360)">
<text style="fill:#000000; fill-opacity:1; font-family:Arial,Helvetica Neue,Helvetica,sans-serif; font-size:48px; text-anchor:start;" transform="rotate(0, 580.199, 258.114)" x="580.199" y="258.114">信頼区間</text>
</g>
</svg>
