<?xml version="1.0" encoding="utf-8"?>
<svg xmlns="http://www.w3.org/2000/svg" xmlns:xlink="http://www.w3.org/1999/xlink" width="600" height="400" viewBox="0 0 2400 1600">
<defs>
  <clipPath id="clip400">
    <rect x="0" y="0" width="2400" height="1600"/>
  </clipPath>
</defs>
<path clip-path="url(#clip400)" d="
M0 1600 L2400 1600 L2400 0 L0 0  Z
  " fill="#ffffff" fill-rule="evenodd" fill-opacity="1"/>
<defs>
  <clipPath id="clip401">
    <rect x="480" y="0" width="1681" height="1600"/>
  </clipPath>
</defs>
<path clip-path="url(#clip400)" d="
M86.9921 1521.01 L2352.76 1521.01 L2352.76 62.9921 L86.9921 62.9921  Z
  " fill="#ffffff" fill-rule="evenodd" fill-opacity="1"/>
<defs>
  <clipPath id="clip402">
    <rect x="86" y="62" width="2267" height="1459"/>
  </clipPath>
</defs>
<polyline clip-path="url(#clip402)" style="stroke:#000000; stroke-width:2; stroke-opacity:0.1; fill:none" points="
  86.9921,1521.01 86.9921,62.9921 
  "/>
<polyline clip-path="url(#clip402)" style="stroke:#000000; stroke-width:2; stroke-opacity:0.1; fill:none" points="
  653.433,1521.01 653.433,62.9921 
  "/>
<polyline clip-path="url(#clip402)" style="stroke:#000000; stroke-width:2; stroke-opacity:0.1; fill:none" points="
  1219.87,1521.01 1219.87,62.9921 
  "/>
<polyline clip-path="url(#clip402)" style="stroke:#000000; stroke-width:2; stroke-opacity:0.1; fill:none" points="
  1786.31,1521.01 1786.31,62.9921 
  "/>
<polyline clip-path="url(#clip402)" style="stroke:#000000; stroke-width:2; stroke-opacity:0.1; fill:none" points="
  2352.76,1521.01 2352.76,62.9921 
  "/>
<polyline clip-path="url(#clip400)" style="stroke:#000000; stroke-width:4; stroke-opacity:1; fill:none" points="
  86.9921,1521.01 2352.76,1521.01 
  "/>
<polyline clip-path="url(#clip400)" style="stroke:#000000; stroke-width:4; stroke-opacity:1; fill:none" points="
  86.9921,1521.01 86.9921,1503.51 
  "/>
<polyline clip-path="url(#clip400)" style="stroke:#000000; stroke-width:4; stroke-opacity:1; fill:none" points="
  653.433,1521.01 653.433,1503.51 
  "/>
<polyline clip-path="url(#clip400)" style="stroke:#000000; stroke-width:4; stroke-opacity:1; fill:none" points="
  1219.87,1521.01 1219.87,1503.51 
  "/>
<polyline clip-path="url(#clip400)" style="stroke:#000000; stroke-width:4; stroke-opacity:1; fill:none" points="
  1786.31,1521.01 1786.31,1503.51 
  "/>
<polyline clip-path="url(#clip400)" style="stroke:#000000; stroke-width:4; stroke-opacity:1; fill:none" points="
  2352.76,1521.01 2352.76,1503.51 
  "/>
<g clip-path="url(#clip400)">
<text style="fill:#000000; fill-opacity:1; font-family:Arial,Helvetica Neue,Helvetica,sans-serif; font-size:48px; text-anchor:middle;" transform="rotate(0, 86.9921, 1582.21)" x="86.9921" y="1582.21">0</text>
</g>
<g clip-path="url(#clip400)">
<text style="fill:#000000; fill-opacity:1; font-family:Arial,Helvetica Neue,Helvetica,sans-serif; font-size:48px; text-anchor:middle;" transform="rotate(0, 653.433, 1582.21)" x="653.433" y="1582.21">2</text>
</g>
<g clip-path="url(#clip400)">
<text style="fill:#000000; fill-opacity:1; font-family:Arial,Helvetica Neue,Helvetica,sans-serif; font-size:48px; text-anchor:middle;" transform="rotate(0, 1219.87, 1582.21)" x="1219.87" y="1582.21">4</text>
</g>
<g clip-path="url(#clip400)">
<text style="fill:#000000; fill-opacity:1; font-family:Arial,Helvetica Neue,Helvetica,sans-serif; font-size:48px; text-anchor:middle;" transform="rotate(0, 1786.31, 1582.21)" x="1786.31" y="1582.21">6</text>
</g>
<g clip-path="url(#clip400)">
<text style="fill:#000000; fill-opacity:1; font-family:Arial,Helvetica Neue,Helvetica,sans-serif; font-size:48px; text-anchor:middle;" transform="rotate(0, 2352.76, 1582.21)" x="2352.76" y="1582.21">8</text>
</g>
<polyline clip-path="url(#clip402)" style="stroke:#000000; stroke-width:2; stroke-opacity:0.1; fill:none" points="
  86.9921,1521.01 2352.76,1521.01 
  "/>
<polyline clip-path="url(#clip402)" style="stroke:#000000; stroke-width:2; stroke-opacity:0.1; fill:none" points="
  86.9921,1229.4 2352.76,1229.4 
  "/>
<polyline clip-path="url(#clip402)" style="stroke:#000000; stroke-width:2; stroke-opacity:0.1; fill:none" points="
  86.9921,937.802 2352.76,937.802 
  "/>
<polyline clip-path="url(#clip402)" style="stroke:#000000; stroke-width:2; stroke-opacity:0.1; fill:none" points="
  86.9921,646.198 2352.76,646.198 
  "/>
<polyline clip-path="url(#clip402)" style="stroke:#000000; stroke-width:2; stroke-opacity:0.1; fill:none" points="
  86.9921,354.595 2352.76,354.595 
  "/>
<polyline clip-path="url(#clip402)" style="stroke:#000000; stroke-width:2; stroke-opacity:0.1; fill:none" points="
  86.9921,62.9921 2352.76,62.9921 
  "/>
<polyline clip-path="url(#clip400)" style="stroke:#000000; stroke-width:4; stroke-opacity:1; fill:none" points="
  86.9921,1521.01 86.9921,62.9921 
  "/>
<polyline clip-path="url(#clip400)" style="stroke:#000000; stroke-width:4; stroke-opacity:1; fill:none" points="
  86.9921,1521.01 114.181,1521.01 
  "/>
<polyline clip-path="url(#clip400)" style="stroke:#000000; stroke-width:4; stroke-opacity:1; fill:none" points="
  86.9921,1229.4 114.181,1229.4 
  "/>
<polyline clip-path="url(#clip400)" style="stroke:#000000; stroke-width:4; stroke-opacity:1; fill:none" points="
  86.9921,937.802 114.181,937.802 
  "/>
<polyline clip-path="url(#clip400)" style="stroke:#000000; stroke-width:4; stroke-opacity:1; fill:none" points="
  86.9921,646.198 114.181,646.198 
  "/>
<polyline clip-path="url(#clip400)" style="stroke:#000000; stroke-width:4; stroke-opacity:1; fill:none" points="
  86.9921,354.595 114.181,354.595 
  "/>
<polyline clip-path="url(#clip400)" style="stroke:#000000; stroke-width:4; stroke-opacity:1; fill:none" points="
  86.9921,62.9921 114.181,62.9921 
  "/>
<g clip-path="url(#clip400)">
<text style="fill:#000000; fill-opacity:1; font-family:Arial,Helvetica Neue,Helvetica,sans-serif; font-size:48px; text-anchor:end;" transform="rotate(0, 50.9921, 1538.51)" x="50.9921" y="1538.51">0.0</text>
</g>
<g clip-path="url(#clip400)">
<text style="fill:#000000; fill-opacity:1; font-family:Arial,Helvetica Neue,Helvetica,sans-serif; font-size:48px; text-anchor:end;" transform="rotate(0, 50.9921, 1246.9)" x="50.9921" y="1246.9">0.2</text>
</g>
<g clip-path="url(#clip400)">
<text style="fill:#000000; fill-opacity:1; font-family:Arial,Helvetica Neue,Helvetica,sans-serif; font-size:48px; text-anchor:end;" transform="rotate(0, 50.9921, 955.302)" x="50.9921" y="955.302">0.4</text>
</g>
<g clip-path="url(#clip400)">
<text style="fill:#000000; fill-opacity:1; font-family:Arial,Helvetica Neue,Helvetica,sans-serif; font-size:48px; text-anchor:end;" transform="rotate(0, 50.9921, 663.698)" x="50.9921" y="663.698">0.6</text>
</g>
<g clip-path="url(#clip400)">
<text style="fill:#000000; fill-opacity:1; font-family:Arial,Helvetica Neue,Helvetica,sans-serif; font-size:48px; text-anchor:end;" transform="rotate(0, 50.9921, 372.095)" x="50.9921" y="372.095">0.8</text>
</g>
<g clip-path="url(#clip400)">
<text style="fill:#000000; fill-opacity:1; font-family:Arial,Helvetica Neue,Helvetica,sans-serif; font-size:48px; text-anchor:end;" transform="rotate(0, 50.9921, 80.4921)" x="50.9921" y="80.4921">1.0</text>
</g>
<g clip-path="url(#clip400)">
<text style="fill:#000000; fill-opacity:1; font-family:Arial,Helvetica Neue,Helvetica,sans-serif; font-size:84px; text-anchor:middle;" transform="rotate(0, 1219.87, 73.2)" x="1219.87" y="73.2">DOF of chi</text>
</g>
<polyline clip-path="url(#clip402)" style="stroke:#009af9; stroke-width:4; stroke-opacity:1; fill:none" points="
  115.314,-228.668 143.636,344.14 171.958,606.963 200.28,768.028 228.602,880.368 256.924,964.709 285.246,1031.09 313.569,1085.09 341.891,1130.06 370.213,1168.21 
  398.535,1201.03 426.857,1229.6 455.179,1254.68 483.501,1276.89 511.823,1296.67 540.145,1314.39 568.467,1330.33 596.789,1344.74 625.111,1357.81 653.433,1369.7 
  681.755,1380.55 710.077,1390.47 738.399,1399.57 766.721,1407.92 795.043,1415.61 823.365,1422.7 851.687,1429.24 880.009,1435.29 908.331,1440.89 936.654,1446.08 
  964.976,1450.89 993.298,1455.36 1021.62,1459.51 1049.94,1463.38 1078.26,1466.98 1106.59,1470.33 1134.91,1473.46 1163.23,1476.38 1191.55,1479.1 1219.87,1481.65 
  1248.2,1484.03 1276.52,1486.25 1304.84,1488.33 1333.16,1490.28 1361.48,1492.11 1389.81,1493.82 1418.13,1495.42 1446.45,1496.92 1474.77,1498.33 1503.09,1499.66 
  1531.42,1500.9 1559.74,1502.06 1588.06,1503.16 1616.38,1504.19 1644.7,1505.15 1673.03,1506.06 1701.35,1506.92 1729.67,1507.72 1757.99,1508.47 1786.31,1509.19 
  1814.64,1509.85 1842.96,1510.48 1871.28,1511.08 1899.6,1511.64 1927.93,1512.16 1956.25,1512.66 1984.57,1513.12 2012.89,1513.56 2041.21,1513.98 2069.54,1514.37 
  2097.86,1514.74 2126.18,1515.08 2154.5,1515.41 2182.82,1515.72 2211.15,1516.01 2239.47,1516.29 2267.79,1516.55 2296.11,1516.79 2324.43,1517.02 2352.76,1517.24 
  
  "/>
<polyline clip-path="url(#clip402)" style="stroke:#e26f46; stroke-width:4; stroke-opacity:1; fill:none" points="
  115.314,827.554 143.636,861.374 171.958,893.545 200.28,924.147 228.602,953.256 256.924,980.946 285.246,1007.28 313.569,1032.34 341.891,1056.17 370.213,1078.84 
  398.535,1100.41 426.857,1120.92 455.179,1140.43 483.501,1158.99 511.823,1176.65 540.145,1193.44 568.467,1209.42 596.789,1224.62 625.111,1239.07 653.433,1252.82 
  681.755,1265.9 710.077,1278.34 738.399,1290.18 766.721,1301.43 795.043,1312.14 823.365,1322.33 851.687,1332.02 880.009,1341.24 908.331,1350 936.654,1358.34 
  964.976,1366.28 993.298,1373.82 1021.62,1381 1049.94,1387.83 1078.26,1394.33 1106.59,1400.5 1134.91,1406.38 1163.23,1411.97 1191.55,1417.29 1219.87,1422.35 
  1248.2,1427.16 1276.52,1431.74 1304.84,1436.09 1333.16,1440.23 1361.48,1444.17 1389.81,1447.92 1418.13,1451.48 1446.45,1454.87 1474.77,1458.1 1503.09,1461.17 
  1531.42,1464.09 1559.74,1466.86 1588.06,1469.5 1616.38,1472.01 1644.7,1474.4 1673.03,1476.68 1701.35,1478.84 1729.67,1480.9 1757.99,1482.85 1786.31,1484.71 
  1814.64,1486.48 1842.96,1488.17 1871.28,1489.77 1899.6,1491.29 1927.93,1492.74 1956.25,1494.12 1984.57,1495.43 2012.89,1496.68 2041.21,1497.87 2069.54,1498.99 
  2097.86,1500.07 2126.18,1501.09 2154.5,1502.06 2182.82,1502.98 2211.15,1503.86 2239.47,1504.7 2267.79,1505.49 2296.11,1506.25 2324.43,1506.97 2352.76,1507.66 
  
  "/>
<polyline clip-path="url(#clip402)" style="stroke:#3da44d; stroke-width:4; stroke-opacity:1; fill:none" points="
  115.314,1346.04 143.636,1285.63 171.958,1246.79 200.28,1219.82 228.602,1200.69 256.924,1187.23 285.246,1178.07 313.569,1172.27 341.891,1169.16 370.213,1168.21 
  398.535,1169.04 426.857,1171.32 455.179,1174.79 483.501,1179.24 511.823,1184.5 540.145,1190.41 568.467,1196.86 596.789,1203.73 625.111,1210.93 653.433,1218.39 
  681.755,1226.04 710.077,1233.82 738.399,1241.69 766.721,1249.6 795.043,1257.51 823.365,1265.4 851.687,1273.23 880.009,1280.99 908.331,1288.66 936.654,1296.21 
  964.976,1303.64 993.298,1310.93 1021.62,1318.08 1049.94,1325.07 1078.26,1331.91 1106.59,1338.58 1134.91,1345.08 1163.23,1351.42 1191.55,1357.58 1219.87,1363.57 
  1248.2,1369.39 1276.52,1375.03 1304.84,1380.51 1333.16,1385.82 1361.48,1390.96 1389.81,1395.93 1418.13,1400.75 1446.45,1405.4 1474.77,1409.9 1503.09,1414.24 
  1531.42,1418.44 1559.74,1422.49 1588.06,1426.4 1616.38,1430.17 1644.7,1433.8 1673.03,1437.3 1701.35,1440.68 1729.67,1443.93 1757.99,1447.06 1786.31,1450.07 
  1814.64,1452.97 1842.96,1455.76 1871.28,1458.45 1899.6,1461.03 1927.93,1463.51 1956.25,1465.89 1984.57,1468.18 2012.89,1470.39 2041.21,1472.5 2069.54,1474.54 
  2097.86,1476.49 2126.18,1478.36 2154.5,1480.16 2182.82,1481.89 2211.15,1483.55 2239.47,1485.14 2267.79,1486.66 2296.11,1488.12 2324.43,1489.53 2352.76,1490.88 
  
  "/>
<polyline clip-path="url(#clip402)" style="stroke:#c271d2; stroke-width:4; stroke-opacity:1; fill:none" points="
  115.314,1486.34 143.636,1455.04 171.958,1426.89 200.28,1401.64 228.602,1379.07 256.924,1358.99 285.246,1341.2 313.569,1325.54 341.891,1311.83 370.213,1299.93 
  398.535,1289.68 426.857,1280.96 455.179,1273.63 483.501,1267.6 511.823,1262.74 540.145,1258.96 568.467,1256.16 596.789,1254.25 625.111,1253.17 653.433,1252.82 
  681.755,1253.15 710.077,1254.08 738.399,1255.55 766.721,1257.52 795.043,1259.93 823.365,1262.73 851.687,1265.87 880.009,1269.33 908.331,1273.05 936.654,1277.01 
  964.976,1281.18 993.298,1285.51 1021.62,1290 1049.94,1294.61 1078.26,1299.31 1106.59,1304.1 1134.91,1308.95 1163.23,1313.84 1191.55,1318.76 1219.87,1323.69 
  1248.2,1328.62 1276.52,1333.54 1304.84,1338.43 1333.16,1343.3 1361.48,1348.12 1389.81,1352.9 1418.13,1357.62 1446.45,1362.29 1474.77,1366.88 1503.09,1371.41 
  1531.42,1375.86 1559.74,1380.23 1588.06,1384.52 1616.38,1388.73 1644.7,1392.85 1673.03,1396.88 1701.35,1400.83 1729.67,1404.68 1757.99,1408.45 1786.31,1412.12 
  1814.64,1415.71 1842.96,1419.2 1871.28,1422.6 1899.6,1425.92 1927.93,1429.14 1956.25,1432.28 1984.57,1435.33 2012.89,1438.29 2041.21,1441.17 2069.54,1443.96 
  2097.86,1446.67 2126.18,1449.3 2154.5,1451.85 2182.82,1454.32 2211.15,1456.72 2239.47,1459.04 2267.79,1461.28 2296.11,1463.46 2324.43,1465.56 2352.76,1467.6 
  
  "/>
<polyline clip-path="url(#clip402)" style="stroke:#ac8d18; stroke-width:4; stroke-opacity:1; fill:none" points="
  115.314,1515.18 143.636,1505.32 171.958,1493.59 200.28,1480.85 228.602,1467.62 256.924,1454.25 285.246,1440.99 313.569,1428.01 341.891,1415.45 370.213,1403.41 
  398.535,1391.95 426.857,1381.13 455.179,1370.98 483.501,1361.52 511.823,1352.75 540.145,1344.69 568.467,1337.32 596.789,1330.64 625.111,1324.63 653.433,1319.26 
  681.755,1314.53 710.077,1310.41 738.399,1306.86 766.721,1303.88 795.043,1301.43 823.365,1299.48 851.687,1298.01 880.009,1296.99 908.331,1296.4 936.654,1296.21 
  964.976,1296.39 993.298,1296.93 1021.62,1297.79 1049.94,1298.95 1078.26,1300.39 1106.59,1302.09 1134.91,1304.03 1163.23,1306.19 1191.55,1308.55 1219.87,1311.09 
  1248.2,1313.79 1276.52,1316.64 1304.84,1319.63 1333.16,1322.73 1361.48,1325.93 1389.81,1329.22 1418.13,1332.6 1446.45,1336.04 1474.77,1339.53 1503.09,1343.07 
  1531.42,1346.64 1559.74,1350.25 1588.06,1353.87 1616.38,1357.5 1644.7,1361.13 1673.03,1364.76 1701.35,1368.38 1729.67,1371.99 1757.99,1375.58 1786.31,1379.14 
  1814.64,1382.67 1842.96,1386.17 1871.28,1389.63 1899.6,1393.05 1927.93,1396.42 1956.25,1399.75 1984.57,1403.04 2012.89,1406.27 2041.21,1409.45 2069.54,1412.57 
  2097.86,1415.64 2126.18,1418.66 2154.5,1421.61 2182.82,1424.51 2211.15,1427.35 2239.47,1430.13 2267.79,1432.85 2296.11,1435.51 2324.43,1438.11 2352.76,1440.65 
  
  "/>
<polyline clip-path="url(#clip402)" style="stroke:#00a9ad; stroke-width:4; stroke-opacity:1; fill:none" points="
  115.314,1520.14 143.636,1517.71 171.958,1513.95 200.28,1509.07 228.602,1503.27 256.924,1496.71 285.246,1489.54 313.569,1481.91 341.891,1473.94 370.213,1465.74 
  398.535,1457.39 426.857,1448.99 455.179,1440.61 483.501,1432.31 511.823,1424.16 540.145,1416.19 568.467,1408.45 596.789,1400.97 625.111,1393.78 653.433,1386.91 
  681.755,1380.38 710.077,1374.2 738.399,1368.37 766.721,1362.92 795.043,1357.83 823.365,1353.13 851.687,1348.79 880.009,1344.83 908.331,1341.24 936.654,1338.01 
  964.976,1335.14 993.298,1332.61 1021.62,1330.42 1049.94,1328.57 1078.26,1327.03 1106.59,1325.79 1134.91,1324.85 1163.23,1324.2 1191.55,1323.81 1219.87,1323.69 
  1248.2,1323.81 1276.52,1324.16 1304.84,1324.74 1333.16,1325.53 1361.48,1326.51 1389.81,1327.69 1418.13,1329.03 1446.45,1330.54 1474.77,1332.2 1503.09,1334.01 
  1531.42,1335.94 1559.74,1337.99 1588.06,1340.16 1616.38,1342.43 1644.7,1344.79 1673.03,1347.23 1701.35,1349.75 1729.67,1352.34 1757.99,1354.98 1786.31,1357.68 
  1814.64,1360.42 1842.96,1363.21 1871.28,1366.02 1899.6,1368.86 1927.93,1371.72 1956.25,1374.6 1984.57,1377.49 2012.89,1380.38 2041.21,1383.28 2069.54,1386.17 
  2097.86,1389.06 2126.18,1391.93 2154.5,1394.79 2182.82,1397.64 2211.15,1400.46 2239.47,1403.26 2267.79,1406.04 2296.11,1408.78 2324.43,1411.5 2352.76,1414.19 
  
  "/>
<polyline clip-path="url(#clip402)" style="stroke:#ed5d92; stroke-width:4; stroke-opacity:1; fill:none" points="
  115.314,1520.89 143.636,1520.38 171.958,1519.36 200.28,1517.8 228.602,1515.67 256.924,1513 285.246,1509.81 313.569,1506.13 341.891,1502.01 370.213,1497.49 
  398.535,1492.62 426.857,1487.44 455.179,1482 483.501,1476.35 511.823,1470.53 540.145,1464.59 568.467,1458.55 596.789,1452.48 625.111,1446.38 653.433,1440.31 
  681.755,1434.29 710.077,1428.34 738.399,1422.5 766.721,1416.79 795.043,1411.22 823.365,1405.81 851.687,1400.59 880.009,1395.56 908.331,1390.74 936.654,1386.13 
  964.976,1381.75 993.298,1377.6 1021.62,1373.68 1049.94,1370.01 1078.26,1366.58 1106.59,1363.39 1134.91,1360.45 1163.23,1357.75 1191.55,1355.29 1219.87,1353.07 
  1248.2,1351.09 1276.52,1349.34 1304.84,1347.82 1333.16,1346.52 1361.48,1345.44 1389.81,1344.57 1418.13,1343.9 1446.45,1343.43 1474.77,1343.16 1503.09,1343.07 
  1531.42,1343.16 1559.74,1343.42 1588.06,1343.84 1616.38,1344.42 1644.7,1345.14 1673.03,1346.01 1701.35,1347.02 1729.67,1348.15 1757.99,1349.4 1786.31,1350.76 
  1814.64,1352.23 1842.96,1353.8 1871.28,1355.47 1899.6,1357.22 1927.93,1359.05 1956.25,1360.95 1984.57,1362.93 2012.89,1364.96 2041.21,1367.06 2069.54,1369.2 
  2097.86,1371.39 2126.18,1373.62 2154.5,1375.89 2182.82,1378.19 2211.15,1380.52 2239.47,1382.88 2267.79,1385.25 2296.11,1387.63 2324.43,1390.03 2352.76,1392.44 
  
  "/>
<polyline clip-path="url(#clip402)" style="stroke:#c68125; stroke-width:4; stroke-opacity:1; fill:none" points="
  115.314,1520.99 143.636,1520.9 171.958,1520.65 200.28,1520.21 228.602,1519.53 256.924,1518.58 285.246,1517.34 313.569,1515.8 341.891,1513.95 370.213,1511.8 
  398.535,1509.34 426.857,1506.6 455.179,1503.59 483.501,1500.31 511.823,1496.8 540.145,1493.06 568.467,1489.12 596.789,1485 625.111,1480.72 653.433,1476.31 
  681.755,1471.79 710.077,1467.18 738.399,1462.5 766.721,1457.77 795.043,1453.02 823.365,1448.26 851.687,1443.51 880.009,1438.79 908.331,1434.12 936.654,1429.51 
  964.976,1424.98 993.298,1420.53 1021.62,1416.19 1049.94,1411.96 1078.26,1407.85 1106.59,1403.88 1134.91,1400.05 1163.23,1396.36 1191.55,1392.83 1219.87,1389.46 
  1248.2,1386.25 1276.52,1383.22 1304.84,1380.35 1333.16,1377.66 1361.48,1375.14 1389.81,1372.79 1418.13,1370.63 1446.45,1368.63 1474.77,1366.82 1503.09,1365.17 
  1531.42,1363.7 1559.74,1362.4 1588.06,1361.26 1616.38,1360.29 1644.7,1359.47 1673.03,1358.82 1701.35,1358.31 1729.67,1357.96 1757.99,1357.75 1786.31,1357.68 
  1814.64,1357.75 1842.96,1357.95 1871.28,1358.27 1899.6,1358.72 1927.93,1359.28 1956.25,1359.96 1984.57,1360.75 2012.89,1361.63 2041.21,1362.62 2069.54,1363.7 
  2097.86,1364.87 2126.18,1366.12 2154.5,1367.45 2182.82,1368.85 2211.15,1370.32 2239.47,1371.86 2267.79,1373.46 2296.11,1375.12 2324.43,1376.83 2352.76,1378.58 
  
  "/>
<polyline clip-path="url(#clip402)" style="stroke:#00a98d; stroke-width:4; stroke-opacity:1; fill:none" points="
  115.314,1521.01 143.636,1520.99 171.958,1520.94 200.28,1520.82 228.602,1520.63 256.924,1520.32 285.246,1519.89 313.569,1519.31 341.891,1518.57 370.213,1517.65 
  398.535,1516.55 426.857,1515.25 455.179,1513.76 483.501,1512.08 511.823,1510.19 540.145,1508.11 568.467,1505.84 596.789,1503.39 625.111,1500.75 653.433,1497.95 
  681.755,1494.99 710.077,1491.88 738.399,1488.64 766.721,1485.27 795.043,1481.8 823.365,1478.22 851.687,1474.56 880.009,1470.83 908.331,1467.04 936.654,1463.2 
  964.976,1459.34 993.298,1455.45 1021.62,1451.55 1049.94,1447.66 1078.26,1443.79 1106.59,1439.95 1134.91,1436.14 1163.23,1432.38 1191.55,1428.68 1219.87,1425.04 
  1248.2,1421.49 1276.52,1418.01 1304.84,1414.62 1333.16,1411.33 1361.48,1408.14 1389.81,1405.06 1418.13,1402.09 1446.45,1399.24 1474.77,1396.51 1503.09,1393.91 
  1531.42,1391.43 1559.74,1389.08 1588.06,1386.86 1616.38,1384.78 1644.7,1382.83 1673.03,1381.01 1701.35,1379.33 1729.67,1377.78 1757.99,1376.37 1786.31,1375.08 
  1814.64,1373.93 1842.96,1372.91 1871.28,1372.02 1899.6,1371.26 1927.93,1370.62 1956.25,1370.1 1984.57,1369.7 2012.89,1369.42 2041.21,1369.25 2069.54,1369.2 
  2097.86,1369.25 2126.18,1369.41 2154.5,1369.67 2182.82,1370.03 2211.15,1370.49 2239.47,1371.04 2267.79,1371.67 2296.11,1372.39 2324.43,1373.19 2352.76,1374.07 
  
  "/>
<polyline clip-path="url(#clip402)" style="stroke:#8e971d; stroke-width:4; stroke-opacity:1; fill:none" points="
  115.314,1521.01 143.636,1521.01 171.958,1520.99 200.28,1520.97 228.602,1520.92 256.924,1520.83 285.246,1520.69 313.569,1520.49 341.891,1520.21 370.213,1519.86 
  398.535,1519.4 426.857,1518.85 455.179,1518.18 483.501,1517.39 511.823,1516.47 540.145,1515.42 568.467,1514.23 596.789,1512.91 625.111,1511.44 653.433,1509.83 
  681.755,1508.09 710.077,1506.2 738.399,1504.19 766.721,1502.04 795.043,1499.76 823.365,1497.36 851.687,1494.85 880.009,1492.23 908.331,1489.51 936.654,1486.7 
  964.976,1483.8 993.298,1480.82 1021.62,1477.77 1049.94,1474.66 1078.26,1471.5 1106.59,1468.3 1134.91,1465.06 1163.23,1461.8 1191.55,1458.52 1219.87,1455.23 
  1248.2,1451.95 1276.52,1448.67 1304.84,1445.4 1333.16,1442.16 1361.48,1438.96 1389.81,1435.79 1418.13,1432.66 1446.45,1429.58 1474.77,1426.57 1503.09,1423.61 
  1531.42,1420.72 1559.74,1417.91 1588.06,1415.17 1616.38,1412.52 1644.7,1409.95 1673.03,1407.47 1701.35,1405.09 1729.67,1402.8 1757.99,1400.6 1786.31,1398.51 
  1814.64,1396.52 1842.96,1394.63 1871.28,1392.85 1899.6,1391.18 1927.93,1389.61 1956.25,1388.14 1984.57,1386.79 2012.89,1385.54 2041.21,1384.4 2069.54,1383.36 
  2097.86,1382.43 2126.18,1381.61 2154.5,1380.88 2182.82,1380.26 2211.15,1379.74 2239.47,1379.32 2267.79,1378.99 2296.11,1378.76 2324.43,1378.63 2352.76,1378.58 
  
  "/>
<path clip-path="url(#clip400)" d="
M1850.18 776.873 L2277.23 776.873 L2277.23 111.593 L1850.18 111.593  Z
  " fill="#ffffff" fill-rule="evenodd" fill-opacity="1"/>
<polyline clip-path="url(#clip400)" style="stroke:#000000; stroke-width:4; stroke-opacity:1; fill:none" points="
  1850.18,776.873 2277.23,776.873 2277.23,111.593 1850.18,111.593 1850.18,776.873 
  "/>
<polyline clip-path="url(#clip400)" style="stroke:#009af9; stroke-width:4; stroke-opacity:1; fill:none" points="
  1875.35,172.073 2026.4,172.073 
  "/>
<g clip-path="url(#clip400)">
<text style="fill:#000000; fill-opacity:1; font-family:Arial,Helvetica Neue,Helvetica,sans-serif; font-size:48px; text-anchor:start;" transform="rotate(0, 2051.58, 189.573)" x="2051.58" y="189.573">dof = 1</text>
</g>
<polyline clip-path="url(#clip400)" style="stroke:#e26f46; stroke-width:4; stroke-opacity:1; fill:none" points="
  1875.35,232.553 2026.4,232.553 
  "/>
<g clip-path="url(#clip400)">
<text style="fill:#000000; fill-opacity:1; font-family:Arial,Helvetica Neue,Helvetica,sans-serif; font-size:48px; text-anchor:start;" transform="rotate(0, 2051.58, 250.053)" x="2051.58" y="250.053">dof = 2</text>
</g>
<polyline clip-path="url(#clip400)" style="stroke:#3da44d; stroke-width:4; stroke-opacity:1; fill:none" points="
  1875.35,293.033 2026.4,293.033 
  "/>
<g clip-path="url(#clip400)">
<text style="fill:#000000; fill-opacity:1; font-family:Arial,Helvetica Neue,Helvetica,sans-serif; font-size:48px; text-anchor:start;" transform="rotate(0, 2051.58, 310.533)" x="2051.58" y="310.533">dof = 3</text>
</g>
<polyline clip-path="url(#clip400)" style="stroke:#c271d2; stroke-width:4; stroke-opacity:1; fill:none" points="
  1875.35,353.513 2026.4,353.513 
  "/>
<g clip-path="url(#clip400)">
<text style="fill:#000000; fill-opacity:1; font-family:Arial,Helvetica Neue,Helvetica,sans-serif; font-size:48px; text-anchor:start;" transform="rotate(0, 2051.58, 371.013)" x="2051.58" y="371.013">dof = 4</text>
</g>
<polyline clip-path="url(#clip400)" style="stroke:#ac8d18; stroke-width:4; stroke-opacity:1; fill:none" points="
  1875.35,413.993 2026.4,413.993 
  "/>
<g clip-path="url(#clip400)">
<text style="fill:#000000; fill-opacity:1; font-family:Arial,Helvetica Neue,Helvetica,sans-serif; font-size:48px; text-anchor:start;" transform="rotate(0, 2051.58, 431.493)" x="2051.58" y="431.493">dof = 5</text>
</g>
<polyline clip-path="url(#clip400)" style="stroke:#00a9ad; stroke-width:4; stroke-opacity:1; fill:none" points="
  1875.35,474.473 2026.4,474.473 
  "/>
<g clip-path="url(#clip400)">
<text style="fill:#000000; fill-opacity:1; font-family:Arial,Helvetica Neue,Helvetica,sans-serif; font-size:48px; text-anchor:start;" transform="rotate(0, 2051.58, 491.973)" x="2051.58" y="491.973">dof = 6</text>
</g>
<polyline clip-path="url(#clip400)" style="stroke:#ed5d92; stroke-width:4; stroke-opacity:1; fill:none" points="
  1875.35,534.953 2026.4,534.953 
  "/>
<g clip-path="url(#clip400)">
<text style="fill:#000000; fill-opacity:1; font-family:Arial,Helvetica Neue,Helvetica,sans-serif; font-size:48px; text-anchor:start;" transform="rotate(0, 2051.58, 552.453)" x="2051.58" y="552.453">dof = 7</text>
</g>
<polyline clip-path="url(#clip400)" style="stroke:#c68125; stroke-width:4; stroke-opacity:1; fill:none" points="
  1875.35,595.433 2026.4,595.433 
  "/>
<g clip-path="url(#clip400)">
<text style="fill:#000000; fill-opacity:1; font-family:Arial,Helvetica Neue,Helvetica,sans-serif; font-size:48px; text-anchor:start;" transform="rotate(0, 2051.58, 612.933)" x="2051.58" y="612.933">dof = 8</text>
</g>
<polyline clip-path="url(#clip400)" style="stroke:#00a98d; stroke-width:4; stroke-opacity:1; fill:none" points="
  1875.35,655.913 2026.4,655.913 
  "/>
<g clip-path="url(#clip400)">
<text style="fill:#000000; fill-opacity:1; font-family:Arial,Helvetica Neue,Helvetica,sans-serif; font-size:48px; text-anchor:start;" transform="rotate(0, 2051.58, 673.413)" x="2051.58" y="673.413">dof = 9</text>
</g>
<polyline clip-path="url(#clip400)" style="stroke:#8e971d; stroke-width:4; stroke-opacity:1; fill:none" points="
  1875.35,716.393 2026.4,716.393 
  "/>
<g clip-path="url(#clip400)">
<text style="fill:#000000; fill-opacity:1; font-family:Arial,Helvetica Neue,Helvetica,sans-serif; font-size:48px; text-anchor:start;" transform="rotate(0, 2051.58, 733.893)" x="2051.58" y="733.893">dof = 10</text>
</g>
</svg>
