<?xml version="1.0" encoding="utf-8"?>
<svg xmlns="http://www.w3.org/2000/svg" xmlns:xlink="http://www.w3.org/1999/xlink" width="600" height="400" viewBox="0 0 2400 1600">
<defs>
  <clipPath id="clip240">
    <rect x="0" y="0" width="2400" height="1600"/>
  </clipPath>
</defs>
<path clip-path="url(#clip240)" d="
M0 1600 L2400 1600 L2400 0 L0 0  Z
  " fill="#ffffff" fill-rule="evenodd" fill-opacity="1"/>
<defs>
  <clipPath id="clip241">
    <rect x="480" y="0" width="1681" height="1600"/>
  </clipPath>
</defs>
<path clip-path="url(#clip240)" d="
M191.244 1416.76 L2352.76 1416.76 L2352.76 62.9921 L191.244 62.9921  Z
  " fill="#ffffff" fill-rule="evenodd" fill-opacity="1"/>
<defs>
  <clipPath id="clip242">
    <rect x="191" y="62" width="2163" height="1355"/>
  </clipPath>
</defs>
<polyline clip-path="url(#clip242)" style="stroke:#000000; stroke-width:2; stroke-opacity:0.1; fill:none" points="
  191.244,1416.76 191.244,62.9921 
  "/>
<polyline clip-path="url(#clip242)" style="stroke:#000000; stroke-width:2; stroke-opacity:0.1; fill:none" points="
  731.622,1416.76 731.622,62.9921 
  "/>
<polyline clip-path="url(#clip242)" style="stroke:#000000; stroke-width:2; stroke-opacity:0.1; fill:none" points="
  1272,1416.76 1272,62.9921 
  "/>
<polyline clip-path="url(#clip242)" style="stroke:#000000; stroke-width:2; stroke-opacity:0.1; fill:none" points="
  1812.38,1416.76 1812.38,62.9921 
  "/>
<polyline clip-path="url(#clip242)" style="stroke:#000000; stroke-width:2; stroke-opacity:0.1; fill:none" points="
  2352.76,1416.76 2352.76,62.9921 
  "/>
<polyline clip-path="url(#clip240)" style="stroke:#000000; stroke-width:4; stroke-opacity:1; fill:none" points="
  191.244,1416.76 2352.76,1416.76 
  "/>
<polyline clip-path="url(#clip240)" style="stroke:#000000; stroke-width:4; stroke-opacity:1; fill:none" points="
  191.244,1416.76 191.244,1400.51 
  "/>
<polyline clip-path="url(#clip240)" style="stroke:#000000; stroke-width:4; stroke-opacity:1; fill:none" points="
  731.622,1416.76 731.622,1400.51 
  "/>
<polyline clip-path="url(#clip240)" style="stroke:#000000; stroke-width:4; stroke-opacity:1; fill:none" points="
  1272,1416.76 1272,1400.51 
  "/>
<polyline clip-path="url(#clip240)" style="stroke:#000000; stroke-width:4; stroke-opacity:1; fill:none" points="
  1812.38,1416.76 1812.38,1400.51 
  "/>
<polyline clip-path="url(#clip240)" style="stroke:#000000; stroke-width:4; stroke-opacity:1; fill:none" points="
  2352.76,1416.76 2352.76,1400.51 
  "/>
<g clip-path="url(#clip240)">
<text style="fill:#000000; fill-opacity:1; font-family:Arial,Helvetica Neue,Helvetica,sans-serif; font-size:48px; text-anchor:middle;" transform="rotate(0, 191.244, 1477.96)" x="191.244" y="1477.96">0</text>
</g>
<g clip-path="url(#clip240)">
<text style="fill:#000000; fill-opacity:1; font-family:Arial,Helvetica Neue,Helvetica,sans-serif; font-size:48px; text-anchor:middle;" transform="rotate(0, 731.622, 1477.96)" x="731.622" y="1477.96">2</text>
</g>
<g clip-path="url(#clip240)">
<text style="fill:#000000; fill-opacity:1; font-family:Arial,Helvetica Neue,Helvetica,sans-serif; font-size:48px; text-anchor:middle;" transform="rotate(0, 1272, 1477.96)" x="1272" y="1477.96">4</text>
</g>
<g clip-path="url(#clip240)">
<text style="fill:#000000; fill-opacity:1; font-family:Arial,Helvetica Neue,Helvetica,sans-serif; font-size:48px; text-anchor:middle;" transform="rotate(0, 1812.38, 1477.96)" x="1812.38" y="1477.96">6</text>
</g>
<g clip-path="url(#clip240)">
<text style="fill:#000000; fill-opacity:1; font-family:Arial,Helvetica Neue,Helvetica,sans-serif; font-size:48px; text-anchor:middle;" transform="rotate(0, 2352.76, 1477.96)" x="2352.76" y="1477.96">8</text>
</g>
<polyline clip-path="url(#clip242)" style="stroke:#000000; stroke-width:2; stroke-opacity:0.1; fill:none" points="
  191.244,1416.76 2352.76,1416.76 
  "/>
<polyline clip-path="url(#clip242)" style="stroke:#000000; stroke-width:2; stroke-opacity:0.1; fill:none" points="
  191.244,1146 2352.76,1146 
  "/>
<polyline clip-path="url(#clip242)" style="stroke:#000000; stroke-width:2; stroke-opacity:0.1; fill:none" points="
  191.244,875.25 2352.76,875.25 
  "/>
<polyline clip-path="url(#clip242)" style="stroke:#000000; stroke-width:2; stroke-opacity:0.1; fill:none" points="
  191.244,604.498 2352.76,604.498 
  "/>
<polyline clip-path="url(#clip242)" style="stroke:#000000; stroke-width:2; stroke-opacity:0.1; fill:none" points="
  191.244,333.745 2352.76,333.745 
  "/>
<polyline clip-path="url(#clip242)" style="stroke:#000000; stroke-width:2; stroke-opacity:0.1; fill:none" points="
  191.244,62.9921 2352.76,62.9921 
  "/>
<polyline clip-path="url(#clip240)" style="stroke:#000000; stroke-width:4; stroke-opacity:1; fill:none" points="
  191.244,1416.76 191.244,62.9921 
  "/>
<polyline clip-path="url(#clip240)" style="stroke:#000000; stroke-width:4; stroke-opacity:1; fill:none" points="
  191.244,1416.76 217.182,1416.76 
  "/>
<polyline clip-path="url(#clip240)" style="stroke:#000000; stroke-width:4; stroke-opacity:1; fill:none" points="
  191.244,1146 217.182,1146 
  "/>
<polyline clip-path="url(#clip240)" style="stroke:#000000; stroke-width:4; stroke-opacity:1; fill:none" points="
  191.244,875.25 217.182,875.25 
  "/>
<polyline clip-path="url(#clip240)" style="stroke:#000000; stroke-width:4; stroke-opacity:1; fill:none" points="
  191.244,604.498 217.182,604.498 
  "/>
<polyline clip-path="url(#clip240)" style="stroke:#000000; stroke-width:4; stroke-opacity:1; fill:none" points="
  191.244,333.745 217.182,333.745 
  "/>
<polyline clip-path="url(#clip240)" style="stroke:#000000; stroke-width:4; stroke-opacity:1; fill:none" points="
  191.244,62.9921 217.182,62.9921 
  "/>
<g clip-path="url(#clip240)">
<text style="fill:#000000; fill-opacity:1; font-family:Arial,Helvetica Neue,Helvetica,sans-serif; font-size:48px; text-anchor:end;" transform="rotate(0, 155.244, 1434.26)" x="155.244" y="1434.26">0.0</text>
</g>
<g clip-path="url(#clip240)">
<text style="fill:#000000; fill-opacity:1; font-family:Arial,Helvetica Neue,Helvetica,sans-serif; font-size:48px; text-anchor:end;" transform="rotate(0, 155.244, 1163.5)" x="155.244" y="1163.5">0.2</text>
</g>
<g clip-path="url(#clip240)">
<text style="fill:#000000; fill-opacity:1; font-family:Arial,Helvetica Neue,Helvetica,sans-serif; font-size:48px; text-anchor:end;" transform="rotate(0, 155.244, 892.75)" x="155.244" y="892.75">0.4</text>
</g>
<g clip-path="url(#clip240)">
<text style="fill:#000000; fill-opacity:1; font-family:Arial,Helvetica Neue,Helvetica,sans-serif; font-size:48px; text-anchor:end;" transform="rotate(0, 155.244, 621.998)" x="155.244" y="621.998">0.6</text>
</g>
<g clip-path="url(#clip240)">
<text style="fill:#000000; fill-opacity:1; font-family:Arial,Helvetica Neue,Helvetica,sans-serif; font-size:48px; text-anchor:end;" transform="rotate(0, 155.244, 351.245)" x="155.244" y="351.245">0.8</text>
</g>
<g clip-path="url(#clip240)">
<text style="fill:#000000; fill-opacity:1; font-family:Arial,Helvetica Neue,Helvetica,sans-serif; font-size:48px; text-anchor:end;" transform="rotate(0, 155.244, 80.4921)" x="155.244" y="80.4921">1.0</text>
</g>
<g clip-path="url(#clip240)">
<text style="fill:#000000; fill-opacity:1; font-family:Arial,Helvetica Neue,Helvetica,sans-serif; font-size:84px; text-anchor:middle;" transform="rotate(0, 1272, 73.2)" x="1272" y="73.2">DOF of chi</text>
</g>
<polyline clip-path="url(#clip242)" style="stroke:#009af9; stroke-width:4; stroke-opacity:1; fill:none" points="
  218.263,-207.813 245.282,324.037 272.301,568.068 299.32,717.616 326.339,821.924 353.357,900.234 380.376,961.872 407.395,1012 434.414,1053.76 461.433,1089.18 
  488.452,1119.66 515.471,1146.18 542.49,1169.48 569.509,1190.09 596.528,1208.46 623.546,1224.91 650.565,1239.71 677.584,1253.09 704.603,1265.23 731.622,1276.27 
  758.641,1286.34 785.66,1295.55 812.679,1304 839.698,1311.75 866.717,1318.89 893.735,1325.47 920.754,1331.55 947.773,1337.17 974.792,1342.36 1001.81,1347.18 
  1028.83,1351.65 1055.85,1355.8 1082.87,1359.66 1109.89,1363.25 1136.91,1366.59 1163.92,1369.7 1190.94,1372.61 1217.96,1375.32 1244.98,1377.85 1272,1380.21 
  1299.02,1382.42 1326.04,1384.49 1353.06,1386.42 1380.08,1388.23 1407.09,1389.92 1434.11,1391.51 1461.13,1393 1488.15,1394.39 1515.17,1395.7 1542.19,1396.93 
  1569.21,1398.08 1596.23,1399.17 1623.25,1400.18 1650.26,1401.14 1677.28,1402.03 1704.3,1402.88 1731.32,1403.67 1758.34,1404.42 1785.36,1405.12 1812.38,1405.78 
  1839.4,1406.4 1866.42,1406.98 1893.43,1407.54 1920.45,1408.05 1947.47,1408.54 1974.49,1409 2001.51,1409.44 2028.53,1409.84 2055.55,1410.23 2082.57,1410.59 
  2109.59,1410.93 2136.6,1411.26 2163.62,1411.56 2190.64,1411.85 2217.66,1412.12 2244.68,1412.37 2271.7,1412.61 2298.72,1412.84 2325.74,1413.06 2352.76,1413.26 
  
  "/>
<polyline clip-path="url(#clip242)" style="stroke:#e26f46; stroke-width:4; stroke-opacity:1; fill:none" points="
  218.263,772.886 245.282,804.288 272.301,834.158 299.32,862.572 326.339,889.6 353.357,915.309 380.376,939.765 407.395,963.028 434.414,985.157 461.433,1006.21 
  488.452,1026.23 515.471,1045.28 542.49,1063.39 569.509,1080.63 596.528,1097.02 623.546,1112.61 650.565,1127.45 677.584,1141.56 704.603,1154.98 731.622,1167.74 
  758.641,1179.89 785.66,1191.44 812.679,1202.43 839.698,1212.88 866.717,1222.83 893.735,1232.28 920.754,1241.28 947.773,1249.84 974.792,1257.98 1001.81,1265.72 
  1028.83,1273.09 1055.85,1280.1 1082.87,1286.76 1109.89,1293.1 1136.91,1299.13 1163.92,1304.87 1190.94,1310.32 1217.96,1315.52 1244.98,1320.45 1272,1325.15 
  1299.02,1329.62 1326.04,1333.87 1353.06,1337.91 1380.08,1341.76 1407.09,1345.41 1434.11,1348.89 1461.13,1352.2 1488.15,1355.35 1515.17,1358.35 1542.19,1361.19 
  1569.21,1363.9 1596.23,1366.48 1623.25,1368.93 1650.26,1371.27 1677.28,1373.48 1704.3,1375.59 1731.32,1377.6 1758.34,1379.51 1785.36,1381.33 1812.38,1383.06 
  1839.4,1384.7 1866.42,1386.26 1893.43,1387.75 1920.45,1389.16 1947.47,1390.51 1974.49,1391.79 2001.51,1393.01 2028.53,1394.17 2055.55,1395.27 2082.57,1396.32 
  2109.59,1397.31 2136.6,1398.26 2163.62,1399.16 2190.64,1400.02 2217.66,1400.84 2244.68,1401.61 2271.7,1402.35 2298.72,1403.05 2325.74,1403.72 2352.76,1404.36 
  
  "/>
<polyline clip-path="url(#clip242)" style="stroke:#3da44d; stroke-width:4; stroke-opacity:1; fill:none" points="
  218.263,1254.3 245.282,1198.21 272.301,1162.15 299.32,1137.1 326.339,1119.34 353.357,1106.84 380.376,1098.34 407.395,1092.95 434.414,1090.06 461.433,1089.18 
  488.452,1089.95 515.471,1092.07 542.49,1095.29 569.509,1099.43 596.528,1104.31 623.546,1109.8 650.565,1115.78 677.584,1122.16 704.603,1128.85 731.622,1135.78 
  758.641,1142.88 785.66,1150.11 812.679,1157.41 839.698,1164.75 866.717,1172.1 893.735,1179.42 920.754,1186.7 947.773,1193.9 974.792,1201.02 1001.81,1208.03 
  1028.83,1214.93 1055.85,1221.7 1082.87,1228.34 1109.89,1234.83 1136.91,1241.18 1163.92,1247.37 1190.94,1253.41 1217.96,1259.29 1244.98,1265.01 1272,1270.57 
  1299.02,1275.98 1326.04,1281.22 1353.06,1286.3 1380.08,1291.23 1407.09,1296 1434.11,1300.62 1461.13,1305.09 1488.15,1309.41 1515.17,1313.59 1542.19,1317.63 
  1569.21,1321.52 1596.23,1325.28 1623.25,1328.91 1650.26,1332.41 1677.28,1335.79 1704.3,1339.04 1731.32,1342.17 1758.34,1345.19 1785.36,1348.09 1812.38,1350.89 
  1839.4,1353.58 1866.42,1356.17 1893.43,1358.67 1920.45,1361.06 1947.47,1363.37 1974.49,1365.58 2001.51,1367.71 2028.53,1369.76 2055.55,1371.72 2082.57,1373.61 
  2109.59,1375.42 2136.6,1377.16 2163.62,1378.83 2190.64,1380.43 2217.66,1381.97 2244.68,1383.45 2271.7,1384.87 2298.72,1386.22 2325.74,1387.53 2352.76,1388.78 
  
  "/>
<polyline clip-path="url(#clip242)" style="stroke:#c271d2; stroke-width:4; stroke-opacity:1; fill:none" points="
  218.263,1384.56 245.282,1355.51 272.301,1329.37 299.32,1305.92 326.339,1284.97 353.357,1266.32 380.376,1249.81 407.395,1235.26 434.414,1222.54 461.433,1211.48 
  488.452,1201.97 515.471,1193.87 542.49,1187.07 569.509,1181.47 596.528,1176.95 623.546,1173.44 650.565,1170.84 677.584,1169.08 704.603,1168.07 731.622,1167.74 
  758.641,1168.05 785.66,1168.91 812.679,1170.28 839.698,1172.11 866.717,1174.34 893.735,1176.94 920.754,1179.86 947.773,1183.07 974.792,1186.53 1001.81,1190.21 
  1028.83,1194.07 1055.85,1198.1 1082.87,1202.26 1109.89,1206.54 1136.91,1210.91 1163.92,1215.36 1190.94,1219.86 1217.96,1224.4 1244.98,1228.97 1272,1233.54 
  1299.02,1238.12 1326.04,1242.69 1353.06,1247.24 1380.08,1251.75 1407.09,1256.23 1434.11,1260.67 1461.13,1265.05 1488.15,1269.38 1515.17,1273.65 1542.19,1277.85 
  1569.21,1281.98 1596.23,1286.04 1623.25,1290.03 1650.26,1293.93 1677.28,1297.76 1704.3,1301.5 1731.32,1305.17 1758.34,1308.75 1785.36,1312.24 1812.38,1315.66 
  1839.4,1318.98 1866.42,1322.23 1893.43,1325.39 1920.45,1328.46 1947.47,1331.46 1974.49,1334.37 2001.51,1337.2 2028.53,1339.95 2055.55,1342.62 2082.57,1345.22 
  2109.59,1347.73 2136.6,1350.17 2163.62,1352.54 2190.64,1354.84 2217.66,1357.06 2244.68,1359.21 2271.7,1361.3 2298.72,1363.32 2325.74,1365.27 2352.76,1367.17 
  
  "/>
<polyline clip-path="url(#clip242)" style="stroke:#ac8d18; stroke-width:4; stroke-opacity:1; fill:none" points="
  218.263,1411.34 245.282,1402.19 272.301,1391.3 299.32,1379.47 326.339,1367.19 353.357,1354.77 380.376,1342.46 407.395,1330.41 434.414,1318.75 461.433,1307.57 
  488.452,1296.93 515.471,1286.88 542.49,1277.45 569.509,1268.67 596.528,1260.53 623.546,1253.05 650.565,1246.2 677.584,1240 704.603,1234.42 731.622,1229.44 
  758.641,1225.04 785.66,1221.21 812.679,1217.92 839.698,1215.15 866.717,1212.88 893.735,1211.07 920.754,1209.7 947.773,1208.76 974.792,1208.21 1001.81,1208.03 
  1028.83,1208.2 1055.85,1208.7 1082.87,1209.5 1109.89,1210.57 1136.91,1211.91 1163.92,1213.49 1190.94,1215.3 1217.96,1217.3 1244.98,1219.49 1272,1221.85 
  1299.02,1224.36 1326.04,1227 1353.06,1229.77 1380.08,1232.65 1407.09,1235.63 1434.11,1238.69 1461.13,1241.82 1488.15,1245.01 1515.17,1248.25 1542.19,1251.54 
  1569.21,1254.86 1596.23,1258.2 1623.25,1261.57 1650.26,1264.94 1677.28,1268.31 1704.3,1271.68 1731.32,1275.04 1758.34,1278.39 1785.36,1281.72 1812.38,1285.03 
  1839.4,1288.31 1866.42,1291.56 1893.43,1294.77 1920.45,1297.94 1947.47,1301.08 1974.49,1304.17 2001.51,1307.22 2028.53,1310.22 2055.55,1313.17 2082.57,1316.07 
  2109.59,1318.93 2136.6,1321.72 2163.62,1324.47 2190.64,1327.16 2217.66,1329.8 2244.68,1332.38 2271.7,1334.9 2298.72,1337.37 2325.74,1339.79 2352.76,1342.15 
  
  "/>
<polyline clip-path="url(#clip242)" style="stroke:#00a9ad; stroke-width:4; stroke-opacity:1; fill:none" points="
  218.263,1415.95 245.282,1413.69 272.301,1410.2 299.32,1405.67 326.339,1400.28 353.357,1394.19 380.376,1387.54 407.395,1380.46 434.414,1373.06 461.433,1365.44 
  488.452,1357.69 515.471,1349.89 542.49,1342.11 569.509,1334.4 596.528,1326.83 623.546,1319.43 650.565,1312.24 677.584,1305.3 704.603,1298.63 731.622,1292.25 
  758.641,1286.18 785.66,1280.44 812.679,1275.03 839.698,1269.97 866.717,1265.25 893.735,1260.88 920.754,1256.85 947.773,1253.18 974.792,1249.84 1001.81,1246.84 
  1028.83,1244.18 1055.85,1241.83 1082.87,1239.8 1109.89,1238.07 1136.91,1236.64 1163.92,1235.5 1190.94,1234.63 1217.96,1234.02 1244.98,1233.66 1272,1233.54 
  1299.02,1233.66 1326.04,1233.99 1353.06,1234.52 1380.08,1235.25 1407.09,1236.17 1434.11,1237.26 1461.13,1238.51 1488.15,1239.91 1515.17,1241.45 1542.19,1243.13 
  1569.21,1244.92 1596.23,1246.83 1623.25,1248.84 1650.26,1250.94 1677.28,1253.14 1704.3,1255.4 1731.32,1257.74 1758.34,1260.14 1785.36,1262.6 1812.38,1265.11 
  1839.4,1267.65 1866.42,1270.24 1893.43,1272.85 1920.45,1275.49 1947.47,1278.15 1974.49,1280.82 2001.51,1283.5 2028.53,1286.19 2055.55,1288.88 2082.57,1291.56 
  2109.59,1294.24 2136.6,1296.91 2163.62,1299.57 2190.64,1302.21 2217.66,1304.83 2244.68,1307.43 2271.7,1310.01 2298.72,1312.56 2325.74,1315.08 2352.76,1317.58 
  
  "/>
<polyline clip-path="url(#clip242)" style="stroke:#ed5d92; stroke-width:4; stroke-opacity:1; fill:none" points="
  218.263,1416.65 245.282,1416.17 272.301,1415.23 299.32,1413.77 326.339,1411.8 353.357,1409.32 380.376,1406.35 407.395,1402.94 434.414,1399.11 461.433,1394.92 
  488.452,1390.39 515.471,1385.59 542.49,1380.54 569.509,1375.29 596.528,1369.89 623.546,1364.37 650.565,1358.77 677.584,1353.12 704.603,1347.47 731.622,1341.83 
  758.641,1336.24 785.66,1330.72 812.679,1325.29 839.698,1319.99 866.717,1314.82 893.735,1309.8 920.754,1304.95 947.773,1300.28 974.792,1295.8 1001.81,1291.52 
  1028.83,1287.45 1055.85,1283.6 1082.87,1279.96 1109.89,1276.55 1136.91,1273.37 1163.92,1270.41 1190.94,1267.68 1217.96,1265.17 1244.98,1262.89 1272,1260.83 
  1299.02,1258.99 1326.04,1257.36 1353.06,1255.95 1380.08,1254.74 1407.09,1253.74 1434.11,1252.93 1461.13,1252.31 1488.15,1251.88 1515.17,1251.62 1542.19,1251.54 
  1569.21,1251.62 1596.23,1251.86 1623.25,1252.25 1650.26,1252.79 1677.28,1253.47 1704.3,1254.27 1731.32,1255.2 1758.34,1256.25 1785.36,1257.42 1812.38,1258.68 
  1839.4,1260.05 1866.42,1261.51 1893.43,1263.05 1920.45,1264.68 1947.47,1266.38 1974.49,1268.15 2001.51,1269.98 2028.53,1271.87 2055.55,1273.81 2082.57,1275.8 
  2109.59,1277.84 2136.6,1279.91 2163.62,1282.02 2190.64,1284.15 2217.66,1286.32 2244.68,1288.5 2271.7,1290.7 2298.72,1292.92 2325.74,1295.15 2352.76,1297.38 
  
  "/>
<polyline clip-path="url(#clip242)" style="stroke:#c68125; stroke-width:4; stroke-opacity:1; fill:none" points="
  218.263,1416.74 245.282,1416.65 272.301,1416.43 299.32,1416.02 326.339,1415.38 353.357,1414.5 380.376,1413.35 407.395,1411.92 434.414,1410.2 461.433,1408.2 
  488.452,1405.93 515.471,1403.38 542.49,1400.58 569.509,1397.54 596.528,1394.27 623.546,1390.8 650.565,1387.14 677.584,1383.32 704.603,1379.35 731.622,1375.25 
  758.641,1371.06 785.66,1366.77 812.679,1362.43 839.698,1358.04 866.717,1353.63 893.735,1349.21 920.754,1344.8 947.773,1340.42 974.792,1336.08 1001.81,1331.8 
  1028.83,1327.59 1055.85,1323.46 1082.87,1319.43 1109.89,1315.5 1136.91,1311.69 1163.92,1308 1190.94,1304.44 1217.96,1301.02 1244.98,1297.74 1272,1294.61 
  1299.02,1291.64 1326.04,1288.82 1353.06,1286.16 1380.08,1283.65 1407.09,1281.32 1434.11,1279.14 1461.13,1277.13 1488.15,1275.28 1515.17,1273.59 1542.19,1272.06 
  1569.21,1270.7 1596.23,1269.49 1623.25,1268.43 1650.26,1267.53 1677.28,1266.77 1704.3,1266.16 1731.32,1265.69 1758.34,1265.36 1785.36,1265.17 1812.38,1265.11 
  1839.4,1265.17 1866.42,1265.35 1893.43,1265.66 1920.45,1266.07 1947.47,1266.6 1974.49,1267.22 2001.51,1267.95 2028.53,1268.78 2055.55,1269.69 2082.57,1270.69 
  2109.59,1271.78 2136.6,1272.94 2163.62,1274.17 2190.64,1275.48 2217.66,1276.85 2244.68,1278.27 2271.7,1279.76 2298.72,1281.3 2325.74,1282.88 2352.76,1284.52 
  
  "/>
<polyline clip-path="url(#clip242)" style="stroke:#00a98d; stroke-width:4; stroke-opacity:1; fill:none" points="
  218.263,1416.75 245.282,1416.74 272.301,1416.69 299.32,1416.59 326.339,1416.4 353.357,1416.12 380.376,1415.72 407.395,1415.18 434.414,1414.49 461.433,1413.64 
  488.452,1412.61 515.471,1411.41 542.49,1410.03 569.509,1408.46 596.528,1406.71 623.546,1404.78 650.565,1402.67 677.584,1400.39 704.603,1397.95 731.622,1395.35 
  758.641,1392.6 785.66,1389.72 812.679,1386.7 839.698,1383.58 866.717,1380.35 893.735,1377.03 920.754,1373.63 947.773,1370.16 974.792,1366.65 1001.81,1363.08 
  1028.83,1359.49 1055.85,1355.88 1082.87,1352.27 1109.89,1348.66 1136.91,1345.06 1163.92,1341.49 1190.94,1337.96 1217.96,1334.47 1244.98,1331.03 1272,1327.65 
  1299.02,1324.35 1326.04,1321.12 1353.06,1317.98 1380.08,1314.92 1407.09,1311.96 1434.11,1309.1 1461.13,1306.34 1488.15,1303.7 1515.17,1301.16 1542.19,1298.74 
  1569.21,1296.44 1596.23,1294.26 1623.25,1292.2 1650.26,1290.27 1677.28,1288.46 1704.3,1286.77 1731.32,1285.21 1758.34,1283.77 1785.36,1282.46 1812.38,1281.27 
  1839.4,1280.2 1866.42,1279.25 1893.43,1278.42 1920.45,1277.71 1947.47,1277.12 1974.49,1276.64 2001.51,1276.27 2028.53,1276.01 2055.55,1275.85 2082.57,1275.8 
  2109.59,1275.85 2136.6,1276 2163.62,1276.24 2190.64,1276.58 2217.66,1277 2244.68,1277.51 2271.7,1278.1 2298.72,1278.77 2325.74,1279.51 2352.76,1280.33 
  
  "/>
<polyline clip-path="url(#clip242)" style="stroke:#8e971d; stroke-width:4; stroke-opacity:1; fill:none" points="
  218.263,1416.76 245.282,1416.75 272.301,1416.74 299.32,1416.72 326.339,1416.67 353.357,1416.59 380.376,1416.46 407.395,1416.27 434.414,1416.02 461.433,1415.69 
  488.452,1415.27 515.471,1414.75 542.49,1414.13 569.509,1413.39 596.528,1412.54 623.546,1411.57 650.565,1410.46 677.584,1409.23 704.603,1407.87 731.622,1406.38 
  758.641,1404.76 785.66,1403.01 812.679,1401.14 839.698,1399.14 866.717,1397.03 893.735,1394.8 920.754,1392.47 947.773,1390.04 974.792,1387.51 1001.81,1384.9 
  1028.83,1382.2 1055.85,1379.44 1082.87,1376.61 1109.89,1373.72 1136.91,1370.79 1163.92,1367.82 1190.94,1364.81 1217.96,1361.78 1244.98,1358.74 1272,1355.69 
  1299.02,1352.63 1326.04,1349.59 1353.06,1346.56 1380.08,1343.55 1407.09,1340.57 1434.11,1337.63 1461.13,1334.72 1488.15,1331.87 1515.17,1329.07 1542.19,1326.32 
  1569.21,1323.64 1596.23,1321.03 1623.25,1318.49 1650.26,1316.03 1677.28,1313.64 1704.3,1311.34 1731.32,1309.12 1758.34,1307 1785.36,1304.96 1812.38,1303.02 
  1839.4,1301.17 1866.42,1299.42 1893.43,1297.76 1920.45,1296.21 1947.47,1294.75 1974.49,1293.39 2001.51,1292.13 2028.53,1290.97 2055.55,1289.91 2082.57,1288.95 
  2109.59,1288.09 2136.6,1287.32 2163.62,1286.65 2190.64,1286.07 2217.66,1285.59 2244.68,1285.2 2271.7,1284.9 2298.72,1284.68 2325.74,1284.56 2352.76,1284.52 
  
  "/>
<path clip-path="url(#clip240)" d="
M1865.23 773.398 L2280.71 773.398 L2280.71 108.118 L1865.23 108.118  Z
  " fill="#ffffff" fill-rule="evenodd" fill-opacity="1"/>
<polyline clip-path="url(#clip240)" style="stroke:#000000; stroke-width:4; stroke-opacity:1; fill:none" points="
  1865.23,773.398 2280.71,773.398 2280.71,108.118 1865.23,108.118 1865.23,773.398 
  "/>
<polyline clip-path="url(#clip240)" style="stroke:#009af9; stroke-width:4; stroke-opacity:1; fill:none" points="
  1889.25,168.598 2033.35,168.598 
  "/>
<g clip-path="url(#clip240)">
<text style="fill:#000000; fill-opacity:1; font-family:Arial,Helvetica Neue,Helvetica,sans-serif; font-size:48px; text-anchor:start;" transform="rotate(0, 2057.37, 186.098)" x="2057.37" y="186.098">dof = 1</text>
</g>
<polyline clip-path="url(#clip240)" style="stroke:#e26f46; stroke-width:4; stroke-opacity:1; fill:none" points="
  1889.25,229.078 2033.35,229.078 
  "/>
<g clip-path="url(#clip240)">
<text style="fill:#000000; fill-opacity:1; font-family:Arial,Helvetica Neue,Helvetica,sans-serif; font-size:48px; text-anchor:start;" transform="rotate(0, 2057.37, 246.578)" x="2057.37" y="246.578">dof = 2</text>
</g>
<polyline clip-path="url(#clip240)" style="stroke:#3da44d; stroke-width:4; stroke-opacity:1; fill:none" points="
  1889.25,289.558 2033.35,289.558 
  "/>
<g clip-path="url(#clip240)">
<text style="fill:#000000; fill-opacity:1; font-family:Arial,Helvetica Neue,Helvetica,sans-serif; font-size:48px; text-anchor:start;" transform="rotate(0, 2057.37, 307.058)" x="2057.37" y="307.058">dof = 3</text>
</g>
<polyline clip-path="url(#clip240)" style="stroke:#c271d2; stroke-width:4; stroke-opacity:1; fill:none" points="
  1889.25,350.038 2033.35,350.038 
  "/>
<g clip-path="url(#clip240)">
<text style="fill:#000000; fill-opacity:1; font-family:Arial,Helvetica Neue,Helvetica,sans-serif; font-size:48px; text-anchor:start;" transform="rotate(0, 2057.37, 367.538)" x="2057.37" y="367.538">dof = 4</text>
</g>
<polyline clip-path="url(#clip240)" style="stroke:#ac8d18; stroke-width:4; stroke-opacity:1; fill:none" points="
  1889.25,410.518 2033.35,410.518 
  "/>
<g clip-path="url(#clip240)">
<text style="fill:#000000; fill-opacity:1; font-family:Arial,Helvetica Neue,Helvetica,sans-serif; font-size:48px; text-anchor:start;" transform="rotate(0, 2057.37, 428.018)" x="2057.37" y="428.018">dof = 5</text>
</g>
<polyline clip-path="url(#clip240)" style="stroke:#00a9ad; stroke-width:4; stroke-opacity:1; fill:none" points="
  1889.25,470.998 2033.35,470.998 
  "/>
<g clip-path="url(#clip240)">
<text style="fill:#000000; fill-opacity:1; font-family:Arial,Helvetica Neue,Helvetica,sans-serif; font-size:48px; text-anchor:start;" transform="rotate(0, 2057.37, 488.498)" x="2057.37" y="488.498">dof = 6</text>
</g>
<polyline clip-path="url(#clip240)" style="stroke:#ed5d92; stroke-width:4; stroke-opacity:1; fill:none" points="
  1889.25,531.478 2033.35,531.478 
  "/>
<g clip-path="url(#clip240)">
<text style="fill:#000000; fill-opacity:1; font-family:Arial,Helvetica Neue,Helvetica,sans-serif; font-size:48px; text-anchor:start;" transform="rotate(0, 2057.37, 548.978)" x="2057.37" y="548.978">dof = 7</text>
</g>
<polyline clip-path="url(#clip240)" style="stroke:#c68125; stroke-width:4; stroke-opacity:1; fill:none" points="
  1889.25,591.958 2033.35,591.958 
  "/>
<g clip-path="url(#clip240)">
<text style="fill:#000000; fill-opacity:1; font-family:Arial,Helvetica Neue,Helvetica,sans-serif; font-size:48px; text-anchor:start;" transform="rotate(0, 2057.37, 609.458)" x="2057.37" y="609.458">dof = 8</text>
</g>
<polyline clip-path="url(#clip240)" style="stroke:#00a98d; stroke-width:4; stroke-opacity:1; fill:none" points="
  1889.25,652.438 2033.35,652.438 
  "/>
<g clip-path="url(#clip240)">
<text style="fill:#000000; fill-opacity:1; font-family:Arial,Helvetica Neue,Helvetica,sans-serif; font-size:48px; text-anchor:start;" transform="rotate(0, 2057.37, 669.938)" x="2057.37" y="669.938">dof = 9</text>
</g>
<polyline clip-path="url(#clip240)" style="stroke:#8e971d; stroke-width:4; stroke-opacity:1; fill:none" points="
  1889.25,712.918 2033.35,712.918 
  "/>
<g clip-path="url(#clip240)">
<text style="fill:#000000; fill-opacity:1; font-family:Arial,Helvetica Neue,Helvetica,sans-serif; font-size:48px; text-anchor:start;" transform="rotate(0, 2057.37, 730.418)" x="2057.37" y="730.418">dof = 10</text>
</g>
</svg>
